  0
SECTION
  2
HEADER
  9
$ACADVER
  1
AC1027
  9
$ACADMAINTVER
 70
    55
  9
$DWGCODEPAGE
  3
ANSI_1252
  9
$LASTSAVEDBY
  1
crinne
  9
$REQUIREDVERSIONS
160
                 0
  9
$INSBASE
 10
0.0
 20
0.0
 30
0.0
  9
$EXTMIN
 10
-181.0915399367866
 20
-1902.082965444572
 30
0.0
  9
$EXTMAX
 10
-84.87633590885158
 20
-1780.029516306615
 30
0.0
  9
$LIMMIN
 10
-2600.0
 20
-2600.0
  9
$LIMMAX
 10
2000.0
 20
200.0
  9
$ORTHOMODE
 70
     0
  9
$REGENMODE
 70
     1
  9
$FILLMODE
 70
     1
  9
$QTEXTMODE
 70
     0
  9
$MIRRTEXT
 70
     1
  9
$LTSCALE
 40
25.0
  9
$ATTMODE
 70
     1
  9
$TEXTSIZE
 40
3.5
  9
$TRACEWID
 40
1.0
  9
$TEXTSTYLE
  7
STANDARD
  9
$CLAYER
  8
GRABUNGSGRENZE
  9
$CELTYPE
  6
ByLayer
  9
$CECOLOR
 62
   256
  9
$CELTSCALE
 40
1.0
  9
$DISPSILH
 70
     0
  9
$DIMSCALE
 40
1.0
  9
$DIMASZ
 40
3.5
  9
$DIMEXO
 40
0.1
  9
$DIMDLI
 40
7.0
  9
$DIMRND
 40
0.0
  9
$DIMDLE
 40
0.0
  9
$DIMEXE
 40
1.8
  9
$DIMTP
 40
0.0
  9
$DIMTM
 40
0.0
  9
$DIMTXT
 40
3.5
  9
$DIMCEN
 40
1.5
  9
$DIMTSZ
 40
0.0
  9
$DIMTOL
 70
     0
  9
$DIMLIM
 70
     0
  9
$DIMTIH
 70
     0
  9
$DIMTOH
 70
     0
  9
$DIMSE1
 70
     0
  9
$DIMSE2
 70
     0
  9
$DIMTAD
 70
     0
  9
$DIMZIN
 70
     0
  9
$DIMBLK
  1

  9
$DIMASO
 70
     1
  9
$DIMSHO
 70
     0
  9
$DIMPOST
  1

  9
$DIMAPOST
  1

  9
$DIMALT
 70
     0
  9
$DIMALTD
 70
     2
  9
$DIMALTF
 40
25.4
  9
$DIMLFAC
 40
1.0
  9
$DIMTOFL
 70
     0
  9
$DIMTVP
 40
0.0
  9
$DIMTIX
 70
     0
  9
$DIMSOXD
 70
     0
  9
$DIMSAH
 70
     0
  9
$DIMBLK1
  1

  9
$DIMBLK2
  1

  9
$DIMSTYLE
  2
Standard
  9
$DIMCLRD
 70
     0
  9
$DIMCLRE
 70
     0
  9
$DIMCLRT
 70
     0
  9
$DIMTFAC
 40
1.0
  9
$DIMGAP
 40
0.09
  9
$DIMJUST
 70
     0
  9
$DIMSD1
 70
     0
  9
$DIMSD2
 70
     0
  9
$DIMTOLJ
 70
     1
  9
$DIMTZIN
 70
     0
  9
$DIMALTZ
 70
     0
  9
$DIMALTTZ
 70
     0
  9
$DIMUPT
 70
     0
  9
$DIMDEC
 70
     2
  9
$DIMTDEC
 70
     2
  9
$DIMALTU
 70
     2
  9
$DIMALTTD
 70
     2
  9
$DIMTXSTY
  7
STANDARD
  9
$DIMAUNIT
 70
     0
  9
$DIMADEC
 70
     0
  9
$DIMALTRND
 40
0.0
  9
$DIMAZIN
 70
     0
  9
$DIMDSEP
 70
    46
  9
$DIMATFIT
 70
     3
  9
$DIMFRAC
 70
     0
  9
$DIMLDRBLK
  1

  9
$DIMLUNIT
 70
     2
  9
$DIMLWD
 70
    -2
  9
$DIMLWE
 70
    -2
  9
$DIMTMOVE
 70
     2
  9
$DIMFXL
 40
1.0
  9
$DIMFXLON
 70
     0
  9
$DIMJOGANG
 40
0.7853981633974483
  9
$DIMTFILL
 70
     0
  9
$DIMTFILLCLR
 70
     0
  9
$DIMARCSYM
 70
     0
  9
$DIMLTYPE
  6

  9
$DIMLTEX1
  6

  9
$DIMLTEX2
  6

  9
$DIMTXTDIRECTION
 70
     0
  9
$LUNITS
 70
     2
  9
$LUPREC
 70
     2
  9
$SKETCHINC
 40
1.0
  9
$FILLETRAD
 40
0.0
  9
$AUNITS
 70
     0
  9
$AUPREC
 70
     0
  9
$MENU
  1
ACAD
  9
$ELEVATION
 40
0.0
  9
$PELEVATION
 40
0.0
  9
$THICKNESS
 40
0.0
  9
$LIMCHECK
 70
     0
  9
$CHAMFERA
 40
0.0
  9
$CHAMFERB
 40
0.0
  9
$CHAMFERC
 40
0.0
  9
$CHAMFERD
 40
0.0
  9
$SKPOLY
 70
     0
  9
$TDCREATE
 40
2450576.478795718
  9
$TDUCREATE
 40
2450576.395462384
  9
$TDUPDATE
 40
2459792.700947014
  9
$TDUUPDATE
 40
2459792.617613681
  9
$TDINDWG
 40
0.0004705556
  9
$TDUSRTIMER
 40
0.0004705556
  9
$USRTIMER
 70
     1
  9
$ANGBASE
 50
0.0
  9
$ANGDIR
 70
     0
  9
$PDMODE
 70
     0
  9
$PDSIZE
 40
0.0
  9
$PLINEWID
 40
0.0
  9
$SPLFRAME
 70
     0
  9
$SPLINETYPE
 70
     6
  9
$SPLINESEGS
 70
     8
  9
$HANDSEED
  5
338
  9
$SURFTAB1
 70
     6
  9
$SURFTAB2
 70
     6
  9
$SURFTYPE
 70
     6
  9
$SURFU
 70
     6
  9
$SURFV
 70
     6
  9
$UCSBASE
  2

  9
$UCSNAME
  2

  9
$UCSORG
 10
0.0
 20
0.0
 30
0.0
  9
$UCSXDIR
 10
1.0
 20
0.0
 30
0.0
  9
$UCSYDIR
 10
0.0
 20
1.0
 30
0.0
  9
$UCSORTHOREF
  2

  9
$UCSORTHOVIEW
 70
     0
  9
$UCSORGTOP
 10
0.0
 20
0.0
 30
0.0
  9
$UCSORGBOTTOM
 10
0.0
 20
0.0
 30
0.0
  9
$UCSORGLEFT
 10
0.0
 20
0.0
 30
0.0
  9
$UCSORGRIGHT
 10
0.0
 20
0.0
 30
0.0
  9
$UCSORGFRONT
 10
0.0
 20
0.0
 30
0.0
  9
$UCSORGBACK
 10
0.0
 20
0.0
 30
0.0
  9
$PUCSBASE
  2

  9
$PUCSNAME
  2

  9
$PUCSORG
 10
0.0
 20
0.0
 30
0.0
  9
$PUCSXDIR
 10
1.0
 20
0.0
 30
0.0
  9
$PUCSYDIR
 10
0.0
 20
1.0
 30
0.0
  9
$PUCSORTHOREF
  2

  9
$PUCSORTHOVIEW
 70
     0
  9
$PUCSORGTOP
 10
0.0
 20
0.0
 30
0.0
  9
$PUCSORGBOTTOM
 10
0.0
 20
0.0
 30
0.0
  9
$PUCSORGLEFT
 10
0.0
 20
0.0
 30
0.0
  9
$PUCSORGRIGHT
 10
0.0
 20
0.0
 30
0.0
  9
$PUCSORGFRONT
 10
0.0
 20
0.0
 30
0.0
  9
$PUCSORGBACK
 10
0.0
 20
0.0
 30
0.0
  9
$USERI1
 70
     0
  9
$USERI2
 70
     0
  9
$USERI3
 70
     0
  9
$USERI4
 70
     0
  9
$USERI5
 70
     0
  9
$USERR1
 40
0.0
  9
$USERR2
 40
0.0
  9
$USERR3
 40
0.0
  9
$USERR4
 40
0.0
  9
$USERR5
 40
0.0
  9
$WORLDVIEW
 70
     1
  9
$SHADEDGE
 70
     3
  9
$SHADEDIF
 70
    70
  9
$TILEMODE
 70
     1
  9
$MAXACTVP
 70
    16
  9
$PINSBASE
 10
0.0
 20
0.0
 30
0.0
  9
$PLIMCHECK
 70
     0
  9
$PEXTMIN
 10
1.000000000000000E+20
 20
1.000000000000000E+20
 30
1.000000000000000E+20
  9
$PEXTMAX
 10
-1.000000000000000E+20
 20
-1.000000000000000E+20
 30
-1.000000000000000E+20
  9
$PLIMMIN
 10
0.0
 20
0.0
  9
$PLIMMAX
 10
12.0
 20
9.0
  9
$UNITMODE
 70
     0
  9
$VISRETAIN
 70
     0
  9
$PLINEGEN
 70
     0
  9
$PSLTSCALE
 70
     0
  9
$TREEDEPTH
 70
  3020
  9
$CMLSTYLE
  2
Standard
  9
$CMLJUST
 70
     0
  9
$CMLSCALE
 40
1.0
  9
$PROXYGRAPHICS
 70
     1
  9
$MEASUREMENT
 70
     0
  9
$CELWEIGHT
370
    -1
  9
$ENDCAPS
280
     0
  9
$JOINSTYLE
280
     0
  9
$LWDISPLAY
290
     0
  9
$INSUNITS
 70
     0
  9
$HYPERLINKBASE
  1

  9
$STYLESHEET
  1

  9
$XEDIT
290
     1
  9
$CEPSNTYPE
380
     0
  9
$PSTYLEMODE
290
     1
  9
$FINGERPRINTGUID
  2
{87039C3C-7D1A-4A30-AA4C-15C6E7B1EA13}
  9
$VERSIONGUID
  2
{10895EDD-BD78-42D0-9B2C-6A44235D25FC}
  9
$EXTNAMES
290
     1
  9
$PSVPSCALE
 40
0.0
  9
$OLESTARTUP
290
     0
  9
$SORTENTS
280
   127
  9
$INDEXCTL
280
     0
  9
$HIDETEXT
280
     1
  9
$XCLIPFRAME
280
     2
  9
$HALOGAP
280
     0
  9
$OBSCOLOR
 70
   257
  9
$OBSLTYPE
280
     0
  9
$INTERSECTIONDISPLAY
280
     0
  9
$INTERSECTIONCOLOR
 70
   257
  9
$DIMASSOC
280
     2
  9
$PROJECTNAME
  1

  9
$CAMERADISPLAY
290
     0
  9
$LENSLENGTH
 40
50.0
  9
$CAMERAHEIGHT
 40
0.0
  9
$STEPSPERSEC
 40
2.0
  9
$STEPSIZE
 40
6.0
  9
$3DDWFPREC
 40
2.0
  9
$PSOLWIDTH
 40
0.25
  9
$PSOLHEIGHT
 40
4.0
  9
$LOFTANG1
 40
1.570796326794896
  9
$LOFTANG2
 40
1.570796326794896
  9
$LOFTMAG1
 40
0.0
  9
$LOFTMAG2
 40
0.0
  9
$LOFTPARAM
 70
     7
  9
$LOFTNORMALS
280
     1
  9
$LATITUDE
 40
37.795
  9
$LONGITUDE
 40
-122.394
  9
$NORTHDIRECTION
 40
0.0
  9
$TIMEZONE
 70
 -8000
  9
$LIGHTGLYPHDISPLAY
280
     1
  9
$TILEMODELIGHTSYNCH
280
     1
  9
$CMATERIAL
347
11
  9
$SOLIDHIST
280
     0
  9
$SHOWHIST
280
     1
  9
$DWFFRAME
280
     2
  9
$DGNFRAME
280
     0
  9
$REALWORLDSCALE
290
     1
  9
$INTERFERECOLOR
 62
     1
  9
$INTERFEREOBJVS
345
33
  9
$INTERFEREVPVS
346
30
  9
$CSHADOW
280
     0
  9
$SHADOWPLANELOCATION
 40
0.0
  0
ENDSEC
  0
SECTION
  2
CLASSES
  0
CLASS
  1
ACDBDICTIONARYWDFLT
  2
AcDbDictionaryWithDefault
  3
ObjectDBX Classes
 90
        0
 91
        1
280
     0
281
     0
  0
CLASS
  1
MATERIAL
  2
AcDbMaterial
  3
ObjectDBX Classes
 90
     1153
 91
        3
280
     0
281
     0
  0
CLASS
  1
VISUALSTYLE
  2
AcDbVisualStyle
  3
ObjectDBX Classes
 90
     4095
 91
       24
280
     0
281
     0
  0
CLASS
  1
SCALE
  2
AcDbScale
  3
ObjectDBX Classes
 90
     1153
 91
       17
280
     0
281
     0
  0
CLASS
  1
TABLESTYLE
  2
AcDbTableStyle
  3
ObjectDBX Classes
 90
     4095
 91
        1
280
     0
281
     0
  0
CLASS
  1
MLEADERSTYLE
  2
AcDbMLeaderStyle
  3
ACDB_MLEADERSTYLE_CLASS
 90
     4095
 91
        1
280
     0
281
     0
  0
CLASS
  1
ACDBSECTIONVIEWSTYLE
  2
AcDbSectionViewStyle
  3
ObjectDBX Classes
 90
     1025
 91
        1
280
     0
281
     0
  0
CLASS
  1
ACDBDETAILVIEWSTYLE
  2
AcDbDetailViewStyle
  3
ObjectDBX Classes
 90
     1025
 91
        1
280
     0
281
     0
  0
CLASS
  1
DICTIONARYVAR
  2
AcDbDictionaryVar
  3
ObjectDBX Classes
 90
        0
 91
        5
280
     0
281
     0
  0
CLASS
  1
CELLSTYLEMAP
  2
AcDbCellStyleMap
  3
ObjectDBX Classes
 90
     1152
 91
        1
280
     0
281
     0
  0
ENDSEC
  0
SECTION
  2
TABLES
  0
TABLE
  2
VPORT
  5
8
330
0
100
AcDbSymbolTable
 70
     2
  0
VPORT
  5
8E
330
8
100
AcDbSymbolTableRecord
100
AcDbViewportTableRecord
  2
*ACTIVE
 70
     0
 10
0.0
 20
0.0
 11
1.0
 21
1.0
 12
-60.07681264763869
 22
-1841.206994076243
 13
0.0
 23
0.0
 14
5.0
 24
5.0
 15
100.0
 25
100.0
 16
0.0
 26
0.0
 36
1.0
 17
0.0
 27
0.0
 37
0.0
 40
122.3549555392558
 41
1.978092783505154
 42
50.0
 43
0.0
 44
0.0
 50
0.0
 51
0.0
 71
     0
 72
   100
 73
     1
 74
     0
 75
     0
 76
     1
 77
     0
 78
     0
281
     0
 65
     1
110
0.0
120
0.0
130
0.0
111
1.0
121
0.0
131
0.0
112
0.0
122
1.0
132
0.0
 79
     0
146
0.0
348
2F
 60
     3
 61
     5
292
     1
282
     0
141
0.0
142
0.0
 63
   250
421
  3355443
1001
ACAD_NAV_VCDISPLAY
1070
     3
  0
ENDTAB
  0
TABLE
  2
LTYPE
  5
5
330
0
100
AcDbSymbolTable
 70
    25
  0
LTYPE
  5
5A
330
5
100
AcDbSymbolTableRecord
100
AcDbLinetypeTableRecord
  2
ByBlock
 70
     0
  3

 72
    65
 73
     0
 40
0.0
  0
LTYPE
  5
5B
330
5
100
AcDbSymbolTableRecord
100
AcDbLinetypeTableRecord
  2
ByLayer
 70
     0
  3

 72
    65
 73
     0
 40
0.0
  0
LTYPE
  5
5C
330
5
100
AcDbSymbolTableRecord
100
AcDbLinetypeTableRecord
  2
CONTINUOUS
 70
     0
  3
Ausgezogene Linie
 72
    65
 73
     0
 40
0.0
  0
LTYPE
  5
75
330
5
100
AcDbSymbolTableRecord
100
AcDbLinetypeTableRecord
  2
RAND
 70
     0
  3
__ __ . __ __ . __ __ . __ __ . __ __ . __ __ .
 72
    65
 73
     6
 40
1.75
 49
0.5
 74
     0
 49
-0.25
 74
     0
 49
0.5
 74
     0
 49
-0.25
 74
     0
 49
0.0
 74
     0
 49
-0.25
 74
     0
  0
LTYPE
  5
76
330
5
100
AcDbSymbolTableRecord
100
AcDbLinetypeTableRecord
  2
RAND2
 70
     0
  3
__.__.__.__.__.__.__.__.__.__.__.__.__.__.__.__
 72
    65
 73
     6
 40
0.875
 49
0.25
 74
     0
 49
-0.125
 74
     0
 49
0.25
 74
     0
 49
-0.125
 74
     0
 49
0.0
 74
     0
 49
-0.125
 74
     0
  0
LTYPE
  5
77
330
5
100
AcDbSymbolTableRecord
100
AcDbLinetypeTableRecord
  2
RANDX2
 70
     0
  3
____  ____  .  ____  ____  .  ____  ____  .  __
 72
    65
 73
     6
 40
3.5
 49
1.0
 74
     0
 49
-0.5
 74
     0
 49
1.0
 74
     0
 49
-0.5
 74
     0
 49
0.0
 74
     0
 49
-0.5
 74
     0
  0
LTYPE
  5
78
330
5
100
AcDbSymbolTableRecord
100
AcDbLinetypeTableRecord
  2
MITTE
 70
     0
  3
____ _ ____ _ ____ _ ____ _ ____ _ ____ _ ____ 
 72
    65
 73
     4
 40
2.0
 49
1.25
 74
     0
 49
-0.25
 74
     0
 49
0.25
 74
     0
 49
-0.25
 74
     0
  0
LTYPE
  5
79
330
5
100
AcDbSymbolTableRecord
100
AcDbLinetypeTableRecord
  2
MITTE2
 70
     0
  3
___ _ ___ _ ___ _ ___ _ ___ _ ___ _ ___ _ ___ _
 72
    65
 73
     4
 40
1.125
 49
0.75
 74
     0
 49
-0.125
 74
     0
 49
0.125
 74
     0
 49
-0.125
 74
     0
  0
LTYPE
  5
7A
330
5
100
AcDbSymbolTableRecord
100
AcDbLinetypeTableRecord
  2
MITTEX2
 70
     0
  3
________  __  ________  __  ________  __  _____
 72
    65
 73
     4
 40
4.0
 49
2.5
 74
     0
 49
-0.5
 74
     0
 49
0.5
 74
     0
 49
-0.5
 74
     0
  0
LTYPE
  5
7B
330
5
100
AcDbSymbolTableRecord
100
AcDbLinetypeTableRecord
  2
STRICHPUNKT
 70
     0
  3
__ . __ . __ . __ . __ . __ . __ . __ . __ . __
 72
    65
 73
     4
 40
1.0
 49
0.5
 74
     0
 49
-0.25
 74
     0
 49
0.0
 74
     0
 49
-0.25
 74
     0
  0
LTYPE
  5
7C
330
5
100
AcDbSymbolTableRecord
100
AcDbLinetypeTableRecord
  2
STRICHPUNKT2
 70
     0
  3
_._._._._._._._._._._._._._._._._._._._._._._._
 72
    65
 73
     4
 40
0.5
 49
0.25
 74
     0
 49
-0.125
 74
     0
 49
0.0
 74
     0
 49
-0.125
 74
     0
  0
LTYPE
  5
7D
330
5
100
AcDbSymbolTableRecord
100
AcDbLinetypeTableRecord
  2
STRICHPUNKTX2
 70
     0
  3
____  .  ____  .  ____  .  ____  .  ____  .  __
 72
    65
 73
     4
 40
2.0
 49
1.0
 74
     0
 49
-0.5
 74
     0
 49
0.0
 74
     0
 49
-0.5
 74
     0
  0
LTYPE
  5
7E
330
5
100
AcDbSymbolTableRecord
100
AcDbLinetypeTableRecord
  2
GESTRICHELT
 70
     0
  3
__ __ __ __ __ __ __ __ __ __ __ __ __ __ __ __
 72
    65
 73
     2
 40
0.75
 49
0.5
 74
     0
 49
-0.25
 74
     0
  0
LTYPE
  5
7F
330
5
100
AcDbSymbolTableRecord
100
AcDbLinetypeTableRecord
  2
GESTRICHELT2
 70
     0
  3
_ _ _ _ _ _ _ _ _ _ _ _ _ _ _ _ _ _ _ _ _ _ _ _
 72
    65
 73
     2
 40
0.375
 49
0.25
 74
     0
 49
-0.125
 74
     0
  0
LTYPE
  5
80
330
5
100
AcDbSymbolTableRecord
100
AcDbLinetypeTableRecord
  2
GESTRICHELTX2
 70
     0
  3
____  ____  ____  ____  ____  ____  ____  ____ 
 72
    65
 73
     2
 40
1.5
 49
1.0
 74
     0
 49
-0.5
 74
     0
  0
LTYPE
  5
81
330
5
100
AcDbSymbolTableRecord
100
AcDbLinetypeTableRecord
  2
GETRENNT
 70
     0
  3
____ . . ____ . . ____ . . ____ . . ____ . . __
 72
    65
 73
     6
 40
1.25
 49
0.5
 74
     0
 49
-0.25
 74
     0
 49
0.0
 74
     0
 49
-0.25
 74
     0
 49
0.0
 74
     0
 49
-0.25
 74
     0
  0
LTYPE
  5
82
330
5
100
AcDbSymbolTableRecord
100
AcDbLinetypeTableRecord
  2
GETRENNT2
 70
     0
  3
__..__..__..__..__..__..__..__..__..__..__..__.
 72
    65
 73
     6
 40
0.625
 49
0.25
 74
     0
 49
-0.125
 74
     0
 49
0.0
 74
     0
 49
-0.125
 74
     0
 49
0.0
 74
     0
 49
-0.125
 74
     0
  0
LTYPE
  5
83
330
5
100
AcDbSymbolTableRecord
100
AcDbLinetypeTableRecord
  2
GETRENNTX2
 70
     0
  3
________  .  .  ________  .  .  ________  .  . 
 72
    65
 73
     6
 40
2.5
 49
1.0
 74
     0
 49
-0.5
 74
     0
 49
0.0
 74
     0
 49
-0.5
 74
     0
 49
0.0
 74
     0
 49
-0.5
 74
     0
  0
LTYPE
  5
84
330
5
100
AcDbSymbolTableRecord
100
AcDbLinetypeTableRecord
  2
PUNKT
 70
     0
  3
. . . . . . . . . . . . . . . . . . . . . . . .
 72
    65
 73
     2
 40
0.25
 49
0.0
 74
     0
 49
-0.25
 74
     0
  0
LTYPE
  5
85
330
5
100
AcDbSymbolTableRecord
100
AcDbLinetypeTableRecord
  2
PUNKT2
 70
     0
  3
...............................................
 72
    65
 73
     2
 40
0.125
 49
0.0
 74
     0
 49
-0.125
 74
     0
  0
LTYPE
  5
86
330
5
100
AcDbSymbolTableRecord
100
AcDbLinetypeTableRecord
  2
PUNKTX2
 70
     0
  3
.  .  .  .  .  .  .  .  .  .  .  .  .  .  .  . 
 72
    65
 73
     2
 40
0.5
 49
0.0
 74
     0
 49
-0.5
 74
     0
  0
LTYPE
  5
87
330
5
100
AcDbSymbolTableRecord
100
AcDbLinetypeTableRecord
  2
VERDECKT
 70
     0
  3
__ __ __ __ __ __ __ __ __ __ __ __ __ __ __ __
 72
    65
 73
     2
 40
0.375
 49
0.25
 74
     0
 49
-0.125
 74
     0
  0
LTYPE
  5
88
330
5
100
AcDbSymbolTableRecord
100
AcDbLinetypeTableRecord
  2
VERDECKT2
 70
     0
  3
_ _ _ _ _ _ _ _ _ _ _ _ _ _ _ _ _ _ _ _ _ _ _ _
 72
    65
 73
     2
 40
0.1875
 49
0.125
 74
     0
 49
-0.0625
 74
     0
  0
LTYPE
  5
89
330
5
100
AcDbSymbolTableRecord
100
AcDbLinetypeTableRecord
  2
VERDECKTX2
 70
     0
  3
____ ____ ____ ____ ____ ____ ____ ____ ____ __
 72
    65
 73
     2
 40
0.75
 49
0.5
 74
     0
 49
-0.25
 74
     0
  0
LTYPE
  5
8A
330
5
100
AcDbSymbolTableRecord
100
AcDbLinetypeTableRecord
  2
PHANTOM
 70
     0
  3
______  __  __  ______  __  __  ______  __  __ 
 72
    65
 73
     6
 40
2.5
 49
1.25
 74
     0
 49
-0.25
 74
     0
 49
0.25
 74
     0
 49
-0.25
 74
     0
 49
0.25
 74
     0
 49
-0.25
 74
     0
  0
LTYPE
  5
8B
330
5
100
AcDbSymbolTableRecord
100
AcDbLinetypeTableRecord
  2
PHANTOM2
 70
     0
  3
___ _ _ ___ _ _ ___ _ _ ___ _ _ ___ _ _ ___ _ _
 72
    65
 73
     6
 40
1.25
 49
0.625
 74
     0
 49
-0.125
 74
     0
 49
0.125
 74
     0
 49
-0.125
 74
     0
 49
0.125
 74
     0
 49
-0.125
 74
     0
  0
LTYPE
  5
8C
330
5
100
AcDbSymbolTableRecord
100
AcDbLinetypeTableRecord
  2
PHANTOMX2
 70
     0
  3
____________    ____    ____    ____________   
 72
    65
 73
     6
 40
5.0
 49
2.5
 74
     0
 49
-0.5
 74
     0
 49
0.5
 74
     0
 49
-0.5
 74
     0
 49
0.5
 74
     0
 49
-0.5
 74
     0
  0
ENDTAB
  0
TABLE
  2
LAYER
  5
2
102
{ACAD_XDICTIONARY
360
324
102
}
330
0
100
AcDbSymbolTable
 70
    10
  0
LAYER
  5
54
330
2
100
AcDbSymbolTableRecord
100
AcDbLayerTableRecord
  2
0
 70
     0
 62
     7
  6
CONTINUOUS
370
    -3
390
F
347
21
348
0
  0
LAYER
  5
8F
330
2
100
AcDbSymbolTableRecord
100
AcDbLayerTableRecord
  2
GRABUNGSGRENZE
 70
     0
 62
     3
  6
STRICHPUNKTX2
370
    -3
390
F
347
21
348
0
  0
LAYER
  5
90
330
2
100
AcDbSymbolTableRecord
100
AcDbLayerTableRecord
  2
BEFUND
 70
     0
 62
     1
  6
CONTINUOUS
370
    -3
390
F
347
21
348
0
  0
LAYER
  5
91
330
2
100
AcDbSymbolTableRecord
100
AcDbLayerTableRecord
  2
STEINE
 70
     0
 62
     4
  6
CONTINUOUS
370
    -3
390
F
347
21
348
0
  0
LAYER
  5
92
330
2
100
AcDbSymbolTableRecord
100
AcDbLayerTableRecord
  2
KNOCHEN
 70
     0
 62
     2
  6
CONTINUOUS
370
    -3
390
F
347
21
348
0
  0
LAYER
  5
93
330
2
100
AcDbSymbolTableRecord
100
AcDbLayerTableRecord
  2
BEFUND_UNSICHER
 70
     0
 62
     1
  6
GESTRICHELT
370
    -3
390
F
347
21
348
0
  0
LAYER
  5
94
330
2
100
AcDbSymbolTableRecord
100
AcDbLayerTableRecord
  2
FEUER
 70
     0
 62
     1
  6
CONTINUOUS
370
    -3
390
F
347
21
348
0
  0
LAYER
  5
95
330
2
100
AcDbSymbolTableRecord
100
AcDbLayerTableRecord
  2
KNOCHENSCHRAFF
 70
     0
 62
     2
  6
CONTINUOUS
370
    -3
390
F
347
21
348
0
  0
LAYER
  5
96
330
2
100
AcDbSymbolTableRecord
100
AcDbLayerTableRecord
  2
TPROFIL
 70
     0
 62
     3
  6
CONTINUOUS
370
    -3
390
F
347
21
348
0
  0
LAYER
  5
97
330
2
100
AcDbSymbolTableRecord
100
AcDbLayerTableRecord
  2
STEINESCHRAFF
 70
     0
 62
     4
  6
CONTINUOUS
370
    -3
390
F
347
21
348
0
  0
ENDTAB
  0
TABLE
  2
STYLE
  5
3
330
0
100
AcDbSymbolTable
 70
     2
  0
STYLE
  5
55
330
3
100
AcDbSymbolTableRecord
100
AcDbTextStyleTableRecord
  2
STANDARD
 70
     0
 40
0.0
 41
1.0
 50
0.0
 71
     0
 42
3.5
  3
txt.shx
  4

  0
STYLE
  5
59
330
3
100
AcDbSymbolTableRecord
100
AcDbTextStyleTableRecord
  2
Annotative
 70
     0
 40
0.0
 41
1.0
 50
0.0
 71
     0
 42
3.5
  3
txt
  4

1001
AcadAnnotative
1000
AnnotativeData
1002
{
1070
     1
1070
     1
1002
}
  0
ENDTAB
  0
TABLE
  2
VIEW
  5
6
330
0
100
AcDbSymbolTable
 70
     1
  0
ENDTAB
  0
TABLE
  2
UCS
  5
7
330
0
100
AcDbSymbolTable
 70
     0
  0
ENDTAB
  0
TABLE
  2
APPID
  5
9
330
0
100
AcDbSymbolTable
 70
     3
  0
APPID
  5
56
330
9
100
AcDbSymbolTableRecord
100
AcDbRegAppTableRecord
  2
ACAD
 70
     0
  0
APPID
  5
5D
330
9
100
AcDbSymbolTableRecord
100
AcDbRegAppTableRecord
  2
AcadAnnotative
 70
     0
  0
APPID
  5
330
330
9
100
AcDbSymbolTableRecord
100
AcDbRegAppTableRecord
  2
ACAD_NAV_VCDISPLAY
 70
     0
  0
ENDTAB
  0
TABLE
  2
DIMSTYLE
  5
A
330
0
100
AcDbSymbolTable
 70
     2
100
AcDbDimStyleTable
 71
     0
  0
DIMSTYLE
105
57
330
A
100
AcDbSymbolTableRecord
100
AcDbDimStyleTableRecord
  2
Standard
 70
     0
340
55
  0
DIMSTYLE
105
58
330
A
100
AcDbSymbolTableRecord
100
AcDbDimStyleTableRecord
  2
Annotative
 70
     0
340
55
1001
AcadAnnotative
1000
AnnotativeData
1002
{
1070
     1
1070
     1
1002
}
  0
ENDTAB
  0
TABLE
  2
BLOCK_RECORD
  5
1
330
0
100
AcDbSymbolTable
 70
     2
  0
BLOCK_RECORD
  5
6F
330
1
100
AcDbSymbolTableRecord
100
AcDbBlockTableRecord
  2
*Model_Space
340
72
 70
     0
280
     1
281
     0
  0
BLOCK_RECORD
  5
6B
330
1
100
AcDbSymbolTableRecord
100
AcDbBlockTableRecord
  2
*Paper_Space
340
6E
 70
     0
280
     1
281
     0
  0
BLOCK_RECORD
  5
73
330
1
100
AcDbSymbolTableRecord
100
AcDbBlockTableRecord
  2
TPFEIL
340
0
 70
     0
280
     1
281
     0
  0
BLOCK_RECORD
  5
74
330
1
100
AcDbSymbolTableRecord
100
AcDbBlockTableRecord
  2
*X1
340
0
102
{BLKREFS
331
31D
102
}
 70
     0
280
     1
281
     0
  0
ENDTAB
  0
ENDSEC
  0
SECTION
  2
BLOCKS
  0
BLOCK
  5
9A
330
6F
100
AcDbEntity
  8
0
100
AcDbBlockBegin
  2
*Model_Space
 70
     0
 10
0.0
 20
0.0
 30
0.0
  3
*Model_Space
  1

  0
ENDBLK
  5
9B
330
6F
100
AcDbEntity
  8
0
100
AcDbBlockEnd
  0
BLOCK
  5
98
330
6B
100
AcDbEntity
 67
     1
  8
0
100
AcDbBlockBegin
  2
*Paper_Space
 70
     0
 10
0.0
 20
0.0
 30
0.0
  3
*Paper_Space
  1

  0
ENDBLK
  5
99
330
6B
100
AcDbEntity
 67
     1
  8
0
100
AcDbBlockEnd
  0
BLOCK
  5
9C
330
73
100
AcDbEntity
  8
0
100
AcDbBlockBegin
  2
TPFEIL
 70
     0
 10
0.0
 20
0.0
 30
0.0
  3
TPFEIL
  1

  0
LWPOLYLINE
  5
9D
330
73
100
AcDbEntity
  8
GRABUNGSGRENZE
100
AcDbPolyline
 90
        2
 70
     0
 10
0.0
 20
-10.0
 40
5.0
 41
0.0
 10
0.0
 20
0.0
 40
0.0
 41
0.0
  0
ENDBLK
  5
A1
330
73
100
AcDbEntity
  8
0
100
AcDbBlockEnd
  0
BLOCK
  5
A2
330
74
100
AcDbEntity
  8
0
100
AcDbBlockBegin
  2
*X1
 70
     1
 10
0.0
 20
0.0
 30
0.0
  3
*X1
  1

  0
LINE
  5
A3
330
74
100
AcDbEntity
  8
0
 62
     0
100
AcDbLine
 10
-132.5
 20
-1807.5
 30
0.0
 11
-132.5
 21
-1807.5
 31
0.0
  0
LINE
  5
A4
330
74
100
AcDbEntity
  8
0
 62
     0
100
AcDbLine
 10
-135.625
 20
-1806.25
 30
0.0
 11
-135.625
 21
-1806.25
 31
0.0
  0
LINE
  5
A5
330
74
100
AcDbEntity
  8
0
 62
     0
100
AcDbLine
 10
-134.375
 20
-1806.25
 30
0.0
 11
-134.375
 21
-1806.25
 31
0.0
  0
LINE
  5
A6
330
74
100
AcDbEntity
  8
0
 62
     0
100
AcDbLine
 10
-133.125
 20
-1806.25
 30
0.0
 11
-133.125
 21
-1806.25
 31
0.0
  0
LINE
  5
A7
330
74
100
AcDbEntity
  8
0
 62
     0
100
AcDbLine
 10
-131.875
 20
-1806.25
 30
0.0
 11
-131.875
 21
-1806.25
 31
0.0
  0
LINE
  5
A8
330
74
100
AcDbEntity
  8
0
 62
     0
100
AcDbLine
 10
-137.5
 20
-1805.0
 30
0.0
 11
-137.5
 21
-1805.0
 31
0.0
  0
LINE
  5
A9
330
74
100
AcDbEntity
  8
0
 62
     0
100
AcDbLine
 10
-136.25
 20
-1805.0
 30
0.0
 11
-136.25
 21
-1805.0
 31
0.0
  0
LINE
  5
AA
330
74
100
AcDbEntity
  8
0
 62
     0
100
AcDbLine
 10
-135.0
 20
-1805.0
 30
0.0
 11
-135.0
 21
-1805.0
 31
0.0
  0
LINE
  5
AB
330
74
100
AcDbEntity
  8
0
 62
     0
100
AcDbLine
 10
-133.75
 20
-1805.0
 30
0.0
 11
-133.75
 21
-1805.0
 31
0.0
  0
LINE
  5
AC
330
74
100
AcDbEntity
  8
0
 62
     0
100
AcDbLine
 10
-132.5
 20
-1805.0
 30
0.0
 11
-132.5
 21
-1805.0
 31
0.0
  0
LINE
  5
AD
330
74
100
AcDbEntity
  8
0
 62
     0
100
AcDbLine
 10
-131.25
 20
-1805.0
 30
0.0
 11
-131.25
 21
-1805.0
 31
0.0
  0
LINE
  5
AE
330
74
100
AcDbEntity
  8
0
 62
     0
100
AcDbLine
 10
-130.0
 20
-1805.0
 30
0.0
 11
-130.0
 21
-1805.0
 31
0.0
  0
LINE
  5
AF
330
74
100
AcDbEntity
  8
0
 62
     0
100
AcDbLine
 10
-139.375
 20
-1803.75
 30
0.0
 11
-139.375
 21
-1803.75
 31
0.0
  0
LINE
  5
B0
330
74
100
AcDbEntity
  8
0
 62
     0
100
AcDbLine
 10
-138.125
 20
-1803.75
 30
0.0
 11
-138.125
 21
-1803.75
 31
0.0
  0
LINE
  5
B1
330
74
100
AcDbEntity
  8
0
 62
     0
100
AcDbLine
 10
-136.875
 20
-1803.75
 30
0.0
 11
-136.875
 21
-1803.75
 31
0.0
  0
LINE
  5
B2
330
74
100
AcDbEntity
  8
0
 62
     0
100
AcDbLine
 10
-135.625
 20
-1803.75
 30
0.0
 11
-135.625
 21
-1803.75
 31
0.0
  0
LINE
  5
B3
330
74
100
AcDbEntity
  8
0
 62
     0
100
AcDbLine
 10
-134.375
 20
-1803.75
 30
0.0
 11
-134.375
 21
-1803.75
 31
0.0
  0
LINE
  5
B4
330
74
100
AcDbEntity
  8
0
 62
     0
100
AcDbLine
 10
-133.125
 20
-1803.75
 30
0.0
 11
-133.125
 21
-1803.75
 31
0.0
  0
LINE
  5
B5
330
74
100
AcDbEntity
  8
0
 62
     0
100
AcDbLine
 10
-131.875
 20
-1803.75
 30
0.0
 11
-131.875
 21
-1803.75
 31
0.0
  0
LINE
  5
B6
330
74
100
AcDbEntity
  8
0
 62
     0
100
AcDbLine
 10
-130.625
 20
-1803.75
 30
0.0
 11
-130.625
 21
-1803.75
 31
0.0
  0
LINE
  5
B7
330
74
100
AcDbEntity
  8
0
 62
     0
100
AcDbLine
 10
-129.375
 20
-1803.75
 30
0.0
 11
-129.375
 21
-1803.75
 31
0.0
  0
LINE
  5
B8
330
74
100
AcDbEntity
  8
0
 62
     0
100
AcDbLine
 10
-142.5
 20
-1802.5
 30
0.0
 11
-142.5
 21
-1802.5
 31
0.0
  0
LINE
  5
B9
330
74
100
AcDbEntity
  8
0
 62
     0
100
AcDbLine
 10
-141.25
 20
-1802.5
 30
0.0
 11
-141.25
 21
-1802.5
 31
0.0
  0
LINE
  5
BA
330
74
100
AcDbEntity
  8
0
 62
     0
100
AcDbLine
 10
-140.0
 20
-1802.5
 30
0.0
 11
-140.0
 21
-1802.5
 31
0.0
  0
LINE
  5
BB
330
74
100
AcDbEntity
  8
0
 62
     0
100
AcDbLine
 10
-138.75
 20
-1802.5
 30
0.0
 11
-138.75
 21
-1802.5
 31
0.0
  0
LINE
  5
BC
330
74
100
AcDbEntity
  8
0
 62
     0
100
AcDbLine
 10
-137.5
 20
-1802.5
 30
0.0
 11
-137.5
 21
-1802.5
 31
0.0
  0
LINE
  5
BD
330
74
100
AcDbEntity
  8
0
 62
     0
100
AcDbLine
 10
-136.25
 20
-1802.5
 30
0.0
 11
-136.25
 21
-1802.5
 31
0.0
  0
LINE
  5
BE
330
74
100
AcDbEntity
  8
0
 62
     0
100
AcDbLine
 10
-135.0
 20
-1802.5
 30
0.0
 11
-135.0
 21
-1802.5
 31
0.0
  0
LINE
  5
BF
330
74
100
AcDbEntity
  8
0
 62
     0
100
AcDbLine
 10
-133.75
 20
-1802.5
 30
0.0
 11
-133.75
 21
-1802.5
 31
0.0
  0
LINE
  5
C0
330
74
100
AcDbEntity
  8
0
 62
     0
100
AcDbLine
 10
-132.5
 20
-1802.5
 30
0.0
 11
-132.5
 21
-1802.5
 31
0.0
  0
LINE
  5
C1
330
74
100
AcDbEntity
  8
0
 62
     0
100
AcDbLine
 10
-131.25
 20
-1802.5
 30
0.0
 11
-131.25
 21
-1802.5
 31
0.0
  0
LINE
  5
C2
330
74
100
AcDbEntity
  8
0
 62
     0
100
AcDbLine
 10
-130.0
 20
-1802.5
 30
0.0
 11
-130.0
 21
-1802.5
 31
0.0
  0
LINE
  5
C3
330
74
100
AcDbEntity
  8
0
 62
     0
100
AcDbLine
 10
-128.75
 20
-1802.5
 30
0.0
 11
-128.75
 21
-1802.5
 31
0.0
  0
LINE
  5
C4
330
74
100
AcDbEntity
  8
0
 62
     0
100
AcDbLine
 10
-127.5
 20
-1802.5
 30
0.0
 11
-127.5
 21
-1802.5
 31
0.0
  0
LINE
  5
C5
330
74
100
AcDbEntity
  8
0
 62
     0
100
AcDbLine
 10
-144.375
 20
-1801.25
 30
0.0
 11
-144.375
 21
-1801.25
 31
0.0
  0
LINE
  5
C6
330
74
100
AcDbEntity
  8
0
 62
     0
100
AcDbLine
 10
-143.125
 20
-1801.25
 30
0.0
 11
-143.125
 21
-1801.25
 31
0.0
  0
LINE
  5
C7
330
74
100
AcDbEntity
  8
0
 62
     0
100
AcDbLine
 10
-141.875
 20
-1801.25
 30
0.0
 11
-141.875
 21
-1801.25
 31
0.0
  0
LINE
  5
C8
330
74
100
AcDbEntity
  8
0
 62
     0
100
AcDbLine
 10
-140.625
 20
-1801.25
 30
0.0
 11
-140.625
 21
-1801.25
 31
0.0
  0
LINE
  5
C9
330
74
100
AcDbEntity
  8
0
 62
     0
100
AcDbLine
 10
-139.375
 20
-1801.25
 30
0.0
 11
-139.375
 21
-1801.25
 31
0.0
  0
LINE
  5
CA
330
74
100
AcDbEntity
  8
0
 62
     0
100
AcDbLine
 10
-138.125
 20
-1801.25
 30
0.0
 11
-138.125
 21
-1801.25
 31
0.0
  0
LINE
  5
CB
330
74
100
AcDbEntity
  8
0
 62
     0
100
AcDbLine
 10
-136.875
 20
-1801.25
 30
0.0
 11
-136.875
 21
-1801.25
 31
0.0
  0
LINE
  5
CC
330
74
100
AcDbEntity
  8
0
 62
     0
100
AcDbLine
 10
-135.625
 20
-1801.25
 30
0.0
 11
-135.625
 21
-1801.25
 31
0.0
  0
LINE
  5
CD
330
74
100
AcDbEntity
  8
0
 62
     0
100
AcDbLine
 10
-134.375
 20
-1801.25
 30
0.0
 11
-134.375
 21
-1801.25
 31
0.0
  0
LINE
  5
CE
330
74
100
AcDbEntity
  8
0
 62
     0
100
AcDbLine
 10
-133.125
 20
-1801.25
 30
0.0
 11
-133.125
 21
-1801.25
 31
0.0
  0
LINE
  5
CF
330
74
100
AcDbEntity
  8
0
 62
     0
100
AcDbLine
 10
-131.875
 20
-1801.25
 30
0.0
 11
-131.875
 21
-1801.25
 31
0.0
  0
LINE
  5
D0
330
74
100
AcDbEntity
  8
0
 62
     0
100
AcDbLine
 10
-130.625
 20
-1801.25
 30
0.0
 11
-130.625
 21
-1801.25
 31
0.0
  0
LINE
  5
D1
330
74
100
AcDbEntity
  8
0
 62
     0
100
AcDbLine
 10
-129.375
 20
-1801.25
 30
0.0
 11
-129.375
 21
-1801.25
 31
0.0
  0
LINE
  5
D2
330
74
100
AcDbEntity
  8
0
 62
     0
100
AcDbLine
 10
-128.125
 20
-1801.25
 30
0.0
 11
-128.125
 21
-1801.25
 31
0.0
  0
LINE
  5
D3
330
74
100
AcDbEntity
  8
0
 62
     0
100
AcDbLine
 10
-126.875
 20
-1801.25
 30
0.0
 11
-126.875
 21
-1801.25
 31
0.0
  0
LINE
  5
D4
330
74
100
AcDbEntity
  8
0
 62
     0
100
AcDbLine
 10
-125.625
 20
-1801.25
 30
0.0
 11
-125.625
 21
-1801.25
 31
0.0
  0
LINE
  5
D5
330
74
100
AcDbEntity
  8
0
 62
     0
100
AcDbLine
 10
-145.0
 20
-1800.0
 30
0.0
 11
-145.0
 21
-1800.0
 31
0.0
  0
LINE
  5
D6
330
74
100
AcDbEntity
  8
0
 62
     0
100
AcDbLine
 10
-143.75
 20
-1800.0
 30
0.0
 11
-143.75
 21
-1800.0
 31
0.0
  0
LINE
  5
D7
330
74
100
AcDbEntity
  8
0
 62
     0
100
AcDbLine
 10
-142.5
 20
-1800.0
 30
0.0
 11
-142.5
 21
-1800.0
 31
0.0
  0
LINE
  5
D8
330
74
100
AcDbEntity
  8
0
 62
     0
100
AcDbLine
 10
-141.25
 20
-1800.0
 30
0.0
 11
-141.25
 21
-1800.0
 31
0.0
  0
LINE
  5
D9
330
74
100
AcDbEntity
  8
0
 62
     0
100
AcDbLine
 10
-140.0
 20
-1800.0
 30
0.0
 11
-140.0
 21
-1800.0
 31
0.0
  0
LINE
  5
DA
330
74
100
AcDbEntity
  8
0
 62
     0
100
AcDbLine
 10
-138.75
 20
-1800.0
 30
0.0
 11
-138.75
 21
-1800.0
 31
0.0
  0
LINE
  5
DB
330
74
100
AcDbEntity
  8
0
 62
     0
100
AcDbLine
 10
-137.5
 20
-1800.0
 30
0.0
 11
-137.5
 21
-1800.0
 31
0.0
  0
LINE
  5
DC
330
74
100
AcDbEntity
  8
0
 62
     0
100
AcDbLine
 10
-136.25
 20
-1800.0
 30
0.0
 11
-136.25
 21
-1800.0
 31
0.0
  0
LINE
  5
DD
330
74
100
AcDbEntity
  8
0
 62
     0
100
AcDbLine
 10
-135.0
 20
-1800.0
 30
0.0
 11
-135.0
 21
-1800.0
 31
0.0
  0
LINE
  5
DE
330
74
100
AcDbEntity
  8
0
 62
     0
100
AcDbLine
 10
-133.75
 20
-1800.0
 30
0.0
 11
-133.75
 21
-1800.0
 31
0.0
  0
LINE
  5
DF
330
74
100
AcDbEntity
  8
0
 62
     0
100
AcDbLine
 10
-132.5
 20
-1800.0
 30
0.0
 11
-132.5
 21
-1800.0
 31
0.0
  0
LINE
  5
E0
330
74
100
AcDbEntity
  8
0
 62
     0
100
AcDbLine
 10
-131.25
 20
-1800.0
 30
0.0
 11
-131.25
 21
-1800.0
 31
0.0
  0
LINE
  5
E1
330
74
100
AcDbEntity
  8
0
 62
     0
100
AcDbLine
 10
-130.0
 20
-1800.0
 30
0.0
 11
-130.0
 21
-1800.0
 31
0.0
  0
LINE
  5
E2
330
74
100
AcDbEntity
  8
0
 62
     0
100
AcDbLine
 10
-128.75
 20
-1800.0
 30
0.0
 11
-128.75
 21
-1800.0
 31
0.0
  0
LINE
  5
E3
330
74
100
AcDbEntity
  8
0
 62
     0
100
AcDbLine
 10
-127.5
 20
-1800.0
 30
0.0
 11
-127.5
 21
-1800.0
 31
0.0
  0
LINE
  5
E4
330
74
100
AcDbEntity
  8
0
 62
     0
100
AcDbLine
 10
-126.25
 20
-1800.0
 30
0.0
 11
-126.25
 21
-1800.0
 31
0.0
  0
LINE
  5
E5
330
74
100
AcDbEntity
  8
0
 62
     0
100
AcDbLine
 10
-125.0
 20
-1800.0
 30
0.0
 11
-125.0
 21
-1800.0
 31
0.0
  0
LINE
  5
E6
330
74
100
AcDbEntity
  8
0
 62
     0
100
AcDbLine
 10
-145.625
 20
-1798.75
 30
0.0
 11
-145.625
 21
-1798.75
 31
0.0
  0
LINE
  5
E7
330
74
100
AcDbEntity
  8
0
 62
     0
100
AcDbLine
 10
-144.3749999999999
 20
-1798.75
 30
0.0
 11
-144.3749999999999
 21
-1798.75
 31
0.0
  0
LINE
  5
E8
330
74
100
AcDbEntity
  8
0
 62
     0
100
AcDbLine
 10
-143.1249999999999
 20
-1798.75
 30
0.0
 11
-143.1249999999999
 21
-1798.75
 31
0.0
  0
LINE
  5
E9
330
74
100
AcDbEntity
  8
0
 62
     0
100
AcDbLine
 10
-141.875
 20
-1798.75
 30
0.0
 11
-141.875
 21
-1798.75
 31
0.0
  0
LINE
  5
EA
330
74
100
AcDbEntity
  8
0
 62
     0
100
AcDbLine
 10
-140.625
 20
-1798.75
 30
0.0
 11
-140.625
 21
-1798.75
 31
0.0
  0
LINE
  5
EB
330
74
100
AcDbEntity
  8
0
 62
     0
100
AcDbLine
 10
-139.375
 20
-1798.75
 30
0.0
 11
-139.375
 21
-1798.75
 31
0.0
  0
LINE
  5
EC
330
74
100
AcDbEntity
  8
0
 62
     0
100
AcDbLine
 10
-138.1249999999999
 20
-1798.75
 30
0.0
 11
-138.1249999999999
 21
-1798.75
 31
0.0
  0
LINE
  5
ED
330
74
100
AcDbEntity
  8
0
 62
     0
100
AcDbLine
 10
-136.8749999999999
 20
-1798.75
 30
0.0
 11
-136.8749999999999
 21
-1798.75
 31
0.0
  0
LINE
  5
EE
330
74
100
AcDbEntity
  8
0
 62
     0
100
AcDbLine
 10
-135.6249999999999
 20
-1798.75
 30
0.0
 11
-135.6249999999999
 21
-1798.75
 31
0.0
  0
LINE
  5
EF
330
74
100
AcDbEntity
  8
0
 62
     0
100
AcDbLine
 10
-134.375
 20
-1798.75
 30
0.0
 11
-134.375
 21
-1798.75
 31
0.0
  0
LINE
  5
F0
330
74
100
AcDbEntity
  8
0
 62
     0
100
AcDbLine
 10
-133.125
 20
-1798.75
 30
0.0
 11
-133.125
 21
-1798.75
 31
0.0
  0
LINE
  5
F1
330
74
100
AcDbEntity
  8
0
 62
     0
100
AcDbLine
 10
-131.8749999999999
 20
-1798.75
 30
0.0
 11
-131.8749999999999
 21
-1798.75
 31
0.0
  0
LINE
  5
F2
330
74
100
AcDbEntity
  8
0
 62
     0
100
AcDbLine
 10
-130.6249999999999
 20
-1798.75
 30
0.0
 11
-130.6249999999999
 21
-1798.75
 31
0.0
  0
LINE
  5
F3
330
74
100
AcDbEntity
  8
0
 62
     0
100
AcDbLine
 10
-129.3749999999999
 20
-1798.75
 30
0.0
 11
-129.3749999999999
 21
-1798.75
 31
0.0
  0
LINE
  5
F4
330
74
100
AcDbEntity
  8
0
 62
     0
100
AcDbLine
 10
-128.125
 20
-1798.75
 30
0.0
 11
-128.125
 21
-1798.75
 31
0.0
  0
LINE
  5
F5
330
74
100
AcDbEntity
  8
0
 62
     0
100
AcDbLine
 10
-126.875
 20
-1798.75
 30
0.0
 11
-126.875
 21
-1798.75
 31
0.0
  0
LINE
  5
F6
330
74
100
AcDbEntity
  8
0
 62
     0
100
AcDbLine
 10
-125.6249999999999
 20
-1798.75
 30
0.0
 11
-125.6249999999999
 21
-1798.75
 31
0.0
  0
LINE
  5
F7
330
74
100
AcDbEntity
  8
0
 62
     0
100
AcDbLine
 10
-124.3749999999999
 20
-1798.75
 30
0.0
 11
-124.3749999999999
 21
-1798.75
 31
0.0
  0
LINE
  5
F8
330
74
100
AcDbEntity
  8
0
 62
     0
100
AcDbLine
 10
-123.1249999999999
 20
-1798.75
 30
0.0
 11
-123.1249999999999
 21
-1798.75
 31
0.0
  0
LINE
  5
F9
330
74
100
AcDbEntity
  8
0
 62
     0
100
AcDbLine
 10
-145.0
 20
-1797.5
 30
0.0
 11
-145.0
 21
-1797.5
 31
0.0
  0
LINE
  5
FA
330
74
100
AcDbEntity
  8
0
 62
     0
100
AcDbLine
 10
-143.75
 20
-1797.5
 30
0.0
 11
-143.75
 21
-1797.5
 31
0.0
  0
LINE
  5
FB
330
74
100
AcDbEntity
  8
0
 62
     0
100
AcDbLine
 10
-142.5
 20
-1797.5
 30
0.0
 11
-142.5
 21
-1797.5
 31
0.0
  0
LINE
  5
FC
330
74
100
AcDbEntity
  8
0
 62
     0
100
AcDbLine
 10
-141.25
 20
-1797.5
 30
0.0
 11
-141.25
 21
-1797.5
 31
0.0
  0
LINE
  5
FD
330
74
100
AcDbEntity
  8
0
 62
     0
100
AcDbLine
 10
-140.0
 20
-1797.5
 30
0.0
 11
-140.0
 21
-1797.5
 31
0.0
  0
LINE
  5
FE
330
74
100
AcDbEntity
  8
0
 62
     0
100
AcDbLine
 10
-138.75
 20
-1797.5
 30
0.0
 11
-138.75
 21
-1797.5
 31
0.0
  0
LINE
  5
FF
330
74
100
AcDbEntity
  8
0
 62
     0
100
AcDbLine
 10
-137.5
 20
-1797.5
 30
0.0
 11
-137.5
 21
-1797.5
 31
0.0
  0
LINE
  5
100
330
74
100
AcDbEntity
  8
0
 62
     0
100
AcDbLine
 10
-136.25
 20
-1797.5
 30
0.0
 11
-136.25
 21
-1797.5
 31
0.0
  0
LINE
  5
101
330
74
100
AcDbEntity
  8
0
 62
     0
100
AcDbLine
 10
-135.0
 20
-1797.5
 30
0.0
 11
-135.0
 21
-1797.5
 31
0.0
  0
LINE
  5
102
330
74
100
AcDbEntity
  8
0
 62
     0
100
AcDbLine
 10
-133.75
 20
-1797.5
 30
0.0
 11
-133.75
 21
-1797.5
 31
0.0
  0
LINE
  5
103
330
74
100
AcDbEntity
  8
0
 62
     0
100
AcDbLine
 10
-132.5
 20
-1797.5
 30
0.0
 11
-132.5
 21
-1797.5
 31
0.0
  0
LINE
  5
104
330
74
100
AcDbEntity
  8
0
 62
     0
100
AcDbLine
 10
-131.25
 20
-1797.5
 30
0.0
 11
-131.25
 21
-1797.5
 31
0.0
  0
LINE
  5
105
330
74
100
AcDbEntity
  8
0
 62
     0
100
AcDbLine
 10
-130.0
 20
-1797.5
 30
0.0
 11
-130.0
 21
-1797.5
 31
0.0
  0
LINE
  5
106
330
74
100
AcDbEntity
  8
0
 62
     0
100
AcDbLine
 10
-128.75
 20
-1797.5
 30
0.0
 11
-128.75
 21
-1797.5
 31
0.0
  0
LINE
  5
107
330
74
100
AcDbEntity
  8
0
 62
     0
100
AcDbLine
 10
-127.5
 20
-1797.5
 30
0.0
 11
-127.5
 21
-1797.5
 31
0.0
  0
LINE
  5
108
330
74
100
AcDbEntity
  8
0
 62
     0
100
AcDbLine
 10
-126.25
 20
-1797.5
 30
0.0
 11
-126.25
 21
-1797.5
 31
0.0
  0
LINE
  5
109
330
74
100
AcDbEntity
  8
0
 62
     0
100
AcDbLine
 10
-125.0
 20
-1797.5
 30
0.0
 11
-125.0
 21
-1797.5
 31
0.0
  0
LINE
  5
10A
330
74
100
AcDbEntity
  8
0
 62
     0
100
AcDbLine
 10
-123.75
 20
-1797.5
 30
0.0
 11
-123.75
 21
-1797.5
 31
0.0
  0
LINE
  5
10B
330
74
100
AcDbEntity
  8
0
 62
     0
100
AcDbLine
 10
-122.5
 20
-1797.5
 30
0.0
 11
-122.5
 21
-1797.5
 31
0.0
  0
LINE
  5
10C
330
74
100
AcDbEntity
  8
0
 62
     0
100
AcDbLine
 10
-145.625
 20
-1796.25
 30
0.0
 11
-145.625
 21
-1796.25
 31
0.0
  0
LINE
  5
10D
330
74
100
AcDbEntity
  8
0
 62
     0
100
AcDbLine
 10
-144.375
 20
-1796.25
 30
0.0
 11
-144.375
 21
-1796.25
 31
0.0
  0
LINE
  5
10E
330
74
100
AcDbEntity
  8
0
 62
     0
100
AcDbLine
 10
-143.125
 20
-1796.25
 30
0.0
 11
-143.125
 21
-1796.25
 31
0.0
  0
LINE
  5
10F
330
74
100
AcDbEntity
  8
0
 62
     0
100
AcDbLine
 10
-141.875
 20
-1796.25
 30
0.0
 11
-141.875
 21
-1796.25
 31
0.0
  0
LINE
  5
110
330
74
100
AcDbEntity
  8
0
 62
     0
100
AcDbLine
 10
-140.625
 20
-1796.25
 30
0.0
 11
-140.625
 21
-1796.25
 31
0.0
  0
LINE
  5
111
330
74
100
AcDbEntity
  8
0
 62
     0
100
AcDbLine
 10
-139.375
 20
-1796.25
 30
0.0
 11
-139.375
 21
-1796.25
 31
0.0
  0
LINE
  5
112
330
74
100
AcDbEntity
  8
0
 62
     0
100
AcDbLine
 10
-138.125
 20
-1796.25
 30
0.0
 11
-138.125
 21
-1796.25
 31
0.0
  0
LINE
  5
113
330
74
100
AcDbEntity
  8
0
 62
     0
100
AcDbLine
 10
-136.875
 20
-1796.25
 30
0.0
 11
-136.875
 21
-1796.25
 31
0.0
  0
LINE
  5
114
330
74
100
AcDbEntity
  8
0
 62
     0
100
AcDbLine
 10
-135.625
 20
-1796.25
 30
0.0
 11
-135.625
 21
-1796.25
 31
0.0
  0
LINE
  5
115
330
74
100
AcDbEntity
  8
0
 62
     0
100
AcDbLine
 10
-134.375
 20
-1796.25
 30
0.0
 11
-134.375
 21
-1796.25
 31
0.0
  0
LINE
  5
116
330
74
100
AcDbEntity
  8
0
 62
     0
100
AcDbLine
 10
-133.125
 20
-1796.25
 30
0.0
 11
-133.125
 21
-1796.25
 31
0.0
  0
LINE
  5
117
330
74
100
AcDbEntity
  8
0
 62
     0
100
AcDbLine
 10
-131.875
 20
-1796.25
 30
0.0
 11
-131.875
 21
-1796.25
 31
0.0
  0
LINE
  5
118
330
74
100
AcDbEntity
  8
0
 62
     0
100
AcDbLine
 10
-130.625
 20
-1796.25
 30
0.0
 11
-130.625
 21
-1796.25
 31
0.0
  0
LINE
  5
119
330
74
100
AcDbEntity
  8
0
 62
     0
100
AcDbLine
 10
-129.375
 20
-1796.25
 30
0.0
 11
-129.375
 21
-1796.25
 31
0.0
  0
LINE
  5
11A
330
74
100
AcDbEntity
  8
0
 62
     0
100
AcDbLine
 10
-128.125
 20
-1796.25
 30
0.0
 11
-128.125
 21
-1796.25
 31
0.0
  0
LINE
  5
11B
330
74
100
AcDbEntity
  8
0
 62
     0
100
AcDbLine
 10
-126.875
 20
-1796.25
 30
0.0
 11
-126.875
 21
-1796.25
 31
0.0
  0
LINE
  5
11C
330
74
100
AcDbEntity
  8
0
 62
     0
100
AcDbLine
 10
-125.625
 20
-1796.25
 30
0.0
 11
-125.625
 21
-1796.25
 31
0.0
  0
LINE
  5
11D
330
74
100
AcDbEntity
  8
0
 62
     0
100
AcDbLine
 10
-124.375
 20
-1796.25
 30
0.0
 11
-124.375
 21
-1796.25
 31
0.0
  0
LINE
  5
11E
330
74
100
AcDbEntity
  8
0
 62
     0
100
AcDbLine
 10
-123.125
 20
-1796.25
 30
0.0
 11
-123.125
 21
-1796.25
 31
0.0
  0
LINE
  5
11F
330
74
100
AcDbEntity
  8
0
 62
     0
100
AcDbLine
 10
-121.875
 20
-1796.25
 30
0.0
 11
-121.875
 21
-1796.25
 31
0.0
  0
LINE
  5
120
330
74
100
AcDbEntity
  8
0
 62
     0
100
AcDbLine
 10
-146.2499999999999
 20
-1795.0
 30
0.0
 11
-146.2499999999999
 21
-1795.0
 31
0.0
  0
LINE
  5
121
330
74
100
AcDbEntity
  8
0
 62
     0
100
AcDbLine
 10
-145.0
 20
-1795.0
 30
0.0
 11
-145.0
 21
-1795.0
 31
0.0
  0
LINE
  5
122
330
74
100
AcDbEntity
  8
0
 62
     0
100
AcDbLine
 10
-143.75
 20
-1795.0
 30
0.0
 11
-143.75
 21
-1795.0
 31
0.0
  0
LINE
  5
123
330
74
100
AcDbEntity
  8
0
 62
     0
100
AcDbLine
 10
-142.5
 20
-1795.0
 30
0.0
 11
-142.5
 21
-1795.0
 31
0.0
  0
LINE
  5
124
330
74
100
AcDbEntity
  8
0
 62
     0
100
AcDbLine
 10
-141.2499999999999
 20
-1795.0
 30
0.0
 11
-141.2499999999999
 21
-1795.0
 31
0.0
  0
LINE
  5
125
330
74
100
AcDbEntity
  8
0
 62
     0
100
AcDbLine
 10
-139.9999999999999
 20
-1795.0
 30
0.0
 11
-139.9999999999999
 21
-1795.0
 31
0.0
  0
LINE
  5
126
330
74
100
AcDbEntity
  8
0
 62
     0
100
AcDbLine
 10
-138.7499999999999
 20
-1795.0
 30
0.0
 11
-138.7499999999999
 21
-1795.0
 31
0.0
  0
LINE
  5
127
330
74
100
AcDbEntity
  8
0
 62
     0
100
AcDbLine
 10
-137.5
 20
-1795.0
 30
0.0
 11
-137.5
 21
-1795.0
 31
0.0
  0
LINE
  5
128
330
74
100
AcDbEntity
  8
0
 62
     0
100
AcDbLine
 10
-136.25
 20
-1795.0
 30
0.0
 11
-136.25
 21
-1795.0
 31
0.0
  0
LINE
  5
129
330
74
100
AcDbEntity
  8
0
 62
     0
100
AcDbLine
 10
-134.9999999999999
 20
-1795.0
 30
0.0
 11
-134.9999999999999
 21
-1795.0
 31
0.0
  0
LINE
  5
12A
330
74
100
AcDbEntity
  8
0
 62
     0
100
AcDbLine
 10
-133.7499999999999
 20
-1795.0
 30
0.0
 11
-133.7499999999999
 21
-1795.0
 31
0.0
  0
LINE
  5
12B
330
74
100
AcDbEntity
  8
0
 62
     0
100
AcDbLine
 10
-132.4999999999999
 20
-1795.0
 30
0.0
 11
-132.4999999999999
 21
-1795.0
 31
0.0
  0
LINE
  5
12C
330
74
100
AcDbEntity
  8
0
 62
     0
100
AcDbLine
 10
-131.25
 20
-1795.0
 30
0.0
 11
-131.25
 21
-1795.0
 31
0.0
  0
LINE
  5
12D
330
74
100
AcDbEntity
  8
0
 62
     0
100
AcDbLine
 10
-130.0
 20
-1795.0
 30
0.0
 11
-130.0
 21
-1795.0
 31
0.0
  0
LINE
  5
12E
330
74
100
AcDbEntity
  8
0
 62
     0
100
AcDbLine
 10
-128.7499999999999
 20
-1795.0
 30
0.0
 11
-128.7499999999999
 21
-1795.0
 31
0.0
  0
LINE
  5
12F
330
74
100
AcDbEntity
  8
0
 62
     0
100
AcDbLine
 10
-127.4999999999999
 20
-1795.0
 30
0.0
 11
-127.4999999999999
 21
-1795.0
 31
0.0
  0
LINE
  5
130
330
74
100
AcDbEntity
  8
0
 62
     0
100
AcDbLine
 10
-126.2499999999999
 20
-1795.0
 30
0.0
 11
-126.2499999999999
 21
-1795.0
 31
0.0
  0
LINE
  5
131
330
74
100
AcDbEntity
  8
0
 62
     0
100
AcDbLine
 10
-125.0
 20
-1795.0
 30
0.0
 11
-125.0
 21
-1795.0
 31
0.0
  0
LINE
  5
132
330
74
100
AcDbEntity
  8
0
 62
     0
100
AcDbLine
 10
-123.75
 20
-1795.0
 30
0.0
 11
-123.75
 21
-1795.0
 31
0.0
  0
LINE
  5
133
330
74
100
AcDbEntity
  8
0
 62
     0
100
AcDbLine
 10
-122.4999999999999
 20
-1795.0
 30
0.0
 11
-122.4999999999999
 21
-1795.0
 31
0.0
  0
LINE
  5
134
330
74
100
AcDbEntity
  8
0
 62
     0
100
AcDbLine
 10
-121.2499999999999
 20
-1795.0
 30
0.0
 11
-121.2499999999999
 21
-1795.0
 31
0.0
  0
LINE
  5
135
330
74
100
AcDbEntity
  8
0
 62
     0
100
AcDbLine
 10
-145.625
 20
-1793.75
 30
0.0
 11
-145.625
 21
-1793.75
 31
0.0
  0
LINE
  5
136
330
74
100
AcDbEntity
  8
0
 62
     0
100
AcDbLine
 10
-144.375
 20
-1793.75
 30
0.0
 11
-144.375
 21
-1793.75
 31
0.0
  0
LINE
  5
137
330
74
100
AcDbEntity
  8
0
 62
     0
100
AcDbLine
 10
-143.125
 20
-1793.75
 30
0.0
 11
-143.125
 21
-1793.75
 31
0.0
  0
LINE
  5
138
330
74
100
AcDbEntity
  8
0
 62
     0
100
AcDbLine
 10
-141.875
 20
-1793.75
 30
0.0
 11
-141.875
 21
-1793.75
 31
0.0
  0
LINE
  5
139
330
74
100
AcDbEntity
  8
0
 62
     0
100
AcDbLine
 10
-140.625
 20
-1793.75
 30
0.0
 11
-140.625
 21
-1793.75
 31
0.0
  0
LINE
  5
13A
330
74
100
AcDbEntity
  8
0
 62
     0
100
AcDbLine
 10
-139.375
 20
-1793.75
 30
0.0
 11
-139.375
 21
-1793.75
 31
0.0
  0
LINE
  5
13B
330
74
100
AcDbEntity
  8
0
 62
     0
100
AcDbLine
 10
-138.125
 20
-1793.75
 30
0.0
 11
-138.125
 21
-1793.75
 31
0.0
  0
LINE
  5
13C
330
74
100
AcDbEntity
  8
0
 62
     0
100
AcDbLine
 10
-136.875
 20
-1793.75
 30
0.0
 11
-136.875
 21
-1793.75
 31
0.0
  0
LINE
  5
13D
330
74
100
AcDbEntity
  8
0
 62
     0
100
AcDbLine
 10
-135.625
 20
-1793.75
 30
0.0
 11
-135.625
 21
-1793.75
 31
0.0
  0
LINE
  5
13E
330
74
100
AcDbEntity
  8
0
 62
     0
100
AcDbLine
 10
-134.375
 20
-1793.75
 30
0.0
 11
-134.375
 21
-1793.75
 31
0.0
  0
LINE
  5
13F
330
74
100
AcDbEntity
  8
0
 62
     0
100
AcDbLine
 10
-133.125
 20
-1793.75
 30
0.0
 11
-133.125
 21
-1793.75
 31
0.0
  0
LINE
  5
140
330
74
100
AcDbEntity
  8
0
 62
     0
100
AcDbLine
 10
-131.875
 20
-1793.75
 30
0.0
 11
-131.875
 21
-1793.75
 31
0.0
  0
LINE
  5
141
330
74
100
AcDbEntity
  8
0
 62
     0
100
AcDbLine
 10
-130.625
 20
-1793.75
 30
0.0
 11
-130.625
 21
-1793.75
 31
0.0
  0
LINE
  5
142
330
74
100
AcDbEntity
  8
0
 62
     0
100
AcDbLine
 10
-129.375
 20
-1793.75
 30
0.0
 11
-129.375
 21
-1793.75
 31
0.0
  0
LINE
  5
143
330
74
100
AcDbEntity
  8
0
 62
     0
100
AcDbLine
 10
-128.125
 20
-1793.75
 30
0.0
 11
-128.125
 21
-1793.75
 31
0.0
  0
LINE
  5
144
330
74
100
AcDbEntity
  8
0
 62
     0
100
AcDbLine
 10
-126.875
 20
-1793.75
 30
0.0
 11
-126.875
 21
-1793.75
 31
0.0
  0
LINE
  5
145
330
74
100
AcDbEntity
  8
0
 62
     0
100
AcDbLine
 10
-125.625
 20
-1793.75
 30
0.0
 11
-125.625
 21
-1793.75
 31
0.0
  0
LINE
  5
146
330
74
100
AcDbEntity
  8
0
 62
     0
100
AcDbLine
 10
-124.375
 20
-1793.75
 30
0.0
 11
-124.375
 21
-1793.75
 31
0.0
  0
LINE
  5
147
330
74
100
AcDbEntity
  8
0
 62
     0
100
AcDbLine
 10
-123.125
 20
-1793.75
 30
0.0
 11
-123.125
 21
-1793.75
 31
0.0
  0
LINE
  5
148
330
74
100
AcDbEntity
  8
0
 62
     0
100
AcDbLine
 10
-121.875
 20
-1793.75
 30
0.0
 11
-121.875
 21
-1793.75
 31
0.0
  0
LINE
  5
149
330
74
100
AcDbEntity
  8
0
 62
     0
100
AcDbLine
 10
-146.25
 20
-1792.5
 30
0.0
 11
-146.25
 21
-1792.5
 31
0.0
  0
LINE
  5
14A
330
74
100
AcDbEntity
  8
0
 62
     0
100
AcDbLine
 10
-145.0
 20
-1792.5
 30
0.0
 11
-145.0
 21
-1792.5
 31
0.0
  0
LINE
  5
14B
330
74
100
AcDbEntity
  8
0
 62
     0
100
AcDbLine
 10
-143.75
 20
-1792.5
 30
0.0
 11
-143.75
 21
-1792.5
 31
0.0
  0
LINE
  5
14C
330
74
100
AcDbEntity
  8
0
 62
     0
100
AcDbLine
 10
-142.5
 20
-1792.5
 30
0.0
 11
-142.5
 21
-1792.5
 31
0.0
  0
LINE
  5
14D
330
74
100
AcDbEntity
  8
0
 62
     0
100
AcDbLine
 10
-141.25
 20
-1792.5
 30
0.0
 11
-141.25
 21
-1792.5
 31
0.0
  0
LINE
  5
14E
330
74
100
AcDbEntity
  8
0
 62
     0
100
AcDbLine
 10
-140.0
 20
-1792.5
 30
0.0
 11
-140.0
 21
-1792.5
 31
0.0
  0
LINE
  5
14F
330
74
100
AcDbEntity
  8
0
 62
     0
100
AcDbLine
 10
-138.75
 20
-1792.5
 30
0.0
 11
-138.75
 21
-1792.5
 31
0.0
  0
LINE
  5
150
330
74
100
AcDbEntity
  8
0
 62
     0
100
AcDbLine
 10
-137.5
 20
-1792.5
 30
0.0
 11
-137.5
 21
-1792.5
 31
0.0
  0
LINE
  5
151
330
74
100
AcDbEntity
  8
0
 62
     0
100
AcDbLine
 10
-136.25
 20
-1792.5
 30
0.0
 11
-136.25
 21
-1792.5
 31
0.0
  0
LINE
  5
152
330
74
100
AcDbEntity
  8
0
 62
     0
100
AcDbLine
 10
-135.0
 20
-1792.5
 30
0.0
 11
-135.0
 21
-1792.5
 31
0.0
  0
LINE
  5
153
330
74
100
AcDbEntity
  8
0
 62
     0
100
AcDbLine
 10
-133.75
 20
-1792.5
 30
0.0
 11
-133.75
 21
-1792.5
 31
0.0
  0
LINE
  5
154
330
74
100
AcDbEntity
  8
0
 62
     0
100
AcDbLine
 10
-132.5
 20
-1792.5
 30
0.0
 11
-132.5
 21
-1792.5
 31
0.0
  0
LINE
  5
155
330
74
100
AcDbEntity
  8
0
 62
     0
100
AcDbLine
 10
-131.25
 20
-1792.5
 30
0.0
 11
-131.25
 21
-1792.5
 31
0.0
  0
LINE
  5
156
330
74
100
AcDbEntity
  8
0
 62
     0
100
AcDbLine
 10
-130.0
 20
-1792.5
 30
0.0
 11
-130.0
 21
-1792.5
 31
0.0
  0
LINE
  5
157
330
74
100
AcDbEntity
  8
0
 62
     0
100
AcDbLine
 10
-128.75
 20
-1792.5
 30
0.0
 11
-128.75
 21
-1792.5
 31
0.0
  0
LINE
  5
158
330
74
100
AcDbEntity
  8
0
 62
     0
100
AcDbLine
 10
-127.5
 20
-1792.5
 30
0.0
 11
-127.5
 21
-1792.5
 31
0.0
  0
LINE
  5
159
330
74
100
AcDbEntity
  8
0
 62
     0
100
AcDbLine
 10
-126.25
 20
-1792.5
 30
0.0
 11
-126.25
 21
-1792.5
 31
0.0
  0
LINE
  5
15A
330
74
100
AcDbEntity
  8
0
 62
     0
100
AcDbLine
 10
-125.0
 20
-1792.5
 30
0.0
 11
-125.0
 21
-1792.5
 31
0.0
  0
LINE
  5
15B
330
74
100
AcDbEntity
  8
0
 62
     0
100
AcDbLine
 10
-123.75
 20
-1792.5
 30
0.0
 11
-123.75
 21
-1792.5
 31
0.0
  0
LINE
  5
15C
330
74
100
AcDbEntity
  8
0
 62
     0
100
AcDbLine
 10
-122.5
 20
-1792.5
 30
0.0
 11
-122.5
 21
-1792.5
 31
0.0
  0
LINE
  5
15D
330
74
100
AcDbEntity
  8
0
 62
     0
100
AcDbLine
 10
-121.25
 20
-1792.5
 30
0.0
 11
-121.25
 21
-1792.5
 31
0.0
  0
LINE
  5
15E
330
74
100
AcDbEntity
  8
0
 62
     0
100
AcDbLine
 10
-145.625
 20
-1791.25
 30
0.0
 11
-145.625
 21
-1791.25
 31
0.0
  0
LINE
  5
15F
330
74
100
AcDbEntity
  8
0
 62
     0
100
AcDbLine
 10
-144.3749999999999
 20
-1791.25
 30
0.0
 11
-144.3749999999999
 21
-1791.25
 31
0.0
  0
LINE
  5
160
330
74
100
AcDbEntity
  8
0
 62
     0
100
AcDbLine
 10
-143.1249999999999
 20
-1791.25
 30
0.0
 11
-143.1249999999999
 21
-1791.25
 31
0.0
  0
LINE
  5
161
330
74
100
AcDbEntity
  8
0
 62
     0
100
AcDbLine
 10
-141.875
 20
-1791.25
 30
0.0
 11
-141.875
 21
-1791.25
 31
0.0
  0
LINE
  5
162
330
74
100
AcDbEntity
  8
0
 62
     0
100
AcDbLine
 10
-140.625
 20
-1791.25
 30
0.0
 11
-140.625
 21
-1791.25
 31
0.0
  0
LINE
  5
163
330
74
100
AcDbEntity
  8
0
 62
     0
100
AcDbLine
 10
-139.375
 20
-1791.25
 30
0.0
 11
-139.375
 21
-1791.25
 31
0.0
  0
LINE
  5
164
330
74
100
AcDbEntity
  8
0
 62
     0
100
AcDbLine
 10
-138.1249999999999
 20
-1791.25
 30
0.0
 11
-138.1249999999999
 21
-1791.25
 31
0.0
  0
LINE
  5
165
330
74
100
AcDbEntity
  8
0
 62
     0
100
AcDbLine
 10
-136.8749999999999
 20
-1791.25
 30
0.0
 11
-136.8749999999999
 21
-1791.25
 31
0.0
  0
LINE
  5
166
330
74
100
AcDbEntity
  8
0
 62
     0
100
AcDbLine
 10
-135.6249999999999
 20
-1791.25
 30
0.0
 11
-135.6249999999999
 21
-1791.25
 31
0.0
  0
LINE
  5
167
330
74
100
AcDbEntity
  8
0
 62
     0
100
AcDbLine
 10
-134.375
 20
-1791.25
 30
0.0
 11
-134.375
 21
-1791.25
 31
0.0
  0
LINE
  5
168
330
74
100
AcDbEntity
  8
0
 62
     0
100
AcDbLine
 10
-133.125
 20
-1791.25
 30
0.0
 11
-133.125
 21
-1791.25
 31
0.0
  0
LINE
  5
169
330
74
100
AcDbEntity
  8
0
 62
     0
100
AcDbLine
 10
-131.8749999999999
 20
-1791.25
 30
0.0
 11
-131.8749999999999
 21
-1791.25
 31
0.0
  0
LINE
  5
16A
330
74
100
AcDbEntity
  8
0
 62
     0
100
AcDbLine
 10
-130.6249999999999
 20
-1791.25
 30
0.0
 11
-130.6249999999999
 21
-1791.25
 31
0.0
  0
LINE
  5
16B
330
74
100
AcDbEntity
  8
0
 62
     0
100
AcDbLine
 10
-129.3749999999999
 20
-1791.25
 30
0.0
 11
-129.3749999999999
 21
-1791.25
 31
0.0
  0
LINE
  5
16C
330
74
100
AcDbEntity
  8
0
 62
     0
100
AcDbLine
 10
-128.125
 20
-1791.25
 30
0.0
 11
-128.125
 21
-1791.25
 31
0.0
  0
LINE
  5
16D
330
74
100
AcDbEntity
  8
0
 62
     0
100
AcDbLine
 10
-126.875
 20
-1791.25
 30
0.0
 11
-126.875
 21
-1791.25
 31
0.0
  0
LINE
  5
16E
330
74
100
AcDbEntity
  8
0
 62
     0
100
AcDbLine
 10
-125.6249999999999
 20
-1791.25
 30
0.0
 11
-125.6249999999999
 21
-1791.25
 31
0.0
  0
LINE
  5
16F
330
74
100
AcDbEntity
  8
0
 62
     0
100
AcDbLine
 10
-124.3749999999999
 20
-1791.25
 30
0.0
 11
-124.3749999999999
 21
-1791.25
 31
0.0
  0
LINE
  5
170
330
74
100
AcDbEntity
  8
0
 62
     0
100
AcDbLine
 10
-123.1249999999999
 20
-1791.25
 30
0.0
 11
-123.1249999999999
 21
-1791.25
 31
0.0
  0
LINE
  5
171
330
74
100
AcDbEntity
  8
0
 62
     0
100
AcDbLine
 10
-121.875
 20
-1791.25
 30
0.0
 11
-121.875
 21
-1791.25
 31
0.0
  0
LINE
  5
172
330
74
100
AcDbEntity
  8
0
 62
     0
100
AcDbLine
 10
-120.625
 20
-1791.25
 30
0.0
 11
-120.625
 21
-1791.25
 31
0.0
  0
LINE
  5
173
330
74
100
AcDbEntity
  8
0
 62
     0
100
AcDbLine
 10
-143.75
 20
-1790.0
 30
0.0
 11
-143.75
 21
-1790.0
 31
0.0
  0
LINE
  5
174
330
74
100
AcDbEntity
  8
0
 62
     0
100
AcDbLine
 10
-142.5
 20
-1790.0
 30
0.0
 11
-142.5
 21
-1790.0
 31
0.0
  0
LINE
  5
175
330
74
100
AcDbEntity
  8
0
 62
     0
100
AcDbLine
 10
-141.25
 20
-1790.0
 30
0.0
 11
-141.25
 21
-1790.0
 31
0.0
  0
LINE
  5
176
330
74
100
AcDbEntity
  8
0
 62
     0
100
AcDbLine
 10
-140.0
 20
-1790.0
 30
0.0
 11
-140.0
 21
-1790.0
 31
0.0
  0
LINE
  5
177
330
74
100
AcDbEntity
  8
0
 62
     0
100
AcDbLine
 10
-138.75
 20
-1790.0
 30
0.0
 11
-138.75
 21
-1790.0
 31
0.0
  0
LINE
  5
178
330
74
100
AcDbEntity
  8
0
 62
     0
100
AcDbLine
 10
-137.5
 20
-1790.0
 30
0.0
 11
-137.5
 21
-1790.0
 31
0.0
  0
LINE
  5
179
330
74
100
AcDbEntity
  8
0
 62
     0
100
AcDbLine
 10
-136.25
 20
-1790.0
 30
0.0
 11
-136.25
 21
-1790.0
 31
0.0
  0
LINE
  5
17A
330
74
100
AcDbEntity
  8
0
 62
     0
100
AcDbLine
 10
-135.0
 20
-1790.0
 30
0.0
 11
-135.0
 21
-1790.0
 31
0.0
  0
LINE
  5
17B
330
74
100
AcDbEntity
  8
0
 62
     0
100
AcDbLine
 10
-133.75
 20
-1790.0
 30
0.0
 11
-133.75
 21
-1790.0
 31
0.0
  0
LINE
  5
17C
330
74
100
AcDbEntity
  8
0
 62
     0
100
AcDbLine
 10
-132.5
 20
-1790.0
 30
0.0
 11
-132.5
 21
-1790.0
 31
0.0
  0
LINE
  5
17D
330
74
100
AcDbEntity
  8
0
 62
     0
100
AcDbLine
 10
-131.25
 20
-1790.0
 30
0.0
 11
-131.25
 21
-1790.0
 31
0.0
  0
LINE
  5
17E
330
74
100
AcDbEntity
  8
0
 62
     0
100
AcDbLine
 10
-130.0
 20
-1790.0
 30
0.0
 11
-130.0
 21
-1790.0
 31
0.0
  0
LINE
  5
17F
330
74
100
AcDbEntity
  8
0
 62
     0
100
AcDbLine
 10
-128.75
 20
-1790.0
 30
0.0
 11
-128.75
 21
-1790.0
 31
0.0
  0
LINE
  5
180
330
74
100
AcDbEntity
  8
0
 62
     0
100
AcDbLine
 10
-127.5
 20
-1790.0
 30
0.0
 11
-127.5
 21
-1790.0
 31
0.0
  0
LINE
  5
181
330
74
100
AcDbEntity
  8
0
 62
     0
100
AcDbLine
 10
-126.25
 20
-1790.0
 30
0.0
 11
-126.25
 21
-1790.0
 31
0.0
  0
LINE
  5
182
330
74
100
AcDbEntity
  8
0
 62
     0
100
AcDbLine
 10
-125.0
 20
-1790.0
 30
0.0
 11
-125.0
 21
-1790.0
 31
0.0
  0
LINE
  5
183
330
74
100
AcDbEntity
  8
0
 62
     0
100
AcDbLine
 10
-123.75
 20
-1790.0
 30
0.0
 11
-123.75
 21
-1790.0
 31
0.0
  0
LINE
  5
184
330
74
100
AcDbEntity
  8
0
 62
     0
100
AcDbLine
 10
-122.5
 20
-1790.0
 30
0.0
 11
-122.5
 21
-1790.0
 31
0.0
  0
LINE
  5
185
330
74
100
AcDbEntity
  8
0
 62
     0
100
AcDbLine
 10
-121.25
 20
-1790.0
 30
0.0
 11
-121.25
 21
-1790.0
 31
0.0
  0
LINE
  5
186
330
74
100
AcDbEntity
  8
0
 62
     0
100
AcDbLine
 10
-120.0
 20
-1790.0
 30
0.0
 11
-120.0
 21
-1790.0
 31
0.0
  0
LINE
  5
187
330
74
100
AcDbEntity
  8
0
 62
     0
100
AcDbLine
 10
-141.875
 20
-1788.75
 30
0.0
 11
-141.875
 21
-1788.75
 31
0.0
  0
LINE
  5
188
330
74
100
AcDbEntity
  8
0
 62
     0
100
AcDbLine
 10
-140.625
 20
-1788.75
 30
0.0
 11
-140.625
 21
-1788.75
 31
0.0
  0
LINE
  5
189
330
74
100
AcDbEntity
  8
0
 62
     0
100
AcDbLine
 10
-139.375
 20
-1788.75
 30
0.0
 11
-139.375
 21
-1788.75
 31
0.0
  0
LINE
  5
18A
330
74
100
AcDbEntity
  8
0
 62
     0
100
AcDbLine
 10
-138.125
 20
-1788.75
 30
0.0
 11
-138.125
 21
-1788.75
 31
0.0
  0
LINE
  5
18B
330
74
100
AcDbEntity
  8
0
 62
     0
100
AcDbLine
 10
-136.875
 20
-1788.75
 30
0.0
 11
-136.875
 21
-1788.75
 31
0.0
  0
LINE
  5
18C
330
74
100
AcDbEntity
  8
0
 62
     0
100
AcDbLine
 10
-135.625
 20
-1788.75
 30
0.0
 11
-135.625
 21
-1788.75
 31
0.0
  0
LINE
  5
18D
330
74
100
AcDbEntity
  8
0
 62
     0
100
AcDbLine
 10
-134.375
 20
-1788.75
 30
0.0
 11
-134.375
 21
-1788.75
 31
0.0
  0
LINE
  5
18E
330
74
100
AcDbEntity
  8
0
 62
     0
100
AcDbLine
 10
-133.125
 20
-1788.75
 30
0.0
 11
-133.125
 21
-1788.75
 31
0.0
  0
LINE
  5
18F
330
74
100
AcDbEntity
  8
0
 62
     0
100
AcDbLine
 10
-131.875
 20
-1788.75
 30
0.0
 11
-131.875
 21
-1788.75
 31
0.0
  0
LINE
  5
190
330
74
100
AcDbEntity
  8
0
 62
     0
100
AcDbLine
 10
-130.625
 20
-1788.75
 30
0.0
 11
-130.625
 21
-1788.75
 31
0.0
  0
LINE
  5
191
330
74
100
AcDbEntity
  8
0
 62
     0
100
AcDbLine
 10
-129.375
 20
-1788.75
 30
0.0
 11
-129.375
 21
-1788.75
 31
0.0
  0
LINE
  5
192
330
74
100
AcDbEntity
  8
0
 62
     0
100
AcDbLine
 10
-128.125
 20
-1788.75
 30
0.0
 11
-128.125
 21
-1788.75
 31
0.0
  0
LINE
  5
193
330
74
100
AcDbEntity
  8
0
 62
     0
100
AcDbLine
 10
-126.875
 20
-1788.75
 30
0.0
 11
-126.875
 21
-1788.75
 31
0.0
  0
LINE
  5
194
330
74
100
AcDbEntity
  8
0
 62
     0
100
AcDbLine
 10
-125.625
 20
-1788.75
 30
0.0
 11
-125.625
 21
-1788.75
 31
0.0
  0
LINE
  5
195
330
74
100
AcDbEntity
  8
0
 62
     0
100
AcDbLine
 10
-124.375
 20
-1788.75
 30
0.0
 11
-124.375
 21
-1788.75
 31
0.0
  0
LINE
  5
196
330
74
100
AcDbEntity
  8
0
 62
     0
100
AcDbLine
 10
-123.125
 20
-1788.75
 30
0.0
 11
-123.125
 21
-1788.75
 31
0.0
  0
LINE
  5
197
330
74
100
AcDbEntity
  8
0
 62
     0
100
AcDbLine
 10
-121.875
 20
-1788.75
 30
0.0
 11
-121.875
 21
-1788.75
 31
0.0
  0
LINE
  5
198
330
74
100
AcDbEntity
  8
0
 62
     0
100
AcDbLine
 10
-120.625
 20
-1788.75
 30
0.0
 11
-120.625
 21
-1788.75
 31
0.0
  0
LINE
  5
199
330
74
100
AcDbEntity
  8
0
 62
     0
100
AcDbLine
 10
-119.375
 20
-1788.75
 30
0.0
 11
-119.375
 21
-1788.75
 31
0.0
  0
LINE
  5
19A
330
74
100
AcDbEntity
  8
0
 62
     0
100
AcDbLine
 10
-139.9999999999999
 20
-1787.5
 30
0.0
 11
-139.9999999999999
 21
-1787.5
 31
0.0
  0
LINE
  5
19B
330
74
100
AcDbEntity
  8
0
 62
     0
100
AcDbLine
 10
-138.7499999999999
 20
-1787.5
 30
0.0
 11
-138.7499999999999
 21
-1787.5
 31
0.0
  0
LINE
  5
19C
330
74
100
AcDbEntity
  8
0
 62
     0
100
AcDbLine
 10
-137.5
 20
-1787.5
 30
0.0
 11
-137.5
 21
-1787.5
 31
0.0
  0
LINE
  5
19D
330
74
100
AcDbEntity
  8
0
 62
     0
100
AcDbLine
 10
-136.25
 20
-1787.5
 30
0.0
 11
-136.25
 21
-1787.5
 31
0.0
  0
LINE
  5
19E
330
74
100
AcDbEntity
  8
0
 62
     0
100
AcDbLine
 10
-134.9999999999999
 20
-1787.5
 30
0.0
 11
-134.9999999999999
 21
-1787.5
 31
0.0
  0
LINE
  5
19F
330
74
100
AcDbEntity
  8
0
 62
     0
100
AcDbLine
 10
-133.7499999999999
 20
-1787.5
 30
0.0
 11
-133.7499999999999
 21
-1787.5
 31
0.0
  0
LINE
  5
1A0
330
74
100
AcDbEntity
  8
0
 62
     0
100
AcDbLine
 10
-132.4999999999999
 20
-1787.5
 30
0.0
 11
-132.4999999999999
 21
-1787.5
 31
0.0
  0
LINE
  5
1A1
330
74
100
AcDbEntity
  8
0
 62
     0
100
AcDbLine
 10
-131.25
 20
-1787.5
 30
0.0
 11
-131.25
 21
-1787.5
 31
0.0
  0
LINE
  5
1A2
330
74
100
AcDbEntity
  8
0
 62
     0
100
AcDbLine
 10
-130.0
 20
-1787.5
 30
0.0
 11
-130.0
 21
-1787.5
 31
0.0
  0
LINE
  5
1A3
330
74
100
AcDbEntity
  8
0
 62
     0
100
AcDbLine
 10
-128.7499999999999
 20
-1787.5
 30
0.0
 11
-128.7499999999999
 21
-1787.5
 31
0.0
  0
LINE
  5
1A4
330
74
100
AcDbEntity
  8
0
 62
     0
100
AcDbLine
 10
-127.4999999999999
 20
-1787.5
 30
0.0
 11
-127.4999999999999
 21
-1787.5
 31
0.0
  0
LINE
  5
1A5
330
74
100
AcDbEntity
  8
0
 62
     0
100
AcDbLine
 10
-126.2499999999999
 20
-1787.5
 30
0.0
 11
-126.2499999999999
 21
-1787.5
 31
0.0
  0
LINE
  5
1A6
330
74
100
AcDbEntity
  8
0
 62
     0
100
AcDbLine
 10
-125.0
 20
-1787.5
 30
0.0
 11
-125.0
 21
-1787.5
 31
0.0
  0
LINE
  5
1A7
330
74
100
AcDbEntity
  8
0
 62
     0
100
AcDbLine
 10
-123.75
 20
-1787.5
 30
0.0
 11
-123.75
 21
-1787.5
 31
0.0
  0
LINE
  5
1A8
330
74
100
AcDbEntity
  8
0
 62
     0
100
AcDbLine
 10
-122.4999999999999
 20
-1787.5
 30
0.0
 11
-122.4999999999999
 21
-1787.5
 31
0.0
  0
LINE
  5
1A9
330
74
100
AcDbEntity
  8
0
 62
     0
100
AcDbLine
 10
-121.2499999999999
 20
-1787.5
 30
0.0
 11
-121.2499999999999
 21
-1787.5
 31
0.0
  0
LINE
  5
1AA
330
74
100
AcDbEntity
  8
0
 62
     0
100
AcDbLine
 10
-119.9999999999999
 20
-1787.5
 30
0.0
 11
-119.9999999999999
 21
-1787.5
 31
0.0
  0
LINE
  5
1AB
330
74
100
AcDbEntity
  8
0
 62
     0
100
AcDbLine
 10
-118.75
 20
-1787.5
 30
0.0
 11
-118.75
 21
-1787.5
 31
0.0
  0
LINE
  5
1AC
330
74
100
AcDbEntity
  8
0
 62
     0
100
AcDbLine
 10
-138.1249999999999
 20
-1786.25
 30
0.0
 11
-138.1249999999999
 21
-1786.25
 31
0.0
  0
LINE
  5
1AD
330
74
100
AcDbEntity
  8
0
 62
     0
100
AcDbLine
 10
-136.8749999999999
 20
-1786.25
 30
0.0
 11
-136.8749999999999
 21
-1786.25
 31
0.0
  0
LINE
  5
1AE
330
74
100
AcDbEntity
  8
0
 62
     0
100
AcDbLine
 10
-135.6249999999999
 20
-1786.25
 30
0.0
 11
-135.6249999999999
 21
-1786.25
 31
0.0
  0
LINE
  5
1AF
330
74
100
AcDbEntity
  8
0
 62
     0
100
AcDbLine
 10
-134.3749999999999
 20
-1786.25
 30
0.0
 11
-134.3749999999999
 21
-1786.25
 31
0.0
  0
LINE
  5
1B0
330
74
100
AcDbEntity
  8
0
 62
     0
100
AcDbLine
 10
-133.1249999999999
 20
-1786.25
 30
0.0
 11
-133.1249999999999
 21
-1786.25
 31
0.0
  0
LINE
  5
1B1
330
74
100
AcDbEntity
  8
0
 62
     0
100
AcDbLine
 10
-131.8749999999999
 20
-1786.25
 30
0.0
 11
-131.8749999999999
 21
-1786.25
 31
0.0
  0
LINE
  5
1B2
330
74
100
AcDbEntity
  8
0
 62
     0
100
AcDbLine
 10
-130.6249999999999
 20
-1786.25
 30
0.0
 11
-130.6249999999999
 21
-1786.25
 31
0.0
  0
LINE
  5
1B3
330
74
100
AcDbEntity
  8
0
 62
     0
100
AcDbLine
 10
-129.3749999999999
 20
-1786.25
 30
0.0
 11
-129.3749999999999
 21
-1786.25
 31
0.0
  0
LINE
  5
1B4
330
74
100
AcDbEntity
  8
0
 62
     0
100
AcDbLine
 10
-128.1249999999999
 20
-1786.25
 30
0.0
 11
-128.1249999999999
 21
-1786.25
 31
0.0
  0
LINE
  5
1B5
330
74
100
AcDbEntity
  8
0
 62
     0
100
AcDbLine
 10
-126.8749999999999
 20
-1786.25
 30
0.0
 11
-126.8749999999999
 21
-1786.25
 31
0.0
  0
LINE
  5
1B6
330
74
100
AcDbEntity
  8
0
 62
     0
100
AcDbLine
 10
-125.6249999999999
 20
-1786.25
 30
0.0
 11
-125.6249999999999
 21
-1786.25
 31
0.0
  0
LINE
  5
1B7
330
74
100
AcDbEntity
  8
0
 62
     0
100
AcDbLine
 10
-124.3749999999999
 20
-1786.25
 30
0.0
 11
-124.3749999999999
 21
-1786.25
 31
0.0
  0
LINE
  5
1B8
330
74
100
AcDbEntity
  8
0
 62
     0
100
AcDbLine
 10
-123.1249999999999
 20
-1786.25
 30
0.0
 11
-123.1249999999999
 21
-1786.25
 31
0.0
  0
LINE
  5
1B9
330
74
100
AcDbEntity
  8
0
 62
     0
100
AcDbLine
 10
-121.8749999999999
 20
-1786.25
 30
0.0
 11
-121.8749999999999
 21
-1786.25
 31
0.0
  0
LINE
  5
1BA
330
74
100
AcDbEntity
  8
0
 62
     0
100
AcDbLine
 10
-120.6249999999999
 20
-1786.25
 30
0.0
 11
-120.6249999999999
 21
-1786.25
 31
0.0
  0
LINE
  5
1BB
330
74
100
AcDbEntity
  8
0
 62
     0
100
AcDbLine
 10
-119.3749999999999
 20
-1786.25
 30
0.0
 11
-119.3749999999999
 21
-1786.25
 31
0.0
  0
LINE
  5
1BC
330
74
100
AcDbEntity
  8
0
 62
     0
100
AcDbLine
 10
-118.1249999999999
 20
-1786.25
 30
0.0
 11
-118.1249999999999
 21
-1786.25
 31
0.0
  0
LINE
  5
1BD
330
74
100
AcDbEntity
  8
0
 62
     0
100
AcDbLine
 10
-137.4999999999999
 20
-1785.0
 30
0.0
 11
-137.4999999999999
 21
-1785.0
 31
0.0
  0
LINE
  5
1BE
330
74
100
AcDbEntity
  8
0
 62
     0
100
AcDbLine
 10
-136.2499999999999
 20
-1785.0
 30
0.0
 11
-136.2499999999999
 21
-1785.0
 31
0.0
  0
LINE
  5
1BF
330
74
100
AcDbEntity
  8
0
 62
     0
100
AcDbLine
 10
-134.9999999999999
 20
-1785.0
 30
0.0
 11
-134.9999999999999
 21
-1785.0
 31
0.0
  0
LINE
  5
1C0
330
74
100
AcDbEntity
  8
0
 62
     0
100
AcDbLine
 10
-133.7499999999999
 20
-1785.0
 30
0.0
 11
-133.7499999999999
 21
-1785.0
 31
0.0
  0
LINE
  5
1C1
330
74
100
AcDbEntity
  8
0
 62
     0
100
AcDbLine
 10
-132.4999999999999
 20
-1785.0
 30
0.0
 11
-132.4999999999999
 21
-1785.0
 31
0.0
  0
LINE
  5
1C2
330
74
100
AcDbEntity
  8
0
 62
     0
100
AcDbLine
 10
-131.2499999999999
 20
-1785.0
 30
0.0
 11
-131.2499999999999
 21
-1785.0
 31
0.0
  0
LINE
  5
1C3
330
74
100
AcDbEntity
  8
0
 62
     0
100
AcDbLine
 10
-129.9999999999999
 20
-1785.0
 30
0.0
 11
-129.9999999999999
 21
-1785.0
 31
0.0
  0
LINE
  5
1C4
330
74
100
AcDbEntity
  8
0
 62
     0
100
AcDbLine
 10
-128.7499999999999
 20
-1785.0
 30
0.0
 11
-128.7499999999999
 21
-1785.0
 31
0.0
  0
LINE
  5
1C5
330
74
100
AcDbEntity
  8
0
 62
     0
100
AcDbLine
 10
-127.4999999999999
 20
-1785.0
 30
0.0
 11
-127.4999999999999
 21
-1785.0
 31
0.0
  0
LINE
  5
1C6
330
74
100
AcDbEntity
  8
0
 62
     0
100
AcDbLine
 10
-126.2499999999999
 20
-1785.0
 30
0.0
 11
-126.2499999999999
 21
-1785.0
 31
0.0
  0
LINE
  5
1C7
330
74
100
AcDbEntity
  8
0
 62
     0
100
AcDbLine
 10
-124.9999999999999
 20
-1785.0
 30
0.0
 11
-124.9999999999999
 21
-1785.0
 31
0.0
  0
LINE
  5
1C8
330
74
100
AcDbEntity
  8
0
 62
     0
100
AcDbLine
 10
-123.7499999999999
 20
-1785.0
 30
0.0
 11
-123.7499999999999
 21
-1785.0
 31
0.0
  0
LINE
  5
1C9
330
74
100
AcDbEntity
  8
0
 62
     0
100
AcDbLine
 10
-122.4999999999999
 20
-1785.0
 30
0.0
 11
-122.4999999999999
 21
-1785.0
 31
0.0
  0
LINE
  5
1CA
330
74
100
AcDbEntity
  8
0
 62
     0
100
AcDbLine
 10
-121.2499999999999
 20
-1785.0
 30
0.0
 11
-121.2499999999999
 21
-1785.0
 31
0.0
  0
LINE
  5
1CB
330
74
100
AcDbEntity
  8
0
 62
     0
100
AcDbLine
 10
-119.9999999999999
 20
-1785.0
 30
0.0
 11
-119.9999999999999
 21
-1785.0
 31
0.0
  0
LINE
  5
1CC
330
74
100
AcDbEntity
  8
0
 62
     0
100
AcDbLine
 10
-136.875
 20
-1783.75
 30
0.0
 11
-136.875
 21
-1783.75
 31
0.0
  0
LINE
  5
1CD
330
74
100
AcDbEntity
  8
0
 62
     0
100
AcDbLine
 10
-135.625
 20
-1783.75
 30
0.0
 11
-135.625
 21
-1783.75
 31
0.0
  0
LINE
  5
1CE
330
74
100
AcDbEntity
  8
0
 62
     0
100
AcDbLine
 10
-134.375
 20
-1783.75
 30
0.0
 11
-134.375
 21
-1783.75
 31
0.0
  0
LINE
  5
1CF
330
74
100
AcDbEntity
  8
0
 62
     0
100
AcDbLine
 10
-133.125
 20
-1783.75
 30
0.0
 11
-133.125
 21
-1783.75
 31
0.0
  0
LINE
  5
1D0
330
74
100
AcDbEntity
  8
0
 62
     0
100
AcDbLine
 10
-131.875
 20
-1783.75
 30
0.0
 11
-131.875
 21
-1783.75
 31
0.0
  0
LINE
  5
1D1
330
74
100
AcDbEntity
  8
0
 62
     0
100
AcDbLine
 10
-130.625
 20
-1783.75
 30
0.0
 11
-130.625
 21
-1783.75
 31
0.0
  0
LINE
  5
1D2
330
74
100
AcDbEntity
  8
0
 62
     0
100
AcDbLine
 10
-129.375
 20
-1783.75
 30
0.0
 11
-129.375
 21
-1783.75
 31
0.0
  0
LINE
  5
1D3
330
74
100
AcDbEntity
  8
0
 62
     0
100
AcDbLine
 10
-128.125
 20
-1783.75
 30
0.0
 11
-128.125
 21
-1783.75
 31
0.0
  0
LINE
  5
1D4
330
74
100
AcDbEntity
  8
0
 62
     0
100
AcDbLine
 10
-126.875
 20
-1783.75
 30
0.0
 11
-126.875
 21
-1783.75
 31
0.0
  0
LINE
  5
1D5
330
74
100
AcDbEntity
  8
0
 62
     0
100
AcDbLine
 10
-125.625
 20
-1783.75
 30
0.0
 11
-125.625
 21
-1783.75
 31
0.0
  0
LINE
  5
1D6
330
74
100
AcDbEntity
  8
0
 62
     0
100
AcDbLine
 10
-124.375
 20
-1783.75
 30
0.0
 11
-124.375
 21
-1783.75
 31
0.0
  0
LINE
  5
1D7
330
74
100
AcDbEntity
  8
0
 62
     0
100
AcDbLine
 10
-136.25
 20
-1782.5
 30
0.0
 11
-136.25
 21
-1782.5
 31
0.0
  0
LINE
  5
1D8
330
74
100
AcDbEntity
  8
0
 62
     0
100
AcDbLine
 10
-135.0
 20
-1782.5
 30
0.0
 11
-135.0
 21
-1782.5
 31
0.0
  0
LINE
  5
1D9
330
74
100
AcDbEntity
  8
0
 62
     0
100
AcDbLine
 10
-133.75
 20
-1782.5
 30
0.0
 11
-133.75
 21
-1782.5
 31
0.0
  0
LINE
  5
1DA
330
74
100
AcDbEntity
  8
0
 62
     0
100
AcDbLine
 10
-132.5
 20
-1782.5
 30
0.0
 11
-132.5
 21
-1782.5
 31
0.0
  0
LINE
  5
1DB
330
74
100
AcDbEntity
  8
0
 62
     0
100
AcDbLine
 10
-131.25
 20
-1782.5
 30
0.0
 11
-131.25
 21
-1782.5
 31
0.0
  0
LINE
  5
1DC
330
74
100
AcDbEntity
  8
0
 62
     0
100
AcDbLine
 10
-130.0
 20
-1782.5
 30
0.0
 11
-130.0
 21
-1782.5
 31
0.0
  0
LINE
  5
1DD
330
74
100
AcDbEntity
  8
0
 62
     0
100
AcDbLine
 10
-128.75
 20
-1782.5
 30
0.0
 11
-128.75
 21
-1782.5
 31
0.0
  0
LINE
  5
1DE
330
74
100
AcDbEntity
  8
0
 62
     0
100
AcDbLine
 10
-127.5
 20
-1782.5
 30
0.0
 11
-127.5
 21
-1782.5
 31
0.0
  0
LINE
  5
1DF
330
74
100
AcDbEntity
  8
0
 62
     0
100
AcDbLine
 10
-126.25
 20
-1782.5
 30
0.0
 11
-126.25
 21
-1782.5
 31
0.0
  0
LINE
  5
1E0
330
74
100
AcDbEntity
  8
0
 62
     0
100
AcDbLine
 10
-134.375
 20
-1781.25
 30
0.0
 11
-134.375
 21
-1781.25
 31
0.0
  0
LINE
  5
1E1
330
74
100
AcDbEntity
  8
0
 62
     0
100
AcDbLine
 10
-133.125
 20
-1781.25
 30
0.0
 11
-133.125
 21
-1781.25
 31
0.0
  0
LINE
  5
1E2
330
74
100
AcDbEntity
  8
0
 62
     0
100
AcDbLine
 10
-131.8749999999999
 20
-1781.25
 30
0.0
 11
-131.8749999999999
 21
-1781.25
 31
0.0
  0
LINE
  5
1E3
330
74
100
AcDbEntity
  8
0
 62
     0
100
AcDbLine
 10
-130.6249999999999
 20
-1781.25
 30
0.0
 11
-130.6249999999999
 21
-1781.25
 31
0.0
  0
LINE
  5
1E4
330
74
100
AcDbEntity
  8
0
 62
     0
100
AcDbLine
 10
-129.3749999999999
 20
-1781.25
 30
0.0
 11
-129.3749999999999
 21
-1781.25
 31
0.0
  0
LINE
  5
1E5
330
74
100
AcDbEntity
  8
0
 62
     0
100
AcDbLine
 10
-128.125
 20
-1781.25
 30
0.0
 11
-128.125
 21
-1781.25
 31
0.0
  0
LINE
  5
1E6
330
74
100
AcDbEntity
  8
0
 62
     0
100
AcDbLine
 10
-122.4999999999999
 20
-1817.5
 30
0.0
 11
-122.4999999999999
 21
-1817.5
 31
0.0
  0
LINE
  5
1E7
330
74
100
AcDbEntity
  8
0
 62
     0
100
AcDbLine
 10
-124.375
 20
-1818.75
 30
0.0
 11
-124.375
 21
-1818.75
 31
0.0
  0
LINE
  5
1E8
330
74
100
AcDbEntity
  8
0
 62
     0
100
AcDbLine
 10
-123.125
 20
-1818.75
 30
0.0
 11
-123.125
 21
-1818.75
 31
0.0
  0
LINE
  5
1E9
330
74
100
AcDbEntity
  8
0
 62
     0
100
AcDbLine
 10
-104.375
 20
-1823.75
 30
0.0
 11
-104.375
 21
-1823.75
 31
0.0
  0
LINE
  5
1EA
330
74
100
AcDbEntity
  8
0
 62
     0
100
AcDbLine
 10
-110.0
 20
-1825.0
 30
0.0
 11
-110.0
 21
-1825.0
 31
0.0
  0
LINE
  5
1EB
330
74
100
AcDbEntity
  8
0
 62
     0
100
AcDbLine
 10
-108.75
 20
-1825.0
 30
0.0
 11
-108.75
 21
-1825.0
 31
0.0
  0
LINE
  5
1EC
330
74
100
AcDbEntity
  8
0
 62
     0
100
AcDbLine
 10
-107.5
 20
-1825.0
 30
0.0
 11
-107.5
 21
-1825.0
 31
0.0
  0
LINE
  5
1ED
330
74
100
AcDbEntity
  8
0
 62
     0
100
AcDbLine
 10
-106.25
 20
-1825.0
 30
0.0
 11
-106.25
 21
-1825.0
 31
0.0
  0
LINE
  5
1EE
330
74
100
AcDbEntity
  8
0
 62
     0
100
AcDbLine
 10
-105.0
 20
-1825.0
 30
0.0
 11
-105.0
 21
-1825.0
 31
0.0
  0
LINE
  5
1EF
330
74
100
AcDbEntity
  8
0
 62
     0
100
AcDbLine
 10
-103.75
 20
-1825.0
 30
0.0
 11
-103.75
 21
-1825.0
 31
0.0
  0
LINE
  5
1F0
330
74
100
AcDbEntity
  8
0
 62
     0
100
AcDbLine
 10
-115.6249999999999
 20
-1826.25
 30
0.0
 11
-115.6249999999999
 21
-1826.25
 31
0.0
  0
LINE
  5
1F1
330
74
100
AcDbEntity
  8
0
 62
     0
100
AcDbLine
 10
-114.3749999999999
 20
-1826.25
 30
0.0
 11
-114.3749999999999
 21
-1826.25
 31
0.0
  0
LINE
  5
1F2
330
74
100
AcDbEntity
  8
0
 62
     0
100
AcDbLine
 10
-113.1249999999999
 20
-1826.25
 30
0.0
 11
-113.1249999999999
 21
-1826.25
 31
0.0
  0
LINE
  5
1F3
330
74
100
AcDbEntity
  8
0
 62
     0
100
AcDbLine
 10
-111.8749999999999
 20
-1826.25
 30
0.0
 11
-111.8749999999999
 21
-1826.25
 31
0.0
  0
LINE
  5
1F4
330
74
100
AcDbEntity
  8
0
 62
     0
100
AcDbLine
 10
-110.6249999999999
 20
-1826.25
 30
0.0
 11
-110.6249999999999
 21
-1826.25
 31
0.0
  0
LINE
  5
1F5
330
74
100
AcDbEntity
  8
0
 62
     0
100
AcDbLine
 10
-109.3749999999999
 20
-1826.25
 30
0.0
 11
-109.3749999999999
 21
-1826.25
 31
0.0
  0
LINE
  5
1F6
330
74
100
AcDbEntity
  8
0
 62
     0
100
AcDbLine
 10
-108.1249999999999
 20
-1826.25
 30
0.0
 11
-108.1249999999999
 21
-1826.25
 31
0.0
  0
LINE
  5
1F7
330
74
100
AcDbEntity
  8
0
 62
     0
100
AcDbLine
 10
-106.8749999999999
 20
-1826.25
 30
0.0
 11
-106.8749999999999
 21
-1826.25
 31
0.0
  0
LINE
  5
1F8
330
74
100
AcDbEntity
  8
0
 62
     0
100
AcDbLine
 10
-105.6249999999999
 20
-1826.25
 30
0.0
 11
-105.6249999999999
 21
-1826.25
 31
0.0
  0
LINE
  5
1F9
330
74
100
AcDbEntity
  8
0
 62
     0
100
AcDbLine
 10
-104.3749999999999
 20
-1826.25
 30
0.0
 11
-104.3749999999999
 21
-1826.25
 31
0.0
  0
LINE
  5
1FA
330
74
100
AcDbEntity
  8
0
 62
     0
100
AcDbLine
 10
-103.1249999999999
 20
-1826.25
 30
0.0
 11
-103.1249999999999
 21
-1826.25
 31
0.0
  0
LINE
  5
1FB
330
74
100
AcDbEntity
  8
0
 62
     0
100
AcDbLine
 10
-117.4999999999999
 20
-1827.5
 30
0.0
 11
-117.4999999999999
 21
-1827.5
 31
0.0
  0
LINE
  5
1FC
330
74
100
AcDbEntity
  8
0
 62
     0
100
AcDbLine
 10
-116.2499999999999
 20
-1827.5
 30
0.0
 11
-116.2499999999999
 21
-1827.5
 31
0.0
  0
LINE
  5
1FD
330
74
100
AcDbEntity
  8
0
 62
     0
100
AcDbLine
 10
-114.9999999999999
 20
-1827.5
 30
0.0
 11
-114.9999999999999
 21
-1827.5
 31
0.0
  0
LINE
  5
1FE
330
74
100
AcDbEntity
  8
0
 62
     0
100
AcDbLine
 10
-113.7499999999999
 20
-1827.5
 30
0.0
 11
-113.7499999999999
 21
-1827.5
 31
0.0
  0
LINE
  5
1FF
330
74
100
AcDbEntity
  8
0
 62
     0
100
AcDbLine
 10
-112.4999999999999
 20
-1827.5
 30
0.0
 11
-112.4999999999999
 21
-1827.5
 31
0.0
  0
LINE
  5
200
330
74
100
AcDbEntity
  8
0
 62
     0
100
AcDbLine
 10
-111.2499999999999
 20
-1827.5
 30
0.0
 11
-111.2499999999999
 21
-1827.5
 31
0.0
  0
LINE
  5
201
330
74
100
AcDbEntity
  8
0
 62
     0
100
AcDbLine
 10
-109.9999999999999
 20
-1827.5
 30
0.0
 11
-109.9999999999999
 21
-1827.5
 31
0.0
  0
LINE
  5
202
330
74
100
AcDbEntity
  8
0
 62
     0
100
AcDbLine
 10
-108.7499999999999
 20
-1827.5
 30
0.0
 11
-108.7499999999999
 21
-1827.5
 31
0.0
  0
LINE
  5
203
330
74
100
AcDbEntity
  8
0
 62
     0
100
AcDbLine
 10
-107.4999999999999
 20
-1827.5
 30
0.0
 11
-107.4999999999999
 21
-1827.5
 31
0.0
  0
LINE
  5
204
330
74
100
AcDbEntity
  8
0
 62
     0
100
AcDbLine
 10
-106.2499999999999
 20
-1827.5
 30
0.0
 11
-106.2499999999999
 21
-1827.5
 31
0.0
  0
LINE
  5
205
330
74
100
AcDbEntity
  8
0
 62
     0
100
AcDbLine
 10
-104.9999999999999
 20
-1827.5
 30
0.0
 11
-104.9999999999999
 21
-1827.5
 31
0.0
  0
LINE
  5
206
330
74
100
AcDbEntity
  8
0
 62
     0
100
AcDbLine
 10
-103.7499999999999
 20
-1827.5
 30
0.0
 11
-103.7499999999999
 21
-1827.5
 31
0.0
  0
LINE
  5
207
330
74
100
AcDbEntity
  8
0
 62
     0
100
AcDbLine
 10
-102.4999999999999
 20
-1827.5
 30
0.0
 11
-102.4999999999999
 21
-1827.5
 31
0.0
  0
LINE
  5
208
330
74
100
AcDbEntity
  8
0
 62
     0
100
AcDbLine
 10
-115.625
 20
-1828.75
 30
0.0
 11
-115.625
 21
-1828.75
 31
0.0
  0
LINE
  5
209
330
74
100
AcDbEntity
  8
0
 62
     0
100
AcDbLine
 10
-114.375
 20
-1828.75
 30
0.0
 11
-114.375
 21
-1828.75
 31
0.0
  0
LINE
  5
20A
330
74
100
AcDbEntity
  8
0
 62
     0
100
AcDbLine
 10
-106.875
 20
-1828.75
 30
0.0
 11
-106.875
 21
-1828.75
 31
0.0
  0
LINE
  5
20B
330
74
100
AcDbEntity
  8
0
 62
     0
100
AcDbLine
 10
-105.625
 20
-1828.75
 30
0.0
 11
-105.625
 21
-1828.75
 31
0.0
  0
LINE
  5
20C
330
74
100
AcDbEntity
  8
0
 62
     0
100
AcDbLine
 10
-104.375
 20
-1828.75
 30
0.0
 11
-104.375
 21
-1828.75
 31
0.0
  0
LINE
  5
20D
330
74
100
AcDbEntity
  8
0
 62
     0
100
AcDbLine
 10
-103.125
 20
-1828.75
 30
0.0
 11
-103.125
 21
-1828.75
 31
0.0
  0
LINE
  5
20E
330
74
100
AcDbEntity
  8
0
 62
     0
100
AcDbLine
 10
-101.875
 20
-1828.75
 30
0.0
 11
-101.875
 21
-1828.75
 31
0.0
  0
LINE
  5
20F
330
74
100
AcDbEntity
  8
0
 62
     0
100
AcDbLine
 10
-113.1249999999999
 20
-1828.75
 30
0.0
 11
-113.1249999999999
 21
-1828.75
 31
0.0
  0
LINE
  5
210
330
74
100
AcDbEntity
  8
0
 62
     0
100
AcDbLine
 10
-111.8749999999999
 20
-1828.75
 30
0.0
 11
-111.8749999999999
 21
-1828.75
 31
0.0
  0
LINE
  5
211
330
74
100
AcDbEntity
  8
0
 62
     0
100
AcDbLine
 10
-110.6249999999999
 20
-1828.75
 30
0.0
 11
-110.6249999999999
 21
-1828.75
 31
0.0
  0
LINE
  5
212
330
74
100
AcDbEntity
  8
0
 62
     0
100
AcDbLine
 10
-109.3749999999999
 20
-1828.75
 30
0.0
 11
-109.3749999999999
 21
-1828.75
 31
0.0
  0
LINE
  5
213
330
74
100
AcDbEntity
  8
0
 62
     0
100
AcDbLine
 10
-108.1249999999999
 20
-1828.75
 30
0.0
 11
-108.1249999999999
 21
-1828.75
 31
0.0
  0
LINE
  5
214
330
74
100
AcDbEntity
  8
0
 62
     0
100
AcDbLine
 10
-116.25
 20
-1830.0
 30
0.0
 11
-116.25
 21
-1830.0
 31
0.0
  0
LINE
  5
215
330
74
100
AcDbEntity
  8
0
 62
     0
100
AcDbLine
 10
-115.0
 20
-1830.0
 30
0.0
 11
-115.0
 21
-1830.0
 31
0.0
  0
LINE
  5
216
330
74
100
AcDbEntity
  8
0
 62
     0
100
AcDbLine
 10
-113.75
 20
-1830.0
 30
0.0
 11
-113.75
 21
-1830.0
 31
0.0
  0
LINE
  5
217
330
74
100
AcDbEntity
  8
0
 62
     0
100
AcDbLine
 10
-112.5
 20
-1830.0
 30
0.0
 11
-112.5
 21
-1830.0
 31
0.0
  0
LINE
  5
218
330
74
100
AcDbEntity
  8
0
 62
     0
100
AcDbLine
 10
-111.25
 20
-1830.0
 30
0.0
 11
-111.25
 21
-1830.0
 31
0.0
  0
LINE
  5
219
330
74
100
AcDbEntity
  8
0
 62
     0
100
AcDbLine
 10
-110.0
 20
-1830.0
 30
0.0
 11
-110.0
 21
-1830.0
 31
0.0
  0
LINE
  5
21A
330
74
100
AcDbEntity
  8
0
 62
     0
100
AcDbLine
 10
-108.75
 20
-1830.0
 30
0.0
 11
-108.75
 21
-1830.0
 31
0.0
  0
LINE
  5
21B
330
74
100
AcDbEntity
  8
0
 62
     0
100
AcDbLine
 10
-107.5
 20
-1830.0
 30
0.0
 11
-107.5
 21
-1830.0
 31
0.0
  0
LINE
  5
21C
330
74
100
AcDbEntity
  8
0
 62
     0
100
AcDbLine
 10
-106.25
 20
-1830.0
 30
0.0
 11
-106.25
 21
-1830.0
 31
0.0
  0
LINE
  5
21D
330
74
100
AcDbEntity
  8
0
 62
     0
100
AcDbLine
 10
-105.0
 20
-1830.0
 30
0.0
 11
-105.0
 21
-1830.0
 31
0.0
  0
LINE
  5
21E
330
74
100
AcDbEntity
  8
0
 62
     0
100
AcDbLine
 10
-103.75
 20
-1830.0
 30
0.0
 11
-103.75
 21
-1830.0
 31
0.0
  0
LINE
  5
21F
330
74
100
AcDbEntity
  8
0
 62
     0
100
AcDbLine
 10
-102.5
 20
-1830.0
 30
0.0
 11
-102.5
 21
-1830.0
 31
0.0
  0
LINE
  5
220
330
74
100
AcDbEntity
  8
0
 62
     0
100
AcDbLine
 10
-101.25
 20
-1830.0
 30
0.0
 11
-101.25
 21
-1830.0
 31
0.0
  0
LINE
  5
221
330
74
100
AcDbEntity
  8
0
 62
     0
100
AcDbLine
 10
-116.8749999999999
 20
-1831.25
 30
0.0
 11
-116.8749999999999
 21
-1831.25
 31
0.0
  0
LINE
  5
222
330
74
100
AcDbEntity
  8
0
 62
     0
100
AcDbLine
 10
-115.625
 20
-1831.25
 30
0.0
 11
-115.625
 21
-1831.25
 31
0.0
  0
LINE
  5
223
330
74
100
AcDbEntity
  8
0
 62
     0
100
AcDbLine
 10
-114.375
 20
-1831.25
 30
0.0
 11
-114.375
 21
-1831.25
 31
0.0
  0
LINE
  5
224
330
74
100
AcDbEntity
  8
0
 62
     0
100
AcDbLine
 10
-113.1249999999999
 20
-1831.25
 30
0.0
 11
-113.1249999999999
 21
-1831.25
 31
0.0
  0
LINE
  5
225
330
74
100
AcDbEntity
  8
0
 62
     0
100
AcDbLine
 10
-111.8749999999999
 20
-1831.25
 30
0.0
 11
-111.8749999999999
 21
-1831.25
 31
0.0
  0
LINE
  5
226
330
74
100
AcDbEntity
  8
0
 62
     0
100
AcDbLine
 10
-110.6249999999999
 20
-1831.25
 30
0.0
 11
-110.6249999999999
 21
-1831.25
 31
0.0
  0
LINE
  5
227
330
74
100
AcDbEntity
  8
0
 62
     0
100
AcDbLine
 10
-109.375
 20
-1831.25
 30
0.0
 11
-109.375
 21
-1831.25
 31
0.0
  0
LINE
  5
228
330
74
100
AcDbEntity
  8
0
 62
     0
100
AcDbLine
 10
-108.125
 20
-1831.25
 30
0.0
 11
-108.125
 21
-1831.25
 31
0.0
  0
LINE
  5
229
330
74
100
AcDbEntity
  8
0
 62
     0
100
AcDbLine
 10
-106.875
 20
-1831.25
 30
0.0
 11
-106.875
 21
-1831.25
 31
0.0
  0
LINE
  5
22A
330
74
100
AcDbEntity
  8
0
 62
     0
100
AcDbLine
 10
-105.625
 20
-1831.25
 30
0.0
 11
-105.625
 21
-1831.25
 31
0.0
  0
LINE
  5
22B
330
74
100
AcDbEntity
  8
0
 62
     0
100
AcDbLine
 10
-104.375
 20
-1831.25
 30
0.0
 11
-104.375
 21
-1831.25
 31
0.0
  0
LINE
  5
22C
330
74
100
AcDbEntity
  8
0
 62
     0
100
AcDbLine
 10
-103.125
 20
-1831.25
 30
0.0
 11
-103.125
 21
-1831.25
 31
0.0
  0
LINE
  5
22D
330
74
100
AcDbEntity
  8
0
 62
     0
100
AcDbLine
 10
-101.875
 20
-1831.25
 30
0.0
 11
-101.875
 21
-1831.25
 31
0.0
  0
LINE
  5
22E
330
74
100
AcDbEntity
  8
0
 62
     0
100
AcDbLine
 10
-115.0
 20
-1832.5
 30
0.0
 11
-115.0
 21
-1832.5
 31
0.0
  0
LINE
  5
22F
330
74
100
AcDbEntity
  8
0
 62
     0
100
AcDbLine
 10
-113.75
 20
-1832.5
 30
0.0
 11
-113.75
 21
-1832.5
 31
0.0
  0
LINE
  5
230
330
74
100
AcDbEntity
  8
0
 62
     0
100
AcDbLine
 10
-112.5
 20
-1832.5
 30
0.0
 11
-112.5
 21
-1832.5
 31
0.0
  0
LINE
  5
231
330
74
100
AcDbEntity
  8
0
 62
     0
100
AcDbLine
 10
-111.25
 20
-1832.5
 30
0.0
 11
-111.25
 21
-1832.5
 31
0.0
  0
LINE
  5
232
330
74
100
AcDbEntity
  8
0
 62
     0
100
AcDbLine
 10
-110.0
 20
-1832.5
 30
0.0
 11
-110.0
 21
-1832.5
 31
0.0
  0
LINE
  5
233
330
74
100
AcDbEntity
  8
0
 62
     0
100
AcDbLine
 10
-108.75
 20
-1832.5
 30
0.0
 11
-108.75
 21
-1832.5
 31
0.0
  0
LINE
  5
234
330
74
100
AcDbEntity
  8
0
 62
     0
100
AcDbLine
 10
-107.5
 20
-1832.5
 30
0.0
 11
-107.5
 21
-1832.5
 31
0.0
  0
LINE
  5
235
330
74
100
AcDbEntity
  8
0
 62
     0
100
AcDbLine
 10
-106.25
 20
-1832.5
 30
0.0
 11
-106.25
 21
-1832.5
 31
0.0
  0
LINE
  5
236
330
74
100
AcDbEntity
  8
0
 62
     0
100
AcDbLine
 10
-105.0
 20
-1832.5
 30
0.0
 11
-105.0
 21
-1832.5
 31
0.0
  0
LINE
  5
237
330
74
100
AcDbEntity
  8
0
 62
     0
100
AcDbLine
 10
-103.75
 20
-1832.5
 30
0.0
 11
-103.75
 21
-1832.5
 31
0.0
  0
LINE
  5
238
330
74
100
AcDbEntity
  8
0
 62
     0
100
AcDbLine
 10
-102.5
 20
-1832.5
 30
0.0
 11
-102.5
 21
-1832.5
 31
0.0
  0
LINE
  5
239
330
74
100
AcDbEntity
  8
0
 62
     0
100
AcDbLine
 10
-101.25
 20
-1832.5
 30
0.0
 11
-101.25
 21
-1832.5
 31
0.0
  0
LINE
  5
23A
330
74
100
AcDbEntity
  8
0
 62
     0
100
AcDbLine
 10
-105.625
 20
-1833.75
 30
0.0
 11
-105.625
 21
-1833.75
 31
0.0
  0
LINE
  5
23B
330
74
100
AcDbEntity
  8
0
 62
     0
100
AcDbLine
 10
-104.375
 20
-1833.75
 30
0.0
 11
-104.375
 21
-1833.75
 31
0.0
  0
LINE
  5
23C
330
74
100
AcDbEntity
  8
0
 62
     0
100
AcDbLine
 10
-103.125
 20
-1833.75
 30
0.0
 11
-103.125
 21
-1833.75
 31
0.0
  0
LINE
  5
23D
330
74
100
AcDbEntity
  8
0
 62
     0
100
AcDbLine
 10
-101.875
 20
-1833.75
 30
0.0
 11
-101.875
 21
-1833.75
 31
0.0
  0
LINE
  5
23E
330
74
100
AcDbEntity
  8
0
 62
     0
100
AcDbLine
 10
-137.5
 20
-1835.0
 30
0.0
 11
-137.5
 21
-1835.0
 31
0.0
  0
LINE
  5
23F
330
74
100
AcDbEntity
  8
0
 62
     0
100
AcDbLine
 10
-136.25
 20
-1835.0
 30
0.0
 11
-136.25
 21
-1835.0
 31
0.0
  0
LINE
  5
240
330
74
100
AcDbEntity
  8
0
 62
     0
100
AcDbLine
 10
-138.1249999999999
 20
-1836.25
 30
0.0
 11
-138.1249999999999
 21
-1836.25
 31
0.0
  0
LINE
  5
241
330
74
100
AcDbEntity
  8
0
 62
     0
100
AcDbLine
 10
-136.8749999999999
 20
-1836.25
 30
0.0
 11
-136.8749999999999
 21
-1836.25
 31
0.0
  0
LINE
  5
242
330
74
100
AcDbEntity
  8
0
 62
     0
100
AcDbLine
 10
-135.6249999999999
 20
-1836.25
 30
0.0
 11
-135.6249999999999
 21
-1836.25
 31
0.0
  0
LINE
  5
243
330
74
100
AcDbEntity
  8
0
 62
     0
100
AcDbLine
 10
-138.75
 20
-1837.5
 30
0.0
 11
-138.75
 21
-1837.5
 31
0.0
  0
LINE
  5
244
330
74
100
AcDbEntity
  8
0
 62
     0
100
AcDbLine
 10
-137.5
 20
-1837.5
 30
0.0
 11
-137.5
 21
-1837.5
 31
0.0
  0
LINE
  5
245
330
74
100
AcDbEntity
  8
0
 62
     0
100
AcDbLine
 10
-136.25
 20
-1837.5
 30
0.0
 11
-136.25
 21
-1837.5
 31
0.0
  0
LINE
  5
246
330
74
100
AcDbEntity
  8
0
 62
     0
100
AcDbLine
 10
-135.0
 20
-1837.5
 30
0.0
 11
-135.0
 21
-1837.5
 31
0.0
  0
LINE
  5
247
330
74
100
AcDbEntity
  8
0
 62
     0
100
AcDbLine
 10
-138.125
 20
-1838.75
 30
0.0
 11
-138.125
 21
-1838.75
 31
0.0
  0
LINE
  5
248
330
74
100
AcDbEntity
  8
0
 62
     0
100
AcDbLine
 10
-136.875
 20
-1838.75
 30
0.0
 11
-136.875
 21
-1838.75
 31
0.0
  0
LINE
  5
249
330
74
100
AcDbEntity
  8
0
 62
     0
100
AcDbLine
 10
-137.5
 20
-1840.0
 30
0.0
 11
-137.5
 21
-1840.0
 31
0.0
  0
LINE
  5
24A
330
74
100
AcDbEntity
  8
0
 62
     0
100
AcDbLine
 10
-140.625
 20
-1846.25
 30
0.0
 11
-140.625
 21
-1846.25
 31
0.0
  0
LINE
  5
24B
330
74
100
AcDbEntity
  8
0
 62
     0
100
AcDbLine
 10
-139.375
 20
-1846.25
 30
0.0
 11
-139.375
 21
-1846.25
 31
0.0
  0
LINE
  5
24C
330
74
100
AcDbEntity
  8
0
 62
     0
100
AcDbLine
 10
-138.125
 20
-1846.25
 30
0.0
 11
-138.125
 21
-1846.25
 31
0.0
  0
LINE
  5
24D
330
74
100
AcDbEntity
  8
0
 62
     0
100
AcDbLine
 10
-136.875
 20
-1846.25
 30
0.0
 11
-136.875
 21
-1846.25
 31
0.0
  0
LINE
  5
24E
330
74
100
AcDbEntity
  8
0
 62
     0
100
AcDbLine
 10
-135.625
 20
-1846.25
 30
0.0
 11
-135.625
 21
-1846.25
 31
0.0
  0
LINE
  5
24F
330
74
100
AcDbEntity
  8
0
 62
     0
100
AcDbLine
 10
-140.0
 20
-1847.5
 30
0.0
 11
-140.0
 21
-1847.5
 31
0.0
  0
LINE
  5
250
330
74
100
AcDbEntity
  8
0
 62
     0
100
AcDbLine
 10
-138.75
 20
-1847.5
 30
0.0
 11
-138.75
 21
-1847.5
 31
0.0
  0
LINE
  5
251
330
74
100
AcDbEntity
  8
0
 62
     0
100
AcDbLine
 10
-137.5
 20
-1847.5
 30
0.0
 11
-137.5
 21
-1847.5
 31
0.0
  0
LINE
  5
252
330
74
100
AcDbEntity
  8
0
 62
     0
100
AcDbLine
 10
-136.25
 20
-1847.5
 30
0.0
 11
-136.25
 21
-1847.5
 31
0.0
  0
LINE
  5
253
330
74
100
AcDbEntity
  8
0
 62
     0
100
AcDbLine
 10
-135.0
 20
-1847.5
 30
0.0
 11
-135.0
 21
-1847.5
 31
0.0
  0
LINE
  5
254
330
74
100
AcDbEntity
  8
0
 62
     0
100
AcDbLine
 10
-139.375
 20
-1848.75
 30
0.0
 11
-139.375
 21
-1848.75
 31
0.0
  0
LINE
  5
255
330
74
100
AcDbEntity
  8
0
 62
     0
100
AcDbLine
 10
-138.125
 20
-1848.75
 30
0.0
 11
-138.125
 21
-1848.75
 31
0.0
  0
LINE
  5
256
330
74
100
AcDbEntity
  8
0
 62
     0
100
AcDbLine
 10
-136.875
 20
-1848.75
 30
0.0
 11
-136.875
 21
-1848.75
 31
0.0
  0
LINE
  5
257
330
74
100
AcDbEntity
  8
0
 62
     0
100
AcDbLine
 10
-135.625
 20
-1848.75
 30
0.0
 11
-135.625
 21
-1848.75
 31
0.0
  0
LINE
  5
258
330
74
100
AcDbEntity
  8
0
 62
     0
100
AcDbLine
 10
-134.375
 20
-1848.75
 30
0.0
 11
-134.375
 21
-1848.75
 31
0.0
  0
LINE
  5
259
330
74
100
AcDbEntity
  8
0
 62
     0
100
AcDbLine
 10
-128.125
 20
-1848.75
 30
0.0
 11
-128.125
 21
-1848.75
 31
0.0
  0
LINE
  5
25A
330
74
100
AcDbEntity
  8
0
 62
     0
100
AcDbLine
 10
-126.875
 20
-1848.75
 30
0.0
 11
-126.875
 21
-1848.75
 31
0.0
  0
LINE
  5
25B
330
74
100
AcDbEntity
  8
0
 62
     0
100
AcDbLine
 10
-136.2499999999999
 20
-1850.0
 30
0.0
 11
-136.2499999999999
 21
-1850.0
 31
0.0
  0
LINE
  5
25C
330
74
100
AcDbEntity
  8
0
 62
     0
100
AcDbLine
 10
-134.9999999999999
 20
-1850.0
 30
0.0
 11
-134.9999999999999
 21
-1850.0
 31
0.0
  0
LINE
  5
25D
330
74
100
AcDbEntity
  8
0
 62
     0
100
AcDbLine
 10
-133.7499999999999
 20
-1850.0
 30
0.0
 11
-133.7499999999999
 21
-1850.0
 31
0.0
  0
LINE
  5
25E
330
74
100
AcDbEntity
  8
0
 62
     0
100
AcDbLine
 10
-130.0
 20
-1850.0
 30
0.0
 11
-130.0
 21
-1850.0
 31
0.0
  0
LINE
  5
25F
330
74
100
AcDbEntity
  8
0
 62
     0
100
AcDbLine
 10
-128.75
 20
-1850.0
 30
0.0
 11
-128.75
 21
-1850.0
 31
0.0
  0
LINE
  5
260
330
74
100
AcDbEntity
  8
0
 62
     0
100
AcDbLine
 10
-127.5
 20
-1850.0
 30
0.0
 11
-127.5
 21
-1850.0
 31
0.0
  0
LINE
  5
261
330
74
100
AcDbEntity
  8
0
 62
     0
100
AcDbLine
 10
-126.25
 20
-1850.0
 30
0.0
 11
-126.25
 21
-1850.0
 31
0.0
  0
LINE
  5
262
330
74
100
AcDbEntity
  8
0
 62
     0
100
AcDbLine
 10
-126.875
 20
-1851.25
 30
0.0
 11
-126.875
 21
-1851.25
 31
0.0
  0
ENDBLK
  5
263
330
74
100
AcDbEntity
  8
0
100
AcDbBlockEnd
  0
ENDSEC
  0
SECTION
  2
ENTITIES
  0
LWPOLYLINE
  5
264
330
6F
100
AcDbEntity
  8
GRABUNGSGRENZE
100
AcDbPolyline
 90
        2
 70
     0
 43
0.0
 10
-181.0915399367866
 20
-1896.747885199397
 10
-133.2762709082829
 20
-1807.848348367539
  0
POLYLINE
  5
268
330
6F
100
AcDbEntity
  8
GRABUNGSGRENZE
100
AcDb2dPolyline
 66
     1
 10
0.0
 20
0.0
 30
0.0
 70
   130
  0
VERTEX
  5
269
330
268
100
AcDbEntity
  8
GRABUNGSGRENZE
100
AcDbVertex
100
AcDb2dVertex
 10
-160.2219513574821
 20
-1902.082965444572
 30
0.0
 42
0.0316563261328496
  0
VERTEX
  5
26A
330
268
100
AcDbEntity
  8
GRABUNGSGRENZE
100
AcDbVertex
100
AcDb2dVertex
 10
-141.1732215690637
 20
-1881.099043644202
 30
0.0
 42
0.0316563261328529
 70
     1
  0
VERTEX
  5
26B
330
268
100
AcDbEntity
  8
GRABUNGSGRENZE
100
AcDbVertex
100
AcDb2dVertex
 10
-124.926020126621
 20
-1857.878201153779
 30
0.0
 42
0.0151653202706724
  0
VERTEX
  5
26C
330
268
100
AcDbEntity
  8
GRABUNGSGRENZE
100
AcDbVertex
100
AcDb2dVertex
 10
-118.2114458441972
 20
-1846.065980316075
 30
0.0
 42
0.0151653202706746
 70
     1
  0
VERTEX
  5
26D
330
268
100
AcDbEntity
  8
GRABUNGSGRENZE
100
AcDbVertex
100
AcDb2dVertex
 10
-112.2252702465424
 20
-1833.868448982771
 30
0.0
  0
SEQEND
  5
26E
330
268
100
AcDbEntity
  8
GRABUNGSGRENZE
  0
LWPOLYLINE
  5
26F
330
6F
100
AcDbEntity
  8
GRABUNGSGRENZE
100
AcDbPolyline
 90
        2
 70
     0
 43
0.0
 10
-105.7018952149495
 20
-1823.472975859801
 10
-93.38165424336493
 20
-1805.897001236106
  0
LWPOLYLINE
  5
273
330
6F
100
AcDbEntity
  8
STEINE
100
AcDbPolyline
 90
        9
 70
     0
 43
0.0
 10
-133.2248077826688
 20
-1850.596234088616
 10
-136.0330303016071
 20
-1850.381904386045
 10
-139.8579429929663
 20
-1848.836054340673
 10
-141.8426250836158
 20
-1846.837130553832
 10
-141.3785961912311
 20
-1845.613048941088
 10
-135.8104842358496
 20
-1845.275447707016
 10
-134.4939359326332
 20
-1848.446650892983
 10
-132.6079284513087
 20
-1849.474843973865
 10
-133.2248077826688
 20
-1850.596234088616
  0
LWPOLYLINE
  5
27E
330
6F
100
AcDbEntity
  8
STEINE
100
AcDbPolyline
 90
        6
 70
     0
 43
0.0
 10
-131.0287173630268
 20
-1850.604085280106
 10
-130.8200478217633
 20
-1849.379090738118
 10
-127.0879669925737
 20
-1848.319910230358
 10
-125.1565478023318
 20
-1850.93151387404
 10
-126.2825025632967
 20
-1851.591431298286
 10
-131.0287173630268
 20
-1850.604085280106
  0
LWPOLYLINE
  5
286
330
6F
100
AcDbEntity
  8
STEINE
100
AcDbPolyline
 90
        8
 70
     0
 43
0.0
 10
-138.3968910324249
 20
-1840.158948806314
 10
-139.8172263487273
 20
-1837.447027280669
 10
-138.0683669233982
 20
-1833.980348024274
 10
-134.6518466079843
 20
-1835.473665512633
 10
-134.4554103185774
 20
-1837.670486275669
 10
-136.3476257187544
 20
-1838.378736782411
 10
-136.8643697540007
 20
-1840.062282641324
 10
-138.3968910324249
 20
-1840.158948806314
  0
LWPOLYLINE
  5
290
330
6F
100
AcDbEntity
  8
STEINE
100
AcDbPolyline
 90
       10
 70
     0
 43
0.0
 10
-117.1739466686834
 20
-1832.369653918954
 10
-118.0866672421698
 20
-1830.527780045606
 10
-115.8861947621613
 20
-1829.309906351715
 10
-111.6946496868021
 20
-1828.303440986816
 10
-108.0171098589602
 20
-1828.214443427467
 10
-107.9811926141703
 20
-1832.453591241927
 10
-109.0549799898194
 20
-1832.807260030676
 10
-111.458279263936
 20
-1833.615828419379
 10
-114.3150174512181
 20
-1832.686309947821
 10
-117.1739466686834
 20
-1832.369653918954
  0
LWPOLYLINE
  5
29C
330
6F
100
AcDbEntity
  8
STEINE
100
AcDbPolyline
 90
       10
 70
     0
 43
0.0
 10
-115.8861947621613
 20
-1829.309906351715
 10
-119.3001588756948
 20
-1827.101582680217
 10
-112.7563863964433
 20
-1825.286366340766
 10
-105.7553407012056
 20
-1824.136727586867
 10
-103.5054396236103
 20
-1823.378683310843
 10
-102.7528729230436
 20
-1827.160740495165
 10
-101.1738444206103
 20
-1828.341053671629
 10
-100.7311780725126
 20
-1833.09238087512
 10
-103.0872397792257
 20
-1834.973641124381
 10
-109.0549799898194
 20
-1832.807260030676
  0
LWPOLYLINE
  5
2A8
330
6F
100
AcDbEntity
  8
STEINE
100
AcDbPolyline
 90
        6
 70
     0
 43
0.0
 10
-136.7596176442865
 20
-1825.047335381248
 10
-137.0025611577025
 20
-1821.573535276758
 10
-135.2642917115925
 20
-1821.069024493368
 10
-133.9484737517705
 20
-1824.444515160231
 10
-134.9735628732272
 20
-1825.462300847743
 10
-136.7596176442865
 20
-1825.047335381248
  0
LWPOLYLINE
  5
2B0
330
6F
100
AcDbEntity
  8
STEINE
100
AcDbPolyline
 90
        6
 70
     0
 43
0.0
 10
-130.4310877968483
 20
-1826.295700911857
 10
-132.1527419307351
 20
-1822.152671504842
 10
-130.10931936422
 20
-1822.006759328114
 10
-122.0357643942734
 20
-1820.860954877035
 10
-121.841884306747
 20
-1823.772781823211
 10
-130.4310877968483
 20
-1826.295700911857
  0
LWPOLYLINE
  5
2B8
330
6F
100
AcDbEntity
  8
STEINE
100
AcDbPolyline
 90
        6
 70
     0
 43
0.0
 10
-132.1527419307351
 20
-1822.152671504842
 10
-134.090186453981
 20
-1821.226439578559
 10
-134.2377419033469
 20
-1819.642663844062
 10
-132.124075952504
 20
-1814.134387879637
 10
-131.4202075061297
 20
-1817.252328165196
 10
-130.10931936422
 20
-1822.006759328114
  0
LWPOLYLINE
  5
2C0
330
6F
100
AcDbEntity
  8
STEINE
100
AcDbPolyline
 90
        5
 70
     0
 43
0.0
 10
-125.8070490135279
 20
-1818.600281234372
 10
-121.766163346961
 20
-1816.878261928789
 10
-121.8205217624602
 20
-1817.797373006976
 10
-123.5618951679964
 20
-1819.170105584178
 10
-125.8070490135279
 20
-1818.600281234372
  0
LWPOLYLINE
  5
2C7
330
6F
100
AcDbEntity
  8
STEINE
100
AcDbPolyline
 90
        4
 70
     0
 43
0.0
 10
-125.7437438914472
 20
-1815.178648515198
 10
-125.4349390540699
 20
-1814.515809717374
 10
-121.457723681281
 20
-1816.317566871413
 10
-125.7437438914472
 20
-1815.178648515198
  0
LWPOLYLINE
  5
2CD
330
6F
100
AcDbEntity
  8
STEINE
100
AcDbPolyline
 90
        8
 70
     0
 43
0.0
 10
-121.8494485776178
 20
-1797.317187875362
 10
-125.3878319051296
 20
-1801.339267199523
 10
-126.113428067488
 20
-1804.298879470647
 10
-124.5889405664025
 20
-1806.449375595523
 10
-116.5569630025527
 20
-1802.647651306937
 10
-115.0036269373875
 20
-1796.728791936384
 10
-114.5846445822231
 20
-1793.819156020392
 10
-121.8494485776178
 20
-1797.317187875362
  0
LWPOLYLINE
  5
2D7
330
6F
100
AcDbEntity
  8
STEINE
100
AcDbPolyline
 90
       11
 70
     0
 43
0.0
 10
-116.2600262453348
 20
-1805.304484073689
 10
-111.1929037748341
 20
-1787.957941610613
 10
-109.3973545396474
 20
-1785.717169825448
 10
-103.1722465335979
 20
-1787.322673275929
 10
-90.08493632832882
 20
-1798.043618715885
 10
-89.17185058314524
 20
-1799.783348848784
 10
-95.11481128571391
 20
-1804.971499653218
 10
-99.41835973734621
 20
-1808.735480838528
 10
-104.1777207181758
 20
-1811.425309476492
 10
-107.5493770822182
 20
-1811.668618161605
 10
-116.2600262453348
 20
-1805.304484073689
  0
LWPOLYLINE
  5
2E4
330
6F
100
AcDbEntity
  8
STEINE
100
AcDbPolyline
 90
        6
 70
     0
 43
0.0
 10
-95.11481128571391
 20
-1804.971499653218
 10
-87.71176371923216
 20
-1805.66190891418
 10
-84.99180841624825
 20
-1801.994411308012
 10
-84.87633590885158
 20
-1798.26652995334
 10
-86.24632969832417
 20
-1795.75907849444
 10
-90.08493632832882
 20
-1798.043618715885
  0
LWPOLYLINE
  5
2EC
330
6F
100
AcDbEntity
  8
BEFUND
100
AcDbPolyline
 90
        2
 70
     0
 43
0.0
 10
-123.124080386733
 20
-1853.849913910766
 10
-126.2825025632967
 20
-1851.591431298286
  0
LWPOLYLINE
  5
2F0
330
6F
100
AcDbEntity
  8
BEFUND
100
AcDbPolyline
 90
        2
 70
     0
 43
0.0
 10
-131.0287173630268
 20
-1850.604085280106
 10
-133.2248077826688
 20
-1850.596234088616
  0
LWPOLYLINE
  5
2F4
330
6F
100
AcDbEntity
  8
BEFUND
100
AcDbPolyline
 90
        6
 70
     0
 43
0.0
 10
-141.8426250836158
 20
-1846.837130553832
 10
-143.7284499790916
 20
-1845.757865602725
 10
-144.4325010113145
 20
-1842.690997187391
 10
-144.2057554710391
 20
-1836.409887493204
 10
-142.3990684990874
 20
-1831.053731624361
 10
-142.3343026902178
 20
-1827.223523943392
  0
LWPOLYLINE
  5
2FC
330
6F
100
AcDbEntity
  8
BEFUND
100
AcDbPolyline
 90
       10
 70
     0
 43
0.0
 10
-153.7527782392323
 20
-1849.705684653888
 10
-151.9136431536142
 20
-1849.559042133765
 10
-150.5290424962531
 20
-1847.980743974727
 10
-147.4656432120422
 20
-1848.247058476764
 10
-146.1930459309544
 20
-1849.426276138137
 10
-144.9643996719951
 20
-1848.613508274915
 10
-145.05522308983
 20
-1845.446687149316
 10
-145.5580906005823
 20
-1843.248770871188
 10
-147.8034270319625
 20
-1842.730018391607
 10
-150.3068616021929
 20
-1842.976431036146
  0
LWPOLYLINE
  5
308
330
6F
100
AcDbEntity
  8
BEFUND
100
AcDbPolyline
 90
        5
 70
     0
 43
0.0
 10
-105.7553407012056
 20
-1824.136727586867
 10
-123.6461454952815
 20
-1814.164697130506
 10
-129.6726261817409
 20
-1814.143152000371
 10
-132.124075952504
 20
-1814.134387879637
 10
-135.5991541579351
 20
-1814.734834484623
  0
LWPOLYLINE
  5
30F
330
6F
100
AcDbEntity
  8
STEINE
100
AcDbPolyline
 90
       12
 70
     0
 43
0.0
 10
-125.3878319051296
 20
-1801.339267199523
 10
-132.8164414904162
 20
-1807.798919769952
 10
-145.4076398613314
 20
-1801.165549806421
 10
-147.2133617366547
 20
-1791.966040075509
 10
-140.2006305471062
 20
-1787.54780162726
 10
-136.2469165814022
 20
-1781.637523791592
 10
-128.8867245219574
 20
-1780.029516306615
 10
-125.4760469536988
 20
-1783.15713364215
 10
-117.7213390428028
 20
-1785.483120851228
 10
-117.8816755015711
 20
-1787.474376032428
 10
-120.2483271875033
 20
-1792.317804754694
 10
-121.8494485776178
 20
-1797.317187875362
  0
INSERT
  5
31D
330
6F
100
AcDbEntity
  8
STEINESCHRAFF
100
AcDbBlockReference
  2
*X1
 10
0.0
 20
0.0
 30
0.0
1001
ACAD
1000
HATCH
1002
{
1070
    16
1000
DOTS,I
1040
20.0
1040
0.0
1002
}
  0
ENDSEC
  0
SECTION
  2
OBJECTS
  0
DICTIONARY
  5
C
330
0
100
AcDbDictionary
281
     1
  3
ACAD_CIP_PREVIOUS_PRODUCT_INFO
350
320
  3
ACAD_COLOR
350
62
  3
ACAD_DETAILVIEWSTYLE
350
69
  3
ACAD_GROUP
350
D
  3
ACAD_LAYOUT
350
61
  3
ACAD_MATERIAL
350
10
  3
ACAD_MLEADERSTYLE
350
65
  3
ACAD_MLINESTYLE
350
5E
  3
ACAD_PLOTSETTINGS
350
60
  3
ACAD_PLOTSTYLENAME
350
E
  3
ACAD_SCALELIST
350
42
  3
ACAD_SECTIONVIEWSTYLE
350
67
  3
ACAD_TABLESTYLE
350
63
  3
ACAD_VISUALSTYLE
350
29
  3
ACDB_RECOMPOSE_DATA
350
337
  3
AcDbVariableDictionary
350
32A
  0
DICTIONARY
  5
324
330
2
100
AcDbDictionary
280
     1
281
     1
  3
ACAD_LAYERSTATES
360
325
  0
XRECORD
  5
320
102
{ACAD_REACTORS
330
C
102
}
330
C
100
AcDbXrecord
280
     1
300
ACD
300
2014
300
DSADV_F_S
  0
DICTIONARY
  5
62
102
{ACAD_REACTORS
330
C
102
}
330
C
100
AcDbDictionary
281
     1
  0
DICTIONARY
  5
69
102
{ACAD_REACTORS
330
C
102
}
330
C
100
AcDbDictionary
281
     1
  3
Imperial24
350
6A
  0
DICTIONARY
  5
D
102
{ACAD_REACTORS
330
C
102
}
330
C
100
AcDbDictionary
281
     1
  0
DICTIONARY
  5
61
102
{ACAD_REACTORS
330
C
102
}
330
C
100
AcDbDictionary
281
     1
  3
Layout1
350
6E
  3
Model
350
72
  0
DICTIONARY
  5
10
102
{ACAD_REACTORS
330
C
102
}
330
C
100
AcDbDictionary
281
     1
  3
ByBlock
350
19
  3
ByLayer
350
11
  3
Global
350
21
  0
DICTIONARY
  5
65
102
{ACAD_REACTORS
330
C
102
}
330
C
100
AcDbDictionary
281
     1
  3
Standard
350
66
  0
DICTIONARY
  5
5E
102
{ACAD_REACTORS
330
C
102
}
330
C
100
AcDbDictionary
281
     1
  3
Standard
350
5F
  0
DICTIONARY
  5
60
102
{ACAD_REACTORS
330
C
102
}
330
C
100
AcDbDictionary
281
     1
  0
ACDBDICTIONARYWDFLT
  5
E
102
{ACAD_REACTORS
330
C
102
}
330
C
100
AcDbDictionary
281
     1
  3
Normal
350
F
100
AcDbDictionaryWithDefault
340
F
  0
DICTIONARY
  5
42
102
{ACAD_REACTORS
330
C
102
}
330
C
100
AcDbDictionary
281
     1
  3
A0
350
43
  3
A1
350
44
  3
A2
350
45
  3
A3
350
46
  3
A4
350
47
  3
A5
350
48
  3
A6
350
49
  3
A7
350
4A
  3
A8
350
4B
  3
A9
350
4C
  3
B0
350
4D
  3
B1
350
4E
  3
B2
350
4F
  3
B3
350
50
  3
B4
350
51
  3
B5
350
52
  3
B6
350
53
  0
DICTIONARY
  5
67
102
{ACAD_REACTORS
330
C
102
}
330
C
100
AcDbDictionary
281
     1
  3
Imperial24
350
68
  0
DICTIONARY
  5
63
102
{ACAD_REACTORS
330
C
102
}
330
C
100
AcDbDictionary
281
     1
  3
Standard
350
64
  0
DICTIONARY
  5
29
102
{ACAD_REACTORS
330
C
102
}
330
C
100
AcDbDictionary
281
     1
  3
2dWireframe
350
2F
  3
Basic
350
2E
  3
Brighten
350
35
  3
ColorChange
350
39
  3
Conceptual
350
32
  3
Dim
350
34
  3
EdgeColorOff
350
41
  3
Facepattern
350
38
  3
Flat
350
2A
  3
FlatWithEdges
350
2B
  3
Gouraud
350
2C
  3
GouraudWithEdges
350
2D
  3
Hidden
350
31
  3
JitterOff
350
3F
  3
Linepattern
350
37
  3
OverhangOff
350
40
  3
Realistic
350
33
  3
Shaded
350
3E
  3
Shaded with edges
350
3D
  3
Shades of Gray
350
3A
  3
Sketchy
350
3B
  3
Thicken
350
36
  3
Wireframe
350
30
  3
X-Ray
350
3C
  0
XRECORD
  5
337
102
{ACAD_REACTORS
330
C
102
}
330
C
100
AcDbXrecord
280
     1
 90
        1
330
64
330
68
330
6A
  0
DICTIONARY
  5
32A
102
{ACAD_REACTORS
330
C
102
}
330
C
100
AcDbDictionary
281
     1
  3
CANNOSCALE
350
32F
  3
CMLEADERSTYLE
350
32C
  3
CTABLESTYLE
350
32B
  3
CVIEWDETAILSTYLE
350
32D
  3
CVIEWSECTIONSTYLE
350
32E
  0
DICTIONARY
  5
325
102
{ACAD_REACTORS
330
324
102
}
330
324
100
AcDbDictionary
281
     1
  0
ACDBDETAILVIEWSTYLE
  5
6A
102
{ACAD_XDICTIONARY
360
335
102
}
102
{ACAD_REACTORS
330
69
102
}
330
69
100
AcDbModelDocViewStyle
 70
     0
  3
Imperial24
290
     0
100
AcDbDetailViewStyle
 70
     0
 71
     0
 90
        3
 71
     1
340
55
 62
   256
 40
0.24
340
0
 62
   256
 40
0.24
300

 40
0.36
280
     3
 71
     2
340
5C
 90
       25
 62
   256
 71
     3
340
55
 62
   256
 40
0.24
 90
        1
 40
0.75
 90
        1
300
%<\AcVar ViewType \f "%tc1">% %<\AcVar ViewDetailId>%\PVARIA %<\AcVar ViewScale \f "%sn">%
 71
     4
340
5C
 90
       25
 62
   256
340
5C
 90
       25
 62
   256
280
     0
  0
LAYOUT
  5
6E
102
{ACAD_REACTORS
330
61
102
}
330
61
100
AcDbPlotSettings
  1

  2
Kyocera FS-1350DN KX
  4

  6

 40
0.0
 41
0.0
 42
0.0
 43
0.0
 44
0.0
 45
0.0
 46
0.0
 47
0.0
 48
0.0
 49
0.0
140
0.0
141
0.0
142
1.0
143
1.0
 70
   688
 72
     0
 73
     0
 74
     5
  7

 75
    16
147
1.0
 76
     0
 77
     2
 78
   300
148
0.0
149
0.0
100
AcDbLayout
  1
Layout1
 70
     0
 71
     1
 10
0.0
 20
0.0
 11
12.0
 21
9.0
 12
0.0
 22
0.0
 32
0.0
 14
1.000000000000000E+20
 24
1.000000000000000E+20
 34
1.000000000000000E+20
 15
-1.000000000000000E+20
 25
-1.000000000000000E+20
 35
-1.000000000000000E+20
146
0.0
 13
0.0
 23
0.0
 33
0.0
 16
1.0
 26
0.0
 36
0.0
 17
0.0
 27
1.0
 37
0.0
 76
     0
330
6B
  0
LAYOUT
  5
72
102
{ACAD_REACTORS
330
61
102
}
330
61
100
AcDbPlotSettings
  1

  2
Kyocera FS-1350DN KX
  4

  6

 40
0.0
 41
0.0
 42
0.0
 43
0.0
 44
0.0
 45
0.0
 46
0.0
 47
0.0
 48
0.0
 49
0.0
140
0.0
141
0.0
142
1.0
143
1.0
 70
  1712
 72
     0
 73
     0
 74
     0
  7

 75
     0
147
1.0
 76
     0
 77
     2
 78
   300
148
0.0
149
0.0
100
AcDbLayout
  1
Model
 70
     1
 71
     0
 10
0.0
 20
0.0
 11
12.0
 21
9.0
 12
0.0
 22
0.0
 32
0.0
 14
0.0
 24
0.0
 34
0.0
 15
0.0
 25
0.0
 35
0.0
146
0.0
 13
0.0
 23
0.0
 33
0.0
 16
1.0
 26
0.0
 36
0.0
 17
0.0
 27
1.0
 37
0.0
 76
     0
330
6F
331
8E
  0
MATERIAL
  5
19
102
{ACAD_XDICTIONARY
360
1A
102
}
102
{ACAD_REACTORS
330
10
102
}
330
10
100
AcDbMaterial
  1
ByBlock
 72
     0
 43
0.0208333333333333
 43
0.0
 43
0.0
 43
0.0
 43
0.0
 43
0.0208333333333333
 43
0.0
 43
0.0
 43
0.0
 43
0.0
 43
1.0
 43
0.0
 43
0.0
 43
0.0
 43
0.0
 43
1.0
 77
     0
 47
0.0208333333333333
 47
0.0
 47
0.0
 47
0.0
 47
0.0
 47
0.0208333333333333
 47
0.0
 47
0.0
 47
0.0
 47
0.0
 47
1.0
 47
0.0
 47
0.0
 47
0.0
 47
0.0
 47
1.0
171
     0
 49
0.0208333333333333
 49
0.0
 49
0.0
 49
0.0
 49
0.0
 49
0.0208333333333333
 49
0.0
 49
0.0
 49
0.0
 49
0.0
 49
1.0
 49
0.0
 49
0.0
 49
0.0
 49
0.0
 49
1.0
175
     0
142
0.0208333333333333
142
0.0
142
0.0
142
0.0
142
0.0
142
0.0208333333333333
142
0.0
142
0.0
142
0.0
142
0.0
142
1.0
142
0.0
142
0.0
142
0.0
142
0.0
142
1.0
179
     0
144
0.0208333333333333
144
0.0
144
0.0
144
0.0
144
0.0
144
0.0208333333333333
144
0.0
144
0.0
144
0.0
144
0.0
144
1.0
144
0.0
144
0.0
144
0.0
144
0.0
144
1.0
147
0.0208333333333333
147
0.0
147
0.0
147
0.0
147
0.0
147
0.0208333333333333
147
0.0
147
0.0
147
0.0
147
0.0
147
1.0
147
0.0
147
0.0
147
0.0
147
0.0
147
1.0
  0
MATERIAL
  5
11
102
{ACAD_XDICTIONARY
360
12
102
}
102
{ACAD_REACTORS
330
10
102
}
330
10
100
AcDbMaterial
  1
ByLayer
 72
     0
 43
0.0208333333333333
 43
0.0
 43
0.0
 43
0.0
 43
0.0
 43
0.0208333333333333
 43
0.0
 43
0.0
 43
0.0
 43
0.0
 43
1.0
 43
0.0
 43
0.0
 43
0.0
 43
0.0
 43
1.0
 77
     0
 47
0.0208333333333333
 47
0.0
 47
0.0
 47
0.0
 47
0.0
 47
0.0208333333333333
 47
0.0
 47
0.0
 47
0.0
 47
0.0
 47
1.0
 47
0.0
 47
0.0
 47
0.0
 47
0.0
 47
1.0
171
     0
 49
0.0208333333333333
 49
0.0
 49
0.0
 49
0.0
 49
0.0
 49
0.0208333333333333
 49
0.0
 49
0.0
 49
0.0
 49
0.0
 49
1.0
 49
0.0
 49
0.0
 49
0.0
 49
0.0
 49
1.0
175
     0
142
0.0208333333333333
142
0.0
142
0.0
142
0.0
142
0.0
142
0.0208333333333333
142
0.0
142
0.0
142
0.0
142
0.0
142
1.0
142
0.0
142
0.0
142
0.0
142
0.0
142
1.0
179
     0
144
0.0208333333333333
144
0.0
144
0.0
144
0.0
144
0.0
144
0.0208333333333333
144
0.0
144
0.0
144
0.0
144
0.0
144
1.0
144
0.0
144
0.0
144
0.0
144
0.0
144
1.0
147
0.0208333333333333
147
0.0
147
0.0
147
0.0
147
0.0
147
0.0208333333333333
147
0.0
147
0.0
147
0.0
147
0.0
147
1.0
147
0.0
147
0.0
147
0.0
147
0.0
147
1.0
  0
MATERIAL
  5
21
102
{ACAD_XDICTIONARY
360
22
102
}
102
{ACAD_REACTORS
330
10
102
}
330
10
100
AcDbMaterial
  1
Global
 72
     0
 43
0.0208333333333333
 43
0.0
 43
0.0
 43
0.0
 43
0.0
 43
0.0208333333333333
 43
0.0
 43
0.0
 43
0.0
 43
0.0
 43
1.0
 43
0.0
 43
0.0
 43
0.0
 43
0.0
 43
1.0
 77
     0
 47
0.0208333333333333
 47
0.0
 47
0.0
 47
0.0
 47
0.0
 47
0.0208333333333333
 47
0.0
 47
0.0
 47
0.0
 47
0.0
 47
1.0
 47
0.0
 47
0.0
 47
0.0
 47
0.0
 47
1.0
171
     0
 49
0.0208333333333333
 49
0.0
 49
0.0
 49
0.0
 49
0.0
 49
0.0208333333333333
 49
0.0
 49
0.0
 49
0.0
 49
0.0
 49
1.0
 49
0.0
 49
0.0
 49
0.0
 49
0.0
 49
1.0
175
     0
142
0.0208333333333333
142
0.0
142
0.0
142
0.0
142
0.0
142
0.0208333333333333
142
0.0
142
0.0
142
0.0
142
0.0
142
1.0
142
0.0
142
0.0
142
0.0
142
0.0
142
1.0
179
     0
144
0.0208333333333333
144
0.0
144
0.0
144
0.0
144
0.0
144
0.0208333333333333
144
0.0
144
0.0
144
0.0
144
0.0
144
1.0
144
0.0
144
0.0
144
0.0
144
0.0
144
1.0
147
0.0208333333333333
147
0.0
147
0.0
147
0.0
147
0.0
147
0.0208333333333333
147
0.0
147
0.0
147
0.0
147
0.0
147
1.0
147
0.0
147
0.0
147
0.0
147
0.0
147
1.0
  0
MLEADERSTYLE
  5
66
102
{ACAD_REACTORS
330
65
102
}
330
65
100
AcDbMLeaderStyle
179
     2
170
     2
171
     1
172
     0
 90
        2
 40
0.0
 41
0.0
173
     1
 91
-1056964608
340
5A
 92
       -2
290
     1
 42
0.09
291
     1
 43
0.36
  3
Standard
 44
0.18
300

342
55
174
     1
178
     6
175
     1
176
     0
 93
-1056964608
 45
0.18
292
     0
297
     0
 46
0.18
 94
-1056964608
 47
1.0
 49
1.0
140
1.0
293
     1
141
0.0
294
     1
177
     0
142
1.0
295
     1
296
     0
143
0.125
271
     0
272
     9
273
     9
298
     1
  0
MLINESTYLE
  5
5F
102
{ACAD_REACTORS
330
5E
102
}
330
5E
100
AcDbMlineStyle
  2
STANDARD
 70
     0
  3

 62
   256
 51
90.0
 52
90.0
 71
     2
 49
0.5
 62
   256
  6
BYLAYER
 49
-0.5
 62
   256
  6
BYLAYER
  0
ACDBPLACEHOLDER
  5
F
102
{ACAD_REACTORS
330
E
102
}
330
E
  0
SCALE
  5
43
102
{ACAD_REACTORS
330
42
102
}
330
42
100
AcDbScale
 70
     0
300
1:1
140
1.0
141
1.0
290
     1
  0
SCALE
  5
44
102
{ACAD_REACTORS
330
42
102
}
330
42
100
AcDbScale
 70
     0
300
1/128" = 1'-0"
140
0.0078125
141
12.0
290
     0
  0
SCALE
  5
45
102
{ACAD_REACTORS
330
42
102
}
330
42
100
AcDbScale
 70
     0
300
1/64" = 1'-0"
140
0.015625
141
12.0
290
     0
  0
SCALE
  5
46
102
{ACAD_REACTORS
330
42
102
}
330
42
100
AcDbScale
 70
     0
300
1/32" = 1'-0"
140
0.03125
141
12.0
290
     0
  0
SCALE
  5
47
102
{ACAD_REACTORS
330
42
102
}
330
42
100
AcDbScale
 70
     0
300
1/16" = 1'-0"
140
0.0625
141
12.0
290
     0
  0
SCALE
  5
48
102
{ACAD_REACTORS
330
42
102
}
330
42
100
AcDbScale
 70
     0
300
3/32" = 1'-0"
140
0.09375
141
12.0
290
     0
  0
SCALE
  5
49
102
{ACAD_REACTORS
330
42
102
}
330
42
100
AcDbScale
 70
     0
300
1/8" = 1'-0"
140
0.125
141
12.0
290
     0
  0
SCALE
  5
4A
102
{ACAD_REACTORS
330
42
102
}
330
42
100
AcDbScale
 70
     0
300
3/16" = 1'-0"
140
0.1875
141
12.0
290
     0
  0
SCALE
  5
4B
102
{ACAD_REACTORS
330
42
102
}
330
42
100
AcDbScale
 70
     0
300
1/4" = 1'-0"
140
0.25
141
12.0
290
     0
  0
SCALE
  5
4C
102
{ACAD_REACTORS
330
42
102
}
330
42
100
AcDbScale
 70
     0
300
3/8" = 1'-0"
140
0.375
141
12.0
290
     0
  0
SCALE
  5
4D
102
{ACAD_REACTORS
330
42
102
}
330
42
100
AcDbScale
 70
     0
300
1/2" = 1'-0"
140
0.5
141
12.0
290
     0
  0
SCALE
  5
4E
102
{ACAD_REACTORS
330
42
102
}
330
42
100
AcDbScale
 70
     0
300
3/4" = 1'-0"
140
0.75
141
12.0
290
     0
  0
SCALE
  5
4F
102
{ACAD_REACTORS
330
42
102
}
330
42
100
AcDbScale
 70
     0
300
1" = 1'-0"
140
1.0
141
12.0
290
     0
  0
SCALE
  5
50
102
{ACAD_REACTORS
330
42
102
}
330
42
100
AcDbScale
 70
     0
300
1-1/2" = 1'-0"
140
1.5
141
12.0
290
     0
  0
SCALE
  5
51
102
{ACAD_REACTORS
330
42
102
}
330
42
100
AcDbScale
 70
     0
300
3" = 1'-0"
140
3.0
141
12.0
290
     0
  0
SCALE
  5
52
102
{ACAD_REACTORS
330
42
102
}
330
42
100
AcDbScale
 70
     0
300
6" = 1'-0"
140
6.0
141
12.0
290
     0
  0
SCALE
  5
53
102
{ACAD_REACTORS
330
42
102
}
330
42
100
AcDbScale
 70
     0
300
1'-0" = 1'-0"
140
12.0
141
12.0
290
     0
  0
ACDBSECTIONVIEWSTYLE
  5
68
102
{ACAD_XDICTIONARY
360
333
102
}
102
{ACAD_REACTORS
330
67
102
}
330
67
100
AcDbModelDocViewStyle
 70
     0
  3
Imperial24
290
     0
100
AcDbSectionViewStyle
 70
     0
 71
     0
 90
       78
 71
     1
340
55
 62
   256
 40
0.24
340
0
340
0
 62
   256
 40
0.24
300
I, O, Q, S, X, Z
 40
0.48
 90
        3
 40
0.18
 90
        1
 71
     2
340
5C
 90
       25
 62
   256
340
5C
 90
       50
 62
   256
 40
0.24
 40
0.0
 40
0.24
 71
     3
340
55
 62
   256
 40
0.24
 90
        1
 40
0.75
 90
        1
300
%<\AcVar ViewType \f "%tc1">% %<\AcVar ViewSectionStartId>%-%<\AcVar ViewSectionEndId>%\PVARIA %<\AcVar ViewScale \f "%sn">%
 71
     4
 62
   256
 62
   257
300
ANSI31
 40
1.0
 90
        0
290
     0
290
     0
 90
        6
 40
0.0
 40
1.570796326794896
 40
0.2617993877991494
 40
1.308996938995747
 40
-0.2617993877991494
 40
1.832595714594046
  0
TABLESTYLE
  5
64
102
{ACAD_XDICTIONARY
360
331
102
}
102
{ACAD_REACTORS
330
63
102
}
330
63
100
AcDbTableStyle
280
     0
  3
Standard
 70
     0
 71
     0
 40
0.06
 41
0.06
280
     0
281
     0
  7
STANDARD
140
0.18
170
     2
 62
     0
 63
     7
283
     0
 90
      512
 91
        0
  1

274
    -2
284
     1
 64
     0
275
    -2
285
     1
 65
     0
276
    -2
286
     1
 66
     0
277
    -2
287
     1
 67
     0
278
    -2
288
     1
 68
     0
279
    -2
289
     1
 69
     0
  7
STANDARD
140
0.25
170
     5
 62
     0
 63
     7
283
     0
 90
      512
 91
        0
  1

274
    -2
284
     1
 64
     0
275
    -2
285
     1
 65
     0
276
    -2
286
     1
 66
     0
277
    -2
287
     1
 67
     0
278
    -2
288
     1
 68
     0
279
    -2
289
     1
 69
     0
  7
STANDARD
140
0.18
170
     5
 62
     0
 63
     7
283
     0
 90
      512
 91
        0
  1

274
    -2
284
     1
 64
     0
275
    -2
285
     1
 65
     0
276
    -2
286
     1
 66
     0
277
    -2
287
     1
 67
     0
278
    -2
288
     1
 68
     0
279
    -2
289
     1
 69
     0
  0
VISUALSTYLE
  5
2F
102
{ACAD_REACTORS
330
29
102
}
330
29
100
AcDbVisualStyle
  2
2dWireframe
 70
     4
177
     3
291
     0
 70
    58
 90
        0
176
     1
 90
        2
176
     1
 90
        0
176
     1
 90
        0
176
     1
 40
0.6
176
     1
 40
30.0
176
     1
 62
     7
420
 16777215
176
     1
 90
        1
176
     1
 90
        4
176
     1
 62
     7
176
     1
 62
   257
176
     1
 90
        1
176
     1
 90
        1
176
     1
 40
1.0
176
     1
 90
        0
176
     1
 62
   257
176
     1
 40
1.0
176
     1
 90
        1
176
     1
 90
        6
176
     1
 90
        2
176
     1
 62
     7
176
     1
 90
        5
176
     1
 90
        0
176
     1
 90
        0
176
     1
290
     0
176
     1
 90
        1
176
     1
 40
0.0
176
     1
 90
        0
176
     1
290
     1
176
     1
290
     1
176
     1
290
     0
176
     1
290
     0
176
     1
290
     0
176
     1
290
     0
176
     1
290
     0
176
     1
290
     0
176
     1
290
     0
176
     1
 90
       50
176
     1
 40
0.0
176
     1
 40
1.0
176
     1
 90
        0
176
     1
 62
    18
420
        0
176
     1
 90
       50
176
     1
 90
        3
176
     1
 62
     5
420
      255
176
     1
290
     0
176
     1
 90
       50
176
     1
 90
       50
176
     1
 90
       50
176
     1
290
     0
176
     1
 90
       50
176
     1
 62
   256
176
     0
 40
1.0
176
     0
 90
        2
176
     1
  1
strokes_ogs.tif
176
     1
290
     0
176
     1
 40
1.0
176
     1
 40
1.0
176
     1
  0
VISUALSTYLE
  5
2E
102
{ACAD_REACTORS
330
29
102
}
330
29
100
AcDbVisualStyle
  2
Basic
 70
     7
177
     3
291
     1
 70
    58
 90
        1
176
     1
 90
        0
176
     1
 90
        1
176
     1
 90
        0
176
     1
 40
0.6
176
     1
 40
30.0
176
     1
 62
     7
420
 16777215
176
     1
 90
        0
176
     1
 90
        4
176
     1
 62
     7
176
     1
 62
   257
176
     1
 90
        1
176
     1
 90
        1
176
     1
 40
1.0
176
     1
 90
        8
176
     1
 62
     7
176
     1
 40
1.0
176
     1
 90
        1
176
     1
 90
        6
176
     1
 90
        2
176
     1
 62
     7
176
     1
 90
        5
176
     1
 90
        0
176
     1
 90
        0
176
     1
290
     0
176
     1
 90
        1
176
     1
 40
0.0
176
     1
 90
        0
176
     1
290
     0
176
     1
290
     1
176
     1
290
     1
176
     1
290
     0
176
     1
290
     0
176
     1
290
     0
176
     1
290
     0
176
     1
290
     0
176
     1
290
     0
176
     1
 90
       50
176
     1
 40
0.0
176
     1
 40
1.0
176
     1
 90
        0
176
     1
 62
    18
420
        0
176
     1
 90
       50
176
     1
 90
        3
176
     1
 62
     5
420
      255
176
     1
290
     0
176
     1
 90
       50
176
     1
 90
       50
176
     1
 90
       50
176
     1
290
     0
176
     1
 90
       50
176
     1
 62
   256
176
     0
 40
1.0
176
     0
 90
        2
176
     1
  1
strokes_ogs.tif
176
     1
290
     0
176
     1
 40
1.0
176
     1
 40
1.0
176
     1
  0
VISUALSTYLE
  5
35
102
{ACAD_REACTORS
330
29
102
}
330
29
100
AcDbVisualStyle
  2
Brighten
 70
    12
177
     3
291
     1
 70
    58
 90
        2
176
     1
 90
        2
176
     1
 90
        0
176
     1
 90
        0
176
     1
 40
0.6
176
     1
 40
30.0
176
     1
 62
     7
420
 16777215
176
     1
 90
        1
176
     1
 90
        4
176
     1
 62
     7
176
     1
 62
   257
176
     1
 90
        1
176
     1
 90
        1
176
     1
 40
1.0
176
     1
 90
        8
176
     1
 62
     7
176
     1
 40
1.0
176
     1
 90
        1
176
     1
 90
        6
176
     1
 90
        2
176
     1
 62
     7
176
     1
 90
        5
176
     1
 90
        0
176
     1
 90
        0
176
     1
290
     0
176
     1
 90
        1
176
     1
 40
50.0
176
     1
 90
        0
176
     1
290
     0
176
     1
290
     1
176
     1
290
     1
176
     1
290
     0
176
     1
290
     0
176
     1
290
     0
176
     1
290
     0
176
     1
290
     0
176
     1
290
     0
176
     1
 90
       50
176
     1
 40
0.0
176
     1
 40
1.0
176
     1
 90
        0
176
     1
 62
    18
420
        0
176
     1
 90
       50
176
     1
 90
        3
176
     1
 62
     5
420
      255
176
     1
290
     0
176
     1
 90
       50
176
     1
 90
       50
176
     1
 90
       50
176
     1
290
     0
176
     1
 90
       50
176
     1
 62
   256
176
     0
 40
1.0
176
     0
 90
        2
176
     1
  1
strokes_ogs.tif
176
     1
290
     0
176
     1
 40
1.0
176
     1
 40
1.0
176
     1
  0
VISUALSTYLE
  5
39
102
{ACAD_REACTORS
330
29
102
}
330
29
100
AcDbVisualStyle
  2
ColorChange
 70
    16
177
     3
291
     1
 70
    58
 90
        2
176
     1
 90
        2
176
     1
 90
        3
176
     1
 90
        0
176
     1
 40
0.6
176
     1
 40
30.0
176
     1
 62
     8
420
  8421504
176
     1
 90
        1
176
     1
 90
        4
176
     1
 62
     7
176
     1
 62
   257
176
     1
 90
        1
176
     1
 90
        1
176
     1
 40
1.0
176
     1
 90
        8
176
     1
 62
     8
420
  8421504
176
     1
 40
1.0
176
     1
 90
        1
176
     1
 90
        6
176
     1
 90
        2
176
     1
 62
     7
176
     1
 90
        5
176
     1
 90
        0
176
     1
 90
        0
176
     1
290
     0
176
     1
 90
        1
176
     1
 40
0.0
176
     1
 90
        0
176
     1
290
     0
176
     1
290
     1
176
     1
290
     1
176
     1
290
     0
176
     1
290
     0
176
     1
290
     0
176
     1
290
     0
176
     1
290
     0
176
     1
290
     0
176
     1
 90
       50
176
     1
 40
0.0
176
     1
 40
1.0
176
     1
 90
        0
176
     1
 62
    18
420
        0
176
     1
 90
       50
176
     1
 90
        3
176
     1
 62
     5
420
      255
176
     1
290
     0
176
     1
 90
       50
176
     1
 90
       50
176
     1
 90
       50
176
     1
290
     0
176
     1
 90
       50
176
     1
 62
   256
176
     0
 40
1.0
176
     0
 90
        2
176
     1
  1
strokes_ogs.tif
176
     1
290
     0
176
     1
 40
1.0
176
     1
 40
1.0
176
     1
  0
VISUALSTYLE
  5
32
102
{ACAD_REACTORS
330
29
102
}
330
29
100
AcDbVisualStyle
  2
Conceptual
 70
     9
177
     3
291
     0
 70
    58
 90
        3
176
     1
 90
        2
176
     1
 90
        0
176
     1
 90
        0
176
     1
 40
0.6
176
     1
 40
30.0
176
     1
 62
     7
420
 16777215
176
     1
 90
        2
176
     1
 90
        2
176
     1
 62
     7
176
     1
 62
   257
176
     1
 90
        1
176
     1
 90
        1
176
     1
 40
179.0
176
     1
 90
        8
176
     1
 62
     7
176
     1
 40
1.0
176
     1
 90
        1
176
     1
 90
        6
176
     1
 90
        2
176
     1
 62
     7
176
     1
 90
        3
176
     1
 90
        0
176
     1
 90
        0
176
     1
290
     0
176
     1
 90
        1
176
     1
 40
0.0
176
     1
 90
        0
176
     1
290
     0
176
     1
290
     1
176
     1
290
     1
176
     1
290
     0
176
     1
290
     0
176
     1
290
     0
176
     1
290
     0
176
     1
290
     0
176
     1
290
     0
176
     1
 90
       50
176
     1
 40
0.0
176
     1
 40
1.0
176
     1
 90
        0
176
     1
 62
    18
420
        0
176
     1
 90
       50
176
     1
 90
        3
176
     1
 62
     5
420
      255
176
     1
290
     0
176
     1
 90
       50
176
     1
 90
       50
176
     1
 90
       50
176
     1
290
     0
176
     1
 90
       50
176
     1
 62
   256
176
     0
 40
1.0
176
     0
 90
        2
176
     1
  1
strokes_ogs.tif
176
     1
290
     0
176
     1
 40
1.0
176
     1
 40
1.0
176
     1
  0
VISUALSTYLE
  5
34
102
{ACAD_REACTORS
330
29
102
}
330
29
100
AcDbVisualStyle
  2
Dim
 70
    11
177
     3
291
     1
 70
    58
 90
        2
176
     1
 90
        2
176
     1
 90
        0
176
     1
 90
        0
176
     1
 40
0.6
176
     1
 40
30.0
176
     1
 62
     7
420
 16777215
176
     1
 90
        1
176
     1
 90
        4
176
     1
 62
     7
176
     1
 62
   257
176
     1
 90
        1
176
     1
 90
        1
176
     1
 40
1.0
176
     1
 90
        8
176
     1
 62
     7
176
     1
 40
1.0
176
     1
 90
        1
176
     1
 90
        6
176
     1
 90
        2
176
     1
 62
     7
176
     1
 90
        5
176
     1
 90
        0
176
     1
 90
        0
176
     1
290
     0
176
     1
 90
        1
176
     1
 40
-50.0
176
     1
 90
        0
176
     1
290
     0
176
     1
290
     1
176
     1
290
     1
176
     1
290
     0
176
     1
290
     0
176
     1
290
     0
176
     1
290
     0
176
     1
290
     0
176
     1
290
     0
176
     1
 90
       50
176
     1
 40
0.0
176
     1
 40
1.0
176
     1
 90
        0
176
     1
 62
    18
420
        0
176
     1
 90
       50
176
     1
 90
        3
176
     1
 62
     5
420
      255
176
     1
290
     0
176
     1
 90
       50
176
     1
 90
       50
176
     1
 90
       50
176
     1
290
     0
176
     1
 90
       50
176
     1
 62
   256
176
     0
 40
1.0
176
     0
 90
        2
176
     1
  1
strokes_ogs.tif
176
     1
290
     0
176
     1
 40
1.0
176
     1
 40
1.0
176
     1
  0
VISUALSTYLE
  5
41
102
{ACAD_REACTORS
330
29
102
}
330
29
100
AcDbVisualStyle
  2
EdgeColorOff
 70
    22
177
     3
291
     1
 70
    58
 90
        2
176
     0
 90
        2
176
     0
 90
        0
176
     0
 90
        0
176
     0
 40
0.6
176
     0
 40
30.0
176
     0
 62
     7
420
 16777215
176
     0
 90
        1
176
     0
 90
        4
176
     0
 62
     7
176
     0
 62
   257
176
     0
 90
        1
176
     0
 90
        1
176
     0
 40
1.0
176
     0
 90
        8
176
     2
 62
     7
176
     0
 40
1.0
176
     0
 90
        1
176
     0
 90
        6
176
     0
 90
        2
176
     0
 62
     7
176
     0
 90
        5
176
     0
 90
        0
176
     0
 90
        0
176
     0
290
     0
176
     0
 90
        1
176
     0
 40
0.0
176
     0
 90
        0
176
     0
290
     0
176
     0
290
     1
176
     0
290
     1
176
     0
290
     0
176
     0
290
     0
176
     0
290
     0
176
     0
290
     0
176
     0
290
     0
176
     0
290
     0
176
     0
 90
       50
176
     0
 40
0.0
176
     0
 40
1.0
176
     0
 90
        0
176
     0
 62
    18
420
        0
176
     0
 90
       50
176
     0
 90
        3
176
     0
 62
     5
420
      255
176
     0
290
     0
176
     0
 90
       50
176
     0
 90
       50
176
     0
 90
       50
176
     0
290
     0
176
     0
 90
       50
176
     0
 62
   256
176
     0
 40
1.0
176
     0
 90
        2
176
     0
  1
strokes_ogs.tif
176
     0
290
     0
176
     0
 40
1.0
176
     0
 40
1.0
176
     0
  0
VISUALSTYLE
  5
38
102
{ACAD_REACTORS
330
29
102
}
330
29
100
AcDbVisualStyle
  2
Facepattern
 70
    15
177
     3
291
     1
 70
    58
 90
        2
176
     1
 90
        2
176
     1
 90
        0
176
     1
 90
        0
176
     1
 40
0.6
176
     1
 40
30.0
176
     1
 62
     7
420
 16777215
176
     1
 90
        1
176
     1
 90
        4
176
     1
 62
     7
176
     1
 62
   257
176
     1
 90
        1
176
     1
 90
        1
176
     1
 40
1.0
176
     1
 90
        8
176
     1
 62
     7
176
     1
 40
1.0
176
     1
 90
        1
176
     1
 90
        6
176
     1
 90
        2
176
     1
 62
     7
176
     1
 90
        5
176
     1
 90
        0
176
     1
 90
        0
176
     1
290
     0
176
     1
 90
        1
176
     1
 40
0.0
176
     1
 90
        0
176
     1
290
     0
176
     1
290
     1
176
     1
290
     1
176
     1
290
     0
176
     1
290
     0
176
     1
290
     0
176
     1
290
     0
176
     1
290
     0
176
     1
290
     0
176
     1
 90
       50
176
     1
 40
0.0
176
     1
 40
1.0
176
     1
 90
        0
176
     1
 62
    18
420
        0
176
     1
 90
       50
176
     1
 90
        3
176
     1
 62
     5
420
      255
176
     1
290
     0
176
     1
 90
       50
176
     1
 90
       50
176
     1
 90
       50
176
     1
290
     0
176
     1
 90
       50
176
     1
 62
   256
176
     0
 40
1.0
176
     0
 90
        2
176
     1
  1
strokes_ogs.tif
176
     1
290
     0
176
     1
 40
1.0
176
     1
 40
1.0
176
     1
  0
VISUALSTYLE
  5
2A
102
{ACAD_REACTORS
330
29
102
}
330
29
100
AcDbVisualStyle
  2
Flat
 70
     0
177
     3
291
     1
 70
    58
 90
        2
176
     1
 90
        1
176
     1
 90
        1
176
     1
 90
        2
176
     1
 40
0.6
176
     1
 40
30.0
176
     1
 62
     7
420
 16777215
176
     1
 90
        0
176
     1
 90
        0
176
     1
 62
     7
176
     1
 62
   257
176
     1
 90
        1
176
     1
 90
        1
176
     1
 40
1.0
176
     1
 90
        8
176
     1
 62
     7
176
     1
 40
1.0
176
     1
 90
        1
176
     1
 90
        6
176
     1
 90
        2
176
     1
 62
     7
176
     1
 90
        5
176
     1
 90
        0
176
     1
 90
        0
176
     1
290
     0
176
     1
 90
       13
176
     1
 40
0.0
176
     1
 90
        0
176
     1
290
     0
176
     1
290
     1
176
     1
290
     1
176
     1
290
     0
176
     1
290
     0
176
     1
290
     0
176
     1
290
     0
176
     1
290
     0
176
     1
290
     0
176
     1
 90
       50
176
     1
 40
0.0
176
     1
 40
1.0
176
     1
 90
        0
176
     1
 62
    18
420
        0
176
     1
 90
       50
176
     1
 90
        3
176
     1
 62
     5
420
      255
176
     1
290
     0
176
     1
 90
       50
176
     1
 90
       50
176
     1
 90
       50
176
     1
290
     0
176
     1
 90
       50
176
     1
 62
   256
176
     0
 40
1.0
176
     0
 90
        2
176
     1
  1
strokes_ogs.tif
176
     1
290
     0
176
     1
 40
1.0
176
     1
 40
1.0
176
     1
  0
VISUALSTYLE
  5
2B
102
{ACAD_REACTORS
330
29
102
}
330
29
100
AcDbVisualStyle
  2
FlatWithEdges
 70
     1
177
     3
291
     1
 70
    58
 90
        2
176
     1
 90
        1
176
     1
 90
        1
176
     1
 90
        2
176
     1
 40
0.6
176
     1
 40
30.0
176
     1
 62
     7
420
 16777215
176
     1
 90
        1
176
     1
 90
        0
176
     1
 62
     7
176
     1
 62
   257
176
     1
 90
        1
176
     1
 90
        1
176
     1
 40
1.0
176
     1
 90
        0
176
     1
 62
   257
176
     1
 40
1.0
176
     1
 90
        1
176
     1
 90
        6
176
     1
 90
        2
176
     1
 62
     7
176
     1
 90
        5
176
     1
 90
        0
176
     1
 90
        0
176
     1
290
     0
176
     1
 90
       13
176
     1
 40
0.0
176
     1
 90
        0
176
     1
290
     0
176
     1
290
     1
176
     1
290
     1
176
     1
290
     0
176
     1
290
     0
176
     1
290
     0
176
     1
290
     0
176
     1
290
     0
176
     1
290
     0
176
     1
 90
       50
176
     1
 40
0.0
176
     1
 40
1.0
176
     1
 90
        0
176
     1
 62
    18
420
        0
176
     1
 90
       50
176
     1
 90
        3
176
     1
 62
     5
420
      255
176
     1
290
     0
176
     1
 90
       50
176
     1
 90
       50
176
     1
 90
       50
176
     1
290
     0
176
     1
 90
       50
176
     1
 62
   256
176
     0
 40
1.0
176
     0
 90
        2
176
     1
  1
strokes_ogs.tif
176
     1
290
     0
176
     1
 40
1.0
176
     1
 40
1.0
176
     1
  0
VISUALSTYLE
  5
2C
102
{ACAD_REACTORS
330
29
102
}
330
29
100
AcDbVisualStyle
  2
Gouraud
 70
     2
177
     3
291
     1
 70
    58
 90
        2
176
     1
 90
        2
176
     1
 90
        1
176
     1
 90
        2
176
     1
 40
0.6
176
     1
 40
30.0
176
     1
 62
     7
420
 16777215
176
     1
 90
        0
176
     1
 90
        0
176
     1
 62
     7
176
     1
 62
   257
176
     1
 90
        1
176
     1
 90
        1
176
     1
 40
1.0
176
     1
 90
        0
176
     1
 62
     7
176
     1
 40
1.0
176
     1
 90
        1
176
     1
 90
        6
176
     1
 90
        2
176
     1
 62
     7
176
     1
 90
        5
176
     1
 90
        0
176
     1
 90
        0
176
     1
290
     0
176
     1
 90
       13
176
     1
 40
0.0
176
     1
 90
        0
176
     1
290
     0
176
     1
290
     1
176
     1
290
     1
176
     1
290
     0
176
     1
290
     0
176
     1
290
     0
176
     1
290
     0
176
     1
290
     0
176
     1
290
     0
176
     1
 90
       50
176
     1
 40
0.0
176
     1
 40
1.0
176
     1
 90
        0
176
     1
 62
    18
420
        0
176
     1
 90
       50
176
     1
 90
        3
176
     1
 62
     5
420
      255
176
     1
290
     0
176
     1
 90
       50
176
     1
 90
       50
176
     1
 90
       50
176
     1
290
     0
176
     1
 90
       50
176
     1
 62
   256
176
     0
 40
1.0
176
     0
 90
        2
176
     1
  1
strokes_ogs.tif
176
     1
290
     0
176
     1
 40
1.0
176
     1
 40
1.0
176
     1
  0
VISUALSTYLE
  5
2D
102
{ACAD_REACTORS
330
29
102
}
330
29
100
AcDbVisualStyle
  2
GouraudWithEdges
 70
     3
177
     3
291
     1
 70
    58
 90
        2
176
     1
 90
        2
176
     1
 90
        1
176
     1
 90
        2
176
     1
 40
0.6
176
     1
 40
30.0
176
     1
 62
     7
420
 16777215
176
     1
 90
        1
176
     1
 90
        0
176
     1
 62
     7
176
     1
 62
   257
176
     1
 90
        1
176
     1
 90
        1
176
     1
 40
1.0
176
     1
 90
        0
176
     1
 62
   257
176
     1
 40
1.0
176
     1
 90
        1
176
     1
 90
        6
176
     1
 90
        2
176
     1
 62
     7
176
     1
 90
        5
176
     1
 90
        0
176
     1
 90
        0
176
     1
290
     0
176
     1
 90
       13
176
     1
 40
0.0
176
     1
 90
        0
176
     1
290
     0
176
     1
290
     1
176
     1
290
     1
176
     1
290
     0
176
     1
290
     0
176
     1
290
     0
176
     1
290
     0
176
     1
290
     0
176
     1
290
     0
176
     1
 90
       50
176
     1
 40
0.0
176
     1
 40
1.0
176
     1
 90
        0
176
     1
 62
    18
420
        0
176
     1
 90
       50
176
     1
 90
        3
176
     1
 62
     5
420
      255
176
     1
290
     0
176
     1
 90
       50
176
     1
 90
       50
176
     1
 90
       50
176
     1
290
     0
176
     1
 90
       50
176
     1
 62
   256
176
     0
 40
1.0
176
     0
 90
        2
176
     1
  1
strokes_ogs.tif
176
     1
290
     0
176
     1
 40
1.0
176
     1
 40
1.0
176
     1
  0
VISUALSTYLE
  5
31
102
{ACAD_REACTORS
330
29
102
}
330
29
100
AcDbVisualStyle
  2
Hidden
 70
     6
177
     3
291
     0
 70
    58
 90
        1
176
     1
 90
        2
176
     1
 90
        2
176
     1
 90
        0
176
     1
 40
0.6
176
     1
 40
30.0
176
     1
 62
     7
420
 16777215
176
     1
 90
        2
176
     1
 90
        2
176
     1
 62
     7
176
     1
 62
   257
176
     1
 90
        2
176
     1
 90
        1
176
     1
 40
40.0
176
     1
 90
        0
176
     1
 62
   257
176
     1
 40
1.0
176
     1
 90
        1
176
     1
 90
        6
176
     1
 90
        2
176
     1
 62
     7
176
     1
 90
        3
176
     1
 90
        0
176
     1
 90
        0
176
     1
290
     0
176
     1
 90
        1
176
     1
 40
0.0
176
     1
 90
        0
176
     1
290
     0
176
     1
290
     1
176
     1
290
     1
176
     1
290
     0
176
     1
290
     0
176
     1
290
     0
176
     1
290
     0
176
     1
290
     0
176
     1
290
     0
176
     1
 90
       50
176
     1
 40
0.0
176
     1
 40
1.0
176
     1
 90
        0
176
     1
 62
    18
420
        0
176
     1
 90
       50
176
     1
 90
        3
176
     1
 62
     5
420
      255
176
     1
290
     0
176
     1
 90
       50
176
     1
 90
       50
176
     1
 90
       50
176
     1
290
     0
176
     1
 90
       50
176
     1
 62
   256
176
     0
 40
1.0
176
     0
 90
        2
176
     1
  1
strokes_ogs.tif
176
     1
290
     0
176
     1
 40
1.0
176
     1
 40
1.0
176
     1
  0
VISUALSTYLE
  5
3F
102
{ACAD_REACTORS
330
29
102
}
330
29
100
AcDbVisualStyle
  2
JitterOff
 70
    20
177
     3
291
     1
 70
    58
 90
        2
176
     0
 90
        2
176
     0
 90
        0
176
     0
 90
        0
176
     0
 40
0.6
176
     0
 40
30.0
176
     0
 62
     7
420
 16777215
176
     0
 90
        1
176
     0
 90
        4
176
     0
 62
     7
176
     0
 62
   257
176
     0
 90
        1
176
     0
 90
        1
176
     0
 40
1.0
176
     0
 90
       10
176
     2
 62
     7
176
     0
 40
1.0
176
     0
 90
        1
176
     0
 90
        6
176
     0
 90
        2
176
     0
 62
     7
176
     0
 90
        5
176
     0
 90
        0
176
     0
 90
        0
176
     0
290
     0
176
     0
 90
        1
176
     0
 40
0.0
176
     0
 90
        0
176
     0
290
     0
176
     0
290
     1
176
     0
290
     1
176
     0
290
     0
176
     0
290
     0
176
     0
290
     0
176
     0
290
     0
176
     0
290
     0
176
     0
290
     0
176
     0
 90
       50
176
     0
 40
0.0
176
     0
 40
1.0
176
     0
 90
        0
176
     0
 62
    18
420
        0
176
     0
 90
       50
176
     0
 90
        3
176
     0
 62
     5
420
      255
176
     0
290
     0
176
     0
 90
       50
176
     0
 90
       50
176
     0
 90
       50
176
     0
290
     0
176
     0
 90
       50
176
     0
 62
   256
176
     0
 40
1.0
176
     0
 90
        2
176
     0
  1
strokes_ogs.tif
176
     0
290
     0
176
     0
 40
1.0
176
     0
 40
1.0
176
     0
  0
VISUALSTYLE
  5
37
102
{ACAD_REACTORS
330
29
102
}
330
29
100
AcDbVisualStyle
  2
Linepattern
 70
    14
177
     3
291
     1
 70
    58
 90
        2
176
     1
 90
        2
176
     1
 90
        0
176
     1
 90
        0
176
     1
 40
0.6
176
     1
 40
30.0
176
     1
 62
     7
420
 16777215
176
     1
 90
        1
176
     1
 90
        4
176
     1
 62
     7
176
     1
 62
   257
176
     1
 90
        7
176
     1
 90
        7
176
     1
 40
1.0
176
     1
 90
        8
176
     1
 62
     7
176
     1
 40
1.0
176
     1
 90
        1
176
     1
 90
        6
176
     1
 90
        2
176
     1
 62
     7
176
     1
 90
        5
176
     1
 90
        0
176
     1
 90
        0
176
     1
290
     0
176
     1
 90
        1
176
     1
 40
0.0
176
     1
 90
        0
176
     1
290
     0
176
     1
290
     1
176
     1
290
     1
176
     1
290
     0
176
     1
290
     0
176
     1
290
     0
176
     1
290
     0
176
     1
290
     0
176
     1
290
     0
176
     1
 90
       50
176
     1
 40
0.0
176
     1
 40
1.0
176
     1
 90
        0
176
     1
 62
    18
420
        0
176
     1
 90
       50
176
     1
 90
        3
176
     1
 62
     5
420
      255
176
     1
290
     0
176
     1
 90
       50
176
     1
 90
       50
176
     1
 90
       50
176
     1
290
     0
176
     1
 90
       50
176
     1
 62
   256
176
     0
 40
1.0
176
     0
 90
        2
176
     1
  1
strokes_ogs.tif
176
     1
290
     0
176
     1
 40
1.0
176
     1
 40
1.0
176
     1
  0
VISUALSTYLE
  5
40
102
{ACAD_REACTORS
330
29
102
}
330
29
100
AcDbVisualStyle
  2
OverhangOff
 70
    21
177
     3
291
     1
 70
    58
 90
        2
176
     0
 90
        2
176
     0
 90
        0
176
     0
 90
        0
176
     0
 40
0.6
176
     0
 40
30.0
176
     0
 62
     7
420
 16777215
176
     0
 90
        1
176
     0
 90
        4
176
     0
 62
     7
176
     0
 62
   257
176
     0
 90
        1
176
     0
 90
        1
176
     0
 40
1.0
176
     0
 90
        9
176
     2
 62
     7
176
     0
 40
1.0
176
     0
 90
        1
176
     0
 90
        6
176
     0
 90
        2
176
     0
 62
     7
176
     0
 90
        5
176
     0
 90
        0
176
     0
 90
        0
176
     0
290
     0
176
     0
 90
        1
176
     0
 40
0.0
176
     0
 90
        0
176
     0
290
     0
176
     0
290
     1
176
     0
290
     1
176
     0
290
     0
176
     0
290
     0
176
     0
290
     0
176
     0
290
     0
176
     0
290
     0
176
     0
290
     0
176
     0
 90
       50
176
     0
 40
0.0
176
     0
 40
1.0
176
     0
 90
        0
176
     0
 62
    18
420
        0
176
     0
 90
       50
176
     0
 90
        3
176
     0
 62
     5
420
      255
176
     0
290
     0
176
     0
 90
       50
176
     0
 90
       50
176
     0
 90
       50
176
     0
290
     0
176
     0
 90
       50
176
     0
 62
   256
176
     0
 40
1.0
176
     0
 90
        2
176
     0
  1
strokes_ogs.tif
176
     0
290
     0
176
     0
 40
1.0
176
     0
 40
1.0
176
     0
  0
VISUALSTYLE
  5
33
102
{ACAD_REACTORS
330
29
102
}
330
29
100
AcDbVisualStyle
  2
Realistic
 70
     8
177
     3
291
     0
 70
    58
 90
        2
176
     1
 90
        3
176
     1
 90
        0
176
     1
 90
        2
176
     1
 40
0.6
176
     1
 40
30.0
176
     1
 62
     7
420
 16777215
176
     1
 90
        0
176
     1
 90
        0
176
     1
 62
     7
176
     1
 62
   257
176
     1
 90
        1
176
     1
 90
        1
176
     1
 40
1.0
176
     1
 90
        8
176
     1
 62
   257
176
     1
 40
1.0
176
     1
 90
        1
176
     1
 90
        6
176
     1
 90
        2
176
     1
 62
     7
176
     1
 90
        3
176
     1
 90
        0
176
     1
 90
        0
176
     1
290
     0
176
     1
 90
       13
176
     1
 40
0.0
176
     1
 90
        0
176
     1
290
     0
176
     1
290
     1
176
     1
290
     1
176
     1
290
     0
176
     1
290
     0
176
     1
290
     0
176
     1
290
     0
176
     1
290
     0
176
     1
290
     0
176
     1
 90
       50
176
     1
 40
0.0
176
     1
 40
1.0
176
     1
 90
        0
176
     1
 62
    18
420
        0
176
     1
 90
       50
176
     1
 90
        3
176
     1
 62
     5
420
      255
176
     1
290
     0
176
     1
 90
       50
176
     1
 90
       50
176
     1
 90
       50
176
     1
290
     0
176
     1
 90
       50
176
     1
 62
   256
176
     0
 40
1.0
176
     0
 90
        2
176
     1
  1
strokes_ogs.tif
176
     1
290
     0
176
     1
 40
1.0
176
     1
 40
1.0
176
     1
  0
VISUALSTYLE
  5
3E
102
{ACAD_REACTORS
330
29
102
}
330
29
100
AcDbVisualStyle
  2
Shaded
 70
    27
177
     3
291
     0
 70
    58
 90
        2
176
     1
 90
        2
176
     1
 90
        1
176
     1
 90
        2
176
     1
 40
0.6
176
     1
 40
30.0
176
     1
 62
     7
420
 16777215
176
     1
 90
        0
176
     1
 90
        4
176
     1
 62
     7
176
     1
 62
   257
176
     1
 90
        1
176
     1
 90
        1
176
     1
 40
1.0
176
     1
 90
        8
176
     1
 62
   257
176
     1
 40
1.0
176
     1
 90
        1
176
     1
 90
        6
176
     1
 90
        2
176
     1
 62
     8
420
  7895160
176
     1
 90
        3
176
     1
 90
        0
176
     1
 90
        0
176
     1
290
     0
176
     1
 90
        5
176
     1
 40
0.0
176
     1
 90
        0
176
     1
290
     0
176
     1
290
     1
176
     1
290
     1
176
     1
290
     0
176
     1
290
     0
176
     1
290
     0
176
     1
290
     0
176
     1
290
     0
176
     1
290
     0
176
     1
 90
       50
176
     1
 40
0.0
176
     1
 40
1.0
176
     1
 90
        0
176
     1
 62
    18
420
        0
176
     1
 90
       50
176
     1
 90
        3
176
     1
 62
     5
420
      255
176
     1
290
     0
176
     1
 90
       50
176
     1
 90
       50
176
     1
 90
       50
176
     1
290
     0
176
     1
 90
       50
176
     1
 62
   256
176
     0
 40
1.0
176
     0
 90
        2
176
     1
  1
strokes_ogs.tif
176
     1
290
     0
176
     1
 40
1.0
176
     1
 40
1.0
176
     1
  0
VISUALSTYLE
  5
3D
102
{ACAD_REACTORS
330
29
102
}
330
29
100
AcDbVisualStyle
  2
Shaded with edges
 70
    26
177
     3
291
     0
 70
    58
 90
        2
176
     1
 90
        2
176
     1
 90
        1
176
     1
 90
        2
176
     1
 40
0.6
176
     1
 40
30.0
176
     1
 62
     7
420
 16777215
176
     1
 90
        1
176
     1
 90
       10
176
     1
 62
     7
176
     1
 62
   257
176
     1
 90
        2
176
     1
 90
        1
176
     1
 40
1.0
176
     1
 90
        8
176
     1
 62
   257
176
     1
 40
1.0
176
     1
 90
        1
176
     1
 90
        6
176
     1
 90
        2
176
     1
 62
     7
176
     1
 90
        3
176
     1
 90
        0
176
     1
 90
        0
176
     1
290
     0
176
     1
 90
        5
176
     1
 40
0.0
176
     1
 90
        0
176
     1
290
     0
176
     1
290
     1
176
     1
290
     1
176
     1
290
     0
176
     1
290
     0
176
     1
290
     0
176
     1
290
     0
176
     1
290
     0
176
     1
290
     0
176
     1
 90
       50
176
     1
 40
0.0
176
     1
 40
1.0
176
     1
 90
        0
176
     1
 62
    18
420
        0
176
     1
 90
       50
176
     1
 90
        3
176
     1
 62
     5
420
      255
176
     1
290
     0
176
     1
 90
       50
176
     1
 90
       50
176
     1
 90
       50
176
     1
290
     0
176
     1
 90
       50
176
     1
 62
   256
176
     0
 40
1.0
176
     0
 90
        2
176
     1
  1
strokes_ogs.tif
176
     1
290
     0
176
     1
 40
1.0
176
     1
 40
1.0
176
     1
  0
VISUALSTYLE
  5
3A
102
{ACAD_REACTORS
330
29
102
}
330
29
100
AcDbVisualStyle
  2
Shades of Gray
 70
    23
177
     3
291
     0
 70
    58
 90
        2
176
     1
 90
        2
176
     1
 90
        3
176
     1
 90
        0
176
     1
 40
0.6
176
     1
 40
30.0
176
     1
 62
     7
420
 16777215
176
     1
 90
        2
176
     1
 90
        2
176
     1
 62
     7
176
     1
 62
     7
176
     1
 90
        1
176
     1
 90
        1
176
     1
 40
40.0
176
     1
 90
        8
176
     1
 62
     7
176
     1
 40
1.0
176
     1
 90
        1
176
     1
 90
        6
176
     1
 90
        2
176
     1
 62
     7
176
     1
 90
        3
176
     1
 90
        0
176
     1
 90
        0
176
     1
290
     0
176
     1
 90
        1
176
     1
 40
0.0
176
     1
 90
        0
176
     1
290
     0
176
     1
290
     1
176
     1
290
     1
176
     1
290
     0
176
     1
290
     0
176
     1
290
     0
176
     1
290
     0
176
     1
290
     0
176
     1
290
     0
176
     1
 90
       50
176
     1
 40
0.0
176
     1
 40
1.0
176
     1
 90
        0
176
     1
 62
    18
420
        0
176
     1
 90
       50
176
     1
 90
        3
176
     1
 62
     5
420
      255
176
     1
290
     0
176
     1
 90
       50
176
     1
 90
       50
176
     1
 90
       50
176
     1
290
     0
176
     1
 90
       50
176
     1
 62
   256
176
     0
 40
1.0
176
     0
 90
        2
176
     1
  1
strokes_ogs.tif
176
     1
290
     0
176
     1
 40
1.0
176
     1
 40
1.0
176
     1
  0
VISUALSTYLE
  5
3B
102
{ACAD_REACTORS
330
29
102
}
330
29
100
AcDbVisualStyle
  2
Sketchy
 70
    24
177
     3
291
     0
 70
    58
 90
        1
176
     1
 90
        2
176
     1
 90
        2
176
     1
 90
        0
176
     1
 40
0.6
176
     1
 40
30.0
176
     1
 62
     7
420
 16777215
176
     1
 90
        2
176
     1
 90
        2
176
     1
 62
     7
176
     1
 62
     7
176
     1
 90
        1
176
     1
 90
        1
176
     1
 40
40.0
176
     1
 90
       11
176
     1
 62
     7
176
     1
 40
1.0
176
     1
 90
        1
176
     1
 90
        6
176
     1
 90
        2
176
     1
 62
     7
176
     1
 90
        6
176
     1
 90
        0
176
     1
 90
        0
176
     1
290
     0
176
     1
 90
        1
176
     1
 40
0.0
176
     1
 90
        0
176
     1
290
     0
176
     1
290
     1
176
     1
290
     1
176
     1
290
     0
176
     1
290
     0
176
     1
290
     0
176
     1
290
     0
176
     1
290
     0
176
     1
290
     0
176
     1
 90
       50
176
     1
 40
0.0
176
     1
 40
1.0
176
     1
 90
        0
176
     1
 62
    18
420
        0
176
     1
 90
       50
176
     1
 90
        3
176
     1
 62
     5
420
      255
176
     1
290
     0
176
     1
 90
       50
176
     1
 90
       50
176
     1
 90
       50
176
     1
290
     0
176
     1
 90
       50
176
     1
 62
   256
176
     0
 40
1.0
176
     0
 90
        2
176
     1
  1
strokes_ogs.tif
176
     1
290
     0
176
     1
 40
1.0
176
     1
 40
1.0
176
     1
  0
VISUALSTYLE
  5
36
102
{ACAD_REACTORS
330
29
102
}
330
29
100
AcDbVisualStyle
  2
Thicken
 70
    13
177
     3
291
     1
 70
    58
 90
        2
176
     1
 90
        2
176
     1
 90
        0
176
     1
 90
        0
176
     1
 40
0.6
176
     1
 40
30.0
176
     1
 62
     7
420
 16777215
176
     1
 90
        1
176
     1
 90
        4
176
     1
 62
     7
176
     1
 62
   257
176
     1
 90
        1
176
     1
 90
        1
176
     1
 40
1.0
176
     1
 90
       12
176
     1
 62
     7
176
     1
 40
1.0
176
     1
 90
        1
176
     1
 90
        6
176
     1
 90
        2
176
     1
 62
     7
176
     1
 90
        5
176
     1
 90
        0
176
     1
 90
        0
176
     1
290
     0
176
     1
 90
        1
176
     1
 40
0.0
176
     1
 90
        0
176
     1
290
     0
176
     1
290
     1
176
     1
290
     1
176
     1
290
     0
176
     1
290
     0
176
     1
290
     0
176
     1
290
     0
176
     1
290
     0
176
     1
290
     0
176
     1
 90
       50
176
     1
 40
0.0
176
     1
 40
1.0
176
     1
 90
        0
176
     1
 62
    18
420
        0
176
     1
 90
       50
176
     1
 90
        3
176
     1
 62
     5
420
      255
176
     1
290
     0
176
     1
 90
       50
176
     1
 90
       50
176
     1
 90
       50
176
     1
290
     0
176
     1
 90
       50
176
     1
 62
   256
176
     0
 40
1.0
176
     0
 90
        2
176
     1
  1
strokes_ogs.tif
176
     1
290
     0
176
     1
 40
1.0
176
     1
 40
1.0
176
     1
  0
VISUALSTYLE
  5
30
102
{ACAD_REACTORS
330
29
102
}
330
29
100
AcDbVisualStyle
  2
Wireframe
 70
     5
177
     3
291
     0
 70
    58
 90
        0
176
     1
 90
        2
176
     1
 90
        0
176
     1
 90
        0
176
     1
 40
0.6
176
     1
 40
30.0
176
     1
 62
     7
420
 16777215
176
     1
 90
        1
176
     1
 90
        4
176
     1
 62
     7
176
     1
 62
   257
176
     1
 90
        1
176
     1
 90
        1
176
     1
 40
1.0
176
     1
 90
        0
176
     1
 62
   257
176
     1
 40
1.0
176
     1
 90
        1
176
     1
 90
        6
176
     1
 90
        2
176
     1
 62
     7
176
     1
 90
        3
176
     1
 90
        0
176
     1
 90
        0
176
     1
290
     0
176
     1
 90
        1
176
     1
 40
0.0
176
     1
 90
        0
176
     1
290
     0
176
     1
290
     1
176
     1
290
     1
176
     1
290
     0
176
     1
290
     0
176
     1
290
     0
176
     1
290
     0
176
     1
290
     0
176
     1
290
     0
176
     1
 90
       50
176
     1
 40
0.0
176
     1
 40
1.0
176
     1
 90
        0
176
     1
 62
    18
420
        0
176
     1
 90
       50
176
     1
 90
        3
176
     1
 62
     5
420
      255
176
     1
290
     0
176
     1
 90
       50
176
     1
 90
       50
176
     1
 90
       50
176
     1
290
     0
176
     1
 90
       50
176
     1
 62
   256
176
     0
 40
1.0
176
     0
 90
        2
176
     1
  1
strokes_ogs.tif
176
     1
290
     0
176
     1
 40
1.0
176
     1
 40
1.0
176
     1
  0
VISUALSTYLE
  5
3C
102
{ACAD_REACTORS
330
29
102
}
330
29
100
AcDbVisualStyle
  2
X-Ray
 70
    25
177
     3
291
     0
 70
    58
 90
        2
176
     1
 90
        2
176
     1
 90
        1
176
     1
 90
        1
176
     1
 40
0.5
176
     1
 40
30.0
176
     1
 62
     7
420
 16777215
176
     1
 90
        1
176
     1
 90
        0
176
     1
 62
     7
176
     1
 62
   257
176
     1
 90
        1
176
     1
 90
        1
176
     1
 40
1.0
176
     1
 90
        8
176
     1
 62
     7
176
     1
 40
1.0
176
     1
 90
        1
176
     1
 90
        6
176
     1
 90
        2
176
     1
 62
     7
176
     1
 90
        3
176
     1
 90
        0
176
     1
 90
        0
176
     1
290
     0
176
     1
 90
       13
176
     1
 40
0.0
176
     1
 90
        0
176
     1
290
     0
176
     1
290
     1
176
     1
290
     1
176
     1
290
     0
176
     1
290
     0
176
     1
290
     0
176
     1
290
     0
176
     1
290
     0
176
     1
290
     0
176
     1
 90
       50
176
     1
 40
0.0
176
     1
 40
1.0
176
     1
 90
        0
176
     1
 62
    18
420
        0
176
     1
 90
       50
176
     1
 90
        3
176
     1
 62
     5
420
      255
176
     1
290
     0
176
     1
 90
       50
176
     1
 90
       50
176
     1
 90
       50
176
     1
290
     0
176
     1
 90
       50
176
     1
 62
   256
176
     0
 40
1.0
176
     0
 90
        2
176
     1
  1
strokes_ogs.tif
176
     1
290
     0
176
     1
 40
1.0
176
     1
 40
1.0
176
     1
  0
DICTIONARYVAR
  5
32F
102
{ACAD_REACTORS
330
32A
102
}
330
32A
100
DictionaryVariables
280
     0
  1
1:1
  0
DICTIONARYVAR
  5
32C
102
{ACAD_REACTORS
330
32A
102
}
330
32A
100
DictionaryVariables
280
     0
  1
STANDARD
  0
DICTIONARYVAR
  5
32B
102
{ACAD_REACTORS
330
32A
102
}
330
32A
100
DictionaryVariables
280
     0
  1
STANDARD
  0
DICTIONARYVAR
  5
32D
102
{ACAD_REACTORS
330
32A
102
}
330
32A
100
DictionaryVariables
280
     0
  1
Imperial24
  0
DICTIONARYVAR
  5
32E
102
{ACAD_REACTORS
330
32A
102
}
330
32A
100
DictionaryVariables
280
     0
  1
Imperial24
  0
DICTIONARY
  5
335
330
6A
100
AcDbDictionary
280
     1
281
     1
  3
ACAD_XREC_ROUNDTRIP
360
336
  0
DICTIONARY
  5
1A
330
19
100
AcDbDictionary
280
     1
281
     1
  3
BUMPTILE
360
1C
  3
DIFFUSETILE
360
1B
  3
OPACITYTILE
360
1F
  3
REFLECTIONTILE
360
1E
  3
REFRACTIONTILE
360
20
  3
SPECULARTILE
360
1D
  0
DICTIONARY
  5
12
330
11
100
AcDbDictionary
280
     1
281
     1
  3
BUMPTILE
360
14
  3
DIFFUSETILE
360
13
  3
OPACITYTILE
360
17
  3
REFLECTIONTILE
360
16
  3
REFRACTIONTILE
360
18
  3
SPECULARTILE
360
15
  0
DICTIONARY
  5
22
330
21
100
AcDbDictionary
280
     1
281
     1
  3
BUMPTILE
360
24
  3
DIFFUSETILE
360
23
  3
OPACITYTILE
360
27
  3
REFLECTIONTILE
360
26
  3
REFRACTIONTILE
360
28
  3
SPECULARTILE
360
25
  0
DICTIONARY
  5
333
330
68
100
AcDbDictionary
280
     1
281
     1
  3
ACAD_XREC_ROUNDTRIP
360
334
  0
DICTIONARY
  5
331
330
64
100
AcDbDictionary
280
     1
281
     1
  3
ACAD_ROUNDTRIP_2008_TABLESTYLE_CELLSTYLEMAP
360
332
  0
XRECORD
  5
336
102
{ACAD_REACTORS
330
335
102
}
330
335
100
AcDbXrecord
280
     1
102
DISPLAYNAME
  1
Imperial24
102
FLAGS
 90
        0
  0
XRECORD
  5
1C
102
{ACAD_REACTORS
330
1A
102
}
330
1A
100
AcDbXrecord
280
     1
270
     1
271
     1
  0
XRECORD
  5
1B
102
{ACAD_REACTORS
330
1A
102
}
330
1A
100
AcDbXrecord
280
     1
270
     1
271
     1
  0
XRECORD
  5
1F
102
{ACAD_REACTORS
330
1A
102
}
330
1A
100
AcDbXrecord
280
     1
270
     1
271
     1
  0
XRECORD
  5
1E
102
{ACAD_REACTORS
330
1A
102
}
330
1A
100
AcDbXrecord
280
     1
270
     1
271
     1
  0
XRECORD
  5
20
102
{ACAD_REACTORS
330
1A
102
}
330
1A
100
AcDbXrecord
280
     1
270
     1
271
     1
  0
XRECORD
  5
1D
102
{ACAD_REACTORS
330
1A
102
}
330
1A
100
AcDbXrecord
280
     1
270
     1
271
     1
  0
XRECORD
  5
14
102
{ACAD_REACTORS
330
12
102
}
330
12
100
AcDbXrecord
280
     1
270
     1
271
     1
  0
XRECORD
  5
13
102
{ACAD_REACTORS
330
12
102
}
330
12
100
AcDbXrecord
280
     1
270
     1
271
     1
  0
XRECORD
  5
17
102
{ACAD_REACTORS
330
12
102
}
330
12
100
AcDbXrecord
280
     1
270
     1
271
     1
  0
XRECORD
  5
16
102
{ACAD_REACTORS
330
12
102
}
330
12
100
AcDbXrecord
280
     1
270
     1
271
     1
  0
XRECORD
  5
18
102
{ACAD_REACTORS
330
12
102
}
330
12
100
AcDbXrecord
280
     1
270
     1
271
     1
  0
XRECORD
  5
15
102
{ACAD_REACTORS
330
12
102
}
330
12
100
AcDbXrecord
280
     1
270
     1
271
     1
  0
XRECORD
  5
24
102
{ACAD_REACTORS
330
22
102
}
330
22
100
AcDbXrecord
280
     1
270
     1
271
     1
  0
XRECORD
  5
23
102
{ACAD_REACTORS
330
22
102
}
330
22
100
AcDbXrecord
280
     1
270
     1
271
     1
  0
XRECORD
  5
27
102
{ACAD_REACTORS
330
22
102
}
330
22
100
AcDbXrecord
280
     1
270
     1
271
     1
  0
XRECORD
  5
26
102
{ACAD_REACTORS
330
22
102
}
330
22
100
AcDbXrecord
280
     1
270
     1
271
     1
  0
XRECORD
  5
28
102
{ACAD_REACTORS
330
22
102
}
330
22
100
AcDbXrecord
280
     1
270
     1
271
     1
  0
XRECORD
  5
25
102
{ACAD_REACTORS
330
22
102
}
330
22
100
AcDbXrecord
280
     1
270
     1
271
     1
  0
XRECORD
  5
334
102
{ACAD_REACTORS
330
333
102
}
330
333
100
AcDbXrecord
280
     1
102
DISPLAYNAME
  1
Imperial24
102
FLAGS
 90
        0
  0
CELLSTYLEMAP
  5
332
102
{ACAD_REACTORS
330
331
102
}
330
331
100
AcDbCellStyleMap
 90
        3
300
CELLSTYLE
  1
TABLEFORMAT_BEGIN
 90
        5
170
     1
 91
        0
 92
    32768
 62
   257
 93
        1
300
CONTENTFORMAT
  1
CONTENTFORMAT_BEGIN
 90
        0
 91
        0
 92
      512
 93
        0
300

 40
0.0
140
1.0
 94
        5
 62
     0
340
55
144
0.25
309
CONTENTFORMAT_END
171
     0
 94
        0
309
TABLEFORMAT_END
  1
CELLSTYLE_BEGIN
 90
        1
 91
        1
300
_TITLE
309
CELLSTYLE_END
300
CELLSTYLE
  1
TABLEFORMAT_BEGIN
 90
        5
170
     1
 91
        0
 92
        0
 62
   257
 93
        1
300
CONTENTFORMAT
  1
CONTENTFORMAT_BEGIN
 90
        0
 91
        0
 92
      512
 93
        0
300

 40
0.0
140
1.0
 94
        5
 62
     0
340
55
144
0.18
309
CONTENTFORMAT_END
171
     0
 94
        0
309
TABLEFORMAT_END
  1
CELLSTYLE_BEGIN
 90
        2
 91
        1
300
_HEADER
309
CELLSTYLE_END
300
CELLSTYLE
  1
TABLEFORMAT_BEGIN
 90
        5
170
     1
 91
        0
 92
        0
 62
   257
 93
        1
300
CONTENTFORMAT
  1
CONTENTFORMAT_BEGIN
 90
        0
 91
        0
 92
      512
 93
        0
300

 40
0.0
140
1.0
 94
        2
 62
     0
340
55
144
0.18
309
CONTENTFORMAT_END
171
     0
 94
        0
309
TABLEFORMAT_END
  1
CELLSTYLE_BEGIN
 90
        3
 91
        2
300
_DATA
309
CELLSTYLE_END
  0
ENDSEC
  0
SECTION
  2
ACDSDATA
 70
     2
 71
     6
  0
ACDSSCHEMA
 90
        0
  1
AcDb_Thumbnail_Schema
  2
AcDbDs::ID
280
    10
 91
        8
  2
Thumbnail_Data
280
    15
 91
        0
101
ACDSRECORD
 95
        0
 90
        1
  2
AcDbDs::TreatedAsObjectData
280
     1
291
     1
101
ACDSRECORD
 95
        0
 90
        2
  2
AcDbDs::Legacy
280
     1
291
     1
101
ACDSRECORD
  1
AcDbDs::ID
 90
        3
  2
AcDs:Indexable
280
     1
291
     1
101
ACDSRECORD
  1
AcDbDs::ID
 90
        4
  2
AcDbDs::HandleAttribute
280
     7
282
     1
  0
ACDSSCHEMA
 90
        1
  1
AcDbDs::TreatedAsObjectDataSchema
  2
AcDbDs::TreatedAsObjectData
280
     1
 91
        0
  0
ACDSSCHEMA
 90
        2
  1
AcDbDs::LegacySchema
  2
AcDbDs::Legacy
280
     1
 91
        0
  0
ACDSSCHEMA
 90
        3
  1
AcDbDs::IndexedPropertySchema
  2
AcDs:Indexable
280
     1
 91
        0
  0
ACDSSCHEMA
 90
        4
  1
AcDbDs::HandleAttributeSchema
  2
AcDbDs::HandleAttribute
280
     7
 91
        1
284
     1
  0
ACDSRECORD
 90
        0
  2
AcDbDs::ID
280
    10
320
72
  2
Thumbnail_Data
280
    15
 94
     1497
310
89504E470D0A1A0A0000000D49484452000001000000008108030000001837949D00000300504C54455B5B5B000000C8C8C80000000000000000000000000000000000000000000000000000330000660000990000CC0000FF0033000033330033660033990033CC0033FF0066000066330066660066990066CC0066FF0099
310
000099330099660099990099CC0099FF00CC0000CC3300CC6600CC9900CCCC00CCFF00FF0000FF3300FF6600FF9900FFCC00FFFF3300003300333300663300993300CC3300FF3333003333333333663333993333CC3333FF3366003366333366663366993366CC3366FF3399003399333399663399993399CC3399FF33CC00
310
33CC3333CC6633CC9933CCCC33CCFF33FF0033FF3333FF6633FF9933FFCC33FFFF6600006600336600666600996600CC6600FF6633006633336633666633996633CC6633FF6666006666336666666666996666CC6666FF6699006699336699666699996699CC6699FF66CC0066CC3366CC6666CC9966CCCC66CCFF66FF0066
310
FF3366FF6666FF9966FFCC66FFFF9900009900339900669900999900CC9900FF9933009933339933669933999933CC9933FF9966009966339966669966999966CC9966FF9999009999339999669999999999CC9999FF99CC0099CC3399CC6699CC9999CCCC99CCFF99FF0099FF3399FF6699FF9999FFCC99FFFFCC0000CC00
310
33CC0066CC0099CC00CCCC00FFCC3300CC3333CC3366CC3399CC33CCCC33FFCC6600CC6633CC6666CC6699CC66CCCC66FFCC9900CC9933CC9966CC9999CC99CCCC99FFCCCC00CCCC33CCCC66CCCC99CCCCCCCCCCFFCCFF00CCFF33CCFF66CCFF99CCFFCCCCFFFFFF0000FF0033FF0066FF0099FF00CCFF00FFFF3300FF3333
310
FF3366FF3399FF33CCFF33FFFF6600FF6633FF6666FF6699FF66CCFF66FFFF9900FF9933FF9966FF9999FF99CCFF99FFFFCC00FFCC33FFCC66FFCC99FFCCCCFFCCFFFFFF00FFFF33FFFF66FFFF99FFFFCCFFFFFF0000000D0D0D1A1A1A2828283535354343435050505D5D5D6B6B6B787878868686939393A1A1A1AEAEAEBB
310
BBBBC9C9C9D6D6D6E4E4E4F1F1F1FFFFFF00000000000000000000000000000000000000000000000000000000000054549EDE000002944944415478DAED9B4B6E03310C437D1C6F78FF9DCFD6CCDF7F4FBA0B4901011A74BA7834A591653784FF0480201BD8234016BFFD498C1FC7079A7980025F4F02D40E809606502F0B
310
9DF5CF3D00F6F723BA2970AF3BC86D000CF0512708E8F12B091A6C3E13CC88D05B77D0F18FD7BF2B0099024DD26352011815983AE07AE09BB421E980AEDFECF8F8E6AF7EB905AE3D70AC747FB941A3C438054E72CCBA648264183B6095F08743C05A0396FCE7232070C0A002BC6B941872A09F02420274F0F1E685C79102DD
310
357E6500F07404B507727ECC6563E988CA14C80620CB9704654778B7C143C0CB2564FBA2A7FC37D3B07AFD63601C1BE7FDDFA44662E7A78C8817CDE2F695568017EDB2207FD317B0F2CFC0F2ADB1227FC80604A2027CFD98F97F4F8054841E7FBEC5F9C440020D010E0D7A12B0F3877223DC48C0CB5F0AF04C852B09E80DD0
310
B90B91340C70F77BED76E8310137FF350C47D9F665124485D57F4682685C10E9FD5F6400EA4488EC77E590D7807ADCB5B505EC3727812C0DEA7DE03D3066F74068E103FFE5D934F644772E222340755C941F1A8B08701580FAD6889A00DC0E88D314A8B35FCD019DCB038A25204F015A0166372180A71CF20A309620964A10
310
F3632100695C19305A5FFA31503A0D202D807002DC35405C00C50A10D77D50A03F09580A406D80F31438A91B20A91AA014A0DF060818604B84301A762818602B0129F4A71DECFCC74598F4EC04EA93617A01F64FBADA2064FB7E01FEEB1A54CAF6FAD5DC4BA20264B1DF0A4AE9FE370135FE5C09F6C3F035DB273FA232FF72
310
8B24204034BF0530BF0530BFAA00E6B700E677381C0E87C3AF4987C3E1707973381C0E87DF11E637BFF9CDCFC817C517589DDF0630BFB400E6D716C0FCDA02985F5B00F37B07687EF39BDFFCE6A78E3F4208DB9D21DBD1AE0000000049454E44AE426082
  0
ENDSEC
  0
EOF
