  0
SECTION
  2
HEADER
  9
$ACADVER
  1
AC1027
  9
$ACADMAINTVER
 70
    55
  9
$DWGCODEPAGE
  3
ANSI_1252
  9
$LASTSAVEDBY
  1
crinne
  9
$REQUIREDVERSIONS
160
                 0
  9
$INSBASE
 10
0.0
 20
0.0
 30
0.0
  9
$EXTMIN
 10
-339.130149558574
 20
-1900.965127003258
 30
0.0
  9
$EXTMAX
 10
-113.932669686021
 20
-1730.552107545332
 30
0.0
  9
$LIMMIN
 10
-2600.0
 20
-2600.0
  9
$LIMMAX
 10
2000.0
 20
200.0
  9
$ORTHOMODE
 70
     0
  9
$REGENMODE
 70
     1
  9
$FILLMODE
 70
     1
  9
$QTEXTMODE
 70
     0
  9
$MIRRTEXT
 70
     1
  9
$LTSCALE
 40
25.0
  9
$ATTMODE
 70
     1
  9
$TEXTSIZE
 40
3.5
  9
$TRACEWID
 40
1.0
  9
$TEXTSTYLE
  7
STANDARD
  9
$CLAYER
  8
GRABUNGSGRENZE
  9
$CELTYPE
  6
ByLayer
  9
$CECOLOR
 62
   256
  9
$CELTSCALE
 40
1.0
  9
$DISPSILH
 70
     0
  9
$DIMSCALE
 40
1.0
  9
$DIMASZ
 40
3.5
  9
$DIMEXO
 40
0.1
  9
$DIMDLI
 40
7.0
  9
$DIMRND
 40
0.0
  9
$DIMDLE
 40
0.0
  9
$DIMEXE
 40
1.8
  9
$DIMTP
 40
0.0
  9
$DIMTM
 40
0.0
  9
$DIMTXT
 40
3.5
  9
$DIMCEN
 40
1.5
  9
$DIMTSZ
 40
0.0
  9
$DIMTOL
 70
     0
  9
$DIMLIM
 70
     0
  9
$DIMTIH
 70
     0
  9
$DIMTOH
 70
     0
  9
$DIMSE1
 70
     0
  9
$DIMSE2
 70
     0
  9
$DIMTAD
 70
     0
  9
$DIMZIN
 70
     0
  9
$DIMBLK
  1

  9
$DIMASO
 70
     1
  9
$DIMSHO
 70
     0
  9
$DIMPOST
  1

  9
$DIMAPOST
  1

  9
$DIMALT
 70
     0
  9
$DIMALTD
 70
     2
  9
$DIMALTF
 40
25.4
  9
$DIMLFAC
 40
1.0
  9
$DIMTOFL
 70
     0
  9
$DIMTVP
 40
0.0
  9
$DIMTIX
 70
     0
  9
$DIMSOXD
 70
     0
  9
$DIMSAH
 70
     0
  9
$DIMBLK1
  1

  9
$DIMBLK2
  1

  9
$DIMSTYLE
  2
Standard
  9
$DIMCLRD
 70
     0
  9
$DIMCLRE
 70
     0
  9
$DIMCLRT
 70
     0
  9
$DIMTFAC
 40
1.0
  9
$DIMGAP
 40
0.09
  9
$DIMJUST
 70
     0
  9
$DIMSD1
 70
     0
  9
$DIMSD2
 70
     0
  9
$DIMTOLJ
 70
     1
  9
$DIMTZIN
 70
     0
  9
$DIMALTZ
 70
     0
  9
$DIMALTTZ
 70
     0
  9
$DIMUPT
 70
     0
  9
$DIMDEC
 70
     2
  9
$DIMTDEC
 70
     2
  9
$DIMALTU
 70
     2
  9
$DIMALTTD
 70
     2
  9
$DIMTXSTY
  7
STANDARD
  9
$DIMAUNIT
 70
     0
  9
$DIMADEC
 70
     0
  9
$DIMALTRND
 40
0.0
  9
$DIMAZIN
 70
     0
  9
$DIMDSEP
 70
    46
  9
$DIMATFIT
 70
     3
  9
$DIMFRAC
 70
     0
  9
$DIMLDRBLK
  1

  9
$DIMLUNIT
 70
     2
  9
$DIMLWD
 70
    -2
  9
$DIMLWE
 70
    -2
  9
$DIMTMOVE
 70
     2
  9
$DIMFXL
 40
1.0
  9
$DIMFXLON
 70
     0
  9
$DIMJOGANG
 40
0.7853981633974483
  9
$DIMTFILL
 70
     0
  9
$DIMTFILLCLR
 70
     0
  9
$DIMARCSYM
 70
     0
  9
$DIMLTYPE
  6

  9
$DIMLTEX1
  6

  9
$DIMLTEX2
  6

  9
$DIMTXTDIRECTION
 70
     0
  9
$LUNITS
 70
     2
  9
$LUPREC
 70
     2
  9
$SKETCHINC
 40
1.0
  9
$FILLETRAD
 40
0.0
  9
$AUNITS
 70
     0
  9
$AUPREC
 70
     0
  9
$MENU
  1
ACAD
  9
$ELEVATION
 40
0.0
  9
$PELEVATION
 40
0.0
  9
$THICKNESS
 40
0.0
  9
$LIMCHECK
 70
     0
  9
$CHAMFERA
 40
0.0
  9
$CHAMFERB
 40
0.0
  9
$CHAMFERC
 40
0.0
  9
$CHAMFERD
 40
0.0
  9
$SKPOLY
 70
     0
  9
$TDCREATE
 40
2450576.470898958
  9
$TDUCREATE
 40
2450576.387565625
  9
$TDUPDATE
 40
2459792.701289421
  9
$TDUUPDATE
 40
2459792.617956088
  9
$TDINDWG
 40
0.0000044213
  9
$TDUSRTIMER
 40
0.0000044213
  9
$USRTIMER
 70
     1
  9
$ANGBASE
 50
0.0
  9
$ANGDIR
 70
     0
  9
$PDMODE
 70
     0
  9
$PDSIZE
 40
0.0
  9
$PLINEWID
 40
0.0
  9
$SPLFRAME
 70
     0
  9
$SPLINETYPE
 70
     6
  9
$SPLINESEGS
 70
     8
  9
$HANDSEED
  5
3E6
  9
$SURFTAB1
 70
     6
  9
$SURFTAB2
 70
     6
  9
$SURFTYPE
 70
     6
  9
$SURFU
 70
     6
  9
$SURFV
 70
     6
  9
$UCSBASE
  2

  9
$UCSNAME
  2

  9
$UCSORG
 10
0.0
 20
0.0
 30
0.0
  9
$UCSXDIR
 10
1.0
 20
0.0
 30
0.0
  9
$UCSYDIR
 10
0.0
 20
1.0
 30
0.0
  9
$UCSORTHOREF
  2

  9
$UCSORTHOVIEW
 70
     0
  9
$UCSORGTOP
 10
0.0
 20
0.0
 30
0.0
  9
$UCSORGBOTTOM
 10
0.0
 20
0.0
 30
0.0
  9
$UCSORGLEFT
 10
0.0
 20
0.0
 30
0.0
  9
$UCSORGRIGHT
 10
0.0
 20
0.0
 30
0.0
  9
$UCSORGFRONT
 10
0.0
 20
0.0
 30
0.0
  9
$UCSORGBACK
 10
0.0
 20
0.0
 30
0.0
  9
$PUCSBASE
  2

  9
$PUCSNAME
  2

  9
$PUCSORG
 10
0.0
 20
0.0
 30
0.0
  9
$PUCSXDIR
 10
1.0
 20
0.0
 30
0.0
  9
$PUCSYDIR
 10
0.0
 20
1.0
 30
0.0
  9
$PUCSORTHOREF
  2

  9
$PUCSORTHOVIEW
 70
     0
  9
$PUCSORGTOP
 10
0.0
 20
0.0
 30
0.0
  9
$PUCSORGBOTTOM
 10
0.0
 20
0.0
 30
0.0
  9
$PUCSORGLEFT
 10
0.0
 20
0.0
 30
0.0
  9
$PUCSORGRIGHT
 10
0.0
 20
0.0
 30
0.0
  9
$PUCSORGFRONT
 10
0.0
 20
0.0
 30
0.0
  9
$PUCSORGBACK
 10
0.0
 20
0.0
 30
0.0
  9
$USERI1
 70
     0
  9
$USERI2
 70
     0
  9
$USERI3
 70
     0
  9
$USERI4
 70
     0
  9
$USERI5
 70
     0
  9
$USERR1
 40
0.0
  9
$USERR2
 40
0.0
  9
$USERR3
 40
0.0
  9
$USERR4
 40
0.0
  9
$USERR5
 40
0.0
  9
$WORLDVIEW
 70
     1
  9
$SHADEDGE
 70
     3
  9
$SHADEDIF
 70
    70
  9
$TILEMODE
 70
     1
  9
$MAXACTVP
 70
    16
  9
$PINSBASE
 10
0.0
 20
0.0
 30
0.0
  9
$PLIMCHECK
 70
     0
  9
$PEXTMIN
 10
1.000000000000000E+20
 20
1.000000000000000E+20
 30
1.000000000000000E+20
  9
$PEXTMAX
 10
-1.000000000000000E+20
 20
-1.000000000000000E+20
 30
-1.000000000000000E+20
  9
$PLIMMIN
 10
0.0
 20
0.0
  9
$PLIMMAX
 10
12.0
 20
9.0
  9
$UNITMODE
 70
     0
  9
$VISRETAIN
 70
     0
  9
$PLINEGEN
 70
     0
  9
$PSLTSCALE
 70
     0
  9
$TREEDEPTH
 70
  3020
  9
$CMLSTYLE
  2
Standard
  9
$CMLJUST
 70
     0
  9
$CMLSCALE
 40
1.0
  9
$PROXYGRAPHICS
 70
     1
  9
$MEASUREMENT
 70
     0
  9
$CELWEIGHT
370
    -1
  9
$ENDCAPS
280
     0
  9
$JOINSTYLE
280
     0
  9
$LWDISPLAY
290
     0
  9
$INSUNITS
 70
     0
  9
$HYPERLINKBASE
  1

  9
$STYLESHEET
  1

  9
$XEDIT
290
     1
  9
$CEPSNTYPE
380
     0
  9
$PSTYLEMODE
290
     1
  9
$FINGERPRINTGUID
  2
{E939F151-6791-4CEF-BCC1-DCCCF53CDCD8}
  9
$VERSIONGUID
  2
{F5B38FB8-9A70-4C1A-B493-281D7B9FB939}
  9
$EXTNAMES
290
     1
  9
$PSVPSCALE
 40
0.0
  9
$OLESTARTUP
290
     0
  9
$SORTENTS
280
   127
  9
$INDEXCTL
280
     0
  9
$HIDETEXT
280
     1
  9
$XCLIPFRAME
280
     2
  9
$HALOGAP
280
     0
  9
$OBSCOLOR
 70
   257
  9
$OBSLTYPE
280
     0
  9
$INTERSECTIONDISPLAY
280
     0
  9
$INTERSECTIONCOLOR
 70
   257
  9
$DIMASSOC
280
     2
  9
$PROJECTNAME
  1

  9
$CAMERADISPLAY
290
     0
  9
$LENSLENGTH
 40
50.0
  9
$CAMERAHEIGHT
 40
0.0
  9
$STEPSPERSEC
 40
2.0
  9
$STEPSIZE
 40
6.0
  9
$3DDWFPREC
 40
2.0
  9
$PSOLWIDTH
 40
0.25
  9
$PSOLHEIGHT
 40
4.0
  9
$LOFTANG1
 40
1.570796326794896
  9
$LOFTANG2
 40
1.570796326794896
  9
$LOFTMAG1
 40
0.0
  9
$LOFTMAG2
 40
0.0
  9
$LOFTPARAM
 70
     7
  9
$LOFTNORMALS
280
     1
  9
$LATITUDE
 40
37.795
  9
$LONGITUDE
 40
-122.394
  9
$NORTHDIRECTION
 40
0.0
  9
$TIMEZONE
 70
 -8000
  9
$LIGHTGLYPHDISPLAY
280
     1
  9
$TILEMODELIGHTSYNCH
280
     1
  9
$CMATERIAL
347
11
  9
$SOLIDHIST
280
     0
  9
$SHOWHIST
280
     1
  9
$DWFFRAME
280
     2
  9
$DGNFRAME
280
     0
  9
$REALWORLDSCALE
290
     1
  9
$INTERFERECOLOR
 62
     1
  9
$INTERFEREOBJVS
345
33
  9
$INTERFEREVPVS
346
30
  9
$CSHADOW
280
     0
  9
$SHADOWPLANELOCATION
 40
0.0
  0
ENDSEC
  0
SECTION
  2
CLASSES
  0
CLASS
  1
ACDBDICTIONARYWDFLT
  2
AcDbDictionaryWithDefault
  3
ObjectDBX Classes
 90
        0
 91
        1
280
     0
281
     0
  0
CLASS
  1
MATERIAL
  2
AcDbMaterial
  3
ObjectDBX Classes
 90
     1153
 91
        3
280
     0
281
     0
  0
CLASS
  1
VISUALSTYLE
  2
AcDbVisualStyle
  3
ObjectDBX Classes
 90
     4095
 91
       24
280
     0
281
     0
  0
CLASS
  1
SCALE
  2
AcDbScale
  3
ObjectDBX Classes
 90
     1153
 91
       17
280
     0
281
     0
  0
CLASS
  1
TABLESTYLE
  2
AcDbTableStyle
  3
ObjectDBX Classes
 90
     4095
 91
        1
280
     0
281
     0
  0
CLASS
  1
MLEADERSTYLE
  2
AcDbMLeaderStyle
  3
ACDB_MLEADERSTYLE_CLASS
 90
     4095
 91
        1
280
     0
281
     0
  0
CLASS
  1
ACDBSECTIONVIEWSTYLE
  2
AcDbSectionViewStyle
  3
ObjectDBX Classes
 90
     1025
 91
        1
280
     0
281
     0
  0
CLASS
  1
ACDBDETAILVIEWSTYLE
  2
AcDbDetailViewStyle
  3
ObjectDBX Classes
 90
     1025
 91
        1
280
     0
281
     0
  0
CLASS
  1
DICTIONARYVAR
  2
AcDbDictionaryVar
  3
ObjectDBX Classes
 90
        0
 91
        5
280
     0
281
     0
  0
CLASS
  1
CELLSTYLEMAP
  2
AcDbCellStyleMap
  3
ObjectDBX Classes
 90
     1152
 91
        1
280
     0
281
     0
  0
ENDSEC
  0
SECTION
  2
TABLES
  0
TABLE
  2
VPORT
  5
8
330
0
100
AcDbSymbolTable
 70
     2
  0
VPORT
  5
90
330
8
100
AcDbSymbolTableRecord
100
AcDbViewportTableRecord
  2
*ACTIVE
 70
     0
 10
0.0
 20
0.0
 11
1.0
 21
1.0
 12
-170.5837675560508
 22
-1815.758617274295
 13
0.0
 23
0.0
 14
5.0
 24
5.0
 15
100.0
 25
100.0
 16
0.0
 26
0.0
 36
1.0
 17
0.0
 27
0.0
 37
0.0
 40
170.4130194579256
 41
1.978092783505154
 42
50.0
 43
0.0
 44
0.0
 50
0.0
 51
0.0
 71
     0
 72
   100
 73
     1
 74
     0
 75
     0
 76
     1
 77
     0
 78
     0
281
     0
 65
     1
110
0.0
120
0.0
130
0.0
111
1.0
121
0.0
131
0.0
112
0.0
122
1.0
132
0.0
 79
     0
146
0.0
348
2F
 60
     3
 61
     5
292
     1
282
     0
141
0.0
142
0.0
 63
   250
421
  3355443
1001
ACAD_NAV_VCDISPLAY
1070
     3
  0
ENDTAB
  0
TABLE
  2
LTYPE
  5
5
330
0
100
AcDbSymbolTable
 70
    25
  0
LTYPE
  5
5A
330
5
100
AcDbSymbolTableRecord
100
AcDbLinetypeTableRecord
  2
ByBlock
 70
     0
  3

 72
    65
 73
     0
 40
0.0
  0
LTYPE
  5
5B
330
5
100
AcDbSymbolTableRecord
100
AcDbLinetypeTableRecord
  2
ByLayer
 70
     0
  3

 72
    65
 73
     0
 40
0.0
  0
LTYPE
  5
5C
330
5
100
AcDbSymbolTableRecord
100
AcDbLinetypeTableRecord
  2
CONTINUOUS
 70
     0
  3
Ausgezogene Linie
 72
    65
 73
     0
 40
0.0
  0
LTYPE
  5
77
330
5
100
AcDbSymbolTableRecord
100
AcDbLinetypeTableRecord
  2
RAND
 70
     0
  3
__ __ . __ __ . __ __ . __ __ . __ __ . __ __ .
 72
    65
 73
     6
 40
1.75
 49
0.5
 74
     0
 49
-0.25
 74
     0
 49
0.5
 74
     0
 49
-0.25
 74
     0
 49
0.0
 74
     0
 49
-0.25
 74
     0
  0
LTYPE
  5
78
330
5
100
AcDbSymbolTableRecord
100
AcDbLinetypeTableRecord
  2
RAND2
 70
     0
  3
__.__.__.__.__.__.__.__.__.__.__.__.__.__.__.__
 72
    65
 73
     6
 40
0.875
 49
0.25
 74
     0
 49
-0.125
 74
     0
 49
0.25
 74
     0
 49
-0.125
 74
     0
 49
0.0
 74
     0
 49
-0.125
 74
     0
  0
LTYPE
  5
79
330
5
100
AcDbSymbolTableRecord
100
AcDbLinetypeTableRecord
  2
RANDX2
 70
     0
  3
____  ____  .  ____  ____  .  ____  ____  .  __
 72
    65
 73
     6
 40
3.5
 49
1.0
 74
     0
 49
-0.5
 74
     0
 49
1.0
 74
     0
 49
-0.5
 74
     0
 49
0.0
 74
     0
 49
-0.5
 74
     0
  0
LTYPE
  5
7A
330
5
100
AcDbSymbolTableRecord
100
AcDbLinetypeTableRecord
  2
MITTE
 70
     0
  3
____ _ ____ _ ____ _ ____ _ ____ _ ____ _ ____ 
 72
    65
 73
     4
 40
2.0
 49
1.25
 74
     0
 49
-0.25
 74
     0
 49
0.25
 74
     0
 49
-0.25
 74
     0
  0
LTYPE
  5
7B
330
5
100
AcDbSymbolTableRecord
100
AcDbLinetypeTableRecord
  2
MITTE2
 70
     0
  3
___ _ ___ _ ___ _ ___ _ ___ _ ___ _ ___ _ ___ _
 72
    65
 73
     4
 40
1.125
 49
0.75
 74
     0
 49
-0.125
 74
     0
 49
0.125
 74
     0
 49
-0.125
 74
     0
  0
LTYPE
  5
7C
330
5
100
AcDbSymbolTableRecord
100
AcDbLinetypeTableRecord
  2
MITTEX2
 70
     0
  3
________  __  ________  __  ________  __  _____
 72
    65
 73
     4
 40
4.0
 49
2.5
 74
     0
 49
-0.5
 74
     0
 49
0.5
 74
     0
 49
-0.5
 74
     0
  0
LTYPE
  5
7D
330
5
100
AcDbSymbolTableRecord
100
AcDbLinetypeTableRecord
  2
STRICHPUNKT
 70
     0
  3
__ . __ . __ . __ . __ . __ . __ . __ . __ . __
 72
    65
 73
     4
 40
1.0
 49
0.5
 74
     0
 49
-0.25
 74
     0
 49
0.0
 74
     0
 49
-0.25
 74
     0
  0
LTYPE
  5
7E
330
5
100
AcDbSymbolTableRecord
100
AcDbLinetypeTableRecord
  2
STRICHPUNKT2
 70
     0
  3
_._._._._._._._._._._._._._._._._._._._._._._._
 72
    65
 73
     4
 40
0.5
 49
0.25
 74
     0
 49
-0.125
 74
     0
 49
0.0
 74
     0
 49
-0.125
 74
     0
  0
LTYPE
  5
7F
330
5
100
AcDbSymbolTableRecord
100
AcDbLinetypeTableRecord
  2
STRICHPUNKTX2
 70
     0
  3
____  .  ____  .  ____  .  ____  .  ____  .  __
 72
    65
 73
     4
 40
2.0
 49
1.0
 74
     0
 49
-0.5
 74
     0
 49
0.0
 74
     0
 49
-0.5
 74
     0
  0
LTYPE
  5
80
330
5
100
AcDbSymbolTableRecord
100
AcDbLinetypeTableRecord
  2
GESTRICHELT
 70
     0
  3
__ __ __ __ __ __ __ __ __ __ __ __ __ __ __ __
 72
    65
 73
     2
 40
0.75
 49
0.5
 74
     0
 49
-0.25
 74
     0
  0
LTYPE
  5
81
330
5
100
AcDbSymbolTableRecord
100
AcDbLinetypeTableRecord
  2
GESTRICHELT2
 70
     0
  3
_ _ _ _ _ _ _ _ _ _ _ _ _ _ _ _ _ _ _ _ _ _ _ _
 72
    65
 73
     2
 40
0.375
 49
0.25
 74
     0
 49
-0.125
 74
     0
  0
LTYPE
  5
82
330
5
100
AcDbSymbolTableRecord
100
AcDbLinetypeTableRecord
  2
GESTRICHELTX2
 70
     0
  3
____  ____  ____  ____  ____  ____  ____  ____ 
 72
    65
 73
     2
 40
1.5
 49
1.0
 74
     0
 49
-0.5
 74
     0
  0
LTYPE
  5
83
330
5
100
AcDbSymbolTableRecord
100
AcDbLinetypeTableRecord
  2
GETRENNT
 70
     0
  3
____ . . ____ . . ____ . . ____ . . ____ . . __
 72
    65
 73
     6
 40
1.25
 49
0.5
 74
     0
 49
-0.25
 74
     0
 49
0.0
 74
     0
 49
-0.25
 74
     0
 49
0.0
 74
     0
 49
-0.25
 74
     0
  0
LTYPE
  5
84
330
5
100
AcDbSymbolTableRecord
100
AcDbLinetypeTableRecord
  2
GETRENNT2
 70
     0
  3
__..__..__..__..__..__..__..__..__..__..__..__.
 72
    65
 73
     6
 40
0.625
 49
0.25
 74
     0
 49
-0.125
 74
     0
 49
0.0
 74
     0
 49
-0.125
 74
     0
 49
0.0
 74
     0
 49
-0.125
 74
     0
  0
LTYPE
  5
85
330
5
100
AcDbSymbolTableRecord
100
AcDbLinetypeTableRecord
  2
GETRENNTX2
 70
     0
  3
________  .  .  ________  .  .  ________  .  . 
 72
    65
 73
     6
 40
2.5
 49
1.0
 74
     0
 49
-0.5
 74
     0
 49
0.0
 74
     0
 49
-0.5
 74
     0
 49
0.0
 74
     0
 49
-0.5
 74
     0
  0
LTYPE
  5
86
330
5
100
AcDbSymbolTableRecord
100
AcDbLinetypeTableRecord
  2
PUNKT
 70
     0
  3
. . . . . . . . . . . . . . . . . . . . . . . .
 72
    65
 73
     2
 40
0.25
 49
0.0
 74
     0
 49
-0.25
 74
     0
  0
LTYPE
  5
87
330
5
100
AcDbSymbolTableRecord
100
AcDbLinetypeTableRecord
  2
PUNKT2
 70
     0
  3
...............................................
 72
    65
 73
     2
 40
0.125
 49
0.0
 74
     0
 49
-0.125
 74
     0
  0
LTYPE
  5
88
330
5
100
AcDbSymbolTableRecord
100
AcDbLinetypeTableRecord
  2
PUNKTX2
 70
     0
  3
.  .  .  .  .  .  .  .  .  .  .  .  .  .  .  . 
 72
    65
 73
     2
 40
0.5
 49
0.0
 74
     0
 49
-0.5
 74
     0
  0
LTYPE
  5
89
330
5
100
AcDbSymbolTableRecord
100
AcDbLinetypeTableRecord
  2
VERDECKT
 70
     0
  3
__ __ __ __ __ __ __ __ __ __ __ __ __ __ __ __
 72
    65
 73
     2
 40
0.375
 49
0.25
 74
     0
 49
-0.125
 74
     0
  0
LTYPE
  5
8A
330
5
100
AcDbSymbolTableRecord
100
AcDbLinetypeTableRecord
  2
VERDECKT2
 70
     0
  3
_ _ _ _ _ _ _ _ _ _ _ _ _ _ _ _ _ _ _ _ _ _ _ _
 72
    65
 73
     2
 40
0.1875
 49
0.125
 74
     0
 49
-0.0625
 74
     0
  0
LTYPE
  5
8B
330
5
100
AcDbSymbolTableRecord
100
AcDbLinetypeTableRecord
  2
VERDECKTX2
 70
     0
  3
____ ____ ____ ____ ____ ____ ____ ____ ____ __
 72
    65
 73
     2
 40
0.75
 49
0.5
 74
     0
 49
-0.25
 74
     0
  0
LTYPE
  5
8C
330
5
100
AcDbSymbolTableRecord
100
AcDbLinetypeTableRecord
  2
PHANTOM
 70
     0
  3
______  __  __  ______  __  __  ______  __  __ 
 72
    65
 73
     6
 40
2.5
 49
1.25
 74
     0
 49
-0.25
 74
     0
 49
0.25
 74
     0
 49
-0.25
 74
     0
 49
0.25
 74
     0
 49
-0.25
 74
     0
  0
LTYPE
  5
8D
330
5
100
AcDbSymbolTableRecord
100
AcDbLinetypeTableRecord
  2
PHANTOM2
 70
     0
  3
___ _ _ ___ _ _ ___ _ _ ___ _ _ ___ _ _ ___ _ _
 72
    65
 73
     6
 40
1.25
 49
0.625
 74
     0
 49
-0.125
 74
     0
 49
0.125
 74
     0
 49
-0.125
 74
     0
 49
0.125
 74
     0
 49
-0.125
 74
     0
  0
LTYPE
  5
8E
330
5
100
AcDbSymbolTableRecord
100
AcDbLinetypeTableRecord
  2
PHANTOMX2
 70
     0
  3
____________    ____    ____    ____________   
 72
    65
 73
     6
 40
5.0
 49
2.5
 74
     0
 49
-0.5
 74
     0
 49
0.5
 74
     0
 49
-0.5
 74
     0
 49
0.5
 74
     0
 49
-0.5
 74
     0
  0
ENDTAB
  0
TABLE
  2
LAYER
  5
2
102
{ACAD_XDICTIONARY
360
3D2
102
}
330
0
100
AcDbSymbolTable
 70
    10
  0
LAYER
  5
54
330
2
100
AcDbSymbolTableRecord
100
AcDbLayerTableRecord
  2
0
 70
     0
 62
     7
  6
CONTINUOUS
370
    -3
390
F
347
21
348
0
  0
LAYER
  5
91
330
2
100
AcDbSymbolTableRecord
100
AcDbLayerTableRecord
  2
GRABUNGSGRENZE
 70
     0
 62
     3
  6
STRICHPUNKTX2
370
    -3
390
F
347
21
348
0
  0
LAYER
  5
92
330
2
100
AcDbSymbolTableRecord
100
AcDbLayerTableRecord
  2
BEFUND
 70
     0
 62
     1
  6
CONTINUOUS
370
    -3
390
F
347
21
348
0
  0
LAYER
  5
93
330
2
100
AcDbSymbolTableRecord
100
AcDbLayerTableRecord
  2
STEINE
 70
     0
 62
     4
  6
CONTINUOUS
370
    -3
390
F
347
21
348
0
  0
LAYER
  5
94
330
2
100
AcDbSymbolTableRecord
100
AcDbLayerTableRecord
  2
KNOCHEN
 70
     0
 62
     2
  6
CONTINUOUS
370
    -3
390
F
347
21
348
0
  0
LAYER
  5
95
330
2
100
AcDbSymbolTableRecord
100
AcDbLayerTableRecord
  2
BEFUND_UNSICHER
 70
     0
 62
     1
  6
GESTRICHELT
370
    -3
390
F
347
21
348
0
  0
LAYER
  5
96
330
2
100
AcDbSymbolTableRecord
100
AcDbLayerTableRecord
  2
FEUER
 70
     0
 62
     1
  6
CONTINUOUS
370
    -3
390
F
347
21
348
0
  0
LAYER
  5
97
330
2
100
AcDbSymbolTableRecord
100
AcDbLayerTableRecord
  2
KNOCHENSCHRAFF
 70
     0
 62
     2
  6
CONTINUOUS
370
    -3
390
F
347
21
348
0
  0
LAYER
  5
98
330
2
100
AcDbSymbolTableRecord
100
AcDbLayerTableRecord
  2
TPROFIL
 70
     0
 62
     3
  6
CONTINUOUS
370
    -3
390
F
347
21
348
0
  0
LAYER
  5
99
330
2
100
AcDbSymbolTableRecord
100
AcDbLayerTableRecord
  2
STEINESCHRAFF
 70
     0
 62
     4
  6
CONTINUOUS
370
    -3
390
F
347
21
348
0
  0
ENDTAB
  0
TABLE
  2
STYLE
  5
3
330
0
100
AcDbSymbolTable
 70
     2
  0
STYLE
  5
55
330
3
100
AcDbSymbolTableRecord
100
AcDbTextStyleTableRecord
  2
STANDARD
 70
     0
 40
0.0
 41
1.0
 50
0.0
 71
     0
 42
3.5
  3
txt.shx
  4

  0
STYLE
  5
59
330
3
100
AcDbSymbolTableRecord
100
AcDbTextStyleTableRecord
  2
Annotative
 70
     0
 40
0.0
 41
1.0
 50
0.0
 71
     0
 42
3.5
  3
txt
  4

1001
AcadAnnotative
1000
AnnotativeData
1002
{
1070
     1
1070
     1
1002
}
  0
ENDTAB
  0
TABLE
  2
VIEW
  5
6
330
0
100
AcDbSymbolTable
 70
     1
  0
ENDTAB
  0
TABLE
  2
UCS
  5
7
330
0
100
AcDbSymbolTable
 70
     0
  0
ENDTAB
  0
TABLE
  2
APPID
  5
9
330
0
100
AcDbSymbolTable
 70
     3
  0
APPID
  5
56
330
9
100
AcDbSymbolTableRecord
100
AcDbRegAppTableRecord
  2
ACAD
 70
     0
  0
APPID
  5
5D
330
9
100
AcDbSymbolTableRecord
100
AcDbRegAppTableRecord
  2
AcadAnnotative
 70
     0
  0
APPID
  5
3DE
330
9
100
AcDbSymbolTableRecord
100
AcDbRegAppTableRecord
  2
ACAD_NAV_VCDISPLAY
 70
     0
  0
ENDTAB
  0
TABLE
  2
DIMSTYLE
  5
A
330
0
100
AcDbSymbolTable
 70
     2
100
AcDbDimStyleTable
 71
     0
  0
DIMSTYLE
105
57
330
A
100
AcDbSymbolTableRecord
100
AcDbDimStyleTableRecord
  2
Standard
 70
     0
340
55
  0
DIMSTYLE
105
58
330
A
100
AcDbSymbolTableRecord
100
AcDbDimStyleTableRecord
  2
Annotative
 70
     0
340
55
1001
AcadAnnotative
1000
AnnotativeData
1002
{
1070
     1
1070
     1
1002
}
  0
ENDTAB
  0
TABLE
  2
BLOCK_RECORD
  5
1
330
0
100
AcDbSymbolTable
 70
     4
  0
BLOCK_RECORD
  5
6F
330
1
100
AcDbSymbolTableRecord
100
AcDbBlockTableRecord
  2
*Model_Space
340
72
 70
     0
280
     1
281
     0
  0
BLOCK_RECORD
  5
6B
330
1
100
AcDbSymbolTableRecord
100
AcDbBlockTableRecord
  2
*Paper_Space
340
6E
 70
     0
280
     1
281
     0
  0
BLOCK_RECORD
  5
73
330
1
100
AcDbSymbolTableRecord
100
AcDbBlockTableRecord
  2
TPFEIL
340
0
 70
     0
280
     1
281
     0
  0
BLOCK_RECORD
  5
74
330
1
100
AcDbSymbolTableRecord
100
AcDbBlockTableRecord
  2
*X1
340
0
102
{BLKREFS
331
3C9
102
}
 70
     0
280
     1
281
     0
  0
BLOCK_RECORD
  5
75
330
1
100
AcDbSymbolTableRecord
100
AcDbBlockTableRecord
  2
*X2
340
0
102
{BLKREFS
331
3CA
102
}
 70
     0
280
     1
281
     0
  0
BLOCK_RECORD
  5
76
330
1
100
AcDbSymbolTableRecord
100
AcDbBlockTableRecord
  2
*X3
340
0
102
{BLKREFS
331
3CB
102
}
 70
     0
280
     1
281
     0
  0
ENDTAB
  0
ENDSEC
  0
SECTION
  2
BLOCKS
  0
BLOCK
  5
9C
330
6F
100
AcDbEntity
  8
0
100
AcDbBlockBegin
  2
*Model_Space
 70
     0
 10
0.0
 20
0.0
 30
0.0
  3
*Model_Space
  1

  0
ENDBLK
  5
9D
330
6F
100
AcDbEntity
  8
0
100
AcDbBlockEnd
  0
BLOCK
  5
9A
330
6B
100
AcDbEntity
 67
     1
  8
0
100
AcDbBlockBegin
  2
*Paper_Space
 70
     0
 10
0.0
 20
0.0
 30
0.0
  3
*Paper_Space
  1

  0
ENDBLK
  5
9B
330
6B
100
AcDbEntity
 67
     1
  8
0
100
AcDbBlockEnd
  0
BLOCK
  5
9E
330
73
100
AcDbEntity
  8
0
100
AcDbBlockBegin
  2
TPFEIL
 70
     0
 10
0.0
 20
0.0
 30
0.0
  3
TPFEIL
  1

  0
LWPOLYLINE
  5
9F
330
73
100
AcDbEntity
  8
GRABUNGSGRENZE
100
AcDbPolyline
 90
        2
 70
     0
 10
0.0
 20
-10.0
 40
5.0
 41
0.0
 10
0.0
 20
0.0
 40
0.0
 41
0.0
  0
ENDBLK
  5
A3
330
73
100
AcDbEntity
  8
0
100
AcDbBlockEnd
  0
BLOCK
  5
A4
330
74
100
AcDbEntity
  8
0
100
AcDbBlockBegin
  2
*X1
 70
     1
 10
0.0
 20
0.0
 30
0.0
  3
*X1
  1

  0
LINE
  5
A5
330
74
100
AcDbEntity
  8
0
 62
     0
100
AcDbLine
 10
-258.1380763029655
 20
-1783.720956712941
 30
0.0
 11
-253.9519652970542
 21
-1779.53484570703
 31
0.0
  0
LINE
  5
A6
330
74
100
AcDbEntity
  8
0
 62
     0
100
AcDbLine
 10
-258.7763846250293
 20
-1782.591498082039
 30
0.0
 11
-254.9232033223161
 21
-1778.738316779326
 31
0.0
  0
LINE
  5
A7
330
74
100
AcDbEntity
  8
0
 62
     0
100
AcDbLine
 10
-259.8782662308344
 20
-1781.925612734878
 30
0.0
 11
-257.2872628702505
 21
-1779.334609374294
 31
0.0
  0
LINE
  5
A8
330
74
100
AcDbEntity
  8
0
 62
     0
100
AcDbLine
 10
-261.0989862140158
 20
-1781.378565765093
 30
0.0
 11
-259.2334718930108
 21
-1779.513051444087
 31
0.0
  0
LINE
  5
A9
330
74
100
AcDbEntity
  8
0
 62
     0
100
AcDbLine
 10
-262.2048786596409
 20
-1780.716691257751
 30
0.0
 11
-260.9114966067668
 21
-1779.423309204877
 31
0.0
  0
LINE
  5
AA
330
74
100
AcDbEntity
  8
0
 62
     0
100
AcDbLine
 10
-255.6378451006273
 20
-1782.98849246357
 30
0.0
 11
-253.2724573757574
 21
-1780.6231047387
 31
0.0
  0
LINE
  5
AB
330
74
100
AcDbEntity
  8
0
 62
     0
100
AcDbLine
 10
-257.9837506209461
 20
-1790.637698842788
 30
0.0
 11
-256.2365241368818
 21
-1788.890472358723
 31
0.0
  0
LINE
  5
AC
330
74
100
AcDbEntity
  8
0
 62
     0
100
AcDbLine
 10
-255.8483914903623
 20
-1790.27010666517
 30
0.0
 11
-255.1891311349046
 21
-1789.610846309712
 31
0.0
  0
ENDBLK
  5
AD
330
74
100
AcDbEntity
  8
0
100
AcDbBlockEnd
  0
BLOCK
  5
AE
330
75
100
AcDbEntity
  8
0
100
AcDbBlockBegin
  2
*X2
 70
     1
 10
0.0
 20
0.0
 30
0.0
  3
*X2
  1

  0
LINE
  5
AF
330
75
100
AcDbEntity
  8
0
 62
     0
100
AcDbLine
 10
-280.625
 20
-1781.25
 30
0.0
 11
-280.625
 21
-1781.25
 31
0.0
  0
LINE
  5
B0
330
75
100
AcDbEntity
  8
0
 62
     0
100
AcDbLine
 10
-283.75
 20
-1780.0
 30
0.0
 11
-283.75
 21
-1780.0
 31
0.0
  0
LINE
  5
B1
330
75
100
AcDbEntity
  8
0
 62
     0
100
AcDbLine
 10
-282.5
 20
-1780.0
 30
0.0
 11
-282.5
 21
-1780.0
 31
0.0
  0
LINE
  5
B2
330
75
100
AcDbEntity
  8
0
 62
     0
100
AcDbLine
 10
-281.25
 20
-1780.0
 30
0.0
 11
-281.25
 21
-1780.0
 31
0.0
  0
LINE
  5
B3
330
75
100
AcDbEntity
  8
0
 62
     0
100
AcDbLine
 10
-280.0
 20
-1780.0
 30
0.0
 11
-280.0
 21
-1780.0
 31
0.0
  0
LINE
  5
B4
330
75
100
AcDbEntity
  8
0
 62
     0
100
AcDbLine
 10
-283.125
 20
-1778.75
 30
0.0
 11
-283.125
 21
-1778.75
 31
0.0
  0
LINE
  5
B5
330
75
100
AcDbEntity
  8
0
 62
     0
100
AcDbLine
 10
-281.875
 20
-1778.75
 30
0.0
 11
-281.875
 21
-1778.75
 31
0.0
  0
LINE
  5
B6
330
75
100
AcDbEntity
  8
0
 62
     0
100
AcDbLine
 10
-280.625
 20
-1778.75
 30
0.0
 11
-280.625
 21
-1778.75
 31
0.0
  0
LINE
  5
B7
330
75
100
AcDbEntity
  8
0
 62
     0
100
AcDbLine
 10
-279.375
 20
-1778.75
 30
0.0
 11
-279.375
 21
-1778.75
 31
0.0
  0
LINE
  5
B8
330
75
100
AcDbEntity
  8
0
 62
     0
100
AcDbLine
 10
-278.125
 20
-1778.75
 30
0.0
 11
-278.125
 21
-1778.75
 31
0.0
  0
LINE
  5
B9
330
75
100
AcDbEntity
  8
0
 62
     0
100
AcDbLine
 10
-282.5000000000001
 20
-1777.5
 30
0.0
 11
-282.5000000000001
 21
-1777.5
 31
0.0
  0
LINE
  5
BA
330
75
100
AcDbEntity
  8
0
 62
     0
100
AcDbLine
 10
-281.25
 20
-1777.5
 30
0.0
 11
-281.25
 21
-1777.5
 31
0.0
  0
LINE
  5
BB
330
75
100
AcDbEntity
  8
0
 62
     0
100
AcDbLine
 10
-280.0000000000001
 20
-1777.5
 30
0.0
 11
-280.0000000000001
 21
-1777.5
 31
0.0
  0
LINE
  5
BC
330
75
100
AcDbEntity
  8
0
 62
     0
100
AcDbLine
 10
-278.75
 20
-1777.5
 30
0.0
 11
-278.75
 21
-1777.5
 31
0.0
  0
LINE
  5
BD
330
75
100
AcDbEntity
  8
0
 62
     0
100
AcDbLine
 10
-255.625
 20
-1766.25
 30
0.0
 11
-255.625
 21
-1766.25
 31
0.0
  0
LINE
  5
BE
330
75
100
AcDbEntity
  8
0
 62
     0
100
AcDbLine
 10
-254.375
 20
-1766.25
 30
0.0
 11
-254.375
 21
-1766.25
 31
0.0
  0
LINE
  5
BF
330
75
100
AcDbEntity
  8
0
 62
     0
100
AcDbLine
 10
-253.125
 20
-1766.25
 30
0.0
 11
-253.125
 21
-1766.25
 31
0.0
  0
LINE
  5
C0
330
75
100
AcDbEntity
  8
0
 62
     0
100
AcDbLine
 10
-256.25
 20
-1765.0
 30
0.0
 11
-256.25
 21
-1765.0
 31
0.0
  0
LINE
  5
C1
330
75
100
AcDbEntity
  8
0
 62
     0
100
AcDbLine
 10
-255.0
 20
-1765.0
 30
0.0
 11
-255.0
 21
-1765.0
 31
0.0
  0
LINE
  5
C2
330
75
100
AcDbEntity
  8
0
 62
     0
100
AcDbLine
 10
-253.75
 20
-1765.0
 30
0.0
 11
-253.75
 21
-1765.0
 31
0.0
  0
LINE
  5
C3
330
75
100
AcDbEntity
  8
0
 62
     0
100
AcDbLine
 10
-252.5
 20
-1765.0
 30
0.0
 11
-252.5
 21
-1765.0
 31
0.0
  0
LINE
  5
C4
330
75
100
AcDbEntity
  8
0
 62
     0
100
AcDbLine
 10
-256.875
 20
-1763.75
 30
0.0
 11
-256.875
 21
-1763.75
 31
0.0
  0
LINE
  5
C5
330
75
100
AcDbEntity
  8
0
 62
     0
100
AcDbLine
 10
-255.625
 20
-1763.75
 30
0.0
 11
-255.625
 21
-1763.75
 31
0.0
  0
LINE
  5
C6
330
75
100
AcDbEntity
  8
0
 62
     0
100
AcDbLine
 10
-254.375
 20
-1763.75
 30
0.0
 11
-254.375
 21
-1763.75
 31
0.0
  0
LINE
  5
C7
330
75
100
AcDbEntity
  8
0
 62
     0
100
AcDbLine
 10
-253.125
 20
-1763.75
 30
0.0
 11
-253.125
 21
-1763.75
 31
0.0
  0
LINE
  5
C8
330
75
100
AcDbEntity
  8
0
 62
     0
100
AcDbLine
 10
-251.875
 20
-1763.75
 30
0.0
 11
-251.875
 21
-1763.75
 31
0.0
  0
LINE
  5
C9
330
75
100
AcDbEntity
  8
0
 62
     0
100
AcDbLine
 10
-243.125
 20
-1763.75
 30
0.0
 11
-243.125
 21
-1763.75
 31
0.0
  0
LINE
  5
CA
330
75
100
AcDbEntity
  8
0
 62
     0
100
AcDbLine
 10
-241.875
 20
-1763.75
 30
0.0
 11
-241.875
 21
-1763.75
 31
0.0
  0
LINE
  5
CB
330
75
100
AcDbEntity
  8
0
 62
     0
100
AcDbLine
 10
-257.5
 20
-1762.5
 30
0.0
 11
-257.5
 21
-1762.5
 31
0.0
  0
LINE
  5
CC
330
75
100
AcDbEntity
  8
0
 62
     0
100
AcDbLine
 10
-256.25
 20
-1762.5
 30
0.0
 11
-256.25
 21
-1762.5
 31
0.0
  0
LINE
  5
CD
330
75
100
AcDbEntity
  8
0
 62
     0
100
AcDbLine
 10
-255.0
 20
-1762.5
 30
0.0
 11
-255.0
 21
-1762.5
 31
0.0
  0
LINE
  5
CE
330
75
100
AcDbEntity
  8
0
 62
     0
100
AcDbLine
 10
-253.75
 20
-1762.5
 30
0.0
 11
-253.75
 21
-1762.5
 31
0.0
  0
LINE
  5
CF
330
75
100
AcDbEntity
  8
0
 62
     0
100
AcDbLine
 10
-252.5
 20
-1762.5
 30
0.0
 11
-252.5
 21
-1762.5
 31
0.0
  0
LINE
  5
D0
330
75
100
AcDbEntity
  8
0
 62
     0
100
AcDbLine
 10
-251.25
 20
-1762.5
 30
0.0
 11
-251.25
 21
-1762.5
 31
0.0
  0
LINE
  5
D1
330
75
100
AcDbEntity
  8
0
 62
     0
100
AcDbLine
 10
-244.9999999999999
 20
-1762.5
 30
0.0
 11
-244.9999999999999
 21
-1762.5
 31
0.0
  0
LINE
  5
D2
330
75
100
AcDbEntity
  8
0
 62
     0
100
AcDbLine
 10
-243.75
 20
-1762.5
 30
0.0
 11
-243.75
 21
-1762.5
 31
0.0
  0
LINE
  5
D3
330
75
100
AcDbEntity
  8
0
 62
     0
100
AcDbLine
 10
-242.4999999999999
 20
-1762.5
 30
0.0
 11
-242.4999999999999
 21
-1762.5
 31
0.0
  0
LINE
  5
D4
330
75
100
AcDbEntity
  8
0
 62
     0
100
AcDbLine
 10
-241.25
 20
-1762.5
 30
0.0
 11
-241.25
 21
-1762.5
 31
0.0
  0
LINE
  5
D5
330
75
100
AcDbEntity
  8
0
 62
     0
100
AcDbLine
 10
-256.875
 20
-1761.25
 30
0.0
 11
-256.875
 21
-1761.25
 31
0.0
  0
LINE
  5
D6
330
75
100
AcDbEntity
  8
0
 62
     0
100
AcDbLine
 10
-255.625
 20
-1761.25
 30
0.0
 11
-255.625
 21
-1761.25
 31
0.0
  0
LINE
  5
D7
330
75
100
AcDbEntity
  8
0
 62
     0
100
AcDbLine
 10
-246.875
 20
-1758.75
 30
0.0
 11
-246.875
 21
-1758.75
 31
0.0
  0
LINE
  5
D8
330
75
100
AcDbEntity
  8
0
 62
     0
100
AcDbLine
 10
-245.625
 20
-1758.75
 30
0.0
 11
-245.625
 21
-1758.75
 31
0.0
  0
LINE
  5
D9
330
75
100
AcDbEntity
  8
0
 62
     0
100
AcDbLine
 10
-239.375
 20
-1758.75
 30
0.0
 11
-239.375
 21
-1758.75
 31
0.0
  0
LINE
  5
DA
330
75
100
AcDbEntity
  8
0
 62
     0
100
AcDbLine
 10
-238.125
 20
-1758.75
 30
0.0
 11
-238.125
 21
-1758.75
 31
0.0
  0
LINE
  5
DB
330
75
100
AcDbEntity
  8
0
 62
     0
100
AcDbLine
 10
-236.875
 20
-1758.75
 30
0.0
 11
-236.875
 21
-1758.75
 31
0.0
  0
LINE
  5
DC
330
75
100
AcDbEntity
  8
0
 62
     0
100
AcDbLine
 10
-248.75
 20
-1757.5
 30
0.0
 11
-248.75
 21
-1757.5
 31
0.0
  0
LINE
  5
DD
330
75
100
AcDbEntity
  8
0
 62
     0
100
AcDbLine
 10
-247.5
 20
-1757.5
 30
0.0
 11
-247.5
 21
-1757.5
 31
0.0
  0
LINE
  5
DE
330
75
100
AcDbEntity
  8
0
 62
     0
100
AcDbLine
 10
-246.25
 20
-1757.5
 30
0.0
 11
-246.25
 21
-1757.5
 31
0.0
  0
LINE
  5
DF
330
75
100
AcDbEntity
  8
0
 62
     0
100
AcDbLine
 10
-261.8750000000001
 20
-1756.25
 30
0.0
 11
-261.8750000000001
 21
-1756.25
 31
0.0
  0
LINE
  5
E0
330
75
100
AcDbEntity
  8
0
 62
     0
100
AcDbLine
 10
-260.6250000000001
 20
-1756.25
 30
0.0
 11
-260.6250000000001
 21
-1756.25
 31
0.0
  0
LINE
  5
E1
330
75
100
AcDbEntity
  8
0
 62
     0
100
AcDbLine
 10
-259.375
 20
-1756.25
 30
0.0
 11
-259.375
 21
-1756.25
 31
0.0
  0
LINE
  5
E2
330
75
100
AcDbEntity
  8
0
 62
     0
100
AcDbLine
 10
-258.1250000000001
 20
-1756.25
 30
0.0
 11
-258.1250000000001
 21
-1756.25
 31
0.0
  0
LINE
  5
E3
330
75
100
AcDbEntity
  8
0
 62
     0
100
AcDbLine
 10
-248.125
 20
-1756.25
 30
0.0
 11
-248.125
 21
-1756.25
 31
0.0
  0
LINE
  5
E4
330
75
100
AcDbEntity
  8
0
 62
     0
100
AcDbLine
 10
-263.75
 20
-1755.0
 30
0.0
 11
-263.75
 21
-1755.0
 31
0.0
  0
LINE
  5
E5
330
75
100
AcDbEntity
  8
0
 62
     0
100
AcDbLine
 10
-262.5
 20
-1755.0
 30
0.0
 11
-262.5
 21
-1755.0
 31
0.0
  0
LINE
  5
E6
330
75
100
AcDbEntity
  8
0
 62
     0
100
AcDbLine
 10
-261.25
 20
-1755.0
 30
0.0
 11
-261.25
 21
-1755.0
 31
0.0
  0
LINE
  5
E7
330
75
100
AcDbEntity
  8
0
 62
     0
100
AcDbLine
 10
-260.0
 20
-1755.0
 30
0.0
 11
-260.0
 21
-1755.0
 31
0.0
  0
LINE
  5
E8
330
75
100
AcDbEntity
  8
0
 62
     0
100
AcDbLine
 10
-258.75
 20
-1755.0
 30
0.0
 11
-258.75
 21
-1755.0
 31
0.0
  0
LINE
  5
E9
330
75
100
AcDbEntity
  8
0
 62
     0
100
AcDbLine
 10
-257.5
 20
-1755.0
 30
0.0
 11
-257.5
 21
-1755.0
 31
0.0
  0
LINE
  5
EA
330
75
100
AcDbEntity
  8
0
 62
     0
100
AcDbLine
 10
-256.25
 20
-1755.0
 30
0.0
 11
-256.25
 21
-1755.0
 31
0.0
  0
LINE
  5
EB
330
75
100
AcDbEntity
  8
0
 62
     0
100
AcDbLine
 10
-255.0
 20
-1755.0
 30
0.0
 11
-255.0
 21
-1755.0
 31
0.0
  0
LINE
  5
EC
330
75
100
AcDbEntity
  8
0
 62
     0
100
AcDbLine
 10
-264.375
 20
-1753.75
 30
0.0
 11
-264.375
 21
-1753.75
 31
0.0
  0
LINE
  5
ED
330
75
100
AcDbEntity
  8
0
 62
     0
100
AcDbLine
 10
-263.125
 20
-1753.75
 30
0.0
 11
-263.125
 21
-1753.75
 31
0.0
  0
LINE
  5
EE
330
75
100
AcDbEntity
  8
0
 62
     0
100
AcDbLine
 10
-261.875
 20
-1753.75
 30
0.0
 11
-261.875
 21
-1753.75
 31
0.0
  0
LINE
  5
EF
330
75
100
AcDbEntity
  8
0
 62
     0
100
AcDbLine
 10
-260.625
 20
-1753.75
 30
0.0
 11
-260.625
 21
-1753.75
 31
0.0
  0
LINE
  5
F0
330
75
100
AcDbEntity
  8
0
 62
     0
100
AcDbLine
 10
-259.375
 20
-1753.75
 30
0.0
 11
-259.375
 21
-1753.75
 31
0.0
  0
LINE
  5
F1
330
75
100
AcDbEntity
  8
0
 62
     0
100
AcDbLine
 10
-258.125
 20
-1753.75
 30
0.0
 11
-258.125
 21
-1753.75
 31
0.0
  0
LINE
  5
F2
330
75
100
AcDbEntity
  8
0
 62
     0
100
AcDbLine
 10
-280.0
 20
-1787.5
 30
0.0
 11
-280.0
 21
-1787.5
 31
0.0
  0
LINE
  5
F3
330
75
100
AcDbEntity
  8
0
 62
     0
100
AcDbLine
 10
-281.875
 20
-1788.75
 30
0.0
 11
-281.875
 21
-1788.75
 31
0.0
  0
LINE
  5
F4
330
75
100
AcDbEntity
  8
0
 62
     0
100
AcDbLine
 10
-280.625
 20
-1788.75
 30
0.0
 11
-280.625
 21
-1788.75
 31
0.0
  0
LINE
  5
F5
330
75
100
AcDbEntity
  8
0
 62
     0
100
AcDbLine
 10
-279.3749999999999
 20
-1788.75
 30
0.0
 11
-279.3749999999999
 21
-1788.75
 31
0.0
  0
LINE
  5
F6
330
75
100
AcDbEntity
  8
0
 62
     0
100
AcDbLine
 10
-271.875
 20
-1788.75
 30
0.0
 11
-271.875
 21
-1788.75
 31
0.0
  0
LINE
  5
F7
330
75
100
AcDbEntity
  8
0
 62
     0
100
AcDbLine
 10
-270.625
 20
-1788.75
 30
0.0
 11
-270.625
 21
-1788.75
 31
0.0
  0
LINE
  5
F8
330
75
100
AcDbEntity
  8
0
 62
     0
100
AcDbLine
 10
-276.2500000000001
 20
-1790.0
 30
0.0
 11
-276.2500000000001
 21
-1790.0
 31
0.0
  0
LINE
  5
F9
330
75
100
AcDbEntity
  8
0
 62
     0
100
AcDbLine
 10
-275.0
 20
-1790.0
 30
0.0
 11
-275.0
 21
-1790.0
 31
0.0
  0
LINE
  5
FA
330
75
100
AcDbEntity
  8
0
 62
     0
100
AcDbLine
 10
-273.7500000000001
 20
-1790.0
 30
0.0
 11
-273.7500000000001
 21
-1790.0
 31
0.0
  0
LINE
  5
FB
330
75
100
AcDbEntity
  8
0
 62
     0
100
AcDbLine
 10
-272.5
 20
-1790.0
 30
0.0
 11
-272.5
 21
-1790.0
 31
0.0
  0
LINE
  5
FC
330
75
100
AcDbEntity
  8
0
 62
     0
100
AcDbLine
 10
-271.2500000000001
 20
-1790.0
 30
0.0
 11
-271.2500000000001
 21
-1790.0
 31
0.0
  0
LINE
  5
FD
330
75
100
AcDbEntity
  8
0
 62
     0
100
AcDbLine
 10
-270.0000000000001
 20
-1790.0
 30
0.0
 11
-270.0000000000001
 21
-1790.0
 31
0.0
  0
LINE
  5
FE
330
75
100
AcDbEntity
  8
0
 62
     0
100
AcDbLine
 10
-268.75
 20
-1790.0
 30
0.0
 11
-268.75
 21
-1790.0
 31
0.0
  0
LINE
  5
FF
330
75
100
AcDbEntity
  8
0
 62
     0
100
AcDbLine
 10
-267.5000000000001
 20
-1790.0
 30
0.0
 11
-267.5000000000001
 21
-1790.0
 31
0.0
  0
LINE
  5
100
330
75
100
AcDbEntity
  8
0
 62
     0
100
AcDbLine
 10
-276.8749999999999
 20
-1791.25
 30
0.0
 11
-276.8749999999999
 21
-1791.25
 31
0.0
  0
LINE
  5
101
330
75
100
AcDbEntity
  8
0
 62
     0
100
AcDbLine
 10
-275.625
 20
-1791.25
 30
0.0
 11
-275.625
 21
-1791.25
 31
0.0
  0
LINE
  5
102
330
75
100
AcDbEntity
  8
0
 62
     0
100
AcDbLine
 10
-274.3749999999999
 20
-1791.25
 30
0.0
 11
-274.3749999999999
 21
-1791.25
 31
0.0
  0
LINE
  5
103
330
75
100
AcDbEntity
  8
0
 62
     0
100
AcDbLine
 10
-273.1249999999999
 20
-1791.25
 30
0.0
 11
-273.1249999999999
 21
-1791.25
 31
0.0
  0
LINE
  5
104
330
75
100
AcDbEntity
  8
0
 62
     0
100
AcDbLine
 10
-271.875
 20
-1791.25
 30
0.0
 11
-271.875
 21
-1791.25
 31
0.0
  0
LINE
  5
105
330
75
100
AcDbEntity
  8
0
 62
     0
100
AcDbLine
 10
-270.6249999999999
 20
-1791.25
 30
0.0
 11
-270.6249999999999
 21
-1791.25
 31
0.0
  0
LINE
  5
106
330
75
100
AcDbEntity
  8
0
 62
     0
100
AcDbLine
 10
-269.375
 20
-1791.25
 30
0.0
 11
-269.375
 21
-1791.25
 31
0.0
  0
LINE
  5
107
330
75
100
AcDbEntity
  8
0
 62
     0
100
AcDbLine
 10
-268.1249999999999
 20
-1791.25
 30
0.0
 11
-268.1249999999999
 21
-1791.25
 31
0.0
  0
LINE
  5
108
330
75
100
AcDbEntity
  8
0
 62
     0
100
AcDbLine
 10
-266.8749999999999
 20
-1791.25
 30
0.0
 11
-266.8749999999999
 21
-1791.25
 31
0.0
  0
LINE
  5
109
330
75
100
AcDbEntity
  8
0
 62
     0
100
AcDbLine
 10
-265.625
 20
-1791.25
 30
0.0
 11
-265.625
 21
-1791.25
 31
0.0
  0
LINE
  5
10A
330
75
100
AcDbEntity
  8
0
 62
     0
100
AcDbLine
 10
-276.2499999999999
 20
-1792.5
 30
0.0
 11
-276.2499999999999
 21
-1792.5
 31
0.0
  0
LINE
  5
10B
330
75
100
AcDbEntity
  8
0
 62
     0
100
AcDbLine
 10
-275.0
 20
-1792.5
 30
0.0
 11
-275.0
 21
-1792.5
 31
0.0
  0
LINE
  5
10C
330
75
100
AcDbEntity
  8
0
 62
     0
100
AcDbLine
 10
-273.7499999999999
 20
-1792.5
 30
0.0
 11
-273.7499999999999
 21
-1792.5
 31
0.0
  0
LINE
  5
10D
330
75
100
AcDbEntity
  8
0
 62
     0
100
AcDbLine
 10
-272.5
 20
-1792.5
 30
0.0
 11
-272.5
 21
-1792.5
 31
0.0
  0
LINE
  5
10E
330
75
100
AcDbEntity
  8
0
 62
     0
100
AcDbLine
 10
-271.2499999999999
 20
-1792.5
 30
0.0
 11
-271.2499999999999
 21
-1792.5
 31
0.0
  0
LINE
  5
10F
330
75
100
AcDbEntity
  8
0
 62
     0
100
AcDbLine
 10
-269.9999999999999
 20
-1792.5
 30
0.0
 11
-269.9999999999999
 21
-1792.5
 31
0.0
  0
LINE
  5
110
330
75
100
AcDbEntity
  8
0
 62
     0
100
AcDbLine
 10
-268.75
 20
-1792.5
 30
0.0
 11
-268.75
 21
-1792.5
 31
0.0
  0
LINE
  5
111
330
75
100
AcDbEntity
  8
0
 62
     0
100
AcDbLine
 10
-267.4999999999999
 20
-1792.5
 30
0.0
 11
-267.4999999999999
 21
-1792.5
 31
0.0
  0
LINE
  5
112
330
75
100
AcDbEntity
  8
0
 62
     0
100
AcDbLine
 10
-266.25
 20
-1792.5
 30
0.0
 11
-266.25
 21
-1792.5
 31
0.0
  0
LINE
  5
113
330
75
100
AcDbEntity
  8
0
 62
     0
100
AcDbLine
 10
-274.3750000000001
 20
-1793.75
 30
0.0
 11
-274.3750000000001
 21
-1793.75
 31
0.0
  0
LINE
  5
114
330
75
100
AcDbEntity
  8
0
 62
     0
100
AcDbLine
 10
-273.1250000000001
 20
-1793.75
 30
0.0
 11
-273.1250000000001
 21
-1793.75
 31
0.0
  0
LINE
  5
115
330
75
100
AcDbEntity
  8
0
 62
     0
100
AcDbLine
 10
-271.875
 20
-1793.75
 30
0.0
 11
-271.875
 21
-1793.75
 31
0.0
  0
LINE
  5
116
330
75
100
AcDbEntity
  8
0
 62
     0
100
AcDbLine
 10
-270.6250000000001
 20
-1793.75
 30
0.0
 11
-270.6250000000001
 21
-1793.75
 31
0.0
  0
LINE
  5
117
330
75
100
AcDbEntity
  8
0
 62
     0
100
AcDbLine
 10
-269.375
 20
-1793.75
 30
0.0
 11
-269.375
 21
-1793.75
 31
0.0
  0
LINE
  5
118
330
75
100
AcDbEntity
  8
0
 62
     0
100
AcDbLine
 10
-268.1250000000001
 20
-1793.75
 30
0.0
 11
-268.1250000000001
 21
-1793.75
 31
0.0
  0
LINE
  5
119
330
75
100
AcDbEntity
  8
0
 62
     0
100
AcDbLine
 10
-266.8750000000001
 20
-1793.75
 30
0.0
 11
-266.8750000000001
 21
-1793.75
 31
0.0
  0
LINE
  5
11A
330
75
100
AcDbEntity
  8
0
 62
     0
100
AcDbLine
 10
-223.7499999999999
 20
-1815.0
 30
0.0
 11
-223.7499999999999
 21
-1815.0
 31
0.0
  0
LINE
  5
11B
330
75
100
AcDbEntity
  8
0
 62
     0
100
AcDbLine
 10
-222.5
 20
-1815.0
 30
0.0
 11
-222.5
 21
-1815.0
 31
0.0
  0
LINE
  5
11C
330
75
100
AcDbEntity
  8
0
 62
     0
100
AcDbLine
 10
-224.375
 20
-1816.25
 30
0.0
 11
-224.375
 21
-1816.25
 31
0.0
  0
LINE
  5
11D
330
75
100
AcDbEntity
  8
0
 62
     0
100
AcDbLine
 10
-223.125
 20
-1816.25
 30
0.0
 11
-223.125
 21
-1816.25
 31
0.0
  0
LINE
  5
11E
330
75
100
AcDbEntity
  8
0
 62
     0
100
AcDbLine
 10
-221.875
 20
-1816.25
 30
0.0
 11
-221.875
 21
-1816.25
 31
0.0
  0
LINE
  5
11F
330
75
100
AcDbEntity
  8
0
 62
     0
100
AcDbLine
 10
-222.5
 20
-1817.5
 30
0.0
 11
-222.5
 21
-1817.5
 31
0.0
  0
LINE
  5
120
330
75
100
AcDbEntity
  8
0
 62
     0
100
AcDbLine
 10
-221.875
 20
-1818.75
 30
0.0
 11
-221.875
 21
-1818.75
 31
0.0
  0
ENDBLK
  5
121
330
75
100
AcDbEntity
  8
0
100
AcDbBlockEnd
  0
BLOCK
  5
122
330
76
100
AcDbEntity
  8
0
100
AcDbBlockBegin
  2
*X3
 70
     1
 10
0.0
 20
0.0
 30
0.0
  3
*X3
  1

  0
LINE
  5
123
330
76
100
AcDbEntity
  8
0
 62
     0
100
AcDbLine
 10
-196.25
 20
-1797.5
 30
0.0
 11
-196.25
 21
-1797.5
 31
0.0
  0
LINE
  5
124
330
76
100
AcDbEntity
  8
0
 62
     0
100
AcDbLine
 10
-195.0
 20
-1797.5
 30
0.0
 11
-195.0
 21
-1797.5
 31
0.0
  0
LINE
  5
125
330
76
100
AcDbEntity
  8
0
 62
     0
100
AcDbLine
 10
-193.75
 20
-1797.5
 30
0.0
 11
-193.75
 21
-1797.5
 31
0.0
  0
LINE
  5
126
330
76
100
AcDbEntity
  8
0
 62
     0
100
AcDbLine
 10
-192.5
 20
-1797.5
 30
0.0
 11
-192.5
 21
-1797.5
 31
0.0
  0
LINE
  5
127
330
76
100
AcDbEntity
  8
0
 62
     0
100
AcDbLine
 10
-191.2499999999999
 20
-1797.5
 30
0.0
 11
-191.2499999999999
 21
-1797.5
 31
0.0
  0
LINE
  5
128
330
76
100
AcDbEntity
  8
0
 62
     0
100
AcDbLine
 10
-190.0
 20
-1797.5
 30
0.0
 11
-190.0
 21
-1797.5
 31
0.0
  0
LINE
  5
129
330
76
100
AcDbEntity
  8
0
 62
     0
100
AcDbLine
 10
-158.75
 20
-1797.5
 30
0.0
 11
-158.75
 21
-1797.5
 31
0.0
  0
LINE
  5
12A
330
76
100
AcDbEntity
  8
0
 62
     0
100
AcDbLine
 10
-157.5
 20
-1797.5
 30
0.0
 11
-157.5
 21
-1797.5
 31
0.0
  0
LINE
  5
12B
330
76
100
AcDbEntity
  8
0
 62
     0
100
AcDbLine
 10
-196.875
 20
-1796.25
 30
0.0
 11
-196.875
 21
-1796.25
 31
0.0
  0
LINE
  5
12C
330
76
100
AcDbEntity
  8
0
 62
     0
100
AcDbLine
 10
-195.625
 20
-1796.25
 30
0.0
 11
-195.625
 21
-1796.25
 31
0.0
  0
LINE
  5
12D
330
76
100
AcDbEntity
  8
0
 62
     0
100
AcDbLine
 10
-194.375
 20
-1796.25
 30
0.0
 11
-194.375
 21
-1796.25
 31
0.0
  0
LINE
  5
12E
330
76
100
AcDbEntity
  8
0
 62
     0
100
AcDbLine
 10
-193.125
 20
-1796.25
 30
0.0
 11
-193.125
 21
-1796.25
 31
0.0
  0
LINE
  5
12F
330
76
100
AcDbEntity
  8
0
 62
     0
100
AcDbLine
 10
-191.875
 20
-1796.25
 30
0.0
 11
-191.875
 21
-1796.25
 31
0.0
  0
LINE
  5
130
330
76
100
AcDbEntity
  8
0
 62
     0
100
AcDbLine
 10
-190.625
 20
-1796.25
 30
0.0
 11
-190.625
 21
-1796.25
 31
0.0
  0
LINE
  5
131
330
76
100
AcDbEntity
  8
0
 62
     0
100
AcDbLine
 10
-151.875
 20
-1796.25
 30
0.0
 11
-151.875
 21
-1796.25
 31
0.0
  0
LINE
  5
132
330
76
100
AcDbEntity
  8
0
 62
     0
100
AcDbLine
 10
-150.6249999999999
 20
-1796.25
 30
0.0
 11
-150.6249999999999
 21
-1796.25
 31
0.0
  0
LINE
  5
133
330
76
100
AcDbEntity
  8
0
 62
     0
100
AcDbLine
 10
-149.3749999999999
 20
-1796.25
 30
0.0
 11
-149.3749999999999
 21
-1796.25
 31
0.0
  0
LINE
  5
134
330
76
100
AcDbEntity
  8
0
 62
     0
100
AcDbLine
 10
-148.125
 20
-1796.25
 30
0.0
 11
-148.125
 21
-1796.25
 31
0.0
  0
LINE
  5
135
330
76
100
AcDbEntity
  8
0
 62
     0
100
AcDbLine
 10
-196.25
 20
-1795.0
 30
0.0
 11
-196.25
 21
-1795.0
 31
0.0
  0
LINE
  5
136
330
76
100
AcDbEntity
  8
0
 62
     0
100
AcDbLine
 10
-195.0
 20
-1795.0
 30
0.0
 11
-195.0
 21
-1795.0
 31
0.0
  0
LINE
  5
137
330
76
100
AcDbEntity
  8
0
 62
     0
100
AcDbLine
 10
-193.75
 20
-1795.0
 30
0.0
 11
-193.75
 21
-1795.0
 31
0.0
  0
LINE
  5
138
330
76
100
AcDbEntity
  8
0
 62
     0
100
AcDbLine
 10
-192.5
 20
-1795.0
 30
0.0
 11
-192.5
 21
-1795.0
 31
0.0
  0
LINE
  5
139
330
76
100
AcDbEntity
  8
0
 62
     0
100
AcDbLine
 10
-191.25
 20
-1795.0
 30
0.0
 11
-191.25
 21
-1795.0
 31
0.0
  0
LINE
  5
13A
330
76
100
AcDbEntity
  8
0
 62
     0
100
AcDbLine
 10
-190.0
 20
-1795.0
 30
0.0
 11
-190.0
 21
-1795.0
 31
0.0
  0
LINE
  5
13B
330
76
100
AcDbEntity
  8
0
 62
     0
100
AcDbLine
 10
-156.25
 20
-1795.0
 30
0.0
 11
-156.25
 21
-1795.0
 31
0.0
  0
LINE
  5
13C
330
76
100
AcDbEntity
  8
0
 62
     0
100
AcDbLine
 10
-155.0
 20
-1795.0
 30
0.0
 11
-155.0
 21
-1795.0
 31
0.0
  0
LINE
  5
13D
330
76
100
AcDbEntity
  8
0
 62
     0
100
AcDbLine
 10
-153.75
 20
-1795.0
 30
0.0
 11
-153.75
 21
-1795.0
 31
0.0
  0
LINE
  5
13E
330
76
100
AcDbEntity
  8
0
 62
     0
100
AcDbLine
 10
-152.5
 20
-1795.0
 30
0.0
 11
-152.5
 21
-1795.0
 31
0.0
  0
LINE
  5
13F
330
76
100
AcDbEntity
  8
0
 62
     0
100
AcDbLine
 10
-151.25
 20
-1795.0
 30
0.0
 11
-151.25
 21
-1795.0
 31
0.0
  0
LINE
  5
140
330
76
100
AcDbEntity
  8
0
 62
     0
100
AcDbLine
 10
-150.0
 20
-1795.0
 30
0.0
 11
-150.0
 21
-1795.0
 31
0.0
  0
LINE
  5
141
330
76
100
AcDbEntity
  8
0
 62
     0
100
AcDbLine
 10
-148.75
 20
-1795.0
 30
0.0
 11
-148.75
 21
-1795.0
 31
0.0
  0
LINE
  5
142
330
76
100
AcDbEntity
  8
0
 62
     0
100
AcDbLine
 10
-147.5
 20
-1795.0
 30
0.0
 11
-147.5
 21
-1795.0
 31
0.0
  0
LINE
  5
143
330
76
100
AcDbEntity
  8
0
 62
     0
100
AcDbLine
 10
-159.9999999999999
 20
-1795.0
 30
0.0
 11
-159.9999999999999
 21
-1795.0
 31
0.0
  0
LINE
  5
144
330
76
100
AcDbEntity
  8
0
 62
     0
100
AcDbLine
 10
-195.625
 20
-1793.75
 30
0.0
 11
-195.625
 21
-1793.75
 31
0.0
  0
LINE
  5
145
330
76
100
AcDbEntity
  8
0
 62
     0
100
AcDbLine
 10
-194.375
 20
-1793.75
 30
0.0
 11
-194.375
 21
-1793.75
 31
0.0
  0
LINE
  5
146
330
76
100
AcDbEntity
  8
0
 62
     0
100
AcDbLine
 10
-193.125
 20
-1793.75
 30
0.0
 11
-193.125
 21
-1793.75
 31
0.0
  0
LINE
  5
147
330
76
100
AcDbEntity
  8
0
 62
     0
100
AcDbLine
 10
-191.875
 20
-1793.75
 30
0.0
 11
-191.875
 21
-1793.75
 31
0.0
  0
LINE
  5
148
330
76
100
AcDbEntity
  8
0
 62
     0
100
AcDbLine
 10
-190.625
 20
-1793.75
 30
0.0
 11
-190.625
 21
-1793.75
 31
0.0
  0
LINE
  5
149
330
76
100
AcDbEntity
  8
0
 62
     0
100
AcDbLine
 10
-189.375
 20
-1793.75
 30
0.0
 11
-189.375
 21
-1793.75
 31
0.0
  0
LINE
  5
14A
330
76
100
AcDbEntity
  8
0
 62
     0
100
AcDbLine
 10
-158.125
 20
-1793.75
 30
0.0
 11
-158.125
 21
-1793.75
 31
0.0
  0
LINE
  5
14B
330
76
100
AcDbEntity
  8
0
 62
     0
100
AcDbLine
 10
-156.8749999999999
 20
-1793.75
 30
0.0
 11
-156.8749999999999
 21
-1793.75
 31
0.0
  0
LINE
  5
14C
330
76
100
AcDbEntity
  8
0
 62
     0
100
AcDbLine
 10
-155.6249999999999
 20
-1793.75
 30
0.0
 11
-155.6249999999999
 21
-1793.75
 31
0.0
  0
LINE
  5
14D
330
76
100
AcDbEntity
  8
0
 62
     0
100
AcDbLine
 10
-154.375
 20
-1793.75
 30
0.0
 11
-154.375
 21
-1793.75
 31
0.0
  0
LINE
  5
14E
330
76
100
AcDbEntity
  8
0
 62
     0
100
AcDbLine
 10
-153.125
 20
-1793.75
 30
0.0
 11
-153.125
 21
-1793.75
 31
0.0
  0
LINE
  5
14F
330
76
100
AcDbEntity
  8
0
 62
     0
100
AcDbLine
 10
-151.875
 20
-1793.75
 30
0.0
 11
-151.875
 21
-1793.75
 31
0.0
  0
LINE
  5
150
330
76
100
AcDbEntity
  8
0
 62
     0
100
AcDbLine
 10
-150.6249999999999
 20
-1793.75
 30
0.0
 11
-150.6249999999999
 21
-1793.75
 31
0.0
  0
LINE
  5
151
330
76
100
AcDbEntity
  8
0
 62
     0
100
AcDbLine
 10
-149.3749999999999
 20
-1793.75
 30
0.0
 11
-149.3749999999999
 21
-1793.75
 31
0.0
  0
LINE
  5
152
330
76
100
AcDbEntity
  8
0
 62
     0
100
AcDbLine
 10
-148.125
 20
-1793.75
 30
0.0
 11
-148.125
 21
-1793.75
 31
0.0
  0
LINE
  5
153
330
76
100
AcDbEntity
  8
0
 62
     0
100
AcDbLine
 10
-146.875
 20
-1793.75
 30
0.0
 11
-146.875
 21
-1793.75
 31
0.0
  0
LINE
  5
154
330
76
100
AcDbEntity
  8
0
 62
     0
100
AcDbLine
 10
-193.75
 20
-1792.5
 30
0.0
 11
-193.75
 21
-1792.5
 31
0.0
  0
LINE
  5
155
330
76
100
AcDbEntity
  8
0
 62
     0
100
AcDbLine
 10
-192.5
 20
-1792.5
 30
0.0
 11
-192.5
 21
-1792.5
 31
0.0
  0
LINE
  5
156
330
76
100
AcDbEntity
  8
0
 62
     0
100
AcDbLine
 10
-191.2499999999999
 20
-1792.5
 30
0.0
 11
-191.2499999999999
 21
-1792.5
 31
0.0
  0
LINE
  5
157
330
76
100
AcDbEntity
  8
0
 62
     0
100
AcDbLine
 10
-190.0
 20
-1792.5
 30
0.0
 11
-190.0
 21
-1792.5
 31
0.0
  0
LINE
  5
158
330
76
100
AcDbEntity
  8
0
 62
     0
100
AcDbLine
 10
-188.75
 20
-1792.5
 30
0.0
 11
-188.75
 21
-1792.5
 31
0.0
  0
LINE
  5
159
330
76
100
AcDbEntity
  8
0
 62
     0
100
AcDbLine
 10
-158.75
 20
-1792.5
 30
0.0
 11
-158.75
 21
-1792.5
 31
0.0
  0
LINE
  5
15A
330
76
100
AcDbEntity
  8
0
 62
     0
100
AcDbLine
 10
-157.5
 20
-1792.5
 30
0.0
 11
-157.5
 21
-1792.5
 31
0.0
  0
LINE
  5
15B
330
76
100
AcDbEntity
  8
0
 62
     0
100
AcDbLine
 10
-156.25
 20
-1792.5
 30
0.0
 11
-156.25
 21
-1792.5
 31
0.0
  0
LINE
  5
15C
330
76
100
AcDbEntity
  8
0
 62
     0
100
AcDbLine
 10
-155.0
 20
-1792.5
 30
0.0
 11
-155.0
 21
-1792.5
 31
0.0
  0
LINE
  5
15D
330
76
100
AcDbEntity
  8
0
 62
     0
100
AcDbLine
 10
-153.75
 20
-1792.5
 30
0.0
 11
-153.75
 21
-1792.5
 31
0.0
  0
LINE
  5
15E
330
76
100
AcDbEntity
  8
0
 62
     0
100
AcDbLine
 10
-152.5
 20
-1792.5
 30
0.0
 11
-152.5
 21
-1792.5
 31
0.0
  0
LINE
  5
15F
330
76
100
AcDbEntity
  8
0
 62
     0
100
AcDbLine
 10
-151.25
 20
-1792.5
 30
0.0
 11
-151.25
 21
-1792.5
 31
0.0
  0
LINE
  5
160
330
76
100
AcDbEntity
  8
0
 62
     0
100
AcDbLine
 10
-150.0
 20
-1792.5
 30
0.0
 11
-150.0
 21
-1792.5
 31
0.0
  0
LINE
  5
161
330
76
100
AcDbEntity
  8
0
 62
     0
100
AcDbLine
 10
-148.75
 20
-1792.5
 30
0.0
 11
-148.75
 21
-1792.5
 31
0.0
  0
LINE
  5
162
330
76
100
AcDbEntity
  8
0
 62
     0
100
AcDbLine
 10
-147.5
 20
-1792.5
 30
0.0
 11
-147.5
 21
-1792.5
 31
0.0
  0
LINE
  5
163
330
76
100
AcDbEntity
  8
0
 62
     0
100
AcDbLine
 10
-146.25
 20
-1792.5
 30
0.0
 11
-146.25
 21
-1792.5
 31
0.0
  0
LINE
  5
164
330
76
100
AcDbEntity
  8
0
 62
     0
100
AcDbLine
 10
-163.75
 20
-1792.5
 30
0.0
 11
-163.75
 21
-1792.5
 31
0.0
  0
LINE
  5
165
330
76
100
AcDbEntity
  8
0
 62
     0
100
AcDbLine
 10
-162.5
 20
-1792.5
 30
0.0
 11
-162.5
 21
-1792.5
 31
0.0
  0
LINE
  5
166
330
76
100
AcDbEntity
  8
0
 62
     0
100
AcDbLine
 10
-161.25
 20
-1792.5
 30
0.0
 11
-161.25
 21
-1792.5
 31
0.0
  0
LINE
  5
167
330
76
100
AcDbEntity
  8
0
 62
     0
100
AcDbLine
 10
-191.875
 20
-1791.25
 30
0.0
 11
-191.875
 21
-1791.25
 31
0.0
  0
LINE
  5
168
330
76
100
AcDbEntity
  8
0
 62
     0
100
AcDbLine
 10
-190.625
 20
-1791.25
 30
0.0
 11
-190.625
 21
-1791.25
 31
0.0
  0
LINE
  5
169
330
76
100
AcDbEntity
  8
0
 62
     0
100
AcDbLine
 10
-189.375
 20
-1791.25
 30
0.0
 11
-189.375
 21
-1791.25
 31
0.0
  0
LINE
  5
16A
330
76
100
AcDbEntity
  8
0
 62
     0
100
AcDbLine
 10
-159.375
 20
-1791.25
 30
0.0
 11
-159.375
 21
-1791.25
 31
0.0
  0
LINE
  5
16B
330
76
100
AcDbEntity
  8
0
 62
     0
100
AcDbLine
 10
-158.125
 20
-1791.25
 30
0.0
 11
-158.125
 21
-1791.25
 31
0.0
  0
LINE
  5
16C
330
76
100
AcDbEntity
  8
0
 62
     0
100
AcDbLine
 10
-156.875
 20
-1791.25
 30
0.0
 11
-156.875
 21
-1791.25
 31
0.0
  0
LINE
  5
16D
330
76
100
AcDbEntity
  8
0
 62
     0
100
AcDbLine
 10
-155.625
 20
-1791.25
 30
0.0
 11
-155.625
 21
-1791.25
 31
0.0
  0
LINE
  5
16E
330
76
100
AcDbEntity
  8
0
 62
     0
100
AcDbLine
 10
-154.375
 20
-1791.25
 30
0.0
 11
-154.375
 21
-1791.25
 31
0.0
  0
LINE
  5
16F
330
76
100
AcDbEntity
  8
0
 62
     0
100
AcDbLine
 10
-153.125
 20
-1791.25
 30
0.0
 11
-153.125
 21
-1791.25
 31
0.0
  0
LINE
  5
170
330
76
100
AcDbEntity
  8
0
 62
     0
100
AcDbLine
 10
-151.875
 20
-1791.25
 30
0.0
 11
-151.875
 21
-1791.25
 31
0.0
  0
LINE
  5
171
330
76
100
AcDbEntity
  8
0
 62
     0
100
AcDbLine
 10
-150.625
 20
-1791.25
 30
0.0
 11
-150.625
 21
-1791.25
 31
0.0
  0
LINE
  5
172
330
76
100
AcDbEntity
  8
0
 62
     0
100
AcDbLine
 10
-149.375
 20
-1791.25
 30
0.0
 11
-149.375
 21
-1791.25
 31
0.0
  0
LINE
  5
173
330
76
100
AcDbEntity
  8
0
 62
     0
100
AcDbLine
 10
-148.125
 20
-1791.25
 30
0.0
 11
-148.125
 21
-1791.25
 31
0.0
  0
LINE
  5
174
330
76
100
AcDbEntity
  8
0
 62
     0
100
AcDbLine
 10
-146.875
 20
-1791.25
 30
0.0
 11
-146.875
 21
-1791.25
 31
0.0
  0
LINE
  5
175
330
76
100
AcDbEntity
  8
0
 62
     0
100
AcDbLine
 10
-145.625
 20
-1791.25
 30
0.0
 11
-145.625
 21
-1791.25
 31
0.0
  0
LINE
  5
176
330
76
100
AcDbEntity
  8
0
 62
     0
100
AcDbLine
 10
-163.125
 20
-1791.25
 30
0.0
 11
-163.125
 21
-1791.25
 31
0.0
  0
LINE
  5
177
330
76
100
AcDbEntity
  8
0
 62
     0
100
AcDbLine
 10
-161.875
 20
-1791.25
 30
0.0
 11
-161.875
 21
-1791.25
 31
0.0
  0
LINE
  5
178
330
76
100
AcDbEntity
  8
0
 62
     0
100
AcDbLine
 10
-160.625
 20
-1791.25
 30
0.0
 11
-160.625
 21
-1791.25
 31
0.0
  0
LINE
  5
179
330
76
100
AcDbEntity
  8
0
 62
     0
100
AcDbLine
 10
-190.0
 20
-1790.0
 30
0.0
 11
-190.0
 21
-1790.0
 31
0.0
  0
LINE
  5
17A
330
76
100
AcDbEntity
  8
0
 62
     0
100
AcDbLine
 10
-159.9999999999999
 20
-1790.0
 30
0.0
 11
-159.9999999999999
 21
-1790.0
 31
0.0
  0
LINE
  5
17B
330
76
100
AcDbEntity
  8
0
 62
     0
100
AcDbLine
 10
-158.7499999999999
 20
-1790.0
 30
0.0
 11
-158.7499999999999
 21
-1790.0
 31
0.0
  0
LINE
  5
17C
330
76
100
AcDbEntity
  8
0
 62
     0
100
AcDbLine
 10
-157.4999999999999
 20
-1790.0
 30
0.0
 11
-157.4999999999999
 21
-1790.0
 31
0.0
  0
LINE
  5
17D
330
76
100
AcDbEntity
  8
0
 62
     0
100
AcDbLine
 10
-156.2499999999999
 20
-1790.0
 30
0.0
 11
-156.2499999999999
 21
-1790.0
 31
0.0
  0
LINE
  5
17E
330
76
100
AcDbEntity
  8
0
 62
     0
100
AcDbLine
 10
-154.9999999999999
 20
-1790.0
 30
0.0
 11
-154.9999999999999
 21
-1790.0
 31
0.0
  0
LINE
  5
17F
330
76
100
AcDbEntity
  8
0
 62
     0
100
AcDbLine
 10
-153.7499999999999
 20
-1790.0
 30
0.0
 11
-153.7499999999999
 21
-1790.0
 31
0.0
  0
LINE
  5
180
330
76
100
AcDbEntity
  8
0
 62
     0
100
AcDbLine
 10
-152.4999999999999
 20
-1790.0
 30
0.0
 11
-152.4999999999999
 21
-1790.0
 31
0.0
  0
LINE
  5
181
330
76
100
AcDbEntity
  8
0
 62
     0
100
AcDbLine
 10
-151.2499999999999
 20
-1790.0
 30
0.0
 11
-151.2499999999999
 21
-1790.0
 31
0.0
  0
LINE
  5
182
330
76
100
AcDbEntity
  8
0
 62
     0
100
AcDbLine
 10
-149.9999999999999
 20
-1790.0
 30
0.0
 11
-149.9999999999999
 21
-1790.0
 31
0.0
  0
LINE
  5
183
330
76
100
AcDbEntity
  8
0
 62
     0
100
AcDbLine
 10
-148.7499999999999
 20
-1790.0
 30
0.0
 11
-148.7499999999999
 21
-1790.0
 31
0.0
  0
LINE
  5
184
330
76
100
AcDbEntity
  8
0
 62
     0
100
AcDbLine
 10
-147.4999999999999
 20
-1790.0
 30
0.0
 11
-147.4999999999999
 21
-1790.0
 31
0.0
  0
LINE
  5
185
330
76
100
AcDbEntity
  8
0
 62
     0
100
AcDbLine
 10
-146.2499999999999
 20
-1790.0
 30
0.0
 11
-146.2499999999999
 21
-1790.0
 31
0.0
  0
LINE
  5
186
330
76
100
AcDbEntity
  8
0
 62
     0
100
AcDbLine
 10
-144.9999999999999
 20
-1790.0
 30
0.0
 11
-144.9999999999999
 21
-1790.0
 31
0.0
  0
LINE
  5
187
330
76
100
AcDbEntity
  8
0
 62
     0
100
AcDbLine
 10
-161.25
 20
-1790.0
 30
0.0
 11
-161.25
 21
-1790.0
 31
0.0
  0
LINE
  5
188
330
76
100
AcDbEntity
  8
0
 62
     0
100
AcDbLine
 10
-160.625
 20
-1788.75
 30
0.0
 11
-160.625
 21
-1788.75
 31
0.0
  0
LINE
  5
189
330
76
100
AcDbEntity
  8
0
 62
     0
100
AcDbLine
 10
-159.375
 20
-1788.75
 30
0.0
 11
-159.375
 21
-1788.75
 31
0.0
  0
LINE
  5
18A
330
76
100
AcDbEntity
  8
0
 62
     0
100
AcDbLine
 10
-158.125
 20
-1788.75
 30
0.0
 11
-158.125
 21
-1788.75
 31
0.0
  0
LINE
  5
18B
330
76
100
AcDbEntity
  8
0
 62
     0
100
AcDbLine
 10
-156.875
 20
-1788.75
 30
0.0
 11
-156.875
 21
-1788.75
 31
0.0
  0
LINE
  5
18C
330
76
100
AcDbEntity
  8
0
 62
     0
100
AcDbLine
 10
-155.625
 20
-1788.75
 30
0.0
 11
-155.625
 21
-1788.75
 31
0.0
  0
LINE
  5
18D
330
76
100
AcDbEntity
  8
0
 62
     0
100
AcDbLine
 10
-154.375
 20
-1788.75
 30
0.0
 11
-154.375
 21
-1788.75
 31
0.0
  0
LINE
  5
18E
330
76
100
AcDbEntity
  8
0
 62
     0
100
AcDbLine
 10
-153.125
 20
-1788.75
 30
0.0
 11
-153.125
 21
-1788.75
 31
0.0
  0
LINE
  5
18F
330
76
100
AcDbEntity
  8
0
 62
     0
100
AcDbLine
 10
-151.875
 20
-1788.75
 30
0.0
 11
-151.875
 21
-1788.75
 31
0.0
  0
LINE
  5
190
330
76
100
AcDbEntity
  8
0
 62
     0
100
AcDbLine
 10
-150.625
 20
-1788.75
 30
0.0
 11
-150.625
 21
-1788.75
 31
0.0
  0
LINE
  5
191
330
76
100
AcDbEntity
  8
0
 62
     0
100
AcDbLine
 10
-149.375
 20
-1788.75
 30
0.0
 11
-149.375
 21
-1788.75
 31
0.0
  0
LINE
  5
192
330
76
100
AcDbEntity
  8
0
 62
     0
100
AcDbLine
 10
-148.125
 20
-1788.75
 30
0.0
 11
-148.125
 21
-1788.75
 31
0.0
  0
LINE
  5
193
330
76
100
AcDbEntity
  8
0
 62
     0
100
AcDbLine
 10
-146.875
 20
-1788.75
 30
0.0
 11
-146.875
 21
-1788.75
 31
0.0
  0
LINE
  5
194
330
76
100
AcDbEntity
  8
0
 62
     0
100
AcDbLine
 10
-145.625
 20
-1788.75
 30
0.0
 11
-145.625
 21
-1788.75
 31
0.0
  0
LINE
  5
195
330
76
100
AcDbEntity
  8
0
 62
     0
100
AcDbLine
 10
-144.375
 20
-1788.75
 30
0.0
 11
-144.375
 21
-1788.75
 31
0.0
  0
LINE
  5
196
330
76
100
AcDbEntity
  8
0
 62
     0
100
AcDbLine
 10
-160.0
 20
-1787.5
 30
0.0
 11
-160.0
 21
-1787.5
 31
0.0
  0
LINE
  5
197
330
76
100
AcDbEntity
  8
0
 62
     0
100
AcDbLine
 10
-158.75
 20
-1787.5
 30
0.0
 11
-158.75
 21
-1787.5
 31
0.0
  0
LINE
  5
198
330
76
100
AcDbEntity
  8
0
 62
     0
100
AcDbLine
 10
-157.5
 20
-1787.5
 30
0.0
 11
-157.5
 21
-1787.5
 31
0.0
  0
LINE
  5
199
330
76
100
AcDbEntity
  8
0
 62
     0
100
AcDbLine
 10
-156.25
 20
-1787.5
 30
0.0
 11
-156.25
 21
-1787.5
 31
0.0
  0
LINE
  5
19A
330
76
100
AcDbEntity
  8
0
 62
     0
100
AcDbLine
 10
-155.0
 20
-1787.5
 30
0.0
 11
-155.0
 21
-1787.5
 31
0.0
  0
LINE
  5
19B
330
76
100
AcDbEntity
  8
0
 62
     0
100
AcDbLine
 10
-153.75
 20
-1787.5
 30
0.0
 11
-153.75
 21
-1787.5
 31
0.0
  0
LINE
  5
19C
330
76
100
AcDbEntity
  8
0
 62
     0
100
AcDbLine
 10
-152.5
 20
-1787.5
 30
0.0
 11
-152.5
 21
-1787.5
 31
0.0
  0
LINE
  5
19D
330
76
100
AcDbEntity
  8
0
 62
     0
100
AcDbLine
 10
-151.25
 20
-1787.5
 30
0.0
 11
-151.25
 21
-1787.5
 31
0.0
  0
LINE
  5
19E
330
76
100
AcDbEntity
  8
0
 62
     0
100
AcDbLine
 10
-150.0
 20
-1787.5
 30
0.0
 11
-150.0
 21
-1787.5
 31
0.0
  0
LINE
  5
19F
330
76
100
AcDbEntity
  8
0
 62
     0
100
AcDbLine
 10
-148.75
 20
-1787.5
 30
0.0
 11
-148.75
 21
-1787.5
 31
0.0
  0
LINE
  5
1A0
330
76
100
AcDbEntity
  8
0
 62
     0
100
AcDbLine
 10
-147.5
 20
-1787.5
 30
0.0
 11
-147.5
 21
-1787.5
 31
0.0
  0
LINE
  5
1A1
330
76
100
AcDbEntity
  8
0
 62
     0
100
AcDbLine
 10
-146.25
 20
-1787.5
 30
0.0
 11
-146.25
 21
-1787.5
 31
0.0
  0
LINE
  5
1A2
330
76
100
AcDbEntity
  8
0
 62
     0
100
AcDbLine
 10
-145.0
 20
-1787.5
 30
0.0
 11
-145.0
 21
-1787.5
 31
0.0
  0
LINE
  5
1A3
330
76
100
AcDbEntity
  8
0
 62
     0
100
AcDbLine
 10
-143.75
 20
-1787.5
 30
0.0
 11
-143.75
 21
-1787.5
 31
0.0
  0
LINE
  5
1A4
330
76
100
AcDbEntity
  8
0
 62
     0
100
AcDbLine
 10
-159.375
 20
-1786.25
 30
0.0
 11
-159.375
 21
-1786.25
 31
0.0
  0
LINE
  5
1A5
330
76
100
AcDbEntity
  8
0
 62
     0
100
AcDbLine
 10
-158.125
 20
-1786.25
 30
0.0
 11
-158.125
 21
-1786.25
 31
0.0
  0
LINE
  5
1A6
330
76
100
AcDbEntity
  8
0
 62
     0
100
AcDbLine
 10
-156.875
 20
-1786.25
 30
0.0
 11
-156.875
 21
-1786.25
 31
0.0
  0
LINE
  5
1A7
330
76
100
AcDbEntity
  8
0
 62
     0
100
AcDbLine
 10
-155.625
 20
-1786.25
 30
0.0
 11
-155.625
 21
-1786.25
 31
0.0
  0
LINE
  5
1A8
330
76
100
AcDbEntity
  8
0
 62
     0
100
AcDbLine
 10
-154.375
 20
-1786.25
 30
0.0
 11
-154.375
 21
-1786.25
 31
0.0
  0
LINE
  5
1A9
330
76
100
AcDbEntity
  8
0
 62
     0
100
AcDbLine
 10
-153.125
 20
-1786.25
 30
0.0
 11
-153.125
 21
-1786.25
 31
0.0
  0
LINE
  5
1AA
330
76
100
AcDbEntity
  8
0
 62
     0
100
AcDbLine
 10
-151.875
 20
-1786.25
 30
0.0
 11
-151.875
 21
-1786.25
 31
0.0
  0
LINE
  5
1AB
330
76
100
AcDbEntity
  8
0
 62
     0
100
AcDbLine
 10
-150.625
 20
-1786.25
 30
0.0
 11
-150.625
 21
-1786.25
 31
0.0
  0
LINE
  5
1AC
330
76
100
AcDbEntity
  8
0
 62
     0
100
AcDbLine
 10
-149.375
 20
-1786.25
 30
0.0
 11
-149.375
 21
-1786.25
 31
0.0
  0
LINE
  5
1AD
330
76
100
AcDbEntity
  8
0
 62
     0
100
AcDbLine
 10
-148.125
 20
-1786.25
 30
0.0
 11
-148.125
 21
-1786.25
 31
0.0
  0
LINE
  5
1AE
330
76
100
AcDbEntity
  8
0
 62
     0
100
AcDbLine
 10
-146.875
 20
-1786.25
 30
0.0
 11
-146.875
 21
-1786.25
 31
0.0
  0
LINE
  5
1AF
330
76
100
AcDbEntity
  8
0
 62
     0
100
AcDbLine
 10
-145.625
 20
-1786.25
 30
0.0
 11
-145.625
 21
-1786.25
 31
0.0
  0
LINE
  5
1B0
330
76
100
AcDbEntity
  8
0
 62
     0
100
AcDbLine
 10
-144.375
 20
-1786.25
 30
0.0
 11
-144.375
 21
-1786.25
 31
0.0
  0
LINE
  5
1B1
330
76
100
AcDbEntity
  8
0
 62
     0
100
AcDbLine
 10
-143.125
 20
-1786.25
 30
0.0
 11
-143.125
 21
-1786.25
 31
0.0
  0
LINE
  5
1B2
330
76
100
AcDbEntity
  8
0
 62
     0
100
AcDbLine
 10
-158.75
 20
-1785.0
 30
0.0
 11
-158.75
 21
-1785.0
 31
0.0
  0
LINE
  5
1B3
330
76
100
AcDbEntity
  8
0
 62
     0
100
AcDbLine
 10
-157.5
 20
-1785.0
 30
0.0
 11
-157.5
 21
-1785.0
 31
0.0
  0
LINE
  5
1B4
330
76
100
AcDbEntity
  8
0
 62
     0
100
AcDbLine
 10
-156.25
 20
-1785.0
 30
0.0
 11
-156.25
 21
-1785.0
 31
0.0
  0
LINE
  5
1B5
330
76
100
AcDbEntity
  8
0
 62
     0
100
AcDbLine
 10
-155.0
 20
-1785.0
 30
0.0
 11
-155.0
 21
-1785.0
 31
0.0
  0
LINE
  5
1B6
330
76
100
AcDbEntity
  8
0
 62
     0
100
AcDbLine
 10
-153.75
 20
-1785.0
 30
0.0
 11
-153.75
 21
-1785.0
 31
0.0
  0
LINE
  5
1B7
330
76
100
AcDbEntity
  8
0
 62
     0
100
AcDbLine
 10
-152.5
 20
-1785.0
 30
0.0
 11
-152.5
 21
-1785.0
 31
0.0
  0
LINE
  5
1B8
330
76
100
AcDbEntity
  8
0
 62
     0
100
AcDbLine
 10
-151.25
 20
-1785.0
 30
0.0
 11
-151.25
 21
-1785.0
 31
0.0
  0
LINE
  5
1B9
330
76
100
AcDbEntity
  8
0
 62
     0
100
AcDbLine
 10
-150.0
 20
-1785.0
 30
0.0
 11
-150.0
 21
-1785.0
 31
0.0
  0
LINE
  5
1BA
330
76
100
AcDbEntity
  8
0
 62
     0
100
AcDbLine
 10
-148.75
 20
-1785.0
 30
0.0
 11
-148.75
 21
-1785.0
 31
0.0
  0
LINE
  5
1BB
330
76
100
AcDbEntity
  8
0
 62
     0
100
AcDbLine
 10
-147.5
 20
-1785.0
 30
0.0
 11
-147.5
 21
-1785.0
 31
0.0
  0
LINE
  5
1BC
330
76
100
AcDbEntity
  8
0
 62
     0
100
AcDbLine
 10
-146.25
 20
-1785.0
 30
0.0
 11
-146.25
 21
-1785.0
 31
0.0
  0
LINE
  5
1BD
330
76
100
AcDbEntity
  8
0
 62
     0
100
AcDbLine
 10
-145.0
 20
-1785.0
 30
0.0
 11
-145.0
 21
-1785.0
 31
0.0
  0
LINE
  5
1BE
330
76
100
AcDbEntity
  8
0
 62
     0
100
AcDbLine
 10
-143.75
 20
-1785.0
 30
0.0
 11
-143.75
 21
-1785.0
 31
0.0
  0
LINE
  5
1BF
330
76
100
AcDbEntity
  8
0
 62
     0
100
AcDbLine
 10
-142.5
 20
-1785.0
 30
0.0
 11
-142.5
 21
-1785.0
 31
0.0
  0
LINE
  5
1C0
330
76
100
AcDbEntity
  8
0
 62
     0
100
AcDbLine
 10
-158.125
 20
-1783.75
 30
0.0
 11
-158.125
 21
-1783.75
 31
0.0
  0
LINE
  5
1C1
330
76
100
AcDbEntity
  8
0
 62
     0
100
AcDbLine
 10
-156.8749999999999
 20
-1783.75
 30
0.0
 11
-156.8749999999999
 21
-1783.75
 31
0.0
  0
LINE
  5
1C2
330
76
100
AcDbEntity
  8
0
 62
     0
100
AcDbLine
 10
-155.6249999999999
 20
-1783.75
 30
0.0
 11
-155.6249999999999
 21
-1783.75
 31
0.0
  0
LINE
  5
1C3
330
76
100
AcDbEntity
  8
0
 62
     0
100
AcDbLine
 10
-154.375
 20
-1783.75
 30
0.0
 11
-154.375
 21
-1783.75
 31
0.0
  0
LINE
  5
1C4
330
76
100
AcDbEntity
  8
0
 62
     0
100
AcDbLine
 10
-153.125
 20
-1783.75
 30
0.0
 11
-153.125
 21
-1783.75
 31
0.0
  0
LINE
  5
1C5
330
76
100
AcDbEntity
  8
0
 62
     0
100
AcDbLine
 10
-151.875
 20
-1783.75
 30
0.0
 11
-151.875
 21
-1783.75
 31
0.0
  0
LINE
  5
1C6
330
76
100
AcDbEntity
  8
0
 62
     0
100
AcDbLine
 10
-150.6249999999999
 20
-1783.75
 30
0.0
 11
-150.6249999999999
 21
-1783.75
 31
0.0
  0
LINE
  5
1C7
330
76
100
AcDbEntity
  8
0
 62
     0
100
AcDbLine
 10
-149.3749999999999
 20
-1783.75
 30
0.0
 11
-149.3749999999999
 21
-1783.75
 31
0.0
  0
LINE
  5
1C8
330
76
100
AcDbEntity
  8
0
 62
     0
100
AcDbLine
 10
-148.125
 20
-1783.75
 30
0.0
 11
-148.125
 21
-1783.75
 31
0.0
  0
LINE
  5
1C9
330
76
100
AcDbEntity
  8
0
 62
     0
100
AcDbLine
 10
-146.875
 20
-1783.75
 30
0.0
 11
-146.875
 21
-1783.75
 31
0.0
  0
LINE
  5
1CA
330
76
100
AcDbEntity
  8
0
 62
     0
100
AcDbLine
 10
-145.625
 20
-1783.75
 30
0.0
 11
-145.625
 21
-1783.75
 31
0.0
  0
LINE
  5
1CB
330
76
100
AcDbEntity
  8
0
 62
     0
100
AcDbLine
 10
-144.3749999999999
 20
-1783.75
 30
0.0
 11
-144.3749999999999
 21
-1783.75
 31
0.0
  0
LINE
  5
1CC
330
76
100
AcDbEntity
  8
0
 62
     0
100
AcDbLine
 10
-143.1249999999999
 20
-1783.75
 30
0.0
 11
-143.1249999999999
 21
-1783.75
 31
0.0
  0
LINE
  5
1CD
330
76
100
AcDbEntity
  8
0
 62
     0
100
AcDbLine
 10
-157.5
 20
-1782.5
 30
0.0
 11
-157.5
 21
-1782.5
 31
0.0
  0
LINE
  5
1CE
330
76
100
AcDbEntity
  8
0
 62
     0
100
AcDbLine
 10
-156.25
 20
-1782.5
 30
0.0
 11
-156.25
 21
-1782.5
 31
0.0
  0
LINE
  5
1CF
330
76
100
AcDbEntity
  8
0
 62
     0
100
AcDbLine
 10
-155.0
 20
-1782.5
 30
0.0
 11
-155.0
 21
-1782.5
 31
0.0
  0
LINE
  5
1D0
330
76
100
AcDbEntity
  8
0
 62
     0
100
AcDbLine
 10
-153.7499999999999
 20
-1782.5
 30
0.0
 11
-153.7499999999999
 21
-1782.5
 31
0.0
  0
LINE
  5
1D1
330
76
100
AcDbEntity
  8
0
 62
     0
100
AcDbLine
 10
-152.4999999999999
 20
-1782.5
 30
0.0
 11
-152.4999999999999
 21
-1782.5
 31
0.0
  0
LINE
  5
1D2
330
76
100
AcDbEntity
  8
0
 62
     0
100
AcDbLine
 10
-151.25
 20
-1782.5
 30
0.0
 11
-151.25
 21
-1782.5
 31
0.0
  0
LINE
  5
1D3
330
76
100
AcDbEntity
  8
0
 62
     0
100
AcDbLine
 10
-150.0
 20
-1782.5
 30
0.0
 11
-150.0
 21
-1782.5
 31
0.0
  0
LINE
  5
1D4
330
76
100
AcDbEntity
  8
0
 62
     0
100
AcDbLine
 10
-148.75
 20
-1782.5
 30
0.0
 11
-148.75
 21
-1782.5
 31
0.0
  0
LINE
  5
1D5
330
76
100
AcDbEntity
  8
0
 62
     0
100
AcDbLine
 10
-147.4999999999999
 20
-1782.5
 30
0.0
 11
-147.4999999999999
 21
-1782.5
 31
0.0
  0
LINE
  5
1D6
330
76
100
AcDbEntity
  8
0
 62
     0
100
AcDbLine
 10
-146.2499999999999
 20
-1782.5
 30
0.0
 11
-146.2499999999999
 21
-1782.5
 31
0.0
  0
LINE
  5
1D7
330
76
100
AcDbEntity
  8
0
 62
     0
100
AcDbLine
 10
-145.0
 20
-1782.5
 30
0.0
 11
-145.0
 21
-1782.5
 31
0.0
  0
LINE
  5
1D8
330
76
100
AcDbEntity
  8
0
 62
     0
100
AcDbLine
 10
-143.75
 20
-1782.5
 30
0.0
 11
-143.75
 21
-1782.5
 31
0.0
  0
LINE
  5
1D9
330
76
100
AcDbEntity
  8
0
 62
     0
100
AcDbLine
 10
-142.5
 20
-1782.5
 30
0.0
 11
-142.5
 21
-1782.5
 31
0.0
  0
LINE
  5
1DA
330
76
100
AcDbEntity
  8
0
 62
     0
100
AcDbLine
 10
-155.6249999999999
 20
-1781.25
 30
0.0
 11
-155.6249999999999
 21
-1781.25
 31
0.0
  0
LINE
  5
1DB
330
76
100
AcDbEntity
  8
0
 62
     0
100
AcDbLine
 10
-154.375
 20
-1781.25
 30
0.0
 11
-154.375
 21
-1781.25
 31
0.0
  0
LINE
  5
1DC
330
76
100
AcDbEntity
  8
0
 62
     0
100
AcDbLine
 10
-153.125
 20
-1781.25
 30
0.0
 11
-153.125
 21
-1781.25
 31
0.0
  0
LINE
  5
1DD
330
76
100
AcDbEntity
  8
0
 62
     0
100
AcDbLine
 10
-151.875
 20
-1781.25
 30
0.0
 11
-151.875
 21
-1781.25
 31
0.0
  0
LINE
  5
1DE
330
76
100
AcDbEntity
  8
0
 62
     0
100
AcDbLine
 10
-150.6249999999999
 20
-1781.25
 30
0.0
 11
-150.6249999999999
 21
-1781.25
 31
0.0
  0
LINE
  5
1DF
330
76
100
AcDbEntity
  8
0
 62
     0
100
AcDbLine
 10
-149.3749999999999
 20
-1781.25
 30
0.0
 11
-149.3749999999999
 21
-1781.25
 31
0.0
  0
LINE
  5
1E0
330
76
100
AcDbEntity
  8
0
 62
     0
100
AcDbLine
 10
-148.125
 20
-1781.25
 30
0.0
 11
-148.125
 21
-1781.25
 31
0.0
  0
LINE
  5
1E1
330
76
100
AcDbEntity
  8
0
 62
     0
100
AcDbLine
 10
-146.875
 20
-1781.25
 30
0.0
 11
-146.875
 21
-1781.25
 31
0.0
  0
LINE
  5
1E2
330
76
100
AcDbEntity
  8
0
 62
     0
100
AcDbLine
 10
-145.625
 20
-1781.25
 30
0.0
 11
-145.625
 21
-1781.25
 31
0.0
  0
LINE
  5
1E3
330
76
100
AcDbEntity
  8
0
 62
     0
100
AcDbLine
 10
-144.3749999999999
 20
-1781.25
 30
0.0
 11
-144.3749999999999
 21
-1781.25
 31
0.0
  0
LINE
  5
1E4
330
76
100
AcDbEntity
  8
0
 62
     0
100
AcDbLine
 10
-143.1249999999999
 20
-1781.25
 30
0.0
 11
-143.1249999999999
 21
-1781.25
 31
0.0
  0
LINE
  5
1E5
330
76
100
AcDbEntity
  8
0
 62
     0
100
AcDbLine
 10
-141.875
 20
-1781.25
 30
0.0
 11
-141.875
 21
-1781.25
 31
0.0
  0
LINE
  5
1E6
330
76
100
AcDbEntity
  8
0
 62
     0
100
AcDbLine
 10
-156.25
 20
-1780.0
 30
0.0
 11
-156.25
 21
-1780.0
 31
0.0
  0
LINE
  5
1E7
330
76
100
AcDbEntity
  8
0
 62
     0
100
AcDbLine
 10
-155.0
 20
-1780.0
 30
0.0
 11
-155.0
 21
-1780.0
 31
0.0
  0
LINE
  5
1E8
330
76
100
AcDbEntity
  8
0
 62
     0
100
AcDbLine
 10
-153.75
 20
-1780.0
 30
0.0
 11
-153.75
 21
-1780.0
 31
0.0
  0
LINE
  5
1E9
330
76
100
AcDbEntity
  8
0
 62
     0
100
AcDbLine
 10
-152.5
 20
-1780.0
 30
0.0
 11
-152.5
 21
-1780.0
 31
0.0
  0
LINE
  5
1EA
330
76
100
AcDbEntity
  8
0
 62
     0
100
AcDbLine
 10
-151.25
 20
-1780.0
 30
0.0
 11
-151.25
 21
-1780.0
 31
0.0
  0
LINE
  5
1EB
330
76
100
AcDbEntity
  8
0
 62
     0
100
AcDbLine
 10
-150.0
 20
-1780.0
 30
0.0
 11
-150.0
 21
-1780.0
 31
0.0
  0
LINE
  5
1EC
330
76
100
AcDbEntity
  8
0
 62
     0
100
AcDbLine
 10
-148.75
 20
-1780.0
 30
0.0
 11
-148.75
 21
-1780.0
 31
0.0
  0
LINE
  5
1ED
330
76
100
AcDbEntity
  8
0
 62
     0
100
AcDbLine
 10
-147.5
 20
-1780.0
 30
0.0
 11
-147.5
 21
-1780.0
 31
0.0
  0
LINE
  5
1EE
330
76
100
AcDbEntity
  8
0
 62
     0
100
AcDbLine
 10
-146.25
 20
-1780.0
 30
0.0
 11
-146.25
 21
-1780.0
 31
0.0
  0
LINE
  5
1EF
330
76
100
AcDbEntity
  8
0
 62
     0
100
AcDbLine
 10
-145.0
 20
-1780.0
 30
0.0
 11
-145.0
 21
-1780.0
 31
0.0
  0
LINE
  5
1F0
330
76
100
AcDbEntity
  8
0
 62
     0
100
AcDbLine
 10
-143.75
 20
-1780.0
 30
0.0
 11
-143.75
 21
-1780.0
 31
0.0
  0
LINE
  5
1F1
330
76
100
AcDbEntity
  8
0
 62
     0
100
AcDbLine
 10
-142.5
 20
-1780.0
 30
0.0
 11
-142.5
 21
-1780.0
 31
0.0
  0
LINE
  5
1F2
330
76
100
AcDbEntity
  8
0
 62
     0
100
AcDbLine
 10
-141.25
 20
-1780.0
 30
0.0
 11
-141.25
 21
-1780.0
 31
0.0
  0
LINE
  5
1F3
330
76
100
AcDbEntity
  8
0
 62
     0
100
AcDbLine
 10
-155.6249999999999
 20
-1778.75
 30
0.0
 11
-155.6249999999999
 21
-1778.75
 31
0.0
  0
LINE
  5
1F4
330
76
100
AcDbEntity
  8
0
 62
     0
100
AcDbLine
 10
-154.3749999999999
 20
-1778.75
 30
0.0
 11
-154.3749999999999
 21
-1778.75
 31
0.0
  0
LINE
  5
1F5
330
76
100
AcDbEntity
  8
0
 62
     0
100
AcDbLine
 10
-153.1249999999999
 20
-1778.75
 30
0.0
 11
-153.1249999999999
 21
-1778.75
 31
0.0
  0
LINE
  5
1F6
330
76
100
AcDbEntity
  8
0
 62
     0
100
AcDbLine
 10
-151.8749999999999
 20
-1778.75
 30
0.0
 11
-151.8749999999999
 21
-1778.75
 31
0.0
  0
LINE
  5
1F7
330
76
100
AcDbEntity
  8
0
 62
     0
100
AcDbLine
 10
-150.6249999999999
 20
-1778.75
 30
0.0
 11
-150.6249999999999
 21
-1778.75
 31
0.0
  0
LINE
  5
1F8
330
76
100
AcDbEntity
  8
0
 62
     0
100
AcDbLine
 10
-149.3749999999999
 20
-1778.75
 30
0.0
 11
-149.3749999999999
 21
-1778.75
 31
0.0
  0
LINE
  5
1F9
330
76
100
AcDbEntity
  8
0
 62
     0
100
AcDbLine
 10
-148.1249999999999
 20
-1778.75
 30
0.0
 11
-148.1249999999999
 21
-1778.75
 31
0.0
  0
LINE
  5
1FA
330
76
100
AcDbEntity
  8
0
 62
     0
100
AcDbLine
 10
-146.8749999999999
 20
-1778.75
 30
0.0
 11
-146.8749999999999
 21
-1778.75
 31
0.0
  0
LINE
  5
1FB
330
76
100
AcDbEntity
  8
0
 62
     0
100
AcDbLine
 10
-145.6249999999999
 20
-1778.75
 30
0.0
 11
-145.6249999999999
 21
-1778.75
 31
0.0
  0
LINE
  5
1FC
330
76
100
AcDbEntity
  8
0
 62
     0
100
AcDbLine
 10
-144.3749999999999
 20
-1778.75
 30
0.0
 11
-144.3749999999999
 21
-1778.75
 31
0.0
  0
LINE
  5
1FD
330
76
100
AcDbEntity
  8
0
 62
     0
100
AcDbLine
 10
-143.1249999999999
 20
-1778.75
 30
0.0
 11
-143.1249999999999
 21
-1778.75
 31
0.0
  0
LINE
  5
1FE
330
76
100
AcDbEntity
  8
0
 62
     0
100
AcDbLine
 10
-141.8749999999999
 20
-1778.75
 30
0.0
 11
-141.8749999999999
 21
-1778.75
 31
0.0
  0
LINE
  5
1FF
330
76
100
AcDbEntity
  8
0
 62
     0
100
AcDbLine
 10
-140.6249999999999
 20
-1778.75
 30
0.0
 11
-140.6249999999999
 21
-1778.75
 31
0.0
  0
LINE
  5
200
330
76
100
AcDbEntity
  8
0
 62
     0
100
AcDbLine
 10
-156.25
 20
-1777.5
 30
0.0
 11
-156.25
 21
-1777.5
 31
0.0
  0
LINE
  5
201
330
76
100
AcDbEntity
  8
0
 62
     0
100
AcDbLine
 10
-155.0
 20
-1777.5
 30
0.0
 11
-155.0
 21
-1777.5
 31
0.0
  0
LINE
  5
202
330
76
100
AcDbEntity
  8
0
 62
     0
100
AcDbLine
 10
-153.7499999999999
 20
-1777.5
 30
0.0
 11
-153.7499999999999
 21
-1777.5
 31
0.0
  0
LINE
  5
203
330
76
100
AcDbEntity
  8
0
 62
     0
100
AcDbLine
 10
-152.4999999999999
 20
-1777.5
 30
0.0
 11
-152.4999999999999
 21
-1777.5
 31
0.0
  0
LINE
  5
204
330
76
100
AcDbEntity
  8
0
 62
     0
100
AcDbLine
 10
-151.25
 20
-1777.5
 30
0.0
 11
-151.25
 21
-1777.5
 31
0.0
  0
LINE
  5
205
330
76
100
AcDbEntity
  8
0
 62
     0
100
AcDbLine
 10
-150.0
 20
-1777.5
 30
0.0
 11
-150.0
 21
-1777.5
 31
0.0
  0
LINE
  5
206
330
76
100
AcDbEntity
  8
0
 62
     0
100
AcDbLine
 10
-148.75
 20
-1777.5
 30
0.0
 11
-148.75
 21
-1777.5
 31
0.0
  0
LINE
  5
207
330
76
100
AcDbEntity
  8
0
 62
     0
100
AcDbLine
 10
-147.4999999999999
 20
-1777.5
 30
0.0
 11
-147.4999999999999
 21
-1777.5
 31
0.0
  0
LINE
  5
208
330
76
100
AcDbEntity
  8
0
 62
     0
100
AcDbLine
 10
-146.2499999999999
 20
-1777.5
 30
0.0
 11
-146.2499999999999
 21
-1777.5
 31
0.0
  0
LINE
  5
209
330
76
100
AcDbEntity
  8
0
 62
     0
100
AcDbLine
 10
-145.0
 20
-1777.5
 30
0.0
 11
-145.0
 21
-1777.5
 31
0.0
  0
LINE
  5
20A
330
76
100
AcDbEntity
  8
0
 62
     0
100
AcDbLine
 10
-143.75
 20
-1777.5
 30
0.0
 11
-143.75
 21
-1777.5
 31
0.0
  0
LINE
  5
20B
330
76
100
AcDbEntity
  8
0
 62
     0
100
AcDbLine
 10
-142.5
 20
-1777.5
 30
0.0
 11
-142.5
 21
-1777.5
 31
0.0
  0
LINE
  5
20C
330
76
100
AcDbEntity
  8
0
 62
     0
100
AcDbLine
 10
-141.2499999999999
 20
-1777.5
 30
0.0
 11
-141.2499999999999
 21
-1777.5
 31
0.0
  0
LINE
  5
20D
330
76
100
AcDbEntity
  8
0
 62
     0
100
AcDbLine
 10
-155.6249999999999
 20
-1776.25
 30
0.0
 11
-155.6249999999999
 21
-1776.25
 31
0.0
  0
LINE
  5
20E
330
76
100
AcDbEntity
  8
0
 62
     0
100
AcDbLine
 10
-154.375
 20
-1776.25
 30
0.0
 11
-154.375
 21
-1776.25
 31
0.0
  0
LINE
  5
20F
330
76
100
AcDbEntity
  8
0
 62
     0
100
AcDbLine
 10
-153.125
 20
-1776.25
 30
0.0
 11
-153.125
 21
-1776.25
 31
0.0
  0
LINE
  5
210
330
76
100
AcDbEntity
  8
0
 62
     0
100
AcDbLine
 10
-151.875
 20
-1776.25
 30
0.0
 11
-151.875
 21
-1776.25
 31
0.0
  0
LINE
  5
211
330
76
100
AcDbEntity
  8
0
 62
     0
100
AcDbLine
 10
-150.6249999999999
 20
-1776.25
 30
0.0
 11
-150.6249999999999
 21
-1776.25
 31
0.0
  0
LINE
  5
212
330
76
100
AcDbEntity
  8
0
 62
     0
100
AcDbLine
 10
-149.3749999999999
 20
-1776.25
 30
0.0
 11
-149.3749999999999
 21
-1776.25
 31
0.0
  0
LINE
  5
213
330
76
100
AcDbEntity
  8
0
 62
     0
100
AcDbLine
 10
-148.125
 20
-1776.25
 30
0.0
 11
-148.125
 21
-1776.25
 31
0.0
  0
LINE
  5
214
330
76
100
AcDbEntity
  8
0
 62
     0
100
AcDbLine
 10
-146.875
 20
-1776.25
 30
0.0
 11
-146.875
 21
-1776.25
 31
0.0
  0
LINE
  5
215
330
76
100
AcDbEntity
  8
0
 62
     0
100
AcDbLine
 10
-145.625
 20
-1776.25
 30
0.0
 11
-145.625
 21
-1776.25
 31
0.0
  0
LINE
  5
216
330
76
100
AcDbEntity
  8
0
 62
     0
100
AcDbLine
 10
-144.3749999999999
 20
-1776.25
 30
0.0
 11
-144.3749999999999
 21
-1776.25
 31
0.0
  0
LINE
  5
217
330
76
100
AcDbEntity
  8
0
 62
     0
100
AcDbLine
 10
-143.1249999999999
 20
-1776.25
 30
0.0
 11
-143.1249999999999
 21
-1776.25
 31
0.0
  0
LINE
  5
218
330
76
100
AcDbEntity
  8
0
 62
     0
100
AcDbLine
 10
-152.5
 20
-1775.0
 30
0.0
 11
-152.5
 21
-1775.0
 31
0.0
  0
LINE
  5
219
330
76
100
AcDbEntity
  8
0
 62
     0
100
AcDbLine
 10
-151.25
 20
-1775.0
 30
0.0
 11
-151.25
 21
-1775.0
 31
0.0
  0
LINE
  5
21A
330
76
100
AcDbEntity
  8
0
 62
     0
100
AcDbLine
 10
-150.0
 20
-1775.0
 30
0.0
 11
-150.0
 21
-1775.0
 31
0.0
  0
LINE
  5
21B
330
76
100
AcDbEntity
  8
0
 62
     0
100
AcDbLine
 10
-148.75
 20
-1775.0
 30
0.0
 11
-148.75
 21
-1775.0
 31
0.0
  0
LINE
  5
21C
330
76
100
AcDbEntity
  8
0
 62
     0
100
AcDbLine
 10
-147.5
 20
-1775.0
 30
0.0
 11
-147.5
 21
-1775.0
 31
0.0
  0
LINE
  5
21D
330
76
100
AcDbEntity
  8
0
 62
     0
100
AcDbLine
 10
-146.25
 20
-1775.0
 30
0.0
 11
-146.25
 21
-1775.0
 31
0.0
  0
LINE
  5
21E
330
76
100
AcDbEntity
  8
0
 62
     0
100
AcDbLine
 10
-145.0
 20
-1775.0
 30
0.0
 11
-145.0
 21
-1775.0
 31
0.0
  0
LINE
  5
21F
330
76
100
AcDbEntity
  8
0
 62
     0
100
AcDbLine
 10
-151.875
 20
-1773.75
 30
0.0
 11
-151.875
 21
-1773.75
 31
0.0
  0
LINE
  5
220
330
76
100
AcDbEntity
  8
0
 62
     0
100
AcDbLine
 10
-150.6249999999999
 20
-1773.75
 30
0.0
 11
-150.6249999999999
 21
-1773.75
 31
0.0
  0
LINE
  5
221
330
76
100
AcDbEntity
  8
0
 62
     0
100
AcDbLine
 10
-149.3749999999999
 20
-1773.75
 30
0.0
 11
-149.3749999999999
 21
-1773.75
 31
0.0
  0
LINE
  5
222
330
76
100
AcDbEntity
  8
0
 62
     0
100
AcDbLine
 10
-148.125
 20
-1773.75
 30
0.0
 11
-148.125
 21
-1773.75
 31
0.0
  0
LINE
  5
223
330
76
100
AcDbEntity
  8
0
 62
     0
100
AcDbLine
 10
-146.875
 20
-1773.75
 30
0.0
 11
-146.875
 21
-1773.75
 31
0.0
  0
LINE
  5
224
330
76
100
AcDbEntity
  8
0
 62
     0
100
AcDbLine
 10
-145.625
 20
-1773.75
 30
0.0
 11
-145.625
 21
-1773.75
 31
0.0
  0
LINE
  5
225
330
76
100
AcDbEntity
  8
0
 62
     0
100
AcDbLine
 10
-151.25
 20
-1772.5
 30
0.0
 11
-151.25
 21
-1772.5
 31
0.0
  0
LINE
  5
226
330
76
100
AcDbEntity
  8
0
 62
     0
100
AcDbLine
 10
-150.0
 20
-1772.5
 30
0.0
 11
-150.0
 21
-1772.5
 31
0.0
  0
LINE
  5
227
330
76
100
AcDbEntity
  8
0
 62
     0
100
AcDbLine
 10
-148.75
 20
-1772.5
 30
0.0
 11
-148.75
 21
-1772.5
 31
0.0
  0
LINE
  5
228
330
76
100
AcDbEntity
  8
0
 62
     0
100
AcDbLine
 10
-147.5
 20
-1772.5
 30
0.0
 11
-147.5
 21
-1772.5
 31
0.0
  0
LINE
  5
229
330
76
100
AcDbEntity
  8
0
 62
     0
100
AcDbLine
 10
-195.6249999999999
 20
-1798.75
 30
0.0
 11
-195.6249999999999
 21
-1798.75
 31
0.0
  0
LINE
  5
22A
330
76
100
AcDbEntity
  8
0
 62
     0
100
AcDbLine
 10
-194.3749999999999
 20
-1798.75
 30
0.0
 11
-194.3749999999999
 21
-1798.75
 31
0.0
  0
LINE
  5
22B
330
76
100
AcDbEntity
  8
0
 62
     0
100
AcDbLine
 10
-193.1249999999999
 20
-1798.75
 30
0.0
 11
-193.1249999999999
 21
-1798.75
 31
0.0
  0
LINE
  5
22C
330
76
100
AcDbEntity
  8
0
 62
     0
100
AcDbLine
 10
-191.8749999999999
 20
-1798.75
 30
0.0
 11
-191.8749999999999
 21
-1798.75
 31
0.0
  0
LINE
  5
22D
330
76
100
AcDbEntity
  8
0
 62
     0
100
AcDbLine
 10
-190.6249999999999
 20
-1798.75
 30
0.0
 11
-190.6249999999999
 21
-1798.75
 31
0.0
  0
LINE
  5
22E
330
76
100
AcDbEntity
  8
0
 62
     0
100
AcDbLine
 10
-195.0
 20
-1800.0
 30
0.0
 11
-195.0
 21
-1800.0
 31
0.0
  0
LINE
  5
22F
330
76
100
AcDbEntity
  8
0
 62
     0
100
AcDbLine
 10
-193.75
 20
-1800.0
 30
0.0
 11
-193.75
 21
-1800.0
 31
0.0
  0
LINE
  5
230
330
76
100
AcDbEntity
  8
0
 62
     0
100
AcDbLine
 10
-192.5
 20
-1800.0
 30
0.0
 11
-192.5
 21
-1800.0
 31
0.0
  0
LINE
  5
231
330
76
100
AcDbEntity
  8
0
 62
     0
100
AcDbLine
 10
-191.2499999999999
 20
-1800.0
 30
0.0
 11
-191.2499999999999
 21
-1800.0
 31
0.0
  0
LINE
  5
232
330
76
100
AcDbEntity
  8
0
 62
     0
100
AcDbLine
 10
-193.125
 20
-1801.25
 30
0.0
 11
-193.125
 21
-1801.25
 31
0.0
  0
LINE
  5
233
330
76
100
AcDbEntity
  8
0
 62
     0
100
AcDbLine
 10
-163.75
 20
-1807.5
 30
0.0
 11
-163.75
 21
-1807.5
 31
0.0
  0
LINE
  5
234
330
76
100
AcDbEntity
  8
0
 62
     0
100
AcDbLine
 10
-158.75
 20
-1807.5
 30
0.0
 11
-158.75
 21
-1807.5
 31
0.0
  0
LINE
  5
235
330
76
100
AcDbEntity
  8
0
 62
     0
100
AcDbLine
 10
-157.5
 20
-1807.5
 30
0.0
 11
-157.5
 21
-1807.5
 31
0.0
  0
LINE
  5
236
330
76
100
AcDbEntity
  8
0
 62
     0
100
AcDbLine
 10
-156.25
 20
-1807.5
 30
0.0
 11
-156.25
 21
-1807.5
 31
0.0
  0
LINE
  5
237
330
76
100
AcDbEntity
  8
0
 62
     0
100
AcDbLine
 10
-155.0
 20
-1807.5
 30
0.0
 11
-155.0
 21
-1807.5
 31
0.0
  0
LINE
  5
238
330
76
100
AcDbEntity
  8
0
 62
     0
100
AcDbLine
 10
-153.75
 20
-1807.5
 30
0.0
 11
-153.75
 21
-1807.5
 31
0.0
  0
LINE
  5
239
330
76
100
AcDbEntity
  8
0
 62
     0
100
AcDbLine
 10
-152.5
 20
-1807.5
 30
0.0
 11
-152.5
 21
-1807.5
 31
0.0
  0
LINE
  5
23A
330
76
100
AcDbEntity
  8
0
 62
     0
100
AcDbLine
 10
-151.25
 20
-1807.5
 30
0.0
 11
-151.25
 21
-1807.5
 31
0.0
  0
LINE
  5
23B
330
76
100
AcDbEntity
  8
0
 62
     0
100
AcDbLine
 10
-150.0
 20
-1807.5
 30
0.0
 11
-150.0
 21
-1807.5
 31
0.0
  0
LINE
  5
23C
330
76
100
AcDbEntity
  8
0
 62
     0
100
AcDbLine
 10
-148.75
 20
-1807.5
 30
0.0
 11
-148.75
 21
-1807.5
 31
0.0
  0
LINE
  5
23D
330
76
100
AcDbEntity
  8
0
 62
     0
100
AcDbLine
 10
-164.375
 20
-1808.75
 30
0.0
 11
-164.375
 21
-1808.75
 31
0.0
  0
LINE
  5
23E
330
76
100
AcDbEntity
  8
0
 62
     0
100
AcDbLine
 10
-163.125
 20
-1808.75
 30
0.0
 11
-163.125
 21
-1808.75
 31
0.0
  0
LINE
  5
23F
330
76
100
AcDbEntity
  8
0
 62
     0
100
AcDbLine
 10
-161.875
 20
-1808.75
 30
0.0
 11
-161.875
 21
-1808.75
 31
0.0
  0
LINE
  5
240
330
76
100
AcDbEntity
  8
0
 62
     0
100
AcDbLine
 10
-160.625
 20
-1808.75
 30
0.0
 11
-160.625
 21
-1808.75
 31
0.0
  0
LINE
  5
241
330
76
100
AcDbEntity
  8
0
 62
     0
100
AcDbLine
 10
-159.375
 20
-1808.75
 30
0.0
 11
-159.375
 21
-1808.75
 31
0.0
  0
LINE
  5
242
330
76
100
AcDbEntity
  8
0
 62
     0
100
AcDbLine
 10
-158.125
 20
-1808.75
 30
0.0
 11
-158.125
 21
-1808.75
 31
0.0
  0
LINE
  5
243
330
76
100
AcDbEntity
  8
0
 62
     0
100
AcDbLine
 10
-156.875
 20
-1808.75
 30
0.0
 11
-156.875
 21
-1808.75
 31
0.0
  0
LINE
  5
244
330
76
100
AcDbEntity
  8
0
 62
     0
100
AcDbLine
 10
-155.625
 20
-1808.75
 30
0.0
 11
-155.625
 21
-1808.75
 31
0.0
  0
LINE
  5
245
330
76
100
AcDbEntity
  8
0
 62
     0
100
AcDbLine
 10
-154.375
 20
-1808.75
 30
0.0
 11
-154.375
 21
-1808.75
 31
0.0
  0
LINE
  5
246
330
76
100
AcDbEntity
  8
0
 62
     0
100
AcDbLine
 10
-153.125
 20
-1808.75
 30
0.0
 11
-153.125
 21
-1808.75
 31
0.0
  0
LINE
  5
247
330
76
100
AcDbEntity
  8
0
 62
     0
100
AcDbLine
 10
-151.875
 20
-1808.75
 30
0.0
 11
-151.875
 21
-1808.75
 31
0.0
  0
LINE
  5
248
330
76
100
AcDbEntity
  8
0
 62
     0
100
AcDbLine
 10
-150.625
 20
-1808.75
 30
0.0
 11
-150.625
 21
-1808.75
 31
0.0
  0
LINE
  5
249
330
76
100
AcDbEntity
  8
0
 62
     0
100
AcDbLine
 10
-149.375
 20
-1808.75
 30
0.0
 11
-149.375
 21
-1808.75
 31
0.0
  0
LINE
  5
24A
330
76
100
AcDbEntity
  8
0
 62
     0
100
AcDbLine
 10
-148.125
 20
-1808.75
 30
0.0
 11
-148.125
 21
-1808.75
 31
0.0
  0
LINE
  5
24B
330
76
100
AcDbEntity
  8
0
 62
     0
100
AcDbLine
 10
-146.875
 20
-1808.75
 30
0.0
 11
-146.875
 21
-1808.75
 31
0.0
  0
LINE
  5
24C
330
76
100
AcDbEntity
  8
0
 62
     0
100
AcDbLine
 10
-145.625
 20
-1808.75
 30
0.0
 11
-145.625
 21
-1808.75
 31
0.0
  0
LINE
  5
24D
330
76
100
AcDbEntity
  8
0
 62
     0
100
AcDbLine
 10
-144.375
 20
-1808.75
 30
0.0
 11
-144.375
 21
-1808.75
 31
0.0
  0
LINE
  5
24E
330
76
100
AcDbEntity
  8
0
 62
     0
100
AcDbLine
 10
-165.0
 20
-1810.0
 30
0.0
 11
-165.0
 21
-1810.0
 31
0.0
  0
LINE
  5
24F
330
76
100
AcDbEntity
  8
0
 62
     0
100
AcDbLine
 10
-163.75
 20
-1810.0
 30
0.0
 11
-163.75
 21
-1810.0
 31
0.0
  0
LINE
  5
250
330
76
100
AcDbEntity
  8
0
 62
     0
100
AcDbLine
 10
-162.5
 20
-1810.0
 30
0.0
 11
-162.5
 21
-1810.0
 31
0.0
  0
LINE
  5
251
330
76
100
AcDbEntity
  8
0
 62
     0
100
AcDbLine
 10
-161.25
 20
-1810.0
 30
0.0
 11
-161.25
 21
-1810.0
 31
0.0
  0
LINE
  5
252
330
76
100
AcDbEntity
  8
0
 62
     0
100
AcDbLine
 10
-160.0
 20
-1810.0
 30
0.0
 11
-160.0
 21
-1810.0
 31
0.0
  0
LINE
  5
253
330
76
100
AcDbEntity
  8
0
 62
     0
100
AcDbLine
 10
-158.75
 20
-1810.0
 30
0.0
 11
-158.75
 21
-1810.0
 31
0.0
  0
LINE
  5
254
330
76
100
AcDbEntity
  8
0
 62
     0
100
AcDbLine
 10
-157.5
 20
-1810.0
 30
0.0
 11
-157.5
 21
-1810.0
 31
0.0
  0
LINE
  5
255
330
76
100
AcDbEntity
  8
0
 62
     0
100
AcDbLine
 10
-156.25
 20
-1810.0
 30
0.0
 11
-156.25
 21
-1810.0
 31
0.0
  0
LINE
  5
256
330
76
100
AcDbEntity
  8
0
 62
     0
100
AcDbLine
 10
-155.0
 20
-1810.0
 30
0.0
 11
-155.0
 21
-1810.0
 31
0.0
  0
LINE
  5
257
330
76
100
AcDbEntity
  8
0
 62
     0
100
AcDbLine
 10
-153.75
 20
-1810.0
 30
0.0
 11
-153.75
 21
-1810.0
 31
0.0
  0
LINE
  5
258
330
76
100
AcDbEntity
  8
0
 62
     0
100
AcDbLine
 10
-152.5
 20
-1810.0
 30
0.0
 11
-152.5
 21
-1810.0
 31
0.0
  0
LINE
  5
259
330
76
100
AcDbEntity
  8
0
 62
     0
100
AcDbLine
 10
-151.25
 20
-1810.0
 30
0.0
 11
-151.25
 21
-1810.0
 31
0.0
  0
LINE
  5
25A
330
76
100
AcDbEntity
  8
0
 62
     0
100
AcDbLine
 10
-150.0
 20
-1810.0
 30
0.0
 11
-150.0
 21
-1810.0
 31
0.0
  0
LINE
  5
25B
330
76
100
AcDbEntity
  8
0
 62
     0
100
AcDbLine
 10
-148.75
 20
-1810.0
 30
0.0
 11
-148.75
 21
-1810.0
 31
0.0
  0
LINE
  5
25C
330
76
100
AcDbEntity
  8
0
 62
     0
100
AcDbLine
 10
-147.4999999999999
 20
-1810.0
 30
0.0
 11
-147.4999999999999
 21
-1810.0
 31
0.0
  0
LINE
  5
25D
330
76
100
AcDbEntity
  8
0
 62
     0
100
AcDbLine
 10
-146.2499999999999
 20
-1810.0
 30
0.0
 11
-146.2499999999999
 21
-1810.0
 31
0.0
  0
LINE
  5
25E
330
76
100
AcDbEntity
  8
0
 62
     0
100
AcDbLine
 10
-145.0
 20
-1810.0
 30
0.0
 11
-145.0
 21
-1810.0
 31
0.0
  0
LINE
  5
25F
330
76
100
AcDbEntity
  8
0
 62
     0
100
AcDbLine
 10
-165.625
 20
-1811.25
 30
0.0
 11
-165.625
 21
-1811.25
 31
0.0
  0
LINE
  5
260
330
76
100
AcDbEntity
  8
0
 62
     0
100
AcDbLine
 10
-164.375
 20
-1811.25
 30
0.0
 11
-164.375
 21
-1811.25
 31
0.0
  0
LINE
  5
261
330
76
100
AcDbEntity
  8
0
 62
     0
100
AcDbLine
 10
-163.125
 20
-1811.25
 30
0.0
 11
-163.125
 21
-1811.25
 31
0.0
  0
LINE
  5
262
330
76
100
AcDbEntity
  8
0
 62
     0
100
AcDbLine
 10
-161.875
 20
-1811.25
 30
0.0
 11
-161.875
 21
-1811.25
 31
0.0
  0
LINE
  5
263
330
76
100
AcDbEntity
  8
0
 62
     0
100
AcDbLine
 10
-160.625
 20
-1811.25
 30
0.0
 11
-160.625
 21
-1811.25
 31
0.0
  0
LINE
  5
264
330
76
100
AcDbEntity
  8
0
 62
     0
100
AcDbLine
 10
-159.375
 20
-1811.25
 30
0.0
 11
-159.375
 21
-1811.25
 31
0.0
  0
LINE
  5
265
330
76
100
AcDbEntity
  8
0
 62
     0
100
AcDbLine
 10
-158.125
 20
-1811.25
 30
0.0
 11
-158.125
 21
-1811.25
 31
0.0
  0
LINE
  5
266
330
76
100
AcDbEntity
  8
0
 62
     0
100
AcDbLine
 10
-156.875
 20
-1811.25
 30
0.0
 11
-156.875
 21
-1811.25
 31
0.0
  0
LINE
  5
267
330
76
100
AcDbEntity
  8
0
 62
     0
100
AcDbLine
 10
-155.625
 20
-1811.25
 30
0.0
 11
-155.625
 21
-1811.25
 31
0.0
  0
LINE
  5
268
330
76
100
AcDbEntity
  8
0
 62
     0
100
AcDbLine
 10
-154.375
 20
-1811.25
 30
0.0
 11
-154.375
 21
-1811.25
 31
0.0
  0
LINE
  5
269
330
76
100
AcDbEntity
  8
0
 62
     0
100
AcDbLine
 10
-153.125
 20
-1811.25
 30
0.0
 11
-153.125
 21
-1811.25
 31
0.0
  0
LINE
  5
26A
330
76
100
AcDbEntity
  8
0
 62
     0
100
AcDbLine
 10
-151.875
 20
-1811.25
 30
0.0
 11
-151.875
 21
-1811.25
 31
0.0
  0
LINE
  5
26B
330
76
100
AcDbEntity
  8
0
 62
     0
100
AcDbLine
 10
-148.125
 20
-1811.25
 30
0.0
 11
-148.125
 21
-1811.25
 31
0.0
  0
LINE
  5
26C
330
76
100
AcDbEntity
  8
0
 62
     0
100
AcDbLine
 10
-146.875
 20
-1811.25
 30
0.0
 11
-146.875
 21
-1811.25
 31
0.0
  0
LINE
  5
26D
330
76
100
AcDbEntity
  8
0
 62
     0
100
AcDbLine
 10
-145.625
 20
-1811.25
 30
0.0
 11
-145.625
 21
-1811.25
 31
0.0
  0
LINE
  5
26E
330
76
100
AcDbEntity
  8
0
 62
     0
100
AcDbLine
 10
-150.6249999999999
 20
-1811.25
 30
0.0
 11
-150.6249999999999
 21
-1811.25
 31
0.0
  0
LINE
  5
26F
330
76
100
AcDbEntity
  8
0
 62
     0
100
AcDbLine
 10
-149.3749999999999
 20
-1811.25
 30
0.0
 11
-149.3749999999999
 21
-1811.25
 31
0.0
  0
LINE
  5
270
330
76
100
AcDbEntity
  8
0
 62
     0
100
AcDbLine
 10
-166.2499999999999
 20
-1812.5
 30
0.0
 11
-166.2499999999999
 21
-1812.5
 31
0.0
  0
LINE
  5
271
330
76
100
AcDbEntity
  8
0
 62
     0
100
AcDbLine
 10
-164.9999999999999
 20
-1812.5
 30
0.0
 11
-164.9999999999999
 21
-1812.5
 31
0.0
  0
LINE
  5
272
330
76
100
AcDbEntity
  8
0
 62
     0
100
AcDbLine
 10
-163.75
 20
-1812.5
 30
0.0
 11
-163.75
 21
-1812.5
 31
0.0
  0
LINE
  5
273
330
76
100
AcDbEntity
  8
0
 62
     0
100
AcDbLine
 10
-162.5
 20
-1812.5
 30
0.0
 11
-162.5
 21
-1812.5
 31
0.0
  0
LINE
  5
274
330
76
100
AcDbEntity
  8
0
 62
     0
100
AcDbLine
 10
-161.25
 20
-1812.5
 30
0.0
 11
-161.25
 21
-1812.5
 31
0.0
  0
LINE
  5
275
330
76
100
AcDbEntity
  8
0
 62
     0
100
AcDbLine
 10
-159.9999999999999
 20
-1812.5
 30
0.0
 11
-159.9999999999999
 21
-1812.5
 31
0.0
  0
LINE
  5
276
330
76
100
AcDbEntity
  8
0
 62
     0
100
AcDbLine
 10
-158.7499999999999
 20
-1812.5
 30
0.0
 11
-158.7499999999999
 21
-1812.5
 31
0.0
  0
LINE
  5
277
330
76
100
AcDbEntity
  8
0
 62
     0
100
AcDbLine
 10
-157.5
 20
-1812.5
 30
0.0
 11
-157.5
 21
-1812.5
 31
0.0
  0
LINE
  5
278
330
76
100
AcDbEntity
  8
0
 62
     0
100
AcDbLine
 10
-156.25
 20
-1812.5
 30
0.0
 11
-156.25
 21
-1812.5
 31
0.0
  0
LINE
  5
279
330
76
100
AcDbEntity
  8
0
 62
     0
100
AcDbLine
 10
-155.0
 20
-1812.5
 30
0.0
 11
-155.0
 21
-1812.5
 31
0.0
  0
LINE
  5
27A
330
76
100
AcDbEntity
  8
0
 62
     0
100
AcDbLine
 10
-153.7499999999999
 20
-1812.5
 30
0.0
 11
-153.7499999999999
 21
-1812.5
 31
0.0
  0
LINE
  5
27B
330
76
100
AcDbEntity
  8
0
 62
     0
100
AcDbLine
 10
-152.4999999999999
 20
-1812.5
 30
0.0
 11
-152.4999999999999
 21
-1812.5
 31
0.0
  0
LINE
  5
27C
330
76
100
AcDbEntity
  8
0
 62
     0
100
AcDbLine
 10
-147.4999999999999
 20
-1812.5
 30
0.0
 11
-147.4999999999999
 21
-1812.5
 31
0.0
  0
LINE
  5
27D
330
76
100
AcDbEntity
  8
0
 62
     0
100
AcDbLine
 10
-151.25
 20
-1812.5
 30
0.0
 11
-151.25
 21
-1812.5
 31
0.0
  0
LINE
  5
27E
330
76
100
AcDbEntity
  8
0
 62
     0
100
AcDbLine
 10
-150.0
 20
-1812.5
 30
0.0
 11
-150.0
 21
-1812.5
 31
0.0
  0
LINE
  5
27F
330
76
100
AcDbEntity
  8
0
 62
     0
100
AcDbLine
 10
-148.75
 20
-1812.5
 30
0.0
 11
-148.75
 21
-1812.5
 31
0.0
  0
LINE
  5
280
330
76
100
AcDbEntity
  8
0
 62
     0
100
AcDbLine
 10
-166.875
 20
-1813.75
 30
0.0
 11
-166.875
 21
-1813.75
 31
0.0
  0
LINE
  5
281
330
76
100
AcDbEntity
  8
0
 62
     0
100
AcDbLine
 10
-165.625
 20
-1813.75
 30
0.0
 11
-165.625
 21
-1813.75
 31
0.0
  0
LINE
  5
282
330
76
100
AcDbEntity
  8
0
 62
     0
100
AcDbLine
 10
-164.375
 20
-1813.75
 30
0.0
 11
-164.375
 21
-1813.75
 31
0.0
  0
LINE
  5
283
330
76
100
AcDbEntity
  8
0
 62
     0
100
AcDbLine
 10
-163.125
 20
-1813.75
 30
0.0
 11
-163.125
 21
-1813.75
 31
0.0
  0
LINE
  5
284
330
76
100
AcDbEntity
  8
0
 62
     0
100
AcDbLine
 10
-161.875
 20
-1813.75
 30
0.0
 11
-161.875
 21
-1813.75
 31
0.0
  0
LINE
  5
285
330
76
100
AcDbEntity
  8
0
 62
     0
100
AcDbLine
 10
-160.625
 20
-1813.75
 30
0.0
 11
-160.625
 21
-1813.75
 31
0.0
  0
LINE
  5
286
330
76
100
AcDbEntity
  8
0
 62
     0
100
AcDbLine
 10
-159.375
 20
-1813.75
 30
0.0
 11
-159.375
 21
-1813.75
 31
0.0
  0
LINE
  5
287
330
76
100
AcDbEntity
  8
0
 62
     0
100
AcDbLine
 10
-158.125
 20
-1813.75
 30
0.0
 11
-158.125
 21
-1813.75
 31
0.0
  0
LINE
  5
288
330
76
100
AcDbEntity
  8
0
 62
     0
100
AcDbLine
 10
-156.875
 20
-1813.75
 30
0.0
 11
-156.875
 21
-1813.75
 31
0.0
  0
LINE
  5
289
330
76
100
AcDbEntity
  8
0
 62
     0
100
AcDbLine
 10
-155.625
 20
-1813.75
 30
0.0
 11
-155.625
 21
-1813.75
 31
0.0
  0
LINE
  5
28A
330
76
100
AcDbEntity
  8
0
 62
     0
100
AcDbLine
 10
-154.375
 20
-1813.75
 30
0.0
 11
-154.375
 21
-1813.75
 31
0.0
  0
LINE
  5
28B
330
76
100
AcDbEntity
  8
0
 62
     0
100
AcDbLine
 10
-153.125
 20
-1813.75
 30
0.0
 11
-153.125
 21
-1813.75
 31
0.0
  0
LINE
  5
28C
330
76
100
AcDbEntity
  8
0
 62
     0
100
AcDbLine
 10
-151.875
 20
-1813.75
 30
0.0
 11
-151.875
 21
-1813.75
 31
0.0
  0
LINE
  5
28D
330
76
100
AcDbEntity
  8
0
 62
     0
100
AcDbLine
 10
-150.625
 20
-1813.75
 30
0.0
 11
-150.625
 21
-1813.75
 31
0.0
  0
LINE
  5
28E
330
76
100
AcDbEntity
  8
0
 62
     0
100
AcDbLine
 10
-149.375
 20
-1813.75
 30
0.0
 11
-149.375
 21
-1813.75
 31
0.0
  0
LINE
  5
28F
330
76
100
AcDbEntity
  8
0
 62
     0
100
AcDbLine
 10
-148.125
 20
-1813.75
 30
0.0
 11
-148.125
 21
-1813.75
 31
0.0
  0
LINE
  5
290
330
76
100
AcDbEntity
  8
0
 62
     0
100
AcDbLine
 10
-163.7499999999999
 20
-1815.0
 30
0.0
 11
-163.7499999999999
 21
-1815.0
 31
0.0
  0
LINE
  5
291
330
76
100
AcDbEntity
  8
0
 62
     0
100
AcDbLine
 10
-162.4999999999999
 20
-1815.0
 30
0.0
 11
-162.4999999999999
 21
-1815.0
 31
0.0
  0
LINE
  5
292
330
76
100
AcDbEntity
  8
0
 62
     0
100
AcDbLine
 10
-161.2499999999999
 20
-1815.0
 30
0.0
 11
-161.2499999999999
 21
-1815.0
 31
0.0
  0
LINE
  5
293
330
76
100
AcDbEntity
  8
0
 62
     0
100
AcDbLine
 10
-159.9999999999999
 20
-1815.0
 30
0.0
 11
-159.9999999999999
 21
-1815.0
 31
0.0
  0
LINE
  5
294
330
76
100
AcDbEntity
  8
0
 62
     0
100
AcDbLine
 10
-158.7499999999999
 20
-1815.0
 30
0.0
 11
-158.7499999999999
 21
-1815.0
 31
0.0
  0
LINE
  5
295
330
76
100
AcDbEntity
  8
0
 62
     0
100
AcDbLine
 10
-157.4999999999999
 20
-1815.0
 30
0.0
 11
-157.4999999999999
 21
-1815.0
 31
0.0
  0
LINE
  5
296
330
76
100
AcDbEntity
  8
0
 62
     0
100
AcDbLine
 10
-156.2499999999999
 20
-1815.0
 30
0.0
 11
-156.2499999999999
 21
-1815.0
 31
0.0
  0
LINE
  5
297
330
76
100
AcDbEntity
  8
0
 62
     0
100
AcDbLine
 10
-154.9999999999999
 20
-1815.0
 30
0.0
 11
-154.9999999999999
 21
-1815.0
 31
0.0
  0
LINE
  5
298
330
76
100
AcDbEntity
  8
0
 62
     0
100
AcDbLine
 10
-153.7499999999999
 20
-1815.0
 30
0.0
 11
-153.7499999999999
 21
-1815.0
 31
0.0
  0
LINE
  5
299
330
76
100
AcDbEntity
  8
0
 62
     0
100
AcDbLine
 10
-152.4999999999999
 20
-1815.0
 30
0.0
 11
-152.4999999999999
 21
-1815.0
 31
0.0
  0
LINE
  5
29A
330
76
100
AcDbEntity
  8
0
 62
     0
100
AcDbLine
 10
-151.25
 20
-1815.0
 30
0.0
 11
-151.25
 21
-1815.0
 31
0.0
  0
LINE
  5
29B
330
76
100
AcDbEntity
  8
0
 62
     0
100
AcDbLine
 10
-150.0
 20
-1815.0
 30
0.0
 11
-150.0
 21
-1815.0
 31
0.0
  0
LINE
  5
29C
330
76
100
AcDbEntity
  8
0
 62
     0
100
AcDbLine
 10
-148.75
 20
-1815.0
 30
0.0
 11
-148.75
 21
-1815.0
 31
0.0
  0
LINE
  5
29D
330
76
100
AcDbEntity
  8
0
 62
     0
100
AcDbLine
 10
-147.4999999999999
 20
-1815.0
 30
0.0
 11
-147.4999999999999
 21
-1815.0
 31
0.0
  0
LINE
  5
29E
330
76
100
AcDbEntity
  8
0
 62
     0
100
AcDbLine
 10
-160.625
 20
-1816.25
 30
0.0
 11
-160.625
 21
-1816.25
 31
0.0
  0
LINE
  5
29F
330
76
100
AcDbEntity
  8
0
 62
     0
100
AcDbLine
 10
-159.375
 20
-1816.25
 30
0.0
 11
-159.375
 21
-1816.25
 31
0.0
  0
LINE
  5
2A0
330
76
100
AcDbEntity
  8
0
 62
     0
100
AcDbLine
 10
-158.125
 20
-1816.25
 30
0.0
 11
-158.125
 21
-1816.25
 31
0.0
  0
LINE
  5
2A1
330
76
100
AcDbEntity
  8
0
 62
     0
100
AcDbLine
 10
-156.8749999999999
 20
-1816.25
 30
0.0
 11
-156.8749999999999
 21
-1816.25
 31
0.0
  0
LINE
  5
2A2
330
76
100
AcDbEntity
  8
0
 62
     0
100
AcDbLine
 10
-155.6249999999999
 20
-1816.25
 30
0.0
 11
-155.6249999999999
 21
-1816.25
 31
0.0
  0
LINE
  5
2A3
330
76
100
AcDbEntity
  8
0
 62
     0
100
AcDbLine
 10
-154.375
 20
-1816.25
 30
0.0
 11
-154.375
 21
-1816.25
 31
0.0
  0
LINE
  5
2A4
330
76
100
AcDbEntity
  8
0
 62
     0
100
AcDbLine
 10
-153.125
 20
-1816.25
 30
0.0
 11
-153.125
 21
-1816.25
 31
0.0
  0
LINE
  5
2A5
330
76
100
AcDbEntity
  8
0
 62
     0
100
AcDbLine
 10
-151.875
 20
-1816.25
 30
0.0
 11
-151.875
 21
-1816.25
 31
0.0
  0
LINE
  5
2A6
330
76
100
AcDbEntity
  8
0
 62
     0
100
AcDbLine
 10
-150.6249999999999
 20
-1816.25
 30
0.0
 11
-150.6249999999999
 21
-1816.25
 31
0.0
  0
LINE
  5
2A7
330
76
100
AcDbEntity
  8
0
 62
     0
100
AcDbLine
 10
-149.3749999999999
 20
-1816.25
 30
0.0
 11
-149.3749999999999
 21
-1816.25
 31
0.0
  0
LINE
  5
2A8
330
76
100
AcDbEntity
  8
0
 62
     0
100
AcDbLine
 10
-148.125
 20
-1816.25
 30
0.0
 11
-148.125
 21
-1816.25
 31
0.0
  0
LINE
  5
2A9
330
76
100
AcDbEntity
  8
0
 62
     0
100
AcDbLine
 10
-155.0
 20
-1817.5
 30
0.0
 11
-155.0
 21
-1817.5
 31
0.0
  0
LINE
  5
2AA
330
76
100
AcDbEntity
  8
0
 62
     0
100
AcDbLine
 10
-153.75
 20
-1817.5
 30
0.0
 11
-153.75
 21
-1817.5
 31
0.0
  0
LINE
  5
2AB
330
76
100
AcDbEntity
  8
0
 62
     0
100
AcDbLine
 10
-152.4999999999999
 20
-1817.5
 30
0.0
 11
-152.4999999999999
 21
-1817.5
 31
0.0
  0
LINE
  5
2AC
330
76
100
AcDbEntity
  8
0
 62
     0
100
AcDbLine
 10
-151.2499999999999
 20
-1817.5
 30
0.0
 11
-151.2499999999999
 21
-1817.5
 31
0.0
  0
LINE
  5
2AD
330
76
100
AcDbEntity
  8
0
 62
     0
100
AcDbLine
 10
-149.9999999999999
 20
-1817.5
 30
0.0
 11
-149.9999999999999
 21
-1817.5
 31
0.0
  0
LINE
  5
2AE
330
76
100
AcDbEntity
  8
0
 62
     0
100
AcDbLine
 10
-151.2499999999999
 20
-1820.0
 30
0.0
 11
-151.2499999999999
 21
-1820.0
 31
0.0
  0
LINE
  5
2AF
330
76
100
AcDbEntity
  8
0
 62
     0
100
AcDbLine
 10
-149.9999999999999
 20
-1820.0
 30
0.0
 11
-149.9999999999999
 21
-1820.0
 31
0.0
  0
LINE
  5
2B0
330
76
100
AcDbEntity
  8
0
 62
     0
100
AcDbLine
 10
-148.7499999999999
 20
-1820.0
 30
0.0
 11
-148.7499999999999
 21
-1820.0
 31
0.0
  0
LINE
  5
2B1
330
76
100
AcDbEntity
  8
0
 62
     0
100
AcDbLine
 10
-151.875
 20
-1821.25
 30
0.0
 11
-151.875
 21
-1821.25
 31
0.0
  0
LINE
  5
2B2
330
76
100
AcDbEntity
  8
0
 62
     0
100
AcDbLine
 10
-150.6249999999999
 20
-1821.25
 30
0.0
 11
-150.6249999999999
 21
-1821.25
 31
0.0
  0
LINE
  5
2B3
330
76
100
AcDbEntity
  8
0
 62
     0
100
AcDbLine
 10
-151.25
 20
-1822.5
 30
0.0
 11
-151.25
 21
-1822.5
 31
0.0
  0
LINE
  5
2B4
330
76
100
AcDbEntity
  8
0
 62
     0
100
AcDbLine
 10
-151.875
 20
-1823.75
 30
0.0
 11
-151.875
 21
-1823.75
 31
0.0
  0
ENDBLK
  5
2B5
330
76
100
AcDbEntity
  8
0
100
AcDbBlockEnd
  0
ENDSEC
  0
SECTION
  2
ENTITIES
  0
LWPOLYLINE
  5
2B6
330
6F
100
AcDbEntity
  8
GRABUNGSGRENZE
100
AcDbPolyline
 90
        6
 70
   128
 43
0.0
 10
-254.5162788244415
 20
-1730.552107545332
 10
-324.5095900419157
 20
-1844.995105612017
 10
-205.4750000321269
 20
-1900.965127003258
 10
-113.932669686021
 20
-1775.654632432106
 10
-138.3065417579099
 20
-1751.3372033943
 10
-169.2538920353015
 20
-1730.808094970421
  0
LWPOLYLINE
  5
2BE
330
6F
100
AcDbEntity
  8
GRABUNGSGRENZE
100
AcDbPolyline
 90
        2
 70
     0
 43
0.0
 10
-295.3936155570484
 20
-1731.175579254998
 10
-339.130149558574
 20
-1804.445917977518
  0
LWPOLYLINE
  5
2C2
330
6F
100
AcDbEntity
  8
STEINE
100
AcDbPolyline
 90
        6
 70
     0
 43
0.0
 10
-152.4695885498026
 20
-1825.261563554368
 10
-152.389490379056
 20
-1821.25422390185
 10
-151.2321380564406
 20
-1819.523565738512
 10
-149.6614704259032
 20
-1819.210878018474
 10
-148.4398929279967
 20
-1820.015898721542
 10
-152.4695885498026
 20
-1825.261563554368
  0
LWPOLYLINE
  5
2CA
330
6F
100
AcDbEntity
  8
STEINE
100
AcDbPolyline
 90
        8
 70
     0
 43
0.0
 10
-149.4148987485238
 20
-1817.890833923961
 10
-151.8993183873038
 20
-1818.056226934955
 10
-152.9665779545138
 20
-1817.656147698609
 10
-154.9581243624447
 20
-1815.130733540771
 10
-149.8627899168869
 20
-1809.980834065455
 10
-148.068176702168
 20
-1813.62314627467
 10
-146.893536449332
 20
-1815.138502818936
 10
-149.4148987485238
 20
-1817.890833923961
  0
LWPOLYLINE
  5
2D4
330
6F
100
AcDbEntity
  8
STEINE
100
AcDbPolyline
 90
       11
 70
     0
 43
0.0
 10
-152.9665779545138
 20
-1817.656147698609
 10
-159.0045676666518
 20
-1817.231821625606
 10
-166.4756547610318
 20
-1814.380547991371
 10
-167.5993059101518
 20
-1812.915640303002
 10
-164.0274317261511
 20
-1807.418811686332
 10
-158.698157111753
 20
-1808.100514393102
 10
-158.9590453563463
 20
-1806.73245255788
 10
-155.2568299543955
 20
-1806.662014532666
 10
-148.9633544758581
 20
-1807.440022844765
 10
-142.9196921616165
 20
-1808.9294474937
 10
-148.068176702168
 20
-1813.62314627467
  0
LWPOLYLINE
  5
2E1
330
6F
100
AcDbEntity
  8
STEINE
100
AcDbPolyline
 90
        5
 70
     0
 43
0.0
 10
-158.9590453563463
 20
-1806.73245255788
 10
-162.8182799280906
 20
-1805.89075931831
 10
-159.5493690033793
 20
-1800.64914634413
 10
-155.9426488350277
 20
-1801.695066122474
 10
-158.9590453563463
 20
-1806.73245255788
  0
LWPOLYLINE
  5
2E8
330
6F
100
AcDbEntity
  8
STEINE
100
AcDbPolyline
 90
       16
 70
     0
 43
0.0
 10
-148.0057009007682
 20
-1796.783634607246
 10
-152.1144785128986
 20
-1796.704076684319
 10
-154.8616772636398
 20
-1795.146375001447
 10
-156.8389071043567
 20
-1795.309066773344
 10
-159.5364673709305
 20
-1793.548219047337
 10
-159.9489723071233
 20
-1792.282405543457
 10
-161.0777558105275
 20
-1789.853837238768
 10
-160.737309643007
 20
-1787.113121461859
 10
-156.6104980441435
 20
-1781.055412704313
 10
-156.8805705016665
 20
-1777.962905555677
 10
-155.572141735271
 20
-1776.028561101385
 10
-152.8395296756533
 20
-1774.847437874716
 10
-151.7372183153994
 20
-1772.305546158388
 10
-148.7488503654726
 20
-1771.528824150621
 10
-139.2797338893291
 20
-1778.122767458044
 10
-148.0057009007682
 20
-1796.783634607246
  0
LWPOLYLINE
  5
2FA
330
6F
100
AcDbEntity
  8
STEINE
100
AcDbPolyline
 90
        4
 70
     0
 43
0.0
 10
-159.9489723071233
 20
-1792.282405543457
 10
-163.1895845365331
 20
-1793.314073069804
 10
-164.869793843974
 20
-1792.105731643472
 10
-161.0777558105275
 20
-1789.853837238768
  0
LWPOLYLINE
  5
300
330
6F
100
AcDbEntity
  8
STEINE
100
AcDbPolyline
 90
        7
 70
     0
 43
0.0
 10
-156.8389071043567
 20
-1795.309066773344
 10
-159.3756664664012
 20
-1795.17041602941
 10
-160.5470652323209
 20
-1794.263687242819
 10
-161.9566618344193
 20
-1796.249290924737
 10
-158.5476852310088
 20
-1798.25995181504
 10
-156.8774705082267
 20
-1797.591690988538
 10
-156.8389071043567
 20
-1795.309066773344
  0
LWPOLYLINE
  5
309
330
6F
100
AcDbEntity
  8
STEINE
100
AcDbPolyline
 90
       10
 70
     0
 43
0.0
 10
-155.7857454326242
 20
-1745.445286402091
 10
-156.4719759306426
 20
-1759.447776687277
 10
-160.4944425221034
 20
-1756.527415647378
 10
-163.688657754262
 20
-1756.747309372913
 10
-165.8595793012745
 20
-1758.635526953864
 10
-170.2715902966039
 20
-1758.76046569362
 10
-171.1899344113114
 20
-1757.750948327868
 10
-169.160969410366
 20
-1748.255424023791
 10
-168.5850266457635
 20
-1742.115185980312
 10
-155.7857454326242
 20
-1745.445286402091
  0
LWPOLYLINE
  5
315
330
6F
100
AcDbEntity
  8
STEINE
100
AcDbPolyline
 90
        6
 70
     0
 43
0.0
 10
-237.6043996753061
 20
-1820.389338595175
 10
-240.4368289510781
 20
-1821.875315948501
 10
-241.6166015581984
 20
-1819.396298787915
 10
-240.1587170914808
 20
-1816.953954163831
 10
-237.0626983320185
 20
-1817.34322844379
 10
-237.6043996753061
 20
-1820.389338595175
  0
LWPOLYLINE
  5
31D
330
6F
100
AcDbEntity
  8
STEINE
100
AcDbPolyline
 90
        5
 70
     0
 43
0.0
 10
-233.4765075808039
 20
-1814.534505756855
 10
-233.7376659493069
 20
-1813.115724941827
 10
-231.6082791691711
 20
-1812.952222798201
 10
-231.7526025152088
 20
-1814.423883584313
 10
-233.4765075808039
 20
-1814.534505756855
  0
LWPOLYLINE
  5
324
330
6F
100
AcDbEntity
  8
STEINE
100
AcDbPolyline
 90
        7
 70
     0
 43
0.0
 10
-224.0071852959672
 20
-1811.643729716588
 10
-227.7045384675435
 20
-1812.627109378316
 10
-229.4246617984029
 20
-1813.447797268147
 10
-232.0315890617518
 20
-1809.657650102068
 10
-231.032876652388
 20
-1806.710546795108
 10
-228.3908975959951
 20
-1807.558723008511
 10
-224.0071852959672
 20
-1811.643729716588
  0
LWPOLYLINE
  5
32D
330
6F
100
AcDbEntity
  8
STEINE
100
AcDbPolyline
 90
        5
 70
     0
 43
0.0
 10
-225.1030136823885
 20
-1815.402876948268
 10
-222.2738258935328
 20
-1813.308271837267
 10
-220.993425698529
 20
-1815.634591810615
 10
-221.8842171744475
 20
-1819.798410385106
 10
-225.1030136823885
 20
-1815.402876948268
  0
LWPOLYLINE
  5
334
330
6F
100
AcDbEntity
  8
STEINE
100
AcDbPolyline
 90
        9
 70
     0
 43
0.0
 10
-193.6781100587405
 20
-1801.794600351675
 10
-196.6373689416366
 20
-1798.513533851028
 10
-197.7629109581245
 20
-1796.693593304014
 10
-197.2681468599075
 20
-1794.357818993827
 10
-188.9804880495589
 20
-1788.63299293433
 10
-188.3505205030172
 20
-1792.636550852112
 10
-189.7520133878247
 20
-1796.143723928219
 10
-190.2365127774734
 20
-1800.406819471046
 10
-193.6781100587405
 20
-1801.794600351675
  0
LWPOLYLINE
  5
33F
330
6F
100
AcDbEntity
  8
STEINE
100
AcDbPolyline
 90
        5
 70
     0
 43
0.0
 10
-280.2102207169296
 20
-1782.1701754905
 10
-277.4433672359971
 20
-1777.894924371737
 10
-279.6841865604044
 20
-1776.182364510349
 10
-282.2182446833519
 20
-1776.550903564478
 10
-284.6362781555632
 20
-1779.657727280328
  0
LWPOLYLINE
  5
346
330
6F
100
AcDbEntity
  8
STEINE
100
AcDbPolyline
 90
        2
 70
     0
 43
0.0
 10
-280.2102207169296
 20
-1782.1701754905
 10
-284.6362781555632
 20
-1779.657727280328
  0
LWPOLYLINE
  5
34A
330
6F
100
AcDbEntity
  8
STEINE
100
AcDbPolyline
 90
        5
 70
     0
 43
0.0
 10
-282.1029660891282
 20
-1788.672469614276
 10
-280.6920188674812
 20
-1786.94046083139
 10
-278.1959839005843
 20
-1788.955983952067
 10
-279.7623295485665
 20
-1790.080175349007
 10
-282.1029660891282
 20
-1788.672469614276
  0
LWPOLYLINE
  5
351
330
6F
100
AcDbEntity
  8
STEINE
100
AcDbPolyline
 90
       12
 70
     0
 43
0.0
 10
-278.1322989731125
 20
-1791.39022485886
 10
-275.558867074566
 20
-1788.891218528956
 10
-272.769323185219
 20
-1788.876361713923
 10
-271.3030648773009
 20
-1788.006305463835
 10
-269.3193520627513
 20
-1789.060869207289
 10
-267.5449981412596
 20
-1788.899257931031
 10
-265.4525540215355
 20
-1791.322693881436
 10
-266.6530618544857
 20
-1794.47375360326
 10
-268.684522285835
 20
-1793.977368761584
 10
-270.605360544642
 20
-1795.204888985504
 10
-277.3644910543658
 20
-1792.704866475179
 10
-278.1322989731125
 20
-1791.39022485886
  0
LWPOLYLINE
  5
35F
330
6F
100
AcDbEntity
  8
STEINE
100
AcDbPolyline
 90
        4
 70
     0
 43
0.0
 10
-273.3980044274288
 20
-1775.590960367677
 10
-269.2951695413118
 20
-1774.554700734866
 10
-269.788042772161
 20
-1777.245507903697
 10
-273.3980044274288
 20
-1775.590960367677
  0
LWPOLYLINE
  5
365
330
6F
100
AcDbEntity
  8
STEINE
100
AcDbPolyline
 90
        4
 70
     0
 43
0.0
 10
-258.5070251510779
 20
-1790.727778127938
 10
-256.8961733732124
 20
-1788.436780071544
 10
-254.5544563370119
 20
-1790.0473617255
 10
-258.5070251510779
 20
-1790.727778127938
  0
LWPOLYLINE
  5
36B
330
6F
100
AcDbEntity
  8
STEINE
100
AcDbPolyline
 90
        8
 70
     0
 43
0.0
 10
-262.2621848393292
 20
-1780.857296111116
 10
-261.6613906750347
 20
-1779.383204209817
 10
-258.211419552567
 20
-1779.567711703183
 10
-254.513796257081
 20
-1778.635051021261
 10
-253.0302500189423
 20
-1781.011009478777
 10
-257.6777576113536
 20
-1784.535470485104
 10
-258.9066284548219
 20
-1782.361037327265
 10
-262.2621848393292
 20
-1780.857296111116
  0
LWPOLYLINE
  5
375
330
6F
100
AcDbEntity
  8
STEINE
100
AcDbPolyline
 90
        6
 70
     0
 43
0.0
 10
-256.249316650793
 20
-1776.564757062132
 10
-253.7406501753569
 20
-1771.42863390621
 10
-250.235367966618
 20
-1772.475093932374
 10
-248.5907507000404
 20
-1776.523968351768
 10
-252.2322525375262
 20
-1778.470738505906
 10
-256.249316650793
 20
-1776.564757062132
  0
LWPOLYLINE
  5
37D
330
6F
100
AcDbEntity
  8
STEINE
100
AcDbPolyline
 90
        6
 70
     0
 43
0.0
 10
-258.6040639498754
 20
-1762.984226049978
 10
-256.5378218493919
 20
-1760.487920959171
 10
-251.1000860537291
 20
-1762.487776893086
 10
-251.6889947659969
 20
-1766.193503905863
 10
-255.3356289577669
 20
-1767.176613443681
 10
-258.6040639498754
 20
-1762.984226049978
  0
LWPOLYLINE
  5
385
330
6F
100
AcDbEntity
  8
STEINE
100
AcDbPolyline
 90
        5
 70
     0
 43
0.0
 10
-262.0818578350419
 20
-1757.575663636562
 10
-264.8940921328034
 20
-1753.330126147866
 10
-260.4343335206743
 20
-1752.64700850633
 10
-253.4232288553771
 20
-1754.84136651827
 10
-262.0818578350419
 20
-1757.575663636562
  0
LWPOLYLINE
  5
38C
330
6F
100
AcDbEntity
  8
STEINE
100
AcDbPolyline
 90
        5
 70
     0
 43
0.0
 10
-249.5491374685995
 20
-1758.472603647187
 10
-248.447366356165
 20
-1755.829273971246
 10
-245.3972043461344
 20
-1757.131760011628
 10
-245.5393667008945
 20
-1759.009172636191
 10
-249.5491374685995
 20
-1758.472603647187
  0
LWPOLYLINE
  5
393
330
6F
100
AcDbEntity
  8
STEINE
100
AcDbPolyline
 90
        3
 70
     0
 43
0.0
 10
-240.8062941443261
 20
-1762.027189900967
 10
-241.6579819685551
 20
-1764.009822219878
 10
-246.5307857646966
 20
-1763.325688397921
  0
LWPOLYLINE
  5
398
330
6F
100
AcDbEntity
  8
STEINE
100
AcDbPolyline
 90
        3
 70
     0
 43
0.0
 10
-246.5307857646966
 20
-1763.325688397921
 10
-245.4233420501583
 20
-1761.747457297912
 10
-240.8062941443261
 20
-1762.027189900967
  0
LWPOLYLINE
  5
39D
330
6F
100
AcDbEntity
  8
STEINE
100
AcDbPolyline
 90
        5
 70
     0
 43
0.0
 10
-240.0563144036193
 20
-1759.994378850069
 10
-239.5111014495057
 20
-1757.607615436166
 10
-236.4137320704948
 20
-1758.250484615157
 10
-236.8119204394738
 20
-1759.672777041011
 10
-240.0563144036193
 20
-1759.994378850069
  0
LWPOLYLINE
  5
3A4
330
6F
100
AcDbEntity
  8
BEFUND
100
AcDbPolyline
 90
       20
 70
     0
 43
0.0
 10
-163.1423257153796
 20
-1840.280928866084
 10
-169.8515476170262
 20
-1837.62847929243
 10
-173.3125938197915
 20
-1835.364493627005
 10
-173.8074222332251
 20
-1828.164829609697
 10
-173.1349037393846
 20
-1821.111109681884
 10
-177.0381041931928
 20
-1821.537661061381
 10
-181.4222924258235
 20
-1826.886654721187
 10
-191.387459304516
 20
-1831.910329152415
 10
-199.0131344535022
 20
-1828.603395071653
 10
-204.9925715924527
 20
-1829.649649289124
 10
-210.9026512018278
 20
-1834.19524298932
 10
-223.3128639437012
 20
-1837.253843155767
 10
-233.4858332872101
 20
-1831.830218118626
 10
-242.1323710061551
 20
-1827.311431000706
 10
-253.7543107273616
 20
-1826.003876921256
 10
-266.2783871286936
 20
-1826.729944264433
 10
-278.7520146741291
 20
-1827.405022503894
 10
-287.7373778171366
 20
-1825.931265041721
 10
-298.2116896764766
 20
-1821.067169525907
 10
-306.1454604390364
 20
-1817.051790471315
  0
LWPOLYLINE
  5
3BA
330
6F
100
AcDbEntity
  8
BEFUND
100
AcDbPolyline
 90
       13
 70
     0
 43
0.0
 10
-160.737309643007
 20
-1787.113121461859
 10
-166.0010727777821
 20
-1779.68525419303
 10
-175.8327855820413
 20
-1771.673070318399
 10
-186.2048491100396
 20
-1766.960591494184
 10
-196.7174542493399
 20
-1764.429839173369
 10
-199.5989817614601
 20
-1766.220400529443
 10
-209.5550287424396
 20
-1763.43308194659
 10
-222.7339240900054
 20
-1755.489445229805
 10
-227.1098027966522
 20
-1752.87528893611
 10
-229.9913303087724
 20
-1754.665850292184
 10
-239.2945135261025
 20
-1750.657764583154
 10
-253.3973612752629
 20
-1750.17495025218
 10
-264.6054454407279
 20
-1750.386804575641
  0
INSERT
  5
3C9
330
6F
100
AcDbEntity
  8
FEUER
100
AcDbBlockReference
  2
*X1
 10
0.0
 20
0.0
 30
0.0
1001
ACAD
1000
HATCH
1002
{
1070
    16
1000
ANSI31,I
1040
10.0
1040
0.0
1002
}
  0
INSERT
  5
3CA
330
6F
100
AcDbEntity
  8
STEINESCHRAFF
100
AcDbBlockReference
  2
*X2
 10
0.0
 20
0.0
 30
0.0
1001
ACAD
1000
HATCH
1002
{
1070
    16
1000
DOTS,I
1040
20.0
1040
0.0
1002
}
  0
INSERT
  5
3CB
330
6F
100
AcDbEntity
  8
STEINESCHRAFF
100
AcDbBlockReference
  2
*X3
 10
0.0
 20
0.0
 30
0.0
1001
ACAD
1000
HATCH
1002
{
1070
    16
1000
DOTS,I
1040
20.0
1040
0.0
1002
}
  0
ENDSEC
  0
SECTION
  2
OBJECTS
  0
DICTIONARY
  5
C
330
0
100
AcDbDictionary
281
     1
  3
ACAD_CIP_PREVIOUS_PRODUCT_INFO
350
3CE
  3
ACAD_COLOR
350
62
  3
ACAD_DETAILVIEWSTYLE
350
69
  3
ACAD_GROUP
350
D
  3
ACAD_LAYOUT
350
61
  3
ACAD_MATERIAL
350
10
  3
ACAD_MLEADERSTYLE
350
65
  3
ACAD_MLINESTYLE
350
5E
  3
ACAD_PLOTSETTINGS
350
60
  3
ACAD_PLOTSTYLENAME
350
E
  3
ACAD_SCALELIST
350
42
  3
ACAD_SECTIONVIEWSTYLE
350
67
  3
ACAD_TABLESTYLE
350
63
  3
ACAD_VISUALSTYLE
350
29
  3
ACDB_RECOMPOSE_DATA
350
3E5
  3
AcDbVariableDictionary
350
3D8
  0
DICTIONARY
  5
3D2
330
2
100
AcDbDictionary
280
     1
281
     1
  3
ACAD_LAYERSTATES
360
3D3
  0
XRECORD
  5
3CE
102
{ACAD_REACTORS
330
C
102
}
330
C
100
AcDbXrecord
280
     1
300
ACD
300
2014
300
DSADV_F_S
  0
DICTIONARY
  5
62
102
{ACAD_REACTORS
330
C
102
}
330
C
100
AcDbDictionary
281
     1
  0
DICTIONARY
  5
69
102
{ACAD_REACTORS
330
C
102
}
330
C
100
AcDbDictionary
281
     1
  3
Imperial24
350
6A
  0
DICTIONARY
  5
D
102
{ACAD_REACTORS
330
C
102
}
330
C
100
AcDbDictionary
281
     1
  0
DICTIONARY
  5
61
102
{ACAD_REACTORS
330
C
102
}
330
C
100
AcDbDictionary
281
     1
  3
Layout1
350
6E
  3
Model
350
72
  0
DICTIONARY
  5
10
102
{ACAD_REACTORS
330
C
102
}
330
C
100
AcDbDictionary
281
     1
  3
ByBlock
350
19
  3
ByLayer
350
11
  3
Global
350
21
  0
DICTIONARY
  5
65
102
{ACAD_REACTORS
330
C
102
}
330
C
100
AcDbDictionary
281
     1
  3
Standard
350
66
  0
DICTIONARY
  5
5E
102
{ACAD_REACTORS
330
C
102
}
330
C
100
AcDbDictionary
281
     1
  3
Standard
350
5F
  0
DICTIONARY
  5
60
102
{ACAD_REACTORS
330
C
102
}
330
C
100
AcDbDictionary
281
     1
  0
ACDBDICTIONARYWDFLT
  5
E
102
{ACAD_REACTORS
330
C
102
}
330
C
100
AcDbDictionary
281
     1
  3
Normal
350
F
100
AcDbDictionaryWithDefault
340
F
  0
DICTIONARY
  5
42
102
{ACAD_REACTORS
330
C
102
}
330
C
100
AcDbDictionary
281
     1
  3
A0
350
43
  3
A1
350
44
  3
A2
350
45
  3
A3
350
46
  3
A4
350
47
  3
A5
350
48
  3
A6
350
49
  3
A7
350
4A
  3
A8
350
4B
  3
A9
350
4C
  3
B0
350
4D
  3
B1
350
4E
  3
B2
350
4F
  3
B3
350
50
  3
B4
350
51
  3
B5
350
52
  3
B6
350
53
  0
DICTIONARY
  5
67
102
{ACAD_REACTORS
330
C
102
}
330
C
100
AcDbDictionary
281
     1
  3
Imperial24
350
68
  0
DICTIONARY
  5
63
102
{ACAD_REACTORS
330
C
102
}
330
C
100
AcDbDictionary
281
     1
  3
Standard
350
64
  0
DICTIONARY
  5
29
102
{ACAD_REACTORS
330
C
102
}
330
C
100
AcDbDictionary
281
     1
  3
2dWireframe
350
2F
  3
Basic
350
2E
  3
Brighten
350
35
  3
ColorChange
350
39
  3
Conceptual
350
32
  3
Dim
350
34
  3
EdgeColorOff
350
41
  3
Facepattern
350
38
  3
Flat
350
2A
  3
FlatWithEdges
350
2B
  3
Gouraud
350
2C
  3
GouraudWithEdges
350
2D
  3
Hidden
350
31
  3
JitterOff
350
3F
  3
Linepattern
350
37
  3
OverhangOff
350
40
  3
Realistic
350
33
  3
Shaded
350
3E
  3
Shaded with edges
350
3D
  3
Shades of Gray
350
3A
  3
Sketchy
350
3B
  3
Thicken
350
36
  3
Wireframe
350
30
  3
X-Ray
350
3C
  0
XRECORD
  5
3E5
102
{ACAD_REACTORS
330
C
102
}
330
C
100
AcDbXrecord
280
     1
 90
        1
330
64
330
68
330
6A
  0
DICTIONARY
  5
3D8
102
{ACAD_REACTORS
330
C
102
}
330
C
100
AcDbDictionary
281
     1
  3
CANNOSCALE
350
3DD
  3
CMLEADERSTYLE
350
3DA
  3
CTABLESTYLE
350
3D9
  3
CVIEWDETAILSTYLE
350
3DB
  3
CVIEWSECTIONSTYLE
350
3DC
  0
DICTIONARY
  5
3D3
102
{ACAD_REACTORS
330
3D2
102
}
330
3D2
100
AcDbDictionary
281
     1
  0
ACDBDETAILVIEWSTYLE
  5
6A
102
{ACAD_XDICTIONARY
360
3E3
102
}
102
{ACAD_REACTORS
330
69
102
}
330
69
100
AcDbModelDocViewStyle
 70
     0
  3
Imperial24
290
     0
100
AcDbDetailViewStyle
 70
     0
 71
     0
 90
        3
 71
     1
340
55
 62
   256
 40
0.24
340
0
 62
   256
 40
0.24
300

 40
0.36
280
     3
 71
     2
340
5C
 90
       25
 62
   256
 71
     3
340
55
 62
   256
 40
0.24
 90
        1
 40
0.75
 90
        1
300
%<\AcVar ViewType \f "%tc1">% %<\AcVar ViewDetailId>%\PVARIA %<\AcVar ViewScale \f "%sn">%
 71
     4
340
5C
 90
       25
 62
   256
340
5C
 90
       25
 62
   256
280
     0
  0
LAYOUT
  5
6E
102
{ACAD_REACTORS
330
61
102
}
330
61
100
AcDbPlotSettings
  1

  2
Kyocera FS-1350DN KX
  4

  6

 40
0.0
 41
0.0
 42
0.0
 43
0.0
 44
0.0
 45
0.0
 46
0.0
 47
0.0
 48
0.0
 49
0.0
140
0.0
141
0.0
142
1.0
143
1.0
 70
   688
 72
     0
 73
     0
 74
     5
  7

 75
    16
147
1.0
 76
     0
 77
     2
 78
   300
148
0.0
149
0.0
100
AcDbLayout
  1
Layout1
 70
     0
 71
     1
 10
0.0
 20
0.0
 11
12.0
 21
9.0
 12
0.0
 22
0.0
 32
0.0
 14
1.000000000000000E+20
 24
1.000000000000000E+20
 34
1.000000000000000E+20
 15
-1.000000000000000E+20
 25
-1.000000000000000E+20
 35
-1.000000000000000E+20
146
0.0
 13
0.0
 23
0.0
 33
0.0
 16
1.0
 26
0.0
 36
0.0
 17
0.0
 27
1.0
 37
0.0
 76
     0
330
6B
  0
LAYOUT
  5
72
102
{ACAD_REACTORS
330
61
102
}
330
61
100
AcDbPlotSettings
  1

  2
Kyocera FS-1350DN KX
  4

  6

 40
0.0
 41
0.0
 42
0.0
 43
0.0
 44
0.0
 45
0.0
 46
0.0
 47
0.0
 48
0.0
 49
0.0
140
0.0
141
0.0
142
1.0
143
1.0
 70
  1712
 72
     0
 73
     0
 74
     0
  7

 75
     0
147
1.0
 76
     0
 77
     2
 78
   300
148
0.0
149
0.0
100
AcDbLayout
  1
Model
 70
     1
 71
     0
 10
0.0
 20
0.0
 11
12.0
 21
9.0
 12
0.0
 22
0.0
 32
0.0
 14
0.0
 24
0.0
 34
0.0
 15
0.0
 25
0.0
 35
0.0
146
0.0
 13
0.0
 23
0.0
 33
0.0
 16
1.0
 26
0.0
 36
0.0
 17
0.0
 27
1.0
 37
0.0
 76
     0
330
6F
331
90
  0
MATERIAL
  5
19
102
{ACAD_XDICTIONARY
360
1A
102
}
102
{ACAD_REACTORS
330
10
102
}
330
10
100
AcDbMaterial
  1
ByBlock
 72
     0
 43
0.0208333333333333
 43
0.0
 43
0.0
 43
0.0
 43
0.0
 43
0.0208333333333333
 43
0.0
 43
0.0
 43
0.0
 43
0.0
 43
1.0
 43
0.0
 43
0.0
 43
0.0
 43
0.0
 43
1.0
 77
     0
 47
0.0208333333333333
 47
0.0
 47
0.0
 47
0.0
 47
0.0
 47
0.0208333333333333
 47
0.0
 47
0.0
 47
0.0
 47
0.0
 47
1.0
 47
0.0
 47
0.0
 47
0.0
 47
0.0
 47
1.0
171
     0
 49
0.0208333333333333
 49
0.0
 49
0.0
 49
0.0
 49
0.0
 49
0.0208333333333333
 49
0.0
 49
0.0
 49
0.0
 49
0.0
 49
1.0
 49
0.0
 49
0.0
 49
0.0
 49
0.0
 49
1.0
175
     0
142
0.0208333333333333
142
0.0
142
0.0
142
0.0
142
0.0
142
0.0208333333333333
142
0.0
142
0.0
142
0.0
142
0.0
142
1.0
142
0.0
142
0.0
142
0.0
142
0.0
142
1.0
179
     0
144
0.0208333333333333
144
0.0
144
0.0
144
0.0
144
0.0
144
0.0208333333333333
144
0.0
144
0.0
144
0.0
144
0.0
144
1.0
144
0.0
144
0.0
144
0.0
144
0.0
144
1.0
147
0.0208333333333333
147
0.0
147
0.0
147
0.0
147
0.0
147
0.0208333333333333
147
0.0
147
0.0
147
0.0
147
0.0
147
1.0
147
0.0
147
0.0
147
0.0
147
0.0
147
1.0
  0
MATERIAL
  5
11
102
{ACAD_XDICTIONARY
360
12
102
}
102
{ACAD_REACTORS
330
10
102
}
330
10
100
AcDbMaterial
  1
ByLayer
 72
     0
 43
0.0208333333333333
 43
0.0
 43
0.0
 43
0.0
 43
0.0
 43
0.0208333333333333
 43
0.0
 43
0.0
 43
0.0
 43
0.0
 43
1.0
 43
0.0
 43
0.0
 43
0.0
 43
0.0
 43
1.0
 77
     0
 47
0.0208333333333333
 47
0.0
 47
0.0
 47
0.0
 47
0.0
 47
0.0208333333333333
 47
0.0
 47
0.0
 47
0.0
 47
0.0
 47
1.0
 47
0.0
 47
0.0
 47
0.0
 47
0.0
 47
1.0
171
     0
 49
0.0208333333333333
 49
0.0
 49
0.0
 49
0.0
 49
0.0
 49
0.0208333333333333
 49
0.0
 49
0.0
 49
0.0
 49
0.0
 49
1.0
 49
0.0
 49
0.0
 49
0.0
 49
0.0
 49
1.0
175
     0
142
0.0208333333333333
142
0.0
142
0.0
142
0.0
142
0.0
142
0.0208333333333333
142
0.0
142
0.0
142
0.0
142
0.0
142
1.0
142
0.0
142
0.0
142
0.0
142
0.0
142
1.0
179
     0
144
0.0208333333333333
144
0.0
144
0.0
144
0.0
144
0.0
144
0.0208333333333333
144
0.0
144
0.0
144
0.0
144
0.0
144
1.0
144
0.0
144
0.0
144
0.0
144
0.0
144
1.0
147
0.0208333333333333
147
0.0
147
0.0
147
0.0
147
0.0
147
0.0208333333333333
147
0.0
147
0.0
147
0.0
147
0.0
147
1.0
147
0.0
147
0.0
147
0.0
147
0.0
147
1.0
  0
MATERIAL
  5
21
102
{ACAD_XDICTIONARY
360
22
102
}
102
{ACAD_REACTORS
330
10
102
}
330
10
100
AcDbMaterial
  1
Global
 72
     0
 43
0.0208333333333333
 43
0.0
 43
0.0
 43
0.0
 43
0.0
 43
0.0208333333333333
 43
0.0
 43
0.0
 43
0.0
 43
0.0
 43
1.0
 43
0.0
 43
0.0
 43
0.0
 43
0.0
 43
1.0
 77
     0
 47
0.0208333333333333
 47
0.0
 47
0.0
 47
0.0
 47
0.0
 47
0.0208333333333333
 47
0.0
 47
0.0
 47
0.0
 47
0.0
 47
1.0
 47
0.0
 47
0.0
 47
0.0
 47
0.0
 47
1.0
171
     0
 49
0.0208333333333333
 49
0.0
 49
0.0
 49
0.0
 49
0.0
 49
0.0208333333333333
 49
0.0
 49
0.0
 49
0.0
 49
0.0
 49
1.0
 49
0.0
 49
0.0
 49
0.0
 49
0.0
 49
1.0
175
     0
142
0.0208333333333333
142
0.0
142
0.0
142
0.0
142
0.0
142
0.0208333333333333
142
0.0
142
0.0
142
0.0
142
0.0
142
1.0
142
0.0
142
0.0
142
0.0
142
0.0
142
1.0
179
     0
144
0.0208333333333333
144
0.0
144
0.0
144
0.0
144
0.0
144
0.0208333333333333
144
0.0
144
0.0
144
0.0
144
0.0
144
1.0
144
0.0
144
0.0
144
0.0
144
0.0
144
1.0
147
0.0208333333333333
147
0.0
147
0.0
147
0.0
147
0.0
147
0.0208333333333333
147
0.0
147
0.0
147
0.0
147
0.0
147
1.0
147
0.0
147
0.0
147
0.0
147
0.0
147
1.0
  0
MLEADERSTYLE
  5
66
102
{ACAD_REACTORS
330
65
102
}
330
65
100
AcDbMLeaderStyle
179
     2
170
     2
171
     1
172
     0
 90
        2
 40
0.0
 41
0.0
173
     1
 91
-1056964608
340
5A
 92
       -2
290
     1
 42
0.09
291
     1
 43
0.36
  3
Standard
 44
0.18
300

342
55
174
     1
178
     6
175
     1
176
     0
 93
-1056964608
 45
0.18
292
     0
297
     0
 46
0.18
 94
-1056964608
 47
1.0
 49
1.0
140
1.0
293
     1
141
0.0
294
     1
177
     0
142
1.0
295
     1
296
     0
143
0.125
271
     0
272
     9
273
     9
298
     1
  0
MLINESTYLE
  5
5F
102
{ACAD_REACTORS
330
5E
102
}
330
5E
100
AcDbMlineStyle
  2
STANDARD
 70
     0
  3

 62
   256
 51
90.0
 52
90.0
 71
     2
 49
0.5
 62
   256
  6
BYLAYER
 49
-0.5
 62
   256
  6
BYLAYER
  0
ACDBPLACEHOLDER
  5
F
102
{ACAD_REACTORS
330
E
102
}
330
E
  0
SCALE
  5
43
102
{ACAD_REACTORS
330
42
102
}
330
42
100
AcDbScale
 70
     0
300
1:1
140
1.0
141
1.0
290
     1
  0
SCALE
  5
44
102
{ACAD_REACTORS
330
42
102
}
330
42
100
AcDbScale
 70
     0
300
1/128" = 1'-0"
140
0.0078125
141
12.0
290
     0
  0
SCALE
  5
45
102
{ACAD_REACTORS
330
42
102
}
330
42
100
AcDbScale
 70
     0
300
1/64" = 1'-0"
140
0.015625
141
12.0
290
     0
  0
SCALE
  5
46
102
{ACAD_REACTORS
330
42
102
}
330
42
100
AcDbScale
 70
     0
300
1/32" = 1'-0"
140
0.03125
141
12.0
290
     0
  0
SCALE
  5
47
102
{ACAD_REACTORS
330
42
102
}
330
42
100
AcDbScale
 70
     0
300
1/16" = 1'-0"
140
0.0625
141
12.0
290
     0
  0
SCALE
  5
48
102
{ACAD_REACTORS
330
42
102
}
330
42
100
AcDbScale
 70
     0
300
3/32" = 1'-0"
140
0.09375
141
12.0
290
     0
  0
SCALE
  5
49
102
{ACAD_REACTORS
330
42
102
}
330
42
100
AcDbScale
 70
     0
300
1/8" = 1'-0"
140
0.125
141
12.0
290
     0
  0
SCALE
  5
4A
102
{ACAD_REACTORS
330
42
102
}
330
42
100
AcDbScale
 70
     0
300
3/16" = 1'-0"
140
0.1875
141
12.0
290
     0
  0
SCALE
  5
4B
102
{ACAD_REACTORS
330
42
102
}
330
42
100
AcDbScale
 70
     0
300
1/4" = 1'-0"
140
0.25
141
12.0
290
     0
  0
SCALE
  5
4C
102
{ACAD_REACTORS
330
42
102
}
330
42
100
AcDbScale
 70
     0
300
3/8" = 1'-0"
140
0.375
141
12.0
290
     0
  0
SCALE
  5
4D
102
{ACAD_REACTORS
330
42
102
}
330
42
100
AcDbScale
 70
     0
300
1/2" = 1'-0"
140
0.5
141
12.0
290
     0
  0
SCALE
  5
4E
102
{ACAD_REACTORS
330
42
102
}
330
42
100
AcDbScale
 70
     0
300
3/4" = 1'-0"
140
0.75
141
12.0
290
     0
  0
SCALE
  5
4F
102
{ACAD_REACTORS
330
42
102
}
330
42
100
AcDbScale
 70
     0
300
1" = 1'-0"
140
1.0
141
12.0
290
     0
  0
SCALE
  5
50
102
{ACAD_REACTORS
330
42
102
}
330
42
100
AcDbScale
 70
     0
300
1-1/2" = 1'-0"
140
1.5
141
12.0
290
     0
  0
SCALE
  5
51
102
{ACAD_REACTORS
330
42
102
}
330
42
100
AcDbScale
 70
     0
300
3" = 1'-0"
140
3.0
141
12.0
290
     0
  0
SCALE
  5
52
102
{ACAD_REACTORS
330
42
102
}
330
42
100
AcDbScale
 70
     0
300
6" = 1'-0"
140
6.0
141
12.0
290
     0
  0
SCALE
  5
53
102
{ACAD_REACTORS
330
42
102
}
330
42
100
AcDbScale
 70
     0
300
1'-0" = 1'-0"
140
12.0
141
12.0
290
     0
  0
ACDBSECTIONVIEWSTYLE
  5
68
102
{ACAD_XDICTIONARY
360
3E1
102
}
102
{ACAD_REACTORS
330
67
102
}
330
67
100
AcDbModelDocViewStyle
 70
     0
  3
Imperial24
290
     0
100
AcDbSectionViewStyle
 70
     0
 71
     0
 90
       78
 71
     1
340
55
 62
   256
 40
0.24
340
0
340
0
 62
   256
 40
0.24
300
I, O, Q, S, X, Z
 40
0.48
 90
        3
 40
0.18
 90
        1
 71
     2
340
5C
 90
       25
 62
   256
340
5C
 90
       50
 62
   256
 40
0.24
 40
0.0
 40
0.24
 71
     3
340
55
 62
   256
 40
0.24
 90
        1
 40
0.75
 90
        1
300
%<\AcVar ViewType \f "%tc1">% %<\AcVar ViewSectionStartId>%-%<\AcVar ViewSectionEndId>%\PVARIA %<\AcVar ViewScale \f "%sn">%
 71
     4
 62
   256
 62
   257
300
ANSI31
 40
1.0
 90
        0
290
     0
290
     0
 90
        6
 40
0.0
 40
1.570796326794896
 40
0.2617993877991494
 40
1.308996938995747
 40
-0.2617993877991494
 40
1.832595714594046
  0
TABLESTYLE
  5
64
102
{ACAD_XDICTIONARY
360
3DF
102
}
102
{ACAD_REACTORS
330
63
102
}
330
63
100
AcDbTableStyle
280
     0
  3
Standard
 70
     0
 71
     0
 40
0.06
 41
0.06
280
     0
281
     0
  7
STANDARD
140
0.18
170
     2
 62
     0
 63
     7
283
     0
 90
      512
 91
        0
  1

274
    -2
284
     1
 64
     0
275
    -2
285
     1
 65
     0
276
    -2
286
     1
 66
     0
277
    -2
287
     1
 67
     0
278
    -2
288
     1
 68
     0
279
    -2
289
     1
 69
     0
  7
STANDARD
140
0.25
170
     5
 62
     0
 63
     7
283
     0
 90
      512
 91
        0
  1

274
    -2
284
     1
 64
     0
275
    -2
285
     1
 65
     0
276
    -2
286
     1
 66
     0
277
    -2
287
     1
 67
     0
278
    -2
288
     1
 68
     0
279
    -2
289
     1
 69
     0
  7
STANDARD
140
0.18
170
     5
 62
     0
 63
     7
283
     0
 90
      512
 91
        0
  1

274
    -2
284
     1
 64
     0
275
    -2
285
     1
 65
     0
276
    -2
286
     1
 66
     0
277
    -2
287
     1
 67
     0
278
    -2
288
     1
 68
     0
279
    -2
289
     1
 69
     0
  0
VISUALSTYLE
  5
2F
102
{ACAD_REACTORS
330
29
102
}
330
29
100
AcDbVisualStyle
  2
2dWireframe
 70
     4
177
     3
291
     0
 70
    58
 90
        0
176
     1
 90
        2
176
     1
 90
        0
176
     1
 90
        0
176
     1
 40
0.6
176
     1
 40
30.0
176
     1
 62
     7
420
 16777215
176
     1
 90
        1
176
     1
 90
        4
176
     1
 62
     7
176
     1
 62
   257
176
     1
 90
        1
176
     1
 90
        1
176
     1
 40
1.0
176
     1
 90
        0
176
     1
 62
   257
176
     1
 40
1.0
176
     1
 90
        1
176
     1
 90
        6
176
     1
 90
        2
176
     1
 62
     7
176
     1
 90
        5
176
     1
 90
        0
176
     1
 90
        0
176
     1
290
     0
176
     1
 90
        1
176
     1
 40
0.0
176
     1
 90
        0
176
     1
290
     1
176
     1
290
     1
176
     1
290
     0
176
     1
290
     0
176
     1
290
     0
176
     1
290
     0
176
     1
290
     0
176
     1
290
     0
176
     1
290
     0
176
     1
 90
       50
176
     1
 40
0.0
176
     1
 40
1.0
176
     1
 90
        0
176
     1
 62
    18
420
        0
176
     1
 90
       50
176
     1
 90
        3
176
     1
 62
     5
420
      255
176
     1
290
     0
176
     1
 90
       50
176
     1
 90
       50
176
     1
 90
       50
176
     1
290
     0
176
     1
 90
       50
176
     1
 62
   256
176
     0
 40
1.0
176
     0
 90
        2
176
     1
  1
strokes_ogs.tif
176
     1
290
     0
176
     1
 40
1.0
176
     1
 40
1.0
176
     1
  0
VISUALSTYLE
  5
2E
102
{ACAD_REACTORS
330
29
102
}
330
29
100
AcDbVisualStyle
  2
Basic
 70
     7
177
     3
291
     1
 70
    58
 90
        1
176
     1
 90
        0
176
     1
 90
        1
176
     1
 90
        0
176
     1
 40
0.6
176
     1
 40
30.0
176
     1
 62
     7
420
 16777215
176
     1
 90
        0
176
     1
 90
        4
176
     1
 62
     7
176
     1
 62
   257
176
     1
 90
        1
176
     1
 90
        1
176
     1
 40
1.0
176
     1
 90
        8
176
     1
 62
     7
176
     1
 40
1.0
176
     1
 90
        1
176
     1
 90
        6
176
     1
 90
        2
176
     1
 62
     7
176
     1
 90
        5
176
     1
 90
        0
176
     1
 90
        0
176
     1
290
     0
176
     1
 90
        1
176
     1
 40
0.0
176
     1
 90
        0
176
     1
290
     0
176
     1
290
     1
176
     1
290
     1
176
     1
290
     0
176
     1
290
     0
176
     1
290
     0
176
     1
290
     0
176
     1
290
     0
176
     1
290
     0
176
     1
 90
       50
176
     1
 40
0.0
176
     1
 40
1.0
176
     1
 90
        0
176
     1
 62
    18
420
        0
176
     1
 90
       50
176
     1
 90
        3
176
     1
 62
     5
420
      255
176
     1
290
     0
176
     1
 90
       50
176
     1
 90
       50
176
     1
 90
       50
176
     1
290
     0
176
     1
 90
       50
176
     1
 62
   256
176
     0
 40
1.0
176
     0
 90
        2
176
     1
  1
strokes_ogs.tif
176
     1
290
     0
176
     1
 40
1.0
176
     1
 40
1.0
176
     1
  0
VISUALSTYLE
  5
35
102
{ACAD_REACTORS
330
29
102
}
330
29
100
AcDbVisualStyle
  2
Brighten
 70
    12
177
     3
291
     1
 70
    58
 90
        2
176
     1
 90
        2
176
     1
 90
        0
176
     1
 90
        0
176
     1
 40
0.6
176
     1
 40
30.0
176
     1
 62
     7
420
 16777215
176
     1
 90
        1
176
     1
 90
        4
176
     1
 62
     7
176
     1
 62
   257
176
     1
 90
        1
176
     1
 90
        1
176
     1
 40
1.0
176
     1
 90
        8
176
     1
 62
     7
176
     1
 40
1.0
176
     1
 90
        1
176
     1
 90
        6
176
     1
 90
        2
176
     1
 62
     7
176
     1
 90
        5
176
     1
 90
        0
176
     1
 90
        0
176
     1
290
     0
176
     1
 90
        1
176
     1
 40
50.0
176
     1
 90
        0
176
     1
290
     0
176
     1
290
     1
176
     1
290
     1
176
     1
290
     0
176
     1
290
     0
176
     1
290
     0
176
     1
290
     0
176
     1
290
     0
176
     1
290
     0
176
     1
 90
       50
176
     1
 40
0.0
176
     1
 40
1.0
176
     1
 90
        0
176
     1
 62
    18
420
        0
176
     1
 90
       50
176
     1
 90
        3
176
     1
 62
     5
420
      255
176
     1
290
     0
176
     1
 90
       50
176
     1
 90
       50
176
     1
 90
       50
176
     1
290
     0
176
     1
 90
       50
176
     1
 62
   256
176
     0
 40
1.0
176
     0
 90
        2
176
     1
  1
strokes_ogs.tif
176
     1
290
     0
176
     1
 40
1.0
176
     1
 40
1.0
176
     1
  0
VISUALSTYLE
  5
39
102
{ACAD_REACTORS
330
29
102
}
330
29
100
AcDbVisualStyle
  2
ColorChange
 70
    16
177
     3
291
     1
 70
    58
 90
        2
176
     1
 90
        2
176
     1
 90
        3
176
     1
 90
        0
176
     1
 40
0.6
176
     1
 40
30.0
176
     1
 62
     8
420
  8421504
176
     1
 90
        1
176
     1
 90
        4
176
     1
 62
     7
176
     1
 62
   257
176
     1
 90
        1
176
     1
 90
        1
176
     1
 40
1.0
176
     1
 90
        8
176
     1
 62
     8
420
  8421504
176
     1
 40
1.0
176
     1
 90
        1
176
     1
 90
        6
176
     1
 90
        2
176
     1
 62
     7
176
     1
 90
        5
176
     1
 90
        0
176
     1
 90
        0
176
     1
290
     0
176
     1
 90
        1
176
     1
 40
0.0
176
     1
 90
        0
176
     1
290
     0
176
     1
290
     1
176
     1
290
     1
176
     1
290
     0
176
     1
290
     0
176
     1
290
     0
176
     1
290
     0
176
     1
290
     0
176
     1
290
     0
176
     1
 90
       50
176
     1
 40
0.0
176
     1
 40
1.0
176
     1
 90
        0
176
     1
 62
    18
420
        0
176
     1
 90
       50
176
     1
 90
        3
176
     1
 62
     5
420
      255
176
     1
290
     0
176
     1
 90
       50
176
     1
 90
       50
176
     1
 90
       50
176
     1
290
     0
176
     1
 90
       50
176
     1
 62
   256
176
     0
 40
1.0
176
     0
 90
        2
176
     1
  1
strokes_ogs.tif
176
     1
290
     0
176
     1
 40
1.0
176
     1
 40
1.0
176
     1
  0
VISUALSTYLE
  5
32
102
{ACAD_REACTORS
330
29
102
}
330
29
100
AcDbVisualStyle
  2
Conceptual
 70
     9
177
     3
291
     0
 70
    58
 90
        3
176
     1
 90
        2
176
     1
 90
        0
176
     1
 90
        0
176
     1
 40
0.6
176
     1
 40
30.0
176
     1
 62
     7
420
 16777215
176
     1
 90
        2
176
     1
 90
        2
176
     1
 62
     7
176
     1
 62
   257
176
     1
 90
        1
176
     1
 90
        1
176
     1
 40
179.0
176
     1
 90
        8
176
     1
 62
     7
176
     1
 40
1.0
176
     1
 90
        1
176
     1
 90
        6
176
     1
 90
        2
176
     1
 62
     7
176
     1
 90
        3
176
     1
 90
        0
176
     1
 90
        0
176
     1
290
     0
176
     1
 90
        1
176
     1
 40
0.0
176
     1
 90
        0
176
     1
290
     0
176
     1
290
     1
176
     1
290
     1
176
     1
290
     0
176
     1
290
     0
176
     1
290
     0
176
     1
290
     0
176
     1
290
     0
176
     1
290
     0
176
     1
 90
       50
176
     1
 40
0.0
176
     1
 40
1.0
176
     1
 90
        0
176
     1
 62
    18
420
        0
176
     1
 90
       50
176
     1
 90
        3
176
     1
 62
     5
420
      255
176
     1
290
     0
176
     1
 90
       50
176
     1
 90
       50
176
     1
 90
       50
176
     1
290
     0
176
     1
 90
       50
176
     1
 62
   256
176
     0
 40
1.0
176
     0
 90
        2
176
     1
  1
strokes_ogs.tif
176
     1
290
     0
176
     1
 40
1.0
176
     1
 40
1.0
176
     1
  0
VISUALSTYLE
  5
34
102
{ACAD_REACTORS
330
29
102
}
330
29
100
AcDbVisualStyle
  2
Dim
 70
    11
177
     3
291
     1
 70
    58
 90
        2
176
     1
 90
        2
176
     1
 90
        0
176
     1
 90
        0
176
     1
 40
0.6
176
     1
 40
30.0
176
     1
 62
     7
420
 16777215
176
     1
 90
        1
176
     1
 90
        4
176
     1
 62
     7
176
     1
 62
   257
176
     1
 90
        1
176
     1
 90
        1
176
     1
 40
1.0
176
     1
 90
        8
176
     1
 62
     7
176
     1
 40
1.0
176
     1
 90
        1
176
     1
 90
        6
176
     1
 90
        2
176
     1
 62
     7
176
     1
 90
        5
176
     1
 90
        0
176
     1
 90
        0
176
     1
290
     0
176
     1
 90
        1
176
     1
 40
-50.0
176
     1
 90
        0
176
     1
290
     0
176
     1
290
     1
176
     1
290
     1
176
     1
290
     0
176
     1
290
     0
176
     1
290
     0
176
     1
290
     0
176
     1
290
     0
176
     1
290
     0
176
     1
 90
       50
176
     1
 40
0.0
176
     1
 40
1.0
176
     1
 90
        0
176
     1
 62
    18
420
        0
176
     1
 90
       50
176
     1
 90
        3
176
     1
 62
     5
420
      255
176
     1
290
     0
176
     1
 90
       50
176
     1
 90
       50
176
     1
 90
       50
176
     1
290
     0
176
     1
 90
       50
176
     1
 62
   256
176
     0
 40
1.0
176
     0
 90
        2
176
     1
  1
strokes_ogs.tif
176
     1
290
     0
176
     1
 40
1.0
176
     1
 40
1.0
176
     1
  0
VISUALSTYLE
  5
41
102
{ACAD_REACTORS
330
29
102
}
330
29
100
AcDbVisualStyle
  2
EdgeColorOff
 70
    22
177
     3
291
     1
 70
    58
 90
        2
176
     0
 90
        2
176
     0
 90
        0
176
     0
 90
        0
176
     0
 40
0.6
176
     0
 40
30.0
176
     0
 62
     7
420
 16777215
176
     0
 90
        1
176
     0
 90
        4
176
     0
 62
     7
176
     0
 62
   257
176
     0
 90
        1
176
     0
 90
        1
176
     0
 40
1.0
176
     0
 90
        8
176
     2
 62
     7
176
     0
 40
1.0
176
     0
 90
        1
176
     0
 90
        6
176
     0
 90
        2
176
     0
 62
     7
176
     0
 90
        5
176
     0
 90
        0
176
     0
 90
        0
176
     0
290
     0
176
     0
 90
        1
176
     0
 40
0.0
176
     0
 90
        0
176
     0
290
     0
176
     0
290
     1
176
     0
290
     1
176
     0
290
     0
176
     0
290
     0
176
     0
290
     0
176
     0
290
     0
176
     0
290
     0
176
     0
290
     0
176
     0
 90
       50
176
     0
 40
0.0
176
     0
 40
1.0
176
     0
 90
        0
176
     0
 62
    18
420
        0
176
     0
 90
       50
176
     0
 90
        3
176
     0
 62
     5
420
      255
176
     0
290
     0
176
     0
 90
       50
176
     0
 90
       50
176
     0
 90
       50
176
     0
290
     0
176
     0
 90
       50
176
     0
 62
   256
176
     0
 40
1.0
176
     0
 90
        2
176
     0
  1
strokes_ogs.tif
176
     0
290
     0
176
     0
 40
1.0
176
     0
 40
1.0
176
     0
  0
VISUALSTYLE
  5
38
102
{ACAD_REACTORS
330
29
102
}
330
29
100
AcDbVisualStyle
  2
Facepattern
 70
    15
177
     3
291
     1
 70
    58
 90
        2
176
     1
 90
        2
176
     1
 90
        0
176
     1
 90
        0
176
     1
 40
0.6
176
     1
 40
30.0
176
     1
 62
     7
420
 16777215
176
     1
 90
        1
176
     1
 90
        4
176
     1
 62
     7
176
     1
 62
   257
176
     1
 90
        1
176
     1
 90
        1
176
     1
 40
1.0
176
     1
 90
        8
176
     1
 62
     7
176
     1
 40
1.0
176
     1
 90
        1
176
     1
 90
        6
176
     1
 90
        2
176
     1
 62
     7
176
     1
 90
        5
176
     1
 90
        0
176
     1
 90
        0
176
     1
290
     0
176
     1
 90
        1
176
     1
 40
0.0
176
     1
 90
        0
176
     1
290
     0
176
     1
290
     1
176
     1
290
     1
176
     1
290
     0
176
     1
290
     0
176
     1
290
     0
176
     1
290
     0
176
     1
290
     0
176
     1
290
     0
176
     1
 90
       50
176
     1
 40
0.0
176
     1
 40
1.0
176
     1
 90
        0
176
     1
 62
    18
420
        0
176
     1
 90
       50
176
     1
 90
        3
176
     1
 62
     5
420
      255
176
     1
290
     0
176
     1
 90
       50
176
     1
 90
       50
176
     1
 90
       50
176
     1
290
     0
176
     1
 90
       50
176
     1
 62
   256
176
     0
 40
1.0
176
     0
 90
        2
176
     1
  1
strokes_ogs.tif
176
     1
290
     0
176
     1
 40
1.0
176
     1
 40
1.0
176
     1
  0
VISUALSTYLE
  5
2A
102
{ACAD_REACTORS
330
29
102
}
330
29
100
AcDbVisualStyle
  2
Flat
 70
     0
177
     3
291
     1
 70
    58
 90
        2
176
     1
 90
        1
176
     1
 90
        1
176
     1
 90
        2
176
     1
 40
0.6
176
     1
 40
30.0
176
     1
 62
     7
420
 16777215
176
     1
 90
        0
176
     1
 90
        0
176
     1
 62
     7
176
     1
 62
   257
176
     1
 90
        1
176
     1
 90
        1
176
     1
 40
1.0
176
     1
 90
        8
176
     1
 62
     7
176
     1
 40
1.0
176
     1
 90
        1
176
     1
 90
        6
176
     1
 90
        2
176
     1
 62
     7
176
     1
 90
        5
176
     1
 90
        0
176
     1
 90
        0
176
     1
290
     0
176
     1
 90
       13
176
     1
 40
0.0
176
     1
 90
        0
176
     1
290
     0
176
     1
290
     1
176
     1
290
     1
176
     1
290
     0
176
     1
290
     0
176
     1
290
     0
176
     1
290
     0
176
     1
290
     0
176
     1
290
     0
176
     1
 90
       50
176
     1
 40
0.0
176
     1
 40
1.0
176
     1
 90
        0
176
     1
 62
    18
420
        0
176
     1
 90
       50
176
     1
 90
        3
176
     1
 62
     5
420
      255
176
     1
290
     0
176
     1
 90
       50
176
     1
 90
       50
176
     1
 90
       50
176
     1
290
     0
176
     1
 90
       50
176
     1
 62
   256
176
     0
 40
1.0
176
     0
 90
        2
176
     1
  1
strokes_ogs.tif
176
     1
290
     0
176
     1
 40
1.0
176
     1
 40
1.0
176
     1
  0
VISUALSTYLE
  5
2B
102
{ACAD_REACTORS
330
29
102
}
330
29
100
AcDbVisualStyle
  2
FlatWithEdges
 70
     1
177
     3
291
     1
 70
    58
 90
        2
176
     1
 90
        1
176
     1
 90
        1
176
     1
 90
        2
176
     1
 40
0.6
176
     1
 40
30.0
176
     1
 62
     7
420
 16777215
176
     1
 90
        1
176
     1
 90
        0
176
     1
 62
     7
176
     1
 62
   257
176
     1
 90
        1
176
     1
 90
        1
176
     1
 40
1.0
176
     1
 90
        0
176
     1
 62
   257
176
     1
 40
1.0
176
     1
 90
        1
176
     1
 90
        6
176
     1
 90
        2
176
     1
 62
     7
176
     1
 90
        5
176
     1
 90
        0
176
     1
 90
        0
176
     1
290
     0
176
     1
 90
       13
176
     1
 40
0.0
176
     1
 90
        0
176
     1
290
     0
176
     1
290
     1
176
     1
290
     1
176
     1
290
     0
176
     1
290
     0
176
     1
290
     0
176
     1
290
     0
176
     1
290
     0
176
     1
290
     0
176
     1
 90
       50
176
     1
 40
0.0
176
     1
 40
1.0
176
     1
 90
        0
176
     1
 62
    18
420
        0
176
     1
 90
       50
176
     1
 90
        3
176
     1
 62
     5
420
      255
176
     1
290
     0
176
     1
 90
       50
176
     1
 90
       50
176
     1
 90
       50
176
     1
290
     0
176
     1
 90
       50
176
     1
 62
   256
176
     0
 40
1.0
176
     0
 90
        2
176
     1
  1
strokes_ogs.tif
176
     1
290
     0
176
     1
 40
1.0
176
     1
 40
1.0
176
     1
  0
VISUALSTYLE
  5
2C
102
{ACAD_REACTORS
330
29
102
}
330
29
100
AcDbVisualStyle
  2
Gouraud
 70
     2
177
     3
291
     1
 70
    58
 90
        2
176
     1
 90
        2
176
     1
 90
        1
176
     1
 90
        2
176
     1
 40
0.6
176
     1
 40
30.0
176
     1
 62
     7
420
 16777215
176
     1
 90
        0
176
     1
 90
        0
176
     1
 62
     7
176
     1
 62
   257
176
     1
 90
        1
176
     1
 90
        1
176
     1
 40
1.0
176
     1
 90
        0
176
     1
 62
     7
176
     1
 40
1.0
176
     1
 90
        1
176
     1
 90
        6
176
     1
 90
        2
176
     1
 62
     7
176
     1
 90
        5
176
     1
 90
        0
176
     1
 90
        0
176
     1
290
     0
176
     1
 90
       13
176
     1
 40
0.0
176
     1
 90
        0
176
     1
290
     0
176
     1
290
     1
176
     1
290
     1
176
     1
290
     0
176
     1
290
     0
176
     1
290
     0
176
     1
290
     0
176
     1
290
     0
176
     1
290
     0
176
     1
 90
       50
176
     1
 40
0.0
176
     1
 40
1.0
176
     1
 90
        0
176
     1
 62
    18
420
        0
176
     1
 90
       50
176
     1
 90
        3
176
     1
 62
     5
420
      255
176
     1
290
     0
176
     1
 90
       50
176
     1
 90
       50
176
     1
 90
       50
176
     1
290
     0
176
     1
 90
       50
176
     1
 62
   256
176
     0
 40
1.0
176
     0
 90
        2
176
     1
  1
strokes_ogs.tif
176
     1
290
     0
176
     1
 40
1.0
176
     1
 40
1.0
176
     1
  0
VISUALSTYLE
  5
2D
102
{ACAD_REACTORS
330
29
102
}
330
29
100
AcDbVisualStyle
  2
GouraudWithEdges
 70
     3
177
     3
291
     1
 70
    58
 90
        2
176
     1
 90
        2
176
     1
 90
        1
176
     1
 90
        2
176
     1
 40
0.6
176
     1
 40
30.0
176
     1
 62
     7
420
 16777215
176
     1
 90
        1
176
     1
 90
        0
176
     1
 62
     7
176
     1
 62
   257
176
     1
 90
        1
176
     1
 90
        1
176
     1
 40
1.0
176
     1
 90
        0
176
     1
 62
   257
176
     1
 40
1.0
176
     1
 90
        1
176
     1
 90
        6
176
     1
 90
        2
176
     1
 62
     7
176
     1
 90
        5
176
     1
 90
        0
176
     1
 90
        0
176
     1
290
     0
176
     1
 90
       13
176
     1
 40
0.0
176
     1
 90
        0
176
     1
290
     0
176
     1
290
     1
176
     1
290
     1
176
     1
290
     0
176
     1
290
     0
176
     1
290
     0
176
     1
290
     0
176
     1
290
     0
176
     1
290
     0
176
     1
 90
       50
176
     1
 40
0.0
176
     1
 40
1.0
176
     1
 90
        0
176
     1
 62
    18
420
        0
176
     1
 90
       50
176
     1
 90
        3
176
     1
 62
     5
420
      255
176
     1
290
     0
176
     1
 90
       50
176
     1
 90
       50
176
     1
 90
       50
176
     1
290
     0
176
     1
 90
       50
176
     1
 62
   256
176
     0
 40
1.0
176
     0
 90
        2
176
     1
  1
strokes_ogs.tif
176
     1
290
     0
176
     1
 40
1.0
176
     1
 40
1.0
176
     1
  0
VISUALSTYLE
  5
31
102
{ACAD_REACTORS
330
29
102
}
330
29
100
AcDbVisualStyle
  2
Hidden
 70
     6
177
     3
291
     0
 70
    58
 90
        1
176
     1
 90
        2
176
     1
 90
        2
176
     1
 90
        0
176
     1
 40
0.6
176
     1
 40
30.0
176
     1
 62
     7
420
 16777215
176
     1
 90
        2
176
     1
 90
        2
176
     1
 62
     7
176
     1
 62
   257
176
     1
 90
        2
176
     1
 90
        1
176
     1
 40
40.0
176
     1
 90
        0
176
     1
 62
   257
176
     1
 40
1.0
176
     1
 90
        1
176
     1
 90
        6
176
     1
 90
        2
176
     1
 62
     7
176
     1
 90
        3
176
     1
 90
        0
176
     1
 90
        0
176
     1
290
     0
176
     1
 90
        1
176
     1
 40
0.0
176
     1
 90
        0
176
     1
290
     0
176
     1
290
     1
176
     1
290
     1
176
     1
290
     0
176
     1
290
     0
176
     1
290
     0
176
     1
290
     0
176
     1
290
     0
176
     1
290
     0
176
     1
 90
       50
176
     1
 40
0.0
176
     1
 40
1.0
176
     1
 90
        0
176
     1
 62
    18
420
        0
176
     1
 90
       50
176
     1
 90
        3
176
     1
 62
     5
420
      255
176
     1
290
     0
176
     1
 90
       50
176
     1
 90
       50
176
     1
 90
       50
176
     1
290
     0
176
     1
 90
       50
176
     1
 62
   256
176
     0
 40
1.0
176
     0
 90
        2
176
     1
  1
strokes_ogs.tif
176
     1
290
     0
176
     1
 40
1.0
176
     1
 40
1.0
176
     1
  0
VISUALSTYLE
  5
3F
102
{ACAD_REACTORS
330
29
102
}
330
29
100
AcDbVisualStyle
  2
JitterOff
 70
    20
177
     3
291
     1
 70
    58
 90
        2
176
     0
 90
        2
176
     0
 90
        0
176
     0
 90
        0
176
     0
 40
0.6
176
     0
 40
30.0
176
     0
 62
     7
420
 16777215
176
     0
 90
        1
176
     0
 90
        4
176
     0
 62
     7
176
     0
 62
   257
176
     0
 90
        1
176
     0
 90
        1
176
     0
 40
1.0
176
     0
 90
       10
176
     2
 62
     7
176
     0
 40
1.0
176
     0
 90
        1
176
     0
 90
        6
176
     0
 90
        2
176
     0
 62
     7
176
     0
 90
        5
176
     0
 90
        0
176
     0
 90
        0
176
     0
290
     0
176
     0
 90
        1
176
     0
 40
0.0
176
     0
 90
        0
176
     0
290
     0
176
     0
290
     1
176
     0
290
     1
176
     0
290
     0
176
     0
290
     0
176
     0
290
     0
176
     0
290
     0
176
     0
290
     0
176
     0
290
     0
176
     0
 90
       50
176
     0
 40
0.0
176
     0
 40
1.0
176
     0
 90
        0
176
     0
 62
    18
420
        0
176
     0
 90
       50
176
     0
 90
        3
176
     0
 62
     5
420
      255
176
     0
290
     0
176
     0
 90
       50
176
     0
 90
       50
176
     0
 90
       50
176
     0
290
     0
176
     0
 90
       50
176
     0
 62
   256
176
     0
 40
1.0
176
     0
 90
        2
176
     0
  1
strokes_ogs.tif
176
     0
290
     0
176
     0
 40
1.0
176
     0
 40
1.0
176
     0
  0
VISUALSTYLE
  5
37
102
{ACAD_REACTORS
330
29
102
}
330
29
100
AcDbVisualStyle
  2
Linepattern
 70
    14
177
     3
291
     1
 70
    58
 90
        2
176
     1
 90
        2
176
     1
 90
        0
176
     1
 90
        0
176
     1
 40
0.6
176
     1
 40
30.0
176
     1
 62
     7
420
 16777215
176
     1
 90
        1
176
     1
 90
        4
176
     1
 62
     7
176
     1
 62
   257
176
     1
 90
        7
176
     1
 90
        7
176
     1
 40
1.0
176
     1
 90
        8
176
     1
 62
     7
176
     1
 40
1.0
176
     1
 90
        1
176
     1
 90
        6
176
     1
 90
        2
176
     1
 62
     7
176
     1
 90
        5
176
     1
 90
        0
176
     1
 90
        0
176
     1
290
     0
176
     1
 90
        1
176
     1
 40
0.0
176
     1
 90
        0
176
     1
290
     0
176
     1
290
     1
176
     1
290
     1
176
     1
290
     0
176
     1
290
     0
176
     1
290
     0
176
     1
290
     0
176
     1
290
     0
176
     1
290
     0
176
     1
 90
       50
176
     1
 40
0.0
176
     1
 40
1.0
176
     1
 90
        0
176
     1
 62
    18
420
        0
176
     1
 90
       50
176
     1
 90
        3
176
     1
 62
     5
420
      255
176
     1
290
     0
176
     1
 90
       50
176
     1
 90
       50
176
     1
 90
       50
176
     1
290
     0
176
     1
 90
       50
176
     1
 62
   256
176
     0
 40
1.0
176
     0
 90
        2
176
     1
  1
strokes_ogs.tif
176
     1
290
     0
176
     1
 40
1.0
176
     1
 40
1.0
176
     1
  0
VISUALSTYLE
  5
40
102
{ACAD_REACTORS
330
29
102
}
330
29
100
AcDbVisualStyle
  2
OverhangOff
 70
    21
177
     3
291
     1
 70
    58
 90
        2
176
     0
 90
        2
176
     0
 90
        0
176
     0
 90
        0
176
     0
 40
0.6
176
     0
 40
30.0
176
     0
 62
     7
420
 16777215
176
     0
 90
        1
176
     0
 90
        4
176
     0
 62
     7
176
     0
 62
   257
176
     0
 90
        1
176
     0
 90
        1
176
     0
 40
1.0
176
     0
 90
        9
176
     2
 62
     7
176
     0
 40
1.0
176
     0
 90
        1
176
     0
 90
        6
176
     0
 90
        2
176
     0
 62
     7
176
     0
 90
        5
176
     0
 90
        0
176
     0
 90
        0
176
     0
290
     0
176
     0
 90
        1
176
     0
 40
0.0
176
     0
 90
        0
176
     0
290
     0
176
     0
290
     1
176
     0
290
     1
176
     0
290
     0
176
     0
290
     0
176
     0
290
     0
176
     0
290
     0
176
     0
290
     0
176
     0
290
     0
176
     0
 90
       50
176
     0
 40
0.0
176
     0
 40
1.0
176
     0
 90
        0
176
     0
 62
    18
420
        0
176
     0
 90
       50
176
     0
 90
        3
176
     0
 62
     5
420
      255
176
     0
290
     0
176
     0
 90
       50
176
     0
 90
       50
176
     0
 90
       50
176
     0
290
     0
176
     0
 90
       50
176
     0
 62
   256
176
     0
 40
1.0
176
     0
 90
        2
176
     0
  1
strokes_ogs.tif
176
     0
290
     0
176
     0
 40
1.0
176
     0
 40
1.0
176
     0
  0
VISUALSTYLE
  5
33
102
{ACAD_REACTORS
330
29
102
}
330
29
100
AcDbVisualStyle
  2
Realistic
 70
     8
177
     3
291
     0
 70
    58
 90
        2
176
     1
 90
        3
176
     1
 90
        0
176
     1
 90
        2
176
     1
 40
0.6
176
     1
 40
30.0
176
     1
 62
     7
420
 16777215
176
     1
 90
        0
176
     1
 90
        0
176
     1
 62
     7
176
     1
 62
   257
176
     1
 90
        1
176
     1
 90
        1
176
     1
 40
1.0
176
     1
 90
        8
176
     1
 62
   257
176
     1
 40
1.0
176
     1
 90
        1
176
     1
 90
        6
176
     1
 90
        2
176
     1
 62
     7
176
     1
 90
        3
176
     1
 90
        0
176
     1
 90
        0
176
     1
290
     0
176
     1
 90
       13
176
     1
 40
0.0
176
     1
 90
        0
176
     1
290
     0
176
     1
290
     1
176
     1
290
     1
176
     1
290
     0
176
     1
290
     0
176
     1
290
     0
176
     1
290
     0
176
     1
290
     0
176
     1
290
     0
176
     1
 90
       50
176
     1
 40
0.0
176
     1
 40
1.0
176
     1
 90
        0
176
     1
 62
    18
420
        0
176
     1
 90
       50
176
     1
 90
        3
176
     1
 62
     5
420
      255
176
     1
290
     0
176
     1
 90
       50
176
     1
 90
       50
176
     1
 90
       50
176
     1
290
     0
176
     1
 90
       50
176
     1
 62
   256
176
     0
 40
1.0
176
     0
 90
        2
176
     1
  1
strokes_ogs.tif
176
     1
290
     0
176
     1
 40
1.0
176
     1
 40
1.0
176
     1
  0
VISUALSTYLE
  5
3E
102
{ACAD_REACTORS
330
29
102
}
330
29
100
AcDbVisualStyle
  2
Shaded
 70
    27
177
     3
291
     0
 70
    58
 90
        2
176
     1
 90
        2
176
     1
 90
        1
176
     1
 90
        2
176
     1
 40
0.6
176
     1
 40
30.0
176
     1
 62
     7
420
 16777215
176
     1
 90
        0
176
     1
 90
        4
176
     1
 62
     7
176
     1
 62
   257
176
     1
 90
        1
176
     1
 90
        1
176
     1
 40
1.0
176
     1
 90
        8
176
     1
 62
   257
176
     1
 40
1.0
176
     1
 90
        1
176
     1
 90
        6
176
     1
 90
        2
176
     1
 62
     8
420
  7895160
176
     1
 90
        3
176
     1
 90
        0
176
     1
 90
        0
176
     1
290
     0
176
     1
 90
        5
176
     1
 40
0.0
176
     1
 90
        0
176
     1
290
     0
176
     1
290
     1
176
     1
290
     1
176
     1
290
     0
176
     1
290
     0
176
     1
290
     0
176
     1
290
     0
176
     1
290
     0
176
     1
290
     0
176
     1
 90
       50
176
     1
 40
0.0
176
     1
 40
1.0
176
     1
 90
        0
176
     1
 62
    18
420
        0
176
     1
 90
       50
176
     1
 90
        3
176
     1
 62
     5
420
      255
176
     1
290
     0
176
     1
 90
       50
176
     1
 90
       50
176
     1
 90
       50
176
     1
290
     0
176
     1
 90
       50
176
     1
 62
   256
176
     0
 40
1.0
176
     0
 90
        2
176
     1
  1
strokes_ogs.tif
176
     1
290
     0
176
     1
 40
1.0
176
     1
 40
1.0
176
     1
  0
VISUALSTYLE
  5
3D
102
{ACAD_REACTORS
330
29
102
}
330
29
100
AcDbVisualStyle
  2
Shaded with edges
 70
    26
177
     3
291
     0
 70
    58
 90
        2
176
     1
 90
        2
176
     1
 90
        1
176
     1
 90
        2
176
     1
 40
0.6
176
     1
 40
30.0
176
     1
 62
     7
420
 16777215
176
     1
 90
        1
176
     1
 90
       10
176
     1
 62
     7
176
     1
 62
   257
176
     1
 90
        2
176
     1
 90
        1
176
     1
 40
1.0
176
     1
 90
        8
176
     1
 62
   257
176
     1
 40
1.0
176
     1
 90
        1
176
     1
 90
        6
176
     1
 90
        2
176
     1
 62
     7
176
     1
 90
        3
176
     1
 90
        0
176
     1
 90
        0
176
     1
290
     0
176
     1
 90
        5
176
     1
 40
0.0
176
     1
 90
        0
176
     1
290
     0
176
     1
290
     1
176
     1
290
     1
176
     1
290
     0
176
     1
290
     0
176
     1
290
     0
176
     1
290
     0
176
     1
290
     0
176
     1
290
     0
176
     1
 90
       50
176
     1
 40
0.0
176
     1
 40
1.0
176
     1
 90
        0
176
     1
 62
    18
420
        0
176
     1
 90
       50
176
     1
 90
        3
176
     1
 62
     5
420
      255
176
     1
290
     0
176
     1
 90
       50
176
     1
 90
       50
176
     1
 90
       50
176
     1
290
     0
176
     1
 90
       50
176
     1
 62
   256
176
     0
 40
1.0
176
     0
 90
        2
176
     1
  1
strokes_ogs.tif
176
     1
290
     0
176
     1
 40
1.0
176
     1
 40
1.0
176
     1
  0
VISUALSTYLE
  5
3A
102
{ACAD_REACTORS
330
29
102
}
330
29
100
AcDbVisualStyle
  2
Shades of Gray
 70
    23
177
     3
291
     0
 70
    58
 90
        2
176
     1
 90
        2
176
     1
 90
        3
176
     1
 90
        0
176
     1
 40
0.6
176
     1
 40
30.0
176
     1
 62
     7
420
 16777215
176
     1
 90
        2
176
     1
 90
        2
176
     1
 62
     7
176
     1
 62
     7
176
     1
 90
        1
176
     1
 90
        1
176
     1
 40
40.0
176
     1
 90
        8
176
     1
 62
     7
176
     1
 40
1.0
176
     1
 90
        1
176
     1
 90
        6
176
     1
 90
        2
176
     1
 62
     7
176
     1
 90
        3
176
     1
 90
        0
176
     1
 90
        0
176
     1
290
     0
176
     1
 90
        1
176
     1
 40
0.0
176
     1
 90
        0
176
     1
290
     0
176
     1
290
     1
176
     1
290
     1
176
     1
290
     0
176
     1
290
     0
176
     1
290
     0
176
     1
290
     0
176
     1
290
     0
176
     1
290
     0
176
     1
 90
       50
176
     1
 40
0.0
176
     1
 40
1.0
176
     1
 90
        0
176
     1
 62
    18
420
        0
176
     1
 90
       50
176
     1
 90
        3
176
     1
 62
     5
420
      255
176
     1
290
     0
176
     1
 90
       50
176
     1
 90
       50
176
     1
 90
       50
176
     1
290
     0
176
     1
 90
       50
176
     1
 62
   256
176
     0
 40
1.0
176
     0
 90
        2
176
     1
  1
strokes_ogs.tif
176
     1
290
     0
176
     1
 40
1.0
176
     1
 40
1.0
176
     1
  0
VISUALSTYLE
  5
3B
102
{ACAD_REACTORS
330
29
102
}
330
29
100
AcDbVisualStyle
  2
Sketchy
 70
    24
177
     3
291
     0
 70
    58
 90
        1
176
     1
 90
        2
176
     1
 90
        2
176
     1
 90
        0
176
     1
 40
0.6
176
     1
 40
30.0
176
     1
 62
     7
420
 16777215
176
     1
 90
        2
176
     1
 90
        2
176
     1
 62
     7
176
     1
 62
     7
176
     1
 90
        1
176
     1
 90
        1
176
     1
 40
40.0
176
     1
 90
       11
176
     1
 62
     7
176
     1
 40
1.0
176
     1
 90
        1
176
     1
 90
        6
176
     1
 90
        2
176
     1
 62
     7
176
     1
 90
        6
176
     1
 90
        0
176
     1
 90
        0
176
     1
290
     0
176
     1
 90
        1
176
     1
 40
0.0
176
     1
 90
        0
176
     1
290
     0
176
     1
290
     1
176
     1
290
     1
176
     1
290
     0
176
     1
290
     0
176
     1
290
     0
176
     1
290
     0
176
     1
290
     0
176
     1
290
     0
176
     1
 90
       50
176
     1
 40
0.0
176
     1
 40
1.0
176
     1
 90
        0
176
     1
 62
    18
420
        0
176
     1
 90
       50
176
     1
 90
        3
176
     1
 62
     5
420
      255
176
     1
290
     0
176
     1
 90
       50
176
     1
 90
       50
176
     1
 90
       50
176
     1
290
     0
176
     1
 90
       50
176
     1
 62
   256
176
     0
 40
1.0
176
     0
 90
        2
176
     1
  1
strokes_ogs.tif
176
     1
290
     0
176
     1
 40
1.0
176
     1
 40
1.0
176
     1
  0
VISUALSTYLE
  5
36
102
{ACAD_REACTORS
330
29
102
}
330
29
100
AcDbVisualStyle
  2
Thicken
 70
    13
177
     3
291
     1
 70
    58
 90
        2
176
     1
 90
        2
176
     1
 90
        0
176
     1
 90
        0
176
     1
 40
0.6
176
     1
 40
30.0
176
     1
 62
     7
420
 16777215
176
     1
 90
        1
176
     1
 90
        4
176
     1
 62
     7
176
     1
 62
   257
176
     1
 90
        1
176
     1
 90
        1
176
     1
 40
1.0
176
     1
 90
       12
176
     1
 62
     7
176
     1
 40
1.0
176
     1
 90
        1
176
     1
 90
        6
176
     1
 90
        2
176
     1
 62
     7
176
     1
 90
        5
176
     1
 90
        0
176
     1
 90
        0
176
     1
290
     0
176
     1
 90
        1
176
     1
 40
0.0
176
     1
 90
        0
176
     1
290
     0
176
     1
290
     1
176
     1
290
     1
176
     1
290
     0
176
     1
290
     0
176
     1
290
     0
176
     1
290
     0
176
     1
290
     0
176
     1
290
     0
176
     1
 90
       50
176
     1
 40
0.0
176
     1
 40
1.0
176
     1
 90
        0
176
     1
 62
    18
420
        0
176
     1
 90
       50
176
     1
 90
        3
176
     1
 62
     5
420
      255
176
     1
290
     0
176
     1
 90
       50
176
     1
 90
       50
176
     1
 90
       50
176
     1
290
     0
176
     1
 90
       50
176
     1
 62
   256
176
     0
 40
1.0
176
     0
 90
        2
176
     1
  1
strokes_ogs.tif
176
     1
290
     0
176
     1
 40
1.0
176
     1
 40
1.0
176
     1
  0
VISUALSTYLE
  5
30
102
{ACAD_REACTORS
330
29
102
}
330
29
100
AcDbVisualStyle
  2
Wireframe
 70
     5
177
     3
291
     0
 70
    58
 90
        0
176
     1
 90
        2
176
     1
 90
        0
176
     1
 90
        0
176
     1
 40
0.6
176
     1
 40
30.0
176
     1
 62
     7
420
 16777215
176
     1
 90
        1
176
     1
 90
        4
176
     1
 62
     7
176
     1
 62
   257
176
     1
 90
        1
176
     1
 90
        1
176
     1
 40
1.0
176
     1
 90
        0
176
     1
 62
   257
176
     1
 40
1.0
176
     1
 90
        1
176
     1
 90
        6
176
     1
 90
        2
176
     1
 62
     7
176
     1
 90
        3
176
     1
 90
        0
176
     1
 90
        0
176
     1
290
     0
176
     1
 90
        1
176
     1
 40
0.0
176
     1
 90
        0
176
     1
290
     0
176
     1
290
     1
176
     1
290
     1
176
     1
290
     0
176
     1
290
     0
176
     1
290
     0
176
     1
290
     0
176
     1
290
     0
176
     1
290
     0
176
     1
 90
       50
176
     1
 40
0.0
176
     1
 40
1.0
176
     1
 90
        0
176
     1
 62
    18
420
        0
176
     1
 90
       50
176
     1
 90
        3
176
     1
 62
     5
420
      255
176
     1
290
     0
176
     1
 90
       50
176
     1
 90
       50
176
     1
 90
       50
176
     1
290
     0
176
     1
 90
       50
176
     1
 62
   256
176
     0
 40
1.0
176
     0
 90
        2
176
     1
  1
strokes_ogs.tif
176
     1
290
     0
176
     1
 40
1.0
176
     1
 40
1.0
176
     1
  0
VISUALSTYLE
  5
3C
102
{ACAD_REACTORS
330
29
102
}
330
29
100
AcDbVisualStyle
  2
X-Ray
 70
    25
177
     3
291
     0
 70
    58
 90
        2
176
     1
 90
        2
176
     1
 90
        1
176
     1
 90
        1
176
     1
 40
0.5
176
     1
 40
30.0
176
     1
 62
     7
420
 16777215
176
     1
 90
        1
176
     1
 90
        0
176
     1
 62
     7
176
     1
 62
   257
176
     1
 90
        1
176
     1
 90
        1
176
     1
 40
1.0
176
     1
 90
        8
176
     1
 62
     7
176
     1
 40
1.0
176
     1
 90
        1
176
     1
 90
        6
176
     1
 90
        2
176
     1
 62
     7
176
     1
 90
        3
176
     1
 90
        0
176
     1
 90
        0
176
     1
290
     0
176
     1
 90
       13
176
     1
 40
0.0
176
     1
 90
        0
176
     1
290
     0
176
     1
290
     1
176
     1
290
     1
176
     1
290
     0
176
     1
290
     0
176
     1
290
     0
176
     1
290
     0
176
     1
290
     0
176
     1
290
     0
176
     1
 90
       50
176
     1
 40
0.0
176
     1
 40
1.0
176
     1
 90
        0
176
     1
 62
    18
420
        0
176
     1
 90
       50
176
     1
 90
        3
176
     1
 62
     5
420
      255
176
     1
290
     0
176
     1
 90
       50
176
     1
 90
       50
176
     1
 90
       50
176
     1
290
     0
176
     1
 90
       50
176
     1
 62
   256
176
     0
 40
1.0
176
     0
 90
        2
176
     1
  1
strokes_ogs.tif
176
     1
290
     0
176
     1
 40
1.0
176
     1
 40
1.0
176
     1
  0
DICTIONARYVAR
  5
3DD
102
{ACAD_REACTORS
330
3D8
102
}
330
3D8
100
DictionaryVariables
280
     0
  1
1:1
  0
DICTIONARYVAR
  5
3DA
102
{ACAD_REACTORS
330
3D8
102
}
330
3D8
100
DictionaryVariables
280
     0
  1
STANDARD
  0
DICTIONARYVAR
  5
3D9
102
{ACAD_REACTORS
330
3D8
102
}
330
3D8
100
DictionaryVariables
280
     0
  1
STANDARD
  0
DICTIONARYVAR
  5
3DB
102
{ACAD_REACTORS
330
3D8
102
}
330
3D8
100
DictionaryVariables
280
     0
  1
Imperial24
  0
DICTIONARYVAR
  5
3DC
102
{ACAD_REACTORS
330
3D8
102
}
330
3D8
100
DictionaryVariables
280
     0
  1
Imperial24
  0
DICTIONARY
  5
3E3
330
6A
100
AcDbDictionary
280
     1
281
     1
  3
ACAD_XREC_ROUNDTRIP
360
3E4
  0
DICTIONARY
  5
1A
330
19
100
AcDbDictionary
280
     1
281
     1
  3
BUMPTILE
360
1C
  3
DIFFUSETILE
360
1B
  3
OPACITYTILE
360
1F
  3
REFLECTIONTILE
360
1E
  3
REFRACTIONTILE
360
20
  3
SPECULARTILE
360
1D
  0
DICTIONARY
  5
12
330
11
100
AcDbDictionary
280
     1
281
     1
  3
BUMPTILE
360
14
  3
DIFFUSETILE
360
13
  3
OPACITYTILE
360
17
  3
REFLECTIONTILE
360
16
  3
REFRACTIONTILE
360
18
  3
SPECULARTILE
360
15
  0
DICTIONARY
  5
22
330
21
100
AcDbDictionary
280
     1
281
     1
  3
BUMPTILE
360
24
  3
DIFFUSETILE
360
23
  3
OPACITYTILE
360
27
  3
REFLECTIONTILE
360
26
  3
REFRACTIONTILE
360
28
  3
SPECULARTILE
360
25
  0
DICTIONARY
  5
3E1
330
68
100
AcDbDictionary
280
     1
281
     1
  3
ACAD_XREC_ROUNDTRIP
360
3E2
  0
DICTIONARY
  5
3DF
330
64
100
AcDbDictionary
280
     1
281
     1
  3
ACAD_ROUNDTRIP_2008_TABLESTYLE_CELLSTYLEMAP
360
3E0
  0
XRECORD
  5
3E4
102
{ACAD_REACTORS
330
3E3
102
}
330
3E3
100
AcDbXrecord
280
     1
102
DISPLAYNAME
  1
Imperial24
102
FLAGS
 90
        0
  0
XRECORD
  5
1C
102
{ACAD_REACTORS
330
1A
102
}
330
1A
100
AcDbXrecord
280
     1
270
     1
271
     1
  0
XRECORD
  5
1B
102
{ACAD_REACTORS
330
1A
102
}
330
1A
100
AcDbXrecord
280
     1
270
     1
271
     1
  0
XRECORD
  5
1F
102
{ACAD_REACTORS
330
1A
102
}
330
1A
100
AcDbXrecord
280
     1
270
     1
271
     1
  0
XRECORD
  5
1E
102
{ACAD_REACTORS
330
1A
102
}
330
1A
100
AcDbXrecord
280
     1
270
     1
271
     1
  0
XRECORD
  5
20
102
{ACAD_REACTORS
330
1A
102
}
330
1A
100
AcDbXrecord
280
     1
270
     1
271
     1
  0
XRECORD
  5
1D
102
{ACAD_REACTORS
330
1A
102
}
330
1A
100
AcDbXrecord
280
     1
270
     1
271
     1
  0
XRECORD
  5
14
102
{ACAD_REACTORS
330
12
102
}
330
12
100
AcDbXrecord
280
     1
270
     1
271
     1
  0
XRECORD
  5
13
102
{ACAD_REACTORS
330
12
102
}
330
12
100
AcDbXrecord
280
     1
270
     1
271
     1
  0
XRECORD
  5
17
102
{ACAD_REACTORS
330
12
102
}
330
12
100
AcDbXrecord
280
     1
270
     1
271
     1
  0
XRECORD
  5
16
102
{ACAD_REACTORS
330
12
102
}
330
12
100
AcDbXrecord
280
     1
270
     1
271
     1
  0
XRECORD
  5
18
102
{ACAD_REACTORS
330
12
102
}
330
12
100
AcDbXrecord
280
     1
270
     1
271
     1
  0
XRECORD
  5
15
102
{ACAD_REACTORS
330
12
102
}
330
12
100
AcDbXrecord
280
     1
270
     1
271
     1
  0
XRECORD
  5
24
102
{ACAD_REACTORS
330
22
102
}
330
22
100
AcDbXrecord
280
     1
270
     1
271
     1
  0
XRECORD
  5
23
102
{ACAD_REACTORS
330
22
102
}
330
22
100
AcDbXrecord
280
     1
270
     1
271
     1
  0
XRECORD
  5
27
102
{ACAD_REACTORS
330
22
102
}
330
22
100
AcDbXrecord
280
     1
270
     1
271
     1
  0
XRECORD
  5
26
102
{ACAD_REACTORS
330
22
102
}
330
22
100
AcDbXrecord
280
     1
270
     1
271
     1
  0
XRECORD
  5
28
102
{ACAD_REACTORS
330
22
102
}
330
22
100
AcDbXrecord
280
     1
270
     1
271
     1
  0
XRECORD
  5
25
102
{ACAD_REACTORS
330
22
102
}
330
22
100
AcDbXrecord
280
     1
270
     1
271
     1
  0
XRECORD
  5
3E2
102
{ACAD_REACTORS
330
3E1
102
}
330
3E1
100
AcDbXrecord
280
     1
102
DISPLAYNAME
  1
Imperial24
102
FLAGS
 90
        0
  0
CELLSTYLEMAP
  5
3E0
102
{ACAD_REACTORS
330
3DF
102
}
330
3DF
100
AcDbCellStyleMap
 90
        3
300
CELLSTYLE
  1
TABLEFORMAT_BEGIN
 90
        5
170
     1
 91
        0
 92
    32768
 62
   257
 93
        1
300
CONTENTFORMAT
  1
CONTENTFORMAT_BEGIN
 90
        0
 91
        0
 92
      512
 93
        0
300

 40
0.0
140
1.0
 94
        5
 62
     0
340
55
144
0.25
309
CONTENTFORMAT_END
171
     0
 94
        0
309
TABLEFORMAT_END
  1
CELLSTYLE_BEGIN
 90
        1
 91
        1
300
_TITLE
309
CELLSTYLE_END
300
CELLSTYLE
  1
TABLEFORMAT_BEGIN
 90
        5
170
     1
 91
        0
 92
        0
 62
   257
 93
        1
300
CONTENTFORMAT
  1
CONTENTFORMAT_BEGIN
 90
        0
 91
        0
 92
      512
 93
        0
300

 40
0.0
140
1.0
 94
        5
 62
     0
340
55
144
0.18
309
CONTENTFORMAT_END
171
     0
 94
        0
309
TABLEFORMAT_END
  1
CELLSTYLE_BEGIN
 90
        2
 91
        1
300
_HEADER
309
CELLSTYLE_END
300
CELLSTYLE
  1
TABLEFORMAT_BEGIN
 90
        5
170
     1
 91
        0
 92
        0
 62
   257
 93
        1
300
CONTENTFORMAT
  1
CONTENTFORMAT_BEGIN
 90
        0
 91
        0
 92
      512
 93
        0
300

 40
0.0
140
1.0
 94
        2
 62
     0
340
55
144
0.18
309
CONTENTFORMAT_END
171
     0
 94
        0
309
TABLEFORMAT_END
  1
CELLSTYLE_BEGIN
 90
        3
 91
        2
300
_DATA
309
CELLSTYLE_END
  0
ENDSEC
  0
SECTION
  2
ACDSDATA
 70
     2
 71
     6
  0
ACDSSCHEMA
 90
        0
  1
AcDb_Thumbnail_Schema
  2
AcDbDs::ID
280
    10
 91
        8
  2
Thumbnail_Data
280
    15
 91
        0
101
ACDSRECORD
 95
        0
 90
        1
  2
AcDbDs::TreatedAsObjectData
280
     1
291
     1
101
ACDSRECORD
 95
        0
 90
        2
  2
AcDbDs::Legacy
280
     1
291
     1
101
ACDSRECORD
  1
AcDbDs::ID
 90
        3
  2
AcDs:Indexable
280
     1
291
     1
101
ACDSRECORD
  1
AcDbDs::ID
 90
        4
  2
AcDbDs::HandleAttribute
280
     7
282
     1
  0
ACDSSCHEMA
 90
        1
  1
AcDbDs::TreatedAsObjectDataSchema
  2
AcDbDs::TreatedAsObjectData
280
     1
 91
        0
  0
ACDSSCHEMA
 90
        2
  1
AcDbDs::LegacySchema
  2
AcDbDs::Legacy
280
     1
 91
        0
  0
ACDSSCHEMA
 90
        3
  1
AcDbDs::IndexedPropertySchema
  2
AcDs:Indexable
280
     1
 91
        0
  0
ACDSSCHEMA
 90
        4
  1
AcDbDs::HandleAttributeSchema
  2
AcDbDs::HandleAttribute
280
     7
 91
        1
284
     1
  0
ACDSRECORD
 90
        0
  2
AcDbDs::ID
280
    10
320
72
  2
Thumbnail_Data
280
    15
 94
     1705
310
89504E470D0A1A0A0000000D49484452000001000000008108030000001837949D00000300504C54455B5B5B000000C8C8C80000000000000000000000000000000000000000000000000000330000660000990000CC0000FF0033000033330033660033990033CC0033FF0066000066330066660066990066CC0066FF0099
310
000099330099660099990099CC0099FF00CC0000CC3300CC6600CC9900CCCC00CCFF00FF0000FF3300FF6600FF9900FFCC00FFFF3300003300333300663300993300CC3300FF3333003333333333663333993333CC3333FF3366003366333366663366993366CC3366FF3399003399333399663399993399CC3399FF33CC00
310
33CC3333CC6633CC9933CCCC33CCFF33FF0033FF3333FF6633FF9933FFCC33FFFF6600006600336600666600996600CC6600FF6633006633336633666633996633CC6633FF6666006666336666666666996666CC6666FF6699006699336699666699996699CC6699FF66CC0066CC3366CC6666CC9966CCCC66CCFF66FF0066
310
FF3366FF6666FF9966FFCC66FFFF9900009900339900669900999900CC9900FF9933009933339933669933999933CC9933FF9966009966339966669966999966CC9966FF9999009999339999669999999999CC9999FF99CC0099CC3399CC6699CC9999CCCC99CCFF99FF0099FF3399FF6699FF9999FFCC99FFFFCC0000CC00
310
33CC0066CC0099CC00CCCC00FFCC3300CC3333CC3366CC3399CC33CCCC33FFCC6600CC6633CC6666CC6699CC66CCCC66FFCC9900CC9933CC9966CC9999CC99CCCC99FFCCCC00CCCC33CCCC66CCCC99CCCCCCCCCCFFCCFF00CCFF33CCFF66CCFF99CCFFCCCCFFFFFF0000FF0033FF0066FF0099FF00CCFF00FFFF3300FF3333
310
FF3366FF3399FF33CCFF33FFFF6600FF6633FF6666FF6699FF66CCFF66FFFF9900FF9933FF9966FF9999FF99CCFF99FFFFCC00FFCC33FFCC66FFCC99FFCCCCFFCCFFFFFF00FFFF33FFFF66FFFF99FFFFCCFFFFFF0000000D0D0D1A1A1A2828283535354343435050505D5D5D6B6B6B787878868686939393A1A1A1AEAEAEBB
310
BBBBC9C9C9D6D6D6E4E4E4F1F1F1FFFFFF00000000000000000000000000000000000000000000000000000000000054549EDE000003644944415478DAED9B5B7A84200C85594E5EB2FFB7ACAD9DCE58074525807202F1A95FED58CECFC9051C42B8BAA8EA76A87D7EF78B6E1F3ED1E400B04D408F0C1DD804F4D0DCD1E4FA
310
514D404F4E1BCD0E00D004F4F494D18C009819D504CF1880FF18FC53A0E90280374EC031C1C300D69F682AFD09002026E80800C20457FA2579D5E8FFFE115EFFD17D3D02A300E85DBA9893083418D8A8FEB010D833D021300FE053C3F74E301D0159156055FD011163C83301AF9F67BBBB04FF000A102C1F4AE59380AF3F1A
310
F55E83AA26D8019098BF70307F259D8135FD69FBCF826001C07C1CC36B8328E3D138131E3390774690D1207076F65E856B193C5C0C4909A0E89FE810D088D94385008700754240D859A01841FEC3800970450B27F95585B0263D6E605B11385A60C31058962DA119802811308313581BFF9849DD3A4EF6FA93089ED04F596D
310
6FFC4BA95EC64A0A00F700A0D52FC2BF4D5DFD2A567200F437006D82FF15BED2A6B597EB1040D0BFCF76D2C4001F02A70678240192FEAE34DAC71223064875418DDAE2FE06C8D908BE71D74E2E8A208601F6FB7FCD86CABD01E4E97FD581688895AF438D01F85BF84463FC6D04583FD576F547032D77FA85FC1E00F22B40D5
310
280F3F69C600EBF2A742FF650EC0D61FCA577F67FA3FC1B1BB4F88002A4BDDC952DB86016A0968AAE358FABBCD301600FDAD71F49FF89CFBC500C67E733F00B8FACDBE112C88E5540F64F78DA8FE5551722960D700FA9ACE89D590E157E26A0283E90FACCD03A9D5300280B231BC57341A0FA0EAAFAB019ABE6EAC00286A6C
310
2101149C7DF8DE2E567603AB7CC6318016016FDF9B1739072A0054083699AF18005602509D7E61EDB3B74F4733801281567FD87D4B0AC60054990E73F5EF0104CC3393372048E987A900741EAF2D0E4C4A4801C0D51F093FBAA5CF2BA0DF9C2F9D85630431B92F2F0DA5FF18417462E4FB6F6430FD217D18420E110D082061
310
03B94A8583E98F119CE7461953FF82E0BA327CDFA7A100649F8C423B44D6631AA010F4F1210E8221CFA7B97E07E0FA1DBCEB7700B823F20070FD0E00777434BD016E46602100EE44602401DC87C04C06BC0981A50A7007026315B039027B1D00D1E400DA22F0CD07BFFCF2358C5F7E79FC98D7E2C9C011380247E0081C8123
310
C844409323F0D740AEDFF54F2CD71380EB77FD13374753CFFF0BC1E40180BC4AF801C6EE497A5D2DD1AD0000000049454E44AE426082
  0
ENDSEC
  0
EOF
