  0
SECTION
  2
HEADER
  9
$ACADVER
  1
AC1027
  9
$ACADMAINTVER
 70
    55
  9
$DWGCODEPAGE
  3
ANSI_1252
  9
$LASTSAVEDBY
  1
crinne
  9
$REQUIREDVERSIONS
160
                 0
  9
$INSBASE
 10
0.0
 20
0.0
 30
0.0
  9
$EXTMIN
 10
199.3635310209602
 20
-2299.879551021866
 30
0.0
  9
$EXTMAX
 10
349.794910134035
 20
-2139.467148708081
 30
0.0
  9
$LIMMIN
 10
-2600.0
 20
-2600.0
  9
$LIMMAX
 10
2000.0
 20
200.0
  9
$ORTHOMODE
 70
     0
  9
$REGENMODE
 70
     1
  9
$FILLMODE
 70
     1
  9
$QTEXTMODE
 70
     0
  9
$MIRRTEXT
 70
     1
  9
$LTSCALE
 40
25.0
  9
$ATTMODE
 70
     1
  9
$TEXTSIZE
 40
3.5
  9
$TRACEWID
 40
1.0
  9
$TEXTSTYLE
  7
STANDARD
  9
$CLAYER
  8
BEFUNDSCHRAFF
  9
$CELTYPE
  6
ByLayer
  9
$CECOLOR
 62
   256
  9
$CELTSCALE
 40
1.0
  9
$DISPSILH
 70
     0
  9
$DIMSCALE
 40
1.0
  9
$DIMASZ
 40
3.5
  9
$DIMEXO
 40
0.1
  9
$DIMDLI
 40
7.0
  9
$DIMRND
 40
0.0
  9
$DIMDLE
 40
0.0
  9
$DIMEXE
 40
1.8
  9
$DIMTP
 40
0.0
  9
$DIMTM
 40
0.0
  9
$DIMTXT
 40
3.5
  9
$DIMCEN
 40
1.5
  9
$DIMTSZ
 40
0.0
  9
$DIMTOL
 70
     0
  9
$DIMLIM
 70
     0
  9
$DIMTIH
 70
     0
  9
$DIMTOH
 70
     0
  9
$DIMSE1
 70
     0
  9
$DIMSE2
 70
     0
  9
$DIMTAD
 70
     0
  9
$DIMZIN
 70
     0
  9
$DIMBLK
  1

  9
$DIMASO
 70
     1
  9
$DIMSHO
 70
     0
  9
$DIMPOST
  1

  9
$DIMAPOST
  1

  9
$DIMALT
 70
     0
  9
$DIMALTD
 70
     2
  9
$DIMALTF
 40
25.4
  9
$DIMLFAC
 40
1.0
  9
$DIMTOFL
 70
     0
  9
$DIMTVP
 40
0.0
  9
$DIMTIX
 70
     0
  9
$DIMSOXD
 70
     0
  9
$DIMSAH
 70
     0
  9
$DIMBLK1
  1

  9
$DIMBLK2
  1

  9
$DIMSTYLE
  2
Standard
  9
$DIMCLRD
 70
     0
  9
$DIMCLRE
 70
     0
  9
$DIMCLRT
 70
     0
  9
$DIMTFAC
 40
1.0
  9
$DIMGAP
 40
0.09
  9
$DIMJUST
 70
     0
  9
$DIMSD1
 70
     0
  9
$DIMSD2
 70
     0
  9
$DIMTOLJ
 70
     1
  9
$DIMTZIN
 70
     0
  9
$DIMALTZ
 70
     0
  9
$DIMALTTZ
 70
     0
  9
$DIMUPT
 70
     0
  9
$DIMDEC
 70
     2
  9
$DIMTDEC
 70
     2
  9
$DIMALTU
 70
     2
  9
$DIMALTTD
 70
     2
  9
$DIMTXSTY
  7
STANDARD
  9
$DIMAUNIT
 70
     0
  9
$DIMADEC
 70
     0
  9
$DIMALTRND
 40
0.0
  9
$DIMAZIN
 70
     0
  9
$DIMDSEP
 70
    46
  9
$DIMATFIT
 70
     3
  9
$DIMFRAC
 70
     0
  9
$DIMLDRBLK
  1

  9
$DIMLUNIT
 70
     2
  9
$DIMLWD
 70
    -2
  9
$DIMLWE
 70
    -2
  9
$DIMTMOVE
 70
     2
  9
$DIMFXL
 40
1.0
  9
$DIMFXLON
 70
     0
  9
$DIMJOGANG
 40
0.7853981633974483
  9
$DIMTFILL
 70
     0
  9
$DIMTFILLCLR
 70
     0
  9
$DIMARCSYM
 70
     0
  9
$DIMLTYPE
  6

  9
$DIMLTEX1
  6

  9
$DIMLTEX2
  6

  9
$DIMTXTDIRECTION
 70
     0
  9
$LUNITS
 70
     2
  9
$LUPREC
 70
     2
  9
$SKETCHINC
 40
1.0
  9
$FILLETRAD
 40
0.0
  9
$AUNITS
 70
     0
  9
$AUPREC
 70
     0
  9
$MENU
  1
ACAD
  9
$ELEVATION
 40
0.0
  9
$PELEVATION
 40
0.0
  9
$THICKNESS
 40
0.0
  9
$LIMCHECK
 70
     0
  9
$CHAMFERA
 40
0.0
  9
$CHAMFERB
 40
0.0
  9
$CHAMFERC
 40
0.0
  9
$CHAMFERD
 40
0.0
  9
$SKPOLY
 70
     0
  9
$TDCREATE
 40
2450605.529427662
  9
$TDUCREATE
 40
2450605.446094328
  9
$TDUPDATE
 40
2459793.591406632
  9
$TDUUPDATE
 40
2459793.508073299
  9
$TDINDWG
 40
0.0207374074
  9
$TDUSRTIMER
 40
0.0207374074
  9
$USRTIMER
 70
     1
  9
$ANGBASE
 50
0.0
  9
$ANGDIR
 70
     0
  9
$PDMODE
 70
     0
  9
$PDSIZE
 40
0.0
  9
$PLINEWID
 40
0.0
  9
$SPLFRAME
 70
     0
  9
$SPLINETYPE
 70
     6
  9
$SPLINESEGS
 70
     8
  9
$HANDSEED
  5
462
  9
$SURFTAB1
 70
     6
  9
$SURFTAB2
 70
     6
  9
$SURFTYPE
 70
     6
  9
$SURFU
 70
     6
  9
$SURFV
 70
     6
  9
$UCSBASE
  2

  9
$UCSNAME
  2

  9
$UCSORG
 10
0.0
 20
0.0
 30
0.0
  9
$UCSXDIR
 10
1.0
 20
0.0
 30
0.0
  9
$UCSYDIR
 10
0.0
 20
1.0
 30
0.0
  9
$UCSORTHOREF
  2

  9
$UCSORTHOVIEW
 70
     0
  9
$UCSORGTOP
 10
0.0
 20
0.0
 30
0.0
  9
$UCSORGBOTTOM
 10
0.0
 20
0.0
 30
0.0
  9
$UCSORGLEFT
 10
0.0
 20
0.0
 30
0.0
  9
$UCSORGRIGHT
 10
0.0
 20
0.0
 30
0.0
  9
$UCSORGFRONT
 10
0.0
 20
0.0
 30
0.0
  9
$UCSORGBACK
 10
0.0
 20
0.0
 30
0.0
  9
$PUCSBASE
  2

  9
$PUCSNAME
  2

  9
$PUCSORG
 10
0.0
 20
0.0
 30
0.0
  9
$PUCSXDIR
 10
1.0
 20
0.0
 30
0.0
  9
$PUCSYDIR
 10
0.0
 20
1.0
 30
0.0
  9
$PUCSORTHOREF
  2

  9
$PUCSORTHOVIEW
 70
     0
  9
$PUCSORGTOP
 10
0.0
 20
0.0
 30
0.0
  9
$PUCSORGBOTTOM
 10
0.0
 20
0.0
 30
0.0
  9
$PUCSORGLEFT
 10
0.0
 20
0.0
 30
0.0
  9
$PUCSORGRIGHT
 10
0.0
 20
0.0
 30
0.0
  9
$PUCSORGFRONT
 10
0.0
 20
0.0
 30
0.0
  9
$PUCSORGBACK
 10
0.0
 20
0.0
 30
0.0
  9
$USERI1
 70
     0
  9
$USERI2
 70
     0
  9
$USERI3
 70
     0
  9
$USERI4
 70
     0
  9
$USERI5
 70
     0
  9
$USERR1
 40
0.0
  9
$USERR2
 40
0.0
  9
$USERR3
 40
0.0
  9
$USERR4
 40
0.0
  9
$USERR5
 40
0.0
  9
$WORLDVIEW
 70
     1
  9
$SHADEDGE
 70
     3
  9
$SHADEDIF
 70
    70
  9
$TILEMODE
 70
     1
  9
$MAXACTVP
 70
    16
  9
$PINSBASE
 10
0.0
 20
0.0
 30
0.0
  9
$PLIMCHECK
 70
     0
  9
$PEXTMIN
 10
1.000000000000000E+20
 20
1.000000000000000E+20
 30
1.000000000000000E+20
  9
$PEXTMAX
 10
-1.000000000000000E+20
 20
-1.000000000000000E+20
 30
-1.000000000000000E+20
  9
$PLIMMIN
 10
0.0
 20
0.0
  9
$PLIMMAX
 10
12.0
 20
9.0
  9
$UNITMODE
 70
     0
  9
$VISRETAIN
 70
     0
  9
$PLINEGEN
 70
     0
  9
$PSLTSCALE
 70
     0
  9
$TREEDEPTH
 70
  3020
  9
$CMLSTYLE
  2
Standard
  9
$CMLJUST
 70
     0
  9
$CMLSCALE
 40
1.0
  9
$PROXYGRAPHICS
 70
     1
  9
$MEASUREMENT
 70
     0
  9
$CELWEIGHT
370
    -1
  9
$ENDCAPS
280
     0
  9
$JOINSTYLE
280
     0
  9
$LWDISPLAY
290
     0
  9
$INSUNITS
 70
     6
  9
$HYPERLINKBASE
  1

  9
$STYLESHEET
  1

  9
$XEDIT
290
     1
  9
$CEPSNTYPE
380
     0
  9
$PSTYLEMODE
290
     1
  9
$FINGERPRINTGUID
  2
{9AFC7CB5-EFE6-4FA8-9A72-D41BFC89CE1F}
  9
$VERSIONGUID
  2
{0142193E-5AD4-4B3E-9F2C-CBFB063F9AA6}
  9
$EXTNAMES
290
     1
  9
$PSVPSCALE
 40
0.0
  9
$OLESTARTUP
290
     0
  9
$SORTENTS
280
   127
  9
$INDEXCTL
280
     0
  9
$HIDETEXT
280
     1
  9
$XCLIPFRAME
280
     2
  9
$HALOGAP
280
     0
  9
$OBSCOLOR
 70
   257
  9
$OBSLTYPE
280
     0
  9
$INTERSECTIONDISPLAY
280
     0
  9
$INTERSECTIONCOLOR
 70
   257
  9
$DIMASSOC
280
     2
  9
$PROJECTNAME
  1

  9
$CAMERADISPLAY
290
     0
  9
$LENSLENGTH
 40
50.0
  9
$CAMERAHEIGHT
 40
0.0
  9
$STEPSPERSEC
 40
2.0
  9
$STEPSIZE
 40
6.0
  9
$3DDWFPREC
 40
2.0
  9
$PSOLWIDTH
 40
0.25
  9
$PSOLHEIGHT
 40
4.0
  9
$LOFTANG1
 40
1.570796326794896
  9
$LOFTANG2
 40
1.570796326794896
  9
$LOFTMAG1
 40
0.0
  9
$LOFTMAG2
 40
0.0
  9
$LOFTPARAM
 70
     7
  9
$LOFTNORMALS
280
     1
  9
$LATITUDE
 40
37.795
  9
$LONGITUDE
 40
-122.394
  9
$NORTHDIRECTION
 40
0.0
  9
$TIMEZONE
 70
 -8000
  9
$LIGHTGLYPHDISPLAY
280
     1
  9
$TILEMODELIGHTSYNCH
280
     1
  9
$CMATERIAL
347
11
  9
$SOLIDHIST
280
     0
  9
$SHOWHIST
280
     1
  9
$DWFFRAME
280
     2
  9
$DGNFRAME
280
     0
  9
$REALWORLDSCALE
290
     1
  9
$INTERFERECOLOR
 62
     1
  9
$INTERFEREOBJVS
345
33
  9
$INTERFEREVPVS
346
30
  9
$CSHADOW
280
     0
  9
$SHADOWPLANELOCATION
 40
0.0
  0
ENDSEC
  0
SECTION
  2
CLASSES
  0
CLASS
  1
ACDBDICTIONARYWDFLT
  2
AcDbDictionaryWithDefault
  3
ObjectDBX Classes
 90
        0
 91
        1
280
     0
281
     0
  0
CLASS
  1
MATERIAL
  2
AcDbMaterial
  3
ObjectDBX Classes
 90
     1153
 91
        3
280
     0
281
     0
  0
CLASS
  1
VISUALSTYLE
  2
AcDbVisualStyle
  3
ObjectDBX Classes
 90
     4095
 91
       24
280
     0
281
     0
  0
CLASS
  1
SCALE
  2
AcDbScale
  3
ObjectDBX Classes
 90
     1153
 91
       17
280
     0
281
     0
  0
CLASS
  1
TABLESTYLE
  2
AcDbTableStyle
  3
ObjectDBX Classes
 90
     4095
 91
        1
280
     0
281
     0
  0
CLASS
  1
MLEADERSTYLE
  2
AcDbMLeaderStyle
  3
ACDB_MLEADERSTYLE_CLASS
 90
     4095
 91
        1
280
     0
281
     0
  0
CLASS
  1
ACDBSECTIONVIEWSTYLE
  2
AcDbSectionViewStyle
  3
ObjectDBX Classes
 90
     1025
 91
        1
280
     0
281
     0
  0
CLASS
  1
ACDBDETAILVIEWSTYLE
  2
AcDbDetailViewStyle
  3
ObjectDBX Classes
 90
     1025
 91
        1
280
     0
281
     0
  0
CLASS
  1
DICTIONARYVAR
  2
AcDbDictionaryVar
  3
ObjectDBX Classes
 90
        0
 91
        5
280
     0
281
     0
  0
CLASS
  1
CELLSTYLEMAP
  2
AcDbCellStyleMap
  3
ObjectDBX Classes
 90
     1152
 91
        1
280
     0
281
     0
  0
ENDSEC
  0
SECTION
  2
TABLES
  0
TABLE
  2
VPORT
  5
8
330
0
100
AcDbSymbolTable
 70
     2
  0
VPORT
  5
8F
330
8
100
AcDbSymbolTableRecord
100
AcDbViewportTableRecord
  2
*ACTIVE
 70
     0
 10
0.0
 20
0.0
 11
1.0
 21
1.0
 12
342.0814470694657
 22
-2212.163467150512
 13
0.0
 23
0.0
 14
5.0
 24
5.0
 15
100.0
 25
100.0
 16
0.0
 26
0.0
 36
1.0
 17
0.0
 27
0.0
 37
0.0
 40
195.7100373615921
 41
1.649386084583901
 42
50.0
 43
0.0
 44
0.0
 50
0.0
 51
0.0
 71
     0
 72
   100
 73
     1
 74
     0
 75
     0
 76
     1
 77
     0
 78
     0
281
     0
 65
     1
110
0.0
120
0.0
130
0.0
111
1.0
121
0.0
131
0.0
112
0.0
122
1.0
132
0.0
 79
     0
146
0.0
348
2F
 60
     3
 61
     5
292
     1
282
     0
141
0.0
142
0.0
 63
   250
421
  3355443
1001
ACAD_NAV_VCDISPLAY
1070
     3
  0
ENDTAB
  0
TABLE
  2
LTYPE
  5
5
330
0
100
AcDbSymbolTable
 70
    25
  0
LTYPE
  5
5A
330
5
100
AcDbSymbolTableRecord
100
AcDbLinetypeTableRecord
  2
ByBlock
 70
     0
  3

 72
    65
 73
     0
 40
0.0
  0
LTYPE
  5
5B
330
5
100
AcDbSymbolTableRecord
100
AcDbLinetypeTableRecord
  2
ByLayer
 70
     0
  3

 72
    65
 73
     0
 40
0.0
  0
LTYPE
  5
5C
330
5
100
AcDbSymbolTableRecord
100
AcDbLinetypeTableRecord
  2
CONTINUOUS
 70
     0
  3
Ausgezogene Linie
 72
    65
 73
     0
 40
0.0
  0
LTYPE
  5
76
330
5
100
AcDbSymbolTableRecord
100
AcDbLinetypeTableRecord
  2
RAND
 70
     0
  3
__ __ . __ __ . __ __ . __ __ . __ __ . __ __ .
 72
    65
 73
     6
 40
1.75
 49
0.5
 74
     0
 49
-0.25
 74
     0
 49
0.5
 74
     0
 49
-0.25
 74
     0
 49
0.0
 74
     0
 49
-0.25
 74
     0
  0
LTYPE
  5
77
330
5
100
AcDbSymbolTableRecord
100
AcDbLinetypeTableRecord
  2
RAND2
 70
     0
  3
__.__.__.__.__.__.__.__.__.__.__.__.__.__.__.__
 72
    65
 73
     6
 40
0.875
 49
0.25
 74
     0
 49
-0.125
 74
     0
 49
0.25
 74
     0
 49
-0.125
 74
     0
 49
0.0
 74
     0
 49
-0.125
 74
     0
  0
LTYPE
  5
78
330
5
100
AcDbSymbolTableRecord
100
AcDbLinetypeTableRecord
  2
RANDX2
 70
     0
  3
____  ____  .  ____  ____  .  ____  ____  .  __
 72
    65
 73
     6
 40
3.5
 49
1.0
 74
     0
 49
-0.5
 74
     0
 49
1.0
 74
     0
 49
-0.5
 74
     0
 49
0.0
 74
     0
 49
-0.5
 74
     0
  0
LTYPE
  5
79
330
5
100
AcDbSymbolTableRecord
100
AcDbLinetypeTableRecord
  2
MITTE
 70
     0
  3
____ _ ____ _ ____ _ ____ _ ____ _ ____ _ ____ 
 72
    65
 73
     4
 40
2.0
 49
1.25
 74
     0
 49
-0.25
 74
     0
 49
0.25
 74
     0
 49
-0.25
 74
     0
  0
LTYPE
  5
7A
330
5
100
AcDbSymbolTableRecord
100
AcDbLinetypeTableRecord
  2
MITTE2
 70
     0
  3
___ _ ___ _ ___ _ ___ _ ___ _ ___ _ ___ _ ___ _
 72
    65
 73
     4
 40
1.125
 49
0.75
 74
     0
 49
-0.125
 74
     0
 49
0.125
 74
     0
 49
-0.125
 74
     0
  0
LTYPE
  5
7B
330
5
100
AcDbSymbolTableRecord
100
AcDbLinetypeTableRecord
  2
MITTEX2
 70
     0
  3
________  __  ________  __  ________  __  _____
 72
    65
 73
     4
 40
4.0
 49
2.5
 74
     0
 49
-0.5
 74
     0
 49
0.5
 74
     0
 49
-0.5
 74
     0
  0
LTYPE
  5
7C
330
5
100
AcDbSymbolTableRecord
100
AcDbLinetypeTableRecord
  2
STRICHPUNKT
 70
     0
  3
__ . __ . __ . __ . __ . __ . __ . __ . __ . __
 72
    65
 73
     4
 40
1.0
 49
0.5
 74
     0
 49
-0.25
 74
     0
 49
0.0
 74
     0
 49
-0.25
 74
     0
  0
LTYPE
  5
7D
330
5
100
AcDbSymbolTableRecord
100
AcDbLinetypeTableRecord
  2
STRICHPUNKT2
 70
     0
  3
_._._._._._._._._._._._._._._._._._._._._._._._
 72
    65
 73
     4
 40
0.5
 49
0.25
 74
     0
 49
-0.125
 74
     0
 49
0.0
 74
     0
 49
-0.125
 74
     0
  0
LTYPE
  5
7E
330
5
100
AcDbSymbolTableRecord
100
AcDbLinetypeTableRecord
  2
STRICHPUNKTX2
 70
     0
  3
____  .  ____  .  ____  .  ____  .  ____  .  __
 72
    65
 73
     4
 40
2.0
 49
1.0
 74
     0
 49
-0.5
 74
     0
 49
0.0
 74
     0
 49
-0.5
 74
     0
  0
LTYPE
  5
7F
330
5
100
AcDbSymbolTableRecord
100
AcDbLinetypeTableRecord
  2
GESTRICHELT
 70
     0
  3
__ __ __ __ __ __ __ __ __ __ __ __ __ __ __ __
 72
    65
 73
     2
 40
0.75
 49
0.5
 74
     0
 49
-0.25
 74
     0
  0
LTYPE
  5
80
330
5
100
AcDbSymbolTableRecord
100
AcDbLinetypeTableRecord
  2
GESTRICHELT2
 70
     0
  3
_ _ _ _ _ _ _ _ _ _ _ _ _ _ _ _ _ _ _ _ _ _ _ _
 72
    65
 73
     2
 40
0.375
 49
0.25
 74
     0
 49
-0.125
 74
     0
  0
LTYPE
  5
81
330
5
100
AcDbSymbolTableRecord
100
AcDbLinetypeTableRecord
  2
GESTRICHELTX2
 70
     0
  3
____  ____  ____  ____  ____  ____  ____  ____ 
 72
    65
 73
     2
 40
1.5
 49
1.0
 74
     0
 49
-0.5
 74
     0
  0
LTYPE
  5
82
330
5
100
AcDbSymbolTableRecord
100
AcDbLinetypeTableRecord
  2
GETRENNT
 70
     0
  3
____ . . ____ . . ____ . . ____ . . ____ . . __
 72
    65
 73
     6
 40
1.25
 49
0.5
 74
     0
 49
-0.25
 74
     0
 49
0.0
 74
     0
 49
-0.25
 74
     0
 49
0.0
 74
     0
 49
-0.25
 74
     0
  0
LTYPE
  5
83
330
5
100
AcDbSymbolTableRecord
100
AcDbLinetypeTableRecord
  2
GETRENNT2
 70
     0
  3
__..__..__..__..__..__..__..__..__..__..__..__.
 72
    65
 73
     6
 40
0.625
 49
0.25
 74
     0
 49
-0.125
 74
     0
 49
0.0
 74
     0
 49
-0.125
 74
     0
 49
0.0
 74
     0
 49
-0.125
 74
     0
  0
LTYPE
  5
84
330
5
100
AcDbSymbolTableRecord
100
AcDbLinetypeTableRecord
  2
GETRENNTX2
 70
     0
  3
________  .  .  ________  .  .  ________  .  . 
 72
    65
 73
     6
 40
2.5
 49
1.0
 74
     0
 49
-0.5
 74
     0
 49
0.0
 74
     0
 49
-0.5
 74
     0
 49
0.0
 74
     0
 49
-0.5
 74
     0
  0
LTYPE
  5
85
330
5
100
AcDbSymbolTableRecord
100
AcDbLinetypeTableRecord
  2
PUNKT
 70
     0
  3
. . . . . . . . . . . . . . . . . . . . . . . .
 72
    65
 73
     2
 40
0.25
 49
0.0
 74
     0
 49
-0.25
 74
     0
  0
LTYPE
  5
86
330
5
100
AcDbSymbolTableRecord
100
AcDbLinetypeTableRecord
  2
PUNKT2
 70
     0
  3
...............................................
 72
    65
 73
     2
 40
0.125
 49
0.0
 74
     0
 49
-0.125
 74
     0
  0
LTYPE
  5
87
330
5
100
AcDbSymbolTableRecord
100
AcDbLinetypeTableRecord
  2
PUNKTX2
 70
     0
  3
.  .  .  .  .  .  .  .  .  .  .  .  .  .  .  . 
 72
    65
 73
     2
 40
0.5
 49
0.0
 74
     0
 49
-0.5
 74
     0
  0
LTYPE
  5
88
330
5
100
AcDbSymbolTableRecord
100
AcDbLinetypeTableRecord
  2
VERDECKT
 70
     0
  3
__ __ __ __ __ __ __ __ __ __ __ __ __ __ __ __
 72
    65
 73
     2
 40
0.375
 49
0.25
 74
     0
 49
-0.125
 74
     0
  0
LTYPE
  5
89
330
5
100
AcDbSymbolTableRecord
100
AcDbLinetypeTableRecord
  2
VERDECKT2
 70
     0
  3
_ _ _ _ _ _ _ _ _ _ _ _ _ _ _ _ _ _ _ _ _ _ _ _
 72
    65
 73
     2
 40
0.1875
 49
0.125
 74
     0
 49
-0.0625
 74
     0
  0
LTYPE
  5
8A
330
5
100
AcDbSymbolTableRecord
100
AcDbLinetypeTableRecord
  2
VERDECKTX2
 70
     0
  3
____ ____ ____ ____ ____ ____ ____ ____ ____ __
 72
    65
 73
     2
 40
0.75
 49
0.5
 74
     0
 49
-0.25
 74
     0
  0
LTYPE
  5
8B
330
5
100
AcDbSymbolTableRecord
100
AcDbLinetypeTableRecord
  2
PHANTOM
 70
     0
  3
______  __  __  ______  __  __  ______  __  __ 
 72
    65
 73
     6
 40
2.5
 49
1.25
 74
     0
 49
-0.25
 74
     0
 49
0.25
 74
     0
 49
-0.25
 74
     0
 49
0.25
 74
     0
 49
-0.25
 74
     0
  0
LTYPE
  5
8C
330
5
100
AcDbSymbolTableRecord
100
AcDbLinetypeTableRecord
  2
PHANTOM2
 70
     0
  3
___ _ _ ___ _ _ ___ _ _ ___ _ _ ___ _ _ ___ _ _
 72
    65
 73
     6
 40
1.25
 49
0.625
 74
     0
 49
-0.125
 74
     0
 49
0.125
 74
     0
 49
-0.125
 74
     0
 49
0.125
 74
     0
 49
-0.125
 74
     0
  0
LTYPE
  5
8D
330
5
100
AcDbSymbolTableRecord
100
AcDbLinetypeTableRecord
  2
PHANTOMX2
 70
     0
  3
____________    ____    ____    ____________   
 72
    65
 73
     6
 40
5.0
 49
2.5
 74
     0
 49
-0.5
 74
     0
 49
0.5
 74
     0
 49
-0.5
 74
     0
 49
0.5
 74
     0
 49
-0.5
 74
     0
  0
ENDTAB
  0
TABLE
  2
LAYER
  5
2
102
{ACAD_XDICTIONARY
360
44E
102
}
330
0
100
AcDbSymbolTable
 70
    10
  0
LAYER
  5
54
330
2
100
AcDbSymbolTableRecord
100
AcDbLayerTableRecord
  2
0
 70
     0
 62
     7
  6
CONTINUOUS
370
    -3
390
F
347
21
348
0
  0
LAYER
  5
90
330
2
100
AcDbSymbolTableRecord
100
AcDbLayerTableRecord
  2
GRABUNGSGRENZE
 70
     0
 62
     3
  6
STRICHPUNKTX2
370
    -3
390
F
347
21
348
0
  0
LAYER
  5
91
330
2
100
AcDbSymbolTableRecord
100
AcDbLayerTableRecord
  2
BEFUND
 70
     0
 62
     1
  6
CONTINUOUS
370
    -3
390
F
347
21
348
0
  0
LAYER
  5
92
330
2
100
AcDbSymbolTableRecord
100
AcDbLayerTableRecord
  2
STEINE
 70
     0
 62
     4
  6
CONTINUOUS
370
    -3
390
F
347
21
348
0
  0
LAYER
  5
93
330
2
100
AcDbSymbolTableRecord
100
AcDbLayerTableRecord
  2
KNOCHEN
 70
     0
 62
     2
  6
CONTINUOUS
370
    -3
390
F
347
21
348
0
  0
LAYER
  5
94
330
2
100
AcDbSymbolTableRecord
100
AcDbLayerTableRecord
  2
BEFUND_UNSICHER
 70
     0
 62
     1
  6
GESTRICHELT
370
    -3
390
F
347
21
348
0
  0
LAYER
  5
95
330
2
100
AcDbSymbolTableRecord
100
AcDbLayerTableRecord
  2
FEUER
 70
     0
 62
     1
  6
CONTINUOUS
370
    -3
390
F
347
21
348
0
  0
LAYER
  5
96
330
2
100
AcDbSymbolTableRecord
100
AcDbLayerTableRecord
  2
KNOCHENSCHRAFF
 70
     0
 62
     2
  6
CONTINUOUS
370
    -3
390
F
347
21
348
0
  0
LAYER
  5
97
330
2
100
AcDbSymbolTableRecord
100
AcDbLayerTableRecord
  2
BEFUNDSCHRAFF
 70
     0
 62
     1
  6
CONTINUOUS
370
    -3
390
F
347
21
348
0
  0
LAYER
  5
98
330
2
100
AcDbSymbolTableRecord
100
AcDbLayerTableRecord
  2
STEINESCHRAFF
 70
     0
 62
     4
  6
CONTINUOUS
370
    -3
390
F
347
21
348
0
  0
ENDTAB
  0
TABLE
  2
STYLE
  5
3
330
0
100
AcDbSymbolTable
 70
     2
  0
STYLE
  5
55
330
3
100
AcDbSymbolTableRecord
100
AcDbTextStyleTableRecord
  2
STANDARD
 70
     0
 40
0.0
 41
1.0
 50
0.0
 71
     0
 42
3.5
  3
txt.shx
  4

  0
STYLE
  5
59
330
3
100
AcDbSymbolTableRecord
100
AcDbTextStyleTableRecord
  2
Annotative
 70
     0
 40
0.0
 41
1.0
 50
0.0
 71
     0
 42
3.5
  3
txt
  4

1001
AcadAnnotative
1000
AnnotativeData
1002
{
1070
     1
1070
     1
1002
}
  0
ENDTAB
  0
TABLE
  2
VIEW
  5
6
330
0
100
AcDbSymbolTable
 70
     1
  0
ENDTAB
  0
TABLE
  2
UCS
  5
7
330
0
100
AcDbSymbolTable
 70
     0
  0
ENDTAB
  0
TABLE
  2
APPID
  5
9
330
0
100
AcDbSymbolTable
 70
     3
  0
APPID
  5
56
330
9
100
AcDbSymbolTableRecord
100
AcDbRegAppTableRecord
  2
ACAD
 70
     0
  0
APPID
  5
5D
330
9
100
AcDbSymbolTableRecord
100
AcDbRegAppTableRecord
  2
AcadAnnotative
 70
     0
  0
APPID
  5
45A
330
9
100
AcDbSymbolTableRecord
100
AcDbRegAppTableRecord
  2
ACAD_NAV_VCDISPLAY
 70
     0
  0
ENDTAB
  0
TABLE
  2
DIMSTYLE
  5
A
330
0
100
AcDbSymbolTable
 70
     2
100
AcDbDimStyleTable
 71
     0
  0
DIMSTYLE
105
57
330
A
100
AcDbSymbolTableRecord
100
AcDbDimStyleTableRecord
  2
Standard
 70
     0
340
55
  0
DIMSTYLE
105
58
330
A
100
AcDbSymbolTableRecord
100
AcDbDimStyleTableRecord
  2
Annotative
 70
     0
340
55
1001
AcadAnnotative
1000
AnnotativeData
1002
{
1070
     1
1070
     1
1002
}
  0
ENDTAB
  0
TABLE
  2
BLOCK_RECORD
  5
1
330
0
100
AcDbSymbolTable
 70
     3
  0
BLOCK_RECORD
  5
6F
330
1
100
AcDbSymbolTableRecord
100
AcDbBlockTableRecord
  2
*Model_Space
340
72
 70
     0
280
     1
281
     0
  0
BLOCK_RECORD
  5
6B
330
1
100
AcDbSymbolTableRecord
100
AcDbBlockTableRecord
  2
*Paper_Space
340
6E
 70
     0
280
     1
281
     0
  0
BLOCK_RECORD
  5
73
330
1
100
AcDbSymbolTableRecord
100
AcDbBlockTableRecord
  2
TPFEIL
340
0
 70
     0
280
     1
281
     0
  0
BLOCK_RECORD
  5
74
330
1
100
AcDbSymbolTableRecord
100
AcDbBlockTableRecord
  2
*X1
340
0
102
{BLKREFS
331
42D
102
}
 70
     0
280
     1
281
     0
  0
BLOCK_RECORD
  5
75
330
1
100
AcDbSymbolTableRecord
100
AcDbBlockTableRecord
  2
*X2
340
0
102
{BLKREFS
331
447
102
}
 70
     0
280
     1
281
     0
  0
ENDTAB
  0
ENDSEC
  0
SECTION
  2
BLOCKS
  0
BLOCK
  5
9B
330
6F
100
AcDbEntity
  8
0
100
AcDbBlockBegin
  2
*Model_Space
 70
     0
 10
0.0
 20
0.0
 30
0.0
  3
*Model_Space
  1

  0
ENDBLK
  5
9C
330
6F
100
AcDbEntity
  8
0
100
AcDbBlockEnd
  0
BLOCK
  5
99
330
6B
100
AcDbEntity
 67
     1
  8
0
100
AcDbBlockBegin
  2
*Paper_Space
 70
     0
 10
0.0
 20
0.0
 30
0.0
  3
*Paper_Space
  1

  0
ENDBLK
  5
9A
330
6B
100
AcDbEntity
 67
     1
  8
0
100
AcDbBlockEnd
  0
BLOCK
  5
9D
330
73
100
AcDbEntity
  8
0
100
AcDbBlockBegin
  2
TPFEIL
 70
     0
 10
0.0
 20
0.0
 30
0.0
  3
TPFEIL
  1

  0
LWPOLYLINE
  5
9E
330
73
100
AcDbEntity
  8
GRABUNGSGRENZE
100
AcDbPolyline
 90
        2
 70
     0
 10
0.0
 20
-10.0
 40
5.0
 41
0.0
 10
0.0
 20
0.0
 40
0.0
 41
0.0
  0
ENDBLK
  5
A2
330
73
100
AcDbEntity
  8
0
100
AcDbBlockEnd
  0
BLOCK
  5
A3
330
74
100
AcDbEntity
  8
0
100
AcDbBlockBegin
  2
*X1
 70
     1
 10
0.0
 20
0.0
 30
0.0
  3
*X1
  1

  0
LINE
  5
A4
330
74
100
AcDbEntity
  8
0
 62
     0
100
AcDbLine
 10
213.125
 20
-2213.75
 30
0.0
 11
213.125
 21
-2213.75
 31
0.0
  0
LINE
  5
A5
330
74
100
AcDbEntity
  8
0
 62
     0
100
AcDbLine
 10
214.3750000000001
 20
-2213.75
 30
0.0
 11
214.3750000000001
 21
-2213.75
 31
0.0
  0
LINE
  5
A6
330
74
100
AcDbEntity
  8
0
 62
     0
100
AcDbLine
 10
212.5
 20
-2212.5
 30
0.0
 11
212.5
 21
-2212.5
 31
0.0
  0
LINE
  5
A7
330
74
100
AcDbEntity
  8
0
 62
     0
100
AcDbLine
 10
213.7500000000001
 20
-2212.5
 30
0.0
 11
213.7500000000001
 21
-2212.5
 31
0.0
  0
LINE
  5
A8
330
74
100
AcDbEntity
  8
0
 62
     0
100
AcDbLine
 10
215.0000000000001
 20
-2212.5
 30
0.0
 11
215.0000000000001
 21
-2212.5
 31
0.0
  0
LINE
  5
A9
330
74
100
AcDbEntity
  8
0
 62
     0
100
AcDbLine
 10
335.0
 20
-2212.5
 30
0.0
 11
335.0
 21
-2212.5
 31
0.0
  0
LINE
  5
AA
330
74
100
AcDbEntity
  8
0
 62
     0
100
AcDbLine
 10
336.2499999999999
 20
-2212.5
 30
0.0
 11
336.2499999999999
 21
-2212.5
 31
0.0
  0
LINE
  5
AB
330
74
100
AcDbEntity
  8
0
 62
     0
100
AcDbLine
 10
337.5
 20
-2212.5
 30
0.0
 11
337.5
 21
-2212.5
 31
0.0
  0
LINE
  5
AC
330
74
100
AcDbEntity
  8
0
 62
     0
100
AcDbLine
 10
211.875
 20
-2211.25
 30
0.0
 11
211.875
 21
-2211.25
 31
0.0
  0
LINE
  5
AD
330
74
100
AcDbEntity
  8
0
 62
     0
100
AcDbLine
 10
213.125
 20
-2211.25
 30
0.0
 11
213.125
 21
-2211.25
 31
0.0
  0
LINE
  5
AE
330
74
100
AcDbEntity
  8
0
 62
     0
100
AcDbLine
 10
214.375
 20
-2211.25
 30
0.0
 11
214.375
 21
-2211.25
 31
0.0
  0
LINE
  5
AF
330
74
100
AcDbEntity
  8
0
 62
     0
100
AcDbLine
 10
215.625
 20
-2211.25
 30
0.0
 11
215.625
 21
-2211.25
 31
0.0
  0
LINE
  5
B0
330
74
100
AcDbEntity
  8
0
 62
     0
100
AcDbLine
 10
334.375
 20
-2211.25
 30
0.0
 11
334.375
 21
-2211.25
 31
0.0
  0
LINE
  5
B1
330
74
100
AcDbEntity
  8
0
 62
     0
100
AcDbLine
 10
335.625
 20
-2211.25
 30
0.0
 11
335.625
 21
-2211.25
 31
0.0
  0
LINE
  5
B2
330
74
100
AcDbEntity
  8
0
 62
     0
100
AcDbLine
 10
336.875
 20
-2211.25
 30
0.0
 11
336.875
 21
-2211.25
 31
0.0
  0
LINE
  5
B3
330
74
100
AcDbEntity
  8
0
 62
     0
100
AcDbLine
 10
212.5
 20
-2210.0
 30
0.0
 11
212.5
 21
-2210.0
 31
0.0
  0
LINE
  5
B4
330
74
100
AcDbEntity
  8
0
 62
     0
100
AcDbLine
 10
213.75
 20
-2210.0
 30
0.0
 11
213.75
 21
-2210.0
 31
0.0
  0
LINE
  5
B5
330
74
100
AcDbEntity
  8
0
 62
     0
100
AcDbLine
 10
215.0
 20
-2210.0
 30
0.0
 11
215.0
 21
-2210.0
 31
0.0
  0
LINE
  5
B6
330
74
100
AcDbEntity
  8
0
 62
     0
100
AcDbLine
 10
335.0
 20
-2210.0
 30
0.0
 11
335.0
 21
-2210.0
 31
0.0
  0
LINE
  5
B7
330
74
100
AcDbEntity
  8
0
 62
     0
100
AcDbLine
 10
336.2499999999999
 20
-2210.0
 30
0.0
 11
336.2499999999999
 21
-2210.0
 31
0.0
  0
LINE
  5
B8
330
74
100
AcDbEntity
  8
0
 62
     0
100
AcDbLine
 10
211.875
 20
-2208.75
 30
0.0
 11
211.875
 21
-2208.75
 31
0.0
  0
LINE
  5
B9
330
74
100
AcDbEntity
  8
0
 62
     0
100
AcDbLine
 10
213.125
 20
-2208.75
 30
0.0
 11
213.125
 21
-2208.75
 31
0.0
  0
LINE
  5
BA
330
74
100
AcDbEntity
  8
0
 62
     0
100
AcDbLine
 10
214.375
 20
-2208.75
 30
0.0
 11
214.375
 21
-2208.75
 31
0.0
  0
LINE
  5
BB
330
74
100
AcDbEntity
  8
0
 62
     0
100
AcDbLine
 10
334.375
 20
-2208.75
 30
0.0
 11
334.375
 21
-2208.75
 31
0.0
  0
LINE
  5
BC
330
74
100
AcDbEntity
  8
0
 62
     0
100
AcDbLine
 10
335.6249999999999
 20
-2208.75
 30
0.0
 11
335.6249999999999
 21
-2208.75
 31
0.0
  0
LINE
  5
BD
330
74
100
AcDbEntity
  8
0
 62
     0
100
AcDbLine
 10
336.8749999999999
 20
-2208.75
 30
0.0
 11
336.8749999999999
 21
-2208.75
 31
0.0
  0
LINE
  5
BE
330
74
100
AcDbEntity
  8
0
 62
     0
100
AcDbLine
 10
335.0
 20
-2207.5
 30
0.0
 11
335.0
 21
-2207.5
 31
0.0
  0
LINE
  5
BF
330
74
100
AcDbEntity
  8
0
 62
     0
100
AcDbLine
 10
336.2499999999999
 20
-2207.5
 30
0.0
 11
336.2499999999999
 21
-2207.5
 31
0.0
  0
LINE
  5
C0
330
74
100
AcDbEntity
  8
0
 62
     0
100
AcDbLine
 10
311.8749999999999
 20
-2206.25
 30
0.0
 11
311.8749999999999
 21
-2206.25
 31
0.0
  0
LINE
  5
C1
330
74
100
AcDbEntity
  8
0
 62
     0
100
AcDbLine
 10
313.125
 20
-2206.25
 30
0.0
 11
313.125
 21
-2206.25
 31
0.0
  0
LINE
  5
C2
330
74
100
AcDbEntity
  8
0
 62
     0
100
AcDbLine
 10
334.375
 20
-2206.25
 30
0.0
 11
334.375
 21
-2206.25
 31
0.0
  0
LINE
  5
C3
330
74
100
AcDbEntity
  8
0
 62
     0
100
AcDbLine
 10
310.0
 20
-2205.0
 30
0.0
 11
310.0
 21
-2205.0
 31
0.0
  0
LINE
  5
C4
330
74
100
AcDbEntity
  8
0
 62
     0
100
AcDbLine
 10
311.25
 20
-2205.0
 30
0.0
 11
311.25
 21
-2205.0
 31
0.0
  0
LINE
  5
C5
330
74
100
AcDbEntity
  8
0
 62
     0
100
AcDbLine
 10
312.5
 20
-2205.0
 30
0.0
 11
312.5
 21
-2205.0
 31
0.0
  0
LINE
  5
C6
330
74
100
AcDbEntity
  8
0
 62
     0
100
AcDbLine
 10
313.75
 20
-2205.0
 30
0.0
 11
313.75
 21
-2205.0
 31
0.0
  0
LINE
  5
C7
330
74
100
AcDbEntity
  8
0
 62
     0
100
AcDbLine
 10
315.0
 20
-2205.0
 30
0.0
 11
315.0
 21
-2205.0
 31
0.0
  0
LINE
  5
C8
330
74
100
AcDbEntity
  8
0
 62
     0
100
AcDbLine
 10
309.375
 20
-2203.75
 30
0.0
 11
309.375
 21
-2203.75
 31
0.0
  0
LINE
  5
C9
330
74
100
AcDbEntity
  8
0
 62
     0
100
AcDbLine
 10
310.625
 20
-2203.75
 30
0.0
 11
310.625
 21
-2203.75
 31
0.0
  0
LINE
  5
CA
330
74
100
AcDbEntity
  8
0
 62
     0
100
AcDbLine
 10
311.875
 20
-2203.75
 30
0.0
 11
311.875
 21
-2203.75
 31
0.0
  0
LINE
  5
CB
330
74
100
AcDbEntity
  8
0
 62
     0
100
AcDbLine
 10
313.125
 20
-2203.75
 30
0.0
 11
313.125
 21
-2203.75
 31
0.0
  0
LINE
  5
CC
330
74
100
AcDbEntity
  8
0
 62
     0
100
AcDbLine
 10
314.375
 20
-2203.75
 30
0.0
 11
314.375
 21
-2203.75
 31
0.0
  0
LINE
  5
CD
330
74
100
AcDbEntity
  8
0
 62
     0
100
AcDbLine
 10
315.625
 20
-2203.75
 30
0.0
 11
315.625
 21
-2203.75
 31
0.0
  0
LINE
  5
CE
330
74
100
AcDbEntity
  8
0
 62
     0
100
AcDbLine
 10
307.5
 20
-2202.5
 30
0.0
 11
307.5
 21
-2202.5
 31
0.0
  0
LINE
  5
CF
330
74
100
AcDbEntity
  8
0
 62
     0
100
AcDbLine
 10
308.75
 20
-2202.5
 30
0.0
 11
308.75
 21
-2202.5
 31
0.0
  0
LINE
  5
D0
330
74
100
AcDbEntity
  8
0
 62
     0
100
AcDbLine
 10
310.0
 20
-2202.5
 30
0.0
 11
310.0
 21
-2202.5
 31
0.0
  0
LINE
  5
D1
330
74
100
AcDbEntity
  8
0
 62
     0
100
AcDbLine
 10
311.25
 20
-2202.5
 30
0.0
 11
311.25
 21
-2202.5
 31
0.0
  0
LINE
  5
D2
330
74
100
AcDbEntity
  8
0
 62
     0
100
AcDbLine
 10
312.5
 20
-2202.5
 30
0.0
 11
312.5
 21
-2202.5
 31
0.0
  0
LINE
  5
D3
330
74
100
AcDbEntity
  8
0
 62
     0
100
AcDbLine
 10
313.75
 20
-2202.5
 30
0.0
 11
313.75
 21
-2202.5
 31
0.0
  0
LINE
  5
D4
330
74
100
AcDbEntity
  8
0
 62
     0
100
AcDbLine
 10
315.0
 20
-2202.5
 30
0.0
 11
315.0
 21
-2202.5
 31
0.0
  0
LINE
  5
D5
330
74
100
AcDbEntity
  8
0
 62
     0
100
AcDbLine
 10
316.25
 20
-2202.5
 30
0.0
 11
316.25
 21
-2202.5
 31
0.0
  0
LINE
  5
D6
330
74
100
AcDbEntity
  8
0
 62
     0
100
AcDbLine
 10
306.875
 20
-2201.25
 30
0.0
 11
306.875
 21
-2201.25
 31
0.0
  0
LINE
  5
D7
330
74
100
AcDbEntity
  8
0
 62
     0
100
AcDbLine
 10
308.1250000000001
 20
-2201.25
 30
0.0
 11
308.1250000000001
 21
-2201.25
 31
0.0
  0
LINE
  5
D8
330
74
100
AcDbEntity
  8
0
 62
     0
100
AcDbLine
 10
309.375
 20
-2201.25
 30
0.0
 11
309.375
 21
-2201.25
 31
0.0
  0
LINE
  5
D9
330
74
100
AcDbEntity
  8
0
 62
     0
100
AcDbLine
 10
310.6250000000001
 20
-2201.25
 30
0.0
 11
310.6250000000001
 21
-2201.25
 31
0.0
  0
LINE
  5
DA
330
74
100
AcDbEntity
  8
0
 62
     0
100
AcDbLine
 10
311.8750000000001
 20
-2201.25
 30
0.0
 11
311.8750000000001
 21
-2201.25
 31
0.0
  0
LINE
  5
DB
330
74
100
AcDbEntity
  8
0
 62
     0
100
AcDbLine
 10
313.125
 20
-2201.25
 30
0.0
 11
313.125
 21
-2201.25
 31
0.0
  0
LINE
  5
DC
330
74
100
AcDbEntity
  8
0
 62
     0
100
AcDbLine
 10
314.3750000000001
 20
-2201.25
 30
0.0
 11
314.3750000000001
 21
-2201.25
 31
0.0
  0
LINE
  5
DD
330
74
100
AcDbEntity
  8
0
 62
     0
100
AcDbLine
 10
315.625
 20
-2201.25
 30
0.0
 11
315.625
 21
-2201.25
 31
0.0
  0
LINE
  5
DE
330
74
100
AcDbEntity
  8
0
 62
     0
100
AcDbLine
 10
316.8750000000001
 20
-2201.25
 30
0.0
 11
316.8750000000001
 21
-2201.25
 31
0.0
  0
LINE
  5
DF
330
74
100
AcDbEntity
  8
0
 62
     0
100
AcDbLine
 10
306.25
 20
-2200.0
 30
0.0
 11
306.25
 21
-2200.0
 31
0.0
  0
LINE
  5
E0
330
74
100
AcDbEntity
  8
0
 62
     0
100
AcDbLine
 10
307.4999999999999
 20
-2200.0
 30
0.0
 11
307.4999999999999
 21
-2200.0
 31
0.0
  0
LINE
  5
E1
330
74
100
AcDbEntity
  8
0
 62
     0
100
AcDbLine
 10
308.7499999999999
 20
-2200.0
 30
0.0
 11
308.7499999999999
 21
-2200.0
 31
0.0
  0
LINE
  5
E2
330
74
100
AcDbEntity
  8
0
 62
     0
100
AcDbLine
 10
310.0
 20
-2200.0
 30
0.0
 11
310.0
 21
-2200.0
 31
0.0
  0
LINE
  5
E3
330
74
100
AcDbEntity
  8
0
 62
     0
100
AcDbLine
 10
311.2499999999999
 20
-2200.0
 30
0.0
 11
311.2499999999999
 21
-2200.0
 31
0.0
  0
LINE
  5
E4
330
74
100
AcDbEntity
  8
0
 62
     0
100
AcDbLine
 10
312.5
 20
-2200.0
 30
0.0
 11
312.5
 21
-2200.0
 31
0.0
  0
LINE
  5
E5
330
74
100
AcDbEntity
  8
0
 62
     0
100
AcDbLine
 10
313.7499999999999
 20
-2200.0
 30
0.0
 11
313.7499999999999
 21
-2200.0
 31
0.0
  0
LINE
  5
E6
330
74
100
AcDbEntity
  8
0
 62
     0
100
AcDbLine
 10
314.9999999999999
 20
-2200.0
 30
0.0
 11
314.9999999999999
 21
-2200.0
 31
0.0
  0
LINE
  5
E7
330
74
100
AcDbEntity
  8
0
 62
     0
100
AcDbLine
 10
316.25
 20
-2200.0
 30
0.0
 11
316.25
 21
-2200.0
 31
0.0
  0
LINE
  5
E8
330
74
100
AcDbEntity
  8
0
 62
     0
100
AcDbLine
 10
317.4999999999999
 20
-2200.0
 30
0.0
 11
317.4999999999999
 21
-2200.0
 31
0.0
  0
LINE
  5
E9
330
74
100
AcDbEntity
  8
0
 62
     0
100
AcDbLine
 10
306.8749999999999
 20
-2198.75
 30
0.0
 11
306.8749999999999
 21
-2198.75
 31
0.0
  0
LINE
  5
EA
330
74
100
AcDbEntity
  8
0
 62
     0
100
AcDbLine
 10
308.1249999999999
 20
-2198.75
 30
0.0
 11
308.1249999999999
 21
-2198.75
 31
0.0
  0
LINE
  5
EB
330
74
100
AcDbEntity
  8
0
 62
     0
100
AcDbLine
 10
309.3749999999999
 20
-2198.75
 30
0.0
 11
309.3749999999999
 21
-2198.75
 31
0.0
  0
LINE
  5
EC
330
74
100
AcDbEntity
  8
0
 62
     0
100
AcDbLine
 10
310.6249999999999
 20
-2198.75
 30
0.0
 11
310.6249999999999
 21
-2198.75
 31
0.0
  0
LINE
  5
ED
330
74
100
AcDbEntity
  8
0
 62
     0
100
AcDbLine
 10
311.8749999999999
 20
-2198.75
 30
0.0
 11
311.8749999999999
 21
-2198.75
 31
0.0
  0
LINE
  5
EE
330
74
100
AcDbEntity
  8
0
 62
     0
100
AcDbLine
 10
313.1249999999999
 20
-2198.75
 30
0.0
 11
313.1249999999999
 21
-2198.75
 31
0.0
  0
LINE
  5
EF
330
74
100
AcDbEntity
  8
0
 62
     0
100
AcDbLine
 10
314.3749999999999
 20
-2198.75
 30
0.0
 11
314.3749999999999
 21
-2198.75
 31
0.0
  0
LINE
  5
F0
330
74
100
AcDbEntity
  8
0
 62
     0
100
AcDbLine
 10
315.6249999999999
 20
-2198.75
 30
0.0
 11
315.6249999999999
 21
-2198.75
 31
0.0
  0
LINE
  5
F1
330
74
100
AcDbEntity
  8
0
 62
     0
100
AcDbLine
 10
316.8749999999999
 20
-2198.75
 30
0.0
 11
316.8749999999999
 21
-2198.75
 31
0.0
  0
LINE
  5
F2
330
74
100
AcDbEntity
  8
0
 62
     0
100
AcDbLine
 10
318.1249999999999
 20
-2198.75
 30
0.0
 11
318.1249999999999
 21
-2198.75
 31
0.0
  0
LINE
  5
F3
330
74
100
AcDbEntity
  8
0
 62
     0
100
AcDbLine
 10
306.25
 20
-2197.5
 30
0.0
 11
306.25
 21
-2197.5
 31
0.0
  0
LINE
  5
F4
330
74
100
AcDbEntity
  8
0
 62
     0
100
AcDbLine
 10
307.5
 20
-2197.5
 30
0.0
 11
307.5
 21
-2197.5
 31
0.0
  0
LINE
  5
F5
330
74
100
AcDbEntity
  8
0
 62
     0
100
AcDbLine
 10
308.75
 20
-2197.5
 30
0.0
 11
308.75
 21
-2197.5
 31
0.0
  0
LINE
  5
F6
330
74
100
AcDbEntity
  8
0
 62
     0
100
AcDbLine
 10
310.0
 20
-2197.5
 30
0.0
 11
310.0
 21
-2197.5
 31
0.0
  0
LINE
  5
F7
330
74
100
AcDbEntity
  8
0
 62
     0
100
AcDbLine
 10
311.25
 20
-2197.5
 30
0.0
 11
311.25
 21
-2197.5
 31
0.0
  0
LINE
  5
F8
330
74
100
AcDbEntity
  8
0
 62
     0
100
AcDbLine
 10
312.5
 20
-2197.5
 30
0.0
 11
312.5
 21
-2197.5
 31
0.0
  0
LINE
  5
F9
330
74
100
AcDbEntity
  8
0
 62
     0
100
AcDbLine
 10
313.75
 20
-2197.5
 30
0.0
 11
313.75
 21
-2197.5
 31
0.0
  0
LINE
  5
FA
330
74
100
AcDbEntity
  8
0
 62
     0
100
AcDbLine
 10
315.0
 20
-2197.5
 30
0.0
 11
315.0
 21
-2197.5
 31
0.0
  0
LINE
  5
FB
330
74
100
AcDbEntity
  8
0
 62
     0
100
AcDbLine
 10
316.25
 20
-2197.5
 30
0.0
 11
316.25
 21
-2197.5
 31
0.0
  0
LINE
  5
FC
330
74
100
AcDbEntity
  8
0
 62
     0
100
AcDbLine
 10
317.5
 20
-2197.5
 30
0.0
 11
317.5
 21
-2197.5
 31
0.0
  0
LINE
  5
FD
330
74
100
AcDbEntity
  8
0
 62
     0
100
AcDbLine
 10
318.75
 20
-2197.5
 30
0.0
 11
318.75
 21
-2197.5
 31
0.0
  0
LINE
  5
FE
330
74
100
AcDbEntity
  8
0
 62
     0
100
AcDbLine
 10
305.6249999999999
 20
-2196.25
 30
0.0
 11
305.6249999999999
 21
-2196.25
 31
0.0
  0
LINE
  5
FF
330
74
100
AcDbEntity
  8
0
 62
     0
100
AcDbLine
 10
306.875
 20
-2196.25
 30
0.0
 11
306.875
 21
-2196.25
 31
0.0
  0
LINE
  5
100
330
74
100
AcDbEntity
  8
0
 62
     0
100
AcDbLine
 10
308.1249999999999
 20
-2196.25
 30
0.0
 11
308.1249999999999
 21
-2196.25
 31
0.0
  0
LINE
  5
101
330
74
100
AcDbEntity
  8
0
 62
     0
100
AcDbLine
 10
309.375
 20
-2196.25
 30
0.0
 11
309.375
 21
-2196.25
 31
0.0
  0
LINE
  5
102
330
74
100
AcDbEntity
  8
0
 62
     0
100
AcDbLine
 10
310.6249999999999
 20
-2196.25
 30
0.0
 11
310.6249999999999
 21
-2196.25
 31
0.0
  0
LINE
  5
103
330
74
100
AcDbEntity
  8
0
 62
     0
100
AcDbLine
 10
311.8749999999999
 20
-2196.25
 30
0.0
 11
311.8749999999999
 21
-2196.25
 31
0.0
  0
LINE
  5
104
330
74
100
AcDbEntity
  8
0
 62
     0
100
AcDbLine
 10
313.125
 20
-2196.25
 30
0.0
 11
313.125
 21
-2196.25
 31
0.0
  0
LINE
  5
105
330
74
100
AcDbEntity
  8
0
 62
     0
100
AcDbLine
 10
314.3749999999999
 20
-2196.25
 30
0.0
 11
314.3749999999999
 21
-2196.25
 31
0.0
  0
LINE
  5
106
330
74
100
AcDbEntity
  8
0
 62
     0
100
AcDbLine
 10
315.625
 20
-2196.25
 30
0.0
 11
315.625
 21
-2196.25
 31
0.0
  0
LINE
  5
107
330
74
100
AcDbEntity
  8
0
 62
     0
100
AcDbLine
 10
316.8749999999999
 20
-2196.25
 30
0.0
 11
316.8749999999999
 21
-2196.25
 31
0.0
  0
LINE
  5
108
330
74
100
AcDbEntity
  8
0
 62
     0
100
AcDbLine
 10
318.1249999999999
 20
-2196.25
 30
0.0
 11
318.1249999999999
 21
-2196.25
 31
0.0
  0
LINE
  5
109
330
74
100
AcDbEntity
  8
0
 62
     0
100
AcDbLine
 10
319.375
 20
-2196.25
 30
0.0
 11
319.375
 21
-2196.25
 31
0.0
  0
LINE
  5
10A
330
74
100
AcDbEntity
  8
0
 62
     0
100
AcDbLine
 10
305.0000000000001
 20
-2195.0
 30
0.0
 11
305.0000000000001
 21
-2195.0
 31
0.0
  0
LINE
  5
10B
330
74
100
AcDbEntity
  8
0
 62
     0
100
AcDbLine
 10
306.25
 20
-2195.0
 30
0.0
 11
306.25
 21
-2195.0
 31
0.0
  0
LINE
  5
10C
330
74
100
AcDbEntity
  8
0
 62
     0
100
AcDbLine
 10
307.5000000000001
 20
-2195.0
 30
0.0
 11
307.5000000000001
 21
-2195.0
 31
0.0
  0
LINE
  5
10D
330
74
100
AcDbEntity
  8
0
 62
     0
100
AcDbLine
 10
308.7500000000001
 20
-2195.0
 30
0.0
 11
308.7500000000001
 21
-2195.0
 31
0.0
  0
LINE
  5
10E
330
74
100
AcDbEntity
  8
0
 62
     0
100
AcDbLine
 10
310.0
 20
-2195.0
 30
0.0
 11
310.0
 21
-2195.0
 31
0.0
  0
LINE
  5
10F
330
74
100
AcDbEntity
  8
0
 62
     0
100
AcDbLine
 10
311.2500000000001
 20
-2195.0
 30
0.0
 11
311.2500000000001
 21
-2195.0
 31
0.0
  0
LINE
  5
110
330
74
100
AcDbEntity
  8
0
 62
     0
100
AcDbLine
 10
312.5
 20
-2195.0
 30
0.0
 11
312.5
 21
-2195.0
 31
0.0
  0
LINE
  5
111
330
74
100
AcDbEntity
  8
0
 62
     0
100
AcDbLine
 10
313.7500000000001
 20
-2195.0
 30
0.0
 11
313.7500000000001
 21
-2195.0
 31
0.0
  0
LINE
  5
112
330
74
100
AcDbEntity
  8
0
 62
     0
100
AcDbLine
 10
315.0000000000001
 20
-2195.0
 30
0.0
 11
315.0000000000001
 21
-2195.0
 31
0.0
  0
LINE
  5
113
330
74
100
AcDbEntity
  8
0
 62
     0
100
AcDbLine
 10
316.25
 20
-2195.0
 30
0.0
 11
316.25
 21
-2195.0
 31
0.0
  0
LINE
  5
114
330
74
100
AcDbEntity
  8
0
 62
     0
100
AcDbLine
 10
317.5000000000001
 20
-2195.0
 30
0.0
 11
317.5000000000001
 21
-2195.0
 31
0.0
  0
LINE
  5
115
330
74
100
AcDbEntity
  8
0
 62
     0
100
AcDbLine
 10
318.75
 20
-2195.0
 30
0.0
 11
318.75
 21
-2195.0
 31
0.0
  0
LINE
  5
116
330
74
100
AcDbEntity
  8
0
 62
     0
100
AcDbLine
 10
304.3750000000001
 20
-2193.75
 30
0.0
 11
304.3750000000001
 21
-2193.75
 31
0.0
  0
LINE
  5
117
330
74
100
AcDbEntity
  8
0
 62
     0
100
AcDbLine
 10
305.6250000000001
 20
-2193.75
 30
0.0
 11
305.6250000000001
 21
-2193.75
 31
0.0
  0
LINE
  5
118
330
74
100
AcDbEntity
  8
0
 62
     0
100
AcDbLine
 10
306.875
 20
-2193.75
 30
0.0
 11
306.875
 21
-2193.75
 31
0.0
  0
LINE
  5
119
330
74
100
AcDbEntity
  8
0
 62
     0
100
AcDbLine
 10
308.1250000000001
 20
-2193.75
 30
0.0
 11
308.1250000000001
 21
-2193.75
 31
0.0
  0
LINE
  5
11A
330
74
100
AcDbEntity
  8
0
 62
     0
100
AcDbLine
 10
309.375
 20
-2193.75
 30
0.0
 11
309.375
 21
-2193.75
 31
0.0
  0
LINE
  5
11B
330
74
100
AcDbEntity
  8
0
 62
     0
100
AcDbLine
 10
310.6250000000001
 20
-2193.75
 30
0.0
 11
310.6250000000001
 21
-2193.75
 31
0.0
  0
LINE
  5
11C
330
74
100
AcDbEntity
  8
0
 62
     0
100
AcDbLine
 10
311.8750000000001
 20
-2193.75
 30
0.0
 11
311.8750000000001
 21
-2193.75
 31
0.0
  0
LINE
  5
11D
330
74
100
AcDbEntity
  8
0
 62
     0
100
AcDbLine
 10
313.125
 20
-2193.75
 30
0.0
 11
313.125
 21
-2193.75
 31
0.0
  0
LINE
  5
11E
330
74
100
AcDbEntity
  8
0
 62
     0
100
AcDbLine
 10
314.3750000000001
 20
-2193.75
 30
0.0
 11
314.3750000000001
 21
-2193.75
 31
0.0
  0
LINE
  5
11F
330
74
100
AcDbEntity
  8
0
 62
     0
100
AcDbLine
 10
315.625
 20
-2193.75
 30
0.0
 11
315.625
 21
-2193.75
 31
0.0
  0
LINE
  5
120
330
74
100
AcDbEntity
  8
0
 62
     0
100
AcDbLine
 10
316.8750000000001
 20
-2193.75
 30
0.0
 11
316.8750000000001
 21
-2193.75
 31
0.0
  0
LINE
  5
121
330
74
100
AcDbEntity
  8
0
 62
     0
100
AcDbLine
 10
318.1250000000001
 20
-2193.75
 30
0.0
 11
318.1250000000001
 21
-2193.75
 31
0.0
  0
LINE
  5
122
330
74
100
AcDbEntity
  8
0
 62
     0
100
AcDbLine
 10
319.375
 20
-2193.75
 30
0.0
 11
319.375
 21
-2193.75
 31
0.0
  0
LINE
  5
123
330
74
100
AcDbEntity
  8
0
 62
     0
100
AcDbLine
 10
303.75
 20
-2192.5
 30
0.0
 11
303.75
 21
-2192.5
 31
0.0
  0
LINE
  5
124
330
74
100
AcDbEntity
  8
0
 62
     0
100
AcDbLine
 10
305.0000000000001
 20
-2192.5
 30
0.0
 11
305.0000000000001
 21
-2192.5
 31
0.0
  0
LINE
  5
125
330
74
100
AcDbEntity
  8
0
 62
     0
100
AcDbLine
 10
306.25
 20
-2192.5
 30
0.0
 11
306.25
 21
-2192.5
 31
0.0
  0
LINE
  5
126
330
74
100
AcDbEntity
  8
0
 62
     0
100
AcDbLine
 10
307.5000000000001
 20
-2192.5
 30
0.0
 11
307.5000000000001
 21
-2192.5
 31
0.0
  0
LINE
  5
127
330
74
100
AcDbEntity
  8
0
 62
     0
100
AcDbLine
 10
308.7500000000001
 20
-2192.5
 30
0.0
 11
308.7500000000001
 21
-2192.5
 31
0.0
  0
LINE
  5
128
330
74
100
AcDbEntity
  8
0
 62
     0
100
AcDbLine
 10
310.0
 20
-2192.5
 30
0.0
 11
310.0
 21
-2192.5
 31
0.0
  0
LINE
  5
129
330
74
100
AcDbEntity
  8
0
 62
     0
100
AcDbLine
 10
311.2500000000001
 20
-2192.5
 30
0.0
 11
311.2500000000001
 21
-2192.5
 31
0.0
  0
LINE
  5
12A
330
74
100
AcDbEntity
  8
0
 62
     0
100
AcDbLine
 10
312.5
 20
-2192.5
 30
0.0
 11
312.5
 21
-2192.5
 31
0.0
  0
LINE
  5
12B
330
74
100
AcDbEntity
  8
0
 62
     0
100
AcDbLine
 10
313.7500000000001
 20
-2192.5
 30
0.0
 11
313.7500000000001
 21
-2192.5
 31
0.0
  0
LINE
  5
12C
330
74
100
AcDbEntity
  8
0
 62
     0
100
AcDbLine
 10
315.0000000000001
 20
-2192.5
 30
0.0
 11
315.0000000000001
 21
-2192.5
 31
0.0
  0
LINE
  5
12D
330
74
100
AcDbEntity
  8
0
 62
     0
100
AcDbLine
 10
316.25
 20
-2192.5
 30
0.0
 11
316.25
 21
-2192.5
 31
0.0
  0
LINE
  5
12E
330
74
100
AcDbEntity
  8
0
 62
     0
100
AcDbLine
 10
317.5000000000001
 20
-2192.5
 30
0.0
 11
317.5000000000001
 21
-2192.5
 31
0.0
  0
LINE
  5
12F
330
74
100
AcDbEntity
  8
0
 62
     0
100
AcDbLine
 10
318.75
 20
-2192.5
 30
0.0
 11
318.75
 21
-2192.5
 31
0.0
  0
LINE
  5
130
330
74
100
AcDbEntity
  8
0
 62
     0
100
AcDbLine
 10
303.125
 20
-2191.25
 30
0.0
 11
303.125
 21
-2191.25
 31
0.0
  0
LINE
  5
131
330
74
100
AcDbEntity
  8
0
 62
     0
100
AcDbLine
 10
304.3750000000001
 20
-2191.25
 30
0.0
 11
304.3750000000001
 21
-2191.25
 31
0.0
  0
LINE
  5
132
330
74
100
AcDbEntity
  8
0
 62
     0
100
AcDbLine
 10
305.6250000000001
 20
-2191.25
 30
0.0
 11
305.6250000000001
 21
-2191.25
 31
0.0
  0
LINE
  5
133
330
74
100
AcDbEntity
  8
0
 62
     0
100
AcDbLine
 10
306.875
 20
-2191.25
 30
0.0
 11
306.875
 21
-2191.25
 31
0.0
  0
LINE
  5
134
330
74
100
AcDbEntity
  8
0
 62
     0
100
AcDbLine
 10
308.1250000000001
 20
-2191.25
 30
0.0
 11
308.1250000000001
 21
-2191.25
 31
0.0
  0
LINE
  5
135
330
74
100
AcDbEntity
  8
0
 62
     0
100
AcDbLine
 10
309.375
 20
-2191.25
 30
0.0
 11
309.375
 21
-2191.25
 31
0.0
  0
LINE
  5
136
330
74
100
AcDbEntity
  8
0
 62
     0
100
AcDbLine
 10
310.6250000000001
 20
-2191.25
 30
0.0
 11
310.6250000000001
 21
-2191.25
 31
0.0
  0
LINE
  5
137
330
74
100
AcDbEntity
  8
0
 62
     0
100
AcDbLine
 10
311.8750000000001
 20
-2191.25
 30
0.0
 11
311.8750000000001
 21
-2191.25
 31
0.0
  0
LINE
  5
138
330
74
100
AcDbEntity
  8
0
 62
     0
100
AcDbLine
 10
313.125
 20
-2191.25
 30
0.0
 11
313.125
 21
-2191.25
 31
0.0
  0
LINE
  5
139
330
74
100
AcDbEntity
  8
0
 62
     0
100
AcDbLine
 10
314.3750000000001
 20
-2191.25
 30
0.0
 11
314.3750000000001
 21
-2191.25
 31
0.0
  0
LINE
  5
13A
330
74
100
AcDbEntity
  8
0
 62
     0
100
AcDbLine
 10
315.625
 20
-2191.25
 30
0.0
 11
315.625
 21
-2191.25
 31
0.0
  0
LINE
  5
13B
330
74
100
AcDbEntity
  8
0
 62
     0
100
AcDbLine
 10
316.8750000000001
 20
-2191.25
 30
0.0
 11
316.8750000000001
 21
-2191.25
 31
0.0
  0
LINE
  5
13C
330
74
100
AcDbEntity
  8
0
 62
     0
100
AcDbLine
 10
302.5000000000001
 20
-2190.0
 30
0.0
 11
302.5000000000001
 21
-2190.0
 31
0.0
  0
LINE
  5
13D
330
74
100
AcDbEntity
  8
0
 62
     0
100
AcDbLine
 10
303.75
 20
-2190.0
 30
0.0
 11
303.75
 21
-2190.0
 31
0.0
  0
LINE
  5
13E
330
74
100
AcDbEntity
  8
0
 62
     0
100
AcDbLine
 10
305.0000000000001
 20
-2190.0
 30
0.0
 11
305.0000000000001
 21
-2190.0
 31
0.0
  0
LINE
  5
13F
330
74
100
AcDbEntity
  8
0
 62
     0
100
AcDbLine
 10
306.25
 20
-2190.0
 30
0.0
 11
306.25
 21
-2190.0
 31
0.0
  0
LINE
  5
140
330
74
100
AcDbEntity
  8
0
 62
     0
100
AcDbLine
 10
307.5000000000001
 20
-2190.0
 30
0.0
 11
307.5000000000001
 21
-2190.0
 31
0.0
  0
LINE
  5
141
330
74
100
AcDbEntity
  8
0
 62
     0
100
AcDbLine
 10
308.7500000000001
 20
-2190.0
 30
0.0
 11
308.7500000000001
 21
-2190.0
 31
0.0
  0
LINE
  5
142
330
74
100
AcDbEntity
  8
0
 62
     0
100
AcDbLine
 10
310.0
 20
-2190.0
 30
0.0
 11
310.0
 21
-2190.0
 31
0.0
  0
LINE
  5
143
330
74
100
AcDbEntity
  8
0
 62
     0
100
AcDbLine
 10
311.2500000000001
 20
-2190.0
 30
0.0
 11
311.2500000000001
 21
-2190.0
 31
0.0
  0
LINE
  5
144
330
74
100
AcDbEntity
  8
0
 62
     0
100
AcDbLine
 10
312.5
 20
-2190.0
 30
0.0
 11
312.5
 21
-2190.0
 31
0.0
  0
LINE
  5
145
330
74
100
AcDbEntity
  8
0
 62
     0
100
AcDbLine
 10
313.7500000000001
 20
-2190.0
 30
0.0
 11
313.7500000000001
 21
-2190.0
 31
0.0
  0
LINE
  5
146
330
74
100
AcDbEntity
  8
0
 62
     0
100
AcDbLine
 10
311.8750000000001
 20
-2188.75
 30
0.0
 11
311.8750000000001
 21
-2188.75
 31
0.0
  0
LINE
  5
147
330
74
100
AcDbEntity
  8
0
 62
     0
100
AcDbLine
 10
313.125
 20
-2188.75
 30
0.0
 11
313.125
 21
-2188.75
 31
0.0
  0
LINE
  5
148
330
74
100
AcDbEntity
  8
0
 62
     0
100
AcDbLine
 10
334.375
 20
-2183.75
 30
0.0
 11
334.375
 21
-2183.75
 31
0.0
  0
LINE
  5
149
330
74
100
AcDbEntity
  8
0
 62
     0
100
AcDbLine
 10
335.0
 20
-2182.5
 30
0.0
 11
335.0
 21
-2182.5
 31
0.0
  0
LINE
  5
14A
330
74
100
AcDbEntity
  8
0
 62
     0
100
AcDbLine
 10
301.2500000000001
 20
-2237.5
 30
0.0
 11
301.2500000000001
 21
-2237.5
 31
0.0
  0
LINE
  5
14B
330
74
100
AcDbEntity
  8
0
 62
     0
100
AcDbLine
 10
302.5000000000001
 20
-2237.5
 30
0.0
 11
302.5000000000001
 21
-2237.5
 31
0.0
  0
LINE
  5
14C
330
74
100
AcDbEntity
  8
0
 62
     0
100
AcDbLine
 10
299.375
 20
-2238.75
 30
0.0
 11
299.375
 21
-2238.75
 31
0.0
  0
LINE
  5
14D
330
74
100
AcDbEntity
  8
0
 62
     0
100
AcDbLine
 10
300.625
 20
-2238.75
 30
0.0
 11
300.625
 21
-2238.75
 31
0.0
  0
LINE
  5
14E
330
74
100
AcDbEntity
  8
0
 62
     0
100
AcDbLine
 10
301.8749999999999
 20
-2238.75
 30
0.0
 11
301.8749999999999
 21
-2238.75
 31
0.0
  0
LINE
  5
14F
330
74
100
AcDbEntity
  8
0
 62
     0
100
AcDbLine
 10
297.5000000000001
 20
-2240.0
 30
0.0
 11
297.5000000000001
 21
-2240.0
 31
0.0
  0
LINE
  5
150
330
74
100
AcDbEntity
  8
0
 62
     0
100
AcDbLine
 10
298.7500000000001
 20
-2240.0
 30
0.0
 11
298.7500000000001
 21
-2240.0
 31
0.0
  0
LINE
  5
151
330
74
100
AcDbEntity
  8
0
 62
     0
100
AcDbLine
 10
300.0000000000001
 20
-2240.0
 30
0.0
 11
300.0000000000001
 21
-2240.0
 31
0.0
  0
LINE
  5
152
330
74
100
AcDbEntity
  8
0
 62
     0
100
AcDbLine
 10
301.2500000000001
 20
-2240.0
 30
0.0
 11
301.2500000000001
 21
-2240.0
 31
0.0
  0
LINE
  5
153
330
74
100
AcDbEntity
  8
0
 62
     0
100
AcDbLine
 10
302.5000000000001
 20
-2240.0
 30
0.0
 11
302.5000000000001
 21
-2240.0
 31
0.0
  0
LINE
  5
154
330
74
100
AcDbEntity
  8
0
 62
     0
100
AcDbLine
 10
295.6249999999999
 20
-2241.25
 30
0.0
 11
295.6249999999999
 21
-2241.25
 31
0.0
  0
LINE
  5
155
330
74
100
AcDbEntity
  8
0
 62
     0
100
AcDbLine
 10
296.875
 20
-2241.25
 30
0.0
 11
296.875
 21
-2241.25
 31
0.0
  0
LINE
  5
156
330
74
100
AcDbEntity
  8
0
 62
     0
100
AcDbLine
 10
298.1249999999999
 20
-2241.25
 30
0.0
 11
298.1249999999999
 21
-2241.25
 31
0.0
  0
LINE
  5
157
330
74
100
AcDbEntity
  8
0
 62
     0
100
AcDbLine
 10
299.375
 20
-2241.25
 30
0.0
 11
299.375
 21
-2241.25
 31
0.0
  0
LINE
  5
158
330
74
100
AcDbEntity
  8
0
 62
     0
100
AcDbLine
 10
300.625
 20
-2241.25
 30
0.0
 11
300.625
 21
-2241.25
 31
0.0
  0
LINE
  5
159
330
74
100
AcDbEntity
  8
0
 62
     0
100
AcDbLine
 10
301.8749999999999
 20
-2241.25
 30
0.0
 11
301.8749999999999
 21
-2241.25
 31
0.0
  0
LINE
  5
15A
330
74
100
AcDbEntity
  8
0
 62
     0
100
AcDbLine
 10
295.0000000000001
 20
-2242.5
 30
0.0
 11
295.0000000000001
 21
-2242.5
 31
0.0
  0
LINE
  5
15B
330
74
100
AcDbEntity
  8
0
 62
     0
100
AcDbLine
 10
296.2500000000001
 20
-2242.5
 30
0.0
 11
296.2500000000001
 21
-2242.5
 31
0.0
  0
LINE
  5
15C
330
74
100
AcDbEntity
  8
0
 62
     0
100
AcDbLine
 10
297.5000000000001
 20
-2242.5
 30
0.0
 11
297.5000000000001
 21
-2242.5
 31
0.0
  0
LINE
  5
15D
330
74
100
AcDbEntity
  8
0
 62
     0
100
AcDbLine
 10
298.7500000000001
 20
-2242.5
 30
0.0
 11
298.7500000000001
 21
-2242.5
 31
0.0
  0
LINE
  5
15E
330
74
100
AcDbEntity
  8
0
 62
     0
100
AcDbLine
 10
300.0
 20
-2242.5
 30
0.0
 11
300.0
 21
-2242.5
 31
0.0
  0
LINE
  5
15F
330
74
100
AcDbEntity
  8
0
 62
     0
100
AcDbLine
 10
301.2500000000001
 20
-2242.5
 30
0.0
 11
301.2500000000001
 21
-2242.5
 31
0.0
  0
LINE
  5
160
330
74
100
AcDbEntity
  8
0
 62
     0
100
AcDbLine
 10
294.375
 20
-2243.75
 30
0.0
 11
294.375
 21
-2243.75
 31
0.0
  0
LINE
  5
161
330
74
100
AcDbEntity
  8
0
 62
     0
100
AcDbLine
 10
295.625
 20
-2243.75
 30
0.0
 11
295.625
 21
-2243.75
 31
0.0
  0
LINE
  5
162
330
74
100
AcDbEntity
  8
0
 62
     0
100
AcDbLine
 10
296.875
 20
-2243.75
 30
0.0
 11
296.875
 21
-2243.75
 31
0.0
  0
LINE
  5
163
330
74
100
AcDbEntity
  8
0
 62
     0
100
AcDbLine
 10
298.125
 20
-2243.75
 30
0.0
 11
298.125
 21
-2243.75
 31
0.0
  0
LINE
  5
164
330
74
100
AcDbEntity
  8
0
 62
     0
100
AcDbLine
 10
299.375
 20
-2243.75
 30
0.0
 11
299.375
 21
-2243.75
 31
0.0
  0
LINE
  5
165
330
74
100
AcDbEntity
  8
0
 62
     0
100
AcDbLine
 10
300.625
 20
-2243.75
 30
0.0
 11
300.625
 21
-2243.75
 31
0.0
  0
LINE
  5
166
330
74
100
AcDbEntity
  8
0
 62
     0
100
AcDbLine
 10
293.7500000000001
 20
-2245.0
 30
0.0
 11
293.7500000000001
 21
-2245.0
 31
0.0
  0
LINE
  5
167
330
74
100
AcDbEntity
  8
0
 62
     0
100
AcDbLine
 10
295.0000000000001
 20
-2245.0
 30
0.0
 11
295.0000000000001
 21
-2245.0
 31
0.0
  0
LINE
  5
168
330
74
100
AcDbEntity
  8
0
 62
     0
100
AcDbLine
 10
296.2500000000001
 20
-2245.0
 30
0.0
 11
296.2500000000001
 21
-2245.0
 31
0.0
  0
LINE
  5
169
330
74
100
AcDbEntity
  8
0
 62
     0
100
AcDbLine
 10
297.5000000000001
 20
-2245.0
 30
0.0
 11
297.5000000000001
 21
-2245.0
 31
0.0
  0
LINE
  5
16A
330
74
100
AcDbEntity
  8
0
 62
     0
100
AcDbLine
 10
298.7500000000001
 20
-2245.0
 30
0.0
 11
298.7500000000001
 21
-2245.0
 31
0.0
  0
LINE
  5
16B
330
74
100
AcDbEntity
  8
0
 62
     0
100
AcDbLine
 10
300.0000000000001
 20
-2245.0
 30
0.0
 11
300.0000000000001
 21
-2245.0
 31
0.0
  0
LINE
  5
16C
330
74
100
AcDbEntity
  8
0
 62
     0
100
AcDbLine
 10
293.125
 20
-2246.25
 30
0.0
 11
293.125
 21
-2246.25
 31
0.0
  0
LINE
  5
16D
330
74
100
AcDbEntity
  8
0
 62
     0
100
AcDbLine
 10
294.375
 20
-2246.25
 30
0.0
 11
294.375
 21
-2246.25
 31
0.0
  0
LINE
  5
16E
330
74
100
AcDbEntity
  8
0
 62
     0
100
AcDbLine
 10
295.625
 20
-2246.25
 30
0.0
 11
295.625
 21
-2246.25
 31
0.0
  0
LINE
  5
16F
330
74
100
AcDbEntity
  8
0
 62
     0
100
AcDbLine
 10
296.875
 20
-2246.25
 30
0.0
 11
296.875
 21
-2246.25
 31
0.0
  0
LINE
  5
170
330
74
100
AcDbEntity
  8
0
 62
     0
100
AcDbLine
 10
298.125
 20
-2246.25
 30
0.0
 11
298.125
 21
-2246.25
 31
0.0
  0
LINE
  5
171
330
74
100
AcDbEntity
  8
0
 62
     0
100
AcDbLine
 10
299.375
 20
-2246.25
 30
0.0
 11
299.375
 21
-2246.25
 31
0.0
  0
LINE
  5
172
330
74
100
AcDbEntity
  8
0
 62
     0
100
AcDbLine
 10
292.4999999999999
 20
-2247.5
 30
0.0
 11
292.4999999999999
 21
-2247.5
 31
0.0
  0
LINE
  5
173
330
74
100
AcDbEntity
  8
0
 62
     0
100
AcDbLine
 10
293.75
 20
-2247.5
 30
0.0
 11
293.75
 21
-2247.5
 31
0.0
  0
LINE
  5
174
330
74
100
AcDbEntity
  8
0
 62
     0
100
AcDbLine
 10
294.9999999999999
 20
-2247.5
 30
0.0
 11
294.9999999999999
 21
-2247.5
 31
0.0
  0
LINE
  5
175
330
74
100
AcDbEntity
  8
0
 62
     0
100
AcDbLine
 10
296.25
 20
-2247.5
 30
0.0
 11
296.25
 21
-2247.5
 31
0.0
  0
LINE
  5
176
330
74
100
AcDbEntity
  8
0
 62
     0
100
AcDbLine
 10
297.5
 20
-2247.5
 30
0.0
 11
297.5
 21
-2247.5
 31
0.0
  0
LINE
  5
177
330
74
100
AcDbEntity
  8
0
 62
     0
100
AcDbLine
 10
298.7499999999999
 20
-2247.5
 30
0.0
 11
298.7499999999999
 21
-2247.5
 31
0.0
  0
LINE
  5
178
330
74
100
AcDbEntity
  8
0
 62
     0
100
AcDbLine
 10
293.1250000000001
 20
-2248.75
 30
0.0
 11
293.1250000000001
 21
-2248.75
 31
0.0
  0
LINE
  5
179
330
74
100
AcDbEntity
  8
0
 62
     0
100
AcDbLine
 10
294.3750000000001
 20
-2248.75
 30
0.0
 11
294.3750000000001
 21
-2248.75
 31
0.0
  0
LINE
  5
17A
330
74
100
AcDbEntity
  8
0
 62
     0
100
AcDbLine
 10
295.6250000000001
 20
-2248.75
 30
0.0
 11
295.6250000000001
 21
-2248.75
 31
0.0
  0
LINE
  5
17B
330
74
100
AcDbEntity
  8
0
 62
     0
100
AcDbLine
 10
296.875
 20
-2248.75
 30
0.0
 11
296.875
 21
-2248.75
 31
0.0
  0
LINE
  5
17C
330
74
100
AcDbEntity
  8
0
 62
     0
100
AcDbLine
 10
298.1250000000001
 20
-2248.75
 30
0.0
 11
298.1250000000001
 21
-2248.75
 31
0.0
  0
LINE
  5
17D
330
74
100
AcDbEntity
  8
0
 62
     0
100
AcDbLine
 10
299.3750000000001
 20
-2248.75
 30
0.0
 11
299.3750000000001
 21
-2248.75
 31
0.0
  0
LINE
  5
17E
330
74
100
AcDbEntity
  8
0
 62
     0
100
AcDbLine
 10
292.4999999999999
 20
-2250.0
 30
0.0
 11
292.4999999999999
 21
-2250.0
 31
0.0
  0
LINE
  5
17F
330
74
100
AcDbEntity
  8
0
 62
     0
100
AcDbLine
 10
293.75
 20
-2250.0
 30
0.0
 11
293.75
 21
-2250.0
 31
0.0
  0
LINE
  5
180
330
74
100
AcDbEntity
  8
0
 62
     0
100
AcDbLine
 10
294.9999999999999
 20
-2250.0
 30
0.0
 11
294.9999999999999
 21
-2250.0
 31
0.0
  0
LINE
  5
181
330
74
100
AcDbEntity
  8
0
 62
     0
100
AcDbLine
 10
296.25
 20
-2250.0
 30
0.0
 11
296.25
 21
-2250.0
 31
0.0
  0
LINE
  5
182
330
74
100
AcDbEntity
  8
0
 62
     0
100
AcDbLine
 10
297.5
 20
-2250.0
 30
0.0
 11
297.5
 21
-2250.0
 31
0.0
  0
LINE
  5
183
330
74
100
AcDbEntity
  8
0
 62
     0
100
AcDbLine
 10
298.7499999999999
 20
-2250.0
 30
0.0
 11
298.7499999999999
 21
-2250.0
 31
0.0
  0
LINE
  5
184
330
74
100
AcDbEntity
  8
0
 62
     0
100
AcDbLine
 10
213.125
 20
-2251.25
 30
0.0
 11
213.125
 21
-2251.25
 31
0.0
  0
LINE
  5
185
330
74
100
AcDbEntity
  8
0
 62
     0
100
AcDbLine
 10
291.8750000000001
 20
-2251.25
 30
0.0
 11
291.8750000000001
 21
-2251.25
 31
0.0
  0
LINE
  5
186
330
74
100
AcDbEntity
  8
0
 62
     0
100
AcDbLine
 10
293.1250000000001
 20
-2251.25
 30
0.0
 11
293.1250000000001
 21
-2251.25
 31
0.0
  0
LINE
  5
187
330
74
100
AcDbEntity
  8
0
 62
     0
100
AcDbLine
 10
294.3750000000001
 20
-2251.25
 30
0.0
 11
294.3750000000001
 21
-2251.25
 31
0.0
  0
LINE
  5
188
330
74
100
AcDbEntity
  8
0
 62
     0
100
AcDbLine
 10
295.6250000000001
 20
-2251.25
 30
0.0
 11
295.6250000000001
 21
-2251.25
 31
0.0
  0
LINE
  5
189
330
74
100
AcDbEntity
  8
0
 62
     0
100
AcDbLine
 10
296.875
 20
-2251.25
 30
0.0
 11
296.875
 21
-2251.25
 31
0.0
  0
LINE
  5
18A
330
74
100
AcDbEntity
  8
0
 62
     0
100
AcDbLine
 10
298.1250000000001
 20
-2251.25
 30
0.0
 11
298.1250000000001
 21
-2251.25
 31
0.0
  0
LINE
  5
18B
330
74
100
AcDbEntity
  8
0
 62
     0
100
AcDbLine
 10
299.3750000000001
 20
-2251.25
 30
0.0
 11
299.3750000000001
 21
-2251.25
 31
0.0
  0
LINE
  5
18C
330
74
100
AcDbEntity
  8
0
 62
     0
100
AcDbLine
 10
212.5
 20
-2252.5
 30
0.0
 11
212.5
 21
-2252.5
 31
0.0
  0
LINE
  5
18D
330
74
100
AcDbEntity
  8
0
 62
     0
100
AcDbLine
 10
213.75
 20
-2252.5
 30
0.0
 11
213.75
 21
-2252.5
 31
0.0
  0
LINE
  5
18E
330
74
100
AcDbEntity
  8
0
 62
     0
100
AcDbLine
 10
291.25
 20
-2252.5
 30
0.0
 11
291.25
 21
-2252.5
 31
0.0
  0
LINE
  5
18F
330
74
100
AcDbEntity
  8
0
 62
     0
100
AcDbLine
 10
292.5
 20
-2252.5
 30
0.0
 11
292.5
 21
-2252.5
 31
0.0
  0
LINE
  5
190
330
74
100
AcDbEntity
  8
0
 62
     0
100
AcDbLine
 10
293.75
 20
-2252.5
 30
0.0
 11
293.75
 21
-2252.5
 31
0.0
  0
LINE
  5
191
330
74
100
AcDbEntity
  8
0
 62
     0
100
AcDbLine
 10
295.0
 20
-2252.5
 30
0.0
 11
295.0
 21
-2252.5
 31
0.0
  0
LINE
  5
192
330
74
100
AcDbEntity
  8
0
 62
     0
100
AcDbLine
 10
296.25
 20
-2252.5
 30
0.0
 11
296.25
 21
-2252.5
 31
0.0
  0
LINE
  5
193
330
74
100
AcDbEntity
  8
0
 62
     0
100
AcDbLine
 10
297.5
 20
-2252.5
 30
0.0
 11
297.5
 21
-2252.5
 31
0.0
  0
LINE
  5
194
330
74
100
AcDbEntity
  8
0
 62
     0
100
AcDbLine
 10
298.75
 20
-2252.5
 30
0.0
 11
298.75
 21
-2252.5
 31
0.0
  0
LINE
  5
195
330
74
100
AcDbEntity
  8
0
 62
     0
100
AcDbLine
 10
291.8749999999999
 20
-2253.75
 30
0.0
 11
291.8749999999999
 21
-2253.75
 31
0.0
  0
LINE
  5
196
330
74
100
AcDbEntity
  8
0
 62
     0
100
AcDbLine
 10
293.125
 20
-2253.75
 30
0.0
 11
293.125
 21
-2253.75
 31
0.0
  0
LINE
  5
197
330
74
100
AcDbEntity
  8
0
 62
     0
100
AcDbLine
 10
294.375
 20
-2253.75
 30
0.0
 11
294.375
 21
-2253.75
 31
0.0
  0
LINE
  5
198
330
74
100
AcDbEntity
  8
0
 62
     0
100
AcDbLine
 10
295.6249999999999
 20
-2253.75
 30
0.0
 11
295.6249999999999
 21
-2253.75
 31
0.0
  0
LINE
  5
199
330
74
100
AcDbEntity
  8
0
 62
     0
100
AcDbLine
 10
296.875
 20
-2253.75
 30
0.0
 11
296.875
 21
-2253.75
 31
0.0
  0
LINE
  5
19A
330
74
100
AcDbEntity
  8
0
 62
     0
100
AcDbLine
 10
298.1249999999999
 20
-2253.75
 30
0.0
 11
298.1249999999999
 21
-2253.75
 31
0.0
  0
LINE
  5
19B
330
74
100
AcDbEntity
  8
0
 62
     0
100
AcDbLine
 10
292.5
 20
-2255.0
 30
0.0
 11
292.5
 21
-2255.0
 31
0.0
  0
LINE
  5
19C
330
74
100
AcDbEntity
  8
0
 62
     0
100
AcDbLine
 10
293.75
 20
-2255.0
 30
0.0
 11
293.75
 21
-2255.0
 31
0.0
  0
LINE
  5
19D
330
74
100
AcDbEntity
  8
0
 62
     0
100
AcDbLine
 10
295.0
 20
-2255.0
 30
0.0
 11
295.0
 21
-2255.0
 31
0.0
  0
LINE
  5
19E
330
74
100
AcDbEntity
  8
0
 62
     0
100
AcDbLine
 10
296.25
 20
-2255.0
 30
0.0
 11
296.25
 21
-2255.0
 31
0.0
  0
LINE
  5
19F
330
74
100
AcDbEntity
  8
0
 62
     0
100
AcDbLine
 10
297.5
 20
-2255.0
 30
0.0
 11
297.5
 21
-2255.0
 31
0.0
  0
LINE
  5
1A0
330
74
100
AcDbEntity
  8
0
 62
     0
100
AcDbLine
 10
293.125
 20
-2256.25
 30
0.0
 11
293.125
 21
-2256.25
 31
0.0
  0
LINE
  5
1A1
330
74
100
AcDbEntity
  8
0
 62
     0
100
AcDbLine
 10
294.375
 20
-2256.25
 30
0.0
 11
294.375
 21
-2256.25
 31
0.0
  0
LINE
  5
1A2
330
74
100
AcDbEntity
  8
0
 62
     0
100
AcDbLine
 10
295.625
 20
-2256.25
 30
0.0
 11
295.625
 21
-2256.25
 31
0.0
  0
LINE
  5
1A3
330
74
100
AcDbEntity
  8
0
 62
     0
100
AcDbLine
 10
296.875
 20
-2256.25
 30
0.0
 11
296.875
 21
-2256.25
 31
0.0
  0
LINE
  5
1A4
330
74
100
AcDbEntity
  8
0
 62
     0
100
AcDbLine
 10
219.375
 20
-2286.25
 30
0.0
 11
219.375
 21
-2286.25
 31
0.0
  0
LINE
  5
1A5
330
74
100
AcDbEntity
  8
0
 62
     0
100
AcDbLine
 10
220.625
 20
-2286.25
 30
0.0
 11
220.625
 21
-2286.25
 31
0.0
  0
ENDBLK
  5
1A6
330
74
100
AcDbEntity
  8
0
100
AcDbBlockEnd
  0
BLOCK
  5
1A7
330
75
100
AcDbEntity
  8
0
100
AcDbBlockBegin
  2
*X2
 70
     1
 10
0.0
 20
0.0
 30
0.0
  3
*X2
  1

  0
LINE
  5
1A8
330
75
100
AcDbEntity
  8
0
 62
     0
100
AcDbLine
 10
267.0853876185742
 20
-2225.0
 30
0.0
 11
279.2601522736861
 21
-2225.0
 31
0.0
  0
LINE
  5
1A9
330
75
100
AcDbEntity
  8
0
 62
     0
100
AcDbLine
 10
267.9990592741988
 20
-2220.0
 30
0.0
 11
278.653959492107
 21
-2220.0
 31
0.0
  0
LINE
  5
1AA
330
75
100
AcDbEntity
  8
0
 62
     0
100
AcDbLine
 10
269.0288212069418
 20
-2214.999999999999
 30
0.0
 11
278.030723200582
 21
-2214.999999999999
 31
0.0
  0
LINE
  5
1AB
330
75
100
AcDbEntity
  8
0
 62
     0
100
AcDbLine
 10
270.3220327477838
 20
-2209.999999999999
 30
0.0
 11
277.3978166933205
 21
-2209.999999999999
 31
0.0
  0
LINE
  5
1AC
330
75
100
AcDbEntity
  8
0
 62
     0
100
AcDbLine
 10
269.9420905536475
 20
-2205.0
 30
0.0
 11
276.7449070598058
 21
-2205.0
 31
0.0
  0
LINE
  5
1AD
330
75
100
AcDbEntity
  8
0
 62
     0
100
AcDbLine
 10
269.6506292261997
 20
-2200.0
 30
0.0
 11
276.0240287587743
 21
-2200.0
 31
0.0
  0
LINE
  5
1AE
330
75
100
AcDbEntity
  8
0
 62
     0
100
AcDbLine
 10
269.517266737695
 20
-2195.0
 30
0.0
 11
276.8236521254177
 21
-2195.0
 31
0.0
  0
LINE
  5
1AF
330
75
100
AcDbEntity
  8
0
 62
     0
100
AcDbLine
 10
270.0365062903679
 20
-2189.999999999999
 30
0.0
 11
277.8898978573712
 21
-2189.999999999999
 31
0.0
  0
LINE
  5
1B0
330
75
100
AcDbEntity
  8
0
 62
     0
100
AcDbLine
 10
270.6640941752718
 20
-2185.0
 30
0.0
 11
277.2230853962558
 21
-2185.0
 31
0.0
  0
LINE
  5
1B1
330
75
100
AcDbEntity
  8
0
 62
     0
100
AcDbLine
 10
270.9617988891856
 20
-2180.0
 30
0.0
 11
277.4778577186414
 21
-2180.0
 31
0.0
  0
LINE
  5
1B2
330
75
100
AcDbEntity
  8
0
 62
     0
100
AcDbLine
 10
271.1631007658277
 20
-2175.0
 30
0.0
 11
277.7806494882614
 21
-2175.0
 31
0.0
  0
LINE
  5
1B3
330
75
100
AcDbEntity
  8
0
 62
     0
100
AcDbLine
 10
274.1055140124578
 20
-2169.999999999999
 30
0.0
 11
277.7806494882614
 21
-2169.999999999999
 31
0.0
  0
LINE
  5
1B4
330
75
100
AcDbEntity
  8
0
 62
     0
100
AcDbLine
 10
266.2741449796514
 20
-2230.0
 30
0.0
 11
285.5761196236833
 21
-2230.0
 31
0.0
  0
LINE
  5
1B5
330
75
100
AcDbEntity
  8
0
 62
     0
100
AcDbLine
 10
266.4382920285548
 20
-2234.999999999999
 30
0.0
 11
287.9384187860974
 21
-2234.999999999999
 31
0.0
  0
LINE
  5
1B6
330
75
100
AcDbEntity
  8
0
 62
     0
100
AcDbLine
 10
266.3463178958398
 20
-2240.0
 30
0.0
 11
287.7332457262727
 21
-2240.0
 31
0.0
  0
LINE
  5
1B7
330
75
100
AcDbEntity
  8
0
 62
     0
100
AcDbLine
 10
266.2543437631248
 20
-2245.0
 30
0.0
 11
287.528072666448
 21
-2245.0
 31
0.0
  0
LINE
  5
1B8
330
75
100
AcDbEntity
  8
0
 62
     0
100
AcDbLine
 10
266.1623696304098
 20
-2250.0
 30
0.0
 11
287.4037300206215
 21
-2250.0
 31
0.0
  0
LINE
  5
1B9
330
75
100
AcDbEntity
  8
0
 62
     0
100
AcDbLine
 10
266.0703954976948
 20
-2255.0
 30
0.0
 11
287.5450412707896
 21
-2255.0
 31
0.0
  0
LINE
  5
1BA
330
75
100
AcDbEntity
  8
0
 62
     0
100
AcDbLine
 10
265.9784213649798
 20
-2259.999999999999
 30
0.0
 11
287.6863525209577
 21
-2259.999999999999
 31
0.0
  0
LINE
  5
1BB
330
75
100
AcDbEntity
  8
0
 62
     0
100
AcDbLine
 10
265.8864472322648
 20
-2265.0
 30
0.0
 11
287.8276637711259
 21
-2265.0
 31
0.0
  0
LINE
  5
1BC
330
75
100
AcDbEntity
  8
0
 62
     0
100
AcDbLine
 10
265.7944730995499
 20
-2270.0
 30
0.0
 11
287.968975021294
 21
-2270.0
 31
0.0
  0
LINE
  5
1BD
330
75
100
AcDbEntity
  8
0
 62
     0
100
AcDbLine
 10
265.9179923262195
 20
-2275.0
 30
0.0
 11
288.1102862714621
 21
-2275.0
 31
0.0
  0
LINE
  5
1BE
330
75
100
AcDbEntity
  8
0
 62
     0
100
AcDbLine
 10
266.0450042227317
 20
-2280.0
 30
0.0
 11
279.3498781700232
 21
-2280.0
 31
0.0
  0
LINE
  5
1BF
330
75
100
AcDbEntity
  8
0
 62
     0
100
AcDbLine
 10
285.1854144547307
 20
-2280.0
 30
0.0
 11
287.3146817026494
 21
-2280.0
 31
0.0
  0
LINE
  5
1C0
330
75
100
AcDbEntity
  8
0
 62
     0
100
AcDbLine
 10
266.1720161192438
 20
-2285.0
 30
0.0
 11
272.7529444286599
 21
-2285.0
 31
0.0
  0
ENDBLK
  5
1C1
330
75
100
AcDbEntity
  8
0
100
AcDbBlockEnd
  0
ENDSEC
  0
SECTION
  2
ENTITIES
  0
LWPOLYLINE
  5
1C2
330
6F
100
AcDbEntity
  8
GRABUNGSGRENZE
100
AcDbPolyline
 90
        4
 70
   128
 43
0.0
 10
349.6936149235786
 20
-2139.467148708081
 10
349.794910134035
 20
-2299.879551021866
 10
199.3635310209602
 20
-2299.668995986249
 10
200.1800679261974
 20
-2141.140224012724
  0
LWPOLYLINE
  5
1C8
330
6F
100
AcDbEntity
  8
STEINE
100
AcDbPolyline
 90
        5
 70
     0
 43
0.0
 10
217.0779181327072
 20
-2287.996078251933
 10
217.9414170120129
 20
-2284.481736100114
 10
212.7457278913602
 20
-2282.295259532487
 10
213.3595561201393
 20
-2286.623462279835
 10
217.0779181327072
 20
-2287.996078251933
  0
LWPOLYLINE
  5
1CF
330
6F
100
AcDbEntity
  8
STEINE
100
AcDbPolyline
 90
        5
 70
     0
 43
0.0
 10
218.7580431275736
 20
-2287.383922198056
 10
219.2660347180277
 20
-2285.397542311599
 10
221.3036285915356
 20
-2286.363822894311
 10
220.9988207743793
 20
-2287.53528099732
 10
218.7580431275736
 20
-2287.383922198056
  0
LWPOLYLINE
  5
1D6
330
6F
100
AcDbEntity
  8
STEINE
100
AcDbPolyline
 90
        5
 70
     0
 43
0.0
 10
211.9637547998701
 20
-2253.625207762802
 10
214.2037928308535
 20
-2252.605301402315
 10
213.7951099651618
 20
-2250.568575773468
 10
212.3183616868511
 20
-2250.671357476875
 10
211.9637547998701
 20
-2253.625207762802
  0
LWPOLYLINE
  5
1DD
330
6F
100
AcDbEntity
  8
STEINE
100
AcDbPolyline
 90
        5
 70
     0
 43
0.0
 10
213.7951099651618
 20
-2250.568575773468
 10
214.557370687125
 20
-2248.021864807168
 10
214.2495079350502
 20
-2244.355488554682
 10
212.0080871440511
 20
-2243.185638312156
 10
212.3183616868511
 20
-2250.671357476875
  0
LWPOLYLINE
  5
1E4
330
6F
100
AcDbEntity
  8
STEINE
100
AcDbPolyline
 90
        9
 70
     0
 43
0.0
 10
213.677793202985
 20
-2226.073920877433
 10
213.4702360491723
 20
-2219.963100846699
 10
215.5057718612615
 20
-2217.670208810972
 10
218.2562454306336
 20
-2218.534190048423
 10
217.6977473117422
 20
-2221.182621530211
 10
219.0231689479987
 20
-2223.371542045773
 10
218.7194544759712
 20
-2226.274435602328
 10
216.1228801254268
 20
-2227.192717918958
 10
213.677793202985
 20
-2226.073920877433
  0
LWPOLYLINE
  5
1EF
330
6F
100
AcDbEntity
  8
STEINE
100
AcDbPolyline
 90
        5
 70
     0
 43
0.0
 10
212.6016241735293
 20
-2215.380436024584
 10
216.164382635157
 20
-2212.271786117958
 10
214.1752372286676
 20
-2207.384281321477
 10
210.9676966410046
 20
-2208.506647813274
 10
212.6016241735293
 20
-2215.380436024584
  0
LWPOLYLINE
  5
1F6
330
6F
100
AcDbEntity
  8
STEINE
100
AcDbPolyline
 90
        5
 70
     0
 43
0.0
 10
248.9544814593447
 20
-2284.462152359425
 10
249.3586623156827
 20
-2279.369437885438
 10
255.4703827482875
 20
-2280.587768752192
 10
254.7093118430821
 20
-2285.018688888527
 10
248.9544814593447
 20
-2284.462152359425
  0
LWPOLYLINE
  5
1FD
330
6F
100
AcDbEntity
  8
STEINE
100
AcDbPolyline
 90
        5
 70
     0
 43
0.0
 10
255.9841947936916
 20
-2287.818736427256
 10
258.2738067940319
 20
-2284.659965878709
 10
260.056327605789
 20
-2284.913463237186
 10
261.6877790331692
 20
-2287.866059391937
 10
255.9841947936916
 20
-2287.818736427256
  0
LWPOLYLINE
  5
204
330
6F
100
AcDbEntity
  8
STEINE
100
AcDbPolyline
 90
        9
 70
     0
 43
0.0
 10
258.6278545604963
 20
-2200.175843402437
 10
255.8771558906566
 20
-2198.955390159845
 10
257.5602715060223
 20
-2203.079219317138
 10
257.4624741701143
 20
-2209.495779724108
 10
260.976912793562
 20
-2210.512052319903
 10
261.889760541757
 20
-2204.502373974883
 10
263.1086702382853
 20
-2199.307295841214
 10
261.8361026067721
 20
-2200.173817498228
 10
258.6278545604963
 20
-2200.175843402437
  0
LWPOLYLINE
  5
20F
330
6F
100
AcDbEntity
  8
STEINE
100
AcDbPolyline
 90
        9
 70
     0
 43
0.0
 10
258.6278545604963
 20
-2200.175843402437
 10
258.0129651437982
 20
-2194.167129773707
 10
259.0790046522082
 20
-2188.819374395178
 10
262.7456381623712
 20
-2188.918908220408
 10
267.8900811387641
 20
-2190.596171223614
 10
267.3310041900986
 20
-2192.327960406466
 10
264.1757709346145
 20
-2195.640051344067
 10
262.140074336477
 20
-2197.678320518978
 10
261.8361026067721
 20
-2200.173817498228
  0
LWPOLYLINE
  5
21A
330
6F
100
AcDbEntity
  8
STEINE
100
AcDbPolyline
 90
        5
 70
     0
 43
0.0
 10
261.2671212375287
 20
-2186.220838454843
 10
264.4230619516255
 20
-2184.02908810483
 10
265.6461842426205
 20
-2185.505128924528
 10
263.5596917011586
 20
-2187.747128545302
 10
261.2671212375287
 20
-2186.220838454843
  0
LWPOLYLINE
  5
221
330
6F
100
AcDbEntity
  8
STEINE
100
AcDbPolyline
 90
        6
 70
     0
 43
0.0
 10
255.76466270993
 20
-2182.099421088276
 10
255.2022092542494
 20
-2178.484130194002
 10
257.3384365511167
 20
-2174.357889245984
 10
261.6179657309784
 20
-2177.308813225832
 10
259.0757889312413
 20
-2183.726917178868
 10
255.76466270993
 20
-2182.099421088276
  0
LWPOLYLINE
  5
229
330
6F
100
AcDbEntity
  8
STEINE
100
AcDbPolyline
 90
        6
 70
     0
 43
0.0
 10
260.3929783218227
 20
-2172.879147220674
 10
261.8178694688899
 20
-2171.299585081747
 10
263.90648438619
 20
-2172.418607223739
 10
262.5837961127554
 20
-2174.558275342041
 10
260.2405904918494
 20
-2173.49033855826
 10
260.3929783218227
 20
-2172.879147220674
  0
LWPOLYLINE
  5
231
330
6F
100
AcDbEntity
  8
STEINE
100
AcDbPolyline
 90
        8
 70
     0
 43
0.0
 10
280.5757663330212
 20
-2199.245341346134
 10
278.7925059054418
 20
-2197.820578827906
 10
281.3373517535814
 20
-2195.629214364409
 10
283.7317713615375
 20
-2197.155440140448
 10
285.1572413383788
 20
-2196.492520300457
 10
286.0243096679576
 20
-2198.630805658743
 10
283.2745113999886
 20
-2198.836240436717
 10
280.5757663330212
 20
-2199.245341346134
  0
LWPOLYLINE
  5
23B
330
6F
100
AcDbEntity
  8
STEINE
100
AcDbPolyline
 90
        4
 70
     0
 43
0.0
 10
241.3287944088903
 20
-2143.762318739793
 10
237.9699271791731
 20
-2147.17638745056
 10
234.199000576749
 20
-2143.206650455353
 10
241.3287944088903
 20
-2143.762318739793
  0
LWPOLYLINE
  5
241
330
6F
100
AcDbEntity
  8
STEINE
100
AcDbPolyline
 90
        6
 70
     0
 43
0.0
 10
274.8260292363637
 20
-2287.399441682374
 10
280.9306750828414
 20
-2277.414366673245
 10
282.0506940983331
 20
-2276.904413493001
 10
291.1209276122677
 20
-2285.861414210387
 10
282.158685269706
 20
-2286.630942461735
 10
274.8260292363637
 20
-2287.399441682374
  0
LWPOLYLINE
  5
249
330
6F
100
AcDbEntity
  8
STEINE
100
AcDbPolyline
 90
        5
 70
     0
 43
0.0
 10
292.2418791868397
 20
-2286.828273622873
 10
292.2411074138077
 20
-2285.606083890959
 10
296.3649687283099
 20
-2283.973892847756
 10
297.333982673844
 20
-2286.264887608112
 10
292.2418791868397
 20
-2286.828273622873
  0
LWPOLYLINE
  5
250
330
6F
100
AcDbEntity
  8
STEINE
100
AcDbPolyline
 90
        6
 70
     0
 43
0.0
 10
297.333982673844
 20
-2286.264887608112
 10
298.349965854752
 20
-2282.292127835197
 10
299.3688753417398
 20
-2282.953504129123
 10
298.3527635319932
 20
-2286.722565613387
 10
296.9269076686359
 20
-2286.77439058742
 10
297.333982673844
 20
-2286.264887608112
  0
LWPOLYLINE
  5
258
330
6F
100
AcDbEntity
  8
STEINE
100
AcDbPolyline
 90
        4
 70
     0
 43
0.0
 10
301.2042501582401
 20
-2286.262443660177
 10
304.1056001687311
 20
-2284.121778668376
 10
305.0746462714749
 20
-2286.463698000895
 10
301.2042501582401
 20
-2286.262443660177
  0
LWPOLYLINE
  5
25E
330
6F
100
AcDbEntity
  8
STEINE
100
AcDbPolyline
 90
        5
 70
     0
 43
0.0
 10
298.9594207030162
 20
-2279.694588768362
 10
297.8872391675595
 20
-2275.315750863738
 10
300.3823502602937
 20
-2275.008627727485
 10
300.0287402468125
 20
-2279.541139750469
 10
298.9594207030162
 20
-2279.694588768362
  0
LWPOLYLINE
  5
265
330
6F
100
AcDbEntity
  8
STEINE
100
AcDbPolyline
 90
        9
 70
     0
 43
0.0
 10
297.0206531961256
 20
-2273.941334087898
 10
294.1175023818932
 20
-2273.230223038567
 10
290.6530236143185
 20
-2270.686181120668
 10
290.2441156481592
 20
-2268.292983486679
 10
291.4135800041692
 20
-2265.440467829723
 10
296.9635865969158
 20
-2264.214772961955
 10
299.5600001614118
 20
-2263.04186778451
 10
298.1380674776341
 20
-2269.306490562443
 10
297.0206531961256
 20
-2273.941334087898
  0
LWPOLYLINE
  5
270
330
6F
100
AcDbEntity
  8
STEINE
100
AcDbPolyline
 90
       11
 70
     0
 43
0.0
 10
314.3924923745174
 20
-2284.318981200675
 10
315.7111931539531
 20
-2275.864666134149
 10
316.5247643345954
 20
-2273.929017876596
 10
320.4969131205274
 20
-2273.977434186404
 10
322.1279465041819
 20
-2276.268010903035
 10
323.8095828879028
 20
-2278.049309740824
 10
330.1256447533535
 20
-2280.286003422002
 10
330.7889826370703
 20
-2282.373492836963
 10
330.7897222528926
 20
-2283.544757996716
 10
328.1419982297174
 20
-2284.106600465412
 10
314.3924923745174
 20
-2284.318981200675
  0
LWPOLYLINE
  5
27D
330
6F
100
AcDbEntity
  8
STEINE
100
AcDbPolyline
 90
        2
 70
     0
 43
0.0
 10
315.7111931539531
 20
-2275.864666134149
 10
309.9518286036524
 20
-2268.127764930048
  0
LWPOLYLINE
  5
281
330
6F
100
AcDbEntity
  8
STEINE
100
AcDbPolyline
 90
        3
 70
     0
 43
0.0
 10
322.0734524817455
 20
-2270.615415550139
 10
324.4691262208787
 20
-2274.12769964054
 10
322.1279465041819
 20
-2276.268010903035
  0
LWPOLYLINE
  5
286
330
6F
100
AcDbEntity
  8
STEINE
100
AcDbPolyline
 90
        7
 70
     0
 43
0.0
 10
322.0734524817455
 20
-2270.615415550139
 10
317.6943251622344
 20
-2271.229275936128
 10
315.4515216112196
 20
-2267.869669090589
 10
316.3164354077507
 20
-2266.596008113947
 10
318.1494627479452
 20
-2266.187453877094
 10
320.4413900673817
 20
-2266.695252524289
 10
322.0734524817455
 20
-2270.615415550139
  0
LWPOLYLINE
  5
28F
330
6F
100
AcDbEntity
  8
STEINE
100
AcDbPolyline
 90
        4
 70
     0
 43
0.0
 10
318.1494627479452
 20
-2266.187453877094
 10
314.5321781066715
 20
-2263.592583858662
 10
309.6969163279498
 20
-2267.669604566629
 10
309.9518286036524
 20
-2268.127764930048
  0
LWPOLYLINE
  5
295
330
6F
100
AcDbEntity
  8
STEINE
100
AcDbPolyline
 90
        6
 70
     0
 43
0.0
 10
306.3915140899596
 20
-2275.106682321071
 10
308.9352987501801
 20
-2271.234806976191
 10
311.9407489096741
 20
-2272.658797721388
 10
311.9421959841091
 20
-2274.950403468727
 10
308.5297029766167
 20
-2274.086840275002
 10
306.3915140899596
 20
-2275.106682321071
  0
LWPOLYLINE
  5
29D
330
6F
100
AcDbEntity
  8
STEINE
100
AcDbPolyline
 90
        5
 70
     0
 43
0.0
 10
305.065224209042
 20
-2271.542798357105
 10
305.8272598305375
 20
-2268.639615385663
 10
309.0859500908313
 20
-2267.873688741797
 10
307.7638406471706
 20
-2270.929999159035
 10
305.065224209042
 20
-2271.542798357105
  0
LWPOLYLINE
  5
2A4
330
6F
100
AcDbEntity
  8
STEINE
100
AcDbPolyline
 90
        6
 70
     0
 43
0.0
 10
310.3064354906333
 20
-2265.173914644121
 10
307.0970619420192
 20
-2263.393580522621
 10
302.7676372207038
 20
-2262.072275009202
 10
307.7576021484949
 20
-2261.050632159393
 10
310.7125457795515
 20
-2263.136674499919
 10
310.3064354906333
 20
-2265.173914644121
  0
LWPOLYLINE
  5
2AC
330
6F
100
AcDbEntity
  8
STEINE
100
AcDbPolyline
 90
        5
 70
     0
 43
0.0
 10
318.0967695292503
 20
-2263.386634565332
 10
314.5291553289626
 20
-2258.805674075329
 10
317.3301997411915
 20
-2259.109452861777
 10
318.808041364631
 20
-2260.738106611916
 10
318.0967695292503
 20
-2263.386634565332
  0
LWPOLYLINE
  5
2B3
330
6F
100
AcDbEntity
  8
STEINE
100
AcDbPolyline
 90
        9
 70
     0
 43
0.0
 10
317.3301997411915
 20
-2259.109452861777
 10
315.0872997185477
 20
-2255.597072299748
 10
319.3110485875863
 20
-2250.858418040176
 10
319.9741935280451
 20
-2252.640360022159
 10
318.8036679841161
 20
-2253.812364797733
 10
319.7722317287148
 20
-2255.390415547806
 10
318.5507172982033
 20
-2256.460603336263
 10
319.2143767540168
 20
-2259.057338472856
 10
318.808041364631
 20
-2260.738106611916
  0
LWPOLYLINE
  5
2BE
330
6F
100
AcDbEntity
  8
STEINE
100
AcDbPolyline
 90
        4
 70
     0
 43
0.0
 10
314.5291553289626
 20
-2258.805674075329
 10
311.523962427146
 20
-2257.789079907438
 10
312.1343176772809
 20
-2256.61742886117
 10
315.0872997185477
 20
-2255.597072299748
  0
LWPOLYLINE
  5
2C4
330
6F
100
AcDbEntity
  8
STEINE
100
AcDbPolyline
 90
       10
 70
     0
 43
0.0
 10
297.0101377885639
 20
-2257.288998990563
 10
292.4264117785296
 20
-2256.477099984823
 10
290.3874351450059
 20
-2253.321062799097
 10
294.7593270923416
 20
-2241.249173676409
 10
302.6495486854949
 20
-2236.355430381252
 10
303.2630553421773
 20
-2240.17438740697
 10
299.3458829368267
 20
-2246.542435032503
 10
299.8575404491829
 20
-2250.361456372639
 10
297.2135145051197
 20
-2256.779624640093
 10
297.0101377885639
 20
-2257.288998990563
  0
LWPOLYLINE
  5
2D0
330
6F
100
AcDbEntity
  8
STEINE
100
AcDbPolyline
 90
        9
 70
     0
 43
0.0
 10
314.0157613272843
 20
-2252.236725838386
 10
316.5589993149405
 20
-2247.499132766733
 10
318.6960305420495
 20
-2244.646006122793
 10
321.3941646220331
 20
-2243.269338342277
 10
322.4130419518112
 20
-2243.879790064041
 10
320.6326113586826
 20
-2246.936389896166
 10
321.4986828147618
 20
-2247.496013517396
 10
315.7471967808299
 20
-2252.235632493257
 10
314.0157613272843
 20
-2252.236725838386
  0
LWPOLYLINE
  5
2DB
330
6F
100
AcDbEntity
  8
STEINE
100
AcDbPolyline
 90
        6
 70
     0
 43
0.0
 10
314.4197492403643
 20
-2246.838463931419
 10
313.1475031809477
 20
-2248.214231310065
 10
313.7084452477739
 20
-2249.436067312673
 10
316.5589993149405
 20
-2247.499132766733
 10
316.5589993149405
 20
-2247.499132766733
 10
314.4197492403643
 20
-2246.838463931419
  0
LWPOLYLINE
  5
2E3
330
6F
100
AcDbEntity
  8
STEINE
100
AcDbPolyline
 90
        7
 70
     0
 43
0.0
 10
314.4197492403643
 20
-2246.838463931419
 10
313.4007432817475
 20
-2246.024313921003
 10
314.6215502536463
 20
-2243.833785544957
 10
316.9125771712121
 20
-2242.915696171586
 10
318.2878943489222
 20
-2243.474998220719
 10
317.1686792636723
 20
-2245.258065705041
 10
314.4197492403643
 20
-2246.838463931419
  0
LWPOLYLINE
  5
2EC
330
6F
100
AcDbEntity
  8
STEINE
100
AcDbPolyline
 90
        6
 70
     0
 43
0.0
 10
309.7866100470213
 20
-2248.420051974555
 10
310.6004706425506
 20
-2246.94272486647
 10
311.9753054621158
 20
-2246.738158333156
 10
312.5869791578472
 20
-2247.654414745577
 10
311.2128517968947
 20
-2248.979321866479
 10
309.7866100470213
 20
-2248.420051974555
  0
LWPOLYLINE
  5
2F4
330
6F
100
AcDbEntity
  8
STEINE
100
AcDbPolyline
 90
        4
 70
     0
 43
0.0
 10
314.4173374496392
 20
-2243.019121019186
 10
313.5000841637195
 20
-2242.052132977861
 10
315.7384821770097
 20
-2238.435073437055
 10
319.3997775903677
 20
-2230.08112828321
  0
LWPOLYLINE
  5
2FA
330
6F
100
AcDbEntity
  8
STEINE
100
AcDbPolyline
 90
        9
 70
     0
 43
0.0
 10
319.3997775903677
 20
-2230.08112828321
 10
319.8610250459156
 20
-2234.714974935165
 10
321.0338015945215
 20
-2237.107690211009
 10
322.4096976020057
 20
-2238.583634559078
 10
322.1523092211587
 20
-2234.204282139099
 10
323.1186862754999
 20
-2232.31946198208
 10
322.6084758375788
 20
-2230.792046389284
 10
321.4867846471844
 20
-2228.653921817046
 10
319.3997775903677
 20
-2230.08112828321
  0
LWPOLYLINE
  5
305
330
6F
100
AcDbEntity
  8
STEINE
100
AcDbPolyline
 90
       11
 70
     0
 43
0.0
 10
321.0338015945215
 20
-2237.107690211009
 10
318.0297985094625
 20
-2237.975305213152
 10
318.2346866148727
 20
-2239.859385754348
 10
321.2410371762374
 20
-2242.709264520112
 10
322.5140228514764
 20
-2242.504762301217
 10
323.6356497274515
 20
-2244.541037729129
 10
325.1109187741175
 20
-2242.095725706219
 10
323.0223681712367
 20
-2241.078552708554
 10
323.3271438311833
 20
-2239.856170033381
 10
321.4932160891181
 20
-2238.838836249667
 10
321.0338015945215
 20
-2237.107690211009
  0
LWPOLYLINE
  5
312
330
6F
100
AcDbEntity
  8
STEINE
100
AcDbPolyline
 90
        2
 70
     0
 43
0.0
 10
318.2878943489222
 20
-2243.474998220719
 10
318.6960305420495
 20
-2244.646006122793
  0
LWPOLYLINE
  5
316
330
6F
100
AcDbEntity
  8
STEINE
100
AcDbPolyline
 90
        2
 70
     0
 43
0.0
 10
321.3941646220331
 20
-2243.269338342277
 10
321.2410371762374
 20
-2242.709264520112
  0
LWPOLYLINE
  5
31A
330
6F
100
AcDbEntity
  8
STEINE
100
AcDbPolyline
 90
        6
 70
     0
 43
0.0
 10
325.5168039625679
 20
-2239.702013556876
 10
324.1402326536806
 20
-2237.156653193382
 10
326.939669205426
 20
-2234.914203371674
 10
326.5333659732499
 20
-2236.645896082896
 10
327.0437693544291
 20
-2238.478859108672
 10
325.5168039625679
 20
-2239.702013556876
  0
LWPOLYLINE
  5
322
330
6F
100
AcDbEntity
  8
STEINE
100
AcDbPolyline
 90
        7
 70
     0
 43
0.0
 10
335.8561642865813
 20
-2242.343563395795
 10
331.780912225146
 20
-2240.309153086045
 10
328.4176073004945
 20
-2236.695630838302
 10
332.1333002646599
 20
-2233.841507320862
 10
338.1409527054713
 20
-2231.546107022781
 10
337.125484039918
 20
-2236.333659950307
 10
335.8561642865813
 20
-2242.343563395795
  0
LWPOLYLINE
  5
32B
330
6F
100
AcDbEntity
  8
STEINE
100
AcDbPolyline
 90
        6
 70
     0
 43
0.0
 10
333.8196316009924
 20
-2243.057793694466
 10
333.2096300801638
 20
-2244.789615034527
 10
337.0807979664307
 20
-2246.213059107159
 10
336.9772123327824
 20
-2243.463196524771
 10
335.8561642865813
 20
-2242.343563395795
 10
333.8196316009924
 20
-2243.057793694466
  0
LWPOLYLINE
  5
333
330
6F
100
AcDbEntity
  8
STEINE
100
AcDbPolyline
 90
       10
 70
     0
 43
0.0
 10
322.4663783146995
 20
-2247.699100819064
 10
326.1315969076371
 20
-2245.557953469118
 10
330.4072350651289
 20
-2242.34700421723
 10
330.9183459049207
 20
-2245.300307830593
 10
329.0861546521776
 20
-2247.032900943687
 10
330.6660383632014
 20
-2248.967037812385
 10
327.305531115791
 20
-2249.783953342833
 10
328.0677596805445
 20
-2247.18631780437
 10
325.0640460103726
 20
-2248.512253955981
 10
322.4663783146995
 20
-2247.699100819064
  0
LWPOLYLINE
  5
33F
330
6F
100
AcDbEntity
  8
STEINE
100
AcDbPolyline
 90
       12
 70
     0
 43
0.0
 10
324.0991160304664
 20
-2252.688679860339
 10
323.8530469874228
 20
-2266.234776841774
 10
325.5851255851618
 20
-2267.252174939907
 10
328.3352775824372
 20
-2267.606910455727
 10
331.4407439253063
 20
-2266.128136273207
 10
332.4068958791799
 20
-2263.886844111047
 10
331.1313697843771
 20
-2260.068305129055
 10
330.2136984547318
 20
-2258.43929764961
 10
330.8744959188847
 20
-2256.503745863686
 10
328.7345383856959
 20
-2254.722736440784
 10
329.0386065870297
 20
-2252.380013178023
 10
324.0991160304664
 20
-2252.688679860339
  0
LWPOLYLINE
  5
34D
330
6F
100
AcDbEntity
  8
STEINE
100
AcDbPolyline
 90
        4
 70
     0
 43
0.0
 10
325.5851255851618
 20
-2267.252174939907
 10
323.7028780049166
 20
-2270.359763658615
 10
326.7071705048626
 20
-2269.950469805939
 10
325.5851255851618
 20
-2267.252174939907
  0
LWPOLYLINE
  5
353
330
6F
100
AcDbEntity
  8
STEINE
100
AcDbPolyline
 90
        5
 70
     0
 43
0.0
 10
336.8371728713218
 20
-2263.62942357299
 10
334.4450685824619
 20
-2265.769766992695
 10
335.566888401695
 20
-2268.111589853585
 10
336.6879042906865
 20
-2269.180298410398
 10
336.8371728713218
 20
-2263.62942357299
  0
LWPOLYLINE
  5
35A
330
6F
100
AcDbEntity
  8
STEINE
100
AcDbPolyline
 90
        5
 70
     0
 43
0.0
 10
333.1494442316162
 20
-2230.123370408762
 10
332.2346027364217
 20
-2232.97572527967
 10
328.3130891077658
 20
-2232.468955663184
 10
328.9227690564977
 20
-2230.227888601491
 10
333.1494442316162
 20
-2230.123370408762
  0
LWPOLYLINE
  5
361
330
6F
100
AcDbEntity
  8
STEINE
100
AcDbPolyline
 90
       11
 70
     0
 43
0.0
 10
302.9033997732784
 20
-2235.13307986329
 10
299.9475235831414
 20
-2231.570224930033
 10
298.4677846843315
 20
-2226.937021422271
 10
299.3811469478812
 20
-2221.74213623186
 10
301.465324170247
 20
-2215.833567415343
 10
305.7962602804169
 20
-2219.548327820428
 10
308.6003917847739
 20
-2224.740865534533
 10
309.7219865035393
 20
-2226.726216390281
 10
309.520217647467
 20
-2229.781819348906
 10
306.6200252965241
 20
-2233.75576893858
 10
302.9033997732784
 20
-2235.13307986329
  0
LWPOLYLINE
  5
36E
330
6F
100
AcDbEntity
  8
STEINE
100
AcDbPolyline
 90
        6
 70
     0
 43
0.0
 10
311.5102312986175
 20
-2236.044287593792
 10
308.6562042528067
 20
-2232.481368346116
 10
310.5903089642954
 20
-2230.850560062929
 10
312.3234487499534
 20
-2233.548469042445
 10
313.037743363043
 20
-2235.68685087236
 10
311.1538557651047
 20
-2236.197286410748
  0
LWPOLYLINE
  5
376
330
6F
100
AcDbEntity
  8
STEINE
100
AcDbPolyline
 90
        5
 70
     0
 43
0.0
 10
310.8948916809839
 20
-2229.322629954777
 10
311.809282975243
 20
-2225.757331073586
 10
312.9307169079601
 20
-2227.488059068519
 10
311.7097169928032
 20
-2229.373040011586
 10
310.8948916809839
 20
-2229.322629954777
  0
LWPOLYLINE
  5
37D
330
6F
100
AcDbEntity
  8
STEINE
100
AcDbPolyline
 90
       13
 70
     0
 43
0.0
 10
313.9489832507545
 20
-2227.130943919183
 10
312.979326161027
 20
-2223.821457715565
 10
311.6542904112865
 20
-2222.243632065961
 10
310.3300585917878
 20
-2221.938920720434
 10
309.9182564767583
 20
-2214.962511591765
 10
311.4970146854436
 20
-2215.114288434754
 10
314.0455586126951
 20
-2218.779249770015
 10
314.9122088985483
 20
-2220.255515690181
 10
316.5420846226547
 20
-2220.712807808939
 10
318.1738897793413
 20
-2224.225574257484
 10
315.9842618051663
 20
-2224.430655306152
 10
314.5591777148411
 20
-2225.704670012101
 10
313.9489832507545
 20
-2227.130943919183
  0
LWPOLYLINE
  5
38C
330
6F
100
AcDbEntity
  8
STEINE
100
AcDbPolyline
 90
        5
 70
     0
 43
0.0
 10
320.5658975965722
 20
-2221.93245712129
 10
318.7317447540393
 20
-2220.558651332434
 10
320.0041837567139
 20
-2219.488431386768
 10
321.2272095760799
 20
-2220.811698489976
 10
320.5658975965722
 20
-2221.93245712129
  0
LWPOLYLINE
  5
393
330
6F
100
AcDbEntity
  8
STEINE
100
AcDbPolyline
 90
        7
 70
     0
 43
0.0
 10
315.8268252932751
 20
-2217.046688814131
 10
318.1159549354704
 20
-2213.124049683136
 10
320.5111141592488
 20
-2215.821540618927
 10
318.9341889115147
 20
-2218.572464389235
 10
317.6097963059675
 20
-2218.013130182892
 10
316.4894235611695
 20
-2217.962913069341
 10
315.8268252932751
 20
-2217.046688814131
  0
LWPOLYLINE
  5
39C
330
6F
100
AcDbEntity
  8
STEINE
100
AcDbPolyline
 90
        5
 70
     0
 43
0.0
 10
313.7360880001369
 20
-2212.566644909374
 10
314.651444010686
 20
-2210.529083193076
 10
316.8938616751848
 20
-2213.277595172658
 10
315.9269057910695
 20
-2214.245773030741
 10
313.7360880001369
 20
-2212.566644909374
  0
LWPOLYLINE
  5
3A3
330
6F
100
AcDbEntity
  8
STEINE
100
AcDbPolyline
 90
        8
 70
     0
 43
0.0
 10
310.1204112193467
 20
-2212.518003499097
 10
307.1146394877559
 20
-2210.58476703227
 10
311.646090322821
 20
-2209.257866164369
 10
312.6657394256312
 20
-2211.090507618047
 10
311.5461384538652
 20
-2212.262480236411
 10
310.4767867528594
 20
-2212.365004682141
 10
310.4767867528594
 20
-2212.365004682141
 10
310.1204112193467
 20
-2212.518003499097
  0
LWPOLYLINE
  5
3AD
330
6F
100
AcDbEntity
  8
STEINE
100
AcDbPolyline
 90
       14
 70
     0
 43
0.0
 10
301.4487953644772
 20
-2189.658337323507
 10
304.253248440931
 20
-2195.360120759243
 10
307.2112470069062
 20
-2202.283997455264
 10
309.4537933002436
 20
-2205.236207723499
 10
312.6632311632771
 20
-2207.118390989325
 10
316.4298165423958
 20
-2204.213310742512
 10
318.5654650094891
 20
-2199.170427495559
 10
320.1913532395966
 20
-2193.313072666092
 10
316.4717370958517
 20
-2189.954398379633
 10
315.1988478922417
 20
-2190.311674315016
 10
312.9060201709346
 20
-2188.377987647253
 10
309.3417503204524
 20
-2189.093182662213
 10
306.4902636942055
 20
-2189.553304615423
 10
301.4487953644772
 20
-2189.658337323507
  0
LWPOLYLINE
  5
3BD
330
6F
100
AcDbEntity
  8
STEINE
100
AcDbPolyline
 90
        8
 70
     0
 43
0.0
 10
321.7394459182101
 20
-2225.547362129048
 10
325.2982168858389
 20
-2216.124065274197
 10
326.9278353522679
 20
-2216.17396081565
 10
326.8782292257013
 20
-2218.261900431548
 10
325.7079287822398
 20
-2219.790377212263
 10
323.0634847944509
 20
-2225.546526041597
 10
322.5551394746905
 20
-2226.972735634261
 10
321.7394459182101
 20
-2225.547362129048
  0
LWPOLYLINE
  5
3C7
330
6F
100
AcDbEntity
  8
STEINE
100
AcDbPolyline
 90
       12
 70
     0
 43
0.0
 10
331.8753973684581
 20
-2228.647361746274
 10
328.0562152422735
 20
-2228.904396397814
 10
326.6311954663676
 20
-2230.280260248089
 10
325.5123019532143
 20
-2232.572573454042
 10
322.6084758375788
 20
-2230.792046389284
 10
324.2857066835751
 20
-2225.596678840728
 10
325.6596089440599
 20
-2223.915299714684
 10
326.0647223594783
 20
-2220.299397833426
 10
328.0506520450008
 20
-2220.094445413597
 10
330.5489467014922
 20
-2224.828854921492
 10
329.4803346163087
 20
-2226.102644526973
 10
331.8753973684581
 20
-2228.647361746274
  0
LWPOLYLINE
  5
3D5
330
6F
100
AcDbEntity
  8
STEINE
100
AcDbPolyline
 90
        6
 70
     0
 43
0.0
 10
331.8753973684581
 20
-2228.647361746274
 10
337.7306298220867
 20
-2226.912228213616
 10
337.2156601171345
 20
-2217.84797594068
 10
335.6378666247393
 20
-2219.223936262583
 10
332.4313550677857
 20
-2221.9758890636
 10
330.5489467014922
 20
-2224.828854921492
  0
LWPOLYLINE
  5
3DD
330
6F
100
AcDbEntity
  8
STEINE
100
AcDbPolyline
 90
        4
 70
     0
 43
0.0
 10
332.4313550677857
 20
-2221.9758890636
 10
332.633413338745
 20
-2219.378607254443
 10
333.3966066197886
 20
-2218.308708880873
 10
335.6378666247393
 20
-2219.223936262583
  0
LWPOLYLINE
  5
3E3
330
6F
100
AcDbEntity
  8
STEINE
100
AcDbPolyline
 90
        4
 70
     0
 43
0.0
 10
335.6378666247393
 20
-2219.223936262583
 10
332.4792247050303
 20
-2217.138022550896
 10
333.3432702569003
 20
-2214.48939812585
 10
334.0044536075693
 20
-2213.164941205883
  0
LWPOLYLINE
  5
3E9
330
6F
100
AcDbEntity
  8
STEINE
100
AcDbPolyline
 90
        8
 70
     0
 43
0.0
 10
337.6709906461033
 20
-2213.111701314624
 10
334.3612471848077
 20
-2213.673961827047
 10
334.0044536075693
 20
-2213.164941205883
 10
333.6974591001556
 20
-2210.873528401801
 10
334.3565200749864
 20
-2206.18804971907
 10
337.310884876269
 20
-2207.357449760661
 10
337.6709906461033
 20
-2213.111701314624
 10
337.2156601171345
 20
-2217.84797594068
  0
LWPOLYLINE
  5
3F3
330
6F
100
AcDbEntity
  8
STEINE
100
AcDbPolyline
 90
        5
 70
     0
 43
0.0
 10
329.5762025196365
 20
-2216.630609790216
 10
325.3457649509867
 20
-2210.776953039861
 10
327.1785350335039
 20
-2209.961002225703
 10
329.4219495715024
 20
-2214.288175942342
 10
329.5762025196365
 20
-2216.630609790216
  0
LWPOLYLINE
  5
3FA
330
6F
100
AcDbEntity
  8
STEINE
100
AcDbPolyline
 90
        8
 70
     0
 43
0.0
 10
331.6064323921303
 20
-2205.935163347576
 10
331.502171457079
 20
-2202.115884749763
 10
331.1949518491975
 20
-2199.467999940539
 10
327.376637967674
 20
-2201.099998040484
 10
323.3046016272056
 20
-2204.158044947043
 10
324.5287851061196
 20
-2207.314596648124
 10
328.7542383072707
 20
-2205.274944713197
 10
331.6064323921303
 20
-2205.935163347576
  0
LWPOLYLINE
  5
404
330
6F
100
AcDbEntity
  8
STEINE
100
AcDbPolyline
 90
        8
 70
     0
 43
0.0
 10
331.502171457079
 20
-2202.115884749763
 10
333.3328513209676
 20
-2197.989836745003
 10
334.146808388126
 20
-2196.665283353408
 10
335.5716995351932
 20
-2195.085721214481
 10
336.8970568570304
 20
-2197.172792585717
 10
334.710001459629
 20
-2201.451839407433
 10
333.2856569851261
 20
-2203.897119273133
 10
331.502171457079
 20
-2202.115884749763
  0
LWPOLYLINE
  5
40E
330
6F
100
AcDbEntity
  8
STEINE
100
AcDbPolyline
 90
        9
 70
     0
 43
0.0
 10
332.5667960482635
 20
-2194.527448196057
 10
335.5716995351932
 20
-2195.085721214481
 10
335.1108058089518
 20
-2191.012044856319
 10
328.2871382395632
 20
-2191.372825927556
 10
320.2913051085524
 20
-2190.308458594049
 10
320.1913532395966
 20
-2193.313072666092
 10
321.6698058500198
 20
-2195.90929328733
 10
323.9125450866153
 20
-2199.167050988543
 10
327.2221920762819
 20
-2198.452016759631
  0
LWPOLYLINE
  5
419
330
6F
100
AcDbEntity
  8
STEINE
100
AcDbPolyline
 90
       12
 70
     0
 43
0.0
 10
327.2221920762819
 20
-2198.452016759631
 10
328.137065728686
 20
-2195.650586460886
 10
330.3766857159436
 20
-2193.968660662279
 10
332.6174312055397
 20
-2194.06909488938
 10
332.5667960482635
 20
-2194.527448196057
 10
332.109310986247
 20
-2195.851776487184
 10
333.3328513209676
 20
-2197.989836745003
 10
331.7034257977966
 20
-2198.245488636528
 10
330.8381261147494
 20
-2198.908054747213
 10
329.5642400376398
 20
-2197.68666894554
 10
327.8846617153376
 20
-2199.164542726189
 10
327.2221920762819
 20
-2198.452016759631
  0
LWPOLYLINE
  5
427
330
6F
100
AcDbEntity
  8
STEINE
100
AcDbPolyline
 90
        4
 70
     1
 43
0.0
 10
335.6155495212292
 20
-2183.882283181387
 10
333.8333181243592
 20
-2184.087106972378
 10
333.1705269132067
 20
-2182.865335284189
 10
335.0033934673529
 20
-2182.202158186521
  0
INSERT
  5
42D
330
6F
100
AcDbEntity
  8
STEINESCHRAFF
100
AcDbBlockReference
  2
*X1
 10
0.0
 20
0.0
 30
0.0
1001
ACAD
1000
HATCH
1002
{
1070
    16
1000
DOTS,I
1040
20.0
1040
0.0
1002
}
  0
LWPOLYLINE
  5
42E
330
6F
100
AcDbEntity
  8
BEFUND
100
AcDbPolyline
 90
       23
 70
     0
 43
0.0
 10
288.2425928077123
 20
-2279.681387224751
 10
287.3707638904843
 20
-2248.833563141721
 10
288.0246355784053
 20
-2232.898925122491
 10
283.8834494506674
 20
-2227.995959928631
 10
279.5243067081699
 20
-2227.178798911096
 10
278.4345211761823
 20
-2218.190028629564
 10
276.9088211855808
 20
-2206.136905671459
 10
275.8190350390459
 20
-2198.578166942775
 10
277.9986067175684
 20
-2190.815138187545
 10
277.1267778003404
 20
-2184.277850958616
 10
277.7806494882613
 20
-2176.310532176838
 10
277.7806494882613
 20
-2166.096020824676
 10
271.2419350672414
 20
-2173.041888562373
 10
270.8060206086274
 20
-2183.869270449848
 10
269.4982778473329
 20
-2194.28807228423
 10
269.7162350766399
 20
-2202.459681548228
 10
270.3701067645609
 20
-2209.814129339019
 10
268.6264495446524
 20
-2216.555707050168
 10
267.1007495540509
 20
-2224.931606340713
 10
266.228920636823
 20
-2228.813120490492
 10
266.4468778661299
 20
-2234.53324715756
 10
265.793006178209
 20
-2270.079746407904
 10
266.228920636823
 20
-2287.240125497762
  0
INSERT
  5
447
330
6F
100
AcDbEntity
  8
BEFUNDSCHRAFF
100
AcDbBlockReference
  2
*X2
 10
0.0
 20
0.0
 30
0.0
1001
ACAD
1000
HATCH
1002
{
1070
    16
1000
ANSI31,I
1040
40.0
1040
5.497787143782137
1002
}
  0
ENDSEC
  0
SECTION
  2
OBJECTS
  0
DICTIONARY
  5
C
330
0
100
AcDbDictionary
281
     1
  3
ACAD_CIP_PREVIOUS_PRODUCT_INFO
350
44A
  3
ACAD_COLOR
350
62
  3
ACAD_DETAILVIEWSTYLE
350
69
  3
ACAD_GROUP
350
D
  3
ACAD_LAYOUT
350
61
  3
ACAD_MATERIAL
350
10
  3
ACAD_MLEADERSTYLE
350
65
  3
ACAD_MLINESTYLE
350
5E
  3
ACAD_PLOTSETTINGS
350
60
  3
ACAD_PLOTSTYLENAME
350
E
  3
ACAD_SCALELIST
350
42
  3
ACAD_SECTIONVIEWSTYLE
350
67
  3
ACAD_TABLESTYLE
350
63
  3
ACAD_VISUALSTYLE
350
29
  3
ACDB_RECOMPOSE_DATA
350
461
  3
AcDbVariableDictionary
350
454
  0
DICTIONARY
  5
44E
330
2
100
AcDbDictionary
280
     1
281
     1
  3
ACAD_LAYERSTATES
360
44F
  0
XRECORD
  5
44A
102
{ACAD_REACTORS
330
C
102
}
330
C
100
AcDbXrecord
280
     1
300
ACD
300
2014
300
DSADV_F_S
  0
DICTIONARY
  5
62
102
{ACAD_REACTORS
330
C
102
}
330
C
100
AcDbDictionary
281
     1
  0
DICTIONARY
  5
69
102
{ACAD_REACTORS
330
C
102
}
330
C
100
AcDbDictionary
281
     1
  3
Imperial24
350
6A
  0
DICTIONARY
  5
D
102
{ACAD_REACTORS
330
C
102
}
330
C
100
AcDbDictionary
281
     1
  0
DICTIONARY
  5
61
102
{ACAD_REACTORS
330
C
102
}
330
C
100
AcDbDictionary
281
     1
  3
Layout1
350
6E
  3
Model
350
72
  0
DICTIONARY
  5
10
102
{ACAD_REACTORS
330
C
102
}
330
C
100
AcDbDictionary
281
     1
  3
ByBlock
350
19
  3
ByLayer
350
11
  3
Global
350
21
  0
DICTIONARY
  5
65
102
{ACAD_REACTORS
330
C
102
}
330
C
100
AcDbDictionary
281
     1
  3
Standard
350
66
  0
DICTIONARY
  5
5E
102
{ACAD_REACTORS
330
C
102
}
330
C
100
AcDbDictionary
281
     1
  3
Standard
350
5F
  0
DICTIONARY
  5
60
102
{ACAD_REACTORS
330
C
102
}
330
C
100
AcDbDictionary
281
     1
  0
ACDBDICTIONARYWDFLT
  5
E
102
{ACAD_REACTORS
330
C
102
}
330
C
100
AcDbDictionary
281
     1
  3
Normal
350
F
100
AcDbDictionaryWithDefault
340
F
  0
DICTIONARY
  5
42
102
{ACAD_REACTORS
330
C
102
}
330
C
100
AcDbDictionary
281
     1
  3
A0
350
43
  3
A1
350
44
  3
A2
350
45
  3
A3
350
46
  3
A4
350
47
  3
A5
350
48
  3
A6
350
49
  3
A7
350
4A
  3
A8
350
4B
  3
A9
350
4C
  3
B0
350
4D
  3
B1
350
4E
  3
B2
350
4F
  3
B3
350
50
  3
B4
350
51
  3
B5
350
52
  3
B6
350
53
  0
DICTIONARY
  5
67
102
{ACAD_REACTORS
330
C
102
}
330
C
100
AcDbDictionary
281
     1
  3
Imperial24
350
68
  0
DICTIONARY
  5
63
102
{ACAD_REACTORS
330
C
102
}
330
C
100
AcDbDictionary
281
     1
  3
Standard
350
64
  0
DICTIONARY
  5
29
102
{ACAD_REACTORS
330
C
102
}
330
C
100
AcDbDictionary
281
     1
  3
2dWireframe
350
2F
  3
Basic
350
2E
  3
Brighten
350
35
  3
ColorChange
350
39
  3
Conceptual
350
32
  3
Dim
350
34
  3
EdgeColorOff
350
41
  3
Facepattern
350
38
  3
Flat
350
2A
  3
FlatWithEdges
350
2B
  3
Gouraud
350
2C
  3
GouraudWithEdges
350
2D
  3
Hidden
350
31
  3
JitterOff
350
3F
  3
Linepattern
350
37
  3
OverhangOff
350
40
  3
Realistic
350
33
  3
Shaded
350
3E
  3
Shaded with edges
350
3D
  3
Shades of Gray
350
3A
  3
Sketchy
350
3B
  3
Thicken
350
36
  3
Wireframe
350
30
  3
X-Ray
350
3C
  0
XRECORD
  5
461
102
{ACAD_REACTORS
330
C
102
}
330
C
100
AcDbXrecord
280
     1
 90
        1
330
64
330
68
330
6A
  0
DICTIONARY
  5
454
102
{ACAD_REACTORS
330
C
102
}
330
C
100
AcDbDictionary
281
     1
  3
CANNOSCALE
350
459
  3
CMLEADERSTYLE
350
456
  3
CTABLESTYLE
350
455
  3
CVIEWDETAILSTYLE
350
457
  3
CVIEWSECTIONSTYLE
350
458
  0
DICTIONARY
  5
44F
102
{ACAD_REACTORS
330
44E
102
}
330
44E
100
AcDbDictionary
281
     1
  0
ACDBDETAILVIEWSTYLE
  5
6A
102
{ACAD_XDICTIONARY
360
45F
102
}
102
{ACAD_REACTORS
330
69
102
}
330
69
100
AcDbModelDocViewStyle
 70
     0
  3
Imperial24
290
     0
100
AcDbDetailViewStyle
 70
     0
 71
     0
 90
        3
 71
     1
340
55
 62
   256
 40
0.24
340
0
 62
   256
 40
0.24
300

 40
0.36
280
     3
 71
     2
340
5C
 90
       25
 62
   256
 71
     3
340
55
 62
   256
 40
0.24
 90
        1
 40
0.75
 90
        1
300
%<\AcVar ViewType \f "%tc1">% %<\AcVar ViewDetailId>%\PVARIA %<\AcVar ViewScale \f "%sn">%
 71
     4
340
5C
 90
       25
 62
   256
340
5C
 90
       25
 62
   256
280
     0
  0
LAYOUT
  5
6E
102
{ACAD_REACTORS
330
61
102
}
330
61
100
AcDbPlotSettings
  1

  2
Kyocera FS-1350DN KX
  4

  6

 40
0.0
 41
0.0
 42
0.0
 43
0.0
 44
0.0
 45
0.0
 46
0.0
 47
0.0
 48
0.0
 49
0.0
140
0.0
141
0.0
142
1.0
143
1.0
 70
   688
 72
     0
 73
     0
 74
     5
  7

 75
    16
147
1.0
 76
     0
 77
     2
 78
   300
148
0.0
149
0.0
100
AcDbLayout
  1
Layout1
 70
     0
 71
     1
 10
0.0
 20
0.0
 11
12.0
 21
9.0
 12
0.0
 22
0.0
 32
0.0
 14
1.000000000000000E+20
 24
1.000000000000000E+20
 34
1.000000000000000E+20
 15
-1.000000000000000E+20
 25
-1.000000000000000E+20
 35
-1.000000000000000E+20
146
0.0
 13
0.0
 23
0.0
 33
0.0
 16
1.0
 26
0.0
 36
0.0
 17
0.0
 27
1.0
 37
0.0
 76
     0
330
6B
  0
LAYOUT
  5
72
102
{ACAD_REACTORS
330
61
102
}
330
61
100
AcDbPlotSettings
  1

  2
Kyocera FS-1350DN KX
  4

  6

 40
0.0
 41
0.0
 42
0.0
 43
0.0
 44
0.0
 45
0.0
 46
0.0
 47
0.0
 48
0.0
 49
0.0
140
0.0
141
0.0
142
1.0
143
1.0
 70
  1712
 72
     0
 73
     0
 74
     0
  7

 75
     0
147
1.0
 76
     0
 77
     2
 78
   300
148
0.0
149
0.0
100
AcDbLayout
  1
Model
 70
     1
 71
     0
 10
0.0
 20
0.0
 11
12.0
 21
9.0
 12
0.0
 22
0.0
 32
0.0
 14
0.0
 24
0.0
 34
0.0
 15
0.0
 25
0.0
 35
0.0
146
0.0
 13
0.0
 23
0.0
 33
0.0
 16
1.0
 26
0.0
 36
0.0
 17
0.0
 27
1.0
 37
0.0
 76
     0
330
6F
331
8F
  0
MATERIAL
  5
19
102
{ACAD_XDICTIONARY
360
1A
102
}
102
{ACAD_REACTORS
330
10
102
}
330
10
100
AcDbMaterial
  1
ByBlock
 72
     0
 43
0.0208333333333333
 43
0.0
 43
0.0
 43
0.0
 43
0.0
 43
0.0208333333333333
 43
0.0
 43
0.0
 43
0.0
 43
0.0
 43
1.0
 43
0.0
 43
0.0
 43
0.0
 43
0.0
 43
1.0
 77
     0
 47
0.0208333333333333
 47
0.0
 47
0.0
 47
0.0
 47
0.0
 47
0.0208333333333333
 47
0.0
 47
0.0
 47
0.0
 47
0.0
 47
1.0
 47
0.0
 47
0.0
 47
0.0
 47
0.0
 47
1.0
171
     0
 49
0.0208333333333333
 49
0.0
 49
0.0
 49
0.0
 49
0.0
 49
0.0208333333333333
 49
0.0
 49
0.0
 49
0.0
 49
0.0
 49
1.0
 49
0.0
 49
0.0
 49
0.0
 49
0.0
 49
1.0
175
     0
142
0.0208333333333333
142
0.0
142
0.0
142
0.0
142
0.0
142
0.0208333333333333
142
0.0
142
0.0
142
0.0
142
0.0
142
1.0
142
0.0
142
0.0
142
0.0
142
0.0
142
1.0
179
     0
144
0.0208333333333333
144
0.0
144
0.0
144
0.0
144
0.0
144
0.0208333333333333
144
0.0
144
0.0
144
0.0
144
0.0
144
1.0
144
0.0
144
0.0
144
0.0
144
0.0
144
1.0
147
0.0208333333333333
147
0.0
147
0.0
147
0.0
147
0.0
147
0.0208333333333333
147
0.0
147
0.0
147
0.0
147
0.0
147
1.0
147
0.0
147
0.0
147
0.0
147
0.0
147
1.0
  0
MATERIAL
  5
11
102
{ACAD_XDICTIONARY
360
12
102
}
102
{ACAD_REACTORS
330
10
102
}
330
10
100
AcDbMaterial
  1
ByLayer
 72
     0
 43
0.0208333333333333
 43
0.0
 43
0.0
 43
0.0
 43
0.0
 43
0.0208333333333333
 43
0.0
 43
0.0
 43
0.0
 43
0.0
 43
1.0
 43
0.0
 43
0.0
 43
0.0
 43
0.0
 43
1.0
 77
     0
 47
0.0208333333333333
 47
0.0
 47
0.0
 47
0.0
 47
0.0
 47
0.0208333333333333
 47
0.0
 47
0.0
 47
0.0
 47
0.0
 47
1.0
 47
0.0
 47
0.0
 47
0.0
 47
0.0
 47
1.0
171
     0
 49
0.0208333333333333
 49
0.0
 49
0.0
 49
0.0
 49
0.0
 49
0.0208333333333333
 49
0.0
 49
0.0
 49
0.0
 49
0.0
 49
1.0
 49
0.0
 49
0.0
 49
0.0
 49
0.0
 49
1.0
175
     0
142
0.0208333333333333
142
0.0
142
0.0
142
0.0
142
0.0
142
0.0208333333333333
142
0.0
142
0.0
142
0.0
142
0.0
142
1.0
142
0.0
142
0.0
142
0.0
142
0.0
142
1.0
179
     0
144
0.0208333333333333
144
0.0
144
0.0
144
0.0
144
0.0
144
0.0208333333333333
144
0.0
144
0.0
144
0.0
144
0.0
144
1.0
144
0.0
144
0.0
144
0.0
144
0.0
144
1.0
147
0.0208333333333333
147
0.0
147
0.0
147
0.0
147
0.0
147
0.0208333333333333
147
0.0
147
0.0
147
0.0
147
0.0
147
1.0
147
0.0
147
0.0
147
0.0
147
0.0
147
1.0
  0
MATERIAL
  5
21
102
{ACAD_XDICTIONARY
360
22
102
}
102
{ACAD_REACTORS
330
10
102
}
330
10
100
AcDbMaterial
  1
Global
 72
     0
 43
0.0208333333333333
 43
0.0
 43
0.0
 43
0.0
 43
0.0
 43
0.0208333333333333
 43
0.0
 43
0.0
 43
0.0
 43
0.0
 43
1.0
 43
0.0
 43
0.0
 43
0.0
 43
0.0
 43
1.0
 77
     0
 47
0.0208333333333333
 47
0.0
 47
0.0
 47
0.0
 47
0.0
 47
0.0208333333333333
 47
0.0
 47
0.0
 47
0.0
 47
0.0
 47
1.0
 47
0.0
 47
0.0
 47
0.0
 47
0.0
 47
1.0
171
     0
 49
0.0208333333333333
 49
0.0
 49
0.0
 49
0.0
 49
0.0
 49
0.0208333333333333
 49
0.0
 49
0.0
 49
0.0
 49
0.0
 49
1.0
 49
0.0
 49
0.0
 49
0.0
 49
0.0
 49
1.0
175
     0
142
0.0208333333333333
142
0.0
142
0.0
142
0.0
142
0.0
142
0.0208333333333333
142
0.0
142
0.0
142
0.0
142
0.0
142
1.0
142
0.0
142
0.0
142
0.0
142
0.0
142
1.0
179
     0
144
0.0208333333333333
144
0.0
144
0.0
144
0.0
144
0.0
144
0.0208333333333333
144
0.0
144
0.0
144
0.0
144
0.0
144
1.0
144
0.0
144
0.0
144
0.0
144
0.0
144
1.0
147
0.0208333333333333
147
0.0
147
0.0
147
0.0
147
0.0
147
0.0208333333333333
147
0.0
147
0.0
147
0.0
147
0.0
147
1.0
147
0.0
147
0.0
147
0.0
147
0.0
147
1.0
  0
MLEADERSTYLE
  5
66
102
{ACAD_REACTORS
330
65
102
}
330
65
100
AcDbMLeaderStyle
179
     2
170
     2
171
     1
172
     0
 90
        2
 40
0.0
 41
0.0
173
     1
 91
-1056964608
340
5A
 92
       -2
290
     1
 42
0.09
291
     1
 43
0.36
  3
Standard
 44
0.18
300

342
55
174
     1
178
     6
175
     1
176
     0
 93
-1056964608
 45
0.18
292
     0
297
     0
 46
0.18
 94
-1056964608
 47
1.0
 49
1.0
140
1.0
293
     1
141
0.0
294
     1
177
     0
142
1.0
295
     1
296
     0
143
0.125
271
     0
272
     9
273
     9
298
     1
  0
MLINESTYLE
  5
5F
102
{ACAD_REACTORS
330
5E
102
}
330
5E
100
AcDbMlineStyle
  2
STANDARD
 70
     0
  3

 62
   256
 51
90.0
 52
90.0
 71
     2
 49
0.5
 62
   256
  6
BYLAYER
 49
-0.5
 62
   256
  6
BYLAYER
  0
ACDBPLACEHOLDER
  5
F
102
{ACAD_REACTORS
330
E
102
}
330
E
  0
SCALE
  5
43
102
{ACAD_REACTORS
330
42
102
}
330
42
100
AcDbScale
 70
     0
300
1:1
140
1.0
141
1.0
290
     1
  0
SCALE
  5
44
102
{ACAD_REACTORS
330
42
102
}
330
42
100
AcDbScale
 70
     0
300
1/128" = 1'-0"
140
0.0078125
141
12.0
290
     0
  0
SCALE
  5
45
102
{ACAD_REACTORS
330
42
102
}
330
42
100
AcDbScale
 70
     0
300
1/64" = 1'-0"
140
0.015625
141
12.0
290
     0
  0
SCALE
  5
46
102
{ACAD_REACTORS
330
42
102
}
330
42
100
AcDbScale
 70
     0
300
1/32" = 1'-0"
140
0.03125
141
12.0
290
     0
  0
SCALE
  5
47
102
{ACAD_REACTORS
330
42
102
}
330
42
100
AcDbScale
 70
     0
300
1/16" = 1'-0"
140
0.0625
141
12.0
290
     0
  0
SCALE
  5
48
102
{ACAD_REACTORS
330
42
102
}
330
42
100
AcDbScale
 70
     0
300
3/32" = 1'-0"
140
0.09375
141
12.0
290
     0
  0
SCALE
  5
49
102
{ACAD_REACTORS
330
42
102
}
330
42
100
AcDbScale
 70
     0
300
1/8" = 1'-0"
140
0.125
141
12.0
290
     0
  0
SCALE
  5
4A
102
{ACAD_REACTORS
330
42
102
}
330
42
100
AcDbScale
 70
     0
300
3/16" = 1'-0"
140
0.1875
141
12.0
290
     0
  0
SCALE
  5
4B
102
{ACAD_REACTORS
330
42
102
}
330
42
100
AcDbScale
 70
     0
300
1/4" = 1'-0"
140
0.25
141
12.0
290
     0
  0
SCALE
  5
4C
102
{ACAD_REACTORS
330
42
102
}
330
42
100
AcDbScale
 70
     0
300
3/8" = 1'-0"
140
0.375
141
12.0
290
     0
  0
SCALE
  5
4D
102
{ACAD_REACTORS
330
42
102
}
330
42
100
AcDbScale
 70
     0
300
1/2" = 1'-0"
140
0.5
141
12.0
290
     0
  0
SCALE
  5
4E
102
{ACAD_REACTORS
330
42
102
}
330
42
100
AcDbScale
 70
     0
300
3/4" = 1'-0"
140
0.75
141
12.0
290
     0
  0
SCALE
  5
4F
102
{ACAD_REACTORS
330
42
102
}
330
42
100
AcDbScale
 70
     0
300
1" = 1'-0"
140
1.0
141
12.0
290
     0
  0
SCALE
  5
50
102
{ACAD_REACTORS
330
42
102
}
330
42
100
AcDbScale
 70
     0
300
1-1/2" = 1'-0"
140
1.5
141
12.0
290
     0
  0
SCALE
  5
51
102
{ACAD_REACTORS
330
42
102
}
330
42
100
AcDbScale
 70
     0
300
3" = 1'-0"
140
3.0
141
12.0
290
     0
  0
SCALE
  5
52
102
{ACAD_REACTORS
330
42
102
}
330
42
100
AcDbScale
 70
     0
300
6" = 1'-0"
140
6.0
141
12.0
290
     0
  0
SCALE
  5
53
102
{ACAD_REACTORS
330
42
102
}
330
42
100
AcDbScale
 70
     0
300
1'-0" = 1'-0"
140
12.0
141
12.0
290
     0
  0
ACDBSECTIONVIEWSTYLE
  5
68
102
{ACAD_XDICTIONARY
360
45D
102
}
102
{ACAD_REACTORS
330
67
102
}
330
67
100
AcDbModelDocViewStyle
 70
     0
  3
Imperial24
290
     0
100
AcDbSectionViewStyle
 70
     0
 71
     0
 90
       78
 71
     1
340
55
 62
   256
 40
0.24
340
0
340
0
 62
   256
 40
0.24
300
I, O, Q, S, X, Z
 40
0.48
 90
        3
 40
0.18
 90
        1
 71
     2
340
5C
 90
       25
 62
   256
340
5C
 90
       50
 62
   256
 40
0.24
 40
0.0
 40
0.24
 71
     3
340
55
 62
   256
 40
0.24
 90
        1
 40
0.75
 90
        1
300
%<\AcVar ViewType \f "%tc1">% %<\AcVar ViewSectionStartId>%-%<\AcVar ViewSectionEndId>%\PVARIA %<\AcVar ViewScale \f "%sn">%
 71
     4
 62
   256
 62
   257
300
ANSI31
 40
1.0
 90
        0
290
     0
290
     0
 90
        6
 40
0.0
 40
1.570796326794896
 40
0.2617993877991494
 40
1.308996938995747
 40
-0.2617993877991494
 40
1.832595714594046
  0
TABLESTYLE
  5
64
102
{ACAD_XDICTIONARY
360
45B
102
}
102
{ACAD_REACTORS
330
63
102
}
330
63
100
AcDbTableStyle
280
     0
  3
Standard
 70
     0
 71
     0
 40
0.06
 41
0.06
280
     0
281
     0
  7
STANDARD
140
0.18
170
     2
 62
     0
 63
     7
283
     0
 90
      512
 91
        0
  1

274
    -2
284
     1
 64
     0
275
    -2
285
     1
 65
     0
276
    -2
286
     1
 66
     0
277
    -2
287
     1
 67
     0
278
    -2
288
     1
 68
     0
279
    -2
289
     1
 69
     0
  7
STANDARD
140
0.25
170
     5
 62
     0
 63
     7
283
     0
 90
      512
 91
        0
  1

274
    -2
284
     1
 64
     0
275
    -2
285
     1
 65
     0
276
    -2
286
     1
 66
     0
277
    -2
287
     1
 67
     0
278
    -2
288
     1
 68
     0
279
    -2
289
     1
 69
     0
  7
STANDARD
140
0.18
170
     5
 62
     0
 63
     7
283
     0
 90
      512
 91
        0
  1

274
    -2
284
     1
 64
     0
275
    -2
285
     1
 65
     0
276
    -2
286
     1
 66
     0
277
    -2
287
     1
 67
     0
278
    -2
288
     1
 68
     0
279
    -2
289
     1
 69
     0
  0
VISUALSTYLE
  5
2F
102
{ACAD_REACTORS
330
29
102
}
330
29
100
AcDbVisualStyle
  2
2dWireframe
 70
     4
177
     3
291
     0
 70
    58
 90
        0
176
     1
 90
        2
176
     1
 90
        0
176
     1
 90
        0
176
     1
 40
0.6
176
     1
 40
30.0
176
     1
 62
     7
420
 16777215
176
     1
 90
        1
176
     1
 90
        4
176
     1
 62
     7
176
     1
 62
   257
176
     1
 90
        1
176
     1
 90
        1
176
     1
 40
1.0
176
     1
 90
        0
176
     1
 62
   257
176
     1
 40
1.0
176
     1
 90
        1
176
     1
 90
        6
176
     1
 90
        2
176
     1
 62
     7
176
     1
 90
        5
176
     1
 90
        0
176
     1
 90
        0
176
     1
290
     0
176
     1
 90
        1
176
     1
 40
0.0
176
     1
 90
        0
176
     1
290
     1
176
     1
290
     1
176
     1
290
     0
176
     1
290
     0
176
     1
290
     0
176
     1
290
     0
176
     1
290
     0
176
     1
290
     0
176
     1
290
     0
176
     1
 90
       50
176
     1
 40
0.0
176
     1
 40
1.0
176
     1
 90
        0
176
     1
 62
    18
420
        0
176
     1
 90
       50
176
     1
 90
        3
176
     1
 62
     5
420
      255
176
     1
290
     0
176
     1
 90
       50
176
     1
 90
       50
176
     1
 90
       50
176
     1
290
     0
176
     1
 90
       50
176
     1
 62
   256
176
     0
 40
1.0
176
     0
 90
        2
176
     1
  1
strokes_ogs.tif
176
     1
290
     0
176
     1
 40
1.0
176
     1
 40
1.0
176
     1
  0
VISUALSTYLE
  5
2E
102
{ACAD_REACTORS
330
29
102
}
330
29
100
AcDbVisualStyle
  2
Basic
 70
     7
177
     3
291
     1
 70
    58
 90
        1
176
     1
 90
        0
176
     1
 90
        1
176
     1
 90
        0
176
     1
 40
0.6
176
     1
 40
30.0
176
     1
 62
     7
420
 16777215
176
     1
 90
        0
176
     1
 90
        4
176
     1
 62
     7
176
     1
 62
   257
176
     1
 90
        1
176
     1
 90
        1
176
     1
 40
1.0
176
     1
 90
        8
176
     1
 62
     7
176
     1
 40
1.0
176
     1
 90
        1
176
     1
 90
        6
176
     1
 90
        2
176
     1
 62
     7
176
     1
 90
        5
176
     1
 90
        0
176
     1
 90
        0
176
     1
290
     0
176
     1
 90
        1
176
     1
 40
0.0
176
     1
 90
        0
176
     1
290
     0
176
     1
290
     1
176
     1
290
     1
176
     1
290
     0
176
     1
290
     0
176
     1
290
     0
176
     1
290
     0
176
     1
290
     0
176
     1
290
     0
176
     1
 90
       50
176
     1
 40
0.0
176
     1
 40
1.0
176
     1
 90
        0
176
     1
 62
    18
420
        0
176
     1
 90
       50
176
     1
 90
        3
176
     1
 62
     5
420
      255
176
     1
290
     0
176
     1
 90
       50
176
     1
 90
       50
176
     1
 90
       50
176
     1
290
     0
176
     1
 90
       50
176
     1
 62
   256
176
     0
 40
1.0
176
     0
 90
        2
176
     1
  1
strokes_ogs.tif
176
     1
290
     0
176
     1
 40
1.0
176
     1
 40
1.0
176
     1
  0
VISUALSTYLE
  5
35
102
{ACAD_REACTORS
330
29
102
}
330
29
100
AcDbVisualStyle
  2
Brighten
 70
    12
177
     3
291
     1
 70
    58
 90
        2
176
     1
 90
        2
176
     1
 90
        0
176
     1
 90
        0
176
     1
 40
0.6
176
     1
 40
30.0
176
     1
 62
     7
420
 16777215
176
     1
 90
        1
176
     1
 90
        4
176
     1
 62
     7
176
     1
 62
   257
176
     1
 90
        1
176
     1
 90
        1
176
     1
 40
1.0
176
     1
 90
        8
176
     1
 62
     7
176
     1
 40
1.0
176
     1
 90
        1
176
     1
 90
        6
176
     1
 90
        2
176
     1
 62
     7
176
     1
 90
        5
176
     1
 90
        0
176
     1
 90
        0
176
     1
290
     0
176
     1
 90
        1
176
     1
 40
50.0
176
     1
 90
        0
176
     1
290
     0
176
     1
290
     1
176
     1
290
     1
176
     1
290
     0
176
     1
290
     0
176
     1
290
     0
176
     1
290
     0
176
     1
290
     0
176
     1
290
     0
176
     1
 90
       50
176
     1
 40
0.0
176
     1
 40
1.0
176
     1
 90
        0
176
     1
 62
    18
420
        0
176
     1
 90
       50
176
     1
 90
        3
176
     1
 62
     5
420
      255
176
     1
290
     0
176
     1
 90
       50
176
     1
 90
       50
176
     1
 90
       50
176
     1
290
     0
176
     1
 90
       50
176
     1
 62
   256
176
     0
 40
1.0
176
     0
 90
        2
176
     1
  1
strokes_ogs.tif
176
     1
290
     0
176
     1
 40
1.0
176
     1
 40
1.0
176
     1
  0
VISUALSTYLE
  5
39
102
{ACAD_REACTORS
330
29
102
}
330
29
100
AcDbVisualStyle
  2
ColorChange
 70
    16
177
     3
291
     1
 70
    58
 90
        2
176
     1
 90
        2
176
     1
 90
        3
176
     1
 90
        0
176
     1
 40
0.6
176
     1
 40
30.0
176
     1
 62
     8
420
  8421504
176
     1
 90
        1
176
     1
 90
        4
176
     1
 62
     7
176
     1
 62
   257
176
     1
 90
        1
176
     1
 90
        1
176
     1
 40
1.0
176
     1
 90
        8
176
     1
 62
     8
420
  8421504
176
     1
 40
1.0
176
     1
 90
        1
176
     1
 90
        6
176
     1
 90
        2
176
     1
 62
     7
176
     1
 90
        5
176
     1
 90
        0
176
     1
 90
        0
176
     1
290
     0
176
     1
 90
        1
176
     1
 40
0.0
176
     1
 90
        0
176
     1
290
     0
176
     1
290
     1
176
     1
290
     1
176
     1
290
     0
176
     1
290
     0
176
     1
290
     0
176
     1
290
     0
176
     1
290
     0
176
     1
290
     0
176
     1
 90
       50
176
     1
 40
0.0
176
     1
 40
1.0
176
     1
 90
        0
176
     1
 62
    18
420
        0
176
     1
 90
       50
176
     1
 90
        3
176
     1
 62
     5
420
      255
176
     1
290
     0
176
     1
 90
       50
176
     1
 90
       50
176
     1
 90
       50
176
     1
290
     0
176
     1
 90
       50
176
     1
 62
   256
176
     0
 40
1.0
176
     0
 90
        2
176
     1
  1
strokes_ogs.tif
176
     1
290
     0
176
     1
 40
1.0
176
     1
 40
1.0
176
     1
  0
VISUALSTYLE
  5
32
102
{ACAD_REACTORS
330
29
102
}
330
29
100
AcDbVisualStyle
  2
Conceptual
 70
     9
177
     3
291
     0
 70
    58
 90
        3
176
     1
 90
        2
176
     1
 90
        0
176
     1
 90
        0
176
     1
 40
0.6
176
     1
 40
30.0
176
     1
 62
     7
420
 16777215
176
     1
 90
        2
176
     1
 90
        2
176
     1
 62
     7
176
     1
 62
   257
176
     1
 90
        1
176
     1
 90
        1
176
     1
 40
179.0
176
     1
 90
        8
176
     1
 62
     7
176
     1
 40
1.0
176
     1
 90
        1
176
     1
 90
        6
176
     1
 90
        2
176
     1
 62
     7
176
     1
 90
        3
176
     1
 90
        0
176
     1
 90
        0
176
     1
290
     0
176
     1
 90
        1
176
     1
 40
0.0
176
     1
 90
        0
176
     1
290
     0
176
     1
290
     1
176
     1
290
     1
176
     1
290
     0
176
     1
290
     0
176
     1
290
     0
176
     1
290
     0
176
     1
290
     0
176
     1
290
     0
176
     1
 90
       50
176
     1
 40
0.0
176
     1
 40
1.0
176
     1
 90
        0
176
     1
 62
    18
420
        0
176
     1
 90
       50
176
     1
 90
        3
176
     1
 62
     5
420
      255
176
     1
290
     0
176
     1
 90
       50
176
     1
 90
       50
176
     1
 90
       50
176
     1
290
     0
176
     1
 90
       50
176
     1
 62
   256
176
     0
 40
1.0
176
     0
 90
        2
176
     1
  1
strokes_ogs.tif
176
     1
290
     0
176
     1
 40
1.0
176
     1
 40
1.0
176
     1
  0
VISUALSTYLE
  5
34
102
{ACAD_REACTORS
330
29
102
}
330
29
100
AcDbVisualStyle
  2
Dim
 70
    11
177
     3
291
     1
 70
    58
 90
        2
176
     1
 90
        2
176
     1
 90
        0
176
     1
 90
        0
176
     1
 40
0.6
176
     1
 40
30.0
176
     1
 62
     7
420
 16777215
176
     1
 90
        1
176
     1
 90
        4
176
     1
 62
     7
176
     1
 62
   257
176
     1
 90
        1
176
     1
 90
        1
176
     1
 40
1.0
176
     1
 90
        8
176
     1
 62
     7
176
     1
 40
1.0
176
     1
 90
        1
176
     1
 90
        6
176
     1
 90
        2
176
     1
 62
     7
176
     1
 90
        5
176
     1
 90
        0
176
     1
 90
        0
176
     1
290
     0
176
     1
 90
        1
176
     1
 40
-50.0
176
     1
 90
        0
176
     1
290
     0
176
     1
290
     1
176
     1
290
     1
176
     1
290
     0
176
     1
290
     0
176
     1
290
     0
176
     1
290
     0
176
     1
290
     0
176
     1
290
     0
176
     1
 90
       50
176
     1
 40
0.0
176
     1
 40
1.0
176
     1
 90
        0
176
     1
 62
    18
420
        0
176
     1
 90
       50
176
     1
 90
        3
176
     1
 62
     5
420
      255
176
     1
290
     0
176
     1
 90
       50
176
     1
 90
       50
176
     1
 90
       50
176
     1
290
     0
176
     1
 90
       50
176
     1
 62
   256
176
     0
 40
1.0
176
     0
 90
        2
176
     1
  1
strokes_ogs.tif
176
     1
290
     0
176
     1
 40
1.0
176
     1
 40
1.0
176
     1
  0
VISUALSTYLE
  5
41
102
{ACAD_REACTORS
330
29
102
}
330
29
100
AcDbVisualStyle
  2
EdgeColorOff
 70
    22
177
     3
291
     1
 70
    58
 90
        2
176
     0
 90
        2
176
     0
 90
        0
176
     0
 90
        0
176
     0
 40
0.6
176
     0
 40
30.0
176
     0
 62
     7
420
 16777215
176
     0
 90
        1
176
     0
 90
        4
176
     0
 62
     7
176
     0
 62
   257
176
     0
 90
        1
176
     0
 90
        1
176
     0
 40
1.0
176
     0
 90
        8
176
     2
 62
     7
176
     0
 40
1.0
176
     0
 90
        1
176
     0
 90
        6
176
     0
 90
        2
176
     0
 62
     7
176
     0
 90
        5
176
     0
 90
        0
176
     0
 90
        0
176
     0
290
     0
176
     0
 90
        1
176
     0
 40
0.0
176
     0
 90
        0
176
     0
290
     0
176
     0
290
     1
176
     0
290
     1
176
     0
290
     0
176
     0
290
     0
176
     0
290
     0
176
     0
290
     0
176
     0
290
     0
176
     0
290
     0
176
     0
 90
       50
176
     0
 40
0.0
176
     0
 40
1.0
176
     0
 90
        0
176
     0
 62
    18
420
        0
176
     0
 90
       50
176
     0
 90
        3
176
     0
 62
     5
420
      255
176
     0
290
     0
176
     0
 90
       50
176
     0
 90
       50
176
     0
 90
       50
176
     0
290
     0
176
     0
 90
       50
176
     0
 62
   256
176
     0
 40
1.0
176
     0
 90
        2
176
     0
  1
strokes_ogs.tif
176
     0
290
     0
176
     0
 40
1.0
176
     0
 40
1.0
176
     0
  0
VISUALSTYLE
  5
38
102
{ACAD_REACTORS
330
29
102
}
330
29
100
AcDbVisualStyle
  2
Facepattern
 70
    15
177
     3
291
     1
 70
    58
 90
        2
176
     1
 90
        2
176
     1
 90
        0
176
     1
 90
        0
176
     1
 40
0.6
176
     1
 40
30.0
176
     1
 62
     7
420
 16777215
176
     1
 90
        1
176
     1
 90
        4
176
     1
 62
     7
176
     1
 62
   257
176
     1
 90
        1
176
     1
 90
        1
176
     1
 40
1.0
176
     1
 90
        8
176
     1
 62
     7
176
     1
 40
1.0
176
     1
 90
        1
176
     1
 90
        6
176
     1
 90
        2
176
     1
 62
     7
176
     1
 90
        5
176
     1
 90
        0
176
     1
 90
        0
176
     1
290
     0
176
     1
 90
        1
176
     1
 40
0.0
176
     1
 90
        0
176
     1
290
     0
176
     1
290
     1
176
     1
290
     1
176
     1
290
     0
176
     1
290
     0
176
     1
290
     0
176
     1
290
     0
176
     1
290
     0
176
     1
290
     0
176
     1
 90
       50
176
     1
 40
0.0
176
     1
 40
1.0
176
     1
 90
        0
176
     1
 62
    18
420
        0
176
     1
 90
       50
176
     1
 90
        3
176
     1
 62
     5
420
      255
176
     1
290
     0
176
     1
 90
       50
176
     1
 90
       50
176
     1
 90
       50
176
     1
290
     0
176
     1
 90
       50
176
     1
 62
   256
176
     0
 40
1.0
176
     0
 90
        2
176
     1
  1
strokes_ogs.tif
176
     1
290
     0
176
     1
 40
1.0
176
     1
 40
1.0
176
     1
  0
VISUALSTYLE
  5
2A
102
{ACAD_REACTORS
330
29
102
}
330
29
100
AcDbVisualStyle
  2
Flat
 70
     0
177
     3
291
     1
 70
    58
 90
        2
176
     1
 90
        1
176
     1
 90
        1
176
     1
 90
        2
176
     1
 40
0.6
176
     1
 40
30.0
176
     1
 62
     7
420
 16777215
176
     1
 90
        0
176
     1
 90
        0
176
     1
 62
     7
176
     1
 62
   257
176
     1
 90
        1
176
     1
 90
        1
176
     1
 40
1.0
176
     1
 90
        8
176
     1
 62
     7
176
     1
 40
1.0
176
     1
 90
        1
176
     1
 90
        6
176
     1
 90
        2
176
     1
 62
     7
176
     1
 90
        5
176
     1
 90
        0
176
     1
 90
        0
176
     1
290
     0
176
     1
 90
       13
176
     1
 40
0.0
176
     1
 90
        0
176
     1
290
     0
176
     1
290
     1
176
     1
290
     1
176
     1
290
     0
176
     1
290
     0
176
     1
290
     0
176
     1
290
     0
176
     1
290
     0
176
     1
290
     0
176
     1
 90
       50
176
     1
 40
0.0
176
     1
 40
1.0
176
     1
 90
        0
176
     1
 62
    18
420
        0
176
     1
 90
       50
176
     1
 90
        3
176
     1
 62
     5
420
      255
176
     1
290
     0
176
     1
 90
       50
176
     1
 90
       50
176
     1
 90
       50
176
     1
290
     0
176
     1
 90
       50
176
     1
 62
   256
176
     0
 40
1.0
176
     0
 90
        2
176
     1
  1
strokes_ogs.tif
176
     1
290
     0
176
     1
 40
1.0
176
     1
 40
1.0
176
     1
  0
VISUALSTYLE
  5
2B
102
{ACAD_REACTORS
330
29
102
}
330
29
100
AcDbVisualStyle
  2
FlatWithEdges
 70
     1
177
     3
291
     1
 70
    58
 90
        2
176
     1
 90
        1
176
     1
 90
        1
176
     1
 90
        2
176
     1
 40
0.6
176
     1
 40
30.0
176
     1
 62
     7
420
 16777215
176
     1
 90
        1
176
     1
 90
        0
176
     1
 62
     7
176
     1
 62
   257
176
     1
 90
        1
176
     1
 90
        1
176
     1
 40
1.0
176
     1
 90
        0
176
     1
 62
   257
176
     1
 40
1.0
176
     1
 90
        1
176
     1
 90
        6
176
     1
 90
        2
176
     1
 62
     7
176
     1
 90
        5
176
     1
 90
        0
176
     1
 90
        0
176
     1
290
     0
176
     1
 90
       13
176
     1
 40
0.0
176
     1
 90
        0
176
     1
290
     0
176
     1
290
     1
176
     1
290
     1
176
     1
290
     0
176
     1
290
     0
176
     1
290
     0
176
     1
290
     0
176
     1
290
     0
176
     1
290
     0
176
     1
 90
       50
176
     1
 40
0.0
176
     1
 40
1.0
176
     1
 90
        0
176
     1
 62
    18
420
        0
176
     1
 90
       50
176
     1
 90
        3
176
     1
 62
     5
420
      255
176
     1
290
     0
176
     1
 90
       50
176
     1
 90
       50
176
     1
 90
       50
176
     1
290
     0
176
     1
 90
       50
176
     1
 62
   256
176
     0
 40
1.0
176
     0
 90
        2
176
     1
  1
strokes_ogs.tif
176
     1
290
     0
176
     1
 40
1.0
176
     1
 40
1.0
176
     1
  0
VISUALSTYLE
  5
2C
102
{ACAD_REACTORS
330
29
102
}
330
29
100
AcDbVisualStyle
  2
Gouraud
 70
     2
177
     3
291
     1
 70
    58
 90
        2
176
     1
 90
        2
176
     1
 90
        1
176
     1
 90
        2
176
     1
 40
0.6
176
     1
 40
30.0
176
     1
 62
     7
420
 16777215
176
     1
 90
        0
176
     1
 90
        0
176
     1
 62
     7
176
     1
 62
   257
176
     1
 90
        1
176
     1
 90
        1
176
     1
 40
1.0
176
     1
 90
        0
176
     1
 62
     7
176
     1
 40
1.0
176
     1
 90
        1
176
     1
 90
        6
176
     1
 90
        2
176
     1
 62
     7
176
     1
 90
        5
176
     1
 90
        0
176
     1
 90
        0
176
     1
290
     0
176
     1
 90
       13
176
     1
 40
0.0
176
     1
 90
        0
176
     1
290
     0
176
     1
290
     1
176
     1
290
     1
176
     1
290
     0
176
     1
290
     0
176
     1
290
     0
176
     1
290
     0
176
     1
290
     0
176
     1
290
     0
176
     1
 90
       50
176
     1
 40
0.0
176
     1
 40
1.0
176
     1
 90
        0
176
     1
 62
    18
420
        0
176
     1
 90
       50
176
     1
 90
        3
176
     1
 62
     5
420
      255
176
     1
290
     0
176
     1
 90
       50
176
     1
 90
       50
176
     1
 90
       50
176
     1
290
     0
176
     1
 90
       50
176
     1
 62
   256
176
     0
 40
1.0
176
     0
 90
        2
176
     1
  1
strokes_ogs.tif
176
     1
290
     0
176
     1
 40
1.0
176
     1
 40
1.0
176
     1
  0
VISUALSTYLE
  5
2D
102
{ACAD_REACTORS
330
29
102
}
330
29
100
AcDbVisualStyle
  2
GouraudWithEdges
 70
     3
177
     3
291
     1
 70
    58
 90
        2
176
     1
 90
        2
176
     1
 90
        1
176
     1
 90
        2
176
     1
 40
0.6
176
     1
 40
30.0
176
     1
 62
     7
420
 16777215
176
     1
 90
        1
176
     1
 90
        0
176
     1
 62
     7
176
     1
 62
   257
176
     1
 90
        1
176
     1
 90
        1
176
     1
 40
1.0
176
     1
 90
        0
176
     1
 62
   257
176
     1
 40
1.0
176
     1
 90
        1
176
     1
 90
        6
176
     1
 90
        2
176
     1
 62
     7
176
     1
 90
        5
176
     1
 90
        0
176
     1
 90
        0
176
     1
290
     0
176
     1
 90
       13
176
     1
 40
0.0
176
     1
 90
        0
176
     1
290
     0
176
     1
290
     1
176
     1
290
     1
176
     1
290
     0
176
     1
290
     0
176
     1
290
     0
176
     1
290
     0
176
     1
290
     0
176
     1
290
     0
176
     1
 90
       50
176
     1
 40
0.0
176
     1
 40
1.0
176
     1
 90
        0
176
     1
 62
    18
420
        0
176
     1
 90
       50
176
     1
 90
        3
176
     1
 62
     5
420
      255
176
     1
290
     0
176
     1
 90
       50
176
     1
 90
       50
176
     1
 90
       50
176
     1
290
     0
176
     1
 90
       50
176
     1
 62
   256
176
     0
 40
1.0
176
     0
 90
        2
176
     1
  1
strokes_ogs.tif
176
     1
290
     0
176
     1
 40
1.0
176
     1
 40
1.0
176
     1
  0
VISUALSTYLE
  5
31
102
{ACAD_REACTORS
330
29
102
}
330
29
100
AcDbVisualStyle
  2
Hidden
 70
     6
177
     3
291
     0
 70
    58
 90
        1
176
     1
 90
        2
176
     1
 90
        2
176
     1
 90
        0
176
     1
 40
0.6
176
     1
 40
30.0
176
     1
 62
     7
420
 16777215
176
     1
 90
        2
176
     1
 90
        2
176
     1
 62
     7
176
     1
 62
   257
176
     1
 90
        2
176
     1
 90
        1
176
     1
 40
40.0
176
     1
 90
        0
176
     1
 62
   257
176
     1
 40
1.0
176
     1
 90
        1
176
     1
 90
        6
176
     1
 90
        2
176
     1
 62
     7
176
     1
 90
        3
176
     1
 90
        0
176
     1
 90
        0
176
     1
290
     0
176
     1
 90
        1
176
     1
 40
0.0
176
     1
 90
        0
176
     1
290
     0
176
     1
290
     1
176
     1
290
     1
176
     1
290
     0
176
     1
290
     0
176
     1
290
     0
176
     1
290
     0
176
     1
290
     0
176
     1
290
     0
176
     1
 90
       50
176
     1
 40
0.0
176
     1
 40
1.0
176
     1
 90
        0
176
     1
 62
    18
420
        0
176
     1
 90
       50
176
     1
 90
        3
176
     1
 62
     5
420
      255
176
     1
290
     0
176
     1
 90
       50
176
     1
 90
       50
176
     1
 90
       50
176
     1
290
     0
176
     1
 90
       50
176
     1
 62
   256
176
     0
 40
1.0
176
     0
 90
        2
176
     1
  1
strokes_ogs.tif
176
     1
290
     0
176
     1
 40
1.0
176
     1
 40
1.0
176
     1
  0
VISUALSTYLE
  5
3F
102
{ACAD_REACTORS
330
29
102
}
330
29
100
AcDbVisualStyle
  2
JitterOff
 70
    20
177
     3
291
     1
 70
    58
 90
        2
176
     0
 90
        2
176
     0
 90
        0
176
     0
 90
        0
176
     0
 40
0.6
176
     0
 40
30.0
176
     0
 62
     7
420
 16777215
176
     0
 90
        1
176
     0
 90
        4
176
     0
 62
     7
176
     0
 62
   257
176
     0
 90
        1
176
     0
 90
        1
176
     0
 40
1.0
176
     0
 90
       10
176
     2
 62
     7
176
     0
 40
1.0
176
     0
 90
        1
176
     0
 90
        6
176
     0
 90
        2
176
     0
 62
     7
176
     0
 90
        5
176
     0
 90
        0
176
     0
 90
        0
176
     0
290
     0
176
     0
 90
        1
176
     0
 40
0.0
176
     0
 90
        0
176
     0
290
     0
176
     0
290
     1
176
     0
290
     1
176
     0
290
     0
176
     0
290
     0
176
     0
290
     0
176
     0
290
     0
176
     0
290
     0
176
     0
290
     0
176
     0
 90
       50
176
     0
 40
0.0
176
     0
 40
1.0
176
     0
 90
        0
176
     0
 62
    18
420
        0
176
     0
 90
       50
176
     0
 90
        3
176
     0
 62
     5
420
      255
176
     0
290
     0
176
     0
 90
       50
176
     0
 90
       50
176
     0
 90
       50
176
     0
290
     0
176
     0
 90
       50
176
     0
 62
   256
176
     0
 40
1.0
176
     0
 90
        2
176
     0
  1
strokes_ogs.tif
176
     0
290
     0
176
     0
 40
1.0
176
     0
 40
1.0
176
     0
  0
VISUALSTYLE
  5
37
102
{ACAD_REACTORS
330
29
102
}
330
29
100
AcDbVisualStyle
  2
Linepattern
 70
    14
177
     3
291
     1
 70
    58
 90
        2
176
     1
 90
        2
176
     1
 90
        0
176
     1
 90
        0
176
     1
 40
0.6
176
     1
 40
30.0
176
     1
 62
     7
420
 16777215
176
     1
 90
        1
176
     1
 90
        4
176
     1
 62
     7
176
     1
 62
   257
176
     1
 90
        7
176
     1
 90
        7
176
     1
 40
1.0
176
     1
 90
        8
176
     1
 62
     7
176
     1
 40
1.0
176
     1
 90
        1
176
     1
 90
        6
176
     1
 90
        2
176
     1
 62
     7
176
     1
 90
        5
176
     1
 90
        0
176
     1
 90
        0
176
     1
290
     0
176
     1
 90
        1
176
     1
 40
0.0
176
     1
 90
        0
176
     1
290
     0
176
     1
290
     1
176
     1
290
     1
176
     1
290
     0
176
     1
290
     0
176
     1
290
     0
176
     1
290
     0
176
     1
290
     0
176
     1
290
     0
176
     1
 90
       50
176
     1
 40
0.0
176
     1
 40
1.0
176
     1
 90
        0
176
     1
 62
    18
420
        0
176
     1
 90
       50
176
     1
 90
        3
176
     1
 62
     5
420
      255
176
     1
290
     0
176
     1
 90
       50
176
     1
 90
       50
176
     1
 90
       50
176
     1
290
     0
176
     1
 90
       50
176
     1
 62
   256
176
     0
 40
1.0
176
     0
 90
        2
176
     1
  1
strokes_ogs.tif
176
     1
290
     0
176
     1
 40
1.0
176
     1
 40
1.0
176
     1
  0
VISUALSTYLE
  5
40
102
{ACAD_REACTORS
330
29
102
}
330
29
100
AcDbVisualStyle
  2
OverhangOff
 70
    21
177
     3
291
     1
 70
    58
 90
        2
176
     0
 90
        2
176
     0
 90
        0
176
     0
 90
        0
176
     0
 40
0.6
176
     0
 40
30.0
176
     0
 62
     7
420
 16777215
176
     0
 90
        1
176
     0
 90
        4
176
     0
 62
     7
176
     0
 62
   257
176
     0
 90
        1
176
     0
 90
        1
176
     0
 40
1.0
176
     0
 90
        9
176
     2
 62
     7
176
     0
 40
1.0
176
     0
 90
        1
176
     0
 90
        6
176
     0
 90
        2
176
     0
 62
     7
176
     0
 90
        5
176
     0
 90
        0
176
     0
 90
        0
176
     0
290
     0
176
     0
 90
        1
176
     0
 40
0.0
176
     0
 90
        0
176
     0
290
     0
176
     0
290
     1
176
     0
290
     1
176
     0
290
     0
176
     0
290
     0
176
     0
290
     0
176
     0
290
     0
176
     0
290
     0
176
     0
290
     0
176
     0
 90
       50
176
     0
 40
0.0
176
     0
 40
1.0
176
     0
 90
        0
176
     0
 62
    18
420
        0
176
     0
 90
       50
176
     0
 90
        3
176
     0
 62
     5
420
      255
176
     0
290
     0
176
     0
 90
       50
176
     0
 90
       50
176
     0
 90
       50
176
     0
290
     0
176
     0
 90
       50
176
     0
 62
   256
176
     0
 40
1.0
176
     0
 90
        2
176
     0
  1
strokes_ogs.tif
176
     0
290
     0
176
     0
 40
1.0
176
     0
 40
1.0
176
     0
  0
VISUALSTYLE
  5
33
102
{ACAD_REACTORS
330
29
102
}
330
29
100
AcDbVisualStyle
  2
Realistic
 70
     8
177
     3
291
     0
 70
    58
 90
        2
176
     1
 90
        3
176
     1
 90
        0
176
     1
 90
        2
176
     1
 40
0.6
176
     1
 40
30.0
176
     1
 62
     7
420
 16777215
176
     1
 90
        0
176
     1
 90
        0
176
     1
 62
     7
176
     1
 62
   257
176
     1
 90
        1
176
     1
 90
        1
176
     1
 40
1.0
176
     1
 90
        8
176
     1
 62
   257
176
     1
 40
1.0
176
     1
 90
        1
176
     1
 90
        6
176
     1
 90
        2
176
     1
 62
     7
176
     1
 90
        3
176
     1
 90
        0
176
     1
 90
        0
176
     1
290
     0
176
     1
 90
       13
176
     1
 40
0.0
176
     1
 90
        0
176
     1
290
     0
176
     1
290
     1
176
     1
290
     1
176
     1
290
     0
176
     1
290
     0
176
     1
290
     0
176
     1
290
     0
176
     1
290
     0
176
     1
290
     0
176
     1
 90
       50
176
     1
 40
0.0
176
     1
 40
1.0
176
     1
 90
        0
176
     1
 62
    18
420
        0
176
     1
 90
       50
176
     1
 90
        3
176
     1
 62
     5
420
      255
176
     1
290
     0
176
     1
 90
       50
176
     1
 90
       50
176
     1
 90
       50
176
     1
290
     0
176
     1
 90
       50
176
     1
 62
   256
176
     0
 40
1.0
176
     0
 90
        2
176
     1
  1
strokes_ogs.tif
176
     1
290
     0
176
     1
 40
1.0
176
     1
 40
1.0
176
     1
  0
VISUALSTYLE
  5
3E
102
{ACAD_REACTORS
330
29
102
}
330
29
100
AcDbVisualStyle
  2
Shaded
 70
    27
177
     3
291
     0
 70
    58
 90
        2
176
     1
 90
        2
176
     1
 90
        1
176
     1
 90
        2
176
     1
 40
0.6
176
     1
 40
30.0
176
     1
 62
     7
420
 16777215
176
     1
 90
        0
176
     1
 90
        4
176
     1
 62
     7
176
     1
 62
   257
176
     1
 90
        1
176
     1
 90
        1
176
     1
 40
1.0
176
     1
 90
        8
176
     1
 62
   257
176
     1
 40
1.0
176
     1
 90
        1
176
     1
 90
        6
176
     1
 90
        2
176
     1
 62
     8
420
  7895160
176
     1
 90
        3
176
     1
 90
        0
176
     1
 90
        0
176
     1
290
     0
176
     1
 90
        5
176
     1
 40
0.0
176
     1
 90
        0
176
     1
290
     0
176
     1
290
     1
176
     1
290
     1
176
     1
290
     0
176
     1
290
     0
176
     1
290
     0
176
     1
290
     0
176
     1
290
     0
176
     1
290
     0
176
     1
 90
       50
176
     1
 40
0.0
176
     1
 40
1.0
176
     1
 90
        0
176
     1
 62
    18
420
        0
176
     1
 90
       50
176
     1
 90
        3
176
     1
 62
     5
420
      255
176
     1
290
     0
176
     1
 90
       50
176
     1
 90
       50
176
     1
 90
       50
176
     1
290
     0
176
     1
 90
       50
176
     1
 62
   256
176
     0
 40
1.0
176
     0
 90
        2
176
     1
  1
strokes_ogs.tif
176
     1
290
     0
176
     1
 40
1.0
176
     1
 40
1.0
176
     1
  0
VISUALSTYLE
  5
3D
102
{ACAD_REACTORS
330
29
102
}
330
29
100
AcDbVisualStyle
  2
Shaded with edges
 70
    26
177
     3
291
     0
 70
    58
 90
        2
176
     1
 90
        2
176
     1
 90
        1
176
     1
 90
        2
176
     1
 40
0.6
176
     1
 40
30.0
176
     1
 62
     7
420
 16777215
176
     1
 90
        1
176
     1
 90
       10
176
     1
 62
     7
176
     1
 62
   257
176
     1
 90
        2
176
     1
 90
        1
176
     1
 40
1.0
176
     1
 90
        8
176
     1
 62
   257
176
     1
 40
1.0
176
     1
 90
        1
176
     1
 90
        6
176
     1
 90
        2
176
     1
 62
     7
176
     1
 90
        3
176
     1
 90
        0
176
     1
 90
        0
176
     1
290
     0
176
     1
 90
        5
176
     1
 40
0.0
176
     1
 90
        0
176
     1
290
     0
176
     1
290
     1
176
     1
290
     1
176
     1
290
     0
176
     1
290
     0
176
     1
290
     0
176
     1
290
     0
176
     1
290
     0
176
     1
290
     0
176
     1
 90
       50
176
     1
 40
0.0
176
     1
 40
1.0
176
     1
 90
        0
176
     1
 62
    18
420
        0
176
     1
 90
       50
176
     1
 90
        3
176
     1
 62
     5
420
      255
176
     1
290
     0
176
     1
 90
       50
176
     1
 90
       50
176
     1
 90
       50
176
     1
290
     0
176
     1
 90
       50
176
     1
 62
   256
176
     0
 40
1.0
176
     0
 90
        2
176
     1
  1
strokes_ogs.tif
176
     1
290
     0
176
     1
 40
1.0
176
     1
 40
1.0
176
     1
  0
VISUALSTYLE
  5
3A
102
{ACAD_REACTORS
330
29
102
}
330
29
100
AcDbVisualStyle
  2
Shades of Gray
 70
    23
177
     3
291
     0
 70
    58
 90
        2
176
     1
 90
        2
176
     1
 90
        3
176
     1
 90
        0
176
     1
 40
0.6
176
     1
 40
30.0
176
     1
 62
     7
420
 16777215
176
     1
 90
        2
176
     1
 90
        2
176
     1
 62
     7
176
     1
 62
     7
176
     1
 90
        1
176
     1
 90
        1
176
     1
 40
40.0
176
     1
 90
        8
176
     1
 62
     7
176
     1
 40
1.0
176
     1
 90
        1
176
     1
 90
        6
176
     1
 90
        2
176
     1
 62
     7
176
     1
 90
        3
176
     1
 90
        0
176
     1
 90
        0
176
     1
290
     0
176
     1
 90
        1
176
     1
 40
0.0
176
     1
 90
        0
176
     1
290
     0
176
     1
290
     1
176
     1
290
     1
176
     1
290
     0
176
     1
290
     0
176
     1
290
     0
176
     1
290
     0
176
     1
290
     0
176
     1
290
     0
176
     1
 90
       50
176
     1
 40
0.0
176
     1
 40
1.0
176
     1
 90
        0
176
     1
 62
    18
420
        0
176
     1
 90
       50
176
     1
 90
        3
176
     1
 62
     5
420
      255
176
     1
290
     0
176
     1
 90
       50
176
     1
 90
       50
176
     1
 90
       50
176
     1
290
     0
176
     1
 90
       50
176
     1
 62
   256
176
     0
 40
1.0
176
     0
 90
        2
176
     1
  1
strokes_ogs.tif
176
     1
290
     0
176
     1
 40
1.0
176
     1
 40
1.0
176
     1
  0
VISUALSTYLE
  5
3B
102
{ACAD_REACTORS
330
29
102
}
330
29
100
AcDbVisualStyle
  2
Sketchy
 70
    24
177
     3
291
     0
 70
    58
 90
        1
176
     1
 90
        2
176
     1
 90
        2
176
     1
 90
        0
176
     1
 40
0.6
176
     1
 40
30.0
176
     1
 62
     7
420
 16777215
176
     1
 90
        2
176
     1
 90
        2
176
     1
 62
     7
176
     1
 62
     7
176
     1
 90
        1
176
     1
 90
        1
176
     1
 40
40.0
176
     1
 90
       11
176
     1
 62
     7
176
     1
 40
1.0
176
     1
 90
        1
176
     1
 90
        6
176
     1
 90
        2
176
     1
 62
     7
176
     1
 90
        6
176
     1
 90
        0
176
     1
 90
        0
176
     1
290
     0
176
     1
 90
        1
176
     1
 40
0.0
176
     1
 90
        0
176
     1
290
     0
176
     1
290
     1
176
     1
290
     1
176
     1
290
     0
176
     1
290
     0
176
     1
290
     0
176
     1
290
     0
176
     1
290
     0
176
     1
290
     0
176
     1
 90
       50
176
     1
 40
0.0
176
     1
 40
1.0
176
     1
 90
        0
176
     1
 62
    18
420
        0
176
     1
 90
       50
176
     1
 90
        3
176
     1
 62
     5
420
      255
176
     1
290
     0
176
     1
 90
       50
176
     1
 90
       50
176
     1
 90
       50
176
     1
290
     0
176
     1
 90
       50
176
     1
 62
   256
176
     0
 40
1.0
176
     0
 90
        2
176
     1
  1
strokes_ogs.tif
176
     1
290
     0
176
     1
 40
1.0
176
     1
 40
1.0
176
     1
  0
VISUALSTYLE
  5
36
102
{ACAD_REACTORS
330
29
102
}
330
29
100
AcDbVisualStyle
  2
Thicken
 70
    13
177
     3
291
     1
 70
    58
 90
        2
176
     1
 90
        2
176
     1
 90
        0
176
     1
 90
        0
176
     1
 40
0.6
176
     1
 40
30.0
176
     1
 62
     7
420
 16777215
176
     1
 90
        1
176
     1
 90
        4
176
     1
 62
     7
176
     1
 62
   257
176
     1
 90
        1
176
     1
 90
        1
176
     1
 40
1.0
176
     1
 90
       12
176
     1
 62
     7
176
     1
 40
1.0
176
     1
 90
        1
176
     1
 90
        6
176
     1
 90
        2
176
     1
 62
     7
176
     1
 90
        5
176
     1
 90
        0
176
     1
 90
        0
176
     1
290
     0
176
     1
 90
        1
176
     1
 40
0.0
176
     1
 90
        0
176
     1
290
     0
176
     1
290
     1
176
     1
290
     1
176
     1
290
     0
176
     1
290
     0
176
     1
290
     0
176
     1
290
     0
176
     1
290
     0
176
     1
290
     0
176
     1
 90
       50
176
     1
 40
0.0
176
     1
 40
1.0
176
     1
 90
        0
176
     1
 62
    18
420
        0
176
     1
 90
       50
176
     1
 90
        3
176
     1
 62
     5
420
      255
176
     1
290
     0
176
     1
 90
       50
176
     1
 90
       50
176
     1
 90
       50
176
     1
290
     0
176
     1
 90
       50
176
     1
 62
   256
176
     0
 40
1.0
176
     0
 90
        2
176
     1
  1
strokes_ogs.tif
176
     1
290
     0
176
     1
 40
1.0
176
     1
 40
1.0
176
     1
  0
VISUALSTYLE
  5
30
102
{ACAD_REACTORS
330
29
102
}
330
29
100
AcDbVisualStyle
  2
Wireframe
 70
     5
177
     3
291
     0
 70
    58
 90
        0
176
     1
 90
        2
176
     1
 90
        0
176
     1
 90
        0
176
     1
 40
0.6
176
     1
 40
30.0
176
     1
 62
     7
420
 16777215
176
     1
 90
        1
176
     1
 90
        4
176
     1
 62
     7
176
     1
 62
   257
176
     1
 90
        1
176
     1
 90
        1
176
     1
 40
1.0
176
     1
 90
        0
176
     1
 62
   257
176
     1
 40
1.0
176
     1
 90
        1
176
     1
 90
        6
176
     1
 90
        2
176
     1
 62
     7
176
     1
 90
        3
176
     1
 90
        0
176
     1
 90
        0
176
     1
290
     0
176
     1
 90
        1
176
     1
 40
0.0
176
     1
 90
        0
176
     1
290
     0
176
     1
290
     1
176
     1
290
     1
176
     1
290
     0
176
     1
290
     0
176
     1
290
     0
176
     1
290
     0
176
     1
290
     0
176
     1
290
     0
176
     1
 90
       50
176
     1
 40
0.0
176
     1
 40
1.0
176
     1
 90
        0
176
     1
 62
    18
420
        0
176
     1
 90
       50
176
     1
 90
        3
176
     1
 62
     5
420
      255
176
     1
290
     0
176
     1
 90
       50
176
     1
 90
       50
176
     1
 90
       50
176
     1
290
     0
176
     1
 90
       50
176
     1
 62
   256
176
     0
 40
1.0
176
     0
 90
        2
176
     1
  1
strokes_ogs.tif
176
     1
290
     0
176
     1
 40
1.0
176
     1
 40
1.0
176
     1
  0
VISUALSTYLE
  5
3C
102
{ACAD_REACTORS
330
29
102
}
330
29
100
AcDbVisualStyle
  2
X-Ray
 70
    25
177
     3
291
     0
 70
    58
 90
        2
176
     1
 90
        2
176
     1
 90
        1
176
     1
 90
        1
176
     1
 40
0.5
176
     1
 40
30.0
176
     1
 62
     7
420
 16777215
176
     1
 90
        1
176
     1
 90
        0
176
     1
 62
     7
176
     1
 62
   257
176
     1
 90
        1
176
     1
 90
        1
176
     1
 40
1.0
176
     1
 90
        8
176
     1
 62
     7
176
     1
 40
1.0
176
     1
 90
        1
176
     1
 90
        6
176
     1
 90
        2
176
     1
 62
     7
176
     1
 90
        3
176
     1
 90
        0
176
     1
 90
        0
176
     1
290
     0
176
     1
 90
       13
176
     1
 40
0.0
176
     1
 90
        0
176
     1
290
     0
176
     1
290
     1
176
     1
290
     1
176
     1
290
     0
176
     1
290
     0
176
     1
290
     0
176
     1
290
     0
176
     1
290
     0
176
     1
290
     0
176
     1
 90
       50
176
     1
 40
0.0
176
     1
 40
1.0
176
     1
 90
        0
176
     1
 62
    18
420
        0
176
     1
 90
       50
176
     1
 90
        3
176
     1
 62
     5
420
      255
176
     1
290
     0
176
     1
 90
       50
176
     1
 90
       50
176
     1
 90
       50
176
     1
290
     0
176
     1
 90
       50
176
     1
 62
   256
176
     0
 40
1.0
176
     0
 90
        2
176
     1
  1
strokes_ogs.tif
176
     1
290
     0
176
     1
 40
1.0
176
     1
 40
1.0
176
     1
  0
DICTIONARYVAR
  5
459
102
{ACAD_REACTORS
330
454
102
}
330
454
100
DictionaryVariables
280
     0
  1
1:1
  0
DICTIONARYVAR
  5
456
102
{ACAD_REACTORS
330
454
102
}
330
454
100
DictionaryVariables
280
     0
  1
STANDARD
  0
DICTIONARYVAR
  5
455
102
{ACAD_REACTORS
330
454
102
}
330
454
100
DictionaryVariables
280
     0
  1
STANDARD
  0
DICTIONARYVAR
  5
457
102
{ACAD_REACTORS
330
454
102
}
330
454
100
DictionaryVariables
280
     0
  1
Imperial24
  0
DICTIONARYVAR
  5
458
102
{ACAD_REACTORS
330
454
102
}
330
454
100
DictionaryVariables
280
     0
  1
Imperial24
  0
DICTIONARY
  5
45F
330
6A
100
AcDbDictionary
280
     1
281
     1
  3
ACAD_XREC_ROUNDTRIP
360
460
  0
DICTIONARY
  5
1A
330
19
100
AcDbDictionary
280
     1
281
     1
  3
BUMPTILE
360
1C
  3
DIFFUSETILE
360
1B
  3
OPACITYTILE
360
1F
  3
REFLECTIONTILE
360
1E
  3
REFRACTIONTILE
360
20
  3
SPECULARTILE
360
1D
  0
DICTIONARY
  5
12
330
11
100
AcDbDictionary
280
     1
281
     1
  3
BUMPTILE
360
14
  3
DIFFUSETILE
360
13
  3
OPACITYTILE
360
17
  3
REFLECTIONTILE
360
16
  3
REFRACTIONTILE
360
18
  3
SPECULARTILE
360
15
  0
DICTIONARY
  5
22
330
21
100
AcDbDictionary
280
     1
281
     1
  3
BUMPTILE
360
24
  3
DIFFUSETILE
360
23
  3
OPACITYTILE
360
27
  3
REFLECTIONTILE
360
26
  3
REFRACTIONTILE
360
28
  3
SPECULARTILE
360
25
  0
DICTIONARY
  5
45D
330
68
100
AcDbDictionary
280
     1
281
     1
  3
ACAD_XREC_ROUNDTRIP
360
45E
  0
DICTIONARY
  5
45B
330
64
100
AcDbDictionary
280
     1
281
     1
  3
ACAD_ROUNDTRIP_2008_TABLESTYLE_CELLSTYLEMAP
360
45C
  0
XRECORD
  5
460
102
{ACAD_REACTORS
330
45F
102
}
330
45F
100
AcDbXrecord
280
     1
102
DISPLAYNAME
  1
Imperial24
102
FLAGS
 90
        0
  0
XRECORD
  5
1C
102
{ACAD_REACTORS
330
1A
102
}
330
1A
100
AcDbXrecord
280
     1
270
     1
271
     1
  0
XRECORD
  5
1B
102
{ACAD_REACTORS
330
1A
102
}
330
1A
100
AcDbXrecord
280
     1
270
     1
271
     1
  0
XRECORD
  5
1F
102
{ACAD_REACTORS
330
1A
102
}
330
1A
100
AcDbXrecord
280
     1
270
     1
271
     1
  0
XRECORD
  5
1E
102
{ACAD_REACTORS
330
1A
102
}
330
1A
100
AcDbXrecord
280
     1
270
     1
271
     1
  0
XRECORD
  5
20
102
{ACAD_REACTORS
330
1A
102
}
330
1A
100
AcDbXrecord
280
     1
270
     1
271
     1
  0
XRECORD
  5
1D
102
{ACAD_REACTORS
330
1A
102
}
330
1A
100
AcDbXrecord
280
     1
270
     1
271
     1
  0
XRECORD
  5
14
102
{ACAD_REACTORS
330
12
102
}
330
12
100
AcDbXrecord
280
     1
270
     1
271
     1
  0
XRECORD
  5
13
102
{ACAD_REACTORS
330
12
102
}
330
12
100
AcDbXrecord
280
     1
270
     1
271
     1
  0
XRECORD
  5
17
102
{ACAD_REACTORS
330
12
102
}
330
12
100
AcDbXrecord
280
     1
270
     1
271
     1
  0
XRECORD
  5
16
102
{ACAD_REACTORS
330
12
102
}
330
12
100
AcDbXrecord
280
     1
270
     1
271
     1
  0
XRECORD
  5
18
102
{ACAD_REACTORS
330
12
102
}
330
12
100
AcDbXrecord
280
     1
270
     1
271
     1
  0
XRECORD
  5
15
102
{ACAD_REACTORS
330
12
102
}
330
12
100
AcDbXrecord
280
     1
270
     1
271
     1
  0
XRECORD
  5
24
102
{ACAD_REACTORS
330
22
102
}
330
22
100
AcDbXrecord
280
     1
270
     1
271
     1
  0
XRECORD
  5
23
102
{ACAD_REACTORS
330
22
102
}
330
22
100
AcDbXrecord
280
     1
270
     1
271
     1
  0
XRECORD
  5
27
102
{ACAD_REACTORS
330
22
102
}
330
22
100
AcDbXrecord
280
     1
270
     1
271
     1
  0
XRECORD
  5
26
102
{ACAD_REACTORS
330
22
102
}
330
22
100
AcDbXrecord
280
     1
270
     1
271
     1
  0
XRECORD
  5
28
102
{ACAD_REACTORS
330
22
102
}
330
22
100
AcDbXrecord
280
     1
270
     1
271
     1
  0
XRECORD
  5
25
102
{ACAD_REACTORS
330
22
102
}
330
22
100
AcDbXrecord
280
     1
270
     1
271
     1
  0
XRECORD
  5
45E
102
{ACAD_REACTORS
330
45D
102
}
330
45D
100
AcDbXrecord
280
     1
102
DISPLAYNAME
  1
Imperial24
102
FLAGS
 90
        0
  0
CELLSTYLEMAP
  5
45C
102
{ACAD_REACTORS
330
45B
102
}
330
45B
100
AcDbCellStyleMap
 90
        3
300
CELLSTYLE
  1
TABLEFORMAT_BEGIN
 90
        5
170
     1
 91
        0
 92
    32768
 62
   257
 93
        1
300
CONTENTFORMAT
  1
CONTENTFORMAT_BEGIN
 90
        0
 91
        0
 92
      512
 93
        0
300

 40
0.0
140
1.0
 94
        5
 62
     0
340
55
144
0.25
309
CONTENTFORMAT_END
171
     0
 94
        0
309
TABLEFORMAT_END
  1
CELLSTYLE_BEGIN
 90
        1
 91
        1
300
_TITLE
309
CELLSTYLE_END
300
CELLSTYLE
  1
TABLEFORMAT_BEGIN
 90
        5
170
     1
 91
        0
 92
        0
 62
   257
 93
        1
300
CONTENTFORMAT
  1
CONTENTFORMAT_BEGIN
 90
        0
 91
        0
 92
      512
 93
        0
300

 40
0.0
140
1.0
 94
        5
 62
     0
340
55
144
0.18
309
CONTENTFORMAT_END
171
     0
 94
        0
309
TABLEFORMAT_END
  1
CELLSTYLE_BEGIN
 90
        2
 91
        1
300
_HEADER
309
CELLSTYLE_END
300
CELLSTYLE
  1
TABLEFORMAT_BEGIN
 90
        5
170
     1
 91
        0
 92
        0
 62
   257
 93
        1
300
CONTENTFORMAT
  1
CONTENTFORMAT_BEGIN
 90
        0
 91
        0
 92
      512
 93
        0
300

 40
0.0
140
1.0
 94
        2
 62
     0
340
55
144
0.18
309
CONTENTFORMAT_END
171
     0
 94
        0
309
TABLEFORMAT_END
  1
CELLSTYLE_BEGIN
 90
        3
 91
        2
300
_DATA
309
CELLSTYLE_END
  0
ENDSEC
  0
SECTION
  2
ACDSDATA
 70
     2
 71
     6
  0
ACDSSCHEMA
 90
        0
  1
AcDb_Thumbnail_Schema
  2
AcDbDs::ID
280
    10
 91
        8
  2
Thumbnail_Data
280
    15
 91
        0
101
ACDSRECORD
 95
        0
 90
        1
  2
AcDbDs::TreatedAsObjectData
280
     1
291
     1
101
ACDSRECORD
 95
        0
 90
        2
  2
AcDbDs::Legacy
280
     1
291
     1
101
ACDSRECORD
  1
AcDbDs::ID
 90
        3
  2
AcDs:Indexable
280
     1
291
     1
101
ACDSRECORD
  1
AcDbDs::ID
 90
        4
  2
AcDbDs::HandleAttribute
280
     7
282
     1
  0
ACDSSCHEMA
 90
        1
  1
AcDbDs::TreatedAsObjectDataSchema
  2
AcDbDs::TreatedAsObjectData
280
     1
 91
        0
  0
ACDSSCHEMA
 90
        2
  1
AcDbDs::LegacySchema
  2
AcDbDs::Legacy
280
     1
 91
        0
  0
ACDSSCHEMA
 90
        3
  1
AcDbDs::IndexedPropertySchema
  2
AcDs:Indexable
280
     1
 91
        0
  0
ACDSSCHEMA
 90
        4
  1
AcDbDs::HandleAttributeSchema
  2
AcDbDs::HandleAttribute
280
     7
 91
        1
284
     1
  0
ACDSRECORD
 90
        0
  2
AcDbDs::ID
280
    10
320
72
  2
Thumbnail_Data
280
    15
 94
     1972
310
89504E470D0A1A0A0000000D49484452000001000000009B0803000000BA7AB56000000300504C54455B5B5B000000C8C8C80000000000000000000000000000000000000000000000000000330000660000990000CC0000FF0033000033330033660033990033CC0033FF0066000066330066660066990066CC0066FF0099
310
000099330099660099990099CC0099FF00CC0000CC3300CC6600CC9900CCCC00CCFF00FF0000FF3300FF6600FF9900FFCC00FFFF3300003300333300663300993300CC3300FF3333003333333333663333993333CC3333FF3366003366333366663366993366CC3366FF3399003399333399663399993399CC3399FF33CC00
310
33CC3333CC6633CC9933CCCC33CCFF33FF0033FF3333FF6633FF9933FFCC33FFFF6600006600336600666600996600CC6600FF6633006633336633666633996633CC6633FF6666006666336666666666996666CC6666FF6699006699336699666699996699CC6699FF66CC0066CC3366CC6666CC9966CCCC66CCFF66FF0066
310
FF3366FF6666FF9966FFCC66FFFF9900009900339900669900999900CC9900FF9933009933339933669933999933CC9933FF9966009966339966669966999966CC9966FF9999009999339999669999999999CC9999FF99CC0099CC3399CC6699CC9999CCCC99CCFF99FF0099FF3399FF6699FF9999FFCC99FFFFCC0000CC00
310
33CC0066CC0099CC00CCCC00FFCC3300CC3333CC3366CC3399CC33CCCC33FFCC6600CC6633CC6666CC6699CC66CCCC66FFCC9900CC9933CC9966CC9999CC99CCCC99FFCCCC00CCCC33CCCC66CCCC99CCCCCCCCCCFFCCFF00CCFF33CCFF66CCFF99CCFFCCCCFFFFFF0000FF0033FF0066FF0099FF00CCFF00FFFF3300FF3333
310
FF3366FF3399FF33CCFF33FFFF6600FF6633FF6666FF6699FF66CCFF66FFFF9900FF9933FF9966FF9999FF99CCFF99FFFFCC00FFCC33FFCC66FFCC99FFCCCCFFCCFFFFFF00FFFF33FFFF66FFFF99FFFFCCFFFFFF0000000D0D0D1A1A1A2828283535354343435050505D5D5D6B6B6B787878868686939393A1A1A1AEAEAEBB
310
BBBBC9C9C9D6D6D6E4E4E4F1F1F1FFFFFF00000000000000000000000000000000000000000000000000000000000054549EDE0000046F4944415478DAED9DDD6EE4300885799CB939EF7FE7675B6913DB807F924C92A98D39D256AAD456C3170C18E32C91CBE572B95C2E97CBE572B95C2E97CBE572FD5C9FD53F89039801
310
00362DEC01D8FFADBB04F096FDD3C400D0E2003C0B380007E0001C800370000EC0013800076055CB0370DD5258DDFEB0FAF30F8B3FFF253D20B589C39A3100B15118960C82A07450700FC0A495206B93874DABFAFFA24B00E98B03D84D5F1000440CA085015C7600C000017C1F03DF3B68FD1B2758D303D8A35C32067057BE
310
990567EE09E2541A3C70F86901A4B1A11600C4C9A23E817901EC5686E65E004CDB7745063100203EFA03009BD109860100D1FE5E082800C85FB602A09D06512150C0981A808C8138E102282AC19901C83200540C93AA3098B9C14410941D41D452BE069032E3EC00FEDBB0999B42406D98582781E826F37B405ED5FD4A5827
310
81AD2E321003724BA85F096BFBA31F980882A7B602320756DA01F303E86F870BFB75B6B4EE01C40B1F50B93B1A11C0998E0D6457381C168DEC0F8B5A704000A76EC7E05653D402009C6C8BCB5D106601706E111C7BC056F540BA8D1100241A01A15F340A02A303A04B37E48E00C4E8CFD6C06B57F09ED225FBC36121C0AB3F
310
80E4D1F29800E8B203D49AA2C2EB93EF630200579CA003001900722B046FDEC27CD20770DF03B2BFEFDBE1540C8F7E3876E11935630018480622F9813107A03A8094F969DB036CEB61FC1870DE034E00480B21F6422688015F00280840FC2920E64240269ACFE400422B080800104171500FF8C8F2F5A607802703B0FA725C
310
005FD54241FA4203802A0C08666644F4730F1500E025E18BEFE2F823005A0501C88AD098FD45EC2F00700740AE8BAD2E8182402A7A9072A13E1B330B600F7FA90BC4BA226408403B0888ED006431B08A07E42800752C387825F8040011ED917B211816C0E7510032DFEFA7E939FCD901508F016A2E0A7C7EC2C67C40BF0ED0
310
7361906D20B13A663D1BBC02204E4AE6BDF1E800CE67A92A80623030E580580D1A02500B012500D60DD795A05D0F10D62317866A911904508900FBA908557601E601B03D606D9672FA2C508901D5E168B45A61F6D260753ABCDD06991B40AD12AED89F4E442A1CC68C01CF022076223A05809B5B81C27E3114005B00A89505
310
5408A4E6998841002A8A400258C0030AA552C8A007747B82EA5064A52590CD871C8E5A0780E8FEC8A100586E0AA7ED201F12538D40583A18AAC400C8CE7F910040B0ED017AA5E7D9D07C796E19003CFFB10BD40B0110BB007E75C4720CC826B21BA3D606237A59407B3D997BEEA7D2208F808601B44A61B0DB31A0DEBB348C
310
5582F97054B43F60D40154E95F02903D26DB3100FC7D0A3AD583ECA47F91CD74332C6F876B008CBC46AD7C93DAA193432F94E11F721F807E9DA6D8E9D5525EFB9B511F720781EC6D076A18DE7C6DCE1C2ED0794E603BBB746F16A4377F621EB4F13AA1D1D7394E200ADA01C05E21366FC83BFEF87121046D36E5A9D8F7EAAF
310
1F548207063CE8CDFE9FAC380007E0001C800370000E6000004CE5A7FBD444177FAEFA63E472B95C2E97CBF56BFD03867F2C46DD7C92120000000049454E44AE426082
  0
ENDSEC
  0
EOF
