  0
SECTION
  2
HEADER
  9
$ACADVER
  1
AC1027
  9
$ACADMAINTVER
 70
    55
  9
$DWGCODEPAGE
  3
ANSI_1252
  9
$LASTSAVEDBY
  1
crinne
  9
$REQUIREDVERSIONS
160
                 0
  9
$INSBASE
 10
0.0
 20
0.0
 30
0.0
  9
$EXTMIN
 10
-16.04089113737141
 20
-2099.914505697776
 30
0.0
  9
$EXTMAX
 10
229.1604717213226
 20
-1882.167107118772
 30
0.0
  9
$LIMMIN
 10
-2600.0
 20
-2600.0
  9
$LIMMAX
 10
2000.0
 20
200.0
  9
$ORTHOMODE
 70
     0
  9
$REGENMODE
 70
     1
  9
$FILLMODE
 70
     1
  9
$QTEXTMODE
 70
     0
  9
$MIRRTEXT
 70
     1
  9
$LTSCALE
 40
25.0
  9
$ATTMODE
 70
     1
  9
$TEXTSIZE
 40
3.5
  9
$TRACEWID
 40
1.0
  9
$TEXTSTYLE
  7
STANDARD
  9
$CLAYER
  8
GRABUNGSGRENZE
  9
$CELTYPE
  6
ByLayer
  9
$CECOLOR
 62
   256
  9
$CELTSCALE
 40
1.0
  9
$DISPSILH
 70
     0
  9
$DIMSCALE
 40
1.0
  9
$DIMASZ
 40
3.5
  9
$DIMEXO
 40
0.1
  9
$DIMDLI
 40
7.0
  9
$DIMRND
 40
0.0
  9
$DIMDLE
 40
0.0
  9
$DIMEXE
 40
1.8
  9
$DIMTP
 40
0.0
  9
$DIMTM
 40
0.0
  9
$DIMTXT
 40
3.5
  9
$DIMCEN
 40
1.5
  9
$DIMTSZ
 40
0.0
  9
$DIMTOL
 70
     0
  9
$DIMLIM
 70
     0
  9
$DIMTIH
 70
     0
  9
$DIMTOH
 70
     0
  9
$DIMSE1
 70
     0
  9
$DIMSE2
 70
     0
  9
$DIMTAD
 70
     0
  9
$DIMZIN
 70
     0
  9
$DIMBLK
  1

  9
$DIMASO
 70
     1
  9
$DIMSHO
 70
     0
  9
$DIMPOST
  1

  9
$DIMAPOST
  1

  9
$DIMALT
 70
     0
  9
$DIMALTD
 70
     2
  9
$DIMALTF
 40
25.4
  9
$DIMLFAC
 40
1.0
  9
$DIMTOFL
 70
     0
  9
$DIMTVP
 40
0.0
  9
$DIMTIX
 70
     0
  9
$DIMSOXD
 70
     0
  9
$DIMSAH
 70
     0
  9
$DIMBLK1
  1

  9
$DIMBLK2
  1

  9
$DIMSTYLE
  2
Standard
  9
$DIMCLRD
 70
     0
  9
$DIMCLRE
 70
     0
  9
$DIMCLRT
 70
     0
  9
$DIMTFAC
 40
1.0
  9
$DIMGAP
 40
0.09
  9
$DIMJUST
 70
     0
  9
$DIMSD1
 70
     0
  9
$DIMSD2
 70
     0
  9
$DIMTOLJ
 70
     1
  9
$DIMTZIN
 70
     0
  9
$DIMALTZ
 70
     0
  9
$DIMALTTZ
 70
     0
  9
$DIMUPT
 70
     0
  9
$DIMDEC
 70
     2
  9
$DIMTDEC
 70
     2
  9
$DIMALTU
 70
     2
  9
$DIMALTTD
 70
     2
  9
$DIMTXSTY
  7
STANDARD
  9
$DIMAUNIT
 70
     0
  9
$DIMADEC
 70
     0
  9
$DIMALTRND
 40
0.0
  9
$DIMAZIN
 70
     0
  9
$DIMDSEP
 70
    46
  9
$DIMATFIT
 70
     3
  9
$DIMFRAC
 70
     0
  9
$DIMLDRBLK
  1

  9
$DIMLUNIT
 70
     2
  9
$DIMLWD
 70
    -2
  9
$DIMLWE
 70
    -2
  9
$DIMTMOVE
 70
     2
  9
$DIMFXL
 40
1.0
  9
$DIMFXLON
 70
     0
  9
$DIMJOGANG
 40
0.7853981633974483
  9
$DIMTFILL
 70
     0
  9
$DIMTFILLCLR
 70
     0
  9
$DIMARCSYM
 70
     0
  9
$DIMLTYPE
  6

  9
$DIMLTEX1
  6

  9
$DIMLTEX2
  6

  9
$DIMTXTDIRECTION
 70
     0
  9
$LUNITS
 70
     2
  9
$LUPREC
 70
     2
  9
$SKETCHINC
 40
1.0
  9
$FILLETRAD
 40
0.0
  9
$AUNITS
 70
     0
  9
$AUPREC
 70
     0
  9
$MENU
  1
ACAD
  9
$ELEVATION
 40
0.0
  9
$PELEVATION
 40
0.0
  9
$THICKNESS
 40
0.0
  9
$LIMCHECK
 70
     0
  9
$CHAMFERA
 40
0.0
  9
$CHAMFERB
 40
0.0
  9
$CHAMFERC
 40
0.0
  9
$CHAMFERD
 40
0.0
  9
$SKPOLY
 70
     0
  9
$TDCREATE
 40
2450567.642341551
  9
$TDUCREATE
 40
2450567.559008217
  9
$TDUPDATE
 40
2459793.590402187
  9
$TDUUPDATE
 40
2459793.507068854
  9
$TDINDWG
 40
0.0027905903
  9
$TDUSRTIMER
 40
0.0027905903
  9
$USRTIMER
 70
     1
  9
$ANGBASE
 50
0.0
  9
$ANGDIR
 70
     0
  9
$PDMODE
 70
     0
  9
$PDSIZE
 40
0.0
  9
$PLINEWID
 40
0.0
  9
$SPLFRAME
 70
     0
  9
$SPLINETYPE
 70
     6
  9
$SPLINESEGS
 70
     8
  9
$HANDSEED
  5
521
  9
$SURFTAB1
 70
     6
  9
$SURFTAB2
 70
     6
  9
$SURFTYPE
 70
     6
  9
$SURFU
 70
     6
  9
$SURFV
 70
     6
  9
$UCSBASE
  2

  9
$UCSNAME
  2

  9
$UCSORG
 10
0.0
 20
0.0
 30
0.0
  9
$UCSXDIR
 10
1.0
 20
0.0
 30
0.0
  9
$UCSYDIR
 10
0.0
 20
1.0
 30
0.0
  9
$UCSORTHOREF
  2

  9
$UCSORTHOVIEW
 70
     0
  9
$UCSORGTOP
 10
0.0
 20
0.0
 30
0.0
  9
$UCSORGBOTTOM
 10
0.0
 20
0.0
 30
0.0
  9
$UCSORGLEFT
 10
0.0
 20
0.0
 30
0.0
  9
$UCSORGRIGHT
 10
0.0
 20
0.0
 30
0.0
  9
$UCSORGFRONT
 10
0.0
 20
0.0
 30
0.0
  9
$UCSORGBACK
 10
0.0
 20
0.0
 30
0.0
  9
$PUCSBASE
  2

  9
$PUCSNAME
  2

  9
$PUCSORG
 10
0.0
 20
0.0
 30
0.0
  9
$PUCSXDIR
 10
1.0
 20
0.0
 30
0.0
  9
$PUCSYDIR
 10
0.0
 20
1.0
 30
0.0
  9
$PUCSORTHOREF
  2

  9
$PUCSORTHOVIEW
 70
     0
  9
$PUCSORGTOP
 10
0.0
 20
0.0
 30
0.0
  9
$PUCSORGBOTTOM
 10
0.0
 20
0.0
 30
0.0
  9
$PUCSORGLEFT
 10
0.0
 20
0.0
 30
0.0
  9
$PUCSORGRIGHT
 10
0.0
 20
0.0
 30
0.0
  9
$PUCSORGFRONT
 10
0.0
 20
0.0
 30
0.0
  9
$PUCSORGBACK
 10
0.0
 20
0.0
 30
0.0
  9
$USERI1
 70
     0
  9
$USERI2
 70
     0
  9
$USERI3
 70
     0
  9
$USERI4
 70
     0
  9
$USERI5
 70
     0
  9
$USERR1
 40
0.0
  9
$USERR2
 40
0.0
  9
$USERR3
 40
0.0
  9
$USERR4
 40
0.0
  9
$USERR5
 40
0.0
  9
$WORLDVIEW
 70
     1
  9
$SHADEDGE
 70
     3
  9
$SHADEDIF
 70
    70
  9
$TILEMODE
 70
     1
  9
$MAXACTVP
 70
    16
  9
$PINSBASE
 10
0.0
 20
0.0
 30
0.0
  9
$PLIMCHECK
 70
     0
  9
$PEXTMIN
 10
1.000000000000000E+20
 20
1.000000000000000E+20
 30
1.000000000000000E+20
  9
$PEXTMAX
 10
-1.000000000000000E+20
 20
-1.000000000000000E+20
 30
-1.000000000000000E+20
  9
$PLIMMIN
 10
0.0
 20
0.0
  9
$PLIMMAX
 10
12.0
 20
9.0
  9
$UNITMODE
 70
     0
  9
$VISRETAIN
 70
     0
  9
$PLINEGEN
 70
     0
  9
$PSLTSCALE
 70
     0
  9
$TREEDEPTH
 70
  3020
  9
$CMLSTYLE
  2
Standard
  9
$CMLJUST
 70
     0
  9
$CMLSCALE
 40
1.0
  9
$PROXYGRAPHICS
 70
     1
  9
$MEASUREMENT
 70
     0
  9
$CELWEIGHT
370
    -1
  9
$ENDCAPS
280
     0
  9
$JOINSTYLE
280
     0
  9
$LWDISPLAY
290
     0
  9
$INSUNITS
 70
     6
  9
$HYPERLINKBASE
  1

  9
$STYLESHEET
  1

  9
$XEDIT
290
     1
  9
$CEPSNTYPE
380
     0
  9
$PSTYLEMODE
290
     1
  9
$FINGERPRINTGUID
  2
{CCDC88D0-1136-466F-BC13-DE5B09A445F1}
  9
$VERSIONGUID
  2
{BACC959A-C956-4429-A480-0BFA07D45117}
  9
$EXTNAMES
290
     1
  9
$PSVPSCALE
 40
0.0
  9
$OLESTARTUP
290
     0
  9
$SORTENTS
280
   127
  9
$INDEXCTL
280
     0
  9
$HIDETEXT
280
     1
  9
$XCLIPFRAME
280
     2
  9
$HALOGAP
280
     0
  9
$OBSCOLOR
 70
   257
  9
$OBSLTYPE
280
     0
  9
$INTERSECTIONDISPLAY
280
     0
  9
$INTERSECTIONCOLOR
 70
   257
  9
$DIMASSOC
280
     2
  9
$PROJECTNAME
  1

  9
$CAMERADISPLAY
290
     0
  9
$LENSLENGTH
 40
50.0
  9
$CAMERAHEIGHT
 40
0.0
  9
$STEPSPERSEC
 40
2.0
  9
$STEPSIZE
 40
6.0
  9
$3DDWFPREC
 40
2.0
  9
$PSOLWIDTH
 40
0.25
  9
$PSOLHEIGHT
 40
4.0
  9
$LOFTANG1
 40
1.570796326794896
  9
$LOFTANG2
 40
1.570796326794896
  9
$LOFTMAG1
 40
0.0
  9
$LOFTMAG2
 40
0.0
  9
$LOFTPARAM
 70
     7
  9
$LOFTNORMALS
280
     1
  9
$LATITUDE
 40
37.795
  9
$LONGITUDE
 40
-122.394
  9
$NORTHDIRECTION
 40
0.0
  9
$TIMEZONE
 70
 -8000
  9
$LIGHTGLYPHDISPLAY
280
     1
  9
$TILEMODELIGHTSYNCH
280
     1
  9
$CMATERIAL
347
11
  9
$SOLIDHIST
280
     0
  9
$SHOWHIST
280
     1
  9
$DWFFRAME
280
     2
  9
$DGNFRAME
280
     0
  9
$REALWORLDSCALE
290
     1
  9
$INTERFERECOLOR
 62
     1
  9
$INTERFEREOBJVS
345
33
  9
$INTERFEREVPVS
346
30
  9
$CSHADOW
280
     0
  9
$SHADOWPLANELOCATION
 40
0.0
  0
ENDSEC
  0
SECTION
  2
CLASSES
  0
CLASS
  1
ACDBDICTIONARYWDFLT
  2
AcDbDictionaryWithDefault
  3
ObjectDBX Classes
 90
        0
 91
        1
280
     0
281
     0
  0
CLASS
  1
MATERIAL
  2
AcDbMaterial
  3
ObjectDBX Classes
 90
     1153
 91
        3
280
     0
281
     0
  0
CLASS
  1
VISUALSTYLE
  2
AcDbVisualStyle
  3
ObjectDBX Classes
 90
     4095
 91
       24
280
     0
281
     0
  0
CLASS
  1
SCALE
  2
AcDbScale
  3
ObjectDBX Classes
 90
     1153
 91
       17
280
     0
281
     0
  0
CLASS
  1
TABLESTYLE
  2
AcDbTableStyle
  3
ObjectDBX Classes
 90
     4095
 91
        1
280
     0
281
     0
  0
CLASS
  1
MLEADERSTYLE
  2
AcDbMLeaderStyle
  3
ACDB_MLEADERSTYLE_CLASS
 90
     4095
 91
        1
280
     0
281
     0
  0
CLASS
  1
ACDBSECTIONVIEWSTYLE
  2
AcDbSectionViewStyle
  3
ObjectDBX Classes
 90
     1025
 91
        1
280
     0
281
     0
  0
CLASS
  1
ACDBDETAILVIEWSTYLE
  2
AcDbDetailViewStyle
  3
ObjectDBX Classes
 90
     1025
 91
        1
280
     0
281
     0
  0
CLASS
  1
DICTIONARYVAR
  2
AcDbDictionaryVar
  3
ObjectDBX Classes
 90
        0
 91
        5
280
     0
281
     0
  0
CLASS
  1
CELLSTYLEMAP
  2
AcDbCellStyleMap
  3
ObjectDBX Classes
 90
     1152
 91
        1
280
     0
281
     0
  0
ENDSEC
  0
SECTION
  2
TABLES
  0
TABLE
  2
VPORT
  5
8
330
0
100
AcDbSymbolTable
 70
     2
  0
VPORT
  5
8F
330
8
100
AcDbSymbolTableRecord
100
AcDbViewportTableRecord
  2
*ACTIVE
 70
     0
 10
0.0
 20
0.0
 11
1.0
 21
1.0
 12
163.5338734479051
 22
-1991.040806408273
 13
0.0
 23
0.0
 14
5.0
 24
5.0
 15
100.0
 25
100.0
 16
0.0
 26
0.0
 36
1.0
 17
0.0
 27
0.0
 37
0.0
 40
217.7473985790036
 41
1.649386084583901
 42
50.0
 43
0.0
 44
0.0
 50
0.0
 51
0.0
 71
     0
 72
   100
 73
     1
 74
     0
 75
     0
 76
     1
 77
     0
 78
     0
281
     0
 65
     1
110
0.0
120
0.0
130
0.0
111
1.0
121
0.0
131
0.0
112
0.0
122
1.0
132
0.0
 79
     0
146
0.0
348
2F
 60
     3
 61
     5
292
     1
282
     0
141
0.0
142
0.0
 63
   250
421
  3355443
1001
ACAD_NAV_VCDISPLAY
1070
     3
  0
ENDTAB
  0
TABLE
  2
LTYPE
  5
5
330
0
100
AcDbSymbolTable
 70
    25
  0
LTYPE
  5
5A
330
5
100
AcDbSymbolTableRecord
100
AcDbLinetypeTableRecord
  2
ByBlock
 70
     0
  3

 72
    65
 73
     0
 40
0.0
  0
LTYPE
  5
5B
330
5
100
AcDbSymbolTableRecord
100
AcDbLinetypeTableRecord
  2
ByLayer
 70
     0
  3

 72
    65
 73
     0
 40
0.0
  0
LTYPE
  5
5C
330
5
100
AcDbSymbolTableRecord
100
AcDbLinetypeTableRecord
  2
CONTINUOUS
 70
     0
  3
Ausgezogene Linie
 72
    65
 73
     0
 40
0.0
  0
LTYPE
  5
76
330
5
100
AcDbSymbolTableRecord
100
AcDbLinetypeTableRecord
  2
RAND
 70
     0
  3
__ __ . __ __ . __ __ . __ __ . __ __ . __ __ .
 72
    65
 73
     6
 40
1.75
 49
0.5
 74
     0
 49
-0.25
 74
     0
 49
0.5
 74
     0
 49
-0.25
 74
     0
 49
0.0
 74
     0
 49
-0.25
 74
     0
  0
LTYPE
  5
77
330
5
100
AcDbSymbolTableRecord
100
AcDbLinetypeTableRecord
  2
RAND2
 70
     0
  3
__.__.__.__.__.__.__.__.__.__.__.__.__.__.__.__
 72
    65
 73
     6
 40
0.875
 49
0.25
 74
     0
 49
-0.125
 74
     0
 49
0.25
 74
     0
 49
-0.125
 74
     0
 49
0.0
 74
     0
 49
-0.125
 74
     0
  0
LTYPE
  5
78
330
5
100
AcDbSymbolTableRecord
100
AcDbLinetypeTableRecord
  2
RANDX2
 70
     0
  3
____  ____  .  ____  ____  .  ____  ____  .  __
 72
    65
 73
     6
 40
3.5
 49
1.0
 74
     0
 49
-0.5
 74
     0
 49
1.0
 74
     0
 49
-0.5
 74
     0
 49
0.0
 74
     0
 49
-0.5
 74
     0
  0
LTYPE
  5
79
330
5
100
AcDbSymbolTableRecord
100
AcDbLinetypeTableRecord
  2
MITTE
 70
     0
  3
____ _ ____ _ ____ _ ____ _ ____ _ ____ _ ____ 
 72
    65
 73
     4
 40
2.0
 49
1.25
 74
     0
 49
-0.25
 74
     0
 49
0.25
 74
     0
 49
-0.25
 74
     0
  0
LTYPE
  5
7A
330
5
100
AcDbSymbolTableRecord
100
AcDbLinetypeTableRecord
  2
MITTE2
 70
     0
  3
___ _ ___ _ ___ _ ___ _ ___ _ ___ _ ___ _ ___ _
 72
    65
 73
     4
 40
1.125
 49
0.75
 74
     0
 49
-0.125
 74
     0
 49
0.125
 74
     0
 49
-0.125
 74
     0
  0
LTYPE
  5
7B
330
5
100
AcDbSymbolTableRecord
100
AcDbLinetypeTableRecord
  2
MITTEX2
 70
     0
  3
________  __  ________  __  ________  __  _____
 72
    65
 73
     4
 40
4.0
 49
2.5
 74
     0
 49
-0.5
 74
     0
 49
0.5
 74
     0
 49
-0.5
 74
     0
  0
LTYPE
  5
7C
330
5
100
AcDbSymbolTableRecord
100
AcDbLinetypeTableRecord
  2
STRICHPUNKT
 70
     0
  3
__ . __ . __ . __ . __ . __ . __ . __ . __ . __
 72
    65
 73
     4
 40
1.0
 49
0.5
 74
     0
 49
-0.25
 74
     0
 49
0.0
 74
     0
 49
-0.25
 74
     0
  0
LTYPE
  5
7D
330
5
100
AcDbSymbolTableRecord
100
AcDbLinetypeTableRecord
  2
STRICHPUNKT2
 70
     0
  3
_._._._._._._._._._._._._._._._._._._._._._._._
 72
    65
 73
     4
 40
0.5
 49
0.25
 74
     0
 49
-0.125
 74
     0
 49
0.0
 74
     0
 49
-0.125
 74
     0
  0
LTYPE
  5
7E
330
5
100
AcDbSymbolTableRecord
100
AcDbLinetypeTableRecord
  2
STRICHPUNKTX2
 70
     0
  3
____  .  ____  .  ____  .  ____  .  ____  .  __
 72
    65
 73
     4
 40
2.0
 49
1.0
 74
     0
 49
-0.5
 74
     0
 49
0.0
 74
     0
 49
-0.5
 74
     0
  0
LTYPE
  5
7F
330
5
100
AcDbSymbolTableRecord
100
AcDbLinetypeTableRecord
  2
GESTRICHELT
 70
     0
  3
__ __ __ __ __ __ __ __ __ __ __ __ __ __ __ __
 72
    65
 73
     2
 40
0.75
 49
0.5
 74
     0
 49
-0.25
 74
     0
  0
LTYPE
  5
80
330
5
100
AcDbSymbolTableRecord
100
AcDbLinetypeTableRecord
  2
GESTRICHELT2
 70
     0
  3
_ _ _ _ _ _ _ _ _ _ _ _ _ _ _ _ _ _ _ _ _ _ _ _
 72
    65
 73
     2
 40
0.375
 49
0.25
 74
     0
 49
-0.125
 74
     0
  0
LTYPE
  5
81
330
5
100
AcDbSymbolTableRecord
100
AcDbLinetypeTableRecord
  2
GESTRICHELTX2
 70
     0
  3
____  ____  ____  ____  ____  ____  ____  ____ 
 72
    65
 73
     2
 40
1.5
 49
1.0
 74
     0
 49
-0.5
 74
     0
  0
LTYPE
  5
82
330
5
100
AcDbSymbolTableRecord
100
AcDbLinetypeTableRecord
  2
GETRENNT
 70
     0
  3
____ . . ____ . . ____ . . ____ . . ____ . . __
 72
    65
 73
     6
 40
1.25
 49
0.5
 74
     0
 49
-0.25
 74
     0
 49
0.0
 74
     0
 49
-0.25
 74
     0
 49
0.0
 74
     0
 49
-0.25
 74
     0
  0
LTYPE
  5
83
330
5
100
AcDbSymbolTableRecord
100
AcDbLinetypeTableRecord
  2
GETRENNT2
 70
     0
  3
__..__..__..__..__..__..__..__..__..__..__..__.
 72
    65
 73
     6
 40
0.625
 49
0.25
 74
     0
 49
-0.125
 74
     0
 49
0.0
 74
     0
 49
-0.125
 74
     0
 49
0.0
 74
     0
 49
-0.125
 74
     0
  0
LTYPE
  5
84
330
5
100
AcDbSymbolTableRecord
100
AcDbLinetypeTableRecord
  2
GETRENNTX2
 70
     0
  3
________  .  .  ________  .  .  ________  .  . 
 72
    65
 73
     6
 40
2.5
 49
1.0
 74
     0
 49
-0.5
 74
     0
 49
0.0
 74
     0
 49
-0.5
 74
     0
 49
0.0
 74
     0
 49
-0.5
 74
     0
  0
LTYPE
  5
85
330
5
100
AcDbSymbolTableRecord
100
AcDbLinetypeTableRecord
  2
PUNKT
 70
     0
  3
. . . . . . . . . . . . . . . . . . . . . . . .
 72
    65
 73
     2
 40
0.25
 49
0.0
 74
     0
 49
-0.25
 74
     0
  0
LTYPE
  5
86
330
5
100
AcDbSymbolTableRecord
100
AcDbLinetypeTableRecord
  2
PUNKT2
 70
     0
  3
...............................................
 72
    65
 73
     2
 40
0.125
 49
0.0
 74
     0
 49
-0.125
 74
     0
  0
LTYPE
  5
87
330
5
100
AcDbSymbolTableRecord
100
AcDbLinetypeTableRecord
  2
PUNKTX2
 70
     0
  3
.  .  .  .  .  .  .  .  .  .  .  .  .  .  .  . 
 72
    65
 73
     2
 40
0.5
 49
0.0
 74
     0
 49
-0.5
 74
     0
  0
LTYPE
  5
88
330
5
100
AcDbSymbolTableRecord
100
AcDbLinetypeTableRecord
  2
VERDECKT
 70
     0
  3
__ __ __ __ __ __ __ __ __ __ __ __ __ __ __ __
 72
    65
 73
     2
 40
0.375
 49
0.25
 74
     0
 49
-0.125
 74
     0
  0
LTYPE
  5
89
330
5
100
AcDbSymbolTableRecord
100
AcDbLinetypeTableRecord
  2
VERDECKT2
 70
     0
  3
_ _ _ _ _ _ _ _ _ _ _ _ _ _ _ _ _ _ _ _ _ _ _ _
 72
    65
 73
     2
 40
0.1875
 49
0.125
 74
     0
 49
-0.0625
 74
     0
  0
LTYPE
  5
8A
330
5
100
AcDbSymbolTableRecord
100
AcDbLinetypeTableRecord
  2
VERDECKTX2
 70
     0
  3
____ ____ ____ ____ ____ ____ ____ ____ ____ __
 72
    65
 73
     2
 40
0.75
 49
0.5
 74
     0
 49
-0.25
 74
     0
  0
LTYPE
  5
8B
330
5
100
AcDbSymbolTableRecord
100
AcDbLinetypeTableRecord
  2
PHANTOM
 70
     0
  3
______  __  __  ______  __  __  ______  __  __ 
 72
    65
 73
     6
 40
2.5
 49
1.25
 74
     0
 49
-0.25
 74
     0
 49
0.25
 74
     0
 49
-0.25
 74
     0
 49
0.25
 74
     0
 49
-0.25
 74
     0
  0
LTYPE
  5
8C
330
5
100
AcDbSymbolTableRecord
100
AcDbLinetypeTableRecord
  2
PHANTOM2
 70
     0
  3
___ _ _ ___ _ _ ___ _ _ ___ _ _ ___ _ _ ___ _ _
 72
    65
 73
     6
 40
1.25
 49
0.625
 74
     0
 49
-0.125
 74
     0
 49
0.125
 74
     0
 49
-0.125
 74
     0
 49
0.125
 74
     0
 49
-0.125
 74
     0
  0
LTYPE
  5
8D
330
5
100
AcDbSymbolTableRecord
100
AcDbLinetypeTableRecord
  2
PHANTOMX2
 70
     0
  3
____________    ____    ____    ____________   
 72
    65
 73
     6
 40
5.0
 49
2.5
 74
     0
 49
-0.5
 74
     0
 49
0.5
 74
     0
 49
-0.5
 74
     0
 49
0.5
 74
     0
 49
-0.5
 74
     0
  0
ENDTAB
  0
TABLE
  2
LAYER
  5
2
102
{ACAD_XDICTIONARY
360
50D
102
}
330
0
100
AcDbSymbolTable
 70
    10
  0
LAYER
  5
54
330
2
100
AcDbSymbolTableRecord
100
AcDbLayerTableRecord
  2
0
 70
     0
 62
     7
  6
CONTINUOUS
370
    -3
390
F
347
21
348
0
  0
LAYER
  5
90
330
2
100
AcDbSymbolTableRecord
100
AcDbLayerTableRecord
  2
GRABUNGSGRENZE
 70
     0
 62
     3
  6
STRICHPUNKTX2
370
    -3
390
F
347
21
348
0
  0
LAYER
  5
91
330
2
100
AcDbSymbolTableRecord
100
AcDbLayerTableRecord
  2
BEFUND
 70
     0
 62
     1
  6
CONTINUOUS
370
    -3
390
F
347
21
348
0
  0
LAYER
  5
92
330
2
100
AcDbSymbolTableRecord
100
AcDbLayerTableRecord
  2
STEINE
 70
     0
 62
     4
  6
CONTINUOUS
370
    -3
390
F
347
21
348
0
  0
LAYER
  5
93
330
2
100
AcDbSymbolTableRecord
100
AcDbLayerTableRecord
  2
KNOCHEN
 70
     0
 62
     2
  6
CONTINUOUS
370
    -3
390
F
347
21
348
0
  0
LAYER
  5
94
330
2
100
AcDbSymbolTableRecord
100
AcDbLayerTableRecord
  2
BEFUND_UNSICHER
 70
     0
 62
     1
  6
GESTRICHELT
370
    -3
390
F
347
21
348
0
  0
LAYER
  5
95
330
2
100
AcDbSymbolTableRecord
100
AcDbLayerTableRecord
  2
FEUER
 70
     0
 62
     1
  6
CONTINUOUS
370
    -3
390
F
347
21
348
0
  0
LAYER
  5
96
330
2
100
AcDbSymbolTableRecord
100
AcDbLayerTableRecord
  2
KNOCHENSCHRAFF
 70
     0
 62
     2
  6
CONTINUOUS
370
    -3
390
F
347
21
348
0
  0
LAYER
  5
97
330
2
100
AcDbSymbolTableRecord
100
AcDbLayerTableRecord
  2
TPROFIL
 70
     0
 62
     3
  6
CONTINUOUS
370
    -3
390
F
347
21
348
0
  0
LAYER
  5
98
330
2
100
AcDbSymbolTableRecord
100
AcDbLayerTableRecord
  2
STEINESCHRAFF
 70
     0
 62
     4
  6
CONTINUOUS
370
    -3
390
F
347
21
348
0
  0
ENDTAB
  0
TABLE
  2
STYLE
  5
3
330
0
100
AcDbSymbolTable
 70
     2
  0
STYLE
  5
55
330
3
100
AcDbSymbolTableRecord
100
AcDbTextStyleTableRecord
  2
STANDARD
 70
     0
 40
0.0
 41
1.0
 50
0.0
 71
     0
 42
3.5
  3
txt.shx
  4

  0
STYLE
  5
59
330
3
100
AcDbSymbolTableRecord
100
AcDbTextStyleTableRecord
  2
Annotative
 70
     0
 40
0.0
 41
1.0
 50
0.0
 71
     0
 42
3.5
  3
txt
  4

1001
AcadAnnotative
1000
AnnotativeData
1002
{
1070
     1
1070
     1
1002
}
  0
ENDTAB
  0
TABLE
  2
VIEW
  5
6
330
0
100
AcDbSymbolTable
 70
     1
  0
ENDTAB
  0
TABLE
  2
UCS
  5
7
330
0
100
AcDbSymbolTable
 70
     0
  0
ENDTAB
  0
TABLE
  2
APPID
  5
9
330
0
100
AcDbSymbolTable
 70
     3
  0
APPID
  5
56
330
9
100
AcDbSymbolTableRecord
100
AcDbRegAppTableRecord
  2
ACAD
 70
     0
  0
APPID
  5
5D
330
9
100
AcDbSymbolTableRecord
100
AcDbRegAppTableRecord
  2
AcadAnnotative
 70
     0
  0
APPID
  5
519
330
9
100
AcDbSymbolTableRecord
100
AcDbRegAppTableRecord
  2
ACAD_NAV_VCDISPLAY
 70
     0
  0
ENDTAB
  0
TABLE
  2
DIMSTYLE
  5
A
330
0
100
AcDbSymbolTable
 70
     2
100
AcDbDimStyleTable
 71
     0
  0
DIMSTYLE
105
57
330
A
100
AcDbSymbolTableRecord
100
AcDbDimStyleTableRecord
  2
Standard
 70
     0
340
55
  0
DIMSTYLE
105
58
330
A
100
AcDbSymbolTableRecord
100
AcDbDimStyleTableRecord
  2
Annotative
 70
     0
340
55
1001
AcadAnnotative
1000
AnnotativeData
1002
{
1070
     1
1070
     1
1002
}
  0
ENDTAB
  0
TABLE
  2
BLOCK_RECORD
  5
1
330
0
100
AcDbSymbolTable
 70
     3
  0
BLOCK_RECORD
  5
6F
330
1
100
AcDbSymbolTableRecord
100
AcDbBlockTableRecord
  2
*Model_Space
340
72
 70
     0
280
     1
281
     0
  0
BLOCK_RECORD
  5
6B
330
1
100
AcDbSymbolTableRecord
100
AcDbBlockTableRecord
  2
*Paper_Space
340
6E
 70
     0
280
     1
281
     0
  0
BLOCK_RECORD
  5
73
330
1
100
AcDbSymbolTableRecord
100
AcDbBlockTableRecord
  2
TPFEIL
340
0
 70
     0
280
     1
281
     0
  0
BLOCK_RECORD
  5
75
330
1
100
AcDbSymbolTableRecord
100
AcDbBlockTableRecord
  2
*X2
340
0
102
{BLKREFS
331
506
102
}
 70
     0
280
     1
281
     0
  0
ENDTAB
  0
ENDSEC
  0
SECTION
  2
BLOCKS
  0
BLOCK
  5
9B
330
6F
100
AcDbEntity
  8
0
100
AcDbBlockBegin
  2
*Model_Space
 70
     0
 10
0.0
 20
0.0
 30
0.0
  3
*Model_Space
  1

  0
ENDBLK
  5
9C
330
6F
100
AcDbEntity
  8
0
100
AcDbBlockEnd
  0
BLOCK
  5
99
330
6B
100
AcDbEntity
 67
     1
  8
0
100
AcDbBlockBegin
  2
*Paper_Space
 70
     0
 10
0.0
 20
0.0
 30
0.0
  3
*Paper_Space
  1

  0
ENDBLK
  5
9A
330
6B
100
AcDbEntity
 67
     1
  8
0
100
AcDbBlockEnd
  0
BLOCK
  5
9D
330
73
100
AcDbEntity
  8
0
100
AcDbBlockBegin
  2
TPFEIL
 70
     0
 10
0.0
 20
0.0
 30
0.0
  3
TPFEIL
  1

  0
LWPOLYLINE
  5
9E
330
73
100
AcDbEntity
  8
GRABUNGSGRENZE
100
AcDbPolyline
 90
        2
 70
     0
 10
0.0
 20
-10.0
 40
5.0
 41
0.0
 10
0.0
 20
0.0
 40
0.0
 41
0.0
  0
ENDBLK
  5
A2
330
73
100
AcDbEntity
  8
0
100
AcDbBlockEnd
  0
BLOCK
  5
A3
330
75
100
AcDbEntity
  8
0
100
AcDbBlockBegin
  2
*X2
 70
     1
 10
0.0
 20
0.0
 30
0.0
  3
*X2
  1

  0
LINE
  5
A4
330
75
100
AcDbEntity
  8
0
 62
     0
100
AcDbLine
 10
-7.499999999999989
 20
-1950.0
 30
0.0
 11
-7.499999999999989
 21
-1950.0
 31
0.0
  0
LINE
  5
A5
330
75
100
AcDbEntity
  8
0
 62
     0
100
AcDbLine
 10
-6.249999999999989
 20
-1950.0
 30
0.0
 11
-6.249999999999989
 21
-1950.0
 31
0.0
  0
LINE
  5
A6
330
75
100
AcDbEntity
  8
0
 62
     0
100
AcDbLine
 10
-4.999999999999989
 20
-1950.0
 30
0.0
 11
-4.999999999999989
 21
-1950.0
 31
0.0
  0
LINE
  5
A7
330
75
100
AcDbEntity
  8
0
 62
     0
100
AcDbLine
 10
-3.749999999999989
 20
-1950.0
 30
0.0
 11
-3.749999999999989
 21
-1950.0
 31
0.0
  0
LINE
  5
A8
330
75
100
AcDbEntity
  8
0
 62
     0
100
AcDbLine
 10
-2.499999999999989
 20
-1950.0
 30
0.0
 11
-2.499999999999989
 21
-1950.0
 31
0.0
  0
LINE
  5
A9
330
75
100
AcDbEntity
  8
0
 62
     0
100
AcDbLine
 10
-1.249999999999989
 20
-1950.0
 30
0.0
 11
-1.249999999999989
 21
-1950.0
 31
0.0
  0
LINE
  5
AA
330
75
100
AcDbEntity
  8
0
 62
     0
100
AcDbLine
 10
0.0000000000000107
 20
-1950.0
 30
0.0
 11
0.0000000000000107
 21
-1950.0
 31
0.0
  0
LINE
  5
AB
330
75
100
AcDbEntity
  8
0
 62
     0
100
AcDbLine
 10
1.25000000000001
 20
-1950.0
 30
0.0
 11
1.25000000000001
 21
-1950.0
 31
0.0
  0
LINE
  5
AC
330
75
100
AcDbEntity
  8
0
 62
     0
100
AcDbLine
 10
2.50000000000001
 20
-1950.0
 30
0.0
 11
2.50000000000001
 21
-1950.0
 31
0.0
  0
LINE
  5
AD
330
75
100
AcDbEntity
  8
0
 62
     0
100
AcDbLine
 10
3.75000000000001
 20
-1950.0
 30
0.0
 11
3.75000000000001
 21
-1950.0
 31
0.0
  0
LINE
  5
AE
330
75
100
AcDbEntity
  8
0
 62
     0
100
AcDbLine
 10
5.00000000000001
 20
-1950.0
 30
0.0
 11
5.00000000000001
 21
-1950.0
 31
0.0
  0
LINE
  5
AF
330
75
100
AcDbEntity
  8
0
 62
     0
100
AcDbLine
 10
6.25000000000001
 20
-1950.0
 30
0.0
 11
6.25000000000001
 21
-1950.0
 31
0.0
  0
LINE
  5
B0
330
75
100
AcDbEntity
  8
0
 62
     0
100
AcDbLine
 10
7.499999999999984
 20
-1950.0
 30
0.0
 11
7.499999999999984
 21
-1950.0
 31
0.0
  0
LINE
  5
B1
330
75
100
AcDbEntity
  8
0
 62
     0
100
AcDbLine
 10
8.749999999999984
 20
-1950.0
 30
0.0
 11
8.749999999999984
 21
-1950.0
 31
0.0
  0
LINE
  5
B2
330
75
100
AcDbEntity
  8
0
 62
     0
100
AcDbLine
 10
9.999999999999984
 20
-1950.0
 30
0.0
 11
9.999999999999984
 21
-1950.0
 31
0.0
  0
LINE
  5
B3
330
75
100
AcDbEntity
  8
0
 62
     0
100
AcDbLine
 10
11.24999999999998
 20
-1950.0
 30
0.0
 11
11.24999999999998
 21
-1950.0
 31
0.0
  0
LINE
  5
B4
330
75
100
AcDbEntity
  8
0
 62
     0
100
AcDbLine
 10
12.49999999999998
 20
-1950.0
 30
0.0
 11
12.49999999999998
 21
-1950.0
 31
0.0
  0
LINE
  5
B5
330
75
100
AcDbEntity
  8
0
 62
     0
100
AcDbLine
 10
13.74999999999998
 20
-1950.0
 30
0.0
 11
13.74999999999998
 21
-1950.0
 31
0.0
  0
LINE
  5
B6
330
75
100
AcDbEntity
  8
0
 62
     0
100
AcDbLine
 10
14.99999999999998
 20
-1950.0
 30
0.0
 11
14.99999999999998
 21
-1950.0
 31
0.0
  0
LINE
  5
B7
330
75
100
AcDbEntity
  8
0
 62
     0
100
AcDbLine
 10
16.24999999999998
 20
-1950.0
 30
0.0
 11
16.24999999999998
 21
-1950.0
 31
0.0
  0
LINE
  5
B8
330
75
100
AcDbEntity
  8
0
 62
     0
100
AcDbLine
 10
17.49999999999998
 20
-1950.0
 30
0.0
 11
17.49999999999998
 21
-1950.0
 31
0.0
  0
LINE
  5
B9
330
75
100
AcDbEntity
  8
0
 62
     0
100
AcDbLine
 10
18.74999999999998
 20
-1950.0
 30
0.0
 11
18.74999999999998
 21
-1950.0
 31
0.0
  0
LINE
  5
BA
330
75
100
AcDbEntity
  8
0
 62
     0
100
AcDbLine
 10
19.99999999999998
 20
-1950.0
 30
0.0
 11
19.99999999999998
 21
-1950.0
 31
0.0
  0
LINE
  5
BB
330
75
100
AcDbEntity
  8
0
 62
     0
100
AcDbLine
 10
21.24999999999999
 20
-1950.0
 30
0.0
 11
21.24999999999999
 21
-1950.0
 31
0.0
  0
LINE
  5
BC
330
75
100
AcDbEntity
  8
0
 62
     0
100
AcDbLine
 10
22.49999999999999
 20
-1950.0
 30
0.0
 11
22.49999999999999
 21
-1950.0
 31
0.0
  0
LINE
  5
BD
330
75
100
AcDbEntity
  8
0
 62
     0
100
AcDbLine
 10
23.74999999999999
 20
-1950.0
 30
0.0
 11
23.74999999999999
 21
-1950.0
 31
0.0
  0
LINE
  5
BE
330
75
100
AcDbEntity
  8
0
 62
     0
100
AcDbLine
 10
24.99999999999999
 20
-1950.0
 30
0.0
 11
24.99999999999999
 21
-1950.0
 31
0.0
  0
LINE
  5
BF
330
75
100
AcDbEntity
  8
0
 62
     0
100
AcDbLine
 10
26.24999999999999
 20
-1950.0
 30
0.0
 11
26.24999999999999
 21
-1950.0
 31
0.0
  0
LINE
  5
C0
330
75
100
AcDbEntity
  8
0
 62
     0
100
AcDbLine
 10
27.49999999999999
 20
-1950.0
 30
0.0
 11
27.49999999999999
 21
-1950.0
 31
0.0
  0
LINE
  5
C1
330
75
100
AcDbEntity
  8
0
 62
     0
100
AcDbLine
 10
28.74999999999999
 20
-1950.0
 30
0.0
 11
28.74999999999999
 21
-1950.0
 31
0.0
  0
LINE
  5
C2
330
75
100
AcDbEntity
  8
0
 62
     0
100
AcDbLine
 10
29.99999999999999
 20
-1950.0
 30
0.0
 11
29.99999999999999
 21
-1950.0
 31
0.0
  0
LINE
  5
C3
330
75
100
AcDbEntity
  8
0
 62
     0
100
AcDbLine
 10
31.24999999999999
 20
-1950.0
 30
0.0
 11
31.24999999999999
 21
-1950.0
 31
0.0
  0
LINE
  5
C4
330
75
100
AcDbEntity
  8
0
 62
     0
100
AcDbLine
 10
32.49999999999999
 20
-1950.0
 30
0.0
 11
32.49999999999999
 21
-1950.0
 31
0.0
  0
LINE
  5
C5
330
75
100
AcDbEntity
  8
0
 62
     0
100
AcDbLine
 10
33.74999999999999
 20
-1950.0
 30
0.0
 11
33.74999999999999
 21
-1950.0
 31
0.0
  0
LINE
  5
C6
330
75
100
AcDbEntity
  8
0
 62
     0
100
AcDbLine
 10
34.99999999999999
 20
-1950.0
 30
0.0
 11
34.99999999999999
 21
-1950.0
 31
0.0
  0
LINE
  5
C7
330
75
100
AcDbEntity
  8
0
 62
     0
100
AcDbLine
 10
36.24999999999999
 20
-1950.0
 30
0.0
 11
36.24999999999999
 21
-1950.0
 31
0.0
  0
LINE
  5
C8
330
75
100
AcDbEntity
  8
0
 62
     0
100
AcDbLine
 10
-6.875000000000045
 20
-1948.75
 30
0.0
 11
-6.875000000000045
 21
-1948.75
 31
0.0
  0
LINE
  5
C9
330
75
100
AcDbEntity
  8
0
 62
     0
100
AcDbLine
 10
-5.625000000000045
 20
-1948.75
 30
0.0
 11
-5.625000000000045
 21
-1948.75
 31
0.0
  0
LINE
  5
CA
330
75
100
AcDbEntity
  8
0
 62
     0
100
AcDbLine
 10
-4.375000000000045
 20
-1948.75
 30
0.0
 11
-4.375000000000045
 21
-1948.75
 31
0.0
  0
LINE
  5
CB
330
75
100
AcDbEntity
  8
0
 62
     0
100
AcDbLine
 10
-3.125000000000045
 20
-1948.75
 30
0.0
 11
-3.125000000000045
 21
-1948.75
 31
0.0
  0
LINE
  5
CC
330
75
100
AcDbEntity
  8
0
 62
     0
100
AcDbLine
 10
-1.875000000000045
 20
-1948.75
 30
0.0
 11
-1.875000000000045
 21
-1948.75
 31
0.0
  0
LINE
  5
CD
330
75
100
AcDbEntity
  8
0
 62
     0
100
AcDbLine
 10
-0.6250000000000453
 20
-1948.75
 30
0.0
 11
-0.6250000000000453
 21
-1948.75
 31
0.0
  0
LINE
  5
CE
330
75
100
AcDbEntity
  8
0
 62
     0
100
AcDbLine
 10
0.6249999999999547
 20
-1948.75
 30
0.0
 11
0.6249999999999547
 21
-1948.75
 31
0.0
  0
LINE
  5
CF
330
75
100
AcDbEntity
  8
0
 62
     0
100
AcDbLine
 10
1.874999999999954
 20
-1948.75
 30
0.0
 11
1.874999999999954
 21
-1948.75
 31
0.0
  0
LINE
  5
D0
330
75
100
AcDbEntity
  8
0
 62
     0
100
AcDbLine
 10
3.124999999999954
 20
-1948.75
 30
0.0
 11
3.124999999999954
 21
-1948.75
 31
0.0
  0
LINE
  5
D1
330
75
100
AcDbEntity
  8
0
 62
     0
100
AcDbLine
 10
4.374999999999954
 20
-1948.75
 30
0.0
 11
4.374999999999954
 21
-1948.75
 31
0.0
  0
LINE
  5
D2
330
75
100
AcDbEntity
  8
0
 62
     0
100
AcDbLine
 10
5.624999999999954
 20
-1948.75
 30
0.0
 11
5.624999999999954
 21
-1948.75
 31
0.0
  0
LINE
  5
D3
330
75
100
AcDbEntity
  8
0
 62
     0
100
AcDbLine
 10
6.874999999999954
 20
-1948.75
 30
0.0
 11
6.874999999999954
 21
-1948.75
 31
0.0
  0
LINE
  5
D4
330
75
100
AcDbEntity
  8
0
 62
     0
100
AcDbLine
 10
8.124999999999953
 20
-1948.75
 30
0.0
 11
8.124999999999953
 21
-1948.75
 31
0.0
  0
LINE
  5
D5
330
75
100
AcDbEntity
  8
0
 62
     0
100
AcDbLine
 10
9.374999999999953
 20
-1948.75
 30
0.0
 11
9.374999999999953
 21
-1948.75
 31
0.0
  0
LINE
  5
D6
330
75
100
AcDbEntity
  8
0
 62
     0
100
AcDbLine
 10
10.62499999999995
 20
-1948.75
 30
0.0
 11
10.62499999999995
 21
-1948.75
 31
0.0
  0
LINE
  5
D7
330
75
100
AcDbEntity
  8
0
 62
     0
100
AcDbLine
 10
11.87499999999995
 20
-1948.75
 30
0.0
 11
11.87499999999995
 21
-1948.75
 31
0.0
  0
LINE
  5
D8
330
75
100
AcDbEntity
  8
0
 62
     0
100
AcDbLine
 10
13.12499999999995
 20
-1948.75
 30
0.0
 11
13.12499999999995
 21
-1948.75
 31
0.0
  0
LINE
  5
D9
330
75
100
AcDbEntity
  8
0
 62
     0
100
AcDbLine
 10
14.37499999999995
 20
-1948.75
 30
0.0
 11
14.37499999999995
 21
-1948.75
 31
0.0
  0
LINE
  5
DA
330
75
100
AcDbEntity
  8
0
 62
     0
100
AcDbLine
 10
15.62499999999995
 20
-1948.75
 30
0.0
 11
15.62499999999995
 21
-1948.75
 31
0.0
  0
LINE
  5
DB
330
75
100
AcDbEntity
  8
0
 62
     0
100
AcDbLine
 10
16.87499999999995
 20
-1948.75
 30
0.0
 11
16.87499999999995
 21
-1948.75
 31
0.0
  0
LINE
  5
DC
330
75
100
AcDbEntity
  8
0
 62
     0
100
AcDbLine
 10
18.12499999999995
 20
-1948.75
 30
0.0
 11
18.12499999999995
 21
-1948.75
 31
0.0
  0
LINE
  5
DD
330
75
100
AcDbEntity
  8
0
 62
     0
100
AcDbLine
 10
19.37499999999995
 20
-1948.75
 30
0.0
 11
19.37499999999995
 21
-1948.75
 31
0.0
  0
LINE
  5
DE
330
75
100
AcDbEntity
  8
0
 62
     0
100
AcDbLine
 10
20.62499999999996
 20
-1948.75
 30
0.0
 11
20.62499999999996
 21
-1948.75
 31
0.0
  0
LINE
  5
DF
330
75
100
AcDbEntity
  8
0
 62
     0
100
AcDbLine
 10
21.87499999999996
 20
-1948.75
 30
0.0
 11
21.87499999999996
 21
-1948.75
 31
0.0
  0
LINE
  5
E0
330
75
100
AcDbEntity
  8
0
 62
     0
100
AcDbLine
 10
23.12499999999996
 20
-1948.75
 30
0.0
 11
23.12499999999996
 21
-1948.75
 31
0.0
  0
LINE
  5
E1
330
75
100
AcDbEntity
  8
0
 62
     0
100
AcDbLine
 10
24.37499999999996
 20
-1948.75
 30
0.0
 11
24.37499999999996
 21
-1948.75
 31
0.0
  0
LINE
  5
E2
330
75
100
AcDbEntity
  8
0
 62
     0
100
AcDbLine
 10
25.62499999999996
 20
-1948.75
 30
0.0
 11
25.62499999999996
 21
-1948.75
 31
0.0
  0
LINE
  5
E3
330
75
100
AcDbEntity
  8
0
 62
     0
100
AcDbLine
 10
26.87499999999996
 20
-1948.75
 30
0.0
 11
26.87499999999996
 21
-1948.75
 31
0.0
  0
LINE
  5
E4
330
75
100
AcDbEntity
  8
0
 62
     0
100
AcDbLine
 10
28.12499999999996
 20
-1948.75
 30
0.0
 11
28.12499999999996
 21
-1948.75
 31
0.0
  0
LINE
  5
E5
330
75
100
AcDbEntity
  8
0
 62
     0
100
AcDbLine
 10
29.37499999999996
 20
-1948.75
 30
0.0
 11
29.37499999999996
 21
-1948.75
 31
0.0
  0
LINE
  5
E6
330
75
100
AcDbEntity
  8
0
 62
     0
100
AcDbLine
 10
30.62499999999996
 20
-1948.75
 30
0.0
 11
30.62499999999996
 21
-1948.75
 31
0.0
  0
LINE
  5
E7
330
75
100
AcDbEntity
  8
0
 62
     0
100
AcDbLine
 10
31.87499999999996
 20
-1948.75
 30
0.0
 11
31.87499999999996
 21
-1948.75
 31
0.0
  0
LINE
  5
E8
330
75
100
AcDbEntity
  8
0
 62
     0
100
AcDbLine
 10
33.12499999999996
 20
-1948.75
 30
0.0
 11
33.12499999999996
 21
-1948.75
 31
0.0
  0
LINE
  5
E9
330
75
100
AcDbEntity
  8
0
 62
     0
100
AcDbLine
 10
34.37499999999996
 20
-1948.75
 30
0.0
 11
34.37499999999996
 21
-1948.75
 31
0.0
  0
LINE
  5
EA
330
75
100
AcDbEntity
  8
0
 62
     0
100
AcDbLine
 10
35.62499999999996
 20
-1948.75
 30
0.0
 11
35.62499999999996
 21
-1948.75
 31
0.0
  0
LINE
  5
EB
330
75
100
AcDbEntity
  8
0
 62
     0
100
AcDbLine
 10
36.87499999999996
 20
-1948.75
 30
0.0
 11
36.87499999999996
 21
-1948.75
 31
0.0
  0
LINE
  5
EC
330
75
100
AcDbEntity
  8
0
 62
     0
100
AcDbLine
 10
-6.25
 20
-1947.5
 30
0.0
 11
-6.25
 21
-1947.5
 31
0.0
  0
LINE
  5
ED
330
75
100
AcDbEntity
  8
0
 62
     0
100
AcDbLine
 10
-5.0
 20
-1947.5
 30
0.0
 11
-5.0
 21
-1947.5
 31
0.0
  0
LINE
  5
EE
330
75
100
AcDbEntity
  8
0
 62
     0
100
AcDbLine
 10
-3.75
 20
-1947.5
 30
0.0
 11
-3.75
 21
-1947.5
 31
0.0
  0
LINE
  5
EF
330
75
100
AcDbEntity
  8
0
 62
     0
100
AcDbLine
 10
-2.5
 20
-1947.5
 30
0.0
 11
-2.5
 21
-1947.5
 31
0.0
  0
LINE
  5
F0
330
75
100
AcDbEntity
  8
0
 62
     0
100
AcDbLine
 10
-1.25
 20
-1947.5
 30
0.0
 11
-1.25
 21
-1947.5
 31
0.0
  0
LINE
  5
F1
330
75
100
AcDbEntity
  8
0
 62
     0
100
AcDbLine
 10
-0.0000000000000009
 20
-1947.5
 30
0.0
 11
-0.0000000000000009
 21
-1947.5
 31
0.0
  0
LINE
  5
F2
330
75
100
AcDbEntity
  8
0
 62
     0
100
AcDbLine
 10
1.249999999999999
 20
-1947.5
 30
0.0
 11
1.249999999999999
 21
-1947.5
 31
0.0
  0
LINE
  5
F3
330
75
100
AcDbEntity
  8
0
 62
     0
100
AcDbLine
 10
2.499999999999999
 20
-1947.5
 30
0.0
 11
2.499999999999999
 21
-1947.5
 31
0.0
  0
LINE
  5
F4
330
75
100
AcDbEntity
  8
0
 62
     0
100
AcDbLine
 10
3.749999999999999
 20
-1947.5
 30
0.0
 11
3.749999999999999
 21
-1947.5
 31
0.0
  0
LINE
  5
F5
330
75
100
AcDbEntity
  8
0
 62
     0
100
AcDbLine
 10
4.999999999999999
 20
-1947.5
 30
0.0
 11
4.999999999999999
 21
-1947.5
 31
0.0
  0
LINE
  5
F6
330
75
100
AcDbEntity
  8
0
 62
     0
100
AcDbLine
 10
6.249999999999999
 20
-1947.5
 30
0.0
 11
6.249999999999999
 21
-1947.5
 31
0.0
  0
LINE
  5
F7
330
75
100
AcDbEntity
  8
0
 62
     0
100
AcDbLine
 10
7.500000000000039
 20
-1947.5
 30
0.0
 11
7.500000000000039
 21
-1947.5
 31
0.0
  0
LINE
  5
F8
330
75
100
AcDbEntity
  8
0
 62
     0
100
AcDbLine
 10
8.750000000000039
 20
-1947.5
 30
0.0
 11
8.750000000000039
 21
-1947.5
 31
0.0
  0
LINE
  5
F9
330
75
100
AcDbEntity
  8
0
 62
     0
100
AcDbLine
 10
10.00000000000004
 20
-1947.5
 30
0.0
 11
10.00000000000004
 21
-1947.5
 31
0.0
  0
LINE
  5
FA
330
75
100
AcDbEntity
  8
0
 62
     0
100
AcDbLine
 10
11.25000000000004
 20
-1947.5
 30
0.0
 11
11.25000000000004
 21
-1947.5
 31
0.0
  0
LINE
  5
FB
330
75
100
AcDbEntity
  8
0
 62
     0
100
AcDbLine
 10
12.50000000000004
 20
-1947.5
 30
0.0
 11
12.50000000000004
 21
-1947.5
 31
0.0
  0
LINE
  5
FC
330
75
100
AcDbEntity
  8
0
 62
     0
100
AcDbLine
 10
13.75000000000004
 20
-1947.5
 30
0.0
 11
13.75000000000004
 21
-1947.5
 31
0.0
  0
LINE
  5
FD
330
75
100
AcDbEntity
  8
0
 62
     0
100
AcDbLine
 10
15.00000000000004
 20
-1947.5
 30
0.0
 11
15.00000000000004
 21
-1947.5
 31
0.0
  0
LINE
  5
FE
330
75
100
AcDbEntity
  8
0
 62
     0
100
AcDbLine
 10
16.25000000000004
 20
-1947.5
 30
0.0
 11
16.25000000000004
 21
-1947.5
 31
0.0
  0
LINE
  5
FF
330
75
100
AcDbEntity
  8
0
 62
     0
100
AcDbLine
 10
17.50000000000004
 20
-1947.5
 30
0.0
 11
17.50000000000004
 21
-1947.5
 31
0.0
  0
LINE
  5
100
330
75
100
AcDbEntity
  8
0
 62
     0
100
AcDbLine
 10
18.75000000000004
 20
-1947.5
 30
0.0
 11
18.75000000000004
 21
-1947.5
 31
0.0
  0
LINE
  5
101
330
75
100
AcDbEntity
  8
0
 62
     0
100
AcDbLine
 10
20.00000000000004
 20
-1947.5
 30
0.0
 11
20.00000000000004
 21
-1947.5
 31
0.0
  0
LINE
  5
102
330
75
100
AcDbEntity
  8
0
 62
     0
100
AcDbLine
 10
21.25000000000004
 20
-1947.5
 30
0.0
 11
21.25000000000004
 21
-1947.5
 31
0.0
  0
LINE
  5
103
330
75
100
AcDbEntity
  8
0
 62
     0
100
AcDbLine
 10
22.50000000000004
 20
-1947.5
 30
0.0
 11
22.50000000000004
 21
-1947.5
 31
0.0
  0
LINE
  5
104
330
75
100
AcDbEntity
  8
0
 62
     0
100
AcDbLine
 10
23.75000000000004
 20
-1947.5
 30
0.0
 11
23.75000000000004
 21
-1947.5
 31
0.0
  0
LINE
  5
105
330
75
100
AcDbEntity
  8
0
 62
     0
100
AcDbLine
 10
25.00000000000004
 20
-1947.5
 30
0.0
 11
25.00000000000004
 21
-1947.5
 31
0.0
  0
LINE
  5
106
330
75
100
AcDbEntity
  8
0
 62
     0
100
AcDbLine
 10
26.25000000000004
 20
-1947.5
 30
0.0
 11
26.25000000000004
 21
-1947.5
 31
0.0
  0
LINE
  5
107
330
75
100
AcDbEntity
  8
0
 62
     0
100
AcDbLine
 10
27.50000000000004
 20
-1947.5
 30
0.0
 11
27.50000000000004
 21
-1947.5
 31
0.0
  0
LINE
  5
108
330
75
100
AcDbEntity
  8
0
 62
     0
100
AcDbLine
 10
28.75000000000004
 20
-1947.5
 30
0.0
 11
28.75000000000004
 21
-1947.5
 31
0.0
  0
LINE
  5
109
330
75
100
AcDbEntity
  8
0
 62
     0
100
AcDbLine
 10
30.00000000000004
 20
-1947.5
 30
0.0
 11
30.00000000000004
 21
-1947.5
 31
0.0
  0
LINE
  5
10A
330
75
100
AcDbEntity
  8
0
 62
     0
100
AcDbLine
 10
31.25000000000004
 20
-1947.5
 30
0.0
 11
31.25000000000004
 21
-1947.5
 31
0.0
  0
LINE
  5
10B
330
75
100
AcDbEntity
  8
0
 62
     0
100
AcDbLine
 10
32.50000000000004
 20
-1947.5
 30
0.0
 11
32.50000000000004
 21
-1947.5
 31
0.0
  0
LINE
  5
10C
330
75
100
AcDbEntity
  8
0
 62
     0
100
AcDbLine
 10
33.75000000000004
 20
-1947.5
 30
0.0
 11
33.75000000000004
 21
-1947.5
 31
0.0
  0
LINE
  5
10D
330
75
100
AcDbEntity
  8
0
 62
     0
100
AcDbLine
 10
35.00000000000004
 20
-1947.5
 30
0.0
 11
35.00000000000004
 21
-1947.5
 31
0.0
  0
LINE
  5
10E
330
75
100
AcDbEntity
  8
0
 62
     0
100
AcDbLine
 10
36.25000000000004
 20
-1947.5
 30
0.0
 11
36.25000000000004
 21
-1947.5
 31
0.0
  0
LINE
  5
10F
330
75
100
AcDbEntity
  8
0
 62
     0
100
AcDbLine
 10
37.50000000000004
 20
-1947.5
 30
0.0
 11
37.50000000000004
 21
-1947.5
 31
0.0
  0
LINE
  5
110
330
75
100
AcDbEntity
  8
0
 62
     0
100
AcDbLine
 10
-5.624999999999956
 20
-1946.25
 30
0.0
 11
-5.624999999999956
 21
-1946.25
 31
0.0
  0
LINE
  5
111
330
75
100
AcDbEntity
  8
0
 62
     0
100
AcDbLine
 10
-4.374999999999956
 20
-1946.25
 30
0.0
 11
-4.374999999999956
 21
-1946.25
 31
0.0
  0
LINE
  5
112
330
75
100
AcDbEntity
  8
0
 62
     0
100
AcDbLine
 10
-3.124999999999956
 20
-1946.25
 30
0.0
 11
-3.124999999999956
 21
-1946.25
 31
0.0
  0
LINE
  5
113
330
75
100
AcDbEntity
  8
0
 62
     0
100
AcDbLine
 10
-1.874999999999956
 20
-1946.25
 30
0.0
 11
-1.874999999999956
 21
-1946.25
 31
0.0
  0
LINE
  5
114
330
75
100
AcDbEntity
  8
0
 62
     0
100
AcDbLine
 10
-0.6249999999999565
 20
-1946.25
 30
0.0
 11
-0.6249999999999565
 21
-1946.25
 31
0.0
  0
LINE
  5
115
330
75
100
AcDbEntity
  8
0
 62
     0
100
AcDbLine
 10
0.6250000000000436
 20
-1946.25
 30
0.0
 11
0.6250000000000436
 21
-1946.25
 31
0.0
  0
LINE
  5
116
330
75
100
AcDbEntity
  8
0
 62
     0
100
AcDbLine
 10
1.875000000000043
 20
-1946.25
 30
0.0
 11
1.875000000000043
 21
-1946.25
 31
0.0
  0
LINE
  5
117
330
75
100
AcDbEntity
  8
0
 62
     0
100
AcDbLine
 10
3.125000000000043
 20
-1946.25
 30
0.0
 11
3.125000000000043
 21
-1946.25
 31
0.0
  0
LINE
  5
118
330
75
100
AcDbEntity
  8
0
 62
     0
100
AcDbLine
 10
4.375000000000043
 20
-1946.25
 30
0.0
 11
4.375000000000043
 21
-1946.25
 31
0.0
  0
LINE
  5
119
330
75
100
AcDbEntity
  8
0
 62
     0
100
AcDbLine
 10
5.625000000000043
 20
-1946.25
 30
0.0
 11
5.625000000000043
 21
-1946.25
 31
0.0
  0
LINE
  5
11A
330
75
100
AcDbEntity
  8
0
 62
     0
100
AcDbLine
 10
6.87500000000001
 20
-1946.25
 30
0.0
 11
6.87500000000001
 21
-1946.25
 31
0.0
  0
LINE
  5
11B
330
75
100
AcDbEntity
  8
0
 62
     0
100
AcDbLine
 10
8.12500000000001
 20
-1946.25
 30
0.0
 11
8.12500000000001
 21
-1946.25
 31
0.0
  0
LINE
  5
11C
330
75
100
AcDbEntity
  8
0
 62
     0
100
AcDbLine
 10
9.37500000000001
 20
-1946.25
 30
0.0
 11
9.37500000000001
 21
-1946.25
 31
0.0
  0
LINE
  5
11D
330
75
100
AcDbEntity
  8
0
 62
     0
100
AcDbLine
 10
10.62500000000001
 20
-1946.25
 30
0.0
 11
10.62500000000001
 21
-1946.25
 31
0.0
  0
LINE
  5
11E
330
75
100
AcDbEntity
  8
0
 62
     0
100
AcDbLine
 10
11.87500000000001
 20
-1946.25
 30
0.0
 11
11.87500000000001
 21
-1946.25
 31
0.0
  0
LINE
  5
11F
330
75
100
AcDbEntity
  8
0
 62
     0
100
AcDbLine
 10
13.12500000000001
 20
-1946.25
 30
0.0
 11
13.12500000000001
 21
-1946.25
 31
0.0
  0
LINE
  5
120
330
75
100
AcDbEntity
  8
0
 62
     0
100
AcDbLine
 10
14.37500000000001
 20
-1946.25
 30
0.0
 11
14.37500000000001
 21
-1946.25
 31
0.0
  0
LINE
  5
121
330
75
100
AcDbEntity
  8
0
 62
     0
100
AcDbLine
 10
15.62500000000001
 20
-1946.25
 30
0.0
 11
15.62500000000001
 21
-1946.25
 31
0.0
  0
LINE
  5
122
330
75
100
AcDbEntity
  8
0
 62
     0
100
AcDbLine
 10
16.87500000000001
 20
-1946.25
 30
0.0
 11
16.87500000000001
 21
-1946.25
 31
0.0
  0
LINE
  5
123
330
75
100
AcDbEntity
  8
0
 62
     0
100
AcDbLine
 10
18.12500000000001
 20
-1946.25
 30
0.0
 11
18.12500000000001
 21
-1946.25
 31
0.0
  0
LINE
  5
124
330
75
100
AcDbEntity
  8
0
 62
     0
100
AcDbLine
 10
19.37500000000001
 20
-1946.25
 30
0.0
 11
19.37500000000001
 21
-1946.25
 31
0.0
  0
LINE
  5
125
330
75
100
AcDbEntity
  8
0
 62
     0
100
AcDbLine
 10
20.62500000000001
 20
-1946.25
 30
0.0
 11
20.62500000000001
 21
-1946.25
 31
0.0
  0
LINE
  5
126
330
75
100
AcDbEntity
  8
0
 62
     0
100
AcDbLine
 10
21.87500000000001
 20
-1946.25
 30
0.0
 11
21.87500000000001
 21
-1946.25
 31
0.0
  0
LINE
  5
127
330
75
100
AcDbEntity
  8
0
 62
     0
100
AcDbLine
 10
23.12500000000001
 20
-1946.25
 30
0.0
 11
23.12500000000001
 21
-1946.25
 31
0.0
  0
LINE
  5
128
330
75
100
AcDbEntity
  8
0
 62
     0
100
AcDbLine
 10
24.37500000000001
 20
-1946.25
 30
0.0
 11
24.37500000000001
 21
-1946.25
 31
0.0
  0
LINE
  5
129
330
75
100
AcDbEntity
  8
0
 62
     0
100
AcDbLine
 10
25.62500000000001
 20
-1946.25
 30
0.0
 11
25.62500000000001
 21
-1946.25
 31
0.0
  0
LINE
  5
12A
330
75
100
AcDbEntity
  8
0
 62
     0
100
AcDbLine
 10
26.87500000000001
 20
-1946.25
 30
0.0
 11
26.87500000000001
 21
-1946.25
 31
0.0
  0
LINE
  5
12B
330
75
100
AcDbEntity
  8
0
 62
     0
100
AcDbLine
 10
28.12500000000001
 20
-1946.25
 30
0.0
 11
28.12500000000001
 21
-1946.25
 31
0.0
  0
LINE
  5
12C
330
75
100
AcDbEntity
  8
0
 62
     0
100
AcDbLine
 10
29.37500000000001
 20
-1946.25
 30
0.0
 11
29.37500000000001
 21
-1946.25
 31
0.0
  0
LINE
  5
12D
330
75
100
AcDbEntity
  8
0
 62
     0
100
AcDbLine
 10
30.62500000000001
 20
-1946.25
 30
0.0
 11
30.62500000000001
 21
-1946.25
 31
0.0
  0
LINE
  5
12E
330
75
100
AcDbEntity
  8
0
 62
     0
100
AcDbLine
 10
31.87500000000001
 20
-1946.25
 30
0.0
 11
31.87500000000001
 21
-1946.25
 31
0.0
  0
LINE
  5
12F
330
75
100
AcDbEntity
  8
0
 62
     0
100
AcDbLine
 10
33.12500000000002
 20
-1946.25
 30
0.0
 11
33.12500000000002
 21
-1946.25
 31
0.0
  0
LINE
  5
130
330
75
100
AcDbEntity
  8
0
 62
     0
100
AcDbLine
 10
34.37500000000002
 20
-1946.25
 30
0.0
 11
34.37500000000002
 21
-1946.25
 31
0.0
  0
LINE
  5
131
330
75
100
AcDbEntity
  8
0
 62
     0
100
AcDbLine
 10
35.62500000000002
 20
-1946.25
 30
0.0
 11
35.62500000000002
 21
-1946.25
 31
0.0
  0
LINE
  5
132
330
75
100
AcDbEntity
  8
0
 62
     0
100
AcDbLine
 10
36.87500000000002
 20
-1946.25
 30
0.0
 11
36.87500000000002
 21
-1946.25
 31
0.0
  0
LINE
  5
133
330
75
100
AcDbEntity
  8
0
 62
     0
100
AcDbLine
 10
-5.000000000000048
 20
-1945.0
 30
0.0
 11
-5.000000000000048
 21
-1945.0
 31
0.0
  0
LINE
  5
134
330
75
100
AcDbEntity
  8
0
 62
     0
100
AcDbLine
 10
-3.750000000000048
 20
-1945.0
 30
0.0
 11
-3.750000000000048
 21
-1945.0
 31
0.0
  0
LINE
  5
135
330
75
100
AcDbEntity
  8
0
 62
     0
100
AcDbLine
 10
-2.500000000000048
 20
-1945.0
 30
0.0
 11
-2.500000000000048
 21
-1945.0
 31
0.0
  0
LINE
  5
136
330
75
100
AcDbEntity
  8
0
 62
     0
100
AcDbLine
 10
-1.250000000000048
 20
-1945.0
 30
0.0
 11
-1.250000000000048
 21
-1945.0
 31
0.0
  0
LINE
  5
137
330
75
100
AcDbEntity
  8
0
 62
     0
100
AcDbLine
 10
-0.0000000000000488
 20
-1945.0
 30
0.0
 11
-0.0000000000000488
 21
-1945.0
 31
0.0
  0
LINE
  5
138
330
75
100
AcDbEntity
  8
0
 62
     0
100
AcDbLine
 10
1.249999999999951
 20
-1945.0
 30
0.0
 11
1.249999999999951
 21
-1945.0
 31
0.0
  0
LINE
  5
139
330
75
100
AcDbEntity
  8
0
 62
     0
100
AcDbLine
 10
2.499999999999951
 20
-1945.0
 30
0.0
 11
2.499999999999951
 21
-1945.0
 31
0.0
  0
LINE
  5
13A
330
75
100
AcDbEntity
  8
0
 62
     0
100
AcDbLine
 10
3.749999999999951
 20
-1945.0
 30
0.0
 11
3.749999999999951
 21
-1945.0
 31
0.0
  0
LINE
  5
13B
330
75
100
AcDbEntity
  8
0
 62
     0
100
AcDbLine
 10
7.499999999999967
 20
-1945.0
 30
0.0
 11
7.499999999999967
 21
-1945.0
 31
0.0
  0
LINE
  5
13C
330
75
100
AcDbEntity
  8
0
 62
     0
100
AcDbLine
 10
8.749999999999968
 20
-1945.0
 30
0.0
 11
8.749999999999968
 21
-1945.0
 31
0.0
  0
LINE
  5
13D
330
75
100
AcDbEntity
  8
0
 62
     0
100
AcDbLine
 10
9.999999999999968
 20
-1945.0
 30
0.0
 11
9.999999999999968
 21
-1945.0
 31
0.0
  0
LINE
  5
13E
330
75
100
AcDbEntity
  8
0
 62
     0
100
AcDbLine
 10
11.24999999999997
 20
-1945.0
 30
0.0
 11
11.24999999999997
 21
-1945.0
 31
0.0
  0
LINE
  5
13F
330
75
100
AcDbEntity
  8
0
 62
     0
100
AcDbLine
 10
12.49999999999997
 20
-1945.0
 30
0.0
 11
12.49999999999997
 21
-1945.0
 31
0.0
  0
LINE
  5
140
330
75
100
AcDbEntity
  8
0
 62
     0
100
AcDbLine
 10
13.74999999999997
 20
-1945.0
 30
0.0
 11
13.74999999999997
 21
-1945.0
 31
0.0
  0
LINE
  5
141
330
75
100
AcDbEntity
  8
0
 62
     0
100
AcDbLine
 10
14.99999999999997
 20
-1945.0
 30
0.0
 11
14.99999999999997
 21
-1945.0
 31
0.0
  0
LINE
  5
142
330
75
100
AcDbEntity
  8
0
 62
     0
100
AcDbLine
 10
16.24999999999997
 20
-1945.0
 30
0.0
 11
16.24999999999997
 21
-1945.0
 31
0.0
  0
LINE
  5
143
330
75
100
AcDbEntity
  8
0
 62
     0
100
AcDbLine
 10
17.49999999999997
 20
-1945.0
 30
0.0
 11
17.49999999999997
 21
-1945.0
 31
0.0
  0
LINE
  5
144
330
75
100
AcDbEntity
  8
0
 62
     0
100
AcDbLine
 10
18.74999999999997
 20
-1945.0
 30
0.0
 11
18.74999999999997
 21
-1945.0
 31
0.0
  0
LINE
  5
145
330
75
100
AcDbEntity
  8
0
 62
     0
100
AcDbLine
 10
19.99999999999997
 20
-1945.0
 30
0.0
 11
19.99999999999997
 21
-1945.0
 31
0.0
  0
LINE
  5
146
330
75
100
AcDbEntity
  8
0
 62
     0
100
AcDbLine
 10
21.24999999999997
 20
-1945.0
 30
0.0
 11
21.24999999999997
 21
-1945.0
 31
0.0
  0
LINE
  5
147
330
75
100
AcDbEntity
  8
0
 62
     0
100
AcDbLine
 10
22.49999999999997
 20
-1945.0
 30
0.0
 11
22.49999999999997
 21
-1945.0
 31
0.0
  0
LINE
  5
148
330
75
100
AcDbEntity
  8
0
 62
     0
100
AcDbLine
 10
23.74999999999997
 20
-1945.0
 30
0.0
 11
23.74999999999997
 21
-1945.0
 31
0.0
  0
LINE
  5
149
330
75
100
AcDbEntity
  8
0
 62
     0
100
AcDbLine
 10
24.99999999999997
 20
-1945.0
 30
0.0
 11
24.99999999999997
 21
-1945.0
 31
0.0
  0
LINE
  5
14A
330
75
100
AcDbEntity
  8
0
 62
     0
100
AcDbLine
 10
26.24999999999997
 20
-1945.0
 30
0.0
 11
26.24999999999997
 21
-1945.0
 31
0.0
  0
LINE
  5
14B
330
75
100
AcDbEntity
  8
0
 62
     0
100
AcDbLine
 10
27.49999999999997
 20
-1945.0
 30
0.0
 11
27.49999999999997
 21
-1945.0
 31
0.0
  0
LINE
  5
14C
330
75
100
AcDbEntity
  8
0
 62
     0
100
AcDbLine
 10
28.74999999999997
 20
-1945.0
 30
0.0
 11
28.74999999999997
 21
-1945.0
 31
0.0
  0
LINE
  5
14D
330
75
100
AcDbEntity
  8
0
 62
     0
100
AcDbLine
 10
29.99999999999997
 20
-1945.0
 30
0.0
 11
29.99999999999997
 21
-1945.0
 31
0.0
  0
LINE
  5
14E
330
75
100
AcDbEntity
  8
0
 62
     0
100
AcDbLine
 10
31.24999999999997
 20
-1945.0
 30
0.0
 11
31.24999999999997
 21
-1945.0
 31
0.0
  0
LINE
  5
14F
330
75
100
AcDbEntity
  8
0
 62
     0
100
AcDbLine
 10
32.49999999999997
 20
-1945.0
 30
0.0
 11
32.49999999999997
 21
-1945.0
 31
0.0
  0
LINE
  5
150
330
75
100
AcDbEntity
  8
0
 62
     0
100
AcDbLine
 10
33.74999999999997
 20
-1945.0
 30
0.0
 11
33.74999999999997
 21
-1945.0
 31
0.0
  0
LINE
  5
151
330
75
100
AcDbEntity
  8
0
 62
     0
100
AcDbLine
 10
34.99999999999997
 20
-1945.0
 30
0.0
 11
34.99999999999997
 21
-1945.0
 31
0.0
  0
LINE
  5
152
330
75
100
AcDbEntity
  8
0
 62
     0
100
AcDbLine
 10
36.24999999999997
 20
-1945.0
 30
0.0
 11
36.24999999999997
 21
-1945.0
 31
0.0
  0
LINE
  5
153
330
75
100
AcDbEntity
  8
0
 62
     0
100
AcDbLine
 10
-4.374999999999992
 20
-1943.75
 30
0.0
 11
-4.374999999999992
 21
-1943.75
 31
0.0
  0
LINE
  5
154
330
75
100
AcDbEntity
  8
0
 62
     0
100
AcDbLine
 10
-3.124999999999992
 20
-1943.75
 30
0.0
 11
-3.124999999999992
 21
-1943.75
 31
0.0
  0
LINE
  5
155
330
75
100
AcDbEntity
  8
0
 62
     0
100
AcDbLine
 10
-1.874999999999992
 20
-1943.75
 30
0.0
 11
-1.874999999999992
 21
-1943.75
 31
0.0
  0
LINE
  5
156
330
75
100
AcDbEntity
  8
0
 62
     0
100
AcDbLine
 10
-0.624999999999992
 20
-1943.75
 30
0.0
 11
-0.624999999999992
 21
-1943.75
 31
0.0
  0
LINE
  5
157
330
75
100
AcDbEntity
  8
0
 62
     0
100
AcDbLine
 10
0.625000000000008
 20
-1943.75
 30
0.0
 11
0.625000000000008
 21
-1943.75
 31
0.0
  0
LINE
  5
158
330
75
100
AcDbEntity
  8
0
 62
     0
100
AcDbLine
 10
1.875000000000007
 20
-1943.75
 30
0.0
 11
1.875000000000007
 21
-1943.75
 31
0.0
  0
LINE
  5
159
330
75
100
AcDbEntity
  8
0
 62
     0
100
AcDbLine
 10
8.12499999999996
 20
-1943.75
 30
0.0
 11
8.12499999999996
 21
-1943.75
 31
0.0
  0
LINE
  5
15A
330
75
100
AcDbEntity
  8
0
 62
     0
100
AcDbLine
 10
9.37499999999996
 20
-1943.75
 30
0.0
 11
9.37499999999996
 21
-1943.75
 31
0.0
  0
LINE
  5
15B
330
75
100
AcDbEntity
  8
0
 62
     0
100
AcDbLine
 10
10.62499999999996
 20
-1943.75
 30
0.0
 11
10.62499999999996
 21
-1943.75
 31
0.0
  0
LINE
  5
15C
330
75
100
AcDbEntity
  8
0
 62
     0
100
AcDbLine
 10
11.87499999999996
 20
-1943.75
 30
0.0
 11
11.87499999999996
 21
-1943.75
 31
0.0
  0
LINE
  5
15D
330
75
100
AcDbEntity
  8
0
 62
     0
100
AcDbLine
 10
13.12499999999996
 20
-1943.75
 30
0.0
 11
13.12499999999996
 21
-1943.75
 31
0.0
  0
LINE
  5
15E
330
75
100
AcDbEntity
  8
0
 62
     0
100
AcDbLine
 10
14.37499999999996
 20
-1943.75
 30
0.0
 11
14.37499999999996
 21
-1943.75
 31
0.0
  0
LINE
  5
15F
330
75
100
AcDbEntity
  8
0
 62
     0
100
AcDbLine
 10
15.62499999999996
 20
-1943.75
 30
0.0
 11
15.62499999999996
 21
-1943.75
 31
0.0
  0
LINE
  5
160
330
75
100
AcDbEntity
  8
0
 62
     0
100
AcDbLine
 10
16.87499999999996
 20
-1943.75
 30
0.0
 11
16.87499999999996
 21
-1943.75
 31
0.0
  0
LINE
  5
161
330
75
100
AcDbEntity
  8
0
 62
     0
100
AcDbLine
 10
18.12499999999996
 20
-1943.75
 30
0.0
 11
18.12499999999996
 21
-1943.75
 31
0.0
  0
LINE
  5
162
330
75
100
AcDbEntity
  8
0
 62
     0
100
AcDbLine
 10
19.37499999999996
 20
-1943.75
 30
0.0
 11
19.37499999999996
 21
-1943.75
 31
0.0
  0
LINE
  5
163
330
75
100
AcDbEntity
  8
0
 62
     0
100
AcDbLine
 10
20.62499999999996
 20
-1943.75
 30
0.0
 11
20.62499999999996
 21
-1943.75
 31
0.0
  0
LINE
  5
164
330
75
100
AcDbEntity
  8
0
 62
     0
100
AcDbLine
 10
21.87499999999996
 20
-1943.75
 30
0.0
 11
21.87499999999996
 21
-1943.75
 31
0.0
  0
LINE
  5
165
330
75
100
AcDbEntity
  8
0
 62
     0
100
AcDbLine
 10
23.12499999999996
 20
-1943.75
 30
0.0
 11
23.12499999999996
 21
-1943.75
 31
0.0
  0
LINE
  5
166
330
75
100
AcDbEntity
  8
0
 62
     0
100
AcDbLine
 10
24.37499999999996
 20
-1943.75
 30
0.0
 11
24.37499999999996
 21
-1943.75
 31
0.0
  0
LINE
  5
167
330
75
100
AcDbEntity
  8
0
 62
     0
100
AcDbLine
 10
25.62499999999996
 20
-1943.75
 30
0.0
 11
25.62499999999996
 21
-1943.75
 31
0.0
  0
LINE
  5
168
330
75
100
AcDbEntity
  8
0
 62
     0
100
AcDbLine
 10
26.87499999999996
 20
-1943.75
 30
0.0
 11
26.87499999999996
 21
-1943.75
 31
0.0
  0
LINE
  5
169
330
75
100
AcDbEntity
  8
0
 62
     0
100
AcDbLine
 10
28.12499999999996
 20
-1943.75
 30
0.0
 11
28.12499999999996
 21
-1943.75
 31
0.0
  0
LINE
  5
16A
330
75
100
AcDbEntity
  8
0
 62
     0
100
AcDbLine
 10
29.37499999999996
 20
-1943.75
 30
0.0
 11
29.37499999999996
 21
-1943.75
 31
0.0
  0
LINE
  5
16B
330
75
100
AcDbEntity
  8
0
 62
     0
100
AcDbLine
 10
30.62499999999996
 20
-1943.75
 30
0.0
 11
30.62499999999996
 21
-1943.75
 31
0.0
  0
LINE
  5
16C
330
75
100
AcDbEntity
  8
0
 62
     0
100
AcDbLine
 10
31.87499999999996
 20
-1943.75
 30
0.0
 11
31.87499999999996
 21
-1943.75
 31
0.0
  0
LINE
  5
16D
330
75
100
AcDbEntity
  8
0
 62
     0
100
AcDbLine
 10
33.12499999999996
 20
-1943.75
 30
0.0
 11
33.12499999999996
 21
-1943.75
 31
0.0
  0
LINE
  5
16E
330
75
100
AcDbEntity
  8
0
 62
     0
100
AcDbLine
 10
34.37499999999996
 20
-1943.75
 30
0.0
 11
34.37499999999996
 21
-1943.75
 31
0.0
  0
LINE
  5
16F
330
75
100
AcDbEntity
  8
0
 62
     0
100
AcDbLine
 10
35.62499999999996
 20
-1943.75
 30
0.0
 11
35.62499999999996
 21
-1943.75
 31
0.0
  0
LINE
  5
170
330
75
100
AcDbEntity
  8
0
 62
     0
100
AcDbLine
 10
1.249999999999966
 20
-1942.5
 30
0.0
 11
1.249999999999966
 21
-1942.5
 31
0.0
  0
LINE
  5
171
330
75
100
AcDbEntity
  8
0
 62
     0
100
AcDbLine
 10
8.749999999999964
 20
-1942.5
 30
0.0
 11
8.749999999999964
 21
-1942.5
 31
0.0
  0
LINE
  5
172
330
75
100
AcDbEntity
  8
0
 62
     0
100
AcDbLine
 10
9.999999999999964
 20
-1942.5
 30
0.0
 11
9.999999999999964
 21
-1942.5
 31
0.0
  0
LINE
  5
173
330
75
100
AcDbEntity
  8
0
 62
     0
100
AcDbLine
 10
11.24999999999996
 20
-1942.5
 30
0.0
 11
11.24999999999996
 21
-1942.5
 31
0.0
  0
LINE
  5
174
330
75
100
AcDbEntity
  8
0
 62
     0
100
AcDbLine
 10
12.49999999999996
 20
-1942.5
 30
0.0
 11
12.49999999999996
 21
-1942.5
 31
0.0
  0
LINE
  5
175
330
75
100
AcDbEntity
  8
0
 62
     0
100
AcDbLine
 10
13.74999999999996
 20
-1942.5
 30
0.0
 11
13.74999999999996
 21
-1942.5
 31
0.0
  0
LINE
  5
176
330
75
100
AcDbEntity
  8
0
 62
     0
100
AcDbLine
 10
14.99999999999996
 20
-1942.5
 30
0.0
 11
14.99999999999996
 21
-1942.5
 31
0.0
  0
LINE
  5
177
330
75
100
AcDbEntity
  8
0
 62
     0
100
AcDbLine
 10
16.24999999999996
 20
-1942.5
 30
0.0
 11
16.24999999999996
 21
-1942.5
 31
0.0
  0
LINE
  5
178
330
75
100
AcDbEntity
  8
0
 62
     0
100
AcDbLine
 10
17.49999999999996
 20
-1942.5
 30
0.0
 11
17.49999999999996
 21
-1942.5
 31
0.0
  0
LINE
  5
179
330
75
100
AcDbEntity
  8
0
 62
     0
100
AcDbLine
 10
18.74999999999996
 20
-1942.5
 30
0.0
 11
18.74999999999996
 21
-1942.5
 31
0.0
  0
LINE
  5
17A
330
75
100
AcDbEntity
  8
0
 62
     0
100
AcDbLine
 10
19.99999999999996
 20
-1942.5
 30
0.0
 11
19.99999999999996
 21
-1942.5
 31
0.0
  0
LINE
  5
17B
330
75
100
AcDbEntity
  8
0
 62
     0
100
AcDbLine
 10
21.24999999999996
 20
-1942.5
 30
0.0
 11
21.24999999999996
 21
-1942.5
 31
0.0
  0
LINE
  5
17C
330
75
100
AcDbEntity
  8
0
 62
     0
100
AcDbLine
 10
22.49999999999996
 20
-1942.5
 30
0.0
 11
22.49999999999996
 21
-1942.5
 31
0.0
  0
LINE
  5
17D
330
75
100
AcDbEntity
  8
0
 62
     0
100
AcDbLine
 10
23.74999999999996
 20
-1942.5
 30
0.0
 11
23.74999999999996
 21
-1942.5
 31
0.0
  0
LINE
  5
17E
330
75
100
AcDbEntity
  8
0
 62
     0
100
AcDbLine
 10
24.99999999999996
 20
-1942.5
 30
0.0
 11
24.99999999999996
 21
-1942.5
 31
0.0
  0
LINE
  5
17F
330
75
100
AcDbEntity
  8
0
 62
     0
100
AcDbLine
 10
26.24999999999996
 20
-1942.5
 30
0.0
 11
26.24999999999996
 21
-1942.5
 31
0.0
  0
LINE
  5
180
330
75
100
AcDbEntity
  8
0
 62
     0
100
AcDbLine
 10
27.49999999999996
 20
-1942.5
 30
0.0
 11
27.49999999999996
 21
-1942.5
 31
0.0
  0
LINE
  5
181
330
75
100
AcDbEntity
  8
0
 62
     0
100
AcDbLine
 10
28.74999999999996
 20
-1942.5
 30
0.0
 11
28.74999999999996
 21
-1942.5
 31
0.0
  0
LINE
  5
182
330
75
100
AcDbEntity
  8
0
 62
     0
100
AcDbLine
 10
29.99999999999996
 20
-1942.5
 30
0.0
 11
29.99999999999996
 21
-1942.5
 31
0.0
  0
LINE
  5
183
330
75
100
AcDbEntity
  8
0
 62
     0
100
AcDbLine
 10
31.24999999999996
 20
-1942.5
 30
0.0
 11
31.24999999999996
 21
-1942.5
 31
0.0
  0
LINE
  5
184
330
75
100
AcDbEntity
  8
0
 62
     0
100
AcDbLine
 10
32.49999999999996
 20
-1942.5
 30
0.0
 11
32.49999999999996
 21
-1942.5
 31
0.0
  0
LINE
  5
185
330
75
100
AcDbEntity
  8
0
 62
     0
100
AcDbLine
 10
33.74999999999996
 20
-1942.5
 30
0.0
 11
33.74999999999996
 21
-1942.5
 31
0.0
  0
LINE
  5
186
330
75
100
AcDbEntity
  8
0
 62
     0
100
AcDbLine
 10
34.99999999999996
 20
-1942.5
 30
0.0
 11
34.99999999999996
 21
-1942.5
 31
0.0
  0
LINE
  5
187
330
75
100
AcDbEntity
  8
0
 62
     0
100
AcDbLine
 10
9.375000000000031
 20
-1941.25
 30
0.0
 11
9.375000000000031
 21
-1941.25
 31
0.0
  0
LINE
  5
188
330
75
100
AcDbEntity
  8
0
 62
     0
100
AcDbLine
 10
10.62500000000003
 20
-1941.25
 30
0.0
 11
10.62500000000003
 21
-1941.25
 31
0.0
  0
LINE
  5
189
330
75
100
AcDbEntity
  8
0
 62
     0
100
AcDbLine
 10
11.87500000000003
 20
-1941.25
 30
0.0
 11
11.87500000000003
 21
-1941.25
 31
0.0
  0
LINE
  5
18A
330
75
100
AcDbEntity
  8
0
 62
     0
100
AcDbLine
 10
13.12500000000003
 20
-1941.25
 30
0.0
 11
13.12500000000003
 21
-1941.25
 31
0.0
  0
LINE
  5
18B
330
75
100
AcDbEntity
  8
0
 62
     0
100
AcDbLine
 10
14.37500000000003
 20
-1941.25
 30
0.0
 11
14.37500000000003
 21
-1941.25
 31
0.0
  0
LINE
  5
18C
330
75
100
AcDbEntity
  8
0
 62
     0
100
AcDbLine
 10
15.62500000000003
 20
-1941.25
 30
0.0
 11
15.62500000000003
 21
-1941.25
 31
0.0
  0
LINE
  5
18D
330
75
100
AcDbEntity
  8
0
 62
     0
100
AcDbLine
 10
16.87500000000003
 20
-1941.25
 30
0.0
 11
16.87500000000003
 21
-1941.25
 31
0.0
  0
LINE
  5
18E
330
75
100
AcDbEntity
  8
0
 62
     0
100
AcDbLine
 10
18.12500000000003
 20
-1941.25
 30
0.0
 11
18.12500000000003
 21
-1941.25
 31
0.0
  0
LINE
  5
18F
330
75
100
AcDbEntity
  8
0
 62
     0
100
AcDbLine
 10
19.37500000000003
 20
-1941.25
 30
0.0
 11
19.37500000000003
 21
-1941.25
 31
0.0
  0
LINE
  5
190
330
75
100
AcDbEntity
  8
0
 62
     0
100
AcDbLine
 10
20.62500000000003
 20
-1941.25
 30
0.0
 11
20.62500000000003
 21
-1941.25
 31
0.0
  0
LINE
  5
191
330
75
100
AcDbEntity
  8
0
 62
     0
100
AcDbLine
 10
21.87500000000003
 20
-1941.25
 30
0.0
 11
21.87500000000003
 21
-1941.25
 31
0.0
  0
LINE
  5
192
330
75
100
AcDbEntity
  8
0
 62
     0
100
AcDbLine
 10
23.12500000000003
 20
-1941.25
 30
0.0
 11
23.12500000000003
 21
-1941.25
 31
0.0
  0
LINE
  5
193
330
75
100
AcDbEntity
  8
0
 62
     0
100
AcDbLine
 10
24.37500000000003
 20
-1941.25
 30
0.0
 11
24.37500000000003
 21
-1941.25
 31
0.0
  0
LINE
  5
194
330
75
100
AcDbEntity
  8
0
 62
     0
100
AcDbLine
 10
25.62500000000003
 20
-1941.25
 30
0.0
 11
25.62500000000003
 21
-1941.25
 31
0.0
  0
LINE
  5
195
330
75
100
AcDbEntity
  8
0
 62
     0
100
AcDbLine
 10
26.87500000000003
 20
-1941.25
 30
0.0
 11
26.87500000000003
 21
-1941.25
 31
0.0
  0
LINE
  5
196
330
75
100
AcDbEntity
  8
0
 62
     0
100
AcDbLine
 10
28.12500000000003
 20
-1941.25
 30
0.0
 11
28.12500000000003
 21
-1941.25
 31
0.0
  0
LINE
  5
197
330
75
100
AcDbEntity
  8
0
 62
     0
100
AcDbLine
 10
29.37500000000003
 20
-1941.25
 30
0.0
 11
29.37500000000003
 21
-1941.25
 31
0.0
  0
LINE
  5
198
330
75
100
AcDbEntity
  8
0
 62
     0
100
AcDbLine
 10
30.62500000000003
 20
-1941.25
 30
0.0
 11
30.62500000000003
 21
-1941.25
 31
0.0
  0
LINE
  5
199
330
75
100
AcDbEntity
  8
0
 62
     0
100
AcDbLine
 10
31.87500000000003
 20
-1941.25
 30
0.0
 11
31.87500000000003
 21
-1941.25
 31
0.0
  0
LINE
  5
19A
330
75
100
AcDbEntity
  8
0
 62
     0
100
AcDbLine
 10
33.12500000000003
 20
-1941.25
 30
0.0
 11
33.12500000000003
 21
-1941.25
 31
0.0
  0
LINE
  5
19B
330
75
100
AcDbEntity
  8
0
 62
     0
100
AcDbLine
 10
34.37500000000003
 20
-1941.25
 30
0.0
 11
34.37500000000003
 21
-1941.25
 31
0.0
  0
LINE
  5
19C
330
75
100
AcDbEntity
  8
0
 62
     0
100
AcDbLine
 10
16.25000000000001
 20
-1940.0
 30
0.0
 11
16.25000000000001
 21
-1940.0
 31
0.0
  0
LINE
  5
19D
330
75
100
AcDbEntity
  8
0
 62
     0
100
AcDbLine
 10
17.50000000000001
 20
-1940.0
 30
0.0
 11
17.50000000000001
 21
-1940.0
 31
0.0
  0
LINE
  5
19E
330
75
100
AcDbEntity
  8
0
 62
     0
100
AcDbLine
 10
18.75000000000001
 20
-1940.0
 30
0.0
 11
18.75000000000001
 21
-1940.0
 31
0.0
  0
LINE
  5
19F
330
75
100
AcDbEntity
  8
0
 62
     0
100
AcDbLine
 10
20.00000000000001
 20
-1940.0
 30
0.0
 11
20.00000000000001
 21
-1940.0
 31
0.0
  0
LINE
  5
1A0
330
75
100
AcDbEntity
  8
0
 62
     0
100
AcDbLine
 10
21.25000000000001
 20
-1940.0
 30
0.0
 11
21.25000000000001
 21
-1940.0
 31
0.0
  0
LINE
  5
1A1
330
75
100
AcDbEntity
  8
0
 62
     0
100
AcDbLine
 10
22.50000000000001
 20
-1940.0
 30
0.0
 11
22.50000000000001
 21
-1940.0
 31
0.0
  0
LINE
  5
1A2
330
75
100
AcDbEntity
  8
0
 62
     0
100
AcDbLine
 10
23.75000000000001
 20
-1940.0
 30
0.0
 11
23.75000000000001
 21
-1940.0
 31
0.0
  0
LINE
  5
1A3
330
75
100
AcDbEntity
  8
0
 62
     0
100
AcDbLine
 10
25.00000000000002
 20
-1940.0
 30
0.0
 11
25.00000000000002
 21
-1940.0
 31
0.0
  0
LINE
  5
1A4
330
75
100
AcDbEntity
  8
0
 62
     0
100
AcDbLine
 10
26.25000000000002
 20
-1940.0
 30
0.0
 11
26.25000000000002
 21
-1940.0
 31
0.0
  0
LINE
  5
1A5
330
75
100
AcDbEntity
  8
0
 62
     0
100
AcDbLine
 10
27.50000000000002
 20
-1940.0
 30
0.0
 11
27.50000000000002
 21
-1940.0
 31
0.0
  0
LINE
  5
1A6
330
75
100
AcDbEntity
  8
0
 62
     0
100
AcDbLine
 10
28.75000000000002
 20
-1940.0
 30
0.0
 11
28.75000000000002
 21
-1940.0
 31
0.0
  0
LINE
  5
1A7
330
75
100
AcDbEntity
  8
0
 62
     0
100
AcDbLine
 10
30.00000000000002
 20
-1940.0
 30
0.0
 11
30.00000000000002
 21
-1940.0
 31
0.0
  0
LINE
  5
1A8
330
75
100
AcDbEntity
  8
0
 62
     0
100
AcDbLine
 10
31.25000000000002
 20
-1940.0
 30
0.0
 11
31.25000000000002
 21
-1940.0
 31
0.0
  0
LINE
  5
1A9
330
75
100
AcDbEntity
  8
0
 62
     0
100
AcDbLine
 10
32.50000000000002
 20
-1940.0
 30
0.0
 11
32.50000000000002
 21
-1940.0
 31
0.0
  0
LINE
  5
1AA
330
75
100
AcDbEntity
  8
0
 62
     0
100
AcDbLine
 10
33.75000000000002
 20
-1940.0
 30
0.0
 11
33.75000000000002
 21
-1940.0
 31
0.0
  0
LINE
  5
1AB
330
75
100
AcDbEntity
  8
0
 62
     0
100
AcDbLine
 10
23.12500000000003
 20
-1938.75
 30
0.0
 11
23.12500000000003
 21
-1938.75
 31
0.0
  0
LINE
  5
1AC
330
75
100
AcDbEntity
  8
0
 62
     0
100
AcDbLine
 10
24.37500000000003
 20
-1938.75
 30
0.0
 11
24.37500000000003
 21
-1938.75
 31
0.0
  0
LINE
  5
1AD
330
75
100
AcDbEntity
  8
0
 62
     0
100
AcDbLine
 10
25.62500000000003
 20
-1938.75
 30
0.0
 11
25.62500000000003
 21
-1938.75
 31
0.0
  0
LINE
  5
1AE
330
75
100
AcDbEntity
  8
0
 62
     0
100
AcDbLine
 10
26.87500000000003
 20
-1938.75
 30
0.0
 11
26.87500000000003
 21
-1938.75
 31
0.0
  0
LINE
  5
1AF
330
75
100
AcDbEntity
  8
0
 62
     0
100
AcDbLine
 10
28.12500000000003
 20
-1938.75
 30
0.0
 11
28.12500000000003
 21
-1938.75
 31
0.0
  0
LINE
  5
1B0
330
75
100
AcDbEntity
  8
0
 62
     0
100
AcDbLine
 10
29.37500000000003
 20
-1938.75
 30
0.0
 11
29.37500000000003
 21
-1938.75
 31
0.0
  0
LINE
  5
1B1
330
75
100
AcDbEntity
  8
0
 62
     0
100
AcDbLine
 10
30.62500000000003
 20
-1938.75
 30
0.0
 11
30.62500000000003
 21
-1938.75
 31
0.0
  0
LINE
  5
1B2
330
75
100
AcDbEntity
  8
0
 62
     0
100
AcDbLine
 10
31.87500000000003
 20
-1938.75
 30
0.0
 11
31.87500000000003
 21
-1938.75
 31
0.0
  0
LINE
  5
1B3
330
75
100
AcDbEntity
  8
0
 62
     0
100
AcDbLine
 10
33.12500000000003
 20
-1938.75
 30
0.0
 11
33.12500000000003
 21
-1938.75
 31
0.0
  0
LINE
  5
1B4
330
75
100
AcDbEntity
  8
0
 62
     0
100
AcDbLine
 10
30.00000000000003
 20
-1937.5
 30
0.0
 11
30.00000000000003
 21
-1937.5
 31
0.0
  0
LINE
  5
1B5
330
75
100
AcDbEntity
  8
0
 62
     0
100
AcDbLine
 10
31.25000000000003
 20
-1937.5
 30
0.0
 11
31.25000000000003
 21
-1937.5
 31
0.0
  0
LINE
  5
1B6
330
75
100
AcDbEntity
  8
0
 62
     0
100
AcDbLine
 10
-8.124999999999973
 20
-1951.25
 30
0.0
 11
-8.124999999999973
 21
-1951.25
 31
0.0
  0
LINE
  5
1B7
330
75
100
AcDbEntity
  8
0
 62
     0
100
AcDbLine
 10
-6.874999999999973
 20
-1951.25
 30
0.0
 11
-6.874999999999973
 21
-1951.25
 31
0.0
  0
LINE
  5
1B8
330
75
100
AcDbEntity
  8
0
 62
     0
100
AcDbLine
 10
-5.624999999999973
 20
-1951.25
 30
0.0
 11
-5.624999999999973
 21
-1951.25
 31
0.0
  0
LINE
  5
1B9
330
75
100
AcDbEntity
  8
0
 62
     0
100
AcDbLine
 10
-4.374999999999973
 20
-1951.25
 30
0.0
 11
-4.374999999999973
 21
-1951.25
 31
0.0
  0
LINE
  5
1BA
330
75
100
AcDbEntity
  8
0
 62
     0
100
AcDbLine
 10
-3.124999999999973
 20
-1951.25
 30
0.0
 11
-3.124999999999973
 21
-1951.25
 31
0.0
  0
LINE
  5
1BB
330
75
100
AcDbEntity
  8
0
 62
     0
100
AcDbLine
 10
-1.874999999999973
 20
-1951.25
 30
0.0
 11
-1.874999999999973
 21
-1951.25
 31
0.0
  0
LINE
  5
1BC
330
75
100
AcDbEntity
  8
0
 62
     0
100
AcDbLine
 10
-0.6249999999999734
 20
-1951.25
 30
0.0
 11
-0.6249999999999734
 21
-1951.25
 31
0.0
  0
LINE
  5
1BD
330
75
100
AcDbEntity
  8
0
 62
     0
100
AcDbLine
 10
0.6250000000000267
 20
-1951.25
 30
0.0
 11
0.6250000000000267
 21
-1951.25
 31
0.0
  0
LINE
  5
1BE
330
75
100
AcDbEntity
  8
0
 62
     0
100
AcDbLine
 10
1.875000000000026
 20
-1951.25
 30
0.0
 11
1.875000000000026
 21
-1951.25
 31
0.0
  0
LINE
  5
1BF
330
75
100
AcDbEntity
  8
0
 62
     0
100
AcDbLine
 10
3.125000000000026
 20
-1951.25
 30
0.0
 11
3.125000000000026
 21
-1951.25
 31
0.0
  0
LINE
  5
1C0
330
75
100
AcDbEntity
  8
0
 62
     0
100
AcDbLine
 10
4.375000000000026
 20
-1951.25
 30
0.0
 11
4.375000000000026
 21
-1951.25
 31
0.0
  0
LINE
  5
1C1
330
75
100
AcDbEntity
  8
0
 62
     0
100
AcDbLine
 10
5.625000000000026
 20
-1951.25
 30
0.0
 11
5.625000000000026
 21
-1951.25
 31
0.0
  0
LINE
  5
1C2
330
75
100
AcDbEntity
  8
0
 62
     0
100
AcDbLine
 10
6.874999999999971
 20
-1951.25
 30
0.0
 11
6.874999999999971
 21
-1951.25
 31
0.0
  0
LINE
  5
1C3
330
75
100
AcDbEntity
  8
0
 62
     0
100
AcDbLine
 10
8.124999999999971
 20
-1951.25
 30
0.0
 11
8.124999999999971
 21
-1951.25
 31
0.0
  0
LINE
  5
1C4
330
75
100
AcDbEntity
  8
0
 62
     0
100
AcDbLine
 10
9.374999999999971
 20
-1951.25
 30
0.0
 11
9.374999999999971
 21
-1951.25
 31
0.0
  0
LINE
  5
1C5
330
75
100
AcDbEntity
  8
0
 62
     0
100
AcDbLine
 10
10.62499999999997
 20
-1951.25
 30
0.0
 11
10.62499999999997
 21
-1951.25
 31
0.0
  0
LINE
  5
1C6
330
75
100
AcDbEntity
  8
0
 62
     0
100
AcDbLine
 10
11.87499999999997
 20
-1951.25
 30
0.0
 11
11.87499999999997
 21
-1951.25
 31
0.0
  0
LINE
  5
1C7
330
75
100
AcDbEntity
  8
0
 62
     0
100
AcDbLine
 10
13.12499999999997
 20
-1951.25
 30
0.0
 11
13.12499999999997
 21
-1951.25
 31
0.0
  0
LINE
  5
1C8
330
75
100
AcDbEntity
  8
0
 62
     0
100
AcDbLine
 10
14.37499999999997
 20
-1951.25
 30
0.0
 11
14.37499999999997
 21
-1951.25
 31
0.0
  0
LINE
  5
1C9
330
75
100
AcDbEntity
  8
0
 62
     0
100
AcDbLine
 10
15.62499999999997
 20
-1951.25
 30
0.0
 11
15.62499999999997
 21
-1951.25
 31
0.0
  0
LINE
  5
1CA
330
75
100
AcDbEntity
  8
0
 62
     0
100
AcDbLine
 10
16.87499999999997
 20
-1951.25
 30
0.0
 11
16.87499999999997
 21
-1951.25
 31
0.0
  0
LINE
  5
1CB
330
75
100
AcDbEntity
  8
0
 62
     0
100
AcDbLine
 10
18.12499999999997
 20
-1951.25
 30
0.0
 11
18.12499999999997
 21
-1951.25
 31
0.0
  0
LINE
  5
1CC
330
75
100
AcDbEntity
  8
0
 62
     0
100
AcDbLine
 10
19.37499999999997
 20
-1951.25
 30
0.0
 11
19.37499999999997
 21
-1951.25
 31
0.0
  0
LINE
  5
1CD
330
75
100
AcDbEntity
  8
0
 62
     0
100
AcDbLine
 10
20.62499999999997
 20
-1951.25
 30
0.0
 11
20.62499999999997
 21
-1951.25
 31
0.0
  0
LINE
  5
1CE
330
75
100
AcDbEntity
  8
0
 62
     0
100
AcDbLine
 10
21.87499999999997
 20
-1951.25
 30
0.0
 11
21.87499999999997
 21
-1951.25
 31
0.0
  0
LINE
  5
1CF
330
75
100
AcDbEntity
  8
0
 62
     0
100
AcDbLine
 10
23.12499999999997
 20
-1951.25
 30
0.0
 11
23.12499999999997
 21
-1951.25
 31
0.0
  0
LINE
  5
1D0
330
75
100
AcDbEntity
  8
0
 62
     0
100
AcDbLine
 10
24.37499999999997
 20
-1951.25
 30
0.0
 11
24.37499999999997
 21
-1951.25
 31
0.0
  0
LINE
  5
1D1
330
75
100
AcDbEntity
  8
0
 62
     0
100
AcDbLine
 10
25.62499999999997
 20
-1951.25
 30
0.0
 11
25.62499999999997
 21
-1951.25
 31
0.0
  0
LINE
  5
1D2
330
75
100
AcDbEntity
  8
0
 62
     0
100
AcDbLine
 10
26.87499999999997
 20
-1951.25
 30
0.0
 11
26.87499999999997
 21
-1951.25
 31
0.0
  0
LINE
  5
1D3
330
75
100
AcDbEntity
  8
0
 62
     0
100
AcDbLine
 10
28.12499999999997
 20
-1951.25
 30
0.0
 11
28.12499999999997
 21
-1951.25
 31
0.0
  0
LINE
  5
1D4
330
75
100
AcDbEntity
  8
0
 62
     0
100
AcDbLine
 10
29.37499999999997
 20
-1951.25
 30
0.0
 11
29.37499999999997
 21
-1951.25
 31
0.0
  0
LINE
  5
1D5
330
75
100
AcDbEntity
  8
0
 62
     0
100
AcDbLine
 10
30.62499999999997
 20
-1951.25
 30
0.0
 11
30.62499999999997
 21
-1951.25
 31
0.0
  0
LINE
  5
1D6
330
75
100
AcDbEntity
  8
0
 62
     0
100
AcDbLine
 10
31.87499999999997
 20
-1951.25
 30
0.0
 11
31.87499999999997
 21
-1951.25
 31
0.0
  0
LINE
  5
1D7
330
75
100
AcDbEntity
  8
0
 62
     0
100
AcDbLine
 10
33.12499999999997
 20
-1951.25
 30
0.0
 11
33.12499999999997
 21
-1951.25
 31
0.0
  0
LINE
  5
1D8
330
75
100
AcDbEntity
  8
0
 62
     0
100
AcDbLine
 10
34.37499999999997
 20
-1951.25
 30
0.0
 11
34.37499999999997
 21
-1951.25
 31
0.0
  0
LINE
  5
1D9
330
75
100
AcDbEntity
  8
0
 62
     0
100
AcDbLine
 10
35.62499999999997
 20
-1951.25
 30
0.0
 11
35.62499999999997
 21
-1951.25
 31
0.0
  0
LINE
  5
1DA
330
75
100
AcDbEntity
  8
0
 62
     0
100
AcDbLine
 10
-8.75000000000004
 20
-1952.5
 30
0.0
 11
-8.75000000000004
 21
-1952.5
 31
0.0
  0
LINE
  5
1DB
330
75
100
AcDbEntity
  8
0
 62
     0
100
AcDbLine
 10
-7.50000000000004
 20
-1952.5
 30
0.0
 11
-7.50000000000004
 21
-1952.5
 31
0.0
  0
LINE
  5
1DC
330
75
100
AcDbEntity
  8
0
 62
     0
100
AcDbLine
 10
-6.25000000000004
 20
-1952.5
 30
0.0
 11
-6.25000000000004
 21
-1952.5
 31
0.0
  0
LINE
  5
1DD
330
75
100
AcDbEntity
  8
0
 62
     0
100
AcDbLine
 10
-5.00000000000004
 20
-1952.5
 30
0.0
 11
-5.00000000000004
 21
-1952.5
 31
0.0
  0
LINE
  5
1DE
330
75
100
AcDbEntity
  8
0
 62
     0
100
AcDbLine
 10
-3.75000000000004
 20
-1952.5
 30
0.0
 11
-3.75000000000004
 21
-1952.5
 31
0.0
  0
LINE
  5
1DF
330
75
100
AcDbEntity
  8
0
 62
     0
100
AcDbLine
 10
-2.50000000000004
 20
-1952.5
 30
0.0
 11
-2.50000000000004
 21
-1952.5
 31
0.0
  0
LINE
  5
1E0
330
75
100
AcDbEntity
  8
0
 62
     0
100
AcDbLine
 10
-1.25000000000004
 20
-1952.5
 30
0.0
 11
-1.25000000000004
 21
-1952.5
 31
0.0
  0
LINE
  5
1E1
330
75
100
AcDbEntity
  8
0
 62
     0
100
AcDbLine
 10
-0.0000000000000409
 20
-1952.5
 30
0.0
 11
-0.0000000000000409
 21
-1952.5
 31
0.0
  0
LINE
  5
1E2
330
75
100
AcDbEntity
  8
0
 62
     0
100
AcDbLine
 10
1.249999999999959
 20
-1952.5
 30
0.0
 11
1.249999999999959
 21
-1952.5
 31
0.0
  0
LINE
  5
1E3
330
75
100
AcDbEntity
  8
0
 62
     0
100
AcDbLine
 10
2.499999999999959
 20
-1952.5
 30
0.0
 11
2.499999999999959
 21
-1952.5
 31
0.0
  0
LINE
  5
1E4
330
75
100
AcDbEntity
  8
0
 62
     0
100
AcDbLine
 10
3.749999999999959
 20
-1952.5
 30
0.0
 11
3.749999999999959
 21
-1952.5
 31
0.0
  0
LINE
  5
1E5
330
75
100
AcDbEntity
  8
0
 62
     0
100
AcDbLine
 10
4.999999999999959
 20
-1952.5
 30
0.0
 11
4.999999999999959
 21
-1952.5
 31
0.0
  0
LINE
  5
1E6
330
75
100
AcDbEntity
  8
0
 62
     0
100
AcDbLine
 10
6.249999999999956
 20
-1952.5
 30
0.0
 11
6.249999999999956
 21
-1952.5
 31
0.0
  0
LINE
  5
1E7
330
75
100
AcDbEntity
  8
0
 62
     0
100
AcDbLine
 10
7.499999999999956
 20
-1952.5
 30
0.0
 11
7.499999999999956
 21
-1952.5
 31
0.0
  0
LINE
  5
1E8
330
75
100
AcDbEntity
  8
0
 62
     0
100
AcDbLine
 10
8.749999999999957
 20
-1952.5
 30
0.0
 11
8.749999999999957
 21
-1952.5
 31
0.0
  0
LINE
  5
1E9
330
75
100
AcDbEntity
  8
0
 62
     0
100
AcDbLine
 10
9.999999999999957
 20
-1952.5
 30
0.0
 11
9.999999999999957
 21
-1952.5
 31
0.0
  0
LINE
  5
1EA
330
75
100
AcDbEntity
  8
0
 62
     0
100
AcDbLine
 10
11.24999999999996
 20
-1952.5
 30
0.0
 11
11.24999999999996
 21
-1952.5
 31
0.0
  0
LINE
  5
1EB
330
75
100
AcDbEntity
  8
0
 62
     0
100
AcDbLine
 10
12.49999999999996
 20
-1952.5
 30
0.0
 11
12.49999999999996
 21
-1952.5
 31
0.0
  0
LINE
  5
1EC
330
75
100
AcDbEntity
  8
0
 62
     0
100
AcDbLine
 10
13.74999999999996
 20
-1952.5
 30
0.0
 11
13.74999999999996
 21
-1952.5
 31
0.0
  0
LINE
  5
1ED
330
75
100
AcDbEntity
  8
0
 62
     0
100
AcDbLine
 10
14.99999999999996
 20
-1952.5
 30
0.0
 11
14.99999999999996
 21
-1952.5
 31
0.0
  0
LINE
  5
1EE
330
75
100
AcDbEntity
  8
0
 62
     0
100
AcDbLine
 10
16.24999999999996
 20
-1952.5
 30
0.0
 11
16.24999999999996
 21
-1952.5
 31
0.0
  0
LINE
  5
1EF
330
75
100
AcDbEntity
  8
0
 62
     0
100
AcDbLine
 10
17.49999999999996
 20
-1952.5
 30
0.0
 11
17.49999999999996
 21
-1952.5
 31
0.0
  0
LINE
  5
1F0
330
75
100
AcDbEntity
  8
0
 62
     0
100
AcDbLine
 10
18.74999999999996
 20
-1952.5
 30
0.0
 11
18.74999999999996
 21
-1952.5
 31
0.0
  0
LINE
  5
1F1
330
75
100
AcDbEntity
  8
0
 62
     0
100
AcDbLine
 10
19.99999999999996
 20
-1952.5
 30
0.0
 11
19.99999999999996
 21
-1952.5
 31
0.0
  0
LINE
  5
1F2
330
75
100
AcDbEntity
  8
0
 62
     0
100
AcDbLine
 10
21.24999999999996
 20
-1952.5
 30
0.0
 11
21.24999999999996
 21
-1952.5
 31
0.0
  0
LINE
  5
1F3
330
75
100
AcDbEntity
  8
0
 62
     0
100
AcDbLine
 10
22.49999999999996
 20
-1952.5
 30
0.0
 11
22.49999999999996
 21
-1952.5
 31
0.0
  0
LINE
  5
1F4
330
75
100
AcDbEntity
  8
0
 62
     0
100
AcDbLine
 10
23.74999999999996
 20
-1952.5
 30
0.0
 11
23.74999999999996
 21
-1952.5
 31
0.0
  0
LINE
  5
1F5
330
75
100
AcDbEntity
  8
0
 62
     0
100
AcDbLine
 10
24.99999999999996
 20
-1952.5
 30
0.0
 11
24.99999999999996
 21
-1952.5
 31
0.0
  0
LINE
  5
1F6
330
75
100
AcDbEntity
  8
0
 62
     0
100
AcDbLine
 10
26.24999999999996
 20
-1952.5
 30
0.0
 11
26.24999999999996
 21
-1952.5
 31
0.0
  0
LINE
  5
1F7
330
75
100
AcDbEntity
  8
0
 62
     0
100
AcDbLine
 10
27.49999999999996
 20
-1952.5
 30
0.0
 11
27.49999999999996
 21
-1952.5
 31
0.0
  0
LINE
  5
1F8
330
75
100
AcDbEntity
  8
0
 62
     0
100
AcDbLine
 10
28.74999999999996
 20
-1952.5
 30
0.0
 11
28.74999999999996
 21
-1952.5
 31
0.0
  0
LINE
  5
1F9
330
75
100
AcDbEntity
  8
0
 62
     0
100
AcDbLine
 10
29.99999999999996
 20
-1952.5
 30
0.0
 11
29.99999999999996
 21
-1952.5
 31
0.0
  0
LINE
  5
1FA
330
75
100
AcDbEntity
  8
0
 62
     0
100
AcDbLine
 10
31.24999999999996
 20
-1952.5
 30
0.0
 11
31.24999999999996
 21
-1952.5
 31
0.0
  0
LINE
  5
1FB
330
75
100
AcDbEntity
  8
0
 62
     0
100
AcDbLine
 10
32.49999999999996
 20
-1952.5
 30
0.0
 11
32.49999999999996
 21
-1952.5
 31
0.0
  0
LINE
  5
1FC
330
75
100
AcDbEntity
  8
0
 62
     0
100
AcDbLine
 10
33.74999999999996
 20
-1952.5
 30
0.0
 11
33.74999999999996
 21
-1952.5
 31
0.0
  0
LINE
  5
1FD
330
75
100
AcDbEntity
  8
0
 62
     0
100
AcDbLine
 10
34.99999999999996
 20
-1952.5
 30
0.0
 11
34.99999999999996
 21
-1952.5
 31
0.0
  0
LINE
  5
1FE
330
75
100
AcDbEntity
  8
0
 62
     0
100
AcDbLine
 10
-9.375000000000035
 20
-1953.75
 30
0.0
 11
-9.375000000000035
 21
-1953.75
 31
0.0
  0
LINE
  5
1FF
330
75
100
AcDbEntity
  8
0
 62
     0
100
AcDbLine
 10
-8.125000000000035
 20
-1953.75
 30
0.0
 11
-8.125000000000035
 21
-1953.75
 31
0.0
  0
LINE
  5
200
330
75
100
AcDbEntity
  8
0
 62
     0
100
AcDbLine
 10
-6.875000000000035
 20
-1953.75
 30
0.0
 11
-6.875000000000035
 21
-1953.75
 31
0.0
  0
LINE
  5
201
330
75
100
AcDbEntity
  8
0
 62
     0
100
AcDbLine
 10
-5.625000000000035
 20
-1953.75
 30
0.0
 11
-5.625000000000035
 21
-1953.75
 31
0.0
  0
LINE
  5
202
330
75
100
AcDbEntity
  8
0
 62
     0
100
AcDbLine
 10
-4.375000000000035
 20
-1953.75
 30
0.0
 11
-4.375000000000035
 21
-1953.75
 31
0.0
  0
LINE
  5
203
330
75
100
AcDbEntity
  8
0
 62
     0
100
AcDbLine
 10
-3.125000000000035
 20
-1953.75
 30
0.0
 11
-3.125000000000035
 21
-1953.75
 31
0.0
  0
LINE
  5
204
330
75
100
AcDbEntity
  8
0
 62
     0
100
AcDbLine
 10
-1.875000000000035
 20
-1953.75
 30
0.0
 11
-1.875000000000035
 21
-1953.75
 31
0.0
  0
LINE
  5
205
330
75
100
AcDbEntity
  8
0
 62
     0
100
AcDbLine
 10
-0.6250000000000356
 20
-1953.75
 30
0.0
 11
-0.6250000000000356
 21
-1953.75
 31
0.0
  0
LINE
  5
206
330
75
100
AcDbEntity
  8
0
 62
     0
100
AcDbLine
 10
0.6249999999999645
 20
-1953.75
 30
0.0
 11
0.6249999999999645
 21
-1953.75
 31
0.0
  0
LINE
  5
207
330
75
100
AcDbEntity
  8
0
 62
     0
100
AcDbLine
 10
1.874999999999964
 20
-1953.75
 30
0.0
 11
1.874999999999964
 21
-1953.75
 31
0.0
  0
LINE
  5
208
330
75
100
AcDbEntity
  8
0
 62
     0
100
AcDbLine
 10
3.124999999999964
 20
-1953.75
 30
0.0
 11
3.124999999999964
 21
-1953.75
 31
0.0
  0
LINE
  5
209
330
75
100
AcDbEntity
  8
0
 62
     0
100
AcDbLine
 10
4.374999999999964
 20
-1953.75
 30
0.0
 11
4.374999999999964
 21
-1953.75
 31
0.0
  0
LINE
  5
20A
330
75
100
AcDbEntity
  8
0
 62
     0
100
AcDbLine
 10
5.624999999999964
 20
-1953.75
 30
0.0
 11
5.624999999999964
 21
-1953.75
 31
0.0
  0
LINE
  5
20B
330
75
100
AcDbEntity
  8
0
 62
     0
100
AcDbLine
 10
6.875000000000054
 20
-1953.75
 30
0.0
 11
6.875000000000054
 21
-1953.75
 31
0.0
  0
LINE
  5
20C
330
75
100
AcDbEntity
  8
0
 62
     0
100
AcDbLine
 10
8.125000000000053
 20
-1953.75
 30
0.0
 11
8.125000000000053
 21
-1953.75
 31
0.0
  0
LINE
  5
20D
330
75
100
AcDbEntity
  8
0
 62
     0
100
AcDbLine
 10
9.375000000000053
 20
-1953.75
 30
0.0
 11
9.375000000000053
 21
-1953.75
 31
0.0
  0
LINE
  5
20E
330
75
100
AcDbEntity
  8
0
 62
     0
100
AcDbLine
 10
10.62500000000005
 20
-1953.75
 30
0.0
 11
10.62500000000005
 21
-1953.75
 31
0.0
  0
LINE
  5
20F
330
75
100
AcDbEntity
  8
0
 62
     0
100
AcDbLine
 10
11.87500000000005
 20
-1953.75
 30
0.0
 11
11.87500000000005
 21
-1953.75
 31
0.0
  0
LINE
  5
210
330
75
100
AcDbEntity
  8
0
 62
     0
100
AcDbLine
 10
13.12500000000005
 20
-1953.75
 30
0.0
 11
13.12500000000005
 21
-1953.75
 31
0.0
  0
LINE
  5
211
330
75
100
AcDbEntity
  8
0
 62
     0
100
AcDbLine
 10
14.37500000000005
 20
-1953.75
 30
0.0
 11
14.37500000000005
 21
-1953.75
 31
0.0
  0
LINE
  5
212
330
75
100
AcDbEntity
  8
0
 62
     0
100
AcDbLine
 10
15.62500000000005
 20
-1953.75
 30
0.0
 11
15.62500000000005
 21
-1953.75
 31
0.0
  0
LINE
  5
213
330
75
100
AcDbEntity
  8
0
 62
     0
100
AcDbLine
 10
16.87500000000005
 20
-1953.75
 30
0.0
 11
16.87500000000005
 21
-1953.75
 31
0.0
  0
LINE
  5
214
330
75
100
AcDbEntity
  8
0
 62
     0
100
AcDbLine
 10
18.12500000000005
 20
-1953.75
 30
0.0
 11
18.12500000000005
 21
-1953.75
 31
0.0
  0
LINE
  5
215
330
75
100
AcDbEntity
  8
0
 62
     0
100
AcDbLine
 10
19.37500000000005
 20
-1953.75
 30
0.0
 11
19.37500000000005
 21
-1953.75
 31
0.0
  0
LINE
  5
216
330
75
100
AcDbEntity
  8
0
 62
     0
100
AcDbLine
 10
20.62500000000005
 20
-1953.75
 30
0.0
 11
20.62500000000005
 21
-1953.75
 31
0.0
  0
LINE
  5
217
330
75
100
AcDbEntity
  8
0
 62
     0
100
AcDbLine
 10
21.87500000000005
 20
-1953.75
 30
0.0
 11
21.87500000000005
 21
-1953.75
 31
0.0
  0
LINE
  5
218
330
75
100
AcDbEntity
  8
0
 62
     0
100
AcDbLine
 10
23.12500000000005
 20
-1953.75
 30
0.0
 11
23.12500000000005
 21
-1953.75
 31
0.0
  0
LINE
  5
219
330
75
100
AcDbEntity
  8
0
 62
     0
100
AcDbLine
 10
24.37500000000005
 20
-1953.75
 30
0.0
 11
24.37500000000005
 21
-1953.75
 31
0.0
  0
LINE
  5
21A
330
75
100
AcDbEntity
  8
0
 62
     0
100
AcDbLine
 10
25.62500000000005
 20
-1953.75
 30
0.0
 11
25.62500000000005
 21
-1953.75
 31
0.0
  0
LINE
  5
21B
330
75
100
AcDbEntity
  8
0
 62
     0
100
AcDbLine
 10
26.87500000000005
 20
-1953.75
 30
0.0
 11
26.87500000000005
 21
-1953.75
 31
0.0
  0
LINE
  5
21C
330
75
100
AcDbEntity
  8
0
 62
     0
100
AcDbLine
 10
28.12500000000005
 20
-1953.75
 30
0.0
 11
28.12500000000005
 21
-1953.75
 31
0.0
  0
LINE
  5
21D
330
75
100
AcDbEntity
  8
0
 62
     0
100
AcDbLine
 10
29.37500000000005
 20
-1953.75
 30
0.0
 11
29.37500000000005
 21
-1953.75
 31
0.0
  0
LINE
  5
21E
330
75
100
AcDbEntity
  8
0
 62
     0
100
AcDbLine
 10
30.62500000000005
 20
-1953.75
 30
0.0
 11
30.62500000000005
 21
-1953.75
 31
0.0
  0
LINE
  5
21F
330
75
100
AcDbEntity
  8
0
 62
     0
100
AcDbLine
 10
31.87500000000005
 20
-1953.75
 30
0.0
 11
31.87500000000005
 21
-1953.75
 31
0.0
  0
LINE
  5
220
330
75
100
AcDbEntity
  8
0
 62
     0
100
AcDbLine
 10
33.12500000000006
 20
-1953.75
 30
0.0
 11
33.12500000000006
 21
-1953.75
 31
0.0
  0
LINE
  5
221
330
75
100
AcDbEntity
  8
0
 62
     0
100
AcDbLine
 10
34.37500000000006
 20
-1953.75
 30
0.0
 11
34.37500000000006
 21
-1953.75
 31
0.0
  0
LINE
  5
222
330
75
100
AcDbEntity
  8
0
 62
     0
100
AcDbLine
 10
35.62500000000006
 20
-1953.75
 30
0.0
 11
35.62500000000006
 21
-1953.75
 31
0.0
  0
LINE
  5
223
330
75
100
AcDbEntity
  8
0
 62
     0
100
AcDbLine
 10
-8.75000000000003
 20
-1955.0
 30
0.0
 11
-8.75000000000003
 21
-1955.0
 31
0.0
  0
LINE
  5
224
330
75
100
AcDbEntity
  8
0
 62
     0
100
AcDbLine
 10
-7.50000000000003
 20
-1955.0
 30
0.0
 11
-7.50000000000003
 21
-1955.0
 31
0.0
  0
LINE
  5
225
330
75
100
AcDbEntity
  8
0
 62
     0
100
AcDbLine
 10
-6.25000000000003
 20
-1955.0
 30
0.0
 11
-6.25000000000003
 21
-1955.0
 31
0.0
  0
LINE
  5
226
330
75
100
AcDbEntity
  8
0
 62
     0
100
AcDbLine
 10
-5.00000000000003
 20
-1955.0
 30
0.0
 11
-5.00000000000003
 21
-1955.0
 31
0.0
  0
LINE
  5
227
330
75
100
AcDbEntity
  8
0
 62
     0
100
AcDbLine
 10
-3.75000000000003
 20
-1955.0
 30
0.0
 11
-3.75000000000003
 21
-1955.0
 31
0.0
  0
LINE
  5
228
330
75
100
AcDbEntity
  8
0
 62
     0
100
AcDbLine
 10
-2.50000000000003
 20
-1955.0
 30
0.0
 11
-2.50000000000003
 21
-1955.0
 31
0.0
  0
LINE
  5
229
330
75
100
AcDbEntity
  8
0
 62
     0
100
AcDbLine
 10
-1.25000000000003
 20
-1955.0
 30
0.0
 11
-1.25000000000003
 21
-1955.0
 31
0.0
  0
LINE
  5
22A
330
75
100
AcDbEntity
  8
0
 62
     0
100
AcDbLine
 10
-0.0000000000000302
 20
-1955.0
 30
0.0
 11
-0.0000000000000302
 21
-1955.0
 31
0.0
  0
LINE
  5
22B
330
75
100
AcDbEntity
  8
0
 62
     0
100
AcDbLine
 10
1.249999999999969
 20
-1955.0
 30
0.0
 11
1.249999999999969
 21
-1955.0
 31
0.0
  0
LINE
  5
22C
330
75
100
AcDbEntity
  8
0
 62
     0
100
AcDbLine
 10
2.499999999999969
 20
-1955.0
 30
0.0
 11
2.499999999999969
 21
-1955.0
 31
0.0
  0
LINE
  5
22D
330
75
100
AcDbEntity
  8
0
 62
     0
100
AcDbLine
 10
3.749999999999969
 20
-1955.0
 30
0.0
 11
3.749999999999969
 21
-1955.0
 31
0.0
  0
LINE
  5
22E
330
75
100
AcDbEntity
  8
0
 62
     0
100
AcDbLine
 10
4.999999999999969
 20
-1955.0
 30
0.0
 11
4.999999999999969
 21
-1955.0
 31
0.0
  0
LINE
  5
22F
330
75
100
AcDbEntity
  8
0
 62
     0
100
AcDbLine
 10
6.250000000000006
 20
-1955.0
 30
0.0
 11
6.250000000000006
 21
-1955.0
 31
0.0
  0
LINE
  5
230
330
75
100
AcDbEntity
  8
0
 62
     0
100
AcDbLine
 10
7.500000000000006
 20
-1955.0
 30
0.0
 11
7.500000000000006
 21
-1955.0
 31
0.0
  0
LINE
  5
231
330
75
100
AcDbEntity
  8
0
 62
     0
100
AcDbLine
 10
8.750000000000007
 20
-1955.0
 30
0.0
 11
8.750000000000007
 21
-1955.0
 31
0.0
  0
LINE
  5
232
330
75
100
AcDbEntity
  8
0
 62
     0
100
AcDbLine
 10
10.0
 20
-1955.0
 30
0.0
 11
10.0
 21
-1955.0
 31
0.0
  0
LINE
  5
233
330
75
100
AcDbEntity
  8
0
 62
     0
100
AcDbLine
 10
11.25
 20
-1955.0
 30
0.0
 11
11.25
 21
-1955.0
 31
0.0
  0
LINE
  5
234
330
75
100
AcDbEntity
  8
0
 62
     0
100
AcDbLine
 10
12.50000000000001
 20
-1955.0
 30
0.0
 11
12.50000000000001
 21
-1955.0
 31
0.0
  0
LINE
  5
235
330
75
100
AcDbEntity
  8
0
 62
     0
100
AcDbLine
 10
13.75000000000001
 20
-1955.0
 30
0.0
 11
13.75000000000001
 21
-1955.0
 31
0.0
  0
LINE
  5
236
330
75
100
AcDbEntity
  8
0
 62
     0
100
AcDbLine
 10
15.00000000000001
 20
-1955.0
 30
0.0
 11
15.00000000000001
 21
-1955.0
 31
0.0
  0
LINE
  5
237
330
75
100
AcDbEntity
  8
0
 62
     0
100
AcDbLine
 10
16.25000000000001
 20
-1955.0
 30
0.0
 11
16.25000000000001
 21
-1955.0
 31
0.0
  0
LINE
  5
238
330
75
100
AcDbEntity
  8
0
 62
     0
100
AcDbLine
 10
17.50000000000001
 20
-1955.0
 30
0.0
 11
17.50000000000001
 21
-1955.0
 31
0.0
  0
LINE
  5
239
330
75
100
AcDbEntity
  8
0
 62
     0
100
AcDbLine
 10
18.75000000000001
 20
-1955.0
 30
0.0
 11
18.75000000000001
 21
-1955.0
 31
0.0
  0
LINE
  5
23A
330
75
100
AcDbEntity
  8
0
 62
     0
100
AcDbLine
 10
20.00000000000001
 20
-1955.0
 30
0.0
 11
20.00000000000001
 21
-1955.0
 31
0.0
  0
LINE
  5
23B
330
75
100
AcDbEntity
  8
0
 62
     0
100
AcDbLine
 10
21.25000000000001
 20
-1955.0
 30
0.0
 11
21.25000000000001
 21
-1955.0
 31
0.0
  0
LINE
  5
23C
330
75
100
AcDbEntity
  8
0
 62
     0
100
AcDbLine
 10
22.50000000000001
 20
-1955.0
 30
0.0
 11
22.50000000000001
 21
-1955.0
 31
0.0
  0
LINE
  5
23D
330
75
100
AcDbEntity
  8
0
 62
     0
100
AcDbLine
 10
23.75000000000001
 20
-1955.0
 30
0.0
 11
23.75000000000001
 21
-1955.0
 31
0.0
  0
LINE
  5
23E
330
75
100
AcDbEntity
  8
0
 62
     0
100
AcDbLine
 10
25.00000000000001
 20
-1955.0
 30
0.0
 11
25.00000000000001
 21
-1955.0
 31
0.0
  0
LINE
  5
23F
330
75
100
AcDbEntity
  8
0
 62
     0
100
AcDbLine
 10
26.25000000000001
 20
-1955.0
 30
0.0
 11
26.25000000000001
 21
-1955.0
 31
0.0
  0
LINE
  5
240
330
75
100
AcDbEntity
  8
0
 62
     0
100
AcDbLine
 10
27.50000000000001
 20
-1955.0
 30
0.0
 11
27.50000000000001
 21
-1955.0
 31
0.0
  0
LINE
  5
241
330
75
100
AcDbEntity
  8
0
 62
     0
100
AcDbLine
 10
28.75000000000001
 20
-1955.0
 30
0.0
 11
28.75000000000001
 21
-1955.0
 31
0.0
  0
LINE
  5
242
330
75
100
AcDbEntity
  8
0
 62
     0
100
AcDbLine
 10
30.00000000000001
 20
-1955.0
 30
0.0
 11
30.00000000000001
 21
-1955.0
 31
0.0
  0
LINE
  5
243
330
75
100
AcDbEntity
  8
0
 62
     0
100
AcDbLine
 10
31.25000000000001
 20
-1955.0
 30
0.0
 11
31.25000000000001
 21
-1955.0
 31
0.0
  0
LINE
  5
244
330
75
100
AcDbEntity
  8
0
 62
     0
100
AcDbLine
 10
32.50000000000001
 20
-1955.0
 30
0.0
 11
32.50000000000001
 21
-1955.0
 31
0.0
  0
LINE
  5
245
330
75
100
AcDbEntity
  8
0
 62
     0
100
AcDbLine
 10
33.75000000000001
 20
-1955.0
 30
0.0
 11
33.75000000000001
 21
-1955.0
 31
0.0
  0
LINE
  5
246
330
75
100
AcDbEntity
  8
0
 62
     0
100
AcDbLine
 10
35.00000000000001
 20
-1955.0
 30
0.0
 11
35.00000000000001
 21
-1955.0
 31
0.0
  0
LINE
  5
247
330
75
100
AcDbEntity
  8
0
 62
     0
100
AcDbLine
 10
-9.375000000000026
 20
-1956.25
 30
0.0
 11
-9.375000000000026
 21
-1956.25
 31
0.0
  0
LINE
  5
248
330
75
100
AcDbEntity
  8
0
 62
     0
100
AcDbLine
 10
-8.125000000000026
 20
-1956.25
 30
0.0
 11
-8.125000000000026
 21
-1956.25
 31
0.0
  0
LINE
  5
249
330
75
100
AcDbEntity
  8
0
 62
     0
100
AcDbLine
 10
-6.875000000000026
 20
-1956.25
 30
0.0
 11
-6.875000000000026
 21
-1956.25
 31
0.0
  0
LINE
  5
24A
330
75
100
AcDbEntity
  8
0
 62
     0
100
AcDbLine
 10
-5.625000000000026
 20
-1956.25
 30
0.0
 11
-5.625000000000026
 21
-1956.25
 31
0.0
  0
LINE
  5
24B
330
75
100
AcDbEntity
  8
0
 62
     0
100
AcDbLine
 10
-4.375000000000026
 20
-1956.25
 30
0.0
 11
-4.375000000000026
 21
-1956.25
 31
0.0
  0
LINE
  5
24C
330
75
100
AcDbEntity
  8
0
 62
     0
100
AcDbLine
 10
-3.125000000000026
 20
-1956.25
 30
0.0
 11
-3.125000000000026
 21
-1956.25
 31
0.0
  0
LINE
  5
24D
330
75
100
AcDbEntity
  8
0
 62
     0
100
AcDbLine
 10
-1.875000000000026
 20
-1956.25
 30
0.0
 11
-1.875000000000026
 21
-1956.25
 31
0.0
  0
LINE
  5
24E
330
75
100
AcDbEntity
  8
0
 62
     0
100
AcDbLine
 10
-0.6250000000000267
 20
-1956.25
 30
0.0
 11
-0.6250000000000267
 21
-1956.25
 31
0.0
  0
LINE
  5
24F
330
75
100
AcDbEntity
  8
0
 62
     0
100
AcDbLine
 10
0.6249999999999734
 20
-1956.25
 30
0.0
 11
0.6249999999999734
 21
-1956.25
 31
0.0
  0
LINE
  5
250
330
75
100
AcDbEntity
  8
0
 62
     0
100
AcDbLine
 10
1.874999999999973
 20
-1956.25
 30
0.0
 11
1.874999999999973
 21
-1956.25
 31
0.0
  0
LINE
  5
251
330
75
100
AcDbEntity
  8
0
 62
     0
100
AcDbLine
 10
3.124999999999973
 20
-1956.25
 30
0.0
 11
3.124999999999973
 21
-1956.25
 31
0.0
  0
LINE
  5
252
330
75
100
AcDbEntity
  8
0
 62
     0
100
AcDbLine
 10
4.374999999999973
 20
-1956.25
 30
0.0
 11
4.374999999999973
 21
-1956.25
 31
0.0
  0
LINE
  5
253
330
75
100
AcDbEntity
  8
0
 62
     0
100
AcDbLine
 10
5.624999999999973
 20
-1956.25
 30
0.0
 11
5.624999999999973
 21
-1956.25
 31
0.0
  0
LINE
  5
254
330
75
100
AcDbEntity
  8
0
 62
     0
100
AcDbLine
 10
6.874999999999973
 20
-1956.25
 30
0.0
 11
6.874999999999973
 21
-1956.25
 31
0.0
  0
LINE
  5
255
330
75
100
AcDbEntity
  8
0
 62
     0
100
AcDbLine
 10
8.124999999999973
 20
-1956.25
 30
0.0
 11
8.124999999999973
 21
-1956.25
 31
0.0
  0
LINE
  5
256
330
75
100
AcDbEntity
  8
0
 62
     0
100
AcDbLine
 10
9.375000000000026
 20
-1956.25
 30
0.0
 11
9.375000000000026
 21
-1956.25
 31
0.0
  0
LINE
  5
257
330
75
100
AcDbEntity
  8
0
 62
     0
100
AcDbLine
 10
10.62500000000002
 20
-1956.25
 30
0.0
 11
10.62500000000002
 21
-1956.25
 31
0.0
  0
LINE
  5
258
330
75
100
AcDbEntity
  8
0
 62
     0
100
AcDbLine
 10
11.87500000000002
 20
-1956.25
 30
0.0
 11
11.87500000000002
 21
-1956.25
 31
0.0
  0
LINE
  5
259
330
75
100
AcDbEntity
  8
0
 62
     0
100
AcDbLine
 10
13.12500000000002
 20
-1956.25
 30
0.0
 11
13.12500000000002
 21
-1956.25
 31
0.0
  0
LINE
  5
25A
330
75
100
AcDbEntity
  8
0
 62
     0
100
AcDbLine
 10
14.37500000000002
 20
-1956.25
 30
0.0
 11
14.37500000000002
 21
-1956.25
 31
0.0
  0
LINE
  5
25B
330
75
100
AcDbEntity
  8
0
 62
     0
100
AcDbLine
 10
15.62500000000002
 20
-1956.25
 30
0.0
 11
15.62500000000002
 21
-1956.25
 31
0.0
  0
LINE
  5
25C
330
75
100
AcDbEntity
  8
0
 62
     0
100
AcDbLine
 10
16.87500000000003
 20
-1956.25
 30
0.0
 11
16.87500000000003
 21
-1956.25
 31
0.0
  0
LINE
  5
25D
330
75
100
AcDbEntity
  8
0
 62
     0
100
AcDbLine
 10
18.12500000000003
 20
-1956.25
 30
0.0
 11
18.12500000000003
 21
-1956.25
 31
0.0
  0
LINE
  5
25E
330
75
100
AcDbEntity
  8
0
 62
     0
100
AcDbLine
 10
19.37500000000003
 20
-1956.25
 30
0.0
 11
19.37500000000003
 21
-1956.25
 31
0.0
  0
LINE
  5
25F
330
75
100
AcDbEntity
  8
0
 62
     0
100
AcDbLine
 10
20.62500000000003
 20
-1956.25
 30
0.0
 11
20.62500000000003
 21
-1956.25
 31
0.0
  0
LINE
  5
260
330
75
100
AcDbEntity
  8
0
 62
     0
100
AcDbLine
 10
21.87500000000003
 20
-1956.25
 30
0.0
 11
21.87500000000003
 21
-1956.25
 31
0.0
  0
LINE
  5
261
330
75
100
AcDbEntity
  8
0
 62
     0
100
AcDbLine
 10
23.12500000000003
 20
-1956.25
 30
0.0
 11
23.12500000000003
 21
-1956.25
 31
0.0
  0
LINE
  5
262
330
75
100
AcDbEntity
  8
0
 62
     0
100
AcDbLine
 10
24.37500000000003
 20
-1956.25
 30
0.0
 11
24.37500000000003
 21
-1956.25
 31
0.0
  0
LINE
  5
263
330
75
100
AcDbEntity
  8
0
 62
     0
100
AcDbLine
 10
25.62500000000003
 20
-1956.25
 30
0.0
 11
25.62500000000003
 21
-1956.25
 31
0.0
  0
LINE
  5
264
330
75
100
AcDbEntity
  8
0
 62
     0
100
AcDbLine
 10
26.87500000000003
 20
-1956.25
 30
0.0
 11
26.87500000000003
 21
-1956.25
 31
0.0
  0
LINE
  5
265
330
75
100
AcDbEntity
  8
0
 62
     0
100
AcDbLine
 10
28.12500000000003
 20
-1956.25
 30
0.0
 11
28.12500000000003
 21
-1956.25
 31
0.0
  0
LINE
  5
266
330
75
100
AcDbEntity
  8
0
 62
     0
100
AcDbLine
 10
29.37500000000003
 20
-1956.25
 30
0.0
 11
29.37500000000003
 21
-1956.25
 31
0.0
  0
LINE
  5
267
330
75
100
AcDbEntity
  8
0
 62
     0
100
AcDbLine
 10
30.62500000000003
 20
-1956.25
 30
0.0
 11
30.62500000000003
 21
-1956.25
 31
0.0
  0
LINE
  5
268
330
75
100
AcDbEntity
  8
0
 62
     0
100
AcDbLine
 10
31.87500000000003
 20
-1956.25
 30
0.0
 11
31.87500000000003
 21
-1956.25
 31
0.0
  0
LINE
  5
269
330
75
100
AcDbEntity
  8
0
 62
     0
100
AcDbLine
 10
-8.749999999999998
 20
-1957.5
 30
0.0
 11
-8.749999999999998
 21
-1957.5
 31
0.0
  0
LINE
  5
26A
330
75
100
AcDbEntity
  8
0
 62
     0
100
AcDbLine
 10
-7.499999999999998
 20
-1957.5
 30
0.0
 11
-7.499999999999998
 21
-1957.5
 31
0.0
  0
LINE
  5
26B
330
75
100
AcDbEntity
  8
0
 62
     0
100
AcDbLine
 10
-6.249999999999998
 20
-1957.5
 30
0.0
 11
-6.249999999999998
 21
-1957.5
 31
0.0
  0
LINE
  5
26C
330
75
100
AcDbEntity
  8
0
 62
     0
100
AcDbLine
 10
-4.999999999999998
 20
-1957.5
 30
0.0
 11
-4.999999999999998
 21
-1957.5
 31
0.0
  0
LINE
  5
26D
330
75
100
AcDbEntity
  8
0
 62
     0
100
AcDbLine
 10
-3.749999999999998
 20
-1957.5
 30
0.0
 11
-3.749999999999998
 21
-1957.5
 31
0.0
  0
LINE
  5
26E
330
75
100
AcDbEntity
  8
0
 62
     0
100
AcDbLine
 10
-2.499999999999998
 20
-1957.5
 30
0.0
 11
-2.499999999999998
 21
-1957.5
 31
0.0
  0
LINE
  5
26F
330
75
100
AcDbEntity
  8
0
 62
     0
100
AcDbLine
 10
-1.249999999999998
 20
-1957.5
 30
0.0
 11
-1.249999999999998
 21
-1957.5
 31
0.0
  0
LINE
  5
270
330
75
100
AcDbEntity
  8
0
 62
     0
100
AcDbLine
 10
0.0000000000000018
 20
-1957.5
 30
0.0
 11
0.0000000000000018
 21
-1957.5
 31
0.0
  0
LINE
  5
271
330
75
100
AcDbEntity
  8
0
 62
     0
100
AcDbLine
 10
1.250000000000001
 20
-1957.5
 30
0.0
 11
1.250000000000001
 21
-1957.5
 31
0.0
  0
LINE
  5
272
330
75
100
AcDbEntity
  8
0
 62
     0
100
AcDbLine
 10
2.500000000000001
 20
-1957.5
 30
0.0
 11
2.500000000000001
 21
-1957.5
 31
0.0
  0
LINE
  5
273
330
75
100
AcDbEntity
  8
0
 62
     0
100
AcDbLine
 10
3.750000000000001
 20
-1957.5
 30
0.0
 11
3.750000000000001
 21
-1957.5
 31
0.0
  0
LINE
  5
274
330
75
100
AcDbEntity
  8
0
 62
     0
100
AcDbLine
 10
5.000000000000001
 20
-1957.5
 30
0.0
 11
5.000000000000001
 21
-1957.5
 31
0.0
  0
LINE
  5
275
330
75
100
AcDbEntity
  8
0
 62
     0
100
AcDbLine
 10
6.250000000000001
 20
-1957.5
 30
0.0
 11
6.250000000000001
 21
-1957.5
 31
0.0
  0
LINE
  5
276
330
75
100
AcDbEntity
  8
0
 62
     0
100
AcDbLine
 10
7.500000000000001
 20
-1957.5
 30
0.0
 11
7.500000000000001
 21
-1957.5
 31
0.0
  0
LINE
  5
277
330
75
100
AcDbEntity
  8
0
 62
     0
100
AcDbLine
 10
8.750000000000001
 20
-1957.5
 30
0.0
 11
8.750000000000001
 21
-1957.5
 31
0.0
  0
LINE
  5
278
330
75
100
AcDbEntity
  8
0
 62
     0
100
AcDbLine
 10
10.0
 20
-1957.5
 30
0.0
 11
10.0
 21
-1957.5
 31
0.0
  0
LINE
  5
279
330
75
100
AcDbEntity
  8
0
 62
     0
100
AcDbLine
 10
11.25
 20
-1957.5
 30
0.0
 11
11.25
 21
-1957.5
 31
0.0
  0
LINE
  5
27A
330
75
100
AcDbEntity
  8
0
 62
     0
100
AcDbLine
 10
12.50000000000004
 20
-1957.5
 30
0.0
 11
12.50000000000004
 21
-1957.5
 31
0.0
  0
LINE
  5
27B
330
75
100
AcDbEntity
  8
0
 62
     0
100
AcDbLine
 10
13.75000000000004
 20
-1957.5
 30
0.0
 11
13.75000000000004
 21
-1957.5
 31
0.0
  0
LINE
  5
27C
330
75
100
AcDbEntity
  8
0
 62
     0
100
AcDbLine
 10
15.00000000000004
 20
-1957.5
 30
0.0
 11
15.00000000000004
 21
-1957.5
 31
0.0
  0
LINE
  5
27D
330
75
100
AcDbEntity
  8
0
 62
     0
100
AcDbLine
 10
16.25000000000004
 20
-1957.5
 30
0.0
 11
16.25000000000004
 21
-1957.5
 31
0.0
  0
LINE
  5
27E
330
75
100
AcDbEntity
  8
0
 62
     0
100
AcDbLine
 10
17.50000000000004
 20
-1957.5
 30
0.0
 11
17.50000000000004
 21
-1957.5
 31
0.0
  0
LINE
  5
27F
330
75
100
AcDbEntity
  8
0
 62
     0
100
AcDbLine
 10
18.75000000000004
 20
-1957.5
 30
0.0
 11
18.75000000000004
 21
-1957.5
 31
0.0
  0
LINE
  5
280
330
75
100
AcDbEntity
  8
0
 62
     0
100
AcDbLine
 10
20.00000000000004
 20
-1957.5
 30
0.0
 11
20.00000000000004
 21
-1957.5
 31
0.0
  0
LINE
  5
281
330
75
100
AcDbEntity
  8
0
 62
     0
100
AcDbLine
 10
21.25000000000004
 20
-1957.5
 30
0.0
 11
21.25000000000004
 21
-1957.5
 31
0.0
  0
LINE
  5
282
330
75
100
AcDbEntity
  8
0
 62
     0
100
AcDbLine
 10
22.50000000000004
 20
-1957.5
 30
0.0
 11
22.50000000000004
 21
-1957.5
 31
0.0
  0
LINE
  5
283
330
75
100
AcDbEntity
  8
0
 62
     0
100
AcDbLine
 10
23.75000000000004
 20
-1957.5
 30
0.0
 11
23.75000000000004
 21
-1957.5
 31
0.0
  0
LINE
  5
284
330
75
100
AcDbEntity
  8
0
 62
     0
100
AcDbLine
 10
25.00000000000004
 20
-1957.5
 30
0.0
 11
25.00000000000004
 21
-1957.5
 31
0.0
  0
LINE
  5
285
330
75
100
AcDbEntity
  8
0
 62
     0
100
AcDbLine
 10
26.25000000000004
 20
-1957.5
 30
0.0
 11
26.25000000000004
 21
-1957.5
 31
0.0
  0
LINE
  5
286
330
75
100
AcDbEntity
  8
0
 62
     0
100
AcDbLine
 10
27.50000000000004
 20
-1957.5
 30
0.0
 11
27.50000000000004
 21
-1957.5
 31
0.0
  0
LINE
  5
287
330
75
100
AcDbEntity
  8
0
 62
     0
100
AcDbLine
 10
-8.124999999999971
 20
-1958.75
 30
0.0
 11
-8.124999999999971
 21
-1958.75
 31
0.0
  0
LINE
  5
288
330
75
100
AcDbEntity
  8
0
 62
     0
100
AcDbLine
 10
-6.874999999999971
 20
-1958.75
 30
0.0
 11
-6.874999999999971
 21
-1958.75
 31
0.0
  0
LINE
  5
289
330
75
100
AcDbEntity
  8
0
 62
     0
100
AcDbLine
 10
-5.624999999999971
 20
-1958.75
 30
0.0
 11
-5.624999999999971
 21
-1958.75
 31
0.0
  0
LINE
  5
28A
330
75
100
AcDbEntity
  8
0
 62
     0
100
AcDbLine
 10
-4.374999999999971
 20
-1958.75
 30
0.0
 11
-4.374999999999971
 21
-1958.75
 31
0.0
  0
LINE
  5
28B
330
75
100
AcDbEntity
  8
0
 62
     0
100
AcDbLine
 10
-3.124999999999971
 20
-1958.75
 30
0.0
 11
-3.124999999999971
 21
-1958.75
 31
0.0
  0
LINE
  5
28C
330
75
100
AcDbEntity
  8
0
 62
     0
100
AcDbLine
 10
-1.874999999999971
 20
-1958.75
 30
0.0
 11
-1.874999999999971
 21
-1958.75
 31
0.0
  0
LINE
  5
28D
330
75
100
AcDbEntity
  8
0
 62
     0
100
AcDbLine
 10
-0.6249999999999716
 20
-1958.75
 30
0.0
 11
-0.6249999999999716
 21
-1958.75
 31
0.0
  0
LINE
  5
28E
330
75
100
AcDbEntity
  8
0
 62
     0
100
AcDbLine
 10
0.6250000000000285
 20
-1958.75
 30
0.0
 11
0.6250000000000285
 21
-1958.75
 31
0.0
  0
LINE
  5
28F
330
75
100
AcDbEntity
  8
0
 62
     0
100
AcDbLine
 10
1.875000000000028
 20
-1958.75
 30
0.0
 11
1.875000000000028
 21
-1958.75
 31
0.0
  0
LINE
  5
290
330
75
100
AcDbEntity
  8
0
 62
     0
100
AcDbLine
 10
3.125000000000028
 20
-1958.75
 30
0.0
 11
3.125000000000028
 21
-1958.75
 31
0.0
  0
LINE
  5
291
330
75
100
AcDbEntity
  8
0
 62
     0
100
AcDbLine
 10
4.375000000000028
 20
-1958.75
 30
0.0
 11
4.375000000000028
 21
-1958.75
 31
0.0
  0
LINE
  5
292
330
75
100
AcDbEntity
  8
0
 62
     0
100
AcDbLine
 10
5.625000000000028
 20
-1958.75
 30
0.0
 11
5.625000000000028
 21
-1958.75
 31
0.0
  0
LINE
  5
293
330
75
100
AcDbEntity
  8
0
 62
     0
100
AcDbLine
 10
6.875000000000028
 20
-1958.75
 30
0.0
 11
6.875000000000028
 21
-1958.75
 31
0.0
  0
LINE
  5
294
330
75
100
AcDbEntity
  8
0
 62
     0
100
AcDbLine
 10
8.125000000000028
 20
-1958.75
 30
0.0
 11
8.125000000000028
 21
-1958.75
 31
0.0
  0
LINE
  5
295
330
75
100
AcDbEntity
  8
0
 62
     0
100
AcDbLine
 10
9.375000000000028
 20
-1958.75
 30
0.0
 11
9.375000000000028
 21
-1958.75
 31
0.0
  0
LINE
  5
296
330
75
100
AcDbEntity
  8
0
 62
     0
100
AcDbLine
 10
10.62500000000003
 20
-1958.75
 30
0.0
 11
10.62500000000003
 21
-1958.75
 31
0.0
  0
LINE
  5
297
330
75
100
AcDbEntity
  8
0
 62
     0
100
AcDbLine
 10
11.87500000000003
 20
-1958.75
 30
0.0
 11
11.87500000000003
 21
-1958.75
 31
0.0
  0
LINE
  5
298
330
75
100
AcDbEntity
  8
0
 62
     0
100
AcDbLine
 10
13.12500000000003
 20
-1958.75
 30
0.0
 11
13.12500000000003
 21
-1958.75
 31
0.0
  0
LINE
  5
299
330
75
100
AcDbEntity
  8
0
 62
     0
100
AcDbLine
 10
14.37500000000003
 20
-1958.75
 30
0.0
 11
14.37500000000003
 21
-1958.75
 31
0.0
  0
LINE
  5
29A
330
75
100
AcDbEntity
  8
0
 62
     0
100
AcDbLine
 10
15.62500000000003
 20
-1958.75
 30
0.0
 11
15.62500000000003
 21
-1958.75
 31
0.0
  0
LINE
  5
29B
330
75
100
AcDbEntity
  8
0
 62
     0
100
AcDbLine
 10
16.87500000000003
 20
-1958.75
 30
0.0
 11
16.87500000000003
 21
-1958.75
 31
0.0
  0
LINE
  5
29C
330
75
100
AcDbEntity
  8
0
 62
     0
100
AcDbLine
 10
18.12500000000003
 20
-1958.75
 30
0.0
 11
18.12500000000003
 21
-1958.75
 31
0.0
  0
LINE
  5
29D
330
75
100
AcDbEntity
  8
0
 62
     0
100
AcDbLine
 10
19.37500000000004
 20
-1958.75
 30
0.0
 11
19.37500000000004
 21
-1958.75
 31
0.0
  0
LINE
  5
29E
330
75
100
AcDbEntity
  8
0
 62
     0
100
AcDbLine
 10
20.62500000000004
 20
-1958.75
 30
0.0
 11
20.62500000000004
 21
-1958.75
 31
0.0
  0
LINE
  5
29F
330
75
100
AcDbEntity
  8
0
 62
     0
100
AcDbLine
 10
21.87500000000004
 20
-1958.75
 30
0.0
 11
21.87500000000004
 21
-1958.75
 31
0.0
  0
LINE
  5
2A0
330
75
100
AcDbEntity
  8
0
 62
     0
100
AcDbLine
 10
23.12500000000004
 20
-1958.75
 30
0.0
 11
23.12500000000004
 21
-1958.75
 31
0.0
  0
LINE
  5
2A1
330
75
100
AcDbEntity
  8
0
 62
     0
100
AcDbLine
 10
24.37500000000004
 20
-1958.75
 30
0.0
 11
24.37500000000004
 21
-1958.75
 31
0.0
  0
LINE
  5
2A2
330
75
100
AcDbEntity
  8
0
 62
     0
100
AcDbLine
 10
-6.249999999999944
 20
-1960.0
 30
0.0
 11
-6.249999999999944
 21
-1960.0
 31
0.0
  0
LINE
  5
2A3
330
75
100
AcDbEntity
  8
0
 62
     0
100
AcDbLine
 10
-4.999999999999944
 20
-1960.0
 30
0.0
 11
-4.999999999999944
 21
-1960.0
 31
0.0
  0
LINE
  5
2A4
330
75
100
AcDbEntity
  8
0
 62
     0
100
AcDbLine
 10
-3.749999999999944
 20
-1960.0
 30
0.0
 11
-3.749999999999944
 21
-1960.0
 31
0.0
  0
LINE
  5
2A5
330
75
100
AcDbEntity
  8
0
 62
     0
100
AcDbLine
 10
-2.499999999999944
 20
-1960.0
 30
0.0
 11
-2.499999999999944
 21
-1960.0
 31
0.0
  0
LINE
  5
2A6
330
75
100
AcDbEntity
  8
0
 62
     0
100
AcDbLine
 10
-1.249999999999944
 20
-1960.0
 30
0.0
 11
-1.249999999999944
 21
-1960.0
 31
0.0
  0
LINE
  5
2A7
330
75
100
AcDbEntity
  8
0
 62
     0
100
AcDbLine
 10
0.000000000000056
 20
-1960.0
 30
0.0
 11
0.000000000000056
 21
-1960.0
 31
0.0
  0
LINE
  5
2A8
330
75
100
AcDbEntity
  8
0
 62
     0
100
AcDbLine
 10
1.250000000000055
 20
-1960.0
 30
0.0
 11
1.250000000000055
 21
-1960.0
 31
0.0
  0
LINE
  5
2A9
330
75
100
AcDbEntity
  8
0
 62
     0
100
AcDbLine
 10
2.500000000000055
 20
-1960.0
 30
0.0
 11
2.500000000000055
 21
-1960.0
 31
0.0
  0
LINE
  5
2AA
330
75
100
AcDbEntity
  8
0
 62
     0
100
AcDbLine
 10
3.750000000000055
 20
-1960.0
 30
0.0
 11
3.750000000000055
 21
-1960.0
 31
0.0
  0
LINE
  5
2AB
330
75
100
AcDbEntity
  8
0
 62
     0
100
AcDbLine
 10
5.000000000000055
 20
-1960.0
 30
0.0
 11
5.000000000000055
 21
-1960.0
 31
0.0
  0
LINE
  5
2AC
330
75
100
AcDbEntity
  8
0
 62
     0
100
AcDbLine
 10
6.250000000000055
 20
-1960.0
 30
0.0
 11
6.250000000000055
 21
-1960.0
 31
0.0
  0
LINE
  5
2AD
330
75
100
AcDbEntity
  8
0
 62
     0
100
AcDbLine
 10
7.500000000000055
 20
-1960.0
 30
0.0
 11
7.500000000000055
 21
-1960.0
 31
0.0
  0
LINE
  5
2AE
330
75
100
AcDbEntity
  8
0
 62
     0
100
AcDbLine
 10
8.750000000000056
 20
-1960.0
 30
0.0
 11
8.750000000000056
 21
-1960.0
 31
0.0
  0
LINE
  5
2AF
330
75
100
AcDbEntity
  8
0
 62
     0
100
AcDbLine
 10
10.00000000000005
 20
-1960.0
 30
0.0
 11
10.00000000000005
 21
-1960.0
 31
0.0
  0
LINE
  5
2B0
330
75
100
AcDbEntity
  8
0
 62
     0
100
AcDbLine
 10
11.25000000000005
 20
-1960.0
 30
0.0
 11
11.25000000000005
 21
-1960.0
 31
0.0
  0
LINE
  5
2B1
330
75
100
AcDbEntity
  8
0
 62
     0
100
AcDbLine
 10
12.50000000000005
 20
-1960.0
 30
0.0
 11
12.50000000000005
 21
-1960.0
 31
0.0
  0
LINE
  5
2B2
330
75
100
AcDbEntity
  8
0
 62
     0
100
AcDbLine
 10
13.75000000000005
 20
-1960.0
 30
0.0
 11
13.75000000000005
 21
-1960.0
 31
0.0
  0
LINE
  5
2B3
330
75
100
AcDbEntity
  8
0
 62
     0
100
AcDbLine
 10
15.00000000000006
 20
-1960.0
 30
0.0
 11
15.00000000000006
 21
-1960.0
 31
0.0
  0
LINE
  5
2B4
330
75
100
AcDbEntity
  8
0
 62
     0
100
AcDbLine
 10
16.25000000000006
 20
-1960.0
 30
0.0
 11
16.25000000000006
 21
-1960.0
 31
0.0
  0
LINE
  5
2B5
330
75
100
AcDbEntity
  8
0
 62
     0
100
AcDbLine
 10
17.50000000000006
 20
-1960.0
 30
0.0
 11
17.50000000000006
 21
-1960.0
 31
0.0
  0
LINE
  5
2B6
330
75
100
AcDbEntity
  8
0
 62
     0
100
AcDbLine
 10
18.75000000000006
 20
-1960.0
 30
0.0
 11
18.75000000000006
 21
-1960.0
 31
0.0
  0
LINE
  5
2B7
330
75
100
AcDbEntity
  8
0
 62
     0
100
AcDbLine
 10
20.00000000000006
 20
-1960.0
 30
0.0
 11
20.00000000000006
 21
-1960.0
 31
0.0
  0
LINE
  5
2B8
330
75
100
AcDbEntity
  8
0
 62
     0
100
AcDbLine
 10
21.25000000000006
 20
-1960.0
 30
0.0
 11
21.25000000000006
 21
-1960.0
 31
0.0
  0
LINE
  5
2B9
330
75
100
AcDbEntity
  8
0
 62
     0
100
AcDbLine
 10
22.50000000000006
 20
-1960.0
 30
0.0
 11
22.50000000000006
 21
-1960.0
 31
0.0
  0
LINE
  5
2BA
330
75
100
AcDbEntity
  8
0
 62
     0
100
AcDbLine
 10
23.75000000000006
 20
-1960.0
 30
0.0
 11
23.75000000000006
 21
-1960.0
 31
0.0
  0
LINE
  5
2BB
330
75
100
AcDbEntity
  8
0
 62
     0
100
AcDbLine
 10
-5.624999999999994
 20
-1961.25
 30
0.0
 11
-5.624999999999994
 21
-1961.25
 31
0.0
  0
LINE
  5
2BC
330
75
100
AcDbEntity
  8
0
 62
     0
100
AcDbLine
 10
-4.374999999999994
 20
-1961.25
 30
0.0
 11
-4.374999999999994
 21
-1961.25
 31
0.0
  0
LINE
  5
2BD
330
75
100
AcDbEntity
  8
0
 62
     0
100
AcDbLine
 10
-3.124999999999994
 20
-1961.25
 30
0.0
 11
-3.124999999999994
 21
-1961.25
 31
0.0
  0
LINE
  5
2BE
330
75
100
AcDbEntity
  8
0
 62
     0
100
AcDbLine
 10
-1.874999999999994
 20
-1961.25
 30
0.0
 11
-1.874999999999994
 21
-1961.25
 31
0.0
  0
LINE
  5
2BF
330
75
100
AcDbEntity
  8
0
 62
     0
100
AcDbLine
 10
-0.6249999999999947
 20
-1961.25
 30
0.0
 11
-0.6249999999999947
 21
-1961.25
 31
0.0
  0
LINE
  5
2C0
330
75
100
AcDbEntity
  8
0
 62
     0
100
AcDbLine
 10
0.6250000000000054
 20
-1961.25
 30
0.0
 11
0.6250000000000054
 21
-1961.25
 31
0.0
  0
LINE
  5
2C1
330
75
100
AcDbEntity
  8
0
 62
     0
100
AcDbLine
 10
1.875000000000005
 20
-1961.25
 30
0.0
 11
1.875000000000005
 21
-1961.25
 31
0.0
  0
LINE
  5
2C2
330
75
100
AcDbEntity
  8
0
 62
     0
100
AcDbLine
 10
3.125000000000005
 20
-1961.25
 30
0.0
 11
3.125000000000005
 21
-1961.25
 31
0.0
  0
LINE
  5
2C3
330
75
100
AcDbEntity
  8
0
 62
     0
100
AcDbLine
 10
4.375000000000005
 20
-1961.25
 30
0.0
 11
4.375000000000005
 21
-1961.25
 31
0.0
  0
LINE
  5
2C4
330
75
100
AcDbEntity
  8
0
 62
     0
100
AcDbLine
 10
5.625000000000005
 20
-1961.25
 30
0.0
 11
5.625000000000005
 21
-1961.25
 31
0.0
  0
LINE
  5
2C5
330
75
100
AcDbEntity
  8
0
 62
     0
100
AcDbLine
 10
6.875000000000005
 20
-1961.25
 30
0.0
 11
6.875000000000005
 21
-1961.25
 31
0.0
  0
LINE
  5
2C6
330
75
100
AcDbEntity
  8
0
 62
     0
100
AcDbLine
 10
8.125000000000005
 20
-1961.25
 30
0.0
 11
8.125000000000005
 21
-1961.25
 31
0.0
  0
LINE
  5
2C7
330
75
100
AcDbEntity
  8
0
 62
     0
100
AcDbLine
 10
9.375000000000005
 20
-1961.25
 30
0.0
 11
9.375000000000005
 21
-1961.25
 31
0.0
  0
LINE
  5
2C8
330
75
100
AcDbEntity
  8
0
 62
     0
100
AcDbLine
 10
10.625
 20
-1961.25
 30
0.0
 11
10.625
 21
-1961.25
 31
0.0
  0
LINE
  5
2C9
330
75
100
AcDbEntity
  8
0
 62
     0
100
AcDbLine
 10
11.875
 20
-1961.25
 30
0.0
 11
11.875
 21
-1961.25
 31
0.0
  0
LINE
  5
2CA
330
75
100
AcDbEntity
  8
0
 62
     0
100
AcDbLine
 10
13.125
 20
-1961.25
 30
0.0
 11
13.125
 21
-1961.25
 31
0.0
  0
LINE
  5
2CB
330
75
100
AcDbEntity
  8
0
 62
     0
100
AcDbLine
 10
14.375
 20
-1961.25
 30
0.0
 11
14.375
 21
-1961.25
 31
0.0
  0
LINE
  5
2CC
330
75
100
AcDbEntity
  8
0
 62
     0
100
AcDbLine
 10
15.625
 20
-1961.25
 30
0.0
 11
15.625
 21
-1961.25
 31
0.0
  0
LINE
  5
2CD
330
75
100
AcDbEntity
  8
0
 62
     0
100
AcDbLine
 10
16.87500000000001
 20
-1961.25
 30
0.0
 11
16.87500000000001
 21
-1961.25
 31
0.0
  0
LINE
  5
2CE
330
75
100
AcDbEntity
  8
0
 62
     0
100
AcDbLine
 10
18.12500000000001
 20
-1961.25
 30
0.0
 11
18.12500000000001
 21
-1961.25
 31
0.0
  0
LINE
  5
2CF
330
75
100
AcDbEntity
  8
0
 62
     0
100
AcDbLine
 10
19.37500000000001
 20
-1961.25
 30
0.0
 11
19.37500000000001
 21
-1961.25
 31
0.0
  0
LINE
  5
2D0
330
75
100
AcDbEntity
  8
0
 62
     0
100
AcDbLine
 10
20.62500000000001
 20
-1961.25
 30
0.0
 11
20.62500000000001
 21
-1961.25
 31
0.0
  0
LINE
  5
2D1
330
75
100
AcDbEntity
  8
0
 62
     0
100
AcDbLine
 10
21.87500000000001
 20
-1961.25
 30
0.0
 11
21.87500000000001
 21
-1961.25
 31
0.0
  0
LINE
  5
2D2
330
75
100
AcDbEntity
  8
0
 62
     0
100
AcDbLine
 10
-3.750000000000039
 20
-1962.5
 30
0.0
 11
-3.750000000000039
 21
-1962.5
 31
0.0
  0
LINE
  5
2D3
330
75
100
AcDbEntity
  8
0
 62
     0
100
AcDbLine
 10
-2.500000000000039
 20
-1962.5
 30
0.0
 11
-2.500000000000039
 21
-1962.5
 31
0.0
  0
LINE
  5
2D4
330
75
100
AcDbEntity
  8
0
 62
     0
100
AcDbLine
 10
-1.250000000000039
 20
-1962.5
 30
0.0
 11
-1.250000000000039
 21
-1962.5
 31
0.0
  0
LINE
  5
2D5
330
75
100
AcDbEntity
  8
0
 62
     0
100
AcDbLine
 10
-0.00000000000004
 20
-1962.5
 30
0.0
 11
-0.00000000000004
 21
-1962.5
 31
0.0
  0
LINE
  5
2D6
330
75
100
AcDbEntity
  8
0
 62
     0
100
AcDbLine
 10
1.24999999999996
 20
-1962.5
 30
0.0
 11
1.24999999999996
 21
-1962.5
 31
0.0
  0
LINE
  5
2D7
330
75
100
AcDbEntity
  8
0
 62
     0
100
AcDbLine
 10
2.49999999999996
 20
-1962.5
 30
0.0
 11
2.49999999999996
 21
-1962.5
 31
0.0
  0
LINE
  5
2D8
330
75
100
AcDbEntity
  8
0
 62
     0
100
AcDbLine
 10
3.74999999999996
 20
-1962.5
 30
0.0
 11
3.74999999999996
 21
-1962.5
 31
0.0
  0
LINE
  5
2D9
330
75
100
AcDbEntity
  8
0
 62
     0
100
AcDbLine
 10
4.99999999999996
 20
-1962.5
 30
0.0
 11
4.99999999999996
 21
-1962.5
 31
0.0
  0
LINE
  5
2DA
330
75
100
AcDbEntity
  8
0
 62
     0
100
AcDbLine
 10
6.24999999999996
 20
-1962.5
 30
0.0
 11
6.24999999999996
 21
-1962.5
 31
0.0
  0
LINE
  5
2DB
330
75
100
AcDbEntity
  8
0
 62
     0
100
AcDbLine
 10
7.49999999999996
 20
-1962.5
 30
0.0
 11
7.49999999999996
 21
-1962.5
 31
0.0
  0
LINE
  5
2DC
330
75
100
AcDbEntity
  8
0
 62
     0
100
AcDbLine
 10
8.74999999999996
 20
-1962.5
 30
0.0
 11
8.74999999999996
 21
-1962.5
 31
0.0
  0
LINE
  5
2DD
330
75
100
AcDbEntity
  8
0
 62
     0
100
AcDbLine
 10
9.99999999999996
 20
-1962.5
 30
0.0
 11
9.99999999999996
 21
-1962.5
 31
0.0
  0
LINE
  5
2DE
330
75
100
AcDbEntity
  8
0
 62
     0
100
AcDbLine
 10
11.24999999999996
 20
-1962.5
 30
0.0
 11
11.24999999999996
 21
-1962.5
 31
0.0
  0
LINE
  5
2DF
330
75
100
AcDbEntity
  8
0
 62
     0
100
AcDbLine
 10
12.49999999999996
 20
-1962.5
 30
0.0
 11
12.49999999999996
 21
-1962.5
 31
0.0
  0
LINE
  5
2E0
330
75
100
AcDbEntity
  8
0
 62
     0
100
AcDbLine
 10
13.74999999999996
 20
-1962.5
 30
0.0
 11
13.74999999999996
 21
-1962.5
 31
0.0
  0
LINE
  5
2E1
330
75
100
AcDbEntity
  8
0
 62
     0
100
AcDbLine
 10
14.99999999999996
 20
-1962.5
 30
0.0
 11
14.99999999999996
 21
-1962.5
 31
0.0
  0
LINE
  5
2E2
330
75
100
AcDbEntity
  8
0
 62
     0
100
AcDbLine
 10
16.24999999999996
 20
-1962.5
 30
0.0
 11
16.24999999999996
 21
-1962.5
 31
0.0
  0
LINE
  5
2E3
330
75
100
AcDbEntity
  8
0
 62
     0
100
AcDbLine
 10
17.49999999999996
 20
-1962.5
 30
0.0
 11
17.49999999999996
 21
-1962.5
 31
0.0
  0
LINE
  5
2E4
330
75
100
AcDbEntity
  8
0
 62
     0
100
AcDbLine
 10
18.74999999999996
 20
-1962.5
 30
0.0
 11
18.74999999999996
 21
-1962.5
 31
0.0
  0
LINE
  5
2E5
330
75
100
AcDbEntity
  8
0
 62
     0
100
AcDbLine
 10
19.99999999999996
 20
-1962.5
 30
0.0
 11
19.99999999999996
 21
-1962.5
 31
0.0
  0
LINE
  5
2E6
330
75
100
AcDbEntity
  8
0
 62
     0
100
AcDbLine
 10
-0.6249999999999445
 20
-1963.75
 30
0.0
 11
-0.6249999999999445
 21
-1963.75
 31
0.0
  0
LINE
  5
2E7
330
75
100
AcDbEntity
  8
0
 62
     0
100
AcDbLine
 10
0.6250000000000555
 20
-1963.75
 30
0.0
 11
0.6250000000000555
 21
-1963.75
 31
0.0
  0
LINE
  5
2E8
330
75
100
AcDbEntity
  8
0
 62
     0
100
AcDbLine
 10
1.875000000000055
 20
-1963.75
 30
0.0
 11
1.875000000000055
 21
-1963.75
 31
0.0
  0
LINE
  5
2E9
330
75
100
AcDbEntity
  8
0
 62
     0
100
AcDbLine
 10
3.125000000000055
 20
-1963.75
 30
0.0
 11
3.125000000000055
 21
-1963.75
 31
0.0
  0
LINE
  5
2EA
330
75
100
AcDbEntity
  8
0
 62
     0
100
AcDbLine
 10
4.375000000000055
 20
-1963.75
 30
0.0
 11
4.375000000000055
 21
-1963.75
 31
0.0
  0
LINE
  5
2EB
330
75
100
AcDbEntity
  8
0
 62
     0
100
AcDbLine
 10
5.625000000000055
 20
-1963.75
 30
0.0
 11
5.625000000000055
 21
-1963.75
 31
0.0
  0
LINE
  5
2EC
330
75
100
AcDbEntity
  8
0
 62
     0
100
AcDbLine
 10
6.875000000000055
 20
-1963.75
 30
0.0
 11
6.875000000000055
 21
-1963.75
 31
0.0
  0
LINE
  5
2ED
330
75
100
AcDbEntity
  8
0
 62
     0
100
AcDbLine
 10
8.125000000000055
 20
-1963.75
 30
0.0
 11
8.125000000000055
 21
-1963.75
 31
0.0
  0
LINE
  5
2EE
330
75
100
AcDbEntity
  8
0
 62
     0
100
AcDbLine
 10
9.375000000000055
 20
-1963.75
 30
0.0
 11
9.375000000000055
 21
-1963.75
 31
0.0
  0
LINE
  5
2EF
330
75
100
AcDbEntity
  8
0
 62
     0
100
AcDbLine
 10
10.62500000000005
 20
-1963.75
 30
0.0
 11
10.62500000000005
 21
-1963.75
 31
0.0
  0
LINE
  5
2F0
330
75
100
AcDbEntity
  8
0
 62
     0
100
AcDbLine
 10
11.87500000000005
 20
-1963.75
 30
0.0
 11
11.87500000000005
 21
-1963.75
 31
0.0
  0
LINE
  5
2F1
330
75
100
AcDbEntity
  8
0
 62
     0
100
AcDbLine
 10
13.12500000000005
 20
-1963.75
 30
0.0
 11
13.12500000000005
 21
-1963.75
 31
0.0
  0
LINE
  5
2F2
330
75
100
AcDbEntity
  8
0
 62
     0
100
AcDbLine
 10
14.37500000000005
 20
-1963.75
 30
0.0
 11
14.37500000000005
 21
-1963.75
 31
0.0
  0
LINE
  5
2F3
330
75
100
AcDbEntity
  8
0
 62
     0
100
AcDbLine
 10
15.62500000000005
 20
-1963.75
 30
0.0
 11
15.62500000000005
 21
-1963.75
 31
0.0
  0
LINE
  5
2F4
330
75
100
AcDbEntity
  8
0
 62
     0
100
AcDbLine
 10
16.87500000000006
 20
-1963.75
 30
0.0
 11
16.87500000000006
 21
-1963.75
 31
0.0
  0
LINE
  5
2F5
330
75
100
AcDbEntity
  8
0
 62
     0
100
AcDbLine
 10
8.749999999999966
 20
-1965.0
 30
0.0
 11
8.749999999999966
 21
-1965.0
 31
0.0
  0
LINE
  5
2F6
330
75
100
AcDbEntity
  8
0
 62
     0
100
AcDbLine
 10
9.999999999999966
 20
-1965.0
 30
0.0
 11
9.999999999999966
 21
-1965.0
 31
0.0
  0
LINE
  5
2F7
330
75
100
AcDbEntity
  8
0
 62
     0
100
AcDbLine
 10
11.24999999999996
 20
-1965.0
 30
0.0
 11
11.24999999999996
 21
-1965.0
 31
0.0
  0
LINE
  5
2F8
330
75
100
AcDbEntity
  8
0
 62
     0
100
AcDbLine
 10
12.49999999999996
 20
-1965.0
 30
0.0
 11
12.49999999999996
 21
-1965.0
 31
0.0
  0
LINE
  5
2F9
330
75
100
AcDbEntity
  8
0
 62
     0
100
AcDbLine
 10
13.74999999999996
 20
-1965.0
 30
0.0
 11
13.74999999999996
 21
-1965.0
 31
0.0
  0
ENDBLK
  5
2FA
330
75
100
AcDbEntity
  8
0
100
AcDbBlockEnd
  0
ENDSEC
  0
SECTION
  2
ENTITIES
  0
LWPOLYLINE
  5
2FB
330
6F
100
AcDbEntity
  8
GRABUNGSGRENZE
100
AcDbPolyline
 90
        9
 70
   128
 43
0.0
 10
-16.04089113737141
 20
-2001.321291028771
 10
0.8038636162407822
 20
-1963.386665429286
 10
9.149378497891921
 20
-1942.051854996509
 10
55.26528566010673
 20
-1882.167107118772
 10
101.3987876720365
 20
-1907.105530185311
 10
172.8418348496125
 20
-1956.884867285762
 10
153.6525102054428
 20
-1982.702382848241
 10
137.4674864679972
 20
-2010.250360425111
 10
101.030676456303
 20
-2096.099378507011
  0
LWPOLYLINE
  5
306
330
6F
100
AcDbEntity
  8
GRABUNGSGRENZE
100
AcDbPolyline
 90
        7
 70
   128
 43
0.0
 10
117.6295199986576
 20
-2099.914505697776
 10
153.457101378222
 20
-2022.466468614676
 10
175.648371796171
 20
-1987.025533241511
 10
187.1508459002938
 20
-1967.01383899353
 10
215.7181755172025
 20
-1988.340992603951
 10
200.8134857696761
 20
-2051.936008090367
 10
217.6167890313317
 20
-2059.620577425409
  0
LWPOLYLINE
  5
30F
330
6F
100
AcDbEntity
  8
GRABUNGSGRENZE
100
AcDbPolyline
 90
        2
 70
     0
 43
0.0
 10
216.9838295304686
 20
-1953.617197612811
 10
136.3753163671809
 20
-1899.512048713251
  0
LWPOLYLINE
  5
313
330
6F
100
AcDbEntity
  8
STEINE
100
AcDbPolyline
 90
        8
 70
     0
 43
0.0
 10
118.7285538766546
 20
-1998.289393878166
 10
118.8295586447283
 20
-1994.318059830535
 10
116.7916255274508
 20
-1987.750541668576
 10
122.1880310300361
 20
-1985.305537311196
 10
123.0031240123265
 20
-1987.545596137098
 10
127.5860735084351
 20
-1990.752244536267
 10
121.5791086708004
 20
-1995.183032089939
 10
118.7285538766546
 20
-1998.289393878166
  0
LWPOLYLINE
  5
31D
330
6F
100
AcDbEntity
  8
STEINE
100
AcDbPolyline
 90
       14
 70
     0
 43
0.0
 10
128.3495657487233
 20
-1989.682886485501
 10
124.2755477126678
 20
-1985.457847109512
 10
129.3155744596045
 20
-1983.11474521662
 10
140.4135964849269
 20
-1976.900902159934
 10
143.3152028420922
 20
-1974.456415298133
 10
145.8606311051603
 20
-1973.081201998024
 10
147.4899721789986
 20
-1973.488178187918
 10
149.170797822362
 20
-1976.644514303467
 10
150.8000966516632
 20
-1976.847833420266
 10
151.6148727999252
 20
-1977.560464197951
 10
151.615612079325
 20
-1981.124462977123
 10
156.9636168635956
 20
-1990.79706503006
 10
156.9636168635956
 20
-1990.79706503006
 10
156.9636168635956
 20
-1990.79706503006
  0
LWPOLYLINE
  5
32D
330
6F
100
AcDbEntity
  8
STEINE
100
AcDbPolyline
 90
        3
 70
     0
 43
0.0
 10
149.2744851185436
 20
-1985.605404397401
 10
149.2744851185436
 20
-1985.605404397401
 10
149.2744851185436
 20
-1985.605404397401
  0
LWPOLYLINE
  5
332
330
6F
100
AcDbEntity
  8
STEINE
100
AcDbPolyline
 90
        2
 70
     0
 43
0.0
 10
153.8053269382044
 20
-1983.058751042756
 10
153.8053269382044
 20
-1983.058751042756
  0
LWPOLYLINE
  5
336
330
6F
100
AcDbEntity
  8
STEINE
100
AcDbPolyline
 90
        5
 70
     0
 43
0.0
 10
143.2674041084317
 20
-1989.476135000061
 10
146.6269009237649
 20
-1985.402296503288
 10
156.9636168635956
 20
-1990.79706503006
 10
152.737922697281
 20
-1991.714398433135
 10
147.290719098899
 20
-1994.719470302662
  0
LWPOLYLINE
  5
33D
330
6F
100
AcDbEntity
  8
STEINE
100
AcDbPolyline
 90
        2
 70
     0
 43
0.0
 10
153.8053269382044
 20
-1983.058751042756
 10
153.8053269382044
 20
-1983.058751042756
  0
LWPOLYLINE
  5
341
330
6F
100
AcDbEntity
  8
STEINE
100
AcDbPolyline
 90
       10
 70
     0
 43
0.0
 10
141.0781539394608
 20
-1989.782074738478
 10
143.2674041084317
 20
-1989.476135000061
 10
145.7622771817916
 20
-1989.832017382398
 10
147.8509344669259
 20
-1995.483068154293
 10
146.1707741750223
 20
-1995.534330939998
 10
143.7269526646819
 20
-1995.840323484087
 10
141.4359162037004
 20
-1996.349941417868
 10
139.4501435685421
 20
-1995.790296351093
 10
140.1623519008565
 20
-1992.938949471876
 10
141.0781539394608
 20
-1989.782074738478
  0
LWPOLYLINE
  5
34D
330
6F
100
AcDbEntity
  8
STEINE
100
AcDbPolyline
 90
        5
 70
     0
 43
0.0
 10
141.4359162037004
 20
-1996.349941417868
 10
141.8944931355966
 20
-1998.030017220697
 10
146.2221108886675
 20
-1997.570891109819
 10
146.8329131298054
 20
-1996.756136083825
 10
146.1707741750223
 20
-1995.534330939998
  0
LWPOLYLINE
  5
354
330
6F
100
AcDbEntity
  8
STEINE
100
AcDbPolyline
 90
        8
 70
     0
 43
0.0
 10
141.4359162037004
 20
-1996.349941417868
 10
138.1774980843809
 20
-1996.808845744927
 10
137.5163624373546
 20
-2000.423896087118
 10
137.2626254255935
 20
-2004.446176086426
 10
141.7938474460885
 20
-2003.73243638964
 10
140.316805609432
 20
-2001.187029248841
 10
141.6404392898071
 20
-2000.524869171789
 10
141.8944931355966
 20
-1998.030017220697
  0
LWPOLYLINE
  5
35E
330
6F
100
AcDbEntity
  8
STEINE
100
AcDbPolyline
 90
       12
 70
     0
 43
0.0
 10
141.7938474460885
 20
-2003.73243638964
 10
141.1831508162933
 20
-2005.056334098373
 10
142.4564299685115
 20
-2007.092640800971
 10
142.4564299685115
 20
-2007.092640800971
 10
145.5116451435097
 20
-2008.823092254225
 10
148.7205008197435
 20
-2014.881224827357
 10
151.0626944550874
 20
-2015.54262450274
 10
151.6214101420462
 20
-2009.076396259481
 10
154.5228897656001
 20
-2006.020938178394
 10
149.7353749388477
 20
-1998.435704952209
 10
148.2588611589053
 20
-1998.436011225103
 10
141.6404392898071
 20
-2000.524869171789
  0
LWPOLYLINE
  5
36C
330
6F
100
AcDbEntity
  8
STEINE
100
AcDbPolyline
 90
        7
 70
     0
 43
0.0
 10
141.1831508162933
 20
-2005.056334098373
 10
137.7210861850126
 20
-2005.566194938243
 10
138.5364220733916
 20
-2008.977281934444
 10
137.9767347620789
 20
-2010.759397496507
 10
139.7078832501963
 20
-2011.064524027584
 10
142.1005264639057
 20
-2009.485685337783
 10
142.4564299685115
 20
-2007.092640800971
  0
LWPOLYLINE
  5
375
330
6F
100
AcDbEntity
  8
STEINE
100
AcDbPolyline
 90
        9
 70
     0
 43
0.0
 10
123.8717609853272
 20
-2002.463297202061
 10
120.918194807594
 20
-1999.867282065882
 10
122.2412581867178
 20
-1996.45575150204
 10
127.2300327090836
 20
-1992.483403585518
 10
130.5900153365938
 20
-1990.751621429344
 10
134.5106357775021
 20
-1991.820007855755
 10
136.5472276307257
 20
-1991.921413946932
 10
137.9218283850461
 20
-1991.513814650115
 10
140.1623519008565
 20
-1992.938949471876
  0
LWPOLYLINE
  5
380
330
6F
100
AcDbEntity
  8
STEINE
100
AcDbPolyline
 90
        5
 70
     0
 43
0.0
 10
123.8717609853272
 20
-2002.463297202061
 10
129.4224089738022
 20
-2007.248087256169
 10
131.1021890648716
 20
-2005.363910812604
 10
135.1747391032619
 20
-2002.511866898524
 10
137.5163624373546
 20
-2000.423896087118
  0
LWPOLYLINE
  5
387
330
6F
100
AcDbEntity
  8
STEINE
100
AcDbPolyline
 90
        7
 70
     0
 43
0.0
 10
161.2918260401863
 20
-1993.189137942518
 10
161.6477929115979
 20
-1991.101579015349
 10
164.956819026297
 20
-1989.166150347213
 10
166.6881153702945
 20
-1990.184076634125
 10
166.1793528883899
 20
-1992.017095903327
 10
163.7863717183834
 20
-1991.966678008365
 10
161.2918260401863
 20
-1993.189137942518
  0
LWPOLYLINE
  5
390
330
6F
100
AcDbEntity
  8
STEINE
100
AcDbPolyline
 90
        6
 70
     0
 43
0.0
 10
140.4135964849269
 20
-1976.900902159934
 10
139.1397575925917
 20
-1972.16613923882
 10
138.2736658529531
 20
-1969.518776827861
 10
139.3936741436355
 20
-1969.009401800168
 10
141.6338068974775
 20
-1968.550708695795
 10
143.3152028420922
 20
-1974.456415298133
  0
LWPOLYLINE
  5
398
330
6F
100
AcDbEntity
  8
STEINE
100
AcDbPolyline
 90
       23
 70
     0
 43
0.0
 10
153.2534759885294
 20
-2022.619253664035
 10
152.4889487570815
 20
-2018.69901342396
 10
153.1500104761678
 20
-2014.727563203853
 10
154.6771005680871
 20
-2013.09798978506
 10
162.924018620281
 20
-2007.342966566358
 10
167.2506436267292
 20
-2002.097899237735
 10
169.438763754332
 20
-1996.344132794012
 10
173.1547554977908
 20
-1992.728448783765
 10
178.8077917629306
 20
-2000.211673934119
 10
177.8918524295806
 20
-2002.706663179957
 10
177.0772663817358
 20
-2002.910489231201
 10
176.7721926563296
 20
-2004.896209060687
 10
177.6382315902967
 20
-2007.289000130277
 10
176.0611882933234
 20
-2013.551782523126
 10
174.4323752761992
 20
-2015.690519746926
 10
172.3958151063785
 20
-2015.741856460571
 10
171.7342464528466
 20
-2017.269421803533
 10
170.7669070390458
 20
-2017.422365269906
 10
169.1891878294783
 20
-2020.426634493228
 10
166.0836181263233
 20
-2021.394649819622
 10
159.3631248145888
 20
-2022.312500718277
 10
154.4243246195457
 20
-2021.753468197291
 10
153.2534759885294
 20
-2022.619253664035
  0
LWPOLYLINE
  5
3B1
330
6F
100
AcDbEntity
  8
STEINE
100
AcDbPolyline
 90
        5
 70
     0
 43
0.0
 10
192.8079059575953
 20
-1993.895400356231
 10
192.8074940733582
 20
-1991.90974389355
 10
194.6404288534863
 20
-1992.011192229264
 10
195.7099875658034
 20
-1993.742055566755
 10
192.8079059575953
 20
-1993.895400356231
  0
LWPOLYLINE
  5
3B8
330
6F
100
AcDbEntity
  8
STEINE
100
AcDbPolyline
 90
       12
 70
     0
 43
0.0
 10
211.3377741750897
 20
-1979.788303791488
 10
212.1024492624175
 20
-1984.421343787397
 10
215.2604962817203
 20
-1990.988629604401
 10
219.588293574074
 20
-1991.395046054178
 10
221.2684961105148
 20
-1991.547440341568
 10
224.2716036090651
 20
-1987.52459004101
 10
226.8171163612075
 20
-1986.556690887092
 10
226.2563729364665
 20
-1983.247379621767
 10
221.9797856241466
 20
-1984.266552122524
 10
218.1103012353321
 20
-1984.26735476873
 10
214.4949234979784
 20
-1982.027876805213
 10
211.3377741750897
 20
-1979.788303791488
  0
LWPOLYLINE
  5
3C6
330
6F
100
AcDbEntity
  8
STEINE
100
AcDbPolyline
 90
        6
 70
     0
 43
0.0
 10
219.588293574074
 20
-1991.395046054178
 10
220.454512047324
 20
-1994.653379684424
 10
225.6984598957132
 20
-1993.583092253841
 10
224.8835147693028
 20
-1992.055833183773
 10
225.2395344463857
 20
-1990.222845597974
 10
221.2684961105148
 20
-1991.547440341568
  0
LWPOLYLINE
  5
3CE
330
6F
100
AcDbEntity
  8
STEINE
100
AcDbPolyline
 90
        4
 70
     0
 43
0.0
 10
225.6984598957132
 20
-1993.583092253841
 10
227.4804909687017
 20
-1993.735465418963
 10
229.1604717213226
 20
-1992.818660072602
 10
225.2395344463857
 20
-1990.222845597974
  0
LWPOLYLINE
  5
3D4
330
6F
100
AcDbEntity
  8
STEINE
100
AcDbPolyline
 90
        3
 70
     0
 43
0.0
 10
190.9701764225028
 20
-1970.678874224178
 10
187.3046131351409
 20
-1971.952491332693
 10
185.3186715218341
 20
-1970.578217973536
  0
LWPOLYLINE
  5
3D9
330
6F
100
AcDbEntity
  8
STEINE
100
AcDbPolyline
 90
       13
 70
     0
 43
0.0
 10
159.7558329120668
 20
-1951.897983206433
 10
155.3783041984789
 20
-1957.193975364464
 10
153.9022023027735
 20
-1959.17993810004
 10
153.7497129651747
 20
-1960.401912222016
 10
156.2453147568001
 20
-1964.27087911525
 10
159.7086678464633
 20
-1969.972559004793
 10
161.1850654539285
 20
-1969.412195780886
 10
166.0716523611809
 20
-1963.708783865321
 10
168.6163413448493
 20
-1958.769571786041
 10
168.9212883366441
 20
-1956.172880737268
 10
165.8151377711035
 20
-1954.3406113086
 10
160.6213754727227
 20
-1951.89780366715
 10
159.7558329120668
 20
-1951.897983206433
  0
LWPOLYLINE
  5
3E8
330
6F
100
AcDbEntity
  8
STEINE
100
AcDbPolyline
 90
        6
 70
     0
 43
0.0
 10
151.3563304720655
 20
-1958.416752132646
 10
149.9810326828824
 20
-1955.464009723387
 10
151.3550314525487
 20
-1952.154297134959
 10
152.3726514665664
 20
-1948.946487011019
 10
153.1358796784975
 20
-1946.604272253407
 10
159.7558329120668
 20
-1951.897983206433
  0
LWPOLYLINE
  5
3F0
330
6F
100
AcDbEntity
  8
STEINE
100
AcDbPolyline
 90
        2
 70
     0
 43
0.0
 10
153.9022023027735
 20
-1959.17993810004
 10
151.3563304720655
 20
-1958.416752132646
  0
LWPOLYLINE
  5
3F4
330
6F
100
AcDbEntity
  8
STEINE
100
AcDbPolyline
 90
        6
 70
     0
 43
0.0
 10
153.1358796784975
 20
-1946.604272253407
 10
150.7936543597508
 20
-1945.790129773202
 10
148.5027446323806
 20
-1946.91071892627
 10
147.8925338147624
 20
-1950.5766729756
 10
149.878581039412
 20
-1952.460089017496
 10
149.9810326828824
 20
-1955.464009723387
  0
LWPOLYLINE
  5
3FC
330
6F
100
AcDbEntity
  8
STEINE
100
AcDbPolyline
 90
        6
 70
     0
 43
0.0
 10
147.8925338147624
 20
-1950.5766729756
 10
146.1102915190883
 20
-1949.406014445001
 10
142.3427729615671
 20
-1950.068681456498
 10
142.9541560650907
 20
-1952.054211185568
 10
144.8380684802983
 20
-1952.46113456979
 10
147.8925338147624
 20
-1950.5766729756
  0
LWPOLYLINE
  5
404
330
6F
100
AcDbEntity
  8
STEINE
100
AcDbPolyline
 90
        3
 70
     0
 43
0.0
 10
142.9541560650907
 20
-1952.054211185568
 10
143.973444738325
 20
-1956.8908554489
 10
149.9810326828824
 20
-1955.464009723387
  0
LWPOLYLINE
  5
409
330
6F
100
AcDbEntity
  8
STEINE
100
AcDbPolyline
 90
        6
 70
     0
 43
0.0
 10
143.973444738325
 20
-1956.8908554489
 10
145.2980500430541
 20
-1960.912808053045
 10
147.1317346637163
 20
-1964.629169436204
 10
148.8124758180054
 20
-1967.378191405562
 10
151.0528303556674
 20
-1967.98869793494
 10
156.2453147568001
 20
-1964.27087911525
  0
LWPOLYLINE
  5
411
330
6F
100
AcDbEntity
  8
STEINE
100
AcDbPolyline
 90
       13
 70
     0
 43
0.0
 10
110.9722437165333
 20
-1914.689770664873
 10
109.3941971118031
 20
-1916.115697571704
 10
109.1907618225275
 20
-1917.184939449992
 10
110.005706948938
 20
-1918.71219852006
 10
108.5297106645754
 20
-1921.207303938374
 10
109.3449303804773
 20
-1924.058333983563
 10
108.9888050920515
 20
-1925.382178886624
 10
112.4003779004296
 20
-1926.908899338843
 10
115.4046893682882
 20
-1928.690275621506
 10
117.7466400975436
 20
-1928.18064712659
 10
118.6624738195507
 20
-1925.176515198015
 10
119.7821652762047
 20
-1923.139712122105
 10
121.054662904486
 20
-1921.408362972437
  0
LWPOLYLINE
  5
420
330
6F
100
AcDbEntity
  8
STEINE
100
AcDbPolyline
 90
        8
 70
     0
 43
0.0
 10
121.054662904486
 20
-1921.408362972437
 10
123.2455500492707
 20
-1928.99413481647
 10
119.7840662803756
 20
-1932.304280411403
 10
118.1549153069544
 20
-1932.813761050439
 10
111.0775996719315
 20
-1931.695115146079
 10
109.6518417432487
 20
-1930.93169683373
 10
108.2257352971346
 20
-1928.488107668345
 10
108.9888050920515
 20
-1925.382178886624
  0
LWPOLYLINE
  5
42A
330
6F
100
AcDbEntity
  8
STEINE
100
AcDbPolyline
 90
        8
 70
     0
 43
0.0
 10
105.167140559166
 20
-1910.465090367449
 10
102.1640330606157
 20
-1914.487940668008
 10
100.8915354323344
 20
-1916.219289817677
 10
97.88730845355011
 20
-1914.845227681205
 10
96.86834717547853
 20
-1911.586925734363
 10
97.22437741369574
 20
-1909.804852416837
 10
98.59883031213618
 20
-1908.684453364186
 10
102.5191233578817
 20
-1908.174497474108
  0
LWPOLYLINE
  5
434
330
6F
100
AcDbEntity
  8
STEINE
100
AcDbPolyline
 90
        2
 70
     0
 43
0.0
 10
110.1573302735256
 20
-1913.315254399627
 10
102.1640330606157
 20
-1914.487940668008
  0
LWPOLYLINE
  5
438
330
6F
100
AcDbEntity
  8
STEINE
100
AcDbPolyline
 90
        4
 70
     0
 43
0.0
 10
100.8915354323344
 20
-1916.219289817677
 10
98.04036809240024
 20
-1916.372624046019
 10
95.18895784637754
 20
-1915.354930104061
 10
96.86834717547853
 20
-1911.586925734363
  0
LWPOLYLINE
  5
43E
330
6F
100
AcDbEntity
  8
STEINE
100
AcDbPolyline
 90
        9
 70
     0
 43
0.0
 10
84.44461092632733
 20
-1908.432818018147
 10
87.49911850532855
 20
-1906.752013497053
 10
92.03031940355495
 20
-1905.936445263719
 10
94.88226826742605
 20
-1909.550766887645
 10
95.18838754512627
 20
-1912.605559617271
 10
91.42124918843933
 20
-1915.101140286628
 10
89.99553350429371
 20
-1914.541379047376
 10
85.41265793612508
 20
-1911.691130526124
 10
84.44461092632733
 20
-1908.432818018147
  0
LWPOLYLINE
  5
449
330
6F
100
AcDbEntity
  8
STEINE
100
AcDbPolyline
 90
        7
 70
     0
 43
0.0
 10
88.05787643682441
 20
-1900.489442326889
 10
87.14178924759455
 20
-1902.271631816892
 10
87.95701952463067
 20
-1905.173576130354
 10
88.97542106258528
 20
-1905.733421858681
 10
91.82644054663951
 20
-1904.867287874505
 10
91.21520529899594
 20
-1903.59455790127
 10
91.77496653824865
 20
-1902.168842217124
  0
LWPOLYLINE
  5
452
330
6F
100
AcDbEntity
  8
STEINE
100
AcDbPolyline
 90
        6
 70
     0
 43
0.0
 10
77.46665252243001
 20
-1895.400212215432
 10
75.93926671875087
 20
-1895.604186122556
 10
73.34283969833458
 20
-1896.572095837608
 10
72.4261610855849
 20
-1895.503086304274
 10
71.25443588042308
 20
-1892.142987504286
 10
71.66165497640554
 20
-1891.684674600747
  0
LWPOLYLINE
  5
45A
330
6F
100
AcDbEntity
  8
STEINE
100
AcDbPolyline
 90
        9
 70
     0
 43
0.0
 10
75.93926671875087
 20
-1895.604186122556
 10
74.9724025559928
 20
-1898.048271661253
 10
74.76938971208856
 20
-1901.154084270497
 10
74.05719194090841
 20
-1904.056345417988
 10
75.78835099016015
 20
-1904.412386217339
 10
80.5233673784963
 20
-1904.360489763577
 10
82.66151317877628
 20
-1903.138103757364
 10
85.15627007965907
 20
-1902.933929188689
 10
87.3450978032587
 20
-1900.591418719317
  0
LWPOLYLINE
  5
465
330
6F
100
AcDbEntity
  8
STEINE
100
AcDbPolyline
 90
       11
 70
     0
 43
0.0
 10
71.25443588042308
 20
-1892.142987504286
 10
72.4261610855849
 20
-1895.503086304274
 10
71.96834455535704
 20
-1897.488837817164
 10
67.43712253486207
 20
-1898.202577513949
 10
65.19689473081154
 20
-1898.203042203857
 10
61.88691811402692
 20
-1895.556186727344
 10
60.71470709668812
 20
-1889.854031586759
 10
58.16870853236871
 20
-1888.479874400078
 10
57.81205518722878
 20
-1887.258005889445
 10
56.74257040285176
 20
-1885.88354242987
 10
57.55690298347386
 20
-1884.457773940053
  0
LWPOLYLINE
  5
472
330
6F
100
AcDbEntity
  8
STEINE
100
AcDbPolyline
 90
        4
 70
     0
 43
0.0
 10
54.2474438622691
 20
-1884.30571760896
 10
56.03024589806023
 20
-1888.174832358075
 10
54.04485346373615
 20
-1889.448100949159
 10
50.17532683038448
 20
-1889.245246522268
  0
LWPOLYLINE
  5
478
330
6F
100
AcDbEntity
  8
STEINE
100
AcDbPolyline
 90
       11
 70
     0
 43
0.0
 10
49.20807190565795
 20
-1889.805504134833
 10
52.72129371130104
 20
-1890.466660904127
 10
56.3360905862691
 20
-1889.905854112581
 10
56.08288163122219
 20
-1896.473847525582
 10
55.16680500312661
 20
-1898.306951283859
 10
52.46910918627956
 20
-1901.973338339695
 10
49.87287226628036
 20
-1903.857704883677
 10
47.88697289751071
 20
-1902.687088597614
 10
45.39216319095652
 20
-1902.63669182492
 10
42.38810519032075
 20
-1902.07725798083
 10
40.30029279592908
 20
-1900.499348670846
  0
LWPOLYLINE
  5
485
330
6F
100
AcDbEntity
  8
STEINE
100
AcDbPolyline
 90
        7
 70
     0
 43
0.0
 10
13.57784260202226
 20
-1936.857680813892
 10
34.5030154390653
 20
-1934.002141164364
 10
36.89572201958038
 20
-1932.728788084206
 10
36.28399039862553
 20
-1929.063087502099
 10
34.19415026645158
 20
-1917.70963868353
 10
32.61493137581597
 20
-1913.484081811961
 10
30.32371537555159
 20
-1913.128157185086
  0
LWPOLYLINE
  5
48E
330
6F
100
AcDbEntity
  8
STEINE
100
AcDbPolyline
 90
       18
 70
     0
 43
0.0
 10
6.960476846352296
 20
-1944.037965587965
 10
6.349896389034249
 20
-1945.92192024771
 10
6.249071160243357
 20
-1950.758796855996
 10
5.893463367397432
 20
-1954.577440904477
 10
6.606453223648779
 20
-1955.493749877527
 10
13.2766976185692
 20
-1957.78350844126
 10
22.39068959588998
 20
-1959.410874582988
 10
24.68176830140869
 20
-1959.104913722302
 10
33.84558675017223
 20
-1955.488099670685
 10
35.88200962524729
 20
-1954.77487746948
 10
35.83060954479641
 20
-1952.432831690016
 10
37.66263606737619
 20
-1948.155652954176
 10
36.79628029938053
 20
-1944.235433836371
 10
35.16636892429099
 20
-1941.079087159687
 10
34.3005200907409
 20
-1939.602752919028
 10
31.14331796218076
 20
-1937.108608563933
 10
21.52091202038673
 20
-1938.994432544446
 10
8.843745032368708
 20
-1941.339118607481
  0
LWPOLYLINE
  5
4A2
330
6F
100
AcDbEntity
  8
STEINE
100
AcDbPolyline
 90
        7
 70
     0
 43
0.0
 10
32.46689883688443
 20
-1936.191877145512
 10
35.57248966230804
 20
-1935.325690355665
 10
36.8965035435173
 20
-1936.496443936473
 10
35.67497298918132
 20
-1938.482353866377
 10
33.48555384206184
 20
-1937.973665312412
 10
31.9069686194832
 20
-1936.802964537276
 10
32.46689883688443
 20
-1936.191877145512
  0
LWPOLYLINE
  5
4AB
330
6F
100
AcDbEntity
  8
STEINE
100
AcDbPolyline
 90
        6
 70
     0
 43
0.0
 10
35.92975555323635
 20
-1939.500586426183
 10
37.15176135861506
 20
-1939.805818568603
 10
37.50841470375498
 20
-1941.027687079236
 10
36.2356108025795
 20
-1941.282522448963
 10
35.2170719698792
 20
-1940.060791233075
 10
35.92975555323635
 20
-1939.500586426183
  0
LWPOLYLINE
  5
4B3
330
6F
100
AcDbEntity
  8
STEINE
100
AcDbPolyline
 90
        2
 70
     0
 43
0.0
 10
6.960476846352296
 20
-1944.037965587965
 10
8.843745032368708
 20
-1941.339118607481
  0
LWPOLYLINE
  5
4B7
330
6F
100
AcDbEntity
  8
STEINE
100
AcDbPolyline
 90
       14
 70
     0
 43
0.0
 10
6.349896389034249
 20
-1945.92192024771
 10
0.9013092820612047
 20
-1942.257222973359
 10
-5.768079660982321
 20
-1944.091520139809
 10
-5.716732386202854
 20
-1946.178994577904
 10
-7.396364621392329
 20
-1948.775970777303
 10
-9.228517877583495
 20
-1952.442178293856
 10
-9.736984647728158
 20
-1955.700797074727
 10
-7.393998927313001
 20
-1960.180766870651
 10
-4.033108042254509
 20
-1962.82761178603
 10
0.8040537166578712
 20
-1964.303122258215
 10
9.968801545238285
 20
-1965.166763814701
 10
13.78738222691324
 20
-1965.216885997903
 10
22.34022945639027
 20
-1961.600198679898
 10
24.68176830140869
 20
-1959.104913722302
  0
LWPOLYLINE
  5
4C7
330
6F
100
AcDbEntity
  8
BEFUND
100
AcDbPolyline
 90
       14
 70
     0
 43
0.0
 10
210.8857662687174
 20
-2009.77690285501
 10
203.8086196118429
 20
-2009.472885243032
 10
197.5467560376761
 20
-2012.325383285886
 10
190.5716174566322
 20
-2012.886887112296
 10
183.1888690176374
 20
-2012.022875916111
 10
181.2022409306023
 20
-2007.339175119151
 10
181.0994407697005
 20
-2002.655083560223
 10
184.9684710297409
 20
-2000.464967378241
 10
185.9348916248591
 20
-1995.88248257204
 10
185.9342473956679
 20
-1992.776712207334
 10
191.4316576663268
 20
-1986.360373802323
 10
191.8888827730348
 20
-1981.523423266096
 10
187.0000991498516
 20
-1976.636667380695
 10
187.3046131351409
 20
-1971.952491332693
  0
LWPOLYLINE
  5
4D7
330
6F
100
AcDbEntity
  8
BEFUND
100
AcDbPolyline
 90
       15
 70
     0
 43
0.0
 10
139.1397575925917
 20
-1972.16613923882
 10
133.6921526711069
 20
-1973.23646891394
 10
126.4624955543651
 20
-1974.05259688739
 10
122.1345398449972
 20
-1972.882466413505
 10
116.7874538794091
 20
-1967.639405700395
 10
115.309831180367
 20
-1962.293713804532
 10
111.0316174533676
 20
-1955.472088991113
 10
112.6601136364633
 20
-1951.805923719097
 10
115.2561815783139
 20
-1949.106928882733
 10
123.4523332181139
 20
-1944.064715981
 10
129.7151789777691
 20
-1945.947244887616
 10
136.3866167808635
 20
-1953.990315766297
 10
136.7445057787145
 20
-1961.169153664974
 10
138.4256376949721
 20
-1965.802003560465
 10
139.3936741436355
 20
-1969.009401800168
  0
LWPOLYLINE
  5
4E8
330
6F
100
AcDbEntity
  8
STEINE
100
AcDbPolyline
 90
        6
 70
     0
 43
0.0
 10
122.3352820450307
 20
-1958.830086125378
 10
121.9275771368712
 20
-1956.946342688319
 10
123.6073994724778
 20
-1955.26582331785
 10
125.0840505471658
 20
-1955.927402532516
 10
124.8299967013763
 20
-1958.422254483607
 10
122.3352820450307
 20
-1958.830086125378
  0
LWPOLYLINE
  5
4F0
330
6F
100
AcDbEntity
  8
STEINE
100
AcDbPolyline
 90
        6
 70
     0
 43
0.0
 10
123.8612420955816
 20
-1951.752686001281
 10
123.0464870695882
 20
-1951.141883760143
 10
123.3007310157948
 20
-1949.563488637981
 10
125.5918308435821
 20
-1949.359356313843
 10
125.5412862150081
 20
-1951.141366264563
 10
123.8612420955816
 20
-1951.752686001281
  0
LWPOLYLINE
  5
4F8
330
6F
100
AcDbEntity
  8
STEINE
100
AcDbPolyline
 90
        5
 70
     0
 43
0.0
 10
117.9053816266379
 20
-1957.099919822749
 10
117.3450712084024
 20
-1955.878093556653
 10
119.585225084513
 20
-1955.521228988827
 10
119.0763464301313
 20
-1956.794191307017
 10
117.9053816266379
 20
-1957.099919822749
  0
LWPOLYLINE
  5
4FF
330
6F
100
AcDbEntity
  8
STEINE
100
AcDbPolyline
 90
        5
 70
     0
 43
0.0
 10
123.9652884703287
 20
-1962.444661216526
 10
123.0486521021162
 20
-1961.579308756287
 10
123.557573001035
 20
-1960.510003511193
 10
124.3723069047598
 20
-1961.018977215783
 10
123.9652884703287
 20
-1962.444661216526
  0
INSERT
  5
506
330
6F
100
AcDbEntity
  8
STEINESCHRAFF
100
AcDbBlockReference
  2
*X2
 10
0.0
 20
0.0
 30
0.0
1001
ACAD
1000
HATCH
1002
{
1070
    16
1000
DOTS,I
1040
20.0
1040
0.0
1002
}
  0
ENDSEC
  0
SECTION
  2
OBJECTS
  0
DICTIONARY
  5
C
330
0
100
AcDbDictionary
281
     1
  3
ACAD_CIP_PREVIOUS_PRODUCT_INFO
350
509
  3
ACAD_COLOR
350
62
  3
ACAD_DETAILVIEWSTYLE
350
69
  3
ACAD_GROUP
350
D
  3
ACAD_LAYOUT
350
61
  3
ACAD_MATERIAL
350
10
  3
ACAD_MLEADERSTYLE
350
65
  3
ACAD_MLINESTYLE
350
5E
  3
ACAD_PLOTSETTINGS
350
60
  3
ACAD_PLOTSTYLENAME
350
E
  3
ACAD_SCALELIST
350
42
  3
ACAD_SECTIONVIEWSTYLE
350
67
  3
ACAD_TABLESTYLE
350
63
  3
ACAD_VISUALSTYLE
350
29
  3
ACDB_RECOMPOSE_DATA
350
520
  3
AcDbVariableDictionary
350
513
  0
DICTIONARY
  5
50D
330
2
100
AcDbDictionary
280
     1
281
     1
  3
ACAD_LAYERSTATES
360
50E
  0
XRECORD
  5
509
102
{ACAD_REACTORS
330
C
102
}
330
C
100
AcDbXrecord
280
     1
300
ACD
300
2014
300
DSADV_F_S
  0
DICTIONARY
  5
62
102
{ACAD_REACTORS
330
C
102
}
330
C
100
AcDbDictionary
281
     1
  0
DICTIONARY
  5
69
102
{ACAD_REACTORS
330
C
102
}
330
C
100
AcDbDictionary
281
     1
  3
Imperial24
350
6A
  0
DICTIONARY
  5
D
102
{ACAD_REACTORS
330
C
102
}
330
C
100
AcDbDictionary
281
     1
  0
DICTIONARY
  5
61
102
{ACAD_REACTORS
330
C
102
}
330
C
100
AcDbDictionary
281
     1
  3
Layout1
350
6E
  3
Model
350
72
  0
DICTIONARY
  5
10
102
{ACAD_REACTORS
330
C
102
}
330
C
100
AcDbDictionary
281
     1
  3
ByBlock
350
19
  3
ByLayer
350
11
  3
Global
350
21
  0
DICTIONARY
  5
65
102
{ACAD_REACTORS
330
C
102
}
330
C
100
AcDbDictionary
281
     1
  3
Standard
350
66
  0
DICTIONARY
  5
5E
102
{ACAD_REACTORS
330
C
102
}
330
C
100
AcDbDictionary
281
     1
  3
Standard
350
5F
  0
DICTIONARY
  5
60
102
{ACAD_REACTORS
330
C
102
}
330
C
100
AcDbDictionary
281
     1
  0
ACDBDICTIONARYWDFLT
  5
E
102
{ACAD_REACTORS
330
C
102
}
330
C
100
AcDbDictionary
281
     1
  3
Normal
350
F
100
AcDbDictionaryWithDefault
340
F
  0
DICTIONARY
  5
42
102
{ACAD_REACTORS
330
C
102
}
330
C
100
AcDbDictionary
281
     1
  3
A0
350
43
  3
A1
350
44
  3
A2
350
45
  3
A3
350
46
  3
A4
350
47
  3
A5
350
48
  3
A6
350
49
  3
A7
350
4A
  3
A8
350
4B
  3
A9
350
4C
  3
B0
350
4D
  3
B1
350
4E
  3
B2
350
4F
  3
B3
350
50
  3
B4
350
51
  3
B5
350
52
  3
B6
350
53
  0
DICTIONARY
  5
67
102
{ACAD_REACTORS
330
C
102
}
330
C
100
AcDbDictionary
281
     1
  3
Imperial24
350
68
  0
DICTIONARY
  5
63
102
{ACAD_REACTORS
330
C
102
}
330
C
100
AcDbDictionary
281
     1
  3
Standard
350
64
  0
DICTIONARY
  5
29
102
{ACAD_REACTORS
330
C
102
}
330
C
100
AcDbDictionary
281
     1
  3
2dWireframe
350
2F
  3
Basic
350
2E
  3
Brighten
350
35
  3
ColorChange
350
39
  3
Conceptual
350
32
  3
Dim
350
34
  3
EdgeColorOff
350
41
  3
Facepattern
350
38
  3
Flat
350
2A
  3
FlatWithEdges
350
2B
  3
Gouraud
350
2C
  3
GouraudWithEdges
350
2D
  3
Hidden
350
31
  3
JitterOff
350
3F
  3
Linepattern
350
37
  3
OverhangOff
350
40
  3
Realistic
350
33
  3
Shaded
350
3E
  3
Shaded with edges
350
3D
  3
Shades of Gray
350
3A
  3
Sketchy
350
3B
  3
Thicken
350
36
  3
Wireframe
350
30
  3
X-Ray
350
3C
  0
XRECORD
  5
520
102
{ACAD_REACTORS
330
C
102
}
330
C
100
AcDbXrecord
280
     1
 90
        1
330
64
330
68
330
6A
  0
DICTIONARY
  5
513
102
{ACAD_REACTORS
330
C
102
}
330
C
100
AcDbDictionary
281
     1
  3
CANNOSCALE
350
518
  3
CMLEADERSTYLE
350
515
  3
CTABLESTYLE
350
514
  3
CVIEWDETAILSTYLE
350
516
  3
CVIEWSECTIONSTYLE
350
517
  0
DICTIONARY
  5
50E
102
{ACAD_REACTORS
330
50D
102
}
330
50D
100
AcDbDictionary
281
     1
  0
ACDBDETAILVIEWSTYLE
  5
6A
102
{ACAD_XDICTIONARY
360
51E
102
}
102
{ACAD_REACTORS
330
69
102
}
330
69
100
AcDbModelDocViewStyle
 70
     0
  3
Imperial24
290
     0
100
AcDbDetailViewStyle
 70
     0
 71
     0
 90
        3
 71
     1
340
55
 62
   256
 40
0.24
340
0
 62
   256
 40
0.24
300

 40
0.36
280
     3
 71
     2
340
5C
 90
       25
 62
   256
 71
     3
340
55
 62
   256
 40
0.24
 90
        1
 40
0.75
 90
        1
300
%<\AcVar ViewType \f "%tc1">% %<\AcVar ViewDetailId>%\PVARIA %<\AcVar ViewScale \f "%sn">%
 71
     4
340
5C
 90
       25
 62
   256
340
5C
 90
       25
 62
   256
280
     0
  0
LAYOUT
  5
6E
102
{ACAD_REACTORS
330
61
102
}
330
61
100
AcDbPlotSettings
  1

  2
Kyocera FS-1350DN KX
  4

  6

 40
0.0
 41
0.0
 42
0.0
 43
0.0
 44
0.0
 45
0.0
 46
0.0
 47
0.0
 48
0.0
 49
0.0
140
0.0
141
0.0
142
1.0
143
1.0
 70
   688
 72
     0
 73
     0
 74
     5
  7

 75
    16
147
1.0
 76
     0
 77
     2
 78
   300
148
0.0
149
0.0
100
AcDbLayout
  1
Layout1
 70
     0
 71
     1
 10
0.0
 20
0.0
 11
12.0
 21
9.0
 12
0.0
 22
0.0
 32
0.0
 14
1.000000000000000E+20
 24
1.000000000000000E+20
 34
1.000000000000000E+20
 15
-1.000000000000000E+20
 25
-1.000000000000000E+20
 35
-1.000000000000000E+20
146
0.0
 13
0.0
 23
0.0
 33
0.0
 16
1.0
 26
0.0
 36
0.0
 17
0.0
 27
1.0
 37
0.0
 76
     0
330
6B
  0
LAYOUT
  5
72
102
{ACAD_REACTORS
330
61
102
}
330
61
100
AcDbPlotSettings
  1

  2
Kyocera FS-1350DN KX
  4

  6

 40
0.0
 41
0.0
 42
0.0
 43
0.0
 44
0.0
 45
0.0
 46
0.0
 47
0.0
 48
0.0
 49
0.0
140
0.0
141
0.0
142
1.0
143
1.0
 70
  1712
 72
     0
 73
     0
 74
     0
  7

 75
     0
147
1.0
 76
     0
 77
     2
 78
   300
148
0.0
149
0.0
100
AcDbLayout
  1
Model
 70
     1
 71
     0
 10
0.0
 20
0.0
 11
12.0
 21
9.0
 12
0.0
 22
0.0
 32
0.0
 14
0.0
 24
0.0
 34
0.0
 15
0.0
 25
0.0
 35
0.0
146
0.0
 13
0.0
 23
0.0
 33
0.0
 16
1.0
 26
0.0
 36
0.0
 17
0.0
 27
1.0
 37
0.0
 76
     0
330
6F
331
8F
  0
MATERIAL
  5
19
102
{ACAD_XDICTIONARY
360
1A
102
}
102
{ACAD_REACTORS
330
10
102
}
330
10
100
AcDbMaterial
  1
ByBlock
 72
     0
 43
0.0208333333333333
 43
0.0
 43
0.0
 43
0.0
 43
0.0
 43
0.0208333333333333
 43
0.0
 43
0.0
 43
0.0
 43
0.0
 43
1.0
 43
0.0
 43
0.0
 43
0.0
 43
0.0
 43
1.0
 77
     0
 47
0.0208333333333333
 47
0.0
 47
0.0
 47
0.0
 47
0.0
 47
0.0208333333333333
 47
0.0
 47
0.0
 47
0.0
 47
0.0
 47
1.0
 47
0.0
 47
0.0
 47
0.0
 47
0.0
 47
1.0
171
     0
 49
0.0208333333333333
 49
0.0
 49
0.0
 49
0.0
 49
0.0
 49
0.0208333333333333
 49
0.0
 49
0.0
 49
0.0
 49
0.0
 49
1.0
 49
0.0
 49
0.0
 49
0.0
 49
0.0
 49
1.0
175
     0
142
0.0208333333333333
142
0.0
142
0.0
142
0.0
142
0.0
142
0.0208333333333333
142
0.0
142
0.0
142
0.0
142
0.0
142
1.0
142
0.0
142
0.0
142
0.0
142
0.0
142
1.0
179
     0
144
0.0208333333333333
144
0.0
144
0.0
144
0.0
144
0.0
144
0.0208333333333333
144
0.0
144
0.0
144
0.0
144
0.0
144
1.0
144
0.0
144
0.0
144
0.0
144
0.0
144
1.0
147
0.0208333333333333
147
0.0
147
0.0
147
0.0
147
0.0
147
0.0208333333333333
147
0.0
147
0.0
147
0.0
147
0.0
147
1.0
147
0.0
147
0.0
147
0.0
147
0.0
147
1.0
  0
MATERIAL
  5
11
102
{ACAD_XDICTIONARY
360
12
102
}
102
{ACAD_REACTORS
330
10
102
}
330
10
100
AcDbMaterial
  1
ByLayer
 72
     0
 43
0.0208333333333333
 43
0.0
 43
0.0
 43
0.0
 43
0.0
 43
0.0208333333333333
 43
0.0
 43
0.0
 43
0.0
 43
0.0
 43
1.0
 43
0.0
 43
0.0
 43
0.0
 43
0.0
 43
1.0
 77
     0
 47
0.0208333333333333
 47
0.0
 47
0.0
 47
0.0
 47
0.0
 47
0.0208333333333333
 47
0.0
 47
0.0
 47
0.0
 47
0.0
 47
1.0
 47
0.0
 47
0.0
 47
0.0
 47
0.0
 47
1.0
171
     0
 49
0.0208333333333333
 49
0.0
 49
0.0
 49
0.0
 49
0.0
 49
0.0208333333333333
 49
0.0
 49
0.0
 49
0.0
 49
0.0
 49
1.0
 49
0.0
 49
0.0
 49
0.0
 49
0.0
 49
1.0
175
     0
142
0.0208333333333333
142
0.0
142
0.0
142
0.0
142
0.0
142
0.0208333333333333
142
0.0
142
0.0
142
0.0
142
0.0
142
1.0
142
0.0
142
0.0
142
0.0
142
0.0
142
1.0
179
     0
144
0.0208333333333333
144
0.0
144
0.0
144
0.0
144
0.0
144
0.0208333333333333
144
0.0
144
0.0
144
0.0
144
0.0
144
1.0
144
0.0
144
0.0
144
0.0
144
0.0
144
1.0
147
0.0208333333333333
147
0.0
147
0.0
147
0.0
147
0.0
147
0.0208333333333333
147
0.0
147
0.0
147
0.0
147
0.0
147
1.0
147
0.0
147
0.0
147
0.0
147
0.0
147
1.0
  0
MATERIAL
  5
21
102
{ACAD_XDICTIONARY
360
22
102
}
102
{ACAD_REACTORS
330
10
102
}
330
10
100
AcDbMaterial
  1
Global
 72
     0
 43
0.0208333333333333
 43
0.0
 43
0.0
 43
0.0
 43
0.0
 43
0.0208333333333333
 43
0.0
 43
0.0
 43
0.0
 43
0.0
 43
1.0
 43
0.0
 43
0.0
 43
0.0
 43
0.0
 43
1.0
 77
     0
 47
0.0208333333333333
 47
0.0
 47
0.0
 47
0.0
 47
0.0
 47
0.0208333333333333
 47
0.0
 47
0.0
 47
0.0
 47
0.0
 47
1.0
 47
0.0
 47
0.0
 47
0.0
 47
0.0
 47
1.0
171
     0
 49
0.0208333333333333
 49
0.0
 49
0.0
 49
0.0
 49
0.0
 49
0.0208333333333333
 49
0.0
 49
0.0
 49
0.0
 49
0.0
 49
1.0
 49
0.0
 49
0.0
 49
0.0
 49
0.0
 49
1.0
175
     0
142
0.0208333333333333
142
0.0
142
0.0
142
0.0
142
0.0
142
0.0208333333333333
142
0.0
142
0.0
142
0.0
142
0.0
142
1.0
142
0.0
142
0.0
142
0.0
142
0.0
142
1.0
179
     0
144
0.0208333333333333
144
0.0
144
0.0
144
0.0
144
0.0
144
0.0208333333333333
144
0.0
144
0.0
144
0.0
144
0.0
144
1.0
144
0.0
144
0.0
144
0.0
144
0.0
144
1.0
147
0.0208333333333333
147
0.0
147
0.0
147
0.0
147
0.0
147
0.0208333333333333
147
0.0
147
0.0
147
0.0
147
0.0
147
1.0
147
0.0
147
0.0
147
0.0
147
0.0
147
1.0
  0
MLEADERSTYLE
  5
66
102
{ACAD_REACTORS
330
65
102
}
330
65
100
AcDbMLeaderStyle
179
     2
170
     2
171
     1
172
     0
 90
        2
 40
0.0
 41
0.0
173
     1
 91
-1056964608
340
5A
 92
       -2
290
     1
 42
0.09
291
     1
 43
0.36
  3
Standard
 44
0.18
300

342
55
174
     1
178
     6
175
     1
176
     0
 93
-1056964608
 45
0.18
292
     0
297
     0
 46
0.18
 94
-1056964608
 47
1.0
 49
1.0
140
1.0
293
     1
141
0.0
294
     1
177
     0
142
1.0
295
     1
296
     0
143
0.125
271
     0
272
     9
273
     9
298
     1
  0
MLINESTYLE
  5
5F
102
{ACAD_REACTORS
330
5E
102
}
330
5E
100
AcDbMlineStyle
  2
STANDARD
 70
     0
  3

 62
   256
 51
90.0
 52
90.0
 71
     2
 49
0.5
 62
   256
  6
BYLAYER
 49
-0.5
 62
   256
  6
BYLAYER
  0
ACDBPLACEHOLDER
  5
F
102
{ACAD_REACTORS
330
E
102
}
330
E
  0
SCALE
  5
43
102
{ACAD_REACTORS
330
42
102
}
330
42
100
AcDbScale
 70
     0
300
1:1
140
1.0
141
1.0
290
     1
  0
SCALE
  5
44
102
{ACAD_REACTORS
330
42
102
}
330
42
100
AcDbScale
 70
     0
300
1/128" = 1'-0"
140
0.0078125
141
12.0
290
     0
  0
SCALE
  5
45
102
{ACAD_REACTORS
330
42
102
}
330
42
100
AcDbScale
 70
     0
300
1/64" = 1'-0"
140
0.015625
141
12.0
290
     0
  0
SCALE
  5
46
102
{ACAD_REACTORS
330
42
102
}
330
42
100
AcDbScale
 70
     0
300
1/32" = 1'-0"
140
0.03125
141
12.0
290
     0
  0
SCALE
  5
47
102
{ACAD_REACTORS
330
42
102
}
330
42
100
AcDbScale
 70
     0
300
1/16" = 1'-0"
140
0.0625
141
12.0
290
     0
  0
SCALE
  5
48
102
{ACAD_REACTORS
330
42
102
}
330
42
100
AcDbScale
 70
     0
300
3/32" = 1'-0"
140
0.09375
141
12.0
290
     0
  0
SCALE
  5
49
102
{ACAD_REACTORS
330
42
102
}
330
42
100
AcDbScale
 70
     0
300
1/8" = 1'-0"
140
0.125
141
12.0
290
     0
  0
SCALE
  5
4A
102
{ACAD_REACTORS
330
42
102
}
330
42
100
AcDbScale
 70
     0
300
3/16" = 1'-0"
140
0.1875
141
12.0
290
     0
  0
SCALE
  5
4B
102
{ACAD_REACTORS
330
42
102
}
330
42
100
AcDbScale
 70
     0
300
1/4" = 1'-0"
140
0.25
141
12.0
290
     0
  0
SCALE
  5
4C
102
{ACAD_REACTORS
330
42
102
}
330
42
100
AcDbScale
 70
     0
300
3/8" = 1'-0"
140
0.375
141
12.0
290
     0
  0
SCALE
  5
4D
102
{ACAD_REACTORS
330
42
102
}
330
42
100
AcDbScale
 70
     0
300
1/2" = 1'-0"
140
0.5
141
12.0
290
     0
  0
SCALE
  5
4E
102
{ACAD_REACTORS
330
42
102
}
330
42
100
AcDbScale
 70
     0
300
3/4" = 1'-0"
140
0.75
141
12.0
290
     0
  0
SCALE
  5
4F
102
{ACAD_REACTORS
330
42
102
}
330
42
100
AcDbScale
 70
     0
300
1" = 1'-0"
140
1.0
141
12.0
290
     0
  0
SCALE
  5
50
102
{ACAD_REACTORS
330
42
102
}
330
42
100
AcDbScale
 70
     0
300
1-1/2" = 1'-0"
140
1.5
141
12.0
290
     0
  0
SCALE
  5
51
102
{ACAD_REACTORS
330
42
102
}
330
42
100
AcDbScale
 70
     0
300
3" = 1'-0"
140
3.0
141
12.0
290
     0
  0
SCALE
  5
52
102
{ACAD_REACTORS
330
42
102
}
330
42
100
AcDbScale
 70
     0
300
6" = 1'-0"
140
6.0
141
12.0
290
     0
  0
SCALE
  5
53
102
{ACAD_REACTORS
330
42
102
}
330
42
100
AcDbScale
 70
     0
300
1'-0" = 1'-0"
140
12.0
141
12.0
290
     0
  0
ACDBSECTIONVIEWSTYLE
  5
68
102
{ACAD_XDICTIONARY
360
51C
102
}
102
{ACAD_REACTORS
330
67
102
}
330
67
100
AcDbModelDocViewStyle
 70
     0
  3
Imperial24
290
     0
100
AcDbSectionViewStyle
 70
     0
 71
     0
 90
       78
 71
     1
340
55
 62
   256
 40
0.24
340
0
340
0
 62
   256
 40
0.24
300
I, O, Q, S, X, Z
 40
0.48
 90
        3
 40
0.18
 90
        1
 71
     2
340
5C
 90
       25
 62
   256
340
5C
 90
       50
 62
   256
 40
0.24
 40
0.0
 40
0.24
 71
     3
340
55
 62
   256
 40
0.24
 90
        1
 40
0.75
 90
        1
300
%<\AcVar ViewType \f "%tc1">% %<\AcVar ViewSectionStartId>%-%<\AcVar ViewSectionEndId>%\PVARIA %<\AcVar ViewScale \f "%sn">%
 71
     4
 62
   256
 62
   257
300
ANSI31
 40
1.0
 90
        0
290
     0
290
     0
 90
        6
 40
0.0
 40
1.570796326794896
 40
0.2617993877991494
 40
1.308996938995747
 40
-0.2617993877991494
 40
1.832595714594046
  0
TABLESTYLE
  5
64
102
{ACAD_XDICTIONARY
360
51A
102
}
102
{ACAD_REACTORS
330
63
102
}
330
63
100
AcDbTableStyle
280
     0
  3
Standard
 70
     0
 71
     0
 40
0.06
 41
0.06
280
     0
281
     0
  7
STANDARD
140
0.18
170
     2
 62
     0
 63
     7
283
     0
 90
      512
 91
        0
  1

274
    -2
284
     1
 64
     0
275
    -2
285
     1
 65
     0
276
    -2
286
     1
 66
     0
277
    -2
287
     1
 67
     0
278
    -2
288
     1
 68
     0
279
    -2
289
     1
 69
     0
  7
STANDARD
140
0.25
170
     5
 62
     0
 63
     7
283
     0
 90
      512
 91
        0
  1

274
    -2
284
     1
 64
     0
275
    -2
285
     1
 65
     0
276
    -2
286
     1
 66
     0
277
    -2
287
     1
 67
     0
278
    -2
288
     1
 68
     0
279
    -2
289
     1
 69
     0
  7
STANDARD
140
0.18
170
     5
 62
     0
 63
     7
283
     0
 90
      512
 91
        0
  1

274
    -2
284
     1
 64
     0
275
    -2
285
     1
 65
     0
276
    -2
286
     1
 66
     0
277
    -2
287
     1
 67
     0
278
    -2
288
     1
 68
     0
279
    -2
289
     1
 69
     0
  0
VISUALSTYLE
  5
2F
102
{ACAD_REACTORS
330
29
102
}
330
29
100
AcDbVisualStyle
  2
2dWireframe
 70
     4
177
     3
291
     0
 70
    58
 90
        0
176
     1
 90
        2
176
     1
 90
        0
176
     1
 90
        0
176
     1
 40
0.6
176
     1
 40
30.0
176
     1
 62
     7
420
 16777215
176
     1
 90
        1
176
     1
 90
        4
176
     1
 62
     7
176
     1
 62
   257
176
     1
 90
        1
176
     1
 90
        1
176
     1
 40
1.0
176
     1
 90
        0
176
     1
 62
   257
176
     1
 40
1.0
176
     1
 90
        1
176
     1
 90
        6
176
     1
 90
        2
176
     1
 62
     7
176
     1
 90
        5
176
     1
 90
        0
176
     1
 90
        0
176
     1
290
     0
176
     1
 90
        1
176
     1
 40
0.0
176
     1
 90
        0
176
     1
290
     1
176
     1
290
     1
176
     1
290
     0
176
     1
290
     0
176
     1
290
     0
176
     1
290
     0
176
     1
290
     0
176
     1
290
     0
176
     1
290
     0
176
     1
 90
       50
176
     1
 40
0.0
176
     1
 40
1.0
176
     1
 90
        0
176
     1
 62
    18
420
        0
176
     1
 90
       50
176
     1
 90
        3
176
     1
 62
     5
420
      255
176
     1
290
     0
176
     1
 90
       50
176
     1
 90
       50
176
     1
 90
       50
176
     1
290
     0
176
     1
 90
       50
176
     1
 62
   256
176
     0
 40
1.0
176
     0
 90
        2
176
     1
  1
strokes_ogs.tif
176
     1
290
     0
176
     1
 40
1.0
176
     1
 40
1.0
176
     1
  0
VISUALSTYLE
  5
2E
102
{ACAD_REACTORS
330
29
102
}
330
29
100
AcDbVisualStyle
  2
Basic
 70
     7
177
     3
291
     1
 70
    58
 90
        1
176
     1
 90
        0
176
     1
 90
        1
176
     1
 90
        0
176
     1
 40
0.6
176
     1
 40
30.0
176
     1
 62
     7
420
 16777215
176
     1
 90
        0
176
     1
 90
        4
176
     1
 62
     7
176
     1
 62
   257
176
     1
 90
        1
176
     1
 90
        1
176
     1
 40
1.0
176
     1
 90
        8
176
     1
 62
     7
176
     1
 40
1.0
176
     1
 90
        1
176
     1
 90
        6
176
     1
 90
        2
176
     1
 62
     7
176
     1
 90
        5
176
     1
 90
        0
176
     1
 90
        0
176
     1
290
     0
176
     1
 90
        1
176
     1
 40
0.0
176
     1
 90
        0
176
     1
290
     0
176
     1
290
     1
176
     1
290
     1
176
     1
290
     0
176
     1
290
     0
176
     1
290
     0
176
     1
290
     0
176
     1
290
     0
176
     1
290
     0
176
     1
 90
       50
176
     1
 40
0.0
176
     1
 40
1.0
176
     1
 90
        0
176
     1
 62
    18
420
        0
176
     1
 90
       50
176
     1
 90
        3
176
     1
 62
     5
420
      255
176
     1
290
     0
176
     1
 90
       50
176
     1
 90
       50
176
     1
 90
       50
176
     1
290
     0
176
     1
 90
       50
176
     1
 62
   256
176
     0
 40
1.0
176
     0
 90
        2
176
     1
  1
strokes_ogs.tif
176
     1
290
     0
176
     1
 40
1.0
176
     1
 40
1.0
176
     1
  0
VISUALSTYLE
  5
35
102
{ACAD_REACTORS
330
29
102
}
330
29
100
AcDbVisualStyle
  2
Brighten
 70
    12
177
     3
291
     1
 70
    58
 90
        2
176
     1
 90
        2
176
     1
 90
        0
176
     1
 90
        0
176
     1
 40
0.6
176
     1
 40
30.0
176
     1
 62
     7
420
 16777215
176
     1
 90
        1
176
     1
 90
        4
176
     1
 62
     7
176
     1
 62
   257
176
     1
 90
        1
176
     1
 90
        1
176
     1
 40
1.0
176
     1
 90
        8
176
     1
 62
     7
176
     1
 40
1.0
176
     1
 90
        1
176
     1
 90
        6
176
     1
 90
        2
176
     1
 62
     7
176
     1
 90
        5
176
     1
 90
        0
176
     1
 90
        0
176
     1
290
     0
176
     1
 90
        1
176
     1
 40
50.0
176
     1
 90
        0
176
     1
290
     0
176
     1
290
     1
176
     1
290
     1
176
     1
290
     0
176
     1
290
     0
176
     1
290
     0
176
     1
290
     0
176
     1
290
     0
176
     1
290
     0
176
     1
 90
       50
176
     1
 40
0.0
176
     1
 40
1.0
176
     1
 90
        0
176
     1
 62
    18
420
        0
176
     1
 90
       50
176
     1
 90
        3
176
     1
 62
     5
420
      255
176
     1
290
     0
176
     1
 90
       50
176
     1
 90
       50
176
     1
 90
       50
176
     1
290
     0
176
     1
 90
       50
176
     1
 62
   256
176
     0
 40
1.0
176
     0
 90
        2
176
     1
  1
strokes_ogs.tif
176
     1
290
     0
176
     1
 40
1.0
176
     1
 40
1.0
176
     1
  0
VISUALSTYLE
  5
39
102
{ACAD_REACTORS
330
29
102
}
330
29
100
AcDbVisualStyle
  2
ColorChange
 70
    16
177
     3
291
     1
 70
    58
 90
        2
176
     1
 90
        2
176
     1
 90
        3
176
     1
 90
        0
176
     1
 40
0.6
176
     1
 40
30.0
176
     1
 62
     8
420
  8421504
176
     1
 90
        1
176
     1
 90
        4
176
     1
 62
     7
176
     1
 62
   257
176
     1
 90
        1
176
     1
 90
        1
176
     1
 40
1.0
176
     1
 90
        8
176
     1
 62
     8
420
  8421504
176
     1
 40
1.0
176
     1
 90
        1
176
     1
 90
        6
176
     1
 90
        2
176
     1
 62
     7
176
     1
 90
        5
176
     1
 90
        0
176
     1
 90
        0
176
     1
290
     0
176
     1
 90
        1
176
     1
 40
0.0
176
     1
 90
        0
176
     1
290
     0
176
     1
290
     1
176
     1
290
     1
176
     1
290
     0
176
     1
290
     0
176
     1
290
     0
176
     1
290
     0
176
     1
290
     0
176
     1
290
     0
176
     1
 90
       50
176
     1
 40
0.0
176
     1
 40
1.0
176
     1
 90
        0
176
     1
 62
    18
420
        0
176
     1
 90
       50
176
     1
 90
        3
176
     1
 62
     5
420
      255
176
     1
290
     0
176
     1
 90
       50
176
     1
 90
       50
176
     1
 90
       50
176
     1
290
     0
176
     1
 90
       50
176
     1
 62
   256
176
     0
 40
1.0
176
     0
 90
        2
176
     1
  1
strokes_ogs.tif
176
     1
290
     0
176
     1
 40
1.0
176
     1
 40
1.0
176
     1
  0
VISUALSTYLE
  5
32
102
{ACAD_REACTORS
330
29
102
}
330
29
100
AcDbVisualStyle
  2
Conceptual
 70
     9
177
     3
291
     0
 70
    58
 90
        3
176
     1
 90
        2
176
     1
 90
        0
176
     1
 90
        0
176
     1
 40
0.6
176
     1
 40
30.0
176
     1
 62
     7
420
 16777215
176
     1
 90
        2
176
     1
 90
        2
176
     1
 62
     7
176
     1
 62
   257
176
     1
 90
        1
176
     1
 90
        1
176
     1
 40
179.0
176
     1
 90
        8
176
     1
 62
     7
176
     1
 40
1.0
176
     1
 90
        1
176
     1
 90
        6
176
     1
 90
        2
176
     1
 62
     7
176
     1
 90
        3
176
     1
 90
        0
176
     1
 90
        0
176
     1
290
     0
176
     1
 90
        1
176
     1
 40
0.0
176
     1
 90
        0
176
     1
290
     0
176
     1
290
     1
176
     1
290
     1
176
     1
290
     0
176
     1
290
     0
176
     1
290
     0
176
     1
290
     0
176
     1
290
     0
176
     1
290
     0
176
     1
 90
       50
176
     1
 40
0.0
176
     1
 40
1.0
176
     1
 90
        0
176
     1
 62
    18
420
        0
176
     1
 90
       50
176
     1
 90
        3
176
     1
 62
     5
420
      255
176
     1
290
     0
176
     1
 90
       50
176
     1
 90
       50
176
     1
 90
       50
176
     1
290
     0
176
     1
 90
       50
176
     1
 62
   256
176
     0
 40
1.0
176
     0
 90
        2
176
     1
  1
strokes_ogs.tif
176
     1
290
     0
176
     1
 40
1.0
176
     1
 40
1.0
176
     1
  0
VISUALSTYLE
  5
34
102
{ACAD_REACTORS
330
29
102
}
330
29
100
AcDbVisualStyle
  2
Dim
 70
    11
177
     3
291
     1
 70
    58
 90
        2
176
     1
 90
        2
176
     1
 90
        0
176
     1
 90
        0
176
     1
 40
0.6
176
     1
 40
30.0
176
     1
 62
     7
420
 16777215
176
     1
 90
        1
176
     1
 90
        4
176
     1
 62
     7
176
     1
 62
   257
176
     1
 90
        1
176
     1
 90
        1
176
     1
 40
1.0
176
     1
 90
        8
176
     1
 62
     7
176
     1
 40
1.0
176
     1
 90
        1
176
     1
 90
        6
176
     1
 90
        2
176
     1
 62
     7
176
     1
 90
        5
176
     1
 90
        0
176
     1
 90
        0
176
     1
290
     0
176
     1
 90
        1
176
     1
 40
-50.0
176
     1
 90
        0
176
     1
290
     0
176
     1
290
     1
176
     1
290
     1
176
     1
290
     0
176
     1
290
     0
176
     1
290
     0
176
     1
290
     0
176
     1
290
     0
176
     1
290
     0
176
     1
 90
       50
176
     1
 40
0.0
176
     1
 40
1.0
176
     1
 90
        0
176
     1
 62
    18
420
        0
176
     1
 90
       50
176
     1
 90
        3
176
     1
 62
     5
420
      255
176
     1
290
     0
176
     1
 90
       50
176
     1
 90
       50
176
     1
 90
       50
176
     1
290
     0
176
     1
 90
       50
176
     1
 62
   256
176
     0
 40
1.0
176
     0
 90
        2
176
     1
  1
strokes_ogs.tif
176
     1
290
     0
176
     1
 40
1.0
176
     1
 40
1.0
176
     1
  0
VISUALSTYLE
  5
41
102
{ACAD_REACTORS
330
29
102
}
330
29
100
AcDbVisualStyle
  2
EdgeColorOff
 70
    22
177
     3
291
     1
 70
    58
 90
        2
176
     0
 90
        2
176
     0
 90
        0
176
     0
 90
        0
176
     0
 40
0.6
176
     0
 40
30.0
176
     0
 62
     7
420
 16777215
176
     0
 90
        1
176
     0
 90
        4
176
     0
 62
     7
176
     0
 62
   257
176
     0
 90
        1
176
     0
 90
        1
176
     0
 40
1.0
176
     0
 90
        8
176
     2
 62
     7
176
     0
 40
1.0
176
     0
 90
        1
176
     0
 90
        6
176
     0
 90
        2
176
     0
 62
     7
176
     0
 90
        5
176
     0
 90
        0
176
     0
 90
        0
176
     0
290
     0
176
     0
 90
        1
176
     0
 40
0.0
176
     0
 90
        0
176
     0
290
     0
176
     0
290
     1
176
     0
290
     1
176
     0
290
     0
176
     0
290
     0
176
     0
290
     0
176
     0
290
     0
176
     0
290
     0
176
     0
290
     0
176
     0
 90
       50
176
     0
 40
0.0
176
     0
 40
1.0
176
     0
 90
        0
176
     0
 62
    18
420
        0
176
     0
 90
       50
176
     0
 90
        3
176
     0
 62
     5
420
      255
176
     0
290
     0
176
     0
 90
       50
176
     0
 90
       50
176
     0
 90
       50
176
     0
290
     0
176
     0
 90
       50
176
     0
 62
   256
176
     0
 40
1.0
176
     0
 90
        2
176
     0
  1
strokes_ogs.tif
176
     0
290
     0
176
     0
 40
1.0
176
     0
 40
1.0
176
     0
  0
VISUALSTYLE
  5
38
102
{ACAD_REACTORS
330
29
102
}
330
29
100
AcDbVisualStyle
  2
Facepattern
 70
    15
177
     3
291
     1
 70
    58
 90
        2
176
     1
 90
        2
176
     1
 90
        0
176
     1
 90
        0
176
     1
 40
0.6
176
     1
 40
30.0
176
     1
 62
     7
420
 16777215
176
     1
 90
        1
176
     1
 90
        4
176
     1
 62
     7
176
     1
 62
   257
176
     1
 90
        1
176
     1
 90
        1
176
     1
 40
1.0
176
     1
 90
        8
176
     1
 62
     7
176
     1
 40
1.0
176
     1
 90
        1
176
     1
 90
        6
176
     1
 90
        2
176
     1
 62
     7
176
     1
 90
        5
176
     1
 90
        0
176
     1
 90
        0
176
     1
290
     0
176
     1
 90
        1
176
     1
 40
0.0
176
     1
 90
        0
176
     1
290
     0
176
     1
290
     1
176
     1
290
     1
176
     1
290
     0
176
     1
290
     0
176
     1
290
     0
176
     1
290
     0
176
     1
290
     0
176
     1
290
     0
176
     1
 90
       50
176
     1
 40
0.0
176
     1
 40
1.0
176
     1
 90
        0
176
     1
 62
    18
420
        0
176
     1
 90
       50
176
     1
 90
        3
176
     1
 62
     5
420
      255
176
     1
290
     0
176
     1
 90
       50
176
     1
 90
       50
176
     1
 90
       50
176
     1
290
     0
176
     1
 90
       50
176
     1
 62
   256
176
     0
 40
1.0
176
     0
 90
        2
176
     1
  1
strokes_ogs.tif
176
     1
290
     0
176
     1
 40
1.0
176
     1
 40
1.0
176
     1
  0
VISUALSTYLE
  5
2A
102
{ACAD_REACTORS
330
29
102
}
330
29
100
AcDbVisualStyle
  2
Flat
 70
     0
177
     3
291
     1
 70
    58
 90
        2
176
     1
 90
        1
176
     1
 90
        1
176
     1
 90
        2
176
     1
 40
0.6
176
     1
 40
30.0
176
     1
 62
     7
420
 16777215
176
     1
 90
        0
176
     1
 90
        0
176
     1
 62
     7
176
     1
 62
   257
176
     1
 90
        1
176
     1
 90
        1
176
     1
 40
1.0
176
     1
 90
        8
176
     1
 62
     7
176
     1
 40
1.0
176
     1
 90
        1
176
     1
 90
        6
176
     1
 90
        2
176
     1
 62
     7
176
     1
 90
        5
176
     1
 90
        0
176
     1
 90
        0
176
     1
290
     0
176
     1
 90
       13
176
     1
 40
0.0
176
     1
 90
        0
176
     1
290
     0
176
     1
290
     1
176
     1
290
     1
176
     1
290
     0
176
     1
290
     0
176
     1
290
     0
176
     1
290
     0
176
     1
290
     0
176
     1
290
     0
176
     1
 90
       50
176
     1
 40
0.0
176
     1
 40
1.0
176
     1
 90
        0
176
     1
 62
    18
420
        0
176
     1
 90
       50
176
     1
 90
        3
176
     1
 62
     5
420
      255
176
     1
290
     0
176
     1
 90
       50
176
     1
 90
       50
176
     1
 90
       50
176
     1
290
     0
176
     1
 90
       50
176
     1
 62
   256
176
     0
 40
1.0
176
     0
 90
        2
176
     1
  1
strokes_ogs.tif
176
     1
290
     0
176
     1
 40
1.0
176
     1
 40
1.0
176
     1
  0
VISUALSTYLE
  5
2B
102
{ACAD_REACTORS
330
29
102
}
330
29
100
AcDbVisualStyle
  2
FlatWithEdges
 70
     1
177
     3
291
     1
 70
    58
 90
        2
176
     1
 90
        1
176
     1
 90
        1
176
     1
 90
        2
176
     1
 40
0.6
176
     1
 40
30.0
176
     1
 62
     7
420
 16777215
176
     1
 90
        1
176
     1
 90
        0
176
     1
 62
     7
176
     1
 62
   257
176
     1
 90
        1
176
     1
 90
        1
176
     1
 40
1.0
176
     1
 90
        0
176
     1
 62
   257
176
     1
 40
1.0
176
     1
 90
        1
176
     1
 90
        6
176
     1
 90
        2
176
     1
 62
     7
176
     1
 90
        5
176
     1
 90
        0
176
     1
 90
        0
176
     1
290
     0
176
     1
 90
       13
176
     1
 40
0.0
176
     1
 90
        0
176
     1
290
     0
176
     1
290
     1
176
     1
290
     1
176
     1
290
     0
176
     1
290
     0
176
     1
290
     0
176
     1
290
     0
176
     1
290
     0
176
     1
290
     0
176
     1
 90
       50
176
     1
 40
0.0
176
     1
 40
1.0
176
     1
 90
        0
176
     1
 62
    18
420
        0
176
     1
 90
       50
176
     1
 90
        3
176
     1
 62
     5
420
      255
176
     1
290
     0
176
     1
 90
       50
176
     1
 90
       50
176
     1
 90
       50
176
     1
290
     0
176
     1
 90
       50
176
     1
 62
   256
176
     0
 40
1.0
176
     0
 90
        2
176
     1
  1
strokes_ogs.tif
176
     1
290
     0
176
     1
 40
1.0
176
     1
 40
1.0
176
     1
  0
VISUALSTYLE
  5
2C
102
{ACAD_REACTORS
330
29
102
}
330
29
100
AcDbVisualStyle
  2
Gouraud
 70
     2
177
     3
291
     1
 70
    58
 90
        2
176
     1
 90
        2
176
     1
 90
        1
176
     1
 90
        2
176
     1
 40
0.6
176
     1
 40
30.0
176
     1
 62
     7
420
 16777215
176
     1
 90
        0
176
     1
 90
        0
176
     1
 62
     7
176
     1
 62
   257
176
     1
 90
        1
176
     1
 90
        1
176
     1
 40
1.0
176
     1
 90
        0
176
     1
 62
     7
176
     1
 40
1.0
176
     1
 90
        1
176
     1
 90
        6
176
     1
 90
        2
176
     1
 62
     7
176
     1
 90
        5
176
     1
 90
        0
176
     1
 90
        0
176
     1
290
     0
176
     1
 90
       13
176
     1
 40
0.0
176
     1
 90
        0
176
     1
290
     0
176
     1
290
     1
176
     1
290
     1
176
     1
290
     0
176
     1
290
     0
176
     1
290
     0
176
     1
290
     0
176
     1
290
     0
176
     1
290
     0
176
     1
 90
       50
176
     1
 40
0.0
176
     1
 40
1.0
176
     1
 90
        0
176
     1
 62
    18
420
        0
176
     1
 90
       50
176
     1
 90
        3
176
     1
 62
     5
420
      255
176
     1
290
     0
176
     1
 90
       50
176
     1
 90
       50
176
     1
 90
       50
176
     1
290
     0
176
     1
 90
       50
176
     1
 62
   256
176
     0
 40
1.0
176
     0
 90
        2
176
     1
  1
strokes_ogs.tif
176
     1
290
     0
176
     1
 40
1.0
176
     1
 40
1.0
176
     1
  0
VISUALSTYLE
  5
2D
102
{ACAD_REACTORS
330
29
102
}
330
29
100
AcDbVisualStyle
  2
GouraudWithEdges
 70
     3
177
     3
291
     1
 70
    58
 90
        2
176
     1
 90
        2
176
     1
 90
        1
176
     1
 90
        2
176
     1
 40
0.6
176
     1
 40
30.0
176
     1
 62
     7
420
 16777215
176
     1
 90
        1
176
     1
 90
        0
176
     1
 62
     7
176
     1
 62
   257
176
     1
 90
        1
176
     1
 90
        1
176
     1
 40
1.0
176
     1
 90
        0
176
     1
 62
   257
176
     1
 40
1.0
176
     1
 90
        1
176
     1
 90
        6
176
     1
 90
        2
176
     1
 62
     7
176
     1
 90
        5
176
     1
 90
        0
176
     1
 90
        0
176
     1
290
     0
176
     1
 90
       13
176
     1
 40
0.0
176
     1
 90
        0
176
     1
290
     0
176
     1
290
     1
176
     1
290
     1
176
     1
290
     0
176
     1
290
     0
176
     1
290
     0
176
     1
290
     0
176
     1
290
     0
176
     1
290
     0
176
     1
 90
       50
176
     1
 40
0.0
176
     1
 40
1.0
176
     1
 90
        0
176
     1
 62
    18
420
        0
176
     1
 90
       50
176
     1
 90
        3
176
     1
 62
     5
420
      255
176
     1
290
     0
176
     1
 90
       50
176
     1
 90
       50
176
     1
 90
       50
176
     1
290
     0
176
     1
 90
       50
176
     1
 62
   256
176
     0
 40
1.0
176
     0
 90
        2
176
     1
  1
strokes_ogs.tif
176
     1
290
     0
176
     1
 40
1.0
176
     1
 40
1.0
176
     1
  0
VISUALSTYLE
  5
31
102
{ACAD_REACTORS
330
29
102
}
330
29
100
AcDbVisualStyle
  2
Hidden
 70
     6
177
     3
291
     0
 70
    58
 90
        1
176
     1
 90
        2
176
     1
 90
        2
176
     1
 90
        0
176
     1
 40
0.6
176
     1
 40
30.0
176
     1
 62
     7
420
 16777215
176
     1
 90
        2
176
     1
 90
        2
176
     1
 62
     7
176
     1
 62
   257
176
     1
 90
        2
176
     1
 90
        1
176
     1
 40
40.0
176
     1
 90
        0
176
     1
 62
   257
176
     1
 40
1.0
176
     1
 90
        1
176
     1
 90
        6
176
     1
 90
        2
176
     1
 62
     7
176
     1
 90
        3
176
     1
 90
        0
176
     1
 90
        0
176
     1
290
     0
176
     1
 90
        1
176
     1
 40
0.0
176
     1
 90
        0
176
     1
290
     0
176
     1
290
     1
176
     1
290
     1
176
     1
290
     0
176
     1
290
     0
176
     1
290
     0
176
     1
290
     0
176
     1
290
     0
176
     1
290
     0
176
     1
 90
       50
176
     1
 40
0.0
176
     1
 40
1.0
176
     1
 90
        0
176
     1
 62
    18
420
        0
176
     1
 90
       50
176
     1
 90
        3
176
     1
 62
     5
420
      255
176
     1
290
     0
176
     1
 90
       50
176
     1
 90
       50
176
     1
 90
       50
176
     1
290
     0
176
     1
 90
       50
176
     1
 62
   256
176
     0
 40
1.0
176
     0
 90
        2
176
     1
  1
strokes_ogs.tif
176
     1
290
     0
176
     1
 40
1.0
176
     1
 40
1.0
176
     1
  0
VISUALSTYLE
  5
3F
102
{ACAD_REACTORS
330
29
102
}
330
29
100
AcDbVisualStyle
  2
JitterOff
 70
    20
177
     3
291
     1
 70
    58
 90
        2
176
     0
 90
        2
176
     0
 90
        0
176
     0
 90
        0
176
     0
 40
0.6
176
     0
 40
30.0
176
     0
 62
     7
420
 16777215
176
     0
 90
        1
176
     0
 90
        4
176
     0
 62
     7
176
     0
 62
   257
176
     0
 90
        1
176
     0
 90
        1
176
     0
 40
1.0
176
     0
 90
       10
176
     2
 62
     7
176
     0
 40
1.0
176
     0
 90
        1
176
     0
 90
        6
176
     0
 90
        2
176
     0
 62
     7
176
     0
 90
        5
176
     0
 90
        0
176
     0
 90
        0
176
     0
290
     0
176
     0
 90
        1
176
     0
 40
0.0
176
     0
 90
        0
176
     0
290
     0
176
     0
290
     1
176
     0
290
     1
176
     0
290
     0
176
     0
290
     0
176
     0
290
     0
176
     0
290
     0
176
     0
290
     0
176
     0
290
     0
176
     0
 90
       50
176
     0
 40
0.0
176
     0
 40
1.0
176
     0
 90
        0
176
     0
 62
    18
420
        0
176
     0
 90
       50
176
     0
 90
        3
176
     0
 62
     5
420
      255
176
     0
290
     0
176
     0
 90
       50
176
     0
 90
       50
176
     0
 90
       50
176
     0
290
     0
176
     0
 90
       50
176
     0
 62
   256
176
     0
 40
1.0
176
     0
 90
        2
176
     0
  1
strokes_ogs.tif
176
     0
290
     0
176
     0
 40
1.0
176
     0
 40
1.0
176
     0
  0
VISUALSTYLE
  5
37
102
{ACAD_REACTORS
330
29
102
}
330
29
100
AcDbVisualStyle
  2
Linepattern
 70
    14
177
     3
291
     1
 70
    58
 90
        2
176
     1
 90
        2
176
     1
 90
        0
176
     1
 90
        0
176
     1
 40
0.6
176
     1
 40
30.0
176
     1
 62
     7
420
 16777215
176
     1
 90
        1
176
     1
 90
        4
176
     1
 62
     7
176
     1
 62
   257
176
     1
 90
        7
176
     1
 90
        7
176
     1
 40
1.0
176
     1
 90
        8
176
     1
 62
     7
176
     1
 40
1.0
176
     1
 90
        1
176
     1
 90
        6
176
     1
 90
        2
176
     1
 62
     7
176
     1
 90
        5
176
     1
 90
        0
176
     1
 90
        0
176
     1
290
     0
176
     1
 90
        1
176
     1
 40
0.0
176
     1
 90
        0
176
     1
290
     0
176
     1
290
     1
176
     1
290
     1
176
     1
290
     0
176
     1
290
     0
176
     1
290
     0
176
     1
290
     0
176
     1
290
     0
176
     1
290
     0
176
     1
 90
       50
176
     1
 40
0.0
176
     1
 40
1.0
176
     1
 90
        0
176
     1
 62
    18
420
        0
176
     1
 90
       50
176
     1
 90
        3
176
     1
 62
     5
420
      255
176
     1
290
     0
176
     1
 90
       50
176
     1
 90
       50
176
     1
 90
       50
176
     1
290
     0
176
     1
 90
       50
176
     1
 62
   256
176
     0
 40
1.0
176
     0
 90
        2
176
     1
  1
strokes_ogs.tif
176
     1
290
     0
176
     1
 40
1.0
176
     1
 40
1.0
176
     1
  0
VISUALSTYLE
  5
40
102
{ACAD_REACTORS
330
29
102
}
330
29
100
AcDbVisualStyle
  2
OverhangOff
 70
    21
177
     3
291
     1
 70
    58
 90
        2
176
     0
 90
        2
176
     0
 90
        0
176
     0
 90
        0
176
     0
 40
0.6
176
     0
 40
30.0
176
     0
 62
     7
420
 16777215
176
     0
 90
        1
176
     0
 90
        4
176
     0
 62
     7
176
     0
 62
   257
176
     0
 90
        1
176
     0
 90
        1
176
     0
 40
1.0
176
     0
 90
        9
176
     2
 62
     7
176
     0
 40
1.0
176
     0
 90
        1
176
     0
 90
        6
176
     0
 90
        2
176
     0
 62
     7
176
     0
 90
        5
176
     0
 90
        0
176
     0
 90
        0
176
     0
290
     0
176
     0
 90
        1
176
     0
 40
0.0
176
     0
 90
        0
176
     0
290
     0
176
     0
290
     1
176
     0
290
     1
176
     0
290
     0
176
     0
290
     0
176
     0
290
     0
176
     0
290
     0
176
     0
290
     0
176
     0
290
     0
176
     0
 90
       50
176
     0
 40
0.0
176
     0
 40
1.0
176
     0
 90
        0
176
     0
 62
    18
420
        0
176
     0
 90
       50
176
     0
 90
        3
176
     0
 62
     5
420
      255
176
     0
290
     0
176
     0
 90
       50
176
     0
 90
       50
176
     0
 90
       50
176
     0
290
     0
176
     0
 90
       50
176
     0
 62
   256
176
     0
 40
1.0
176
     0
 90
        2
176
     0
  1
strokes_ogs.tif
176
     0
290
     0
176
     0
 40
1.0
176
     0
 40
1.0
176
     0
  0
VISUALSTYLE
  5
33
102
{ACAD_REACTORS
330
29
102
}
330
29
100
AcDbVisualStyle
  2
Realistic
 70
     8
177
     3
291
     0
 70
    58
 90
        2
176
     1
 90
        3
176
     1
 90
        0
176
     1
 90
        2
176
     1
 40
0.6
176
     1
 40
30.0
176
     1
 62
     7
420
 16777215
176
     1
 90
        0
176
     1
 90
        0
176
     1
 62
     7
176
     1
 62
   257
176
     1
 90
        1
176
     1
 90
        1
176
     1
 40
1.0
176
     1
 90
        8
176
     1
 62
   257
176
     1
 40
1.0
176
     1
 90
        1
176
     1
 90
        6
176
     1
 90
        2
176
     1
 62
     7
176
     1
 90
        3
176
     1
 90
        0
176
     1
 90
        0
176
     1
290
     0
176
     1
 90
       13
176
     1
 40
0.0
176
     1
 90
        0
176
     1
290
     0
176
     1
290
     1
176
     1
290
     1
176
     1
290
     0
176
     1
290
     0
176
     1
290
     0
176
     1
290
     0
176
     1
290
     0
176
     1
290
     0
176
     1
 90
       50
176
     1
 40
0.0
176
     1
 40
1.0
176
     1
 90
        0
176
     1
 62
    18
420
        0
176
     1
 90
       50
176
     1
 90
        3
176
     1
 62
     5
420
      255
176
     1
290
     0
176
     1
 90
       50
176
     1
 90
       50
176
     1
 90
       50
176
     1
290
     0
176
     1
 90
       50
176
     1
 62
   256
176
     0
 40
1.0
176
     0
 90
        2
176
     1
  1
strokes_ogs.tif
176
     1
290
     0
176
     1
 40
1.0
176
     1
 40
1.0
176
     1
  0
VISUALSTYLE
  5
3E
102
{ACAD_REACTORS
330
29
102
}
330
29
100
AcDbVisualStyle
  2
Shaded
 70
    27
177
     3
291
     0
 70
    58
 90
        2
176
     1
 90
        2
176
     1
 90
        1
176
     1
 90
        2
176
     1
 40
0.6
176
     1
 40
30.0
176
     1
 62
     7
420
 16777215
176
     1
 90
        0
176
     1
 90
        4
176
     1
 62
     7
176
     1
 62
   257
176
     1
 90
        1
176
     1
 90
        1
176
     1
 40
1.0
176
     1
 90
        8
176
     1
 62
   257
176
     1
 40
1.0
176
     1
 90
        1
176
     1
 90
        6
176
     1
 90
        2
176
     1
 62
     8
420
  7895160
176
     1
 90
        3
176
     1
 90
        0
176
     1
 90
        0
176
     1
290
     0
176
     1
 90
        5
176
     1
 40
0.0
176
     1
 90
        0
176
     1
290
     0
176
     1
290
     1
176
     1
290
     1
176
     1
290
     0
176
     1
290
     0
176
     1
290
     0
176
     1
290
     0
176
     1
290
     0
176
     1
290
     0
176
     1
 90
       50
176
     1
 40
0.0
176
     1
 40
1.0
176
     1
 90
        0
176
     1
 62
    18
420
        0
176
     1
 90
       50
176
     1
 90
        3
176
     1
 62
     5
420
      255
176
     1
290
     0
176
     1
 90
       50
176
     1
 90
       50
176
     1
 90
       50
176
     1
290
     0
176
     1
 90
       50
176
     1
 62
   256
176
     0
 40
1.0
176
     0
 90
        2
176
     1
  1
strokes_ogs.tif
176
     1
290
     0
176
     1
 40
1.0
176
     1
 40
1.0
176
     1
  0
VISUALSTYLE
  5
3D
102
{ACAD_REACTORS
330
29
102
}
330
29
100
AcDbVisualStyle
  2
Shaded with edges
 70
    26
177
     3
291
     0
 70
    58
 90
        2
176
     1
 90
        2
176
     1
 90
        1
176
     1
 90
        2
176
     1
 40
0.6
176
     1
 40
30.0
176
     1
 62
     7
420
 16777215
176
     1
 90
        1
176
     1
 90
       10
176
     1
 62
     7
176
     1
 62
   257
176
     1
 90
        2
176
     1
 90
        1
176
     1
 40
1.0
176
     1
 90
        8
176
     1
 62
   257
176
     1
 40
1.0
176
     1
 90
        1
176
     1
 90
        6
176
     1
 90
        2
176
     1
 62
     7
176
     1
 90
        3
176
     1
 90
        0
176
     1
 90
        0
176
     1
290
     0
176
     1
 90
        5
176
     1
 40
0.0
176
     1
 90
        0
176
     1
290
     0
176
     1
290
     1
176
     1
290
     1
176
     1
290
     0
176
     1
290
     0
176
     1
290
     0
176
     1
290
     0
176
     1
290
     0
176
     1
290
     0
176
     1
 90
       50
176
     1
 40
0.0
176
     1
 40
1.0
176
     1
 90
        0
176
     1
 62
    18
420
        0
176
     1
 90
       50
176
     1
 90
        3
176
     1
 62
     5
420
      255
176
     1
290
     0
176
     1
 90
       50
176
     1
 90
       50
176
     1
 90
       50
176
     1
290
     0
176
     1
 90
       50
176
     1
 62
   256
176
     0
 40
1.0
176
     0
 90
        2
176
     1
  1
strokes_ogs.tif
176
     1
290
     0
176
     1
 40
1.0
176
     1
 40
1.0
176
     1
  0
VISUALSTYLE
  5
3A
102
{ACAD_REACTORS
330
29
102
}
330
29
100
AcDbVisualStyle
  2
Shades of Gray
 70
    23
177
     3
291
     0
 70
    58
 90
        2
176
     1
 90
        2
176
     1
 90
        3
176
     1
 90
        0
176
     1
 40
0.6
176
     1
 40
30.0
176
     1
 62
     7
420
 16777215
176
     1
 90
        2
176
     1
 90
        2
176
     1
 62
     7
176
     1
 62
     7
176
     1
 90
        1
176
     1
 90
        1
176
     1
 40
40.0
176
     1
 90
        8
176
     1
 62
     7
176
     1
 40
1.0
176
     1
 90
        1
176
     1
 90
        6
176
     1
 90
        2
176
     1
 62
     7
176
     1
 90
        3
176
     1
 90
        0
176
     1
 90
        0
176
     1
290
     0
176
     1
 90
        1
176
     1
 40
0.0
176
     1
 90
        0
176
     1
290
     0
176
     1
290
     1
176
     1
290
     1
176
     1
290
     0
176
     1
290
     0
176
     1
290
     0
176
     1
290
     0
176
     1
290
     0
176
     1
290
     0
176
     1
 90
       50
176
     1
 40
0.0
176
     1
 40
1.0
176
     1
 90
        0
176
     1
 62
    18
420
        0
176
     1
 90
       50
176
     1
 90
        3
176
     1
 62
     5
420
      255
176
     1
290
     0
176
     1
 90
       50
176
     1
 90
       50
176
     1
 90
       50
176
     1
290
     0
176
     1
 90
       50
176
     1
 62
   256
176
     0
 40
1.0
176
     0
 90
        2
176
     1
  1
strokes_ogs.tif
176
     1
290
     0
176
     1
 40
1.0
176
     1
 40
1.0
176
     1
  0
VISUALSTYLE
  5
3B
102
{ACAD_REACTORS
330
29
102
}
330
29
100
AcDbVisualStyle
  2
Sketchy
 70
    24
177
     3
291
     0
 70
    58
 90
        1
176
     1
 90
        2
176
     1
 90
        2
176
     1
 90
        0
176
     1
 40
0.6
176
     1
 40
30.0
176
     1
 62
     7
420
 16777215
176
     1
 90
        2
176
     1
 90
        2
176
     1
 62
     7
176
     1
 62
     7
176
     1
 90
        1
176
     1
 90
        1
176
     1
 40
40.0
176
     1
 90
       11
176
     1
 62
     7
176
     1
 40
1.0
176
     1
 90
        1
176
     1
 90
        6
176
     1
 90
        2
176
     1
 62
     7
176
     1
 90
        6
176
     1
 90
        0
176
     1
 90
        0
176
     1
290
     0
176
     1
 90
        1
176
     1
 40
0.0
176
     1
 90
        0
176
     1
290
     0
176
     1
290
     1
176
     1
290
     1
176
     1
290
     0
176
     1
290
     0
176
     1
290
     0
176
     1
290
     0
176
     1
290
     0
176
     1
290
     0
176
     1
 90
       50
176
     1
 40
0.0
176
     1
 40
1.0
176
     1
 90
        0
176
     1
 62
    18
420
        0
176
     1
 90
       50
176
     1
 90
        3
176
     1
 62
     5
420
      255
176
     1
290
     0
176
     1
 90
       50
176
     1
 90
       50
176
     1
 90
       50
176
     1
290
     0
176
     1
 90
       50
176
     1
 62
   256
176
     0
 40
1.0
176
     0
 90
        2
176
     1
  1
strokes_ogs.tif
176
     1
290
     0
176
     1
 40
1.0
176
     1
 40
1.0
176
     1
  0
VISUALSTYLE
  5
36
102
{ACAD_REACTORS
330
29
102
}
330
29
100
AcDbVisualStyle
  2
Thicken
 70
    13
177
     3
291
     1
 70
    58
 90
        2
176
     1
 90
        2
176
     1
 90
        0
176
     1
 90
        0
176
     1
 40
0.6
176
     1
 40
30.0
176
     1
 62
     7
420
 16777215
176
     1
 90
        1
176
     1
 90
        4
176
     1
 62
     7
176
     1
 62
   257
176
     1
 90
        1
176
     1
 90
        1
176
     1
 40
1.0
176
     1
 90
       12
176
     1
 62
     7
176
     1
 40
1.0
176
     1
 90
        1
176
     1
 90
        6
176
     1
 90
        2
176
     1
 62
     7
176
     1
 90
        5
176
     1
 90
        0
176
     1
 90
        0
176
     1
290
     0
176
     1
 90
        1
176
     1
 40
0.0
176
     1
 90
        0
176
     1
290
     0
176
     1
290
     1
176
     1
290
     1
176
     1
290
     0
176
     1
290
     0
176
     1
290
     0
176
     1
290
     0
176
     1
290
     0
176
     1
290
     0
176
     1
 90
       50
176
     1
 40
0.0
176
     1
 40
1.0
176
     1
 90
        0
176
     1
 62
    18
420
        0
176
     1
 90
       50
176
     1
 90
        3
176
     1
 62
     5
420
      255
176
     1
290
     0
176
     1
 90
       50
176
     1
 90
       50
176
     1
 90
       50
176
     1
290
     0
176
     1
 90
       50
176
     1
 62
   256
176
     0
 40
1.0
176
     0
 90
        2
176
     1
  1
strokes_ogs.tif
176
     1
290
     0
176
     1
 40
1.0
176
     1
 40
1.0
176
     1
  0
VISUALSTYLE
  5
30
102
{ACAD_REACTORS
330
29
102
}
330
29
100
AcDbVisualStyle
  2
Wireframe
 70
     5
177
     3
291
     0
 70
    58
 90
        0
176
     1
 90
        2
176
     1
 90
        0
176
     1
 90
        0
176
     1
 40
0.6
176
     1
 40
30.0
176
     1
 62
     7
420
 16777215
176
     1
 90
        1
176
     1
 90
        4
176
     1
 62
     7
176
     1
 62
   257
176
     1
 90
        1
176
     1
 90
        1
176
     1
 40
1.0
176
     1
 90
        0
176
     1
 62
   257
176
     1
 40
1.0
176
     1
 90
        1
176
     1
 90
        6
176
     1
 90
        2
176
     1
 62
     7
176
     1
 90
        3
176
     1
 90
        0
176
     1
 90
        0
176
     1
290
     0
176
     1
 90
        1
176
     1
 40
0.0
176
     1
 90
        0
176
     1
290
     0
176
     1
290
     1
176
     1
290
     1
176
     1
290
     0
176
     1
290
     0
176
     1
290
     0
176
     1
290
     0
176
     1
290
     0
176
     1
290
     0
176
     1
 90
       50
176
     1
 40
0.0
176
     1
 40
1.0
176
     1
 90
        0
176
     1
 62
    18
420
        0
176
     1
 90
       50
176
     1
 90
        3
176
     1
 62
     5
420
      255
176
     1
290
     0
176
     1
 90
       50
176
     1
 90
       50
176
     1
 90
       50
176
     1
290
     0
176
     1
 90
       50
176
     1
 62
   256
176
     0
 40
1.0
176
     0
 90
        2
176
     1
  1
strokes_ogs.tif
176
     1
290
     0
176
     1
 40
1.0
176
     1
 40
1.0
176
     1
  0
VISUALSTYLE
  5
3C
102
{ACAD_REACTORS
330
29
102
}
330
29
100
AcDbVisualStyle
  2
X-Ray
 70
    25
177
     3
291
     0
 70
    58
 90
        2
176
     1
 90
        2
176
     1
 90
        1
176
     1
 90
        1
176
     1
 40
0.5
176
     1
 40
30.0
176
     1
 62
     7
420
 16777215
176
     1
 90
        1
176
     1
 90
        0
176
     1
 62
     7
176
     1
 62
   257
176
     1
 90
        1
176
     1
 90
        1
176
     1
 40
1.0
176
     1
 90
        8
176
     1
 62
     7
176
     1
 40
1.0
176
     1
 90
        1
176
     1
 90
        6
176
     1
 90
        2
176
     1
 62
     7
176
     1
 90
        3
176
     1
 90
        0
176
     1
 90
        0
176
     1
290
     0
176
     1
 90
       13
176
     1
 40
0.0
176
     1
 90
        0
176
     1
290
     0
176
     1
290
     1
176
     1
290
     1
176
     1
290
     0
176
     1
290
     0
176
     1
290
     0
176
     1
290
     0
176
     1
290
     0
176
     1
290
     0
176
     1
 90
       50
176
     1
 40
0.0
176
     1
 40
1.0
176
     1
 90
        0
176
     1
 62
    18
420
        0
176
     1
 90
       50
176
     1
 90
        3
176
     1
 62
     5
420
      255
176
     1
290
     0
176
     1
 90
       50
176
     1
 90
       50
176
     1
 90
       50
176
     1
290
     0
176
     1
 90
       50
176
     1
 62
   256
176
     0
 40
1.0
176
     0
 90
        2
176
     1
  1
strokes_ogs.tif
176
     1
290
     0
176
     1
 40
1.0
176
     1
 40
1.0
176
     1
  0
DICTIONARYVAR
  5
518
102
{ACAD_REACTORS
330
513
102
}
330
513
100
DictionaryVariables
280
     0
  1
1:1
  0
DICTIONARYVAR
  5
515
102
{ACAD_REACTORS
330
513
102
}
330
513
100
DictionaryVariables
280
     0
  1
STANDARD
  0
DICTIONARYVAR
  5
514
102
{ACAD_REACTORS
330
513
102
}
330
513
100
DictionaryVariables
280
     0
  1
STANDARD
  0
DICTIONARYVAR
  5
516
102
{ACAD_REACTORS
330
513
102
}
330
513
100
DictionaryVariables
280
     0
  1
Imperial24
  0
DICTIONARYVAR
  5
517
102
{ACAD_REACTORS
330
513
102
}
330
513
100
DictionaryVariables
280
     0
  1
Imperial24
  0
DICTIONARY
  5
51E
330
6A
100
AcDbDictionary
280
     1
281
     1
  3
ACAD_XREC_ROUNDTRIP
360
51F
  0
DICTIONARY
  5
1A
330
19
100
AcDbDictionary
280
     1
281
     1
  3
BUMPTILE
360
1C
  3
DIFFUSETILE
360
1B
  3
OPACITYTILE
360
1F
  3
REFLECTIONTILE
360
1E
  3
REFRACTIONTILE
360
20
  3
SPECULARTILE
360
1D
  0
DICTIONARY
  5
12
330
11
100
AcDbDictionary
280
     1
281
     1
  3
BUMPTILE
360
14
  3
DIFFUSETILE
360
13
  3
OPACITYTILE
360
17
  3
REFLECTIONTILE
360
16
  3
REFRACTIONTILE
360
18
  3
SPECULARTILE
360
15
  0
DICTIONARY
  5
22
330
21
100
AcDbDictionary
280
     1
281
     1
  3
BUMPTILE
360
24
  3
DIFFUSETILE
360
23
  3
OPACITYTILE
360
27
  3
REFLECTIONTILE
360
26
  3
REFRACTIONTILE
360
28
  3
SPECULARTILE
360
25
  0
DICTIONARY
  5
51C
330
68
100
AcDbDictionary
280
     1
281
     1
  3
ACAD_XREC_ROUNDTRIP
360
51D
  0
DICTIONARY
  5
51A
330
64
100
AcDbDictionary
280
     1
281
     1
  3
ACAD_ROUNDTRIP_2008_TABLESTYLE_CELLSTYLEMAP
360
51B
  0
XRECORD
  5
51F
102
{ACAD_REACTORS
330
51E
102
}
330
51E
100
AcDbXrecord
280
     1
102
DISPLAYNAME
  1
Imperial24
102
FLAGS
 90
        0
  0
XRECORD
  5
1C
102
{ACAD_REACTORS
330
1A
102
}
330
1A
100
AcDbXrecord
280
     1
270
     1
271
     1
  0
XRECORD
  5
1B
102
{ACAD_REACTORS
330
1A
102
}
330
1A
100
AcDbXrecord
280
     1
270
     1
271
     1
  0
XRECORD
  5
1F
102
{ACAD_REACTORS
330
1A
102
}
330
1A
100
AcDbXrecord
280
     1
270
     1
271
     1
  0
XRECORD
  5
1E
102
{ACAD_REACTORS
330
1A
102
}
330
1A
100
AcDbXrecord
280
     1
270
     1
271
     1
  0
XRECORD
  5
20
102
{ACAD_REACTORS
330
1A
102
}
330
1A
100
AcDbXrecord
280
     1
270
     1
271
     1
  0
XRECORD
  5
1D
102
{ACAD_REACTORS
330
1A
102
}
330
1A
100
AcDbXrecord
280
     1
270
     1
271
     1
  0
XRECORD
  5
14
102
{ACAD_REACTORS
330
12
102
}
330
12
100
AcDbXrecord
280
     1
270
     1
271
     1
  0
XRECORD
  5
13
102
{ACAD_REACTORS
330
12
102
}
330
12
100
AcDbXrecord
280
     1
270
     1
271
     1
  0
XRECORD
  5
17
102
{ACAD_REACTORS
330
12
102
}
330
12
100
AcDbXrecord
280
     1
270
     1
271
     1
  0
XRECORD
  5
16
102
{ACAD_REACTORS
330
12
102
}
330
12
100
AcDbXrecord
280
     1
270
     1
271
     1
  0
XRECORD
  5
18
102
{ACAD_REACTORS
330
12
102
}
330
12
100
AcDbXrecord
280
     1
270
     1
271
     1
  0
XRECORD
  5
15
102
{ACAD_REACTORS
330
12
102
}
330
12
100
AcDbXrecord
280
     1
270
     1
271
     1
  0
XRECORD
  5
24
102
{ACAD_REACTORS
330
22
102
}
330
22
100
AcDbXrecord
280
     1
270
     1
271
     1
  0
XRECORD
  5
23
102
{ACAD_REACTORS
330
22
102
}
330
22
100
AcDbXrecord
280
     1
270
     1
271
     1
  0
XRECORD
  5
27
102
{ACAD_REACTORS
330
22
102
}
330
22
100
AcDbXrecord
280
     1
270
     1
271
     1
  0
XRECORD
  5
26
102
{ACAD_REACTORS
330
22
102
}
330
22
100
AcDbXrecord
280
     1
270
     1
271
     1
  0
XRECORD
  5
28
102
{ACAD_REACTORS
330
22
102
}
330
22
100
AcDbXrecord
280
     1
270
     1
271
     1
  0
XRECORD
  5
25
102
{ACAD_REACTORS
330
22
102
}
330
22
100
AcDbXrecord
280
     1
270
     1
271
     1
  0
XRECORD
  5
51D
102
{ACAD_REACTORS
330
51C
102
}
330
51C
100
AcDbXrecord
280
     1
102
DISPLAYNAME
  1
Imperial24
102
FLAGS
 90
        0
  0
CELLSTYLEMAP
  5
51B
102
{ACAD_REACTORS
330
51A
102
}
330
51A
100
AcDbCellStyleMap
 90
        3
300
CELLSTYLE
  1
TABLEFORMAT_BEGIN
 90
        5
170
     1
 91
        0
 92
    32768
 62
   257
 93
        1
300
CONTENTFORMAT
  1
CONTENTFORMAT_BEGIN
 90
        0
 91
        0
 92
      512
 93
        0
300

 40
0.0
140
1.0
 94
        5
 62
     0
340
55
144
0.25
309
CONTENTFORMAT_END
171
     0
 94
        0
309
TABLEFORMAT_END
  1
CELLSTYLE_BEGIN
 90
        1
 91
        1
300
_TITLE
309
CELLSTYLE_END
300
CELLSTYLE
  1
TABLEFORMAT_BEGIN
 90
        5
170
     1
 91
        0
 92
        0
 62
   257
 93
        1
300
CONTENTFORMAT
  1
CONTENTFORMAT_BEGIN
 90
        0
 91
        0
 92
      512
 93
        0
300

 40
0.0
140
1.0
 94
        5
 62
     0
340
55
144
0.18
309
CONTENTFORMAT_END
171
     0
 94
        0
309
TABLEFORMAT_END
  1
CELLSTYLE_BEGIN
 90
        2
 91
        1
300
_HEADER
309
CELLSTYLE_END
300
CELLSTYLE
  1
TABLEFORMAT_BEGIN
 90
        5
170
     1
 91
        0
 92
        0
 62
   257
 93
        1
300
CONTENTFORMAT
  1
CONTENTFORMAT_BEGIN
 90
        0
 91
        0
 92
      512
 93
        0
300

 40
0.0
140
1.0
 94
        2
 62
     0
340
55
144
0.18
309
CONTENTFORMAT_END
171
     0
 94
        0
309
TABLEFORMAT_END
  1
CELLSTYLE_BEGIN
 90
        3
 91
        2
300
_DATA
309
CELLSTYLE_END
  0
ENDSEC
  0
SECTION
  2
ACDSDATA
 70
     2
 71
     6
  0
ACDSSCHEMA
 90
        0
  1
AcDb_Thumbnail_Schema
  2
AcDbDs::ID
280
    10
 91
        8
  2
Thumbnail_Data
280
    15
 91
        0
101
ACDSRECORD
 95
        0
 90
        1
  2
AcDbDs::TreatedAsObjectData
280
     1
291
     1
101
ACDSRECORD
 95
        0
 90
        2
  2
AcDbDs::Legacy
280
     1
291
     1
101
ACDSRECORD
  1
AcDbDs::ID
 90
        3
  2
AcDs:Indexable
280
     1
291
     1
101
ACDSRECORD
  1
AcDbDs::ID
 90
        4
  2
AcDbDs::HandleAttribute
280
     7
282
     1
  0
ACDSSCHEMA
 90
        1
  1
AcDbDs::TreatedAsObjectDataSchema
  2
AcDbDs::TreatedAsObjectData
280
     1
 91
        0
  0
ACDSSCHEMA
 90
        2
  1
AcDbDs::LegacySchema
  2
AcDbDs::Legacy
280
     1
 91
        0
  0
ACDSSCHEMA
 90
        3
  1
AcDbDs::IndexedPropertySchema
  2
AcDs:Indexable
280
     1
 91
        0
  0
ACDSSCHEMA
 90
        4
  1
AcDbDs::HandleAttributeSchema
  2
AcDbDs::HandleAttribute
280
     7
 91
        1
284
     1
  0
ACDSRECORD
 90
        0
  2
AcDbDs::ID
280
    10
320
72
  2
Thumbnail_Data
280
    15
 94
     1971
310
89504E470D0A1A0A0000000D49484452000001000000009B0803000000BA7AB56000000300504C54455B5B5B000000C8C8C80000000000000000000000000000000000000000000000000000330000660000990000CC0000FF0033000033330033660033990033CC0033FF0066000066330066660066990066CC0066FF0099
310
000099330099660099990099CC0099FF00CC0000CC3300CC6600CC9900CCCC00CCFF00FF0000FF3300FF6600FF9900FFCC00FFFF3300003300333300663300993300CC3300FF3333003333333333663333993333CC3333FF3366003366333366663366993366CC3366FF3399003399333399663399993399CC3399FF33CC00
310
33CC3333CC6633CC9933CCCC33CCFF33FF0033FF3333FF6633FF9933FFCC33FFFF6600006600336600666600996600CC6600FF6633006633336633666633996633CC6633FF6666006666336666666666996666CC6666FF6699006699336699666699996699CC6699FF66CC0066CC3366CC6666CC9966CCCC66CCFF66FF0066
310
FF3366FF6666FF9966FFCC66FFFF9900009900339900669900999900CC9900FF9933009933339933669933999933CC9933FF9966009966339966669966999966CC9966FF9999009999339999669999999999CC9999FF99CC0099CC3399CC6699CC9999CCCC99CCFF99FF0099FF3399FF6699FF9999FFCC99FFFFCC0000CC00
310
33CC0066CC0099CC00CCCC00FFCC3300CC3333CC3366CC3399CC33CCCC33FFCC6600CC6633CC6666CC6699CC66CCCC66FFCC9900CC9933CC9966CC9999CC99CCCC99FFCCCC00CCCC33CCCC66CCCC99CCCCCCCCCCFFCCFF00CCFF33CCFF66CCFF99CCFFCCCCFFFFFF0000FF0033FF0066FF0099FF00CCFF00FFFF3300FF3333
310
FF3366FF3399FF33CCFF33FFFF6600FF6633FF6666FF6699FF66CCFF66FFFF9900FF9933FF9966FF9999FF99CCFF99FFFFCC00FFCC33FFCC66FFCC99FFCCCCFFCCFFFFFF00FFFF33FFFF66FFFF99FFFFCCFFFFFF0000000D0D0D1A1A1A2828283535354343435050505D5D5D6B6B6B787878868686939393A1A1A1AEAEAEBB
310
BBBBC9C9C9D6D6D6E4E4E4F1F1F1FFFFFF00000000000000000000000000000000000000000000000000000000000054549EDE0000046E4944415478DAED9C5972AC300C4559CEFDB9FBFFD3DA5E12060F98C60FDA932CA72A9DEE0AD0F720C9B26CB32CD61E344CAD9E3F3F73371A00CEACFD4F3E678D05F8B57F07600166
310
D3BF46C1830027437002F0FB8AD9F4C700388D11C0893EFAC2B547980301161FC0D623ECEF309FFEE86D8E110C4D891700E852847B7D23BB0A56833FE5C1F4FE00F51A01AE9260170BF30649831A016EB2E36D94C897E71ABB00C0DC41D28046801CF9718AA0C80872F41FAF541C093208EC09A2EE9CE016802A23C80D6D5B
310
96B0BE6445440C7673B35071FB15E48EE31BC1138B618E402804101C34BC11E025002546C0370769E8EFF8E6181515B31704A8A26CFA06405E77A011001D801C23803E0BD84BA61C73F8837700E892A2312712F1AD6E60D0A9647C2308F0690ED11D80A777F1C14A0274A79F95D74374112DB1EC6B21B6112E8B3957974600
310
277987D03200357200BA563D92357603F8E277066D7BA14AF91E97E8D6B703D0C008F65A5E25FDBDC542DEB417A7969FF6E816430580557C8C605D58D3931B1402E0844B9459B32F3760190072F137B72C19DD18411900E28F08C4BBD2CEA01B2328AA7F1F12C95128391693909DC4C2B200C2F7DE4AA3D50A7A70832200E4
310
E2135725D8AA46EDDDA0A001905E356107C07012BD8399834229C0965F2E4CF840B4C0AE5B006FCE2A7159487CC3E7D21180A5807C3FEEA7DE0700DAB722432009469957007A299B9618024AA43049A09FBAF1F707C0F2C927D89B7E9FC2B7CEF681C0D63928DF81279751814BB8F7A6692DAC1E01A16FF84C2C2583B645A4
310
2181A8C07CF635E833825425E44308FAB19146A971B18BEE4531598B833721569A458282D7746551DE1A81B48A85D54A4F377D9FD42B02B400106CB7BC0919D0A73F1C015E5CD31592AB1A01AACA4F0F819134022AD1CF78BF25727BCE2A1393C501F006C8E7E489B78774AE3FF1D533BA42EF3F4B2F534059F13C0D387FD7
310
20E48E1F2A948E50F6DEC70380B5149E0DA042ED08655D3FCAFDFE7AC00F067D9A4F204A974E4A5A40EC056BB905D739915C9E844346005FF6F10C1EEC9FF034512E493FF236A38DD607B8DDC4EE811B2E026C601056CE2F76E9B3901794ED03799A04F13F605C27B90290B917B34B00FED7665207DCBD95FF4825C6488218
310
EA67EA491B5E715454154242EB3EFC21B601783502D1A6FF94027089B711C02F144BF5AF58611C184580188B0F40A4C957AC442078101F4FFA9996AF66DBE1BE0CF72AC1E7550050B1F7964702100BC71400FC09E1D004E0E7489A01F8FD6098034E0500471C3C17B9CE2E704C26293200060582A032CA280B1051E8017E3E
310
142D12A577CF831BAFF2518D8947CFB15DA6D6C6159839D653FBAC4EE6DDFF4900703100B302B85B95A72A0B3AC541EA7BF462BE163C394891FE091B4CBF0130FD06C00098FE49693C040033000360FA0D80E9370096124DAA1F06C0F4CF0D0073EBD789E07F158D8FE0750EA0CB0A1E89C1F4A99321B0F4D19A356B16BA86
310
070033000360FA0D80E93700A67F4E00B34F87D97CA07980E93700A6DF00987E0360FA0D800D8A0C80E9EFABFD0333A14173A5DD91B80000000049454E44AE426082
  0
ENDSEC
  0
EOF
