  0
SECTION
  2
HEADER
  9
$ACADVER
  1
AC1027
  9
$ACADMAINTVER
 70
    55
  9
$DWGCODEPAGE
  3
ANSI_1252
  9
$LASTSAVEDBY
  1
crinne
  9
$REQUIREDVERSIONS
160
                 0
  9
$INSBASE
 10
0.0
 20
0.0
 30
0.0
  9
$EXTMIN
 10
-185.1847400489302
 20
-1733.218913545726
 30
0.0
  9
$EXTMAX
 10
32.01192354712803
 20
-1489.398296611512
 30
0.0
  9
$LIMMIN
 10
-2600.0
 20
-2600.0
  9
$LIMMAX
 10
2000.0
 20
200.0
  9
$ORTHOMODE
 70
     0
  9
$REGENMODE
 70
     1
  9
$FILLMODE
 70
     1
  9
$QTEXTMODE
 70
     0
  9
$MIRRTEXT
 70
     1
  9
$LTSCALE
 40
25.0
  9
$ATTMODE
 70
     1
  9
$TEXTSIZE
 40
3.5
  9
$TRACEWID
 40
1.0
  9
$TEXTSTYLE
  7
STANDARD
  9
$CLAYER
  8
GRABUNGSGRENZE
  9
$CELTYPE
  6
ByLayer
  9
$CECOLOR
 62
   256
  9
$CELTSCALE
 40
1.0
  9
$DISPSILH
 70
     0
  9
$DIMSCALE
 40
1.0
  9
$DIMASZ
 40
3.5
  9
$DIMEXO
 40
0.1
  9
$DIMDLI
 40
7.0
  9
$DIMRND
 40
0.0
  9
$DIMDLE
 40
0.0
  9
$DIMEXE
 40
1.8
  9
$DIMTP
 40
0.0
  9
$DIMTM
 40
0.0
  9
$DIMTXT
 40
3.5
  9
$DIMCEN
 40
1.5
  9
$DIMTSZ
 40
0.0
  9
$DIMTOL
 70
     0
  9
$DIMLIM
 70
     0
  9
$DIMTIH
 70
     0
  9
$DIMTOH
 70
     0
  9
$DIMSE1
 70
     0
  9
$DIMSE2
 70
     0
  9
$DIMTAD
 70
     0
  9
$DIMZIN
 70
     0
  9
$DIMBLK
  1

  9
$DIMASO
 70
     1
  9
$DIMSHO
 70
     0
  9
$DIMPOST
  1

  9
$DIMAPOST
  1

  9
$DIMALT
 70
     0
  9
$DIMALTD
 70
     2
  9
$DIMALTF
 40
25.4
  9
$DIMLFAC
 40
1.0
  9
$DIMTOFL
 70
     0
  9
$DIMTVP
 40
0.0
  9
$DIMTIX
 70
     0
  9
$DIMSOXD
 70
     0
  9
$DIMSAH
 70
     0
  9
$DIMBLK1
  1

  9
$DIMBLK2
  1

  9
$DIMSTYLE
  2
Standard
  9
$DIMCLRD
 70
     0
  9
$DIMCLRE
 70
     0
  9
$DIMCLRT
 70
     0
  9
$DIMTFAC
 40
1.0
  9
$DIMGAP
 40
0.09
  9
$DIMJUST
 70
     0
  9
$DIMSD1
 70
     0
  9
$DIMSD2
 70
     0
  9
$DIMTOLJ
 70
     1
  9
$DIMTZIN
 70
     0
  9
$DIMALTZ
 70
     0
  9
$DIMALTTZ
 70
     0
  9
$DIMUPT
 70
     0
  9
$DIMDEC
 70
     2
  9
$DIMTDEC
 70
     2
  9
$DIMALTU
 70
     2
  9
$DIMALTTD
 70
     2
  9
$DIMTXSTY
  7
STANDARD
  9
$DIMAUNIT
 70
     0
  9
$DIMADEC
 70
     0
  9
$DIMALTRND
 40
0.0
  9
$DIMAZIN
 70
     0
  9
$DIMDSEP
 70
    46
  9
$DIMATFIT
 70
     3
  9
$DIMFRAC
 70
     0
  9
$DIMLDRBLK
  1

  9
$DIMLUNIT
 70
     2
  9
$DIMLWD
 70
    -2
  9
$DIMLWE
 70
    -2
  9
$DIMTMOVE
 70
     2
  9
$DIMFXL
 40
1.0
  9
$DIMFXLON
 70
     0
  9
$DIMJOGANG
 40
0.7853981633974483
  9
$DIMTFILL
 70
     0
  9
$DIMTFILLCLR
 70
     0
  9
$DIMARCSYM
 70
     0
  9
$DIMLTYPE
  6

  9
$DIMLTEX1
  6

  9
$DIMLTEX2
  6

  9
$DIMTXTDIRECTION
 70
     0
  9
$LUNITS
 70
     2
  9
$LUPREC
 70
     2
  9
$SKETCHINC
 40
1.0
  9
$FILLETRAD
 40
0.0
  9
$AUNITS
 70
     0
  9
$AUPREC
 70
     0
  9
$MENU
  1
ACAD
  9
$ELEVATION
 40
0.0
  9
$PELEVATION
 40
0.0
  9
$THICKNESS
 40
0.0
  9
$LIMCHECK
 70
     0
  9
$CHAMFERA
 40
0.0
  9
$CHAMFERB
 40
0.0
  9
$CHAMFERC
 40
0.0
  9
$CHAMFERD
 40
0.0
  9
$SKPOLY
 70
     0
  9
$TDCREATE
 40
2450576.376020255
  9
$TDUCREATE
 40
2450576.292686921
  9
$TDUPDATE
 40
2459793.590583935
  9
$TDUUPDATE
 40
2459793.507250602
  9
$TDINDWG
 40
0.0008407292
  9
$TDUSRTIMER
 40
0.0008407292
  9
$USRTIMER
 70
     1
  9
$ANGBASE
 50
0.0
  9
$ANGDIR
 70
     0
  9
$PDMODE
 70
     0
  9
$PDSIZE
 40
0.0
  9
$PLINEWID
 40
0.0
  9
$SPLFRAME
 70
     0
  9
$SPLINETYPE
 70
     6
  9
$SPLINESEGS
 70
     8
  9
$HANDSEED
  5
55C
  9
$SURFTAB1
 70
     6
  9
$SURFTAB2
 70
     6
  9
$SURFTYPE
 70
     6
  9
$SURFU
 70
     6
  9
$SURFV
 70
     6
  9
$UCSBASE
  2

  9
$UCSNAME
  2

  9
$UCSORG
 10
0.0
 20
0.0
 30
0.0
  9
$UCSXDIR
 10
1.0
 20
0.0
 30
0.0
  9
$UCSYDIR
 10
0.0
 20
1.0
 30
0.0
  9
$UCSORTHOREF
  2

  9
$UCSORTHOVIEW
 70
     0
  9
$UCSORGTOP
 10
0.0
 20
0.0
 30
0.0
  9
$UCSORGBOTTOM
 10
0.0
 20
0.0
 30
0.0
  9
$UCSORGLEFT
 10
0.0
 20
0.0
 30
0.0
  9
$UCSORGRIGHT
 10
0.0
 20
0.0
 30
0.0
  9
$UCSORGFRONT
 10
0.0
 20
0.0
 30
0.0
  9
$UCSORGBACK
 10
0.0
 20
0.0
 30
0.0
  9
$PUCSBASE
  2

  9
$PUCSNAME
  2

  9
$PUCSORG
 10
0.0
 20
0.0
 30
0.0
  9
$PUCSXDIR
 10
1.0
 20
0.0
 30
0.0
  9
$PUCSYDIR
 10
0.0
 20
1.0
 30
0.0
  9
$PUCSORTHOREF
  2

  9
$PUCSORTHOVIEW
 70
     0
  9
$PUCSORGTOP
 10
0.0
 20
0.0
 30
0.0
  9
$PUCSORGBOTTOM
 10
0.0
 20
0.0
 30
0.0
  9
$PUCSORGLEFT
 10
0.0
 20
0.0
 30
0.0
  9
$PUCSORGRIGHT
 10
0.0
 20
0.0
 30
0.0
  9
$PUCSORGFRONT
 10
0.0
 20
0.0
 30
0.0
  9
$PUCSORGBACK
 10
0.0
 20
0.0
 30
0.0
  9
$USERI1
 70
     0
  9
$USERI2
 70
     0
  9
$USERI3
 70
     0
  9
$USERI4
 70
     0
  9
$USERI5
 70
     0
  9
$USERR1
 40
0.0
  9
$USERR2
 40
0.0
  9
$USERR3
 40
0.0
  9
$USERR4
 40
0.0
  9
$USERR5
 40
0.0
  9
$WORLDVIEW
 70
     1
  9
$SHADEDGE
 70
     3
  9
$SHADEDIF
 70
    70
  9
$TILEMODE
 70
     1
  9
$MAXACTVP
 70
    16
  9
$PINSBASE
 10
0.0
 20
0.0
 30
0.0
  9
$PLIMCHECK
 70
     0
  9
$PEXTMIN
 10
1.000000000000000E+20
 20
1.000000000000000E+20
 30
1.000000000000000E+20
  9
$PEXTMAX
 10
-1.000000000000000E+20
 20
-1.000000000000000E+20
 30
-1.000000000000000E+20
  9
$PLIMMIN
 10
0.0
 20
0.0
  9
$PLIMMAX
 10
12.0
 20
9.0
  9
$UNITMODE
 70
     0
  9
$VISRETAIN
 70
     0
  9
$PLINEGEN
 70
     0
  9
$PSLTSCALE
 70
     0
  9
$TREEDEPTH
 70
  3020
  9
$CMLSTYLE
  2
Standard
  9
$CMLJUST
 70
     0
  9
$CMLSCALE
 40
1.0
  9
$PROXYGRAPHICS
 70
     1
  9
$MEASUREMENT
 70
     0
  9
$CELWEIGHT
370
    -1
  9
$ENDCAPS
280
     0
  9
$JOINSTYLE
280
     0
  9
$LWDISPLAY
290
     0
  9
$INSUNITS
 70
     6
  9
$HYPERLINKBASE
  1

  9
$STYLESHEET
  1

  9
$XEDIT
290
     1
  9
$CEPSNTYPE
380
     0
  9
$PSTYLEMODE
290
     1
  9
$FINGERPRINTGUID
  2
{48D5C5CB-36A0-4D4B-8B83-93B06EBDADA0}
  9
$VERSIONGUID
  2
{972D14BC-CD03-49FC-AE70-F926D0DEE97D}
  9
$EXTNAMES
290
     1
  9
$PSVPSCALE
 40
0.0
  9
$OLESTARTUP
290
     0
  9
$SORTENTS
280
   127
  9
$INDEXCTL
280
     0
  9
$HIDETEXT
280
     1
  9
$XCLIPFRAME
280
     2
  9
$HALOGAP
280
     0
  9
$OBSCOLOR
 70
   257
  9
$OBSLTYPE
280
     0
  9
$INTERSECTIONDISPLAY
280
     0
  9
$INTERSECTIONCOLOR
 70
   257
  9
$DIMASSOC
280
     2
  9
$PROJECTNAME
  1

  9
$CAMERADISPLAY
290
     0
  9
$LENSLENGTH
 40
50.0
  9
$CAMERAHEIGHT
 40
0.0
  9
$STEPSPERSEC
 40
2.0
  9
$STEPSIZE
 40
6.0
  9
$3DDWFPREC
 40
2.0
  9
$PSOLWIDTH
 40
0.25
  9
$PSOLHEIGHT
 40
4.0
  9
$LOFTANG1
 40
1.570796326794896
  9
$LOFTANG2
 40
1.570796326794896
  9
$LOFTMAG1
 40
0.0
  9
$LOFTMAG2
 40
0.0
  9
$LOFTPARAM
 70
     7
  9
$LOFTNORMALS
280
     1
  9
$LATITUDE
 40
37.795
  9
$LONGITUDE
 40
-122.394
  9
$NORTHDIRECTION
 40
0.0
  9
$TIMEZONE
 70
 -8000
  9
$LIGHTGLYPHDISPLAY
280
     1
  9
$TILEMODELIGHTSYNCH
280
     1
  9
$CMATERIAL
347
11
  9
$SOLIDHIST
280
     0
  9
$SHOWHIST
280
     1
  9
$DWFFRAME
280
     2
  9
$DGNFRAME
280
     0
  9
$REALWORLDSCALE
290
     1
  9
$INTERFERECOLOR
 62
     1
  9
$INTERFEREOBJVS
345
33
  9
$INTERFEREVPVS
346
30
  9
$CSHADOW
280
     0
  9
$SHADOWPLANELOCATION
 40
0.0
  0
ENDSEC
  0
SECTION
  2
CLASSES
  0
CLASS
  1
ACDBDICTIONARYWDFLT
  2
AcDbDictionaryWithDefault
  3
ObjectDBX Classes
 90
        0
 91
        1
280
     0
281
     0
  0
CLASS
  1
MATERIAL
  2
AcDbMaterial
  3
ObjectDBX Classes
 90
     1153
 91
        3
280
     0
281
     0
  0
CLASS
  1
VISUALSTYLE
  2
AcDbVisualStyle
  3
ObjectDBX Classes
 90
     4095
 91
       24
280
     0
281
     0
  0
CLASS
  1
SCALE
  2
AcDbScale
  3
ObjectDBX Classes
 90
     1153
 91
       17
280
     0
281
     0
  0
CLASS
  1
TABLESTYLE
  2
AcDbTableStyle
  3
ObjectDBX Classes
 90
     4095
 91
        1
280
     0
281
     0
  0
CLASS
  1
MLEADERSTYLE
  2
AcDbMLeaderStyle
  3
ACDB_MLEADERSTYLE_CLASS
 90
     4095
 91
        1
280
     0
281
     0
  0
CLASS
  1
ACDBSECTIONVIEWSTYLE
  2
AcDbSectionViewStyle
  3
ObjectDBX Classes
 90
     1025
 91
        1
280
     0
281
     0
  0
CLASS
  1
ACDBDETAILVIEWSTYLE
  2
AcDbDetailViewStyle
  3
ObjectDBX Classes
 90
     1025
 91
        1
280
     0
281
     0
  0
CLASS
  1
DICTIONARYVAR
  2
AcDbDictionaryVar
  3
ObjectDBX Classes
 90
        0
 91
        5
280
     0
281
     0
  0
CLASS
  1
CELLSTYLEMAP
  2
AcDbCellStyleMap
  3
ObjectDBX Classes
 90
     1152
 91
        1
280
     0
281
     0
  0
ENDSEC
  0
SECTION
  2
TABLES
  0
TABLE
  2
VPORT
  5
8
330
0
100
AcDbSymbolTable
 70
     2
  0
VPORT
  5
90
330
8
100
AcDbSymbolTableRecord
100
AcDbViewportTableRecord
  2
*ACTIVE
 70
     0
 10
0.0
 20
0.0
 11
1.0
 21
1.0
 12
15.89242630404695
 22
-1611.308605078619
 13
0.0
 23
0.0
 14
5.0
 24
5.0
 15
100.0
 25
100.0
 16
0.0
 26
0.0
 36
1.0
 17
0.0
 27
0.0
 37
0.0
 40
243.8206169342138
 41
1.649386084583901
 42
50.0
 43
0.0
 44
0.0
 50
0.0
 51
0.0
 71
     0
 72
   100
 73
     1
 74
     0
 75
     0
 76
     1
 77
     0
 78
     0
281
     0
 65
     1
110
0.0
120
0.0
130
0.0
111
1.0
121
0.0
131
0.0
112
0.0
122
1.0
132
0.0
 79
     0
146
0.0
348
2F
 60
     3
 61
     5
292
     1
282
     0
141
0.0
142
0.0
 63
   250
421
  3355443
1001
ACAD_NAV_VCDISPLAY
1070
     3
  0
ENDTAB
  0
TABLE
  2
LTYPE
  5
5
330
0
100
AcDbSymbolTable
 70
    25
  0
LTYPE
  5
5A
330
5
100
AcDbSymbolTableRecord
100
AcDbLinetypeTableRecord
  2
ByBlock
 70
     0
  3

 72
    65
 73
     0
 40
0.0
  0
LTYPE
  5
5B
330
5
100
AcDbSymbolTableRecord
100
AcDbLinetypeTableRecord
  2
ByLayer
 70
     0
  3

 72
    65
 73
     0
 40
0.0
  0
LTYPE
  5
5C
330
5
100
AcDbSymbolTableRecord
100
AcDbLinetypeTableRecord
  2
CONTINUOUS
 70
     0
  3
Ausgezogene Linie
 72
    65
 73
     0
 40
0.0
  0
LTYPE
  5
77
330
5
100
AcDbSymbolTableRecord
100
AcDbLinetypeTableRecord
  2
RAND
 70
     0
  3
__ __ . __ __ . __ __ . __ __ . __ __ . __ __ .
 72
    65
 73
     6
 40
1.75
 49
0.5
 74
     0
 49
-0.25
 74
     0
 49
0.5
 74
     0
 49
-0.25
 74
     0
 49
0.0
 74
     0
 49
-0.25
 74
     0
  0
LTYPE
  5
78
330
5
100
AcDbSymbolTableRecord
100
AcDbLinetypeTableRecord
  2
RAND2
 70
     0
  3
__.__.__.__.__.__.__.__.__.__.__.__.__.__.__.__
 72
    65
 73
     6
 40
0.875
 49
0.25
 74
     0
 49
-0.125
 74
     0
 49
0.25
 74
     0
 49
-0.125
 74
     0
 49
0.0
 74
     0
 49
-0.125
 74
     0
  0
LTYPE
  5
79
330
5
100
AcDbSymbolTableRecord
100
AcDbLinetypeTableRecord
  2
RANDX2
 70
     0
  3
____  ____  .  ____  ____  .  ____  ____  .  __
 72
    65
 73
     6
 40
3.5
 49
1.0
 74
     0
 49
-0.5
 74
     0
 49
1.0
 74
     0
 49
-0.5
 74
     0
 49
0.0
 74
     0
 49
-0.5
 74
     0
  0
LTYPE
  5
7A
330
5
100
AcDbSymbolTableRecord
100
AcDbLinetypeTableRecord
  2
MITTE
 70
     0
  3
____ _ ____ _ ____ _ ____ _ ____ _ ____ _ ____ 
 72
    65
 73
     4
 40
2.0
 49
1.25
 74
     0
 49
-0.25
 74
     0
 49
0.25
 74
     0
 49
-0.25
 74
     0
  0
LTYPE
  5
7B
330
5
100
AcDbSymbolTableRecord
100
AcDbLinetypeTableRecord
  2
MITTE2
 70
     0
  3
___ _ ___ _ ___ _ ___ _ ___ _ ___ _ ___ _ ___ _
 72
    65
 73
     4
 40
1.125
 49
0.75
 74
     0
 49
-0.125
 74
     0
 49
0.125
 74
     0
 49
-0.125
 74
     0
  0
LTYPE
  5
7C
330
5
100
AcDbSymbolTableRecord
100
AcDbLinetypeTableRecord
  2
MITTEX2
 70
     0
  3
________  __  ________  __  ________  __  _____
 72
    65
 73
     4
 40
4.0
 49
2.5
 74
     0
 49
-0.5
 74
     0
 49
0.5
 74
     0
 49
-0.5
 74
     0
  0
LTYPE
  5
7D
330
5
100
AcDbSymbolTableRecord
100
AcDbLinetypeTableRecord
  2
STRICHPUNKT
 70
     0
  3
__ . __ . __ . __ . __ . __ . __ . __ . __ . __
 72
    65
 73
     4
 40
1.0
 49
0.5
 74
     0
 49
-0.25
 74
     0
 49
0.0
 74
     0
 49
-0.25
 74
     0
  0
LTYPE
  5
7E
330
5
100
AcDbSymbolTableRecord
100
AcDbLinetypeTableRecord
  2
STRICHPUNKT2
 70
     0
  3
_._._._._._._._._._._._._._._._._._._._._._._._
 72
    65
 73
     4
 40
0.5
 49
0.25
 74
     0
 49
-0.125
 74
     0
 49
0.0
 74
     0
 49
-0.125
 74
     0
  0
LTYPE
  5
7F
330
5
100
AcDbSymbolTableRecord
100
AcDbLinetypeTableRecord
  2
STRICHPUNKTX2
 70
     0
  3
____  .  ____  .  ____  .  ____  .  ____  .  __
 72
    65
 73
     4
 40
2.0
 49
1.0
 74
     0
 49
-0.5
 74
     0
 49
0.0
 74
     0
 49
-0.5
 74
     0
  0
LTYPE
  5
80
330
5
100
AcDbSymbolTableRecord
100
AcDbLinetypeTableRecord
  2
GESTRICHELT
 70
     0
  3
__ __ __ __ __ __ __ __ __ __ __ __ __ __ __ __
 72
    65
 73
     2
 40
0.75
 49
0.5
 74
     0
 49
-0.25
 74
     0
  0
LTYPE
  5
81
330
5
100
AcDbSymbolTableRecord
100
AcDbLinetypeTableRecord
  2
GESTRICHELT2
 70
     0
  3
_ _ _ _ _ _ _ _ _ _ _ _ _ _ _ _ _ _ _ _ _ _ _ _
 72
    65
 73
     2
 40
0.375
 49
0.25
 74
     0
 49
-0.125
 74
     0
  0
LTYPE
  5
82
330
5
100
AcDbSymbolTableRecord
100
AcDbLinetypeTableRecord
  2
GESTRICHELTX2
 70
     0
  3
____  ____  ____  ____  ____  ____  ____  ____ 
 72
    65
 73
     2
 40
1.5
 49
1.0
 74
     0
 49
-0.5
 74
     0
  0
LTYPE
  5
83
330
5
100
AcDbSymbolTableRecord
100
AcDbLinetypeTableRecord
  2
GETRENNT
 70
     0
  3
____ . . ____ . . ____ . . ____ . . ____ . . __
 72
    65
 73
     6
 40
1.25
 49
0.5
 74
     0
 49
-0.25
 74
     0
 49
0.0
 74
     0
 49
-0.25
 74
     0
 49
0.0
 74
     0
 49
-0.25
 74
     0
  0
LTYPE
  5
84
330
5
100
AcDbSymbolTableRecord
100
AcDbLinetypeTableRecord
  2
GETRENNT2
 70
     0
  3
__..__..__..__..__..__..__..__..__..__..__..__.
 72
    65
 73
     6
 40
0.625
 49
0.25
 74
     0
 49
-0.125
 74
     0
 49
0.0
 74
     0
 49
-0.125
 74
     0
 49
0.0
 74
     0
 49
-0.125
 74
     0
  0
LTYPE
  5
85
330
5
100
AcDbSymbolTableRecord
100
AcDbLinetypeTableRecord
  2
GETRENNTX2
 70
     0
  3
________  .  .  ________  .  .  ________  .  . 
 72
    65
 73
     6
 40
2.5
 49
1.0
 74
     0
 49
-0.5
 74
     0
 49
0.0
 74
     0
 49
-0.5
 74
     0
 49
0.0
 74
     0
 49
-0.5
 74
     0
  0
LTYPE
  5
86
330
5
100
AcDbSymbolTableRecord
100
AcDbLinetypeTableRecord
  2
PUNKT
 70
     0
  3
. . . . . . . . . . . . . . . . . . . . . . . .
 72
    65
 73
     2
 40
0.25
 49
0.0
 74
     0
 49
-0.25
 74
     0
  0
LTYPE
  5
87
330
5
100
AcDbSymbolTableRecord
100
AcDbLinetypeTableRecord
  2
PUNKT2
 70
     0
  3
...............................................
 72
    65
 73
     2
 40
0.125
 49
0.0
 74
     0
 49
-0.125
 74
     0
  0
LTYPE
  5
88
330
5
100
AcDbSymbolTableRecord
100
AcDbLinetypeTableRecord
  2
PUNKTX2
 70
     0
  3
.  .  .  .  .  .  .  .  .  .  .  .  .  .  .  . 
 72
    65
 73
     2
 40
0.5
 49
0.0
 74
     0
 49
-0.5
 74
     0
  0
LTYPE
  5
89
330
5
100
AcDbSymbolTableRecord
100
AcDbLinetypeTableRecord
  2
VERDECKT
 70
     0
  3
__ __ __ __ __ __ __ __ __ __ __ __ __ __ __ __
 72
    65
 73
     2
 40
0.375
 49
0.25
 74
     0
 49
-0.125
 74
     0
  0
LTYPE
  5
8A
330
5
100
AcDbSymbolTableRecord
100
AcDbLinetypeTableRecord
  2
VERDECKT2
 70
     0
  3
_ _ _ _ _ _ _ _ _ _ _ _ _ _ _ _ _ _ _ _ _ _ _ _
 72
    65
 73
     2
 40
0.1875
 49
0.125
 74
     0
 49
-0.0625
 74
     0
  0
LTYPE
  5
8B
330
5
100
AcDbSymbolTableRecord
100
AcDbLinetypeTableRecord
  2
VERDECKTX2
 70
     0
  3
____ ____ ____ ____ ____ ____ ____ ____ ____ __
 72
    65
 73
     2
 40
0.75
 49
0.5
 74
     0
 49
-0.25
 74
     0
  0
LTYPE
  5
8C
330
5
100
AcDbSymbolTableRecord
100
AcDbLinetypeTableRecord
  2
PHANTOM
 70
     0
  3
______  __  __  ______  __  __  ______  __  __ 
 72
    65
 73
     6
 40
2.5
 49
1.25
 74
     0
 49
-0.25
 74
     0
 49
0.25
 74
     0
 49
-0.25
 74
     0
 49
0.25
 74
     0
 49
-0.25
 74
     0
  0
LTYPE
  5
8D
330
5
100
AcDbSymbolTableRecord
100
AcDbLinetypeTableRecord
  2
PHANTOM2
 70
     0
  3
___ _ _ ___ _ _ ___ _ _ ___ _ _ ___ _ _ ___ _ _
 72
    65
 73
     6
 40
1.25
 49
0.625
 74
     0
 49
-0.125
 74
     0
 49
0.125
 74
     0
 49
-0.125
 74
     0
 49
0.125
 74
     0
 49
-0.125
 74
     0
  0
LTYPE
  5
8E
330
5
100
AcDbSymbolTableRecord
100
AcDbLinetypeTableRecord
  2
PHANTOMX2
 70
     0
  3
____________    ____    ____    ____________   
 72
    65
 73
     6
 40
5.0
 49
2.5
 74
     0
 49
-0.5
 74
     0
 49
0.5
 74
     0
 49
-0.5
 74
     0
 49
0.5
 74
     0
 49
-0.5
 74
     0
  0
ENDTAB
  0
TABLE
  2
LAYER
  5
2
102
{ACAD_XDICTIONARY
360
548
102
}
330
0
100
AcDbSymbolTable
 70
    10
  0
LAYER
  5
54
330
2
100
AcDbSymbolTableRecord
100
AcDbLayerTableRecord
  2
0
 70
     0
 62
     7
  6
CONTINUOUS
370
    -3
390
F
347
21
348
0
  0
LAYER
  5
91
330
2
100
AcDbSymbolTableRecord
100
AcDbLayerTableRecord
  2
GRABUNGSGRENZE
 70
     0
 62
     3
  6
STRICHPUNKTX2
370
    -3
390
F
347
21
348
0
  0
LAYER
  5
92
330
2
100
AcDbSymbolTableRecord
100
AcDbLayerTableRecord
  2
BEFUND
 70
     0
 62
     1
  6
CONTINUOUS
370
    -3
390
F
347
21
348
0
  0
LAYER
  5
93
330
2
100
AcDbSymbolTableRecord
100
AcDbLayerTableRecord
  2
STEINE
 70
     0
 62
     4
  6
CONTINUOUS
370
    -3
390
F
347
21
348
0
  0
LAYER
  5
94
330
2
100
AcDbSymbolTableRecord
100
AcDbLayerTableRecord
  2
KNOCHEN
 70
     0
 62
     2
  6
CONTINUOUS
370
    -3
390
F
347
21
348
0
  0
LAYER
  5
95
330
2
100
AcDbSymbolTableRecord
100
AcDbLayerTableRecord
  2
BEFUND_UNSICHER
 70
     0
 62
     1
  6
GESTRICHELT
370
    -3
390
F
347
21
348
0
  0
LAYER
  5
96
330
2
100
AcDbSymbolTableRecord
100
AcDbLayerTableRecord
  2
FEUER
 70
     0
 62
     1
  6
CONTINUOUS
370
    -3
390
F
347
21
348
0
  0
LAYER
  5
97
330
2
100
AcDbSymbolTableRecord
100
AcDbLayerTableRecord
  2
KNOCHENSCHRAFF
 70
     0
 62
     2
  6
CONTINUOUS
370
    -3
390
F
347
21
348
0
  0
LAYER
  5
98
330
2
100
AcDbSymbolTableRecord
100
AcDbLayerTableRecord
  2
TPROFIL
 70
     0
 62
     3
  6
CONTINUOUS
370
    -3
390
F
347
21
348
0
  0
LAYER
  5
99
330
2
100
AcDbSymbolTableRecord
100
AcDbLayerTableRecord
  2
STEINESCHRAFF
 70
     0
 62
     4
  6
CONTINUOUS
370
    -3
390
F
347
21
348
0
  0
ENDTAB
  0
TABLE
  2
STYLE
  5
3
330
0
100
AcDbSymbolTable
 70
     2
  0
STYLE
  5
55
330
3
100
AcDbSymbolTableRecord
100
AcDbTextStyleTableRecord
  2
STANDARD
 70
     0
 40
0.0
 41
1.0
 50
0.0
 71
     0
 42
3.5
  3
txt.shx
  4

  0
STYLE
  5
59
330
3
100
AcDbSymbolTableRecord
100
AcDbTextStyleTableRecord
  2
Annotative
 70
     0
 40
0.0
 41
1.0
 50
0.0
 71
     0
 42
3.5
  3
txt
  4

1001
AcadAnnotative
1000
AnnotativeData
1002
{
1070
     1
1070
     1
1002
}
  0
ENDTAB
  0
TABLE
  2
VIEW
  5
6
330
0
100
AcDbSymbolTable
 70
     1
  0
ENDTAB
  0
TABLE
  2
UCS
  5
7
330
0
100
AcDbSymbolTable
 70
     0
  0
ENDTAB
  0
TABLE
  2
APPID
  5
9
330
0
100
AcDbSymbolTable
 70
     3
  0
APPID
  5
56
330
9
100
AcDbSymbolTableRecord
100
AcDbRegAppTableRecord
  2
ACAD
 70
     0
  0
APPID
  5
5D
330
9
100
AcDbSymbolTableRecord
100
AcDbRegAppTableRecord
  2
AcadAnnotative
 70
     0
  0
APPID
  5
554
330
9
100
AcDbSymbolTableRecord
100
AcDbRegAppTableRecord
  2
ACAD_NAV_VCDISPLAY
 70
     0
  0
ENDTAB
  0
TABLE
  2
DIMSTYLE
  5
A
330
0
100
AcDbSymbolTable
 70
     2
100
AcDbDimStyleTable
 71
     0
  0
DIMSTYLE
105
57
330
A
100
AcDbSymbolTableRecord
100
AcDbDimStyleTableRecord
  2
Standard
 70
     0
340
55
  0
DIMSTYLE
105
58
330
A
100
AcDbSymbolTableRecord
100
AcDbDimStyleTableRecord
  2
Annotative
 70
     0
340
55
1001
AcadAnnotative
1000
AnnotativeData
1002
{
1070
     1
1070
     1
1002
}
  0
ENDTAB
  0
TABLE
  2
BLOCK_RECORD
  5
1
330
0
100
AcDbSymbolTable
 70
     4
  0
BLOCK_RECORD
  5
6F
330
1
100
AcDbSymbolTableRecord
100
AcDbBlockTableRecord
  2
*Model_Space
340
72
 70
     0
280
     1
281
     0
  0
BLOCK_RECORD
  5
6B
330
1
100
AcDbSymbolTableRecord
100
AcDbBlockTableRecord
  2
*Paper_Space
340
6E
 70
     0
280
     1
281
     0
  0
BLOCK_RECORD
  5
73
330
1
100
AcDbSymbolTableRecord
100
AcDbBlockTableRecord
  2
TPFEIL
340
0
 70
     0
280
     1
281
     0
  0
BLOCK_RECORD
  5
74
330
1
100
AcDbSymbolTableRecord
100
AcDbBlockTableRecord
  2
*X1
340
0
102
{BLKREFS
331
4CF
102
}
 70
     0
280
     1
281
     0
  0
BLOCK_RECORD
  5
75
330
1
100
AcDbSymbolTableRecord
100
AcDbBlockTableRecord
  2
*X2
340
0
102
{BLKREFS
331
4D0
102
}
 70
     0
280
     1
281
     0
  0
BLOCK_RECORD
  5
76
330
1
100
AcDbSymbolTableRecord
100
AcDbBlockTableRecord
  2
*X3
340
0
102
{BLKREFS
331
541
102
}
 70
     0
280
     1
281
     0
  0
ENDTAB
  0
ENDSEC
  0
SECTION
  2
BLOCKS
  0
BLOCK
  5
9C
330
6F
100
AcDbEntity
  8
0
100
AcDbBlockBegin
  2
*Model_Space
 70
     0
 10
0.0
 20
0.0
 30
0.0
  3
*Model_Space
  1

  0
ENDBLK
  5
9D
330
6F
100
AcDbEntity
  8
0
100
AcDbBlockEnd
  0
BLOCK
  5
9A
330
6B
100
AcDbEntity
 67
     1
  8
0
100
AcDbBlockBegin
  2
*Paper_Space
 70
     0
 10
0.0
 20
0.0
 30
0.0
  3
*Paper_Space
  1

  0
ENDBLK
  5
9B
330
6B
100
AcDbEntity
 67
     1
  8
0
100
AcDbBlockEnd
  0
BLOCK
  5
9E
330
73
100
AcDbEntity
  8
0
100
AcDbBlockBegin
  2
TPFEIL
 70
     0
 10
0.0
 20
0.0
 30
0.0
  3
TPFEIL
  1

  0
LWPOLYLINE
  5
9F
330
73
100
AcDbEntity
  8
GRABUNGSGRENZE
100
AcDbPolyline
 90
        2
 70
     0
 10
0.0
 20
-10.0
 40
5.0
 41
0.0
 10
0.0
 20
0.0
 40
0.0
 41
0.0
  0
ENDBLK
  5
A3
330
73
100
AcDbEntity
  8
0
100
AcDbBlockEnd
  0
BLOCK
  5
A4
330
74
100
AcDbEntity
  8
0
100
AcDbBlockBegin
  2
*X1
 70
     1
 10
0.0
 20
0.0
 30
0.0
  3
*X1
  1

  0
LINE
  5
A5
330
74
100
AcDbEntity
  8
0
 62
     0
100
AcDbLine
 10
-55.03781737269007
 20
-1698.353976850226
 30
0.0
 11
-53.93403040012065
 21
-1697.250189877657
 31
0.0
  0
LINE
  5
A6
330
74
100
AcDbEntity
  8
0
 62
     0
100
AcDbLine
 10
-54.38400446184595
 20
-1697.346610548789
 30
0.0
 11
-54.13087386754578
 21
-1697.093479954489
 31
0.0
  0
LINE
  5
A7
330
74
100
AcDbEntity
  8
0
 62
     0
100
AcDbLine
 10
-55.54283477421808
 20
-1697.798334079974
 30
0.0
 11
-53.39357320930829
 21
-1695.649072515065
 31
0.0
  0
LINE
  5
A8
330
74
100
AcDbEntity
  8
0
 62
     0
100
AcDbLine
 10
-56.6675003011916
 20
-1698.569446216355
 30
0.0
 11
-53.46362689538737
 21
-1695.36557281055
 31
0.0
  0
LINE
  5
A9
330
74
100
AcDbEntity
  8
0
 62
     0
100
AcDbLine
 10
-56.76792164929666
 20
-1698.316314173866
 30
0.0
 11
-53.7735395508957
 21
-1695.321932075465
 31
0.0
  0
LINE
  5
AA
330
74
100
AcDbEntity
  8
0
 62
     0
100
AcDbLine
 10
-56.80642966511303
 20
-1698.00126879909
 30
0.0
 11
-55.6427342331989
 21
-1696.837573367175
 31
0.0
  0
LINE
  5
AB
330
74
100
AcDbEntity
  8
0
 62
     0
100
AcDbLine
 10
-55.23878452531134
 20
-1698.908497393441
 30
0.0
 11
-53.73718693269553
 21
-1697.406899800825
 31
0.0
  0
LINE
  5
AC
330
74
100
AcDbEntity
  8
0
 62
     0
100
AcDbLine
 10
-55.27927501129973
 20
-1699.302541270023
 30
0.0
 11
-53.5403434652704
 21
-1697.563609723993
 31
0.0
  0
LINE
  5
AD
330
74
100
AcDbEntity
  8
0
 62
     0
100
AcDbLine
 10
-55.31976549728813
 20
-1699.696585146604
 30
0.0
 11
-53.34349999784528
 21
-1697.720319647161
 31
0.0
  0
LINE
  5
AE
330
74
100
AcDbEntity
  8
0
 62
     0
100
AcDbLine
 10
-55.36025598327653
 20
-1700.090629023186
 30
0.0
 11
-53.14665653042016
 21
-1697.877029570329
 31
0.0
  0
LINE
  5
AF
330
74
100
AcDbEntity
  8
0
 62
     0
100
AcDbLine
 10
-55.02602234524094
 20
-1700.109948775743
 30
0.0
 11
-54.56726583994406
 21
-1699.651192270447
 31
0.0
  0
LINE
  5
B0
330
74
100
AcDbEntity
  8
0
 62
     0
100
AcDbLine
 10
-52.4232421878386
 20
-1698.214275399528
 30
0.0
 11
-51.88852668831689
 21
-1697.679559900006
 31
0.0
  0
LINE
  5
B1
330
74
100
AcDbEntity
  8
0
 62
     0
100
AcDbLine
 10
-52.30973625038148
 20
-1698.454322852664
 30
0.0
 11
-51.78099340663421
 21
-1697.925580008917
 31
0.0
  0
LINE
  5
B2
330
74
100
AcDbEntity
  8
0
 62
     0
100
AcDbLine
 10
-52.19623031292434
 20
-1698.6943703058
 30
0.0
 11
-51.70237873046668
 21
-1698.200518723342
 31
0.0
  0
LINE
  5
B3
330
74
100
AcDbEntity
  8
0
 62
     0
100
AcDbLine
 10
-52.08272437546721
 20
-1698.934417758936
 30
0.0
 11
-51.62376405429915
 21
-1698.475457437768
 31
0.0
  0
LINE
  5
B4
330
74
100
AcDbEntity
  8
0
 62
     0
100
AcDbLine
 10
-51.96921843801008
 20
-1699.174465212072
 30
0.0
 11
-51.54514937813162
 21
-1698.750396152194
 31
0.0
  0
LINE
  5
B5
330
74
100
AcDbEntity
  8
0
 62
     0
100
AcDbLine
 10
-51.85571250055295
 20
-1699.414512665208
 30
0.0
 11
-51.46653470196408
 21
-1699.025334866619
 31
0.0
  0
LINE
  5
B6
330
74
100
AcDbEntity
  8
0
 62
     0
100
AcDbLine
 10
-51.74220656309582
 20
-1699.654560118345
 30
0.0
 11
-51.38792002579656
 21
-1699.300273581046
 31
0.0
  0
LINE
  5
B7
330
74
100
AcDbEntity
  8
0
 62
     0
100
AcDbLine
 10
-51.62870062563869
 20
-1699.894607571481
 30
0.0
 11
-51.30930534962902
 21
-1699.575212295471
 31
0.0
  0
LINE
  5
B8
330
74
100
AcDbEntity
  8
0
 62
     0
100
AcDbLine
 10
-51.51519468818157
 20
-1700.134655024617
 30
0.0
 11
-51.23069067346149
 21
-1699.850151009897
 31
0.0
  0
ENDBLK
  5
B9
330
74
100
AcDbEntity
  8
0
100
AcDbBlockEnd
  0
BLOCK
  5
BA
330
75
100
AcDbEntity
  8
0
100
AcDbBlockBegin
  2
*X2
 70
     1
 10
0.0
 20
0.0
 30
0.0
  3
*X2
  1

  0
LINE
  5
BB
330
75
100
AcDbEntity
  8
0
 62
     0
100
AcDbLine
 10
-150.2956332857014
 20
-1628.148805965586
 30
0.0
 11
-149.9282898689469
 21
-1627.781462548831
 31
0.0
  0
LINE
  5
BC
330
75
100
AcDbEntity
  8
0
 62
     0
100
AcDbLine
 10
-150.5677509761803
 20
-1628.067370265471
 30
0.0
 11
-149.7235466046892
 21
-1627.22316589398
 31
0.0
  0
LINE
  5
BD
330
75
100
AcDbEntity
  8
0
 62
     0
100
AcDbLine
 10
-150.8398686666591
 20
-1627.985934565356
 30
0.0
 11
-149.8975320097347
 21
-1627.043597908432
 31
0.0
  0
LINE
  5
BE
330
75
100
AcDbEntity
  8
0
 62
     0
100
AcDbLine
 10
-151.111986357138
 20
-1627.904498865242
 30
0.0
 11
-150.1832436991176
 21
-1626.975756207222
 31
0.0
  0
LINE
  5
BF
330
75
100
AcDbEntity
  8
0
 62
     0
100
AcDbLine
 10
-151.3841040476168
 20
-1627.823063165128
 30
0.0
 11
-150.4689553885005
 21
-1626.907914506011
 31
0.0
  0
LINE
  5
C0
330
75
100
AcDbEntity
  8
0
 62
     0
100
AcDbLine
 10
-151.6562217380957
 20
-1627.741627465013
 30
0.0
 11
-150.7546670778833
 21
-1626.840072804801
 31
0.0
  0
LINE
  5
C1
330
75
100
AcDbEntity
  8
0
 62
     0
100
AcDbLine
 10
-151.9283394285746
 20
-1627.660191764899
 30
0.0
 11
-151.0403787672663
 21
-1626.772231103591
 31
0.0
  0
LINE
  5
C2
330
75
100
AcDbEntity
  8
0
 62
     0
100
AcDbLine
 10
-152.2004571190534
 20
-1627.578756064784
 30
0.0
 11
-151.3260904566491
 21
-1626.70438940238
 31
0.0
  0
LINE
  5
C3
330
75
100
AcDbEntity
  8
0
 62
     0
100
AcDbLine
 10
-152.4725748095323
 20
-1627.49732036467
 30
0.0
 11
-151.611802146032
 21
-1626.63654770117
 31
0.0
  0
LINE
  5
C4
330
75
100
AcDbEntity
  8
0
 62
     0
100
AcDbLine
 10
-152.7446925000111
 20
-1627.415884664556
 30
0.0
 11
-151.8975138354149
 21
-1626.56870599996
 31
0.0
  0
LINE
  5
C5
330
75
100
AcDbEntity
  8
0
 62
     0
100
AcDbLine
 10
-153.01681019049
 20
-1627.334448964441
 30
0.0
 11
-152.1832255247979
 21
-1626.500864298749
 31
0.0
  0
LINE
  5
C6
330
75
100
AcDbEntity
  8
0
 62
     0
100
AcDbLine
 10
-153.2889278809689
 20
-1627.253013264327
 30
0.0
 11
-152.4689372141807
 21
-1626.433022597539
 31
0.0
  0
LINE
  5
C7
330
75
100
AcDbEntity
  8
0
 62
     0
100
AcDbLine
 10
-153.5610455714477
 20
-1627.171577564212
 30
0.0
 11
-152.7546489035636
 21
-1626.365180896328
 31
0.0
  0
LINE
  5
C8
330
75
100
AcDbEntity
  8
0
 62
     0
100
AcDbLine
 10
-153.8331632619266
 20
-1627.090141864098
 30
0.0
 11
-153.0403605929465
 21
-1626.297339195118
 31
0.0
  0
LINE
  5
C9
330
75
100
AcDbEntity
  8
0
 62
     0
100
AcDbLine
 10
-154.1052809524054
 20
-1627.008706163984
 30
0.0
 11
-153.3260722823294
 21
-1626.229497493907
 31
0.0
  0
LINE
  5
CA
330
75
100
AcDbEntity
  8
0
 62
     0
100
AcDbLine
 10
-153.9794074737314
 20
-1626.529279294716
 30
0.0
 11
-153.6117839717123
 21
-1626.161655792697
 31
0.0
  0
LINE
  5
CB
330
75
100
AcDbEntity
  8
0
 62
     0
100
AcDbLine
 10
-156.237700637732
 20
-1628.434019068124
 30
0.0
 11
-155.8129093097174
 21
-1628.009227740109
 31
0.0
  0
LINE
  5
CC
330
75
100
AcDbEntity
  8
0
 62
     0
100
AcDbLine
 10
-156.376091879886
 20
-1628.218856919684
 30
0.0
 11
-155.9302240725783
 21
-1627.772989112377
 31
0.0
  0
LINE
  5
CD
330
75
100
AcDbEntity
  8
0
 62
     0
100
AcDbLine
 10
-156.51448312204
 20
-1628.003694771245
 30
0.0
 11
-156.0475388354392
 21
-1627.536750484645
 31
0.0
  0
LINE
  5
CE
330
75
100
AcDbEntity
  8
0
 62
     0
100
AcDbLine
 10
-156.652874364194
 20
-1627.788532622806
 30
0.0
 11
-156.1648535983001
 21
-1627.300511856912
 31
0.0
  0
LINE
  5
CF
330
75
100
AcDbEntity
  8
0
 62
     0
100
AcDbLine
 10
-156.791265606348
 20
-1627.573370474367
 30
0.0
 11
-156.282168361161
 21
-1627.06427322918
 31
0.0
  0
LINE
  5
D0
330
75
100
AcDbEntity
  8
0
 62
     0
100
AcDbLine
 10
-156.929656848502
 20
-1627.358208325927
 30
0.0
 11
-156.3994831240219
 21
-1626.828034601447
 31
0.0
  0
LINE
  5
D1
330
75
100
AcDbEntity
  8
0
 62
     0
100
AcDbLine
 10
-157.068048090656
 20
-1627.143046177488
 30
0.0
 11
-156.5167978868828
 21
-1626.591795973715
 31
0.0
  0
LINE
  5
D2
330
75
100
AcDbEntity
  8
0
 62
     0
100
AcDbLine
 10
-157.20643933281
 20
-1626.927884029049
 30
0.0
 11
-156.6341126497438
 21
-1626.355557345983
 31
0.0
  0
LINE
  5
D3
330
75
100
AcDbEntity
  8
0
 62
     0
100
AcDbLine
 10
-157.3433060802951
 20
-1626.71119738594
 30
0.0
 11
-156.7485473653838
 21
-1626.116438671029
 31
0.0
  0
LINE
  5
D4
330
75
100
AcDbEntity
  8
0
 62
     0
100
AcDbLine
 10
-157.4351811273245
 20
-1626.449519042377
 30
0.0
 11
-156.850323320107
 21
-1625.864661235159
 31
0.0
  0
LINE
  5
D5
330
75
100
AcDbEntity
  8
0
 62
     0
100
AcDbLine
 10
-157.5270561743538
 20
-1626.187840698813
 30
0.0
 11
-156.9520992748302
 21
-1625.612883799289
 31
0.0
  0
LINE
  5
D6
330
75
100
AcDbEntity
  8
0
 62
     0
100
AcDbLine
 10
-142.5707169748475
 20
-1611.231501499306
 30
0.0
 11
-142.1637952755984
 21
-1610.824579800057
 31
0.0
  0
LINE
  5
D7
330
75
100
AcDbEntity
  8
0
 62
     0
100
AcDbLine
 10
-157.6189312213831
 20
-1625.926162355249
 30
0.0
 11
-157.0538752295535
 21
-1625.361106363419
 31
0.0
  0
LINE
  5
D8
330
75
100
AcDbEntity
  8
0
 62
     0
100
AcDbLine
 10
-143.1145415423524
 20
-1611.421772676218
 30
0.0
 11
-141.9631400579727
 21
-1610.270371191839
 31
0.0
  0
LINE
  5
D9
330
75
100
AcDbEntity
  8
0
 62
     0
100
AcDbLine
 10
-157.7108062684124
 20
-1625.664484011685
 30
0.0
 11
-157.1556511842767
 21
-1625.109328927549
 31
0.0
  0
LINE
  5
DA
330
75
100
AcDbEntity
  8
0
 62
     0
100
AcDbLine
 10
-143.6583661098574
 20
-1611.61204385313
 30
0.0
 11
-141.762484840347
 21
-1609.71616258362
 31
0.0
  0
LINE
  5
DB
330
75
100
AcDbEntity
  8
0
 62
     0
100
AcDbLine
 10
-157.8026813154418
 20
-1625.402805668121
 30
0.0
 11
-157.2574271389999
 21
-1624.857551491679
 31
0.0
  0
LINE
  5
DC
330
75
100
AcDbEntity
  8
0
 62
     0
100
AcDbLine
 10
-144.0510304768437
 20
-1611.651154829523
 30
0.0
 11
-141.5618296227213
 21
-1609.161953975401
 31
0.0
  0
LINE
  5
DD
330
75
100
AcDbEntity
  8
0
 62
     0
100
AcDbLine
 10
-157.8945563624711
 20
-1625.141127324557
 30
0.0
 11
-157.2835634117489
 21
-1624.530134373835
 31
0.0
  0
LINE
  5
DE
330
75
100
AcDbEntity
  8
0
 62
     0
100
AcDbLine
 10
-144.18650425436
 20
-1611.433075216446
 30
0.0
 11
-142.0354952974571
 21
-1609.282066259543
 31
0.0
  0
LINE
  5
DF
330
75
100
AcDbEntity
  8
0
 62
     0
100
AcDbLine
 10
-157.9864314095004
 20
-1624.879448980993
 30
0.0
 11
-157.2825961897235
 21
-1624.175613761216
 31
0.0
  0
LINE
  5
E0
330
75
100
AcDbEntity
  8
0
 62
     0
100
AcDbLine
 10
-144.3219780318763
 20
-1611.214995603369
 30
0.0
 11
-142.5241477881877
 21
-1609.41716535968
 31
0.0
  0
LINE
  5
E1
330
75
100
AcDbEntity
  8
0
 62
     0
100
AcDbLine
 10
-156.3786131468295
 20
-1623.271630718322
 30
0.0
 11
-156.2708787186514
 21
-1623.163896290144
 31
0.0
  0
LINE
  5
E2
330
75
100
AcDbEntity
  8
0
 62
     0
100
AcDbLine
 10
-158.0783064565297
 20
-1624.617770637429
 30
0.0
 11
-156.4537197945757
 21
-1622.993183975475
 31
0.0
  0
LINE
  5
E3
330
75
100
AcDbEntity
  8
0
 62
     0
100
AcDbLine
 10
-144.4574518093925
 20
-1610.996915990292
 30
0.0
 11
-143.0128002789183
 21
-1609.552264459817
 31
0.0
  0
LINE
  5
E4
330
75
100
AcDbEntity
  8
0
 62
     0
100
AcDbLine
 10
-158.170181503559
 20
-1624.356092293865
 30
0.0
 11
-156.6365608705
 21
-1622.822471660806
 31
0.0
  0
LINE
  5
E5
330
75
100
AcDbEntity
  8
0
 62
     0
100
AcDbLine
 10
-144.5929255869088
 20
-1610.778836377215
 30
0.0
 11
-143.5014527696489
 21
-1609.687363559955
 31
0.0
  0
LINE
  5
E6
330
75
100
AcDbEntity
  8
0
 62
     0
100
AcDbLine
 10
-157.6359043701804
 20
-1623.468261769893
 30
0.0
 11
-156.8194019464243
 21
-1622.651759346137
 31
0.0
  0
LINE
  5
E7
330
75
100
AcDbEntity
  8
0
 62
     0
100
AcDbLine
 10
-144.728399364425
 20
-1610.560756764138
 30
0.0
 11
-143.9901052603796
 21
-1609.822462660092
 31
0.0
  0
LINE
  5
E8
330
75
100
AcDbEntity
  8
0
 62
     0
100
AcDbLine
 10
-144.8638731419413
 20
-1610.342677151061
 30
0.0
 11
-144.4787577511102
 21
-1609.95756176023
 31
0.0
  0
LINE
  5
E9
330
75
100
AcDbEntity
  8
0
 62
     0
100
AcDbLine
 10
-144.9993469194575
 20
-1610.124597537984
 30
0.0
 11
-144.9674102418408
 21
-1610.092660860367
 31
0.0
  0
LINE
  5
EA
330
75
100
AcDbEntity
  8
0
 62
     0
100
AcDbLine
 10
-141.4486429733
 20
-1603.391913076487
 30
0.0
 11
-141.1508625823372
 21
-1603.094132685524
 31
0.0
  0
LINE
  5
EB
330
75
100
AcDbEntity
  8
0
 62
     0
100
AcDbLine
 10
-141.8434030340129
 20
-1603.433119746607
 30
0.0
 11
-141.0974031798505
 21
-1602.687119892444
 31
0.0
  0
LINE
  5
EC
330
75
100
AcDbEntity
  8
0
 62
     0
100
AcDbLine
 10
-142.2381630947258
 20
-1603.474326416726
 30
0.0
 11
-141.0439437773637
 21
-1602.280107099364
 31
0.0
  0
LINE
  5
ED
330
75
100
AcDbEntity
  8
0
 62
     0
100
AcDbLine
 10
-142.6052573231115
 20
-1603.487867254518
 30
0.0
 11
-140.990484374877
 21
-1601.873094306284
 31
0.0
  0
LINE
  5
EE
330
75
100
AcDbEntity
  8
0
 62
     0
100
AcDbLine
 10
-142.5618154116297
 20
-1603.090871952443
 30
0.0
 11
-140.9370249723902
 21
-1601.466081513204
 31
0.0
  0
LINE
  5
EF
330
75
100
AcDbEntity
  8
0
 62
     0
100
AcDbLine
 10
-142.518373500148
 20
-1602.693876650368
 30
0.0
 11
-140.8835655699035
 21
-1601.059068720124
 31
0.0
  0
LINE
  5
F0
330
75
100
AcDbEntity
  8
0
 62
     0
100
AcDbLine
 10
-142.4749315886662
 20
-1602.296881348293
 30
0.0
 11
-140.8301061674168
 21
-1600.652055927044
 31
0.0
  0
LINE
  5
F1
330
75
100
AcDbEntity
  8
0
 62
     0
100
AcDbLine
 10
-142.4314896771845
 20
-1601.899886046218
 30
0.0
 11
-140.7766467649301
 21
-1600.245043133964
 31
0.0
  0
LINE
  5
F2
330
75
100
AcDbEntity
  8
0
 62
     0
100
AcDbLine
 10
-142.3880477657028
 20
-1601.502890744143
 30
0.0
 11
-140.7231873624433
 21
-1599.838030340884
 31
0.0
  0
LINE
  5
F3
330
75
100
AcDbEntity
  8
0
 62
     0
100
AcDbLine
 10
-142.344605854221
 20
-1601.105895442068
 30
0.0
 11
-141.029291879189
 21
-1599.790581467036
 31
0.0
  0
LINE
  5
F4
330
75
100
AcDbEntity
  8
0
 62
     0
100
AcDbLine
 10
-142.3011639427393
 20
-1600.708900139993
 30
0.0
 11
-141.359189233551
 21
-1599.766925430805
 31
0.0
  0
LINE
  5
F5
330
75
100
AcDbEntity
  8
0
 62
     0
100
AcDbLine
 10
-142.2577220312575
 20
-1600.311904837918
 30
0.0
 11
-141.689086587913
 21
-1599.743269394573
 31
0.0
  0
LINE
  5
F6
330
75
100
AcDbEntity
  8
0
 62
     0
100
AcDbLine
 10
-142.2142801197758
 20
-1599.914909535843
 30
0.0
 11
-142.018983942275
 21
-1599.719613358342
 31
0.0
  0
LINE
  5
F7
330
75
100
AcDbEntity
  8
0
 62
     0
100
AcDbLine
 10
-116.3588504604099
 20
-1600.22243078038
 30
0.0
 11
-116.1668966007469
 21
-1600.030476920717
 31
0.0
  0
LINE
  5
F8
330
75
100
AcDbEntity
  8
0
 62
     0
100
AcDbLine
 10
-116.3661663942799
 20
-1600.583300104843
 30
0.0
 11
-115.399419930046
 21
-1599.616553640609
 31
0.0
  0
LINE
  5
F9
330
75
100
AcDbEntity
  8
0
 62
     0
100
AcDbLine
 10
-116.3734823281498
 20
-1600.944169429306
 30
0.0
 11
-114.6319432593452
 21
-1599.202630360502
 31
0.0
  0
LINE
  5
FA
330
75
100
AcDbEntity
  8
0
 62
     0
100
AcDbLine
 10
-116.3807982620197
 20
-1601.305038753769
 30
0.0
 11
-114.3624173321052
 21
-1599.286657823855
 31
0.0
  0
LINE
  5
FB
330
75
100
AcDbEntity
  8
0
 62
     0
100
AcDbLine
 10
-116.3881141958897
 20
-1601.665908078232
 30
0.0
 11
-114.1306117230565
 21
-1599.408405605399
 31
0.0
  0
LINE
  5
FC
330
75
100
AcDbEntity
  8
0
 62
     0
100
AcDbLine
 10
-116.3954301297596
 20
-1602.026777402696
 30
0.0
 11
-113.8988061140077
 21
-1599.530153386944
 31
0.0
  0
LINE
  5
FD
330
75
100
AcDbEntity
  8
0
 62
     0
100
AcDbLine
 10
-116.4027460636296
 20
-1602.387646727159
 30
0.0
 11
-113.667000504959
 21
-1599.651901168488
 31
0.0
  0
LINE
  5
FE
330
75
100
AcDbEntity
  8
0
 62
     0
100
AcDbLine
 10
-116.4100619974995
 20
-1602.748516051622
 30
0.0
 11
-113.4351948959102
 21
-1599.773648950033
 31
0.0
  0
LINE
  5
FF
330
75
100
AcDbEntity
  8
0
 62
     0
100
AcDbLine
 10
-116.2014875108194
 20
-1602.893494955535
 30
0.0
 11
-113.4899486509688
 21
-1600.181956095685
 31
0.0
  0
LINE
  5
100
330
75
100
AcDbEntity
  8
0
 62
     0
100
AcDbLine
 10
-115.2738618933075
 20
-1602.319422728617
 30
0.0
 11
-113.5763464060168
 21
-1600.621907241326
 31
0.0
  0
LINE
  5
101
330
75
100
AcDbEntity
  8
0
 62
     0
100
AcDbLine
 10
-114.3462362757955
 20
-1601.745350501698
 30
0.0
 11
-113.6627441610648
 21
-1601.061858386967
 31
0.0
  0
ENDBLK
  5
102
330
75
100
AcDbEntity
  8
0
100
AcDbBlockEnd
  0
BLOCK
  5
103
330
76
100
AcDbEntity
  8
0
100
AcDbBlockBegin
  2
*X3
 70
     1
 10
0.0
 20
0.0
 30
0.0
  3
*X3
  1

  0
LINE
  5
104
330
76
100
AcDbEntity
  8
0
 62
     0
100
AcDbLine
 10
-139.375
 20
-1596.25
 30
0.0
 11
-139.375
 21
-1596.25
 31
0.0
  0
LINE
  5
105
330
76
100
AcDbEntity
  8
0
 62
     0
100
AcDbLine
 10
-138.125
 20
-1596.25
 30
0.0
 11
-138.125
 21
-1596.25
 31
0.0
  0
LINE
  5
106
330
76
100
AcDbEntity
  8
0
 62
     0
100
AcDbLine
 10
-140.0
 20
-1595.0
 30
0.0
 11
-140.0
 21
-1595.0
 31
0.0
  0
LINE
  5
107
330
76
100
AcDbEntity
  8
0
 62
     0
100
AcDbLine
 10
-138.75
 20
-1595.0
 30
0.0
 11
-138.75
 21
-1595.0
 31
0.0
  0
LINE
  5
108
330
76
100
AcDbEntity
  8
0
 62
     0
100
AcDbLine
 10
-137.5
 20
-1595.0
 30
0.0
 11
-137.5
 21
-1595.0
 31
0.0
  0
LINE
  5
109
330
76
100
AcDbEntity
  8
0
 62
     0
100
AcDbLine
 10
-140.625
 20
-1593.75
 30
0.0
 11
-140.625
 21
-1593.75
 31
0.0
  0
LINE
  5
10A
330
76
100
AcDbEntity
  8
0
 62
     0
100
AcDbLine
 10
-139.375
 20
-1593.75
 30
0.0
 11
-139.375
 21
-1593.75
 31
0.0
  0
LINE
  5
10B
330
76
100
AcDbEntity
  8
0
 62
     0
100
AcDbLine
 10
-138.1249999999999
 20
-1593.75
 30
0.0
 11
-138.1249999999999
 21
-1593.75
 31
0.0
  0
LINE
  5
10C
330
76
100
AcDbEntity
  8
0
 62
     0
100
AcDbLine
 10
-136.8749999999999
 20
-1593.75
 30
0.0
 11
-136.8749999999999
 21
-1593.75
 31
0.0
  0
LINE
  5
10D
330
76
100
AcDbEntity
  8
0
 62
     0
100
AcDbLine
 10
-104.375
 20
-1591.25
 30
0.0
 11
-104.375
 21
-1591.25
 31
0.0
  0
LINE
  5
10E
330
76
100
AcDbEntity
  8
0
 62
     0
100
AcDbLine
 10
-106.25
 20
-1590.0
 30
0.0
 11
-106.25
 21
-1590.0
 31
0.0
  0
LINE
  5
10F
330
76
100
AcDbEntity
  8
0
 62
     0
100
AcDbLine
 10
-105.0
 20
-1590.0
 30
0.0
 11
-105.0
 21
-1590.0
 31
0.0
  0
LINE
  5
110
330
76
100
AcDbEntity
  8
0
 62
     0
100
AcDbLine
 10
-103.75
 20
-1590.0
 30
0.0
 11
-103.75
 21
-1590.0
 31
0.0
  0
LINE
  5
111
330
76
100
AcDbEntity
  8
0
 62
     0
100
AcDbLine
 10
-133.125
 20
-1588.75
 30
0.0
 11
-133.125
 21
-1588.75
 31
0.0
  0
LINE
  5
112
330
76
100
AcDbEntity
  8
0
 62
     0
100
AcDbLine
 10
-131.875
 20
-1588.75
 30
0.0
 11
-131.875
 21
-1588.75
 31
0.0
  0
LINE
  5
113
330
76
100
AcDbEntity
  8
0
 62
     0
100
AcDbLine
 10
-115.625
 20
-1588.75
 30
0.0
 11
-115.625
 21
-1588.75
 31
0.0
  0
LINE
  5
114
330
76
100
AcDbEntity
  8
0
 62
     0
100
AcDbLine
 10
-133.7499999999999
 20
-1587.5
 30
0.0
 11
-133.7499999999999
 21
-1587.5
 31
0.0
  0
LINE
  5
115
330
76
100
AcDbEntity
  8
0
 62
     0
100
AcDbLine
 10
-132.4999999999999
 20
-1587.5
 30
0.0
 11
-132.4999999999999
 21
-1587.5
 31
0.0
  0
LINE
  5
116
330
76
100
AcDbEntity
  8
0
 62
     0
100
AcDbLine
 10
-131.25
 20
-1587.5
 30
0.0
 11
-131.25
 21
-1587.5
 31
0.0
  0
LINE
  5
117
330
76
100
AcDbEntity
  8
0
 62
     0
100
AcDbLine
 10
-116.2499999999999
 20
-1587.5
 30
0.0
 11
-116.2499999999999
 21
-1587.5
 31
0.0
  0
LINE
  5
118
330
76
100
AcDbEntity
  8
0
 62
     0
100
AcDbLine
 10
-133.125
 20
-1586.25
 30
0.0
 11
-133.125
 21
-1586.25
 31
0.0
  0
LINE
  5
119
330
76
100
AcDbEntity
  8
0
 62
     0
100
AcDbLine
 10
-131.875
 20
-1586.25
 30
0.0
 11
-131.875
 21
-1586.25
 31
0.0
  0
LINE
  5
11A
330
76
100
AcDbEntity
  8
0
 62
     0
100
AcDbLine
 10
-130.625
 20
-1586.25
 30
0.0
 11
-130.625
 21
-1586.25
 31
0.0
  0
LINE
  5
11B
330
76
100
AcDbEntity
  8
0
 62
     0
100
AcDbLine
 10
-129.375
 20
-1586.25
 30
0.0
 11
-129.375
 21
-1586.25
 31
0.0
  0
LINE
  5
11C
330
76
100
AcDbEntity
  8
0
 62
     0
100
AcDbLine
 10
-118.1249999999999
 20
-1586.25
 30
0.0
 11
-118.1249999999999
 21
-1586.25
 31
0.0
  0
LINE
  5
11D
330
76
100
AcDbEntity
  8
0
 62
     0
100
AcDbLine
 10
-131.25
 20
-1585.0
 30
0.0
 11
-131.25
 21
-1585.0
 31
0.0
  0
LINE
  5
11E
330
76
100
AcDbEntity
  8
0
 62
     0
100
AcDbLine
 10
-130.0
 20
-1585.0
 30
0.0
 11
-130.0
 21
-1585.0
 31
0.0
  0
LINE
  5
11F
330
76
100
AcDbEntity
  8
0
 62
     0
100
AcDbLine
 10
-128.7499999999999
 20
-1585.0
 30
0.0
 11
-128.7499999999999
 21
-1585.0
 31
0.0
  0
LINE
  5
120
330
76
100
AcDbEntity
  8
0
 62
     0
100
AcDbLine
 10
-127.4999999999999
 20
-1585.0
 30
0.0
 11
-127.4999999999999
 21
-1585.0
 31
0.0
  0
LINE
  5
121
330
76
100
AcDbEntity
  8
0
 62
     0
100
AcDbLine
 10
-120.0
 20
-1585.0
 30
0.0
 11
-120.0
 21
-1585.0
 31
0.0
  0
LINE
  5
122
330
76
100
AcDbEntity
  8
0
 62
     0
100
AcDbLine
 10
-128.125
 20
-1583.75
 30
0.0
 11
-128.125
 21
-1583.75
 31
0.0
  0
LINE
  5
123
330
76
100
AcDbEntity
  8
0
 62
     0
100
AcDbLine
 10
-126.875
 20
-1583.75
 30
0.0
 11
-126.875
 21
-1583.75
 31
0.0
  0
LINE
  5
124
330
76
100
AcDbEntity
  8
0
 62
     0
100
AcDbLine
 10
-125.6249999999999
 20
-1583.75
 30
0.0
 11
-125.6249999999999
 21
-1583.75
 31
0.0
  0
LINE
  5
125
330
76
100
AcDbEntity
  8
0
 62
     0
100
AcDbLine
 10
-126.25
 20
-1582.5
 30
0.0
 11
-126.25
 21
-1582.5
 31
0.0
  0
LINE
  5
126
330
76
100
AcDbEntity
  8
0
 62
     0
100
AcDbLine
 10
-120.0
 20
-1582.5
 30
0.0
 11
-120.0
 21
-1582.5
 31
0.0
  0
LINE
  5
127
330
76
100
AcDbEntity
  8
0
 62
     0
100
AcDbLine
 10
-118.75
 20
-1582.5
 30
0.0
 11
-118.75
 21
-1582.5
 31
0.0
  0
LINE
  5
128
330
76
100
AcDbEntity
  8
0
 62
     0
100
AcDbLine
 10
-117.5
 20
-1582.5
 30
0.0
 11
-117.5
 21
-1582.5
 31
0.0
  0
LINE
  5
129
330
76
100
AcDbEntity
  8
0
 62
     0
100
AcDbLine
 10
-120.625
 20
-1581.25
 30
0.0
 11
-120.625
 21
-1581.25
 31
0.0
  0
LINE
  5
12A
330
76
100
AcDbEntity
  8
0
 62
     0
100
AcDbLine
 10
-125.0
 20
-1580.0
 30
0.0
 11
-125.0
 21
-1580.0
 31
0.0
  0
LINE
  5
12B
330
76
100
AcDbEntity
  8
0
 62
     0
100
AcDbLine
 10
-126.875
 20
-1578.75
 30
0.0
 11
-126.875
 21
-1578.75
 31
0.0
  0
LINE
  5
12C
330
76
100
AcDbEntity
  8
0
 62
     0
100
AcDbLine
 10
-125.625
 20
-1578.75
 30
0.0
 11
-125.625
 21
-1578.75
 31
0.0
  0
LINE
  5
12D
330
76
100
AcDbEntity
  8
0
 62
     0
100
AcDbLine
 10
-124.375
 20
-1578.75
 30
0.0
 11
-124.375
 21
-1578.75
 31
0.0
  0
LINE
  5
12E
330
76
100
AcDbEntity
  8
0
 62
     0
100
AcDbLine
 10
-130.0
 20
-1577.5
 30
0.0
 11
-130.0
 21
-1577.5
 31
0.0
  0
LINE
  5
12F
330
76
100
AcDbEntity
  8
0
 62
     0
100
AcDbLine
 10
-128.75
 20
-1577.5
 30
0.0
 11
-128.75
 21
-1577.5
 31
0.0
  0
LINE
  5
130
330
76
100
AcDbEntity
  8
0
 62
     0
100
AcDbLine
 10
-127.5
 20
-1577.5
 30
0.0
 11
-127.5
 21
-1577.5
 31
0.0
  0
LINE
  5
131
330
76
100
AcDbEntity
  8
0
 62
     0
100
AcDbLine
 10
-126.25
 20
-1577.5
 30
0.0
 11
-126.25
 21
-1577.5
 31
0.0
  0
LINE
  5
132
330
76
100
AcDbEntity
  8
0
 62
     0
100
AcDbLine
 10
-125.0
 20
-1577.5
 30
0.0
 11
-125.0
 21
-1577.5
 31
0.0
  0
LINE
  5
133
330
76
100
AcDbEntity
  8
0
 62
     0
100
AcDbLine
 10
-133.125
 20
-1576.25
 30
0.0
 11
-133.125
 21
-1576.25
 31
0.0
  0
LINE
  5
134
330
76
100
AcDbEntity
  8
0
 62
     0
100
AcDbLine
 10
-131.875
 20
-1576.25
 30
0.0
 11
-131.875
 21
-1576.25
 31
0.0
  0
LINE
  5
135
330
76
100
AcDbEntity
  8
0
 62
     0
100
AcDbLine
 10
-130.625
 20
-1576.25
 30
0.0
 11
-130.625
 21
-1576.25
 31
0.0
  0
LINE
  5
136
330
76
100
AcDbEntity
  8
0
 62
     0
100
AcDbLine
 10
-129.375
 20
-1576.25
 30
0.0
 11
-129.375
 21
-1576.25
 31
0.0
  0
LINE
  5
137
330
76
100
AcDbEntity
  8
0
 62
     0
100
AcDbLine
 10
-128.125
 20
-1576.25
 30
0.0
 11
-128.125
 21
-1576.25
 31
0.0
  0
LINE
  5
138
330
76
100
AcDbEntity
  8
0
 62
     0
100
AcDbLine
 10
-126.875
 20
-1576.25
 30
0.0
 11
-126.875
 21
-1576.25
 31
0.0
  0
LINE
  5
139
330
76
100
AcDbEntity
  8
0
 62
     0
100
AcDbLine
 10
-125.625
 20
-1576.25
 30
0.0
 11
-125.625
 21
-1576.25
 31
0.0
  0
LINE
  5
13A
330
76
100
AcDbEntity
  8
0
 62
     0
100
AcDbLine
 10
-124.375
 20
-1576.25
 30
0.0
 11
-124.375
 21
-1576.25
 31
0.0
  0
LINE
  5
13B
330
76
100
AcDbEntity
  8
0
 62
     0
100
AcDbLine
 10
-135.0
 20
-1575.0
 30
0.0
 11
-135.0
 21
-1575.0
 31
0.0
  0
LINE
  5
13C
330
76
100
AcDbEntity
  8
0
 62
     0
100
AcDbLine
 10
-133.75
 20
-1575.0
 30
0.0
 11
-133.75
 21
-1575.0
 31
0.0
  0
LINE
  5
13D
330
76
100
AcDbEntity
  8
0
 62
     0
100
AcDbLine
 10
-132.5
 20
-1575.0
 30
0.0
 11
-132.5
 21
-1575.0
 31
0.0
  0
LINE
  5
13E
330
76
100
AcDbEntity
  8
0
 62
     0
100
AcDbLine
 10
-131.25
 20
-1575.0
 30
0.0
 11
-131.25
 21
-1575.0
 31
0.0
  0
LINE
  5
13F
330
76
100
AcDbEntity
  8
0
 62
     0
100
AcDbLine
 10
-130.0
 20
-1575.0
 30
0.0
 11
-130.0
 21
-1575.0
 31
0.0
  0
LINE
  5
140
330
76
100
AcDbEntity
  8
0
 62
     0
100
AcDbLine
 10
-128.75
 20
-1575.0
 30
0.0
 11
-128.75
 21
-1575.0
 31
0.0
  0
LINE
  5
141
330
76
100
AcDbEntity
  8
0
 62
     0
100
AcDbLine
 10
-127.5
 20
-1575.0
 30
0.0
 11
-127.5
 21
-1575.0
 31
0.0
  0
LINE
  5
142
330
76
100
AcDbEntity
  8
0
 62
     0
100
AcDbLine
 10
-126.25
 20
-1575.0
 30
0.0
 11
-126.25
 21
-1575.0
 31
0.0
  0
LINE
  5
143
330
76
100
AcDbEntity
  8
0
 62
     0
100
AcDbLine
 10
-125.0
 20
-1575.0
 30
0.0
 11
-125.0
 21
-1575.0
 31
0.0
  0
LINE
  5
144
330
76
100
AcDbEntity
  8
0
 62
     0
100
AcDbLine
 10
-135.625
 20
-1573.75
 30
0.0
 11
-135.625
 21
-1573.75
 31
0.0
  0
LINE
  5
145
330
76
100
AcDbEntity
  8
0
 62
     0
100
AcDbLine
 10
-134.375
 20
-1573.75
 30
0.0
 11
-134.375
 21
-1573.75
 31
0.0
  0
LINE
  5
146
330
76
100
AcDbEntity
  8
0
 62
     0
100
AcDbLine
 10
-133.125
 20
-1573.75
 30
0.0
 11
-133.125
 21
-1573.75
 31
0.0
  0
LINE
  5
147
330
76
100
AcDbEntity
  8
0
 62
     0
100
AcDbLine
 10
-131.875
 20
-1573.75
 30
0.0
 11
-131.875
 21
-1573.75
 31
0.0
  0
LINE
  5
148
330
76
100
AcDbEntity
  8
0
 62
     0
100
AcDbLine
 10
-130.625
 20
-1573.75
 30
0.0
 11
-130.625
 21
-1573.75
 31
0.0
  0
LINE
  5
149
330
76
100
AcDbEntity
  8
0
 62
     0
100
AcDbLine
 10
-129.375
 20
-1573.75
 30
0.0
 11
-129.375
 21
-1573.75
 31
0.0
  0
LINE
  5
14A
330
76
100
AcDbEntity
  8
0
 62
     0
100
AcDbLine
 10
-128.125
 20
-1573.75
 30
0.0
 11
-128.125
 21
-1573.75
 31
0.0
  0
LINE
  5
14B
330
76
100
AcDbEntity
  8
0
 62
     0
100
AcDbLine
 10
-126.875
 20
-1573.75
 30
0.0
 11
-126.875
 21
-1573.75
 31
0.0
  0
LINE
  5
14C
330
76
100
AcDbEntity
  8
0
 62
     0
100
AcDbLine
 10
-125.625
 20
-1573.75
 30
0.0
 11
-125.625
 21
-1573.75
 31
0.0
  0
LINE
  5
14D
330
76
100
AcDbEntity
  8
0
 62
     0
100
AcDbLine
 10
-135.0
 20
-1572.5
 30
0.0
 11
-135.0
 21
-1572.5
 31
0.0
  0
LINE
  5
14E
330
76
100
AcDbEntity
  8
0
 62
     0
100
AcDbLine
 10
-133.75
 20
-1572.5
 30
0.0
 11
-133.75
 21
-1572.5
 31
0.0
  0
LINE
  5
14F
330
76
100
AcDbEntity
  8
0
 62
     0
100
AcDbLine
 10
-132.5
 20
-1572.5
 30
0.0
 11
-132.5
 21
-1572.5
 31
0.0
  0
LINE
  5
150
330
76
100
AcDbEntity
  8
0
 62
     0
100
AcDbLine
 10
-131.25
 20
-1572.5
 30
0.0
 11
-131.25
 21
-1572.5
 31
0.0
  0
LINE
  5
151
330
76
100
AcDbEntity
  8
0
 62
     0
100
AcDbLine
 10
-130.0
 20
-1572.5
 30
0.0
 11
-130.0
 21
-1572.5
 31
0.0
  0
LINE
  5
152
330
76
100
AcDbEntity
  8
0
 62
     0
100
AcDbLine
 10
-128.75
 20
-1572.5
 30
0.0
 11
-128.75
 21
-1572.5
 31
0.0
  0
LINE
  5
153
330
76
100
AcDbEntity
  8
0
 62
     0
100
AcDbLine
 10
-127.5
 20
-1572.5
 30
0.0
 11
-127.5
 21
-1572.5
 31
0.0
  0
LINE
  5
154
330
76
100
AcDbEntity
  8
0
 62
     0
100
AcDbLine
 10
-133.125
 20
-1571.25
 30
0.0
 11
-133.125
 21
-1571.25
 31
0.0
  0
LINE
  5
155
330
76
100
AcDbEntity
  8
0
 62
     0
100
AcDbLine
 10
-131.875
 20
-1571.25
 30
0.0
 11
-131.875
 21
-1571.25
 31
0.0
  0
LINE
  5
156
330
76
100
AcDbEntity
  8
0
 62
     0
100
AcDbLine
 10
-130.625
 20
-1571.25
 30
0.0
 11
-130.625
 21
-1571.25
 31
0.0
  0
LINE
  5
157
330
76
100
AcDbEntity
  8
0
 62
     0
100
AcDbLine
 10
-53.75000000000003
 20
-1620.0
 30
0.0
 11
-53.75000000000003
 21
-1620.0
 31
0.0
  0
LINE
  5
158
330
76
100
AcDbEntity
  8
0
 62
     0
100
AcDbLine
 10
-55.625
 20
-1621.25
 30
0.0
 11
-55.625
 21
-1621.25
 31
0.0
  0
LINE
  5
159
330
76
100
AcDbEntity
  8
0
 62
     0
100
AcDbLine
 10
-54.375
 20
-1621.25
 30
0.0
 11
-54.375
 21
-1621.25
 31
0.0
  0
LINE
  5
15A
330
76
100
AcDbEntity
  8
0
 62
     0
100
AcDbLine
 10
-53.125
 20
-1621.25
 30
0.0
 11
-53.125
 21
-1621.25
 31
0.0
  0
LINE
  5
15B
330
76
100
AcDbEntity
  8
0
 62
     0
100
AcDbLine
 10
-56.25
 20
-1622.5
 30
0.0
 11
-56.25
 21
-1622.5
 31
0.0
  0
LINE
  5
15C
330
76
100
AcDbEntity
  8
0
 62
     0
100
AcDbLine
 10
-55.0
 20
-1622.5
 30
0.0
 11
-55.0
 21
-1622.5
 31
0.0
  0
LINE
  5
15D
330
76
100
AcDbEntity
  8
0
 62
     0
100
AcDbLine
 10
-53.75
 20
-1622.5
 30
0.0
 11
-53.75
 21
-1622.5
 31
0.0
  0
LINE
  5
15E
330
76
100
AcDbEntity
  8
0
 62
     0
100
AcDbLine
 10
-56.87500000000003
 20
-1623.75
 30
0.0
 11
-56.87500000000003
 21
-1623.75
 31
0.0
  0
LINE
  5
15F
330
76
100
AcDbEntity
  8
0
 62
     0
100
AcDbLine
 10
-55.62500000000003
 20
-1623.75
 30
0.0
 11
-55.62500000000003
 21
-1623.75
 31
0.0
  0
LINE
  5
160
330
76
100
AcDbEntity
  8
0
 62
     0
100
AcDbLine
 10
-54.37500000000003
 20
-1623.75
 30
0.0
 11
-54.37500000000003
 21
-1623.75
 31
0.0
  0
LINE
  5
161
330
76
100
AcDbEntity
  8
0
 62
     0
100
AcDbLine
 10
-57.49999999999998
 20
-1625.0
 30
0.0
 11
-57.49999999999998
 21
-1625.0
 31
0.0
  0
LINE
  5
162
330
76
100
AcDbEntity
  8
0
 62
     0
100
AcDbLine
 10
-56.24999999999998
 20
-1625.0
 30
0.0
 11
-56.24999999999998
 21
-1625.0
 31
0.0
  0
LINE
  5
163
330
76
100
AcDbEntity
  8
0
 62
     0
100
AcDbLine
 10
-54.99999999999998
 20
-1625.0
 30
0.0
 11
-54.99999999999998
 21
-1625.0
 31
0.0
  0
LINE
  5
164
330
76
100
AcDbEntity
  8
0
 62
     0
100
AcDbLine
 10
-58.12499999999996
 20
-1626.25
 30
0.0
 11
-58.12499999999996
 21
-1626.25
 31
0.0
  0
LINE
  5
165
330
76
100
AcDbEntity
  8
0
 62
     0
100
AcDbLine
 10
-56.87499999999996
 20
-1626.25
 30
0.0
 11
-56.87499999999996
 21
-1626.25
 31
0.0
  0
LINE
  5
166
330
76
100
AcDbEntity
  8
0
 62
     0
100
AcDbLine
 10
-55.62499999999996
 20
-1626.25
 30
0.0
 11
-55.62499999999996
 21
-1626.25
 31
0.0
  0
LINE
  5
167
330
76
100
AcDbEntity
  8
0
 62
     0
100
AcDbLine
 10
-58.75000000000005
 20
-1627.5
 30
0.0
 11
-58.75000000000005
 21
-1627.5
 31
0.0
  0
LINE
  5
168
330
76
100
AcDbEntity
  8
0
 62
     0
100
AcDbLine
 10
-57.50000000000005
 20
-1627.5
 30
0.0
 11
-57.50000000000005
 21
-1627.5
 31
0.0
  0
LINE
  5
169
330
76
100
AcDbEntity
  8
0
 62
     0
100
AcDbLine
 10
-56.25000000000005
 20
-1627.5
 30
0.0
 11
-56.25000000000005
 21
-1627.5
 31
0.0
  0
LINE
  5
16A
330
76
100
AcDbEntity
  8
0
 62
     0
100
AcDbLine
 10
-56.87499999999996
 20
-1628.75
 30
0.0
 11
-56.87499999999996
 21
-1628.75
 31
0.0
  0
LINE
  5
16B
330
76
100
AcDbEntity
  8
0
 62
     0
100
AcDbLine
 10
-55.62499999999996
 20
-1628.75
 30
0.0
 11
-55.62499999999996
 21
-1628.75
 31
0.0
  0
LINE
  5
16C
330
76
100
AcDbEntity
  8
0
 62
     0
100
AcDbLine
 10
-56.24999999999999
 20
-1630.0
 30
0.0
 11
-56.24999999999999
 21
-1630.0
 31
0.0
  0
ENDBLK
  5
16D
330
76
100
AcDbEntity
  8
0
100
AcDbBlockEnd
  0
ENDSEC
  0
SECTION
  2
ENTITIES
  0
LWPOLYLINE
  5
16E
330
6F
100
AcDbEntity
  8
GRABUNGSGRENZE
100
AcDbPolyline
 90
       27
 70
   128
 43
0.0
 10
-75.24861206520049
 20
-1732.316765486245
 10
-55.93943217039889
 20
-1705.924674105447
 10
-47.79803962690869
 20
-1698.53625888009
 10
-39.87359840751937
 20
-1677.645698443731
 10
-24.52196787542789
 20
-1650.684474954456
 10
-26.18671270477734
 20
-1646.923861886541
 10
-24.65000609508443
 20
-1641.801524770053
 10
-22.05071880886211
 20
-1637.900271904093
 10
-16.66379363239231
 20
-1635.478598277776
 10
-14.41953077831339
 20
-1631.474861376801
 10
-16.43625350437197
 20
-1626.495102762724
 10
-13.94332766189926
 20
-1624.370079888549
 10
-7.120379685267768
 20
-1616.521248139482
 10
2.392568907514237
 20
-1608.730513112651
 10
15.6992270213386
 20
-1587.144028658109
 10
21.73124480447475
 20
-1571.527108010301
 10
32.01192354712803
 20
-1561.403612461596
 10
9.973608259646248
 20
-1546.268443746855
 10
-2.136762985091229
 20
-1538.672503422784
 10
-90.92985454411644
 20
-1489.398296611512
 10
-103.9728939501425
 20
-1507.381702219953
 10
-120.829999273067
 20
-1546.622186444218
 10
-128.467557332251
 20
-1555.382434676633
 10
-136.1539340284835
 20
-1563.431941650345
 10
-155.8877288249832
 20
-1596.624408949785
 10
-168.4853074267045
 20
-1618.771162864267
 10
-175.5844756895214
 20
-1634.841991528265
  0
LWPOLYLINE
  5
18B
330
6F
100
AcDbEntity
  8
GRABUNGSGRENZE
100
AcDbPolyline
 90
        6
 70
   128
 43
0.0
 10
-128.467557332251
 20
-1555.382434676633
 10
-74.3498358055082
 20
-1588.928660775631
 10
-73.90908328323812
 20
-1594.817758689806
 10
-87.35236530748828
 20
-1610.66824812772
 10
-109.1024673933965
 20
-1638.728684788835
 10
-126.2838548363551
 20
-1666.598555183792
  0
LWPOLYLINE
  5
193
330
6F
100
AcDbEntity
  8
GRABUNGSGRENZE
100
AcDbPolyline
 90
        4
 70
   128
 43
0.0
 10
-59.19457799136019
 20
-1596.735939198367
 10
-55.21944181046144
 20
-1590.858888947045
 10
-33.67215654123238
 20
-1581.324466466023
 10
-2.136762985091229
 20
-1538.672503422784
  0
LWPOLYLINE
  5
199
330
6F
100
AcDbEntity
  8
GRABUNGSGRENZE
100
AcDbPolyline
 90
        3
 70
   128
 43
0.0
 10
9.973608259646248
 20
-1546.268443746855
 10
-26.77185361625968
 20
-1600.935771859519
 10
-26.18436822507741
 20
-1608.855578866973
  0
LWPOLYLINE
  5
19E
330
6F
100
AcDbEntity
  8
STEINE
100
AcDbPolyline
 90
        7
 70
     0
 43
0.0
 10
-104.3675394451269
 20
-1726.450941685794
 10
-103.4447676933409
 20
-1723.103449772256
 10
-100.902746256053
 20
-1721.587653473953
 10
-95.98177675862757
 20
-1722.514718071124
 10
-92.0783082305342
 20
-1724.301887894694
 10
-90.814221456059
 20
-1726.081856816329
 10
-92.34815848808441
 20
-1730.189047104502
  0
LWPOLYLINE
  5
1A7
330
6F
100
AcDbEntity
  8
STEINE
100
AcDbPolyline
 90
        7
 70
     0
 43
0.0
 10
-87.47296109227319
 20
-1729.288708931823
 10
-88.98778803839283
 20
-1726.391386104625
 10
-86.44161223460363
 20
-1723.35286956385
 10
-81.51219552529232
 20
-1721.183736334661
 10
-78.06180414008941
 20
-1721.599211630056
 10
-78.02364837706083
 20
-1726.218268177771
 10
-81.3867884044199
 20
-1731.031076005963
  0
LWPOLYLINE
  5
1B0
330
6F
100
AcDbEntity
  8
STEINE
100
AcDbPolyline
 90
       14
 70
     0
 43
0.0
 10
-69.74618583867833
 20
-1724.768877334705
 10
-72.07714613506758
 20
-1723.34130174643
 10
-72.22415596174652
 20
-1721.412107335982
 10
-75.91337833462358
 20
-1715.51414677327
 10
-77.68836201645711
 20
-1714.950969256779
 10
-79.20249656815987
 20
-1711.799859722502
 10
-82.73944691678972
 20
-1705.90231459644
 10
-79.63715601956145
 20
-1703.677438786034
 10
-74.61370248712093
 20
-1704.249478951062
 10
-68.37221123958618
 20
-1704.875599950705
 10
-63.95396839539995
 20
-1704.024772809492
 10
-61.6705804261088
 20
-1704.284791066322
 10
-57.55425053163286
 20
-1702.468743564909
 10
-52.47810095340935
 20
-1702.330319428999
  0
LWPOLYLINE
  5
1C0
330
6F
100
AcDbEntity
  8
STEINE
100
AcDbPolyline
 90
        3
 70
     0
 43
0.0
 10
-61.6705804261088
 20
-1704.284791066322
 10
-59.13936034172412
 20
-1706.728067398446
 10
-57.36271491329006
 20
-1706.682156817949
  0
LWPOLYLINE
  5
1C5
330
6F
100
AcDbEntity
  8
STEINE
100
AcDbPolyline
 90
       14
 70
     0
 43
0.0
 10
-76.61796211367574
 20
-1694.701559609569
 10
-80.06959980882902
 20
-1694.742900386915
 10
-82.96207587510897
 20
-1694.481220383484
 10
-85.54682287857689
 20
-1693.052952400791
 10
-86.30984474641341
 20
-1693.659963314529
 10
-87.89246193660391
 20
-1697.005655002583
 10
-90.28041112416078
 20
-1697.862021299132
 10
-91.50011058585553
 20
-1698.417028561504
 10
-92.67209924156878
 20
-1700.088835813905
 10
-93.50000329692528
 20
-1705.872957073165
 10
-91.83553542534259
 20
-1709.735084823912
 10
-88.94776764109741
 20
-1711.722514435478
 10
-83.87729569709227
 20
-1713.665141297613
 10
-79.20249656815987
 20
-1711.799859722502
  0
LWPOLYLINE
  5
1D5
330
6F
100
AcDbEntity
  8
STEINE
100
AcDbPolyline
 90
       22
 70
     0
 43
0.0
 10
-76.61796211367574
 20
-1694.701559609569
 10
-75.41986535778754
 20
-1702.064697608051
 10
-71.66825341729124
 20
-1703.699179970724
 10
-68.37221123958618
 20
-1704.875599950705
 10
-66.68600218331356
 20
-1700.768825099182
 10
-64.14550401374274
 20
-1699.811359556452
 10
-63.12038670582506
 20
-1696.159600552187
 10
-61.84882207164758
 20
-1695.198673037372
 10
-61.59018860365078
 20
-1693.422858482238
 10
-62.44517011136586
 20
-1690.527335880524
 10
-62.18044357250056
 20
-1686.518198303098
 10
-61.81987998502216
 20
-1684.590388681484
 10
-62.88010652053419
 20
-1682.506429626888
 10
-67.04165460109085
 20
-1682.292044992788
 10
-69.52834889381169
 20
-1682.132987503256
 10
-71.14842945261393
 20
-1680.605835936515
 10
-73.63553918198488
 20
-1680.59905047123
 10
-74.29399983155566
 20
-1680.089676831589
 10
-76.27796747103729
 20
-1681.708511080441
 10
-77.24429566230348
 20
-1682.416482761477
 10
-76.14646727929637
 20
-1689.322527729451
 10
-76.61796211367574
 20
-1694.701559609569
  0
LWPOLYLINE
  5
1ED
330
6F
100
AcDbEntity
  8
STEINE
100
AcDbPolyline
 90
        4
 70
     0
 43
0.0
 10
-76.61796211367574
 20
-1694.701559609569
 10
-82.38491199139687
 20
-1687.579745218661
 10
-78.86742275653997
 20
-1682.005992705883
 10
-77.24429566230348
 20
-1682.416482761477
  0
LWPOLYLINE
  5
1F3
330
6F
100
AcDbEntity
  8
STEINE
100
AcDbPolyline
 90
        8
 70
     0
 43
0.0
 10
-57.55425053163286
 20
-1702.468743564909
 10
-55.50830876118211
 20
-1696.738703140266
 10
-54.73130052612471
 20
-1691.005200743539
 10
-51.31615684739951
 20
-1685.735715321489
 10
-48.66985114961259
 20
-1683.205049152638
 10
-47.9022594786247
 20
-1680.92304597218
 10
-42.9212545545974
 20
-1678.44950717338
 10
-40.53718277577504
 20
-1679.014346436472
  0
LWPOLYLINE
  5
1FD
330
6F
100
AcDbEntity
  8
STEINE
100
AcDbPolyline
 90
        8
 70
     0
 43
0.0
 10
-48.66985114961259
 20
-1683.205049152638
 10
-47.99380368185316
 20
-1677.26824043248
 10
-50.06682290466248
 20
-1674.31863699615
 10
-55.74389032575566
 20
-1671.46071624193
 10
-58.34885524619636
 20
-1677.443020105935
 10
-60.04309607770473
 20
-1684.49372075957
 10
-60.45995616193387
 20
-1688.451685558931
 10
-54.73130052612471
 20
-1691.005200743539
  0
LWPOLYLINE
  5
207
330
6F
100
AcDbEntity
  8
STEINE
100
AcDbPolyline
 90
        2
 70
     0
 43
0.0
 10
-54.73130052612471
 20
-1691.005200743539
 10
-61.59018860365078
 20
-1693.422858482238
  0
LWPOLYLINE
  5
20B
330
6F
100
AcDbEntity
  8
STEINE
100
AcDbPolyline
 90
        3
 70
     0
 43
0.0
 10
-55.50830876118211
 20
-1696.738703140266
 10
-61.85394579033246
 20
-1697.076694669754
 10
-61.84882207164758
 20
-1695.198673037372
  0
LWPOLYLINE
  5
210
330
6F
100
AcDbEntity
  8
STEINE
100
AcDbPolyline
 90
       13
 70
     0
 43
0.0
 10
-39.66752250642218
 20
-1676.529590848118
 10
-45.10008130562282
 20
-1677.07310436317
 10
-47.1230355814333
 20
-1674.377426112801
 10
-47.92019732468051
 20
-1668.893417577768
 10
-51.41276036052989
 20
-1665.330848635713
 10
-48.81236524324057
 20
-1661.023537038428
 10
-47.62943675574066
 20
-1655.341899814184
 10
-45.79621787278911
 20
-1653.164319373109
 10
-38.79239715183473
 20
-1653.437216166093
 10
-32.96098052324372
 20
-1655.534192235726
 10
-29.55857690178905
 20
-1654.934382223924
 10
-27.88386159283659
 20
-1655.040466709906
 10
-27.73560545620727
 20
-1656.512845047613
  0
LWPOLYLINE
  5
21F
330
6F
100
AcDbEntity
  8
STEINE
100
AcDbPolyline
 90
        2
 70
     0
 43
0.0
 10
-58.34885524619636
 20
-1677.443020105935
 10
-67.68280539023975
 20
-1675.43800367618
  0
LWPOLYLINE
  5
223
330
6F
100
AcDbEntity
  8
STEINE
100
AcDbPolyline
 90
       10
 70
     0
 43
0.0
 10
-71.14842945261393
 20
-1680.605835936515
 10
-67.68280539023975
 20
-1675.43800367618
 10
-70.77138687801387
 20
-1672.637902686429
 10
-72.69947345739488
 20
-1672.378853781782
 10
-73.50715959577861
 20
-1670.752403194344
 10
-76.65702282010499
 20
-1671.809721673306
 10
-76.9200876123698
 20
-1675.209771153743
 10
-78.34613993292848
 20
-1676.982400694559
 10
-76.8332516911761
 20
-1680.590326301578
 10
-76.27796747103729
 20
-1681.708511080441
  0
LWPOLYLINE
  5
22F
330
6F
100
AcDbEntity
  8
STEINE
100
AcDbPolyline
 90
       12
 70
     0
 43
0.0
 10
-89.16493151418205
 20
-1679.69380112885
 10
-90.06956253224586
 20
-1676.392081316927
 10
-87.61160743848412
 20
-1668.480583042474
 10
-83.94253857379688
 20
-1663.161032673425
 10
-82.11388949399671
 20
-1662.658444499069
 10
-78.37557152630444
 20
-1669.165631637653
 10
-77.41699815250725
 20
-1671.300071075898
 10
-79.35810174692552
 20
-1675.81221226433
 10
-81.79902393803214
 20
-1677.480557544647
 10
-85.90995315605644
 20
-1677.317068730846
 10
-87.79032892945599
 20
-1678.174819816229
 10
-89.16493151418205
 20
-1679.69380112885
  0
LWPOLYLINE
  5
23D
330
6F
100
AcDbEntity
  8
STEINE
100
AcDbPolyline
 90
       13
 70
     0
 43
0.0
 10
-80.95055093783569
 20
-1682.761675192901
 10
-83.07640468531136
 20
-1680.573293398922
 10
-91.71055340243775
 20
-1682.529288303962
 10
-97.0876465781879
 20
-1681.347190689763
 10
-102.2773585020965
 20
-1685.901226571074
 10
-104.8211801648683
 20
-1688.076868307782
 10
-104.0184792662861
 20
-1691.530583186186
 10
-99.60992994393617
 20
-1694.232769944073
 10
-96.57293667087802
 20
-1697.337276503436
 10
-92.86931249412996
 20
-1697.956473558911
 10
-90.28041112416078
 20
-1697.862021299132
 10
-83.09122192583251
 20
-1686.004328930406
 10
-80.95055093783569
 20
-1682.761675192901
  0
LWPOLYLINE
  5
24C
330
6F
100
AcDbEntity
  8
STEINE
100
AcDbPolyline
 90
        8
 70
     0
 43
0.0
 10
-100.902746256053
 20
-1721.587653473953
 10
-103.4345202559712
 20
-1719.347406507492
 10
-96.45500740970788
 20
-1709.925512611188
 10
-91.99057702725729
 20
-1710.749816215576
 10
-90.17203690594351
 20
-1713.952513964569
 10
-86.37437590606625
 20
-1717.312884414261
 10
-87.09107175675503
 20
-1719.544268732186
 10
-92.0783082305342
 20
-1724.301887894694
  0
LWPOLYLINE
  5
256
330
6F
100
AcDbEntity
  8
STEINE
100
AcDbPolyline
 90
        8
 70
     0
 43
0.0
 10
-114.4580029494882
 20
-1722.667341123238
 10
-111.8749176926207
 20
-1724.70469720292
 10
-106.6849288109454
 20
-1720.049146638776
 10
-101.1318837218909
 20
-1712.552154307536
 10
-96.34587638829076
 20
-1707.134135791089
 10
-94.66396017740278
 20
-1704.600838523454
 10
-94.70225441931475
 20
-1700.032539317154
 10
-96.57293667087802
 20
-1697.337276503436
  0
LWPOLYLINE
  5
260
330
6F
100
AcDbEntity
  8
STEINE
100
AcDbPolyline
 90
        5
 70
     0
 43
0.0
 10
-104.0184792662861
 20
-1691.530583186186
 10
-108.0782357062445
 20
-1691.214960827022
 10
-110.2067205525044
 20
-1689.990968519942
 10
-112.4902470006789
 20
-1689.781707604527
 10
-113.7633349025735
 20
-1691.300965874915
  0
LWPOLYLINE
  5
267
330
6F
100
AcDbEntity
  8
STEINE
100
AcDbPolyline
 90
        4
 70
     0
 43
0.0
 10
-112.4902470006789
 20
-1689.781707604527
 10
-112.1757324725815
 20
-1686.128009895895
 10
-114.1083888551139
 20
-1687.543953257967
 10
-115.7903050660018
 20
-1690.077250525603
  0
LWPOLYLINE
  5
26D
330
6F
100
AcDbEntity
  8
STEINE
100
AcDbPolyline
 90
       11
 70
     0
 43
0.0
 10
-110.2067205525044
 20
-1689.990968519942
 10
-105.72982707055
 20
-1686.247111396915
 10
-101.9632594106492
 20
-1682.399800886689
 10
-102.0611736425129
 20
-1681.079833052113
 10
-103.4787787511857
 20
-1679.756264766569
 10
-108.3994712908444
 20
-1678.727685486568
 10
-110.1221743635451
 20
-1677.606315693386
 10
-113.7825190585797
 20
-1679.728153553244
 10
-114.9067969083114
 20
-1682.516760795676
 10
-113.3370582542748
 20
-1683.891501859285
 10
-112.1757324725815
 20
-1686.128009895895
  0
LWPOLYLINE
  5
27A
330
6F
100
AcDbEntity
  8
STEINE
100
AcDbPolyline
 90
        9
 70
     0
 43
0.0
 10
-103.4787787511857
 20
-1679.756264766569
 10
-102.5605768025511
 20
-1678.083765119751
 10
-108.2333513782597
 20
-1673.652366781644
 10
-111.8759707762222
 20
-1669.277264940288
 10
-117.6990786718107
 20
-1664.13484838571
 10
-121.6069785241721
 20
-1663.971913487444
 10
-125.5222177573524
 20
-1666.49911768421
 10
-126.7589501217023
 20
-1673.297277940718
 10
-126.6102785484228
 20
-1674.617384254177
  0
LWPOLYLINE
  5
285
330
6F
100
AcDbEntity
  8
STEINE
100
AcDbPolyline
 90
       13
 70
     0
 43
0.0
 10
-92.20414044937419
 20
-1677.401412032139
 10
-91.38011380275218
 20
-1673.03849633252
 10
-89.79638878149467
 20
-1669.28674591314
 10
-97.39780385211773
 20
-1664.79932803605
 10
-103.3828772937897
 20
-1663.209509943924
 10
-109.7253293086224
 20
-1662.38008262085
 10
-116.1260165245731
 20
-1664.291413255343
 10
-111.0065874646361
 20
-1666.894024034766
 10
-109.4411416559841
 20
-1669.842242682263
 10
-107.8747264951485
 20
-1672.43515993985
 10
-101.5907866392006
 20
-1676.106859903321
 10
-95.80458819669029
 20
-1676.173403837442
 10
-92.20414044937419
 20
-1677.401412032139
  0
LWPOLYLINE
  5
294
330
6F
100
AcDbEntity
  8
STEINE
100
AcDbPolyline
 90
       22
 70
     0
 43
0.0
 10
-130.9247169775431
 20
-1693.233696327548
 10
-127.6267360954708
 20
-1693.699513527709
 10
-121.592705537867
 20
-1695.949315537123
 10
-116.1626393585671
 20
-1696.319434167554
 10
-112.8610580255271
 20
-1695.465560490906
 10
-111.9364860482572
 20
-1691.458223138964
 10
-113.7633349025735
 20
-1691.300965874915
 10
-115.7903050660018
 20
-1690.077250525603
 10
-118.7199675431267
 20
-1684.841212584546
 10
-119.9758840634828
 20
-1680.066560519383
 10
-122.9664128405099
 20
-1678.535670022792
 10
-125.2495238520343
 20
-1678.17413708313
 10
-124.7859223140073
 20
-1675.688273663709
 10
-126.6102785484228
 20
-1674.617384254177
 10
-128.6857903911329
 20
-1672.581412963329
 10
-132.8932490521872
 20
-1670.590382900796
 10
-140.1523797479373
 20
-1670.875124468967
 10
-141.2830276263044
 20
-1675.998569416522
 10
-143.5759706385484
 20
-1679.240807717377
 10
-143.8406971774137
 20
-1683.249945294803
 10
-142.5803493327896
 20
-1686.400362434663
 10
-141.0602601891018
 20
-1687.368906288063
  0
LWPOLYLINE
  5
2AC
330
6F
100
AcDbEntity
  8
STEINE
100
AcDbPolyline
 90
        2
 70
     0
 43
0.0
 10
-118.7199675431267
 20
-1684.841212584546
 10
-113.3370582542748
 20
-1683.891501859285
  0
LWPOLYLINE
  5
2B0
330
6F
100
AcDbEntity
  8
STEINE
100
AcDbPolyline
 90
       11
 70
     0
 43
0.0
 10
-128.9608931849339
 20
-1717.602759362435
 10
-126.8238226479048
 20
-1715.679796501739
 10
-124.730308550356
 20
-1711.117313408541
 10
-122.245414483119
 20
-1711.936216336479
 10
-117.5720001430204
 20
-1710.578508175524
 10
-114.1723660992332
 20
-1710.993844992036
 10
-112.7042806069114
 20
-1712.419066439295
 10
-114.2886980225858
 20
-1716.424603565753
 10
-114.4580029494882
 20
-1722.667341123238
 10
-114.9357293336194
 20
-1730.330453367064
 10
-116.6693722381068
 20
-1733.218913545726
  0
LWPOLYLINE
  5
2BD
330
6F
100
AcDbEntity
  8
STEINE
100
AcDbPolyline
 90
       10
 70
     0
 43
0.0
 10
-129.3497805347213
 20
-1711.307741195817
 10
-126.8521464102138
 20
-1707.456968713507
 10
-127.0976243842899
 20
-1704.410835834146
 10
-125.6638172462622
 20
-1699.795795174048
 10
-127.0782373406174
 20
-1697.304808035943
 10
-127.9893768661999
 20
-1696.388683270559
 10
-129.5620235767873
 20
-1696.07984637668
 10
-130.836219309749
 20
-1698.005163378393
 10
-130.7910011236682
 20
-1700.035595513906
 10
-132.5737396229708
 20
-1702.314829116696
  0
LWPOLYLINE
  5
2C9
330
6F
100
AcDbEntity
  8
STEINE
100
AcDbPolyline
 90
        2
 70
     0
 43
0.0
 10
-127.9893768661999
 20
-1696.388683270559
 10
-127.6267360954708
 20
-1693.699513527709
  0
LWPOLYLINE
  5
2CD
330
6F
100
AcDbEntity
  8
STEINE
100
AcDbPolyline
 90
        9
 70
     0
 43
0.0
 10
-133.2818497828903
 20
-1701.399258266846
 10
-131.7970083456801
 20
-1696.6828414028
 10
-130.9247169775431
 20
-1693.233696327548
 10
-132.14040055162
 20
-1692.316740688864
 10
-137.9678012925931
 20
-1688.747801718174
 10
-141.0602601891018
 20
-1687.368906288063
 10
-144.1133170126314
 20
-1690.152251332926
 10
-145.5471241506591
 20
-1694.767291993024
 10
-145.4068997892656
 20
-1699.183596132843
  0
LWPOLYLINE
  5
2D8
330
6F
100
AcDbEntity
  8
STEINE
100
AcDbPolyline
 90
        8
 70
     0
 43
0.0
 10
-148.1967533416471
 20
-1698.516134355852
 10
-147.6804557578371
 20
-1695.319806635495
 10
-151.1282160442558
 20
-1693.939941853201
 10
-154.9798193998665
 20
-1691.746851777187
 10
-157.4588973540017
 20
-1688.796140509789
 10
-159.6370317106102
 20
-1687.165950992501
 10
-162.4930137604621
 20
-1692.132415633774
 10
-164.6379775938435
 20
-1696.948546955167
  0
LWPOLYLINE
  5
2E2
330
6F
100
AcDbEntity
  8
STEINE
100
AcDbPolyline
 90
       11
 70
     0
 43
0.0
 10
-147.6804557578371
 20
-1695.319806635495
 10
-146.6004267420024
 20
-1690.145465867641
 10
-146.8344109687584
 20
-1682.886473650774
 10
-147.3238436491936
 20
-1676.235877136479
 10
-154.9325981006355
 20
-1674.438598354423
 10
-158.177190542508
 20
-1673.008530146246
 10
-165.479739198855
 20
-1670.6029941405
 10
-171.4646741616436
 20
-1668.962418706958
 10
-172.7359618380543
 20
-1669.821831538942
 10
-180.2564955794688
 20
-1672.897534490562
 10
-183.504688472309
 20
-1672.787157159194
  0
LWPOLYLINE
  5
2EF
330
6F
100
AcDbEntity
  8
STEINE
100
AcDbPolyline
 90
        4
 70
     0
 43
0.0
 10
-182.037987768821
 20
-1674.71995202061
 10
-180.2564955794688
 20
-1672.897534490562
 10
-173.1616845708195
 20
-1677.028266188909
 10
-173.9325997350084
 20
-1680.528445563344
  0
LWPOLYLINE
  5
2F5
330
6F
100
AcDbEntity
  8
STEINE
100
AcDbPolyline
 90
        7
 70
     0
 43
0.0
 10
-184.2154297310127
 20
-1672.835975796243
 10
-182.037987768821
 20
-1674.71995202061
 10
-173.9325997350084
 20
-1680.528445563344
 10
-169.7270797783214
 20
-1683.230078405698
 10
-168.4668704125807
 20
-1686.431252886973
 10
-167.4619710216358
 20
-1690.190065729405
 10
-169.2531567328242
 20
-1695.565497158555
  0
LWPOLYLINE
  5
2FE
330
6F
100
AcDbEntity
  8
STEINE
100
AcDbPolyline
 90
        4
 70
     0
 43
0.0
 10
-168.4668704125807
 20
-1686.431252886973
 10
-164.8185733803997
 20
-1688.725303730285
 10
-163.1505050578492
 20
-1691.267740604223
 10
-162.4930137604621
 20
-1692.132415633774
  0
LWPOLYLINE
  5
304
330
6F
100
AcDbEntity
  8
STEINE
100
AcDbPolyline
 90
        7
 70
     0
 43
0.0
 10
-171.4646741616436
 20
-1668.962418706958
 10
-169.7360164969578
 20
-1667.901222819263
 10
-168.3609984755816
 20
-1666.229969482395
 10
-172.9739619524282
 20
-1664.034802223131
 10
-178.294897110311
 20
-1660.873306772601
 10
-180.7255718640479
 20
-1658.785608788154
 10
-185.1847400489302
 20
-1656.032526209967
  0
LWPOLYLINE
  5
30D
330
6F
100
AcDbEntity
  8
STEINE
100
AcDbPolyline
 90
        6
 70
     0
 43
0.0
 10
-180.7255718640479
 20
-1658.785608788154
 10
-177.7820614985854
 20
-1658.945912587637
 10
-176.8606745356332
 20
-1656.105994088257
 10
-177.0011758547935
 20
-1651.791204631269
 10
-176.2266602396369
 20
-1646.971334380025
 10
-181.8083060487671
 20
-1646.347013605865
  0
LWPOLYLINE
  5
315
330
6F
100
AcDbEntity
  8
STEINE
100
AcDbPolyline
 90
       14
 70
     0
 43
0.0
 10
-169.7360164969578
 20
-1667.901222819263
 10
-167.6013001009461
 20
-1666.841134762634
 10
-166.7796275953415
 20
-1663.341093867083
 10
-162.8104460064278
 20
-1659.646609296637
 10
-160.1149062349423
 20
-1657.674412362242
 10
-159.4482753312524
 20
-1655.189102858355
 10
-162.2814083653473
 20
-1651.780606166032
 10
-166.9451291836097
 20
-1649.585300427885
 10
-171.3079064043454
 20
-1648.710516439848
 10
-174.6108725262193
 20
-1650.071963530653
 10
-175.2848428107281
 20
-1655.247412129574
 10
-176.4105054492936
 20
-1658.543592786162
 10
-177.6326975308891
 20
-1660.012232194018
 10
-178.294897110311
 20
-1660.873306772601
  0
LWPOLYLINE
  5
325
330
6F
100
AcDbEntity
  8
STEINE
100
AcDbPolyline
 90
        6
 70
     0
 43
0.0
 10
-166.7796275953415
 20
-1663.341093867083
 10
-162.8249862891822
 20
-1664.976130145289
 10
-159.2696182490635
 20
-1664.122948863058
 10
-158.1496332447163
 20
-1662.907819204515
 10
-158.9060081261508
 20
-1661.078477730297
 10
-162.8104460064278
 20
-1659.646609296637
  0
LWPOLYLINE
  5
32D
330
6F
100
AcDbEntity
  8
STEINE
100
AcDbPolyline
 90
       14
 70
     0
 43
0.0
 10
-158.177190542508
 20
-1673.008530146246
 10
-152.3843451135957
 20
-1670.638721692411
 10
-148.1586072399359
 20
-1665.929782688068
 10
-146.9317068763056
 20
-1662.735393672078
 10
-150.2786448743098
 20
-1661.609592554629
 10
-150.8306056012477
 20
-1659.273231581788
 10
-151.3814584971185
 20
-1656.530811877621
 10
-152.4452854835983
 20
-1655.766543699834
 10
-154.272688253448
 20
-1655.812315801449
 10
-157.4710931570561
 20
-1656.057378338875
 10
-158.1496332447163
 20
-1662.907819204515
 10
-156.9932927028244
 20
-1666.971591532091
 10
-158.3196305660356
 20
-1669.404343469079
 10
-158.177190542508
 20
-1673.008530146246
  0
LWPOLYLINE
  5
33D
330
6F
100
AcDbEntity
  8
STEINE
100
AcDbPolyline
 90
       11
 70
     0
 43
0.0
 10
-154.272688253448
 20
-1655.812315801449
 10
-156.6043409442541
 20
-1654.638526920251
 10
-157.6623518176322
 20
-1651.742450403004
 10
-156.9994598437934
 20
-1650.627589117341
 10
-154.4061271495562
 20
-1648.908901932259
 10
-149.6915105109947
 20
-1651.053588807873
 10
-148.0269041605286
 20
-1654.864959217205
 10
-146.8626703222844
 20
-1656.035563084084
 10
-146.7680795836217
 20
-1658.573707112638
 10
-147.8389689931536
 20
-1660.398063347053
 10
-150.8306056012477
 20
-1659.273231581788
  0
LWPOLYLINE
  5
34A
330
6F
100
AcDbEntity
  8
STEINE
100
AcDbPolyline
 90
       11
 70
     0
 43
0.0
 10
-156.8948986255277
 20
-1649.511204563962
 10
-156.7854906463438
 20
-1646.618313061032
 10
-156.1117973196018
 20
-1641.544379144942
 10
-153.2122588302697
 20
-1639.217434736171
 10
-148.7364731793823
 20
-1635.879636344469
 10
-147.8830149393844
 20
-1639.333489701757
 10
-144.3378943366354
 20
-1642.23635168429
 10
-143.8398759654309
 20
-1645.739993030809
 10
-141.8213530138885
 20
-1650.059906206482
 10
-140.9128445870901
 20
-1651.940420458765
 10
-146.8626703222844
 20
-1656.035563084084
  0
LWPOLYLINE
  5
357
330
6F
100
AcDbEntity
  8
STEINE
100
AcDbPolyline
 90
       12
 70
     0
 43
0.0
 10
-169.3782965572473
 20
-1648.411234588921
 10
-174.4995258426682
 20
-1646.468469247903
 10
-175.9680267716401
 20
-1645.195519824891
 10
-176.5681137412095
 20
-1641.894630886268
 10
-177.3201957772593
 20
-1638.491811828163
 10
-175.2800701199104
 20
-1634.893579742981
 10
-170.409996442784
 20
-1635.871263202684
 10
-160.8315376768481
 20
-1641.27771390171
 10
-158.6090160074591
 20
-1645.242879603006
 10
-161.5160323564935
 20
-1650.310720448226
 10
-166.9451291836097
 20
-1649.585300427885
 10
-169.3782965572473
 20
-1648.411234588921
  0
LWPOLYLINE
  5
365
330
6F
100
AcDbEntity
  8
STEINE
100
AcDbPolyline
 90
       13
 70
     0
 43
0.0
 10
-143.9514255366484
 20
-1668.022327433433
 10
-143.7884906383813
 20
-1664.114427581071
 10
-144.9431694336726
 20
-1659.441567156507
 10
-142.7593574428457
 20
-1658.99070567575
 10
-138.4926942284898
 20
-1657.885676390808
 10
-131.4350696306854
 20
-1657.042050151529
 10
-128.6486780503883
 20
-1658.978445463912
 10
-127.5465568219966
 20
-1664.311012847999
 10
-128.270869011271
 20
-1669.334050943789
 10
-134.4120918859247
 20
-1669.165022974654
 10
-138.930603102992
 20
-1669.55875708536
 10
-142.7364343569884
 20
-1669.193069779196
 10
-143.9514255366484
 20
-1668.022327433433
  0
LWPOLYLINE
  5
374
330
6F
100
AcDbEntity
  8
STEINE
100
AcDbPolyline
 90
        4
 70
     0
 43
0.0
 10
-142.7593574428457
 20
-1658.99070567575
 10
-138.9814345145081
 20
-1650.981293169434
 10
-138.0195376475099
 20
-1651.897556413701
 10
-138.4926942284898
 20
-1657.885676390808
  0
LWPOLYLINE
  5
37A
330
6F
100
AcDbEntity
  8
STEINE
100
AcDbPolyline
 90
       10
 70
     0
 43
0.0
 10
-114.3959740710535
 20
-1662.72264395349
 10
-116.3239221715512
 20
-1662.412837707427
 10
-117.2849881652491
 20
-1661.192030414665
 10
-112.1906978533034
 20
-1654.404394553295
 10
-109.4005673431552
 20
-1654.970341647453
 10
-105.9501759579523
 20
-1655.385816942849
 10
-102.4540124711352
 20
-1657.628695008094
 10
-102.4580283587531
 20
-1659.10065790915
 10
-102.5675748168203
 20
-1662.044306753496
 10
-103.3828772937897
 20
-1663.209509943924
  0
LWPOLYLINE
  5
386
330
6F
100
AcDbEntity
  8
STEINE
100
AcDbPolyline
 90
        2
 70
     0
 43
0.0
 10
-109.7253293086224
 20
-1662.38008262085
 10
-114.3959740710535
 20
-1662.72264395349
  0
LWPOLYLINE
  5
38A
330
6F
100
AcDbEntity
  8
STEINE
100
AcDbPolyline
 90
       14
 70
     0
 43
0.0
 10
-102.5675748168203
 20
-1662.044306753496
 10
-96.68373910021308
 20
-1663.532333205024
 10
-92.62024373040349
 20
-1662.477507345963
 10
-90.03314258591819
 20
-1663.042900524589
 10
-86.67969608039538
 20
-1661.783106595498
 10
-84.43986455058446
 20
-1659.403604619827
 10
-84.4805129335138
 20
-1655.698180217595
 10
-86.79042443963002
 20
-1646.555488734128
 10
-88.35933222036638
 20
-1644.876203622024
 10
-94.65324255591736
 20
-1644.859032240485
 10
-101.664541136574
 20
-1647.327031883951
 10
-102.4362871740632
 20
-1651.13175530688
 10
-100.467275253986
 20
-1654.994713930927
 10
-102.4580283587531
 20
-1659.10065790915
  0
LWPOLYLINE
  5
39A
330
6F
100
AcDbEntity
  8
STEINE
100
AcDbPolyline
 90
        7
 70
     0
 43
0.0
 10
-80.38426247712726
 20
-1661.241947221463
 10
-82.74922417004384
 20
-1653.672594843001
 10
-82.99013234096861
 20
-1648.95146969692
 10
-86.0749748988916
 20
-1644.780920488944
 10
-88.80825499675561
 20
-1641.981788851376
 10
-86.75912821198721
 20
-1635.084329574172
 10
-83.13444666008047
 20
-1627.429803021115
  0
LWPOLYLINE
  5
3A3
330
6F
100
AcDbEntity
  8
STEINE
100
AcDbPolyline
 90
       15
 70
     0
 43
0.0
 10
-77.35364889402181
 20
-1629.47588327045
 10
-65.69635479217481
 20
-1635.700129066346
 10
-52.56959040917228
 20
-1642.842022895342
 10
-44.10626988666538
 20
-1647.687096303361
 10
-44.67277089635759
 20
-1650.680256179172
 10
-46.75492972546968
 20
-1651.08063727628
 10
-49.2124693825813
 20
-1658.839863526485
 10
-54.51532821552491
 20
-1667.657239128952
 10
-57.11212288184647
 20
-1670.644859849428
 10
-62.39047095243266
 20
-1670.478186021309
 10
-68.58868271825395
 20
-1672.593099936998
 10
-73.80838015107201
 20
-1669.533396127067
 10
-76.39783543657469
 20
-1669.830877752509
 10
-78.11776893160788
 20
-1667.694361131013
 10
-80.38426247712726
 20
-1661.241947221463
  0
LWPOLYLINE
  5
3B4
330
6F
100
AcDbEntity
  8
STEINE
100
AcDbPolyline
 90
        4
 70
     0
 43
0.0
 10
-79.43608468090066
 20
-1629.977779050389
 10
-83.13444666008047
 20
-1627.429803021115
 10
-87.43718845421431
 20
-1623.154415637107
 10
-82.50223258956799
 20
-1618.954988751289
  0
LWPOLYLINE
  5
3BA
330
6F
100
AcDbEntity
  8
STEINE
100
AcDbPolyline
 90
        5
 70
     0
 43
0.0
 10
-79.43608468090066
 20
-1629.977779050389
 10
-77.35364889402181
 20
-1629.47588327045
 10
-68.15895375918836
 20
-1626.709294170475
 10
-67.90073572784169
 20
-1625.085751639589
 10
-78.59364034278974
 20
-1618.864136942477
  0
LWPOLYLINE
  5
3C1
330
6F
100
AcDbEntity
  8
STEINE
100
AcDbPolyline
 90
        4
 70
     0
 43
0.0
 10
-43.5574941740452
 20
-1651.190876128763
 10
-42.18109136383525
 20
-1649.012049377738
 10
-39.70090557863306
 20
-1651.55670191381
 10
-43.5574941740452
 20
-1651.190876128763
  0
LWPOLYLINE
  5
3C7
330
6F
100
AcDbEntity
  8
STEINE
100
AcDbPolyline
 90
       12
 70
     0
 43
0.0
 10
-38.49720525862687
 20
-1638.261463477206
 10
-36.20204658424884
 20
-1634.207107713699
 10
-30.8657402703114
 20
-1631.734538267082
 10
-28.53076408630427
 20
-1631.690150954302
 10
-27.05409290321323
 20
-1629.968417233785
 10
-22.84372618560808
 20
-1630.893543126588
 10
-22.85134252419371
 20
-1633.685196904453
 10
-26.11629136192233
 20
-1639.71645788439
 10
-28.15447831490407
 20
-1642.604087189751
 10
-31.60500817899034
 20
-1642.239369235772
 10
-36.92898987230738
 20
-1640.194535296388
 10
-38.49720525862687
 20
-1638.261463477206
  0
LWPOLYLINE
  5
3D5
330
6F
100
AcDbEntity
  8
STEINE
100
AcDbPolyline
 90
       11
 70
     0
 43
0.0
 10
-24.02880592645902
 20
-1618.759215035026
 10
-24.76593224310436
 20
-1609.874603104023
 10
-24.55750220098979
 20
-1607.895620704342
 10
-17.45604420593844
 20
-1609.590000014734
 10
-12.38640313523357
 20
-1611.837170925364
 10
-12.64683682871424
 20
-1614.272830918903
 10
-11.22826236785782
 20
-1615.241097814536
 10
-11.84192026799801
 20
-1616.914428334655
 10
-17.48927913794849
 20
-1621.77176195451
 10
-19.62039508299243
 20
-1621.51215913433
 10
-24.02880592645902
 20
-1618.759215035026
  0
LWPOLYLINE
  5
3E2
330
6F
100
AcDbEntity
  8
STEINE
100
AcDbPolyline
 90
        7
 70
     0
 43
0.0
 10
-36.25357039018186
 20
-1615.883430504852
 10
-33.55623039321245
 20
-1613.251388132053
 10
-31.41666723628262
 20
-1610.414793125874
 10
-25.53601653399301
 20
-1613.070238429963
 10
-27.57240326149087
 20
-1615.29802229692
 10
-30.52283757112207
 20
-1617.675585568224
 10
-36.25357039018186
 20
-1615.883430504852
  0
LWPOLYLINE
  5
3EB
330
6F
100
AcDbEntity
  8
STEINE
100
AcDbPolyline
 90
        4
 70
     0
 43
0.0
 10
-31.61484984102742
 20
-1608.637732260789
 10
-25.98438539484873
 20
-1609.972794293653
 10
-27.05333610001339
 20
-1611.086547748248
 10
-31.61484984102742
 20
-1608.637732260789
  0
LWPOLYLINE
  5
3F1
330
6F
100
AcDbEntity
  8
STEINE
100
AcDbPolyline
 90
        8
 70
     0
 43
0.0
 10
-56.34454087217602
 20
-1631.157448453471
 10
-58.82168012194396
 20
-1627.496134406252
 10
-57.95298920477473
 20
-1625.366680207809
 10
-57.84496601442462
 20
-1622.981362119036
 10
-55.90884765980786
 20
-1620.296485221571
 10
-53.72503566898092
 20
-1619.845623740814
 10
-52.76383119639961
 20
-1621.01567369216
 10
-56.34454087217602
 20
-1631.157448453471
  0
LWPOLYLINE
  5
3FB
330
6F
100
AcDbEntity
  8
STEINE
100
AcDbPolyline
 90
       11
 70
     0
 43
0.0
 10
-78.59364034278974
 20
-1618.864136942477
 10
-79.56163028065645
 20
-1620.181196720502
 10
-82.50223258956799
 20
-1618.954988751289
 10
-85.74377849600621
 20
-1616.408259031966
 10
-87.77448758928569
 20
-1616.554991900878
 10
-92.18068277061826
 20
-1612.989930338923
 10
-90.9034405022224
 20
-1609.947951826063
 10
-91.50975902154369
 20
-1608.931143251148
 10
-90.6448070342256
 20
-1608.17213727093
 10
-87.1485050685251
 20
-1610.364257994759
 10
-78.59364034278974
 20
-1618.864136942477
  0
LWPOLYLINE
  5
408
330
6F
100
AcDbEntity
  8
STEINE
100
AcDbPolyline
 90
       11
 70
     0
 43
0.0
 10
-80.76415836081265
 20
-1614.442293647323
 10
-77.09896690485994
 20
-1610.543948837914
 10
-74.76717573517042
 20
-1611.666980377696
 10
-71.51773653237984
 20
-1611.320541636322
 10
-65.2851079333811
 20
-1615.195132486572
 10
-67.78675794550645
 20
-1620.517867869939
 10
-67.48816848899718
 20
-1622.701264424116
 10
-68.95985443228671
 20
-1622.595733853667
 10
-74.33057757940161
 20
-1619.078798534343
 10
-76.81588708328868
 20
-1618.412167630653
 10
-80.76415836081265
 20
-1614.442293647323
  0
LWPOLYLINE
  5
415
330
6F
100
AcDbEntity
  8
STEINE
100
AcDbPolyline
 90
       10
 70
     0
 43
0.0
 10
-64.22045007360106
 20
-1615.654856615865
 10
-63.80594413038931
 20
-1612.559766620573
 10
-61.67039686107735
 20
-1611.195134515449
 10
-58.40766368548274
 20
-1605.975990998165
 10
-57.65059640963137
 20
-1607.551545765303
 10
-59.04015471376196
 20
-1614.552319950823
 10
-61.17556350419054
 20
-1615.866194714531
 10
-62.40010972680341
 20
-1618.197708926453
 10
-64.42929555236576
 20
-1617.786111039793
 10
-64.22045007360106
 20
-1615.654856615865
  0
LWPOLYLINE
  5
421
330
6F
100
AcDbEntity
  8
STEINE
100
AcDbPolyline
 90
       10
 70
     0
 43
0.0
 10
-73.94245669413155
 20
-1607.050277970998
 10
-75.46240735893606
 20
-1606.030976776182
 10
-75.25646993672224
 20
-1604.965626521985
 10
-70.73795871965493
 20
-1604.57189241128
 10
-67.08370709548884
 20
-1604.683377573714
 10
-66.13122679256017
 20
-1609.051140034251
 10
-66.28862253549225
 20
-1610.928746229984
 10
-69.28205936907017
 20
-1610.463759903123
 10
-70.59828827379488
 20
-1609.191225916761
 10
-73.94245669413155
 20
-1607.050277970998
  0
LWPOLYLINE
  5
42D
330
6F
100
AcDbEntity
  8
STEINE
100
AcDbPolyline
 90
        8
 70
     0
 43
0.0
 10
-73.94245669413155
 20
-1607.050277970998
 10
-77.95699494800928
 20
-1608.765087747346
 10
-80.28823220216528
 20
-1607.439026841902
 10
-79.87441865337039
 20
-1604.597723553688
 10
-79.66515773795558
 20
-1602.314197105513
 10
-76.46135215789583
 20
-1600.089598252874
 10
-74.12443726952145
 20
-1599.334608160273
 10
-72.6578750449168
 20
-1601.318160363105
  0
LWPOLYLINE
  5
437
330
6F
100
AcDbEntity
  8
STEINE
100
AcDbPolyline
 90
       12
 70
     0
 43
0.0
 10
-70.73795871965493
 20
-1604.57189241128
 10
-72.56037624970321
 20
-1602.790400221928
 10
-72.6578750449168
 20
-1601.318160363105
 10
-68.22744605899356
 20
-1596.000687177306
 10
-65.43496140782796
 20
-1595.703759467397
 10
-59.19582430131058
 20
-1597.192755271109
 10
-58.29285502984726
 20
-1601.103563180021
 10
-59.46982892536202
 20
-1604.602634723389
 10
-61.3493738254613
 20
-1605.155841760278
 10
-62.62744696715741
 20
-1608.502364321632
 10
-63.13972866334951
 20
-1610.226729140932
 10
-66.13122679256017
 20
-1609.051140034251
  0
LWPOLYLINE
  5
445
330
6F
100
AcDbEntity
  8
STEINE
100
AcDbPolyline
 90
        5
 70
     0
 43
0.0
 10
-68.22744605899356
 20
-1596.000687177306
 10
-70.81136218916123
 20
-1594.267875146119
 10
-73.75764213229117
 20
-1595.122718174951
 10
-75.28673240339845
 20
-1597.453401513573
 10
-74.12443726952145
 20
-1599.334608160273
  0
LWPOLYLINE
  5
44C
330
6F
100
AcDbEntity
  8
STEINE
100
AcDbPolyline
 90
        5
 70
     0
 43
0.0
 10
-138.2764546214407
 20
-1597.230791877889
 10
-141.7705409250072
 20
-1594.226553691408
 10
-138.8225992352768
 20
-1592.762622565587
 10
-136.1338449290766
 20
-1593.277535360563
 10
-138.2764546214407
 20
-1597.230791877889
  0
LWPOLYLINE
  5
453
330
6F
100
AcDbEntity
  8
STEINE
100
AcDbPolyline
 90
        7
 70
     0
 43
0.0
 10
-132.9272697713494
 20
-1590.037789679609
 10
-135.1004188881564
 20
-1586.580335871354
 10
-128.3928334826939
 20
-1583.806961306094
 10
-126.2050056042491
 20
-1581.884136924282
 10
-124.8897460517081
 20
-1583.511972300553
 10
-130.3823402775106
 20
-1587.456089211575
 10
-132.9272697713494
 20
-1590.037789679609
  0
LWPOLYLINE
  5
45C
330
6F
100
AcDbEntity
  8
STEINE
100
AcDbPolyline
 90
       10
 70
     0
 43
0.0
 10
-136.2843907979404
 20
-1574.039949048467
 10
-135.071476801531
 20
-1575.972051515465
 10
-130.6596039859801
 20
-1577.456062079376
 10
-126.0458096358332
 20
-1579.346685290145
 10
-124.0697352927039
 20
-1580.62101950199
 10
-123.9539572848848
 20
-1575.393290293936
 10
-127.4972776621499
 20
-1571.830582872998
 10
-130.6417402100246
 20
-1570.908365036746
 10
-135.1099095223263
 20
-1571.454509650582
 10
-136.2843907979404
 20
-1574.039949048467
  0
LWPOLYLINE
  5
468
330
6F
100
AcDbEntity
  8
STEINE
100
AcDbPolyline
 90
        6
 70
     0
 43
0.0
 10
-138.0948991440184
 20
-1567.893325497362
 10
-136.473295317499
 20
-1568.862146308529
 10
-136.8907093172617
 20
-1573.023140473552
 10
-138.2268791811924
 20
-1579.059663651056
 10
-139.752784437982
 20
-1580.222928137117
 10
-144.0107234826853
 20
-1578.130244912868
  0
LWPOLYLINE
  5
470
330
6F
100
AcDbEntity
  8
STEINE
100
AcDbPolyline
 90
        6
 70
     0
 43
0.0
 10
-106.4847720770027
 20
-1590.871297299084
 10
-106.9888835190757
 20
-1589.600978974856
 10
-105.8199413987966
 20
-1589.045833233601
 10
-102.0672216272334
 20
-1590.274256864949
 10
-104.2020765021284
 20
-1591.385102262993
 10
-106.4847720770027
 20
-1590.871297299084
  0
LWPOLYLINE
  5
478
330
6F
100
AcDbEntity
  8
STEINE
100
AcDbPolyline
 90
        5
 70
     0
 43
0.0
 10
-121.2822358813398
 20
-1582.151356083048
 10
-121.9878534213586
 20
-1580.322153087714
 10
-115.8021047550411
 20
-1582.775399899441
 10
-117.3786288743631
 20
-1583.887768565202
 10
-121.2822358813398
 20
-1582.151356083048
  0
LWPOLYLINE
  5
47F
330
6F
100
AcDbEntity
  8
STEINE
100
AcDbPolyline
 90
        5
 70
     0
 43
0.0
 10
-121.2379870474427
 20
-1584.53708960847
 10
-120.4745497429561
 20
-1583.777806670485
 10
-114.1424836443765
 20
-1588.414034599739
 10
-115.007574110578
 20
-1589.223797921373
 10
-121.2379870474427
 20
-1584.53708960847
  0
LWPOLYLINE
  5
486
330
6F
100
AcDbEntity
  8
STEINE
100
AcDbPolyline
 90
        6
 70
     0
 43
0.0
 10
-130.2673834816743
 20
-1619.738312267516
 10
-131.9332361420907
 20
-1616.383757930926
 10
-132.08149227872
 20
-1614.91137959322
 10
-129.7488702357303
 20
-1615.729867084506
 10
-128.996649720797
 20
-1619.081928801196
 10
-130.2673834816743
 20
-1619.738312267516
  0
LWPOLYLINE
  5
48E
330
6F
100
AcDbEntity
  8
KNOCHEN
100
AcDbPolyline
 90
       10
 70
     0
 43
0.0
 10
-156.2283417919381
 20
-1628.448569623033
 10
-157.3402950210495
 20
-1626.719773479464
 10
-158.196522838715
 20
-1624.281066950491
 10
-156.9734998838193
 20
-1622.507883494141
 10
-156.2646973294829
 20
-1623.169667636913
 10
-157.2823367776983
 20
-1624.080530204729
 10
-157.2842754820655
 20
-1624.791132984549
 10
-156.7296836563436
 20
-1626.163104470491
 10
-155.7200759833639
 20
-1628.196167704788
 10
-156.2283417919381
 20
-1628.448569623033
  0
LWPOLYLINE
  5
49A
330
6F
100
AcDbEntity
  8
KNOCHEN
100
AcDbPolyline
 90
        5
 70
     0
 43
0.0
 10
-154.1940322476909
 20
-1626.982145877311
 10
-153.7856193753477
 20
-1626.120378904311
 10
-149.6769058194574
 20
-1627.095985180763
 10
-150.0860110862175
 20
-1628.211538860843
 10
-154.1940322476909
 20
-1626.982145877311
  0
LWPOLYLINE
  5
4A1
330
6F
100
AcDbEntity
  8
KNOCHEN
100
AcDbPolyline
 90
        5
 70
     0
 43
0.0
 10
-144.0008818206482
 20
-1611.731881887851
 10
-145.0115973246949
 20
-1610.10487738488
 10
-141.5574670096408
 20
-1609.14990446205
 10
-142.2734704659128
 20
-1611.127502072897
 10
-144.0008818206482
 20
-1611.731881887851
  0
LWPOLYLINE
  5
4A8
330
6F
100
AcDbEntity
  8
KNOCHEN
100
AcDbPolyline
 90
        5
 70
     0
 43
0.0
 10
-142.6080000233166
 20
-1603.512931508353
 10
-142.1915553757376
 20
-1599.70723873324
 10
-140.7198694324481
 20
-1599.812769303689
 10
-141.186379027026
 20
-1603.36453689284
 10
-142.6080000233166
 20
-1603.512931508353
  0
LWPOLYLINE
  5
4AF
330
6F
100
AcDbEntity
  8
KNOCHEN
100
AcDbPolyline
 90
        6
 70
     0
 43
0.0
 10
-116.4156885850808
 20
-1603.026055856602
 10
-116.3570379473127
 20
-1600.133025874788
 10
-114.5778998989779
 20
-1599.173483148807
 10
-113.4121427930165
 20
-1599.785756260114
 10
-113.7209796868956
 20
-1601.358402970701
 10
-116.4156885850808
 20
-1603.026055856602
  0
LWPOLYLINE
  5
4B7
330
6F
100
AcDbEntity
  8
KNOCHEN
100
AcDbPolyline
 90
        7
 70
     0
 43
0.0
 10
-55.36531482212105
 20
-1700.139860451771
 10
-55.20888843137258
 20
-1698.617555645948
 10
-54.18944875767328
 20
-1697.046847639728
 10
-52.9739036624798
 20
-1698.014560619828
 10
-54.14367665605904
 20
-1698.874250409578
 10
-54.80684558766459
 20
-1700.090626378072
 10
-55.36531482212105
 20
-1700.139860451771
  0
LWPOLYLINE
  5
4C0
330
6F
100
AcDbEntity
  8
KNOCHEN
100
AcDbPolyline
 90
        6
 70
     0
 43
0.0
 10
-56.83090769454206
 20
-1697.801006859029
 10
-53.52434112170048
 20
-1695.119868891414
 10
-53.32352741817155
 20
-1695.9325402696
 10
-55.25687619512082
 20
-1697.602270338751
 10
-56.7316086738446
 20
-1698.613401279447
 10
-56.83090769454206
 20
-1697.801006859029
  0
LWPOLYLINE
  5
4C8
330
6F
100
AcDbEntity
  8
KNOCHEN
100
AcDbPolyline
 90
        5
 70
     0
 43
0.0
 10
-51.50775687452528
 20
-1700.150384846907
 10
-52.51708758973819
 20
-1698.015806929779
 10
-51.85627279915003
 20
-1697.662305765352
 10
-51.20265891049736
 20
-1699.948186354544
 10
-51.50775687452528
 20
-1700.150384846907
  0
INSERT
  5
4CF
330
6F
100
AcDbEntity
  8
KNOCHENSCHRAFF
100
AcDbBlockReference
  2
*X1
 10
0.0
 20
0.0
 30
0.0
1001
ACAD
1000
HATCH
1002
{
1070
    16
1000
ANSI31
1040
2.0
1040
0.0
1002
}
  0
INSERT
  5
4D0
330
6F
100
AcDbEntity
  8
KNOCHENSCHRAFF
100
AcDbBlockReference
  2
*X2
 10
0.0
 20
0.0
 30
0.0
1001
ACAD
1000
HATCH
1002
{
1070
    16
1000
ANSI31
1040
2.0
1040
0.0
1002
}
  0
LWPOLYLINE
  5
4D1
330
6F
100
AcDbEntity
  8
BEFUND
100
AcDbPolyline
 90
        2
 70
     0
 43
0.0
 10
-136.473295317499
 20
-1568.862146308529
 10
-130.6417402100246
 20
-1570.908365036746
  0
LWPOLYLINE
  5
4D5
330
6F
100
AcDbEntity
  8
BEFUND
100
AcDbPolyline
 90
       26
 70
     0
 43
0.0
 10
-127.4972776621499
 20
-1571.830582872998
 10
-115.8888021973514
 20
-1577.344087410191
 10
-108.5931774851731
 20
-1582.287490486723
 10
-102.5698098015892
 20
-1588.445607785148
 10
-99.88811791844121
 20
-1591.549144992327
 10
-95.48967755457764
 20
-1597.956617673563
 10
-92.35490852853915
 20
-1602.431849408917
 10
-93.07271221029493
 20
-1605.069292458168
 10
-97.28557154780084
 20
-1605.057798710848
 10
-98.001298046306
 20
-1606.933881638862
 10
-95.62054976068464
 20
-1608.716897095932
 10
-99.43275104331632
 20
-1610.686047494892
 10
-103.3908543215599
 20
-1610.319944752079
 10
-109.8803161630716
 20
-1607.561323018557
 10
-109.1776066796037
 20
-1610.456430183621
 10
-111.2626735652667
 20
-1611.922715450459
 10
-112.936973437569
 20
-1611.664358940229
 10
-114.1987060710268
 20
-1609.021515214527
 10
-116.1310854957925
 20
-1610.335943893767
 10
-118.2684329905883
 20
-1612.360421437295
 10
-124.7677268328196
 20
-1613.20557094429
 10
-126.9939874320598
 20
-1610.61085346122
 10
-126.7345230907627
 20
-1608.530494857592
 10
-130.5389695559254
 20
-1607.657234137271
 10
-131.9706995107024
 20
-1611.510914676132
 10
-129.7488702357303
 20
-1615.729867084506
  0
LWPOLYLINE
  5
4F1
330
6F
100
AcDbEntity
  8
BEFUND
100
AcDbPolyline
 90
       11
 70
     0
 43
0.0
 10
-131.9332361420907
 20
-1616.383757930926
 10
-135.3345319324784
 20
-1616.577509211403
 10
-136.0510893042838
 20
-1618.758136187912
 10
-134.6348689844448
 20
-1620.589277887613
 10
-137.7883326597389
 20
-1622.966287243383
 10
-139.8700760522008
 20
-1623.214396316243
 10
-141.0419262290307
 20
-1624.835446227229
 10
-143.0834366752135
 20
-1628.941251726569
 10
-145.8759213263791
 20
-1629.238179436477
 10
-150.0860110862175
 20
-1628.211538860843
 10
-156.376091879886
 20
-1628.218856919684
  0
LWPOLYLINE
  5
4FE
330
6F
100
AcDbEntity
  8
BEFUND
100
AcDbPolyline
 90
       13
 70
     0
 43
0.0
 10
-158.196522838715
 20
-1624.281066950491
 10
-158.7959174138675
 20
-1620.726391304789
 10
-156.2498800889617
 20
-1617.73863210543
 10
-154.868768996717
 20
-1613.834055746269
 10
-157.2084534627589
 20
-1615.604192667185
 10
-159.551184464235
 20
-1618.490991099246
 10
-161.3777563607846
 20
-1618.232219152366
 10
-161.8273715315907
 20
-1615.591591088797
 10
-159.4853329245314
 20
-1612.958579363815
 10
-157.9014694243905
 20
-1609.156071603019
 10
-153.4728406639512
 20
-1604.498443855625
 10
-153.8159559121243
 20
-1600.030828458858
 10
-155.2287142598789
 20
-1596.930753223763
  0
LWPOLYLINE
  5
50D
330
6F
100
AcDbEntity
  8
BEFUND
100
AcDbPolyline
 90
        2
 70
     0
 43
0.0
 10
-158.6090160074591
 20
-1645.242879603006
 10
-156.1117973196018
 20
-1641.544379144942
  0
LWPOLYLINE
  5
511
330
6F
100
AcDbEntity
  8
BEFUND
100
AcDbPolyline
 90
        6
 70
     0
 43
0.0
 10
-128.270869011271
 20
-1669.334050943789
 10
-125.467167570552
 20
-1664.925778579206
 10
-118.8057697033539
 20
-1660.477273268344
 10
-114.009514932384
 20
-1651.303211487133
 10
-111.0991750901486
 20
-1645.017194447935
 10
-109.004276203766
 20
-1639.94713794058
  0
LWPOLYLINE
  5
519
330
6F
100
AcDbEntity
  8
BEFUND
100
AcDbPolyline
 90
        2
 70
     0
 43
0.0
 10
-96.12043276615594
 20
-1624.501183966275
 10
-92.18068277061826
 20
-1612.989930338923
  0
LWPOLYLINE
  5
51D
330
6F
100
AcDbEntity
  8
BEFUND
100
AcDbPolyline
 90
        8
 70
     0
 43
0.0
 10
-87.1485050685251
 20
-1610.364257994759
 10
-79.66515773795558
 20
-1602.314197105513
 10
-74.71884660487248
 20
-1593.952668223605
 10
-70.34485259458335
 20
-1590.716107556968
 10
-62.47469509747712
 20
-1589.722424955577
 10
-56.73814616531557
 20
-1589.382771679488
 10
-49.78314408140966
 20
-1588.944927213769
 10
-45.00710722741255
 20
-1587.181437279255
  0
LWPOLYLINE
  5
527
330
6F
100
AcDbEntity
  8
BEFUND
100
AcDbPolyline
 90
        2
 70
     0
 43
0.0
 10
-25.86653020377899
 20
-1603.983704964363
 10
-17.45604420593844
 20
-1609.590000014734
  0
LWPOLYLINE
  5
52B
330
6F
100
AcDbEntity
  8
BEFUND
100
AcDbPolyline
 90
        2
 70
     0
 43
0.0
 10
-11.84192026799801
 20
-1616.914428334655
 10
-10.07538379805034
 20
-1620.573803677505
  0
LWPOLYLINE
  5
52F
330
6F
100
AcDbEntity
  8
STEINE
100
AcDbPolyline
 90
       16
 70
     0
 43
0.0
 10
-109.004276203766
 20
-1639.94713794058
 10
-108.4394369406743
 20
-1637.563066161757
 10
-106.0986446435654
 20
-1635.386870509516
 10
-103.0425412846015
 20
-1631.486863953507
 10
-101.6646152066744
 20
-1628.749706446908
 10
-99.67995517277593
 20
-1626.877085490978
 10
-98.86271399143932
 20
-1625.00127952073
 10
-96.12043276615594
 20
-1624.501183966275
 10
-94.45084117588836
 20
-1626.48529008464
 10
-97.04985150434392
 20
-1630.285028267768
 10
-97.26949833601189
 20
-1636.375355322122
 10
-100.0301972527841
 20
-1643.62617728487
 10
-102.8304367214188
 20
-1646.76551611406
 10
-107.4998351738995
 20
-1646.651261373958
 10
-108.8628055324221
 20
-1643.906626007657
 10
-109.004276203766
 20
-1639.94713794058
  0
INSERT
  5
541
330
6F
100
AcDbEntity
  8
STEINESCHRAFF
100
AcDbBlockReference
  2
*X3
 10
0.0
 20
0.0
 30
0.0
1001
ACAD
1000
HATCH
1002
{
1070
    16
1000
DOTS,I
1040
20.0
1040
0.0
1002
}
  0
ENDSEC
  0
SECTION
  2
OBJECTS
  0
DICTIONARY
  5
C
330
0
100
AcDbDictionary
281
     1
  3
ACAD_CIP_PREVIOUS_PRODUCT_INFO
350
544
  3
ACAD_COLOR
350
62
  3
ACAD_DETAILVIEWSTYLE
350
69
  3
ACAD_GROUP
350
D
  3
ACAD_LAYOUT
350
61
  3
ACAD_MATERIAL
350
10
  3
ACAD_MLEADERSTYLE
350
65
  3
ACAD_MLINESTYLE
350
5E
  3
ACAD_PLOTSETTINGS
350
60
  3
ACAD_PLOTSTYLENAME
350
E
  3
ACAD_SCALELIST
350
42
  3
ACAD_SECTIONVIEWSTYLE
350
67
  3
ACAD_TABLESTYLE
350
63
  3
ACAD_VISUALSTYLE
350
29
  3
ACDB_RECOMPOSE_DATA
350
55B
  3
AcDbVariableDictionary
350
54E
  0
DICTIONARY
  5
548
330
2
100
AcDbDictionary
280
     1
281
     1
  3
ACAD_LAYERSTATES
360
549
  0
XRECORD
  5
544
102
{ACAD_REACTORS
330
C
102
}
330
C
100
AcDbXrecord
280
     1
300
ACD
300
2014
300
DSADV_F_S
  0
DICTIONARY
  5
62
102
{ACAD_REACTORS
330
C
102
}
330
C
100
AcDbDictionary
281
     1
  0
DICTIONARY
  5
69
102
{ACAD_REACTORS
330
C
102
}
330
C
100
AcDbDictionary
281
     1
  3
Imperial24
350
6A
  0
DICTIONARY
  5
D
102
{ACAD_REACTORS
330
C
102
}
330
C
100
AcDbDictionary
281
     1
  0
DICTIONARY
  5
61
102
{ACAD_REACTORS
330
C
102
}
330
C
100
AcDbDictionary
281
     1
  3
Layout1
350
6E
  3
Model
350
72
  0
DICTIONARY
  5
10
102
{ACAD_REACTORS
330
C
102
}
330
C
100
AcDbDictionary
281
     1
  3
ByBlock
350
19
  3
ByLayer
350
11
  3
Global
350
21
  0
DICTIONARY
  5
65
102
{ACAD_REACTORS
330
C
102
}
330
C
100
AcDbDictionary
281
     1
  3
Standard
350
66
  0
DICTIONARY
  5
5E
102
{ACAD_REACTORS
330
C
102
}
330
C
100
AcDbDictionary
281
     1
  3
Standard
350
5F
  0
DICTIONARY
  5
60
102
{ACAD_REACTORS
330
C
102
}
330
C
100
AcDbDictionary
281
     1
  0
ACDBDICTIONARYWDFLT
  5
E
102
{ACAD_REACTORS
330
C
102
}
330
C
100
AcDbDictionary
281
     1
  3
Normal
350
F
100
AcDbDictionaryWithDefault
340
F
  0
DICTIONARY
  5
42
102
{ACAD_REACTORS
330
C
102
}
330
C
100
AcDbDictionary
281
     1
  3
A0
350
43
  3
A1
350
44
  3
A2
350
45
  3
A3
350
46
  3
A4
350
47
  3
A5
350
48
  3
A6
350
49
  3
A7
350
4A
  3
A8
350
4B
  3
A9
350
4C
  3
B0
350
4D
  3
B1
350
4E
  3
B2
350
4F
  3
B3
350
50
  3
B4
350
51
  3
B5
350
52
  3
B6
350
53
  0
DICTIONARY
  5
67
102
{ACAD_REACTORS
330
C
102
}
330
C
100
AcDbDictionary
281
     1
  3
Imperial24
350
68
  0
DICTIONARY
  5
63
102
{ACAD_REACTORS
330
C
102
}
330
C
100
AcDbDictionary
281
     1
  3
Standard
350
64
  0
DICTIONARY
  5
29
102
{ACAD_REACTORS
330
C
102
}
330
C
100
AcDbDictionary
281
     1
  3
2dWireframe
350
2F
  3
Basic
350
2E
  3
Brighten
350
35
  3
ColorChange
350
39
  3
Conceptual
350
32
  3
Dim
350
34
  3
EdgeColorOff
350
41
  3
Facepattern
350
38
  3
Flat
350
2A
  3
FlatWithEdges
350
2B
  3
Gouraud
350
2C
  3
GouraudWithEdges
350
2D
  3
Hidden
350
31
  3
JitterOff
350
3F
  3
Linepattern
350
37
  3
OverhangOff
350
40
  3
Realistic
350
33
  3
Shaded
350
3E
  3
Shaded with edges
350
3D
  3
Shades of Gray
350
3A
  3
Sketchy
350
3B
  3
Thicken
350
36
  3
Wireframe
350
30
  3
X-Ray
350
3C
  0
XRECORD
  5
55B
102
{ACAD_REACTORS
330
C
102
}
330
C
100
AcDbXrecord
280
     1
 90
        1
330
64
330
68
330
6A
  0
DICTIONARY
  5
54E
102
{ACAD_REACTORS
330
C
102
}
330
C
100
AcDbDictionary
281
     1
  3
CANNOSCALE
350
553
  3
CMLEADERSTYLE
350
550
  3
CTABLESTYLE
350
54F
  3
CVIEWDETAILSTYLE
350
551
  3
CVIEWSECTIONSTYLE
350
552
  0
DICTIONARY
  5
549
102
{ACAD_REACTORS
330
548
102
}
330
548
100
AcDbDictionary
281
     1
  0
ACDBDETAILVIEWSTYLE
  5
6A
102
{ACAD_XDICTIONARY
360
559
102
}
102
{ACAD_REACTORS
330
69
102
}
330
69
100
AcDbModelDocViewStyle
 70
     0
  3
Imperial24
290
     0
100
AcDbDetailViewStyle
 70
     0
 71
     0
 90
        3
 71
     1
340
55
 62
   256
 40
0.24
340
0
 62
   256
 40
0.24
300

 40
0.36
280
     3
 71
     2
340
5C
 90
       25
 62
   256
 71
     3
340
55
 62
   256
 40
0.24
 90
        1
 40
0.75
 90
        1
300
%<\AcVar ViewType \f "%tc1">% %<\AcVar ViewDetailId>%\PVARIA %<\AcVar ViewScale \f "%sn">%
 71
     4
340
5C
 90
       25
 62
   256
340
5C
 90
       25
 62
   256
280
     0
  0
LAYOUT
  5
6E
102
{ACAD_REACTORS
330
61
102
}
330
61
100
AcDbPlotSettings
  1

  2
Kyocera FS-1350DN KX
  4

  6

 40
0.0
 41
0.0
 42
0.0
 43
0.0
 44
0.0
 45
0.0
 46
0.0
 47
0.0
 48
0.0
 49
0.0
140
0.0
141
0.0
142
1.0
143
1.0
 70
   688
 72
     0
 73
     0
 74
     5
  7

 75
    16
147
1.0
 76
     0
 77
     2
 78
   300
148
0.0
149
0.0
100
AcDbLayout
  1
Layout1
 70
     0
 71
     1
 10
0.0
 20
0.0
 11
12.0
 21
9.0
 12
0.0
 22
0.0
 32
0.0
 14
1.000000000000000E+20
 24
1.000000000000000E+20
 34
1.000000000000000E+20
 15
-1.000000000000000E+20
 25
-1.000000000000000E+20
 35
-1.000000000000000E+20
146
0.0
 13
0.0
 23
0.0
 33
0.0
 16
1.0
 26
0.0
 36
0.0
 17
0.0
 27
1.0
 37
0.0
 76
     0
330
6B
  0
LAYOUT
  5
72
102
{ACAD_REACTORS
330
61
102
}
330
61
100
AcDbPlotSettings
  1

  2
Kyocera FS-1350DN KX
  4

  6

 40
0.0
 41
0.0
 42
0.0
 43
0.0
 44
0.0
 45
0.0
 46
0.0
 47
0.0
 48
0.0
 49
0.0
140
0.0
141
0.0
142
1.0
143
1.0
 70
  1712
 72
     0
 73
     0
 74
     0
  7

 75
     0
147
1.0
 76
     0
 77
     2
 78
   300
148
0.0
149
0.0
100
AcDbLayout
  1
Model
 70
     1
 71
     0
 10
0.0
 20
0.0
 11
12.0
 21
9.0
 12
0.0
 22
0.0
 32
0.0
 14
0.0
 24
0.0
 34
0.0
 15
0.0
 25
0.0
 35
0.0
146
0.0
 13
0.0
 23
0.0
 33
0.0
 16
1.0
 26
0.0
 36
0.0
 17
0.0
 27
1.0
 37
0.0
 76
     0
330
6F
331
90
  0
MATERIAL
  5
19
102
{ACAD_XDICTIONARY
360
1A
102
}
102
{ACAD_REACTORS
330
10
102
}
330
10
100
AcDbMaterial
  1
ByBlock
 72
     0
 43
0.0208333333333333
 43
0.0
 43
0.0
 43
0.0
 43
0.0
 43
0.0208333333333333
 43
0.0
 43
0.0
 43
0.0
 43
0.0
 43
1.0
 43
0.0
 43
0.0
 43
0.0
 43
0.0
 43
1.0
 77
     0
 47
0.0208333333333333
 47
0.0
 47
0.0
 47
0.0
 47
0.0
 47
0.0208333333333333
 47
0.0
 47
0.0
 47
0.0
 47
0.0
 47
1.0
 47
0.0
 47
0.0
 47
0.0
 47
0.0
 47
1.0
171
     0
 49
0.0208333333333333
 49
0.0
 49
0.0
 49
0.0
 49
0.0
 49
0.0208333333333333
 49
0.0
 49
0.0
 49
0.0
 49
0.0
 49
1.0
 49
0.0
 49
0.0
 49
0.0
 49
0.0
 49
1.0
175
     0
142
0.0208333333333333
142
0.0
142
0.0
142
0.0
142
0.0
142
0.0208333333333333
142
0.0
142
0.0
142
0.0
142
0.0
142
1.0
142
0.0
142
0.0
142
0.0
142
0.0
142
1.0
179
     0
144
0.0208333333333333
144
0.0
144
0.0
144
0.0
144
0.0
144
0.0208333333333333
144
0.0
144
0.0
144
0.0
144
0.0
144
1.0
144
0.0
144
0.0
144
0.0
144
0.0
144
1.0
147
0.0208333333333333
147
0.0
147
0.0
147
0.0
147
0.0
147
0.0208333333333333
147
0.0
147
0.0
147
0.0
147
0.0
147
1.0
147
0.0
147
0.0
147
0.0
147
0.0
147
1.0
  0
MATERIAL
  5
11
102
{ACAD_XDICTIONARY
360
12
102
}
102
{ACAD_REACTORS
330
10
102
}
330
10
100
AcDbMaterial
  1
ByLayer
 72
     0
 43
0.0208333333333333
 43
0.0
 43
0.0
 43
0.0
 43
0.0
 43
0.0208333333333333
 43
0.0
 43
0.0
 43
0.0
 43
0.0
 43
1.0
 43
0.0
 43
0.0
 43
0.0
 43
0.0
 43
1.0
 77
     0
 47
0.0208333333333333
 47
0.0
 47
0.0
 47
0.0
 47
0.0
 47
0.0208333333333333
 47
0.0
 47
0.0
 47
0.0
 47
0.0
 47
1.0
 47
0.0
 47
0.0
 47
0.0
 47
0.0
 47
1.0
171
     0
 49
0.0208333333333333
 49
0.0
 49
0.0
 49
0.0
 49
0.0
 49
0.0208333333333333
 49
0.0
 49
0.0
 49
0.0
 49
0.0
 49
1.0
 49
0.0
 49
0.0
 49
0.0
 49
0.0
 49
1.0
175
     0
142
0.0208333333333333
142
0.0
142
0.0
142
0.0
142
0.0
142
0.0208333333333333
142
0.0
142
0.0
142
0.0
142
0.0
142
1.0
142
0.0
142
0.0
142
0.0
142
0.0
142
1.0
179
     0
144
0.0208333333333333
144
0.0
144
0.0
144
0.0
144
0.0
144
0.0208333333333333
144
0.0
144
0.0
144
0.0
144
0.0
144
1.0
144
0.0
144
0.0
144
0.0
144
0.0
144
1.0
147
0.0208333333333333
147
0.0
147
0.0
147
0.0
147
0.0
147
0.0208333333333333
147
0.0
147
0.0
147
0.0
147
0.0
147
1.0
147
0.0
147
0.0
147
0.0
147
0.0
147
1.0
  0
MATERIAL
  5
21
102
{ACAD_XDICTIONARY
360
22
102
}
102
{ACAD_REACTORS
330
10
102
}
330
10
100
AcDbMaterial
  1
Global
 72
     0
 43
0.0208333333333333
 43
0.0
 43
0.0
 43
0.0
 43
0.0
 43
0.0208333333333333
 43
0.0
 43
0.0
 43
0.0
 43
0.0
 43
1.0
 43
0.0
 43
0.0
 43
0.0
 43
0.0
 43
1.0
 77
     0
 47
0.0208333333333333
 47
0.0
 47
0.0
 47
0.0
 47
0.0
 47
0.0208333333333333
 47
0.0
 47
0.0
 47
0.0
 47
0.0
 47
1.0
 47
0.0
 47
0.0
 47
0.0
 47
0.0
 47
1.0
171
     0
 49
0.0208333333333333
 49
0.0
 49
0.0
 49
0.0
 49
0.0
 49
0.0208333333333333
 49
0.0
 49
0.0
 49
0.0
 49
0.0
 49
1.0
 49
0.0
 49
0.0
 49
0.0
 49
0.0
 49
1.0
175
     0
142
0.0208333333333333
142
0.0
142
0.0
142
0.0
142
0.0
142
0.0208333333333333
142
0.0
142
0.0
142
0.0
142
0.0
142
1.0
142
0.0
142
0.0
142
0.0
142
0.0
142
1.0
179
     0
144
0.0208333333333333
144
0.0
144
0.0
144
0.0
144
0.0
144
0.0208333333333333
144
0.0
144
0.0
144
0.0
144
0.0
144
1.0
144
0.0
144
0.0
144
0.0
144
0.0
144
1.0
147
0.0208333333333333
147
0.0
147
0.0
147
0.0
147
0.0
147
0.0208333333333333
147
0.0
147
0.0
147
0.0
147
0.0
147
1.0
147
0.0
147
0.0
147
0.0
147
0.0
147
1.0
  0
MLEADERSTYLE
  5
66
102
{ACAD_REACTORS
330
65
102
}
330
65
100
AcDbMLeaderStyle
179
     2
170
     2
171
     1
172
     0
 90
        2
 40
0.0
 41
0.0
173
     1
 91
-1056964608
340
5A
 92
       -2
290
     1
 42
0.09
291
     1
 43
0.36
  3
Standard
 44
0.18
300

342
55
174
     1
178
     6
175
     1
176
     0
 93
-1056964608
 45
0.18
292
     0
297
     0
 46
0.18
 94
-1056964608
 47
1.0
 49
1.0
140
1.0
293
     1
141
0.0
294
     1
177
     0
142
1.0
295
     1
296
     0
143
0.125
271
     0
272
     9
273
     9
298
     1
  0
MLINESTYLE
  5
5F
102
{ACAD_REACTORS
330
5E
102
}
330
5E
100
AcDbMlineStyle
  2
STANDARD
 70
     0
  3

 62
   256
 51
90.0
 52
90.0
 71
     2
 49
0.5
 62
   256
  6
BYLAYER
 49
-0.5
 62
   256
  6
BYLAYER
  0
ACDBPLACEHOLDER
  5
F
102
{ACAD_REACTORS
330
E
102
}
330
E
  0
SCALE
  5
43
102
{ACAD_REACTORS
330
42
102
}
330
42
100
AcDbScale
 70
     0
300
1:1
140
1.0
141
1.0
290
     1
  0
SCALE
  5
44
102
{ACAD_REACTORS
330
42
102
}
330
42
100
AcDbScale
 70
     0
300
1/128" = 1'-0"
140
0.0078125
141
12.0
290
     0
  0
SCALE
  5
45
102
{ACAD_REACTORS
330
42
102
}
330
42
100
AcDbScale
 70
     0
300
1/64" = 1'-0"
140
0.015625
141
12.0
290
     0
  0
SCALE
  5
46
102
{ACAD_REACTORS
330
42
102
}
330
42
100
AcDbScale
 70
     0
300
1/32" = 1'-0"
140
0.03125
141
12.0
290
     0
  0
SCALE
  5
47
102
{ACAD_REACTORS
330
42
102
}
330
42
100
AcDbScale
 70
     0
300
1/16" = 1'-0"
140
0.0625
141
12.0
290
     0
  0
SCALE
  5
48
102
{ACAD_REACTORS
330
42
102
}
330
42
100
AcDbScale
 70
     0
300
3/32" = 1'-0"
140
0.09375
141
12.0
290
     0
  0
SCALE
  5
49
102
{ACAD_REACTORS
330
42
102
}
330
42
100
AcDbScale
 70
     0
300
1/8" = 1'-0"
140
0.125
141
12.0
290
     0
  0
SCALE
  5
4A
102
{ACAD_REACTORS
330
42
102
}
330
42
100
AcDbScale
 70
     0
300
3/16" = 1'-0"
140
0.1875
141
12.0
290
     0
  0
SCALE
  5
4B
102
{ACAD_REACTORS
330
42
102
}
330
42
100
AcDbScale
 70
     0
300
1/4" = 1'-0"
140
0.25
141
12.0
290
     0
  0
SCALE
  5
4C
102
{ACAD_REACTORS
330
42
102
}
330
42
100
AcDbScale
 70
     0
300
3/8" = 1'-0"
140
0.375
141
12.0
290
     0
  0
SCALE
  5
4D
102
{ACAD_REACTORS
330
42
102
}
330
42
100
AcDbScale
 70
     0
300
1/2" = 1'-0"
140
0.5
141
12.0
290
     0
  0
SCALE
  5
4E
102
{ACAD_REACTORS
330
42
102
}
330
42
100
AcDbScale
 70
     0
300
3/4" = 1'-0"
140
0.75
141
12.0
290
     0
  0
SCALE
  5
4F
102
{ACAD_REACTORS
330
42
102
}
330
42
100
AcDbScale
 70
     0
300
1" = 1'-0"
140
1.0
141
12.0
290
     0
  0
SCALE
  5
50
102
{ACAD_REACTORS
330
42
102
}
330
42
100
AcDbScale
 70
     0
300
1-1/2" = 1'-0"
140
1.5
141
12.0
290
     0
  0
SCALE
  5
51
102
{ACAD_REACTORS
330
42
102
}
330
42
100
AcDbScale
 70
     0
300
3" = 1'-0"
140
3.0
141
12.0
290
     0
  0
SCALE
  5
52
102
{ACAD_REACTORS
330
42
102
}
330
42
100
AcDbScale
 70
     0
300
6" = 1'-0"
140
6.0
141
12.0
290
     0
  0
SCALE
  5
53
102
{ACAD_REACTORS
330
42
102
}
330
42
100
AcDbScale
 70
     0
300
1'-0" = 1'-0"
140
12.0
141
12.0
290
     0
  0
ACDBSECTIONVIEWSTYLE
  5
68
102
{ACAD_XDICTIONARY
360
557
102
}
102
{ACAD_REACTORS
330
67
102
}
330
67
100
AcDbModelDocViewStyle
 70
     0
  3
Imperial24
290
     0
100
AcDbSectionViewStyle
 70
     0
 71
     0
 90
       78
 71
     1
340
55
 62
   256
 40
0.24
340
0
340
0
 62
   256
 40
0.24
300
I, O, Q, S, X, Z
 40
0.48
 90
        3
 40
0.18
 90
        1
 71
     2
340
5C
 90
       25
 62
   256
340
5C
 90
       50
 62
   256
 40
0.24
 40
0.0
 40
0.24
 71
     3
340
55
 62
   256
 40
0.24
 90
        1
 40
0.75
 90
        1
300
%<\AcVar ViewType \f "%tc1">% %<\AcVar ViewSectionStartId>%-%<\AcVar ViewSectionEndId>%\PVARIA %<\AcVar ViewScale \f "%sn">%
 71
     4
 62
   256
 62
   257
300
ANSI31
 40
1.0
 90
        0
290
     0
290
     0
 90
        6
 40
0.0
 40
1.570796326794896
 40
0.2617993877991494
 40
1.308996938995747
 40
-0.2617993877991494
 40
1.832595714594046
  0
TABLESTYLE
  5
64
102
{ACAD_XDICTIONARY
360
555
102
}
102
{ACAD_REACTORS
330
63
102
}
330
63
100
AcDbTableStyle
280
     0
  3
Standard
 70
     0
 71
     0
 40
0.06
 41
0.06
280
     0
281
     0
  7
STANDARD
140
0.18
170
     2
 62
     0
 63
     7
283
     0
 90
      512
 91
        0
  1

274
    -2
284
     1
 64
     0
275
    -2
285
     1
 65
     0
276
    -2
286
     1
 66
     0
277
    -2
287
     1
 67
     0
278
    -2
288
     1
 68
     0
279
    -2
289
     1
 69
     0
  7
STANDARD
140
0.25
170
     5
 62
     0
 63
     7
283
     0
 90
      512
 91
        0
  1

274
    -2
284
     1
 64
     0
275
    -2
285
     1
 65
     0
276
    -2
286
     1
 66
     0
277
    -2
287
     1
 67
     0
278
    -2
288
     1
 68
     0
279
    -2
289
     1
 69
     0
  7
STANDARD
140
0.18
170
     5
 62
     0
 63
     7
283
     0
 90
      512
 91
        0
  1

274
    -2
284
     1
 64
     0
275
    -2
285
     1
 65
     0
276
    -2
286
     1
 66
     0
277
    -2
287
     1
 67
     0
278
    -2
288
     1
 68
     0
279
    -2
289
     1
 69
     0
  0
VISUALSTYLE
  5
2F
102
{ACAD_REACTORS
330
29
102
}
330
29
100
AcDbVisualStyle
  2
2dWireframe
 70
     4
177
     3
291
     0
 70
    58
 90
        0
176
     1
 90
        2
176
     1
 90
        0
176
     1
 90
        0
176
     1
 40
0.6
176
     1
 40
30.0
176
     1
 62
     7
420
 16777215
176
     1
 90
        1
176
     1
 90
        4
176
     1
 62
     7
176
     1
 62
   257
176
     1
 90
        1
176
     1
 90
        1
176
     1
 40
1.0
176
     1
 90
        0
176
     1
 62
   257
176
     1
 40
1.0
176
     1
 90
        1
176
     1
 90
        6
176
     1
 90
        2
176
     1
 62
     7
176
     1
 90
        5
176
     1
 90
        0
176
     1
 90
        0
176
     1
290
     0
176
     1
 90
        1
176
     1
 40
0.0
176
     1
 90
        0
176
     1
290
     1
176
     1
290
     1
176
     1
290
     0
176
     1
290
     0
176
     1
290
     0
176
     1
290
     0
176
     1
290
     0
176
     1
290
     0
176
     1
290
     0
176
     1
 90
       50
176
     1
 40
0.0
176
     1
 40
1.0
176
     1
 90
        0
176
     1
 62
    18
420
        0
176
     1
 90
       50
176
     1
 90
        3
176
     1
 62
     5
420
      255
176
     1
290
     0
176
     1
 90
       50
176
     1
 90
       50
176
     1
 90
       50
176
     1
290
     0
176
     1
 90
       50
176
     1
 62
   256
176
     0
 40
1.0
176
     0
 90
        2
176
     1
  1
strokes_ogs.tif
176
     1
290
     0
176
     1
 40
1.0
176
     1
 40
1.0
176
     1
  0
VISUALSTYLE
  5
2E
102
{ACAD_REACTORS
330
29
102
}
330
29
100
AcDbVisualStyle
  2
Basic
 70
     7
177
     3
291
     1
 70
    58
 90
        1
176
     1
 90
        0
176
     1
 90
        1
176
     1
 90
        0
176
     1
 40
0.6
176
     1
 40
30.0
176
     1
 62
     7
420
 16777215
176
     1
 90
        0
176
     1
 90
        4
176
     1
 62
     7
176
     1
 62
   257
176
     1
 90
        1
176
     1
 90
        1
176
     1
 40
1.0
176
     1
 90
        8
176
     1
 62
     7
176
     1
 40
1.0
176
     1
 90
        1
176
     1
 90
        6
176
     1
 90
        2
176
     1
 62
     7
176
     1
 90
        5
176
     1
 90
        0
176
     1
 90
        0
176
     1
290
     0
176
     1
 90
        1
176
     1
 40
0.0
176
     1
 90
        0
176
     1
290
     0
176
     1
290
     1
176
     1
290
     1
176
     1
290
     0
176
     1
290
     0
176
     1
290
     0
176
     1
290
     0
176
     1
290
     0
176
     1
290
     0
176
     1
 90
       50
176
     1
 40
0.0
176
     1
 40
1.0
176
     1
 90
        0
176
     1
 62
    18
420
        0
176
     1
 90
       50
176
     1
 90
        3
176
     1
 62
     5
420
      255
176
     1
290
     0
176
     1
 90
       50
176
     1
 90
       50
176
     1
 90
       50
176
     1
290
     0
176
     1
 90
       50
176
     1
 62
   256
176
     0
 40
1.0
176
     0
 90
        2
176
     1
  1
strokes_ogs.tif
176
     1
290
     0
176
     1
 40
1.0
176
     1
 40
1.0
176
     1
  0
VISUALSTYLE
  5
35
102
{ACAD_REACTORS
330
29
102
}
330
29
100
AcDbVisualStyle
  2
Brighten
 70
    12
177
     3
291
     1
 70
    58
 90
        2
176
     1
 90
        2
176
     1
 90
        0
176
     1
 90
        0
176
     1
 40
0.6
176
     1
 40
30.0
176
     1
 62
     7
420
 16777215
176
     1
 90
        1
176
     1
 90
        4
176
     1
 62
     7
176
     1
 62
   257
176
     1
 90
        1
176
     1
 90
        1
176
     1
 40
1.0
176
     1
 90
        8
176
     1
 62
     7
176
     1
 40
1.0
176
     1
 90
        1
176
     1
 90
        6
176
     1
 90
        2
176
     1
 62
     7
176
     1
 90
        5
176
     1
 90
        0
176
     1
 90
        0
176
     1
290
     0
176
     1
 90
        1
176
     1
 40
50.0
176
     1
 90
        0
176
     1
290
     0
176
     1
290
     1
176
     1
290
     1
176
     1
290
     0
176
     1
290
     0
176
     1
290
     0
176
     1
290
     0
176
     1
290
     0
176
     1
290
     0
176
     1
 90
       50
176
     1
 40
0.0
176
     1
 40
1.0
176
     1
 90
        0
176
     1
 62
    18
420
        0
176
     1
 90
       50
176
     1
 90
        3
176
     1
 62
     5
420
      255
176
     1
290
     0
176
     1
 90
       50
176
     1
 90
       50
176
     1
 90
       50
176
     1
290
     0
176
     1
 90
       50
176
     1
 62
   256
176
     0
 40
1.0
176
     0
 90
        2
176
     1
  1
strokes_ogs.tif
176
     1
290
     0
176
     1
 40
1.0
176
     1
 40
1.0
176
     1
  0
VISUALSTYLE
  5
39
102
{ACAD_REACTORS
330
29
102
}
330
29
100
AcDbVisualStyle
  2
ColorChange
 70
    16
177
     3
291
     1
 70
    58
 90
        2
176
     1
 90
        2
176
     1
 90
        3
176
     1
 90
        0
176
     1
 40
0.6
176
     1
 40
30.0
176
     1
 62
     8
420
  8421504
176
     1
 90
        1
176
     1
 90
        4
176
     1
 62
     7
176
     1
 62
   257
176
     1
 90
        1
176
     1
 90
        1
176
     1
 40
1.0
176
     1
 90
        8
176
     1
 62
     8
420
  8421504
176
     1
 40
1.0
176
     1
 90
        1
176
     1
 90
        6
176
     1
 90
        2
176
     1
 62
     7
176
     1
 90
        5
176
     1
 90
        0
176
     1
 90
        0
176
     1
290
     0
176
     1
 90
        1
176
     1
 40
0.0
176
     1
 90
        0
176
     1
290
     0
176
     1
290
     1
176
     1
290
     1
176
     1
290
     0
176
     1
290
     0
176
     1
290
     0
176
     1
290
     0
176
     1
290
     0
176
     1
290
     0
176
     1
 90
       50
176
     1
 40
0.0
176
     1
 40
1.0
176
     1
 90
        0
176
     1
 62
    18
420
        0
176
     1
 90
       50
176
     1
 90
        3
176
     1
 62
     5
420
      255
176
     1
290
     0
176
     1
 90
       50
176
     1
 90
       50
176
     1
 90
       50
176
     1
290
     0
176
     1
 90
       50
176
     1
 62
   256
176
     0
 40
1.0
176
     0
 90
        2
176
     1
  1
strokes_ogs.tif
176
     1
290
     0
176
     1
 40
1.0
176
     1
 40
1.0
176
     1
  0
VISUALSTYLE
  5
32
102
{ACAD_REACTORS
330
29
102
}
330
29
100
AcDbVisualStyle
  2
Conceptual
 70
     9
177
     3
291
     0
 70
    58
 90
        3
176
     1
 90
        2
176
     1
 90
        0
176
     1
 90
        0
176
     1
 40
0.6
176
     1
 40
30.0
176
     1
 62
     7
420
 16777215
176
     1
 90
        2
176
     1
 90
        2
176
     1
 62
     7
176
     1
 62
   257
176
     1
 90
        1
176
     1
 90
        1
176
     1
 40
179.0
176
     1
 90
        8
176
     1
 62
     7
176
     1
 40
1.0
176
     1
 90
        1
176
     1
 90
        6
176
     1
 90
        2
176
     1
 62
     7
176
     1
 90
        3
176
     1
 90
        0
176
     1
 90
        0
176
     1
290
     0
176
     1
 90
        1
176
     1
 40
0.0
176
     1
 90
        0
176
     1
290
     0
176
     1
290
     1
176
     1
290
     1
176
     1
290
     0
176
     1
290
     0
176
     1
290
     0
176
     1
290
     0
176
     1
290
     0
176
     1
290
     0
176
     1
 90
       50
176
     1
 40
0.0
176
     1
 40
1.0
176
     1
 90
        0
176
     1
 62
    18
420
        0
176
     1
 90
       50
176
     1
 90
        3
176
     1
 62
     5
420
      255
176
     1
290
     0
176
     1
 90
       50
176
     1
 90
       50
176
     1
 90
       50
176
     1
290
     0
176
     1
 90
       50
176
     1
 62
   256
176
     0
 40
1.0
176
     0
 90
        2
176
     1
  1
strokes_ogs.tif
176
     1
290
     0
176
     1
 40
1.0
176
     1
 40
1.0
176
     1
  0
VISUALSTYLE
  5
34
102
{ACAD_REACTORS
330
29
102
}
330
29
100
AcDbVisualStyle
  2
Dim
 70
    11
177
     3
291
     1
 70
    58
 90
        2
176
     1
 90
        2
176
     1
 90
        0
176
     1
 90
        0
176
     1
 40
0.6
176
     1
 40
30.0
176
     1
 62
     7
420
 16777215
176
     1
 90
        1
176
     1
 90
        4
176
     1
 62
     7
176
     1
 62
   257
176
     1
 90
        1
176
     1
 90
        1
176
     1
 40
1.0
176
     1
 90
        8
176
     1
 62
     7
176
     1
 40
1.0
176
     1
 90
        1
176
     1
 90
        6
176
     1
 90
        2
176
     1
 62
     7
176
     1
 90
        5
176
     1
 90
        0
176
     1
 90
        0
176
     1
290
     0
176
     1
 90
        1
176
     1
 40
-50.0
176
     1
 90
        0
176
     1
290
     0
176
     1
290
     1
176
     1
290
     1
176
     1
290
     0
176
     1
290
     0
176
     1
290
     0
176
     1
290
     0
176
     1
290
     0
176
     1
290
     0
176
     1
 90
       50
176
     1
 40
0.0
176
     1
 40
1.0
176
     1
 90
        0
176
     1
 62
    18
420
        0
176
     1
 90
       50
176
     1
 90
        3
176
     1
 62
     5
420
      255
176
     1
290
     0
176
     1
 90
       50
176
     1
 90
       50
176
     1
 90
       50
176
     1
290
     0
176
     1
 90
       50
176
     1
 62
   256
176
     0
 40
1.0
176
     0
 90
        2
176
     1
  1
strokes_ogs.tif
176
     1
290
     0
176
     1
 40
1.0
176
     1
 40
1.0
176
     1
  0
VISUALSTYLE
  5
41
102
{ACAD_REACTORS
330
29
102
}
330
29
100
AcDbVisualStyle
  2
EdgeColorOff
 70
    22
177
     3
291
     1
 70
    58
 90
        2
176
     0
 90
        2
176
     0
 90
        0
176
     0
 90
        0
176
     0
 40
0.6
176
     0
 40
30.0
176
     0
 62
     7
420
 16777215
176
     0
 90
        1
176
     0
 90
        4
176
     0
 62
     7
176
     0
 62
   257
176
     0
 90
        1
176
     0
 90
        1
176
     0
 40
1.0
176
     0
 90
        8
176
     2
 62
     7
176
     0
 40
1.0
176
     0
 90
        1
176
     0
 90
        6
176
     0
 90
        2
176
     0
 62
     7
176
     0
 90
        5
176
     0
 90
        0
176
     0
 90
        0
176
     0
290
     0
176
     0
 90
        1
176
     0
 40
0.0
176
     0
 90
        0
176
     0
290
     0
176
     0
290
     1
176
     0
290
     1
176
     0
290
     0
176
     0
290
     0
176
     0
290
     0
176
     0
290
     0
176
     0
290
     0
176
     0
290
     0
176
     0
 90
       50
176
     0
 40
0.0
176
     0
 40
1.0
176
     0
 90
        0
176
     0
 62
    18
420
        0
176
     0
 90
       50
176
     0
 90
        3
176
     0
 62
     5
420
      255
176
     0
290
     0
176
     0
 90
       50
176
     0
 90
       50
176
     0
 90
       50
176
     0
290
     0
176
     0
 90
       50
176
     0
 62
   256
176
     0
 40
1.0
176
     0
 90
        2
176
     0
  1
strokes_ogs.tif
176
     0
290
     0
176
     0
 40
1.0
176
     0
 40
1.0
176
     0
  0
VISUALSTYLE
  5
38
102
{ACAD_REACTORS
330
29
102
}
330
29
100
AcDbVisualStyle
  2
Facepattern
 70
    15
177
     3
291
     1
 70
    58
 90
        2
176
     1
 90
        2
176
     1
 90
        0
176
     1
 90
        0
176
     1
 40
0.6
176
     1
 40
30.0
176
     1
 62
     7
420
 16777215
176
     1
 90
        1
176
     1
 90
        4
176
     1
 62
     7
176
     1
 62
   257
176
     1
 90
        1
176
     1
 90
        1
176
     1
 40
1.0
176
     1
 90
        8
176
     1
 62
     7
176
     1
 40
1.0
176
     1
 90
        1
176
     1
 90
        6
176
     1
 90
        2
176
     1
 62
     7
176
     1
 90
        5
176
     1
 90
        0
176
     1
 90
        0
176
     1
290
     0
176
     1
 90
        1
176
     1
 40
0.0
176
     1
 90
        0
176
     1
290
     0
176
     1
290
     1
176
     1
290
     1
176
     1
290
     0
176
     1
290
     0
176
     1
290
     0
176
     1
290
     0
176
     1
290
     0
176
     1
290
     0
176
     1
 90
       50
176
     1
 40
0.0
176
     1
 40
1.0
176
     1
 90
        0
176
     1
 62
    18
420
        0
176
     1
 90
       50
176
     1
 90
        3
176
     1
 62
     5
420
      255
176
     1
290
     0
176
     1
 90
       50
176
     1
 90
       50
176
     1
 90
       50
176
     1
290
     0
176
     1
 90
       50
176
     1
 62
   256
176
     0
 40
1.0
176
     0
 90
        2
176
     1
  1
strokes_ogs.tif
176
     1
290
     0
176
     1
 40
1.0
176
     1
 40
1.0
176
     1
  0
VISUALSTYLE
  5
2A
102
{ACAD_REACTORS
330
29
102
}
330
29
100
AcDbVisualStyle
  2
Flat
 70
     0
177
     3
291
     1
 70
    58
 90
        2
176
     1
 90
        1
176
     1
 90
        1
176
     1
 90
        2
176
     1
 40
0.6
176
     1
 40
30.0
176
     1
 62
     7
420
 16777215
176
     1
 90
        0
176
     1
 90
        0
176
     1
 62
     7
176
     1
 62
   257
176
     1
 90
        1
176
     1
 90
        1
176
     1
 40
1.0
176
     1
 90
        8
176
     1
 62
     7
176
     1
 40
1.0
176
     1
 90
        1
176
     1
 90
        6
176
     1
 90
        2
176
     1
 62
     7
176
     1
 90
        5
176
     1
 90
        0
176
     1
 90
        0
176
     1
290
     0
176
     1
 90
       13
176
     1
 40
0.0
176
     1
 90
        0
176
     1
290
     0
176
     1
290
     1
176
     1
290
     1
176
     1
290
     0
176
     1
290
     0
176
     1
290
     0
176
     1
290
     0
176
     1
290
     0
176
     1
290
     0
176
     1
 90
       50
176
     1
 40
0.0
176
     1
 40
1.0
176
     1
 90
        0
176
     1
 62
    18
420
        0
176
     1
 90
       50
176
     1
 90
        3
176
     1
 62
     5
420
      255
176
     1
290
     0
176
     1
 90
       50
176
     1
 90
       50
176
     1
 90
       50
176
     1
290
     0
176
     1
 90
       50
176
     1
 62
   256
176
     0
 40
1.0
176
     0
 90
        2
176
     1
  1
strokes_ogs.tif
176
     1
290
     0
176
     1
 40
1.0
176
     1
 40
1.0
176
     1
  0
VISUALSTYLE
  5
2B
102
{ACAD_REACTORS
330
29
102
}
330
29
100
AcDbVisualStyle
  2
FlatWithEdges
 70
     1
177
     3
291
     1
 70
    58
 90
        2
176
     1
 90
        1
176
     1
 90
        1
176
     1
 90
        2
176
     1
 40
0.6
176
     1
 40
30.0
176
     1
 62
     7
420
 16777215
176
     1
 90
        1
176
     1
 90
        0
176
     1
 62
     7
176
     1
 62
   257
176
     1
 90
        1
176
     1
 90
        1
176
     1
 40
1.0
176
     1
 90
        0
176
     1
 62
   257
176
     1
 40
1.0
176
     1
 90
        1
176
     1
 90
        6
176
     1
 90
        2
176
     1
 62
     7
176
     1
 90
        5
176
     1
 90
        0
176
     1
 90
        0
176
     1
290
     0
176
     1
 90
       13
176
     1
 40
0.0
176
     1
 90
        0
176
     1
290
     0
176
     1
290
     1
176
     1
290
     1
176
     1
290
     0
176
     1
290
     0
176
     1
290
     0
176
     1
290
     0
176
     1
290
     0
176
     1
290
     0
176
     1
 90
       50
176
     1
 40
0.0
176
     1
 40
1.0
176
     1
 90
        0
176
     1
 62
    18
420
        0
176
     1
 90
       50
176
     1
 90
        3
176
     1
 62
     5
420
      255
176
     1
290
     0
176
     1
 90
       50
176
     1
 90
       50
176
     1
 90
       50
176
     1
290
     0
176
     1
 90
       50
176
     1
 62
   256
176
     0
 40
1.0
176
     0
 90
        2
176
     1
  1
strokes_ogs.tif
176
     1
290
     0
176
     1
 40
1.0
176
     1
 40
1.0
176
     1
  0
VISUALSTYLE
  5
2C
102
{ACAD_REACTORS
330
29
102
}
330
29
100
AcDbVisualStyle
  2
Gouraud
 70
     2
177
     3
291
     1
 70
    58
 90
        2
176
     1
 90
        2
176
     1
 90
        1
176
     1
 90
        2
176
     1
 40
0.6
176
     1
 40
30.0
176
     1
 62
     7
420
 16777215
176
     1
 90
        0
176
     1
 90
        0
176
     1
 62
     7
176
     1
 62
   257
176
     1
 90
        1
176
     1
 90
        1
176
     1
 40
1.0
176
     1
 90
        0
176
     1
 62
     7
176
     1
 40
1.0
176
     1
 90
        1
176
     1
 90
        6
176
     1
 90
        2
176
     1
 62
     7
176
     1
 90
        5
176
     1
 90
        0
176
     1
 90
        0
176
     1
290
     0
176
     1
 90
       13
176
     1
 40
0.0
176
     1
 90
        0
176
     1
290
     0
176
     1
290
     1
176
     1
290
     1
176
     1
290
     0
176
     1
290
     0
176
     1
290
     0
176
     1
290
     0
176
     1
290
     0
176
     1
290
     0
176
     1
 90
       50
176
     1
 40
0.0
176
     1
 40
1.0
176
     1
 90
        0
176
     1
 62
    18
420
        0
176
     1
 90
       50
176
     1
 90
        3
176
     1
 62
     5
420
      255
176
     1
290
     0
176
     1
 90
       50
176
     1
 90
       50
176
     1
 90
       50
176
     1
290
     0
176
     1
 90
       50
176
     1
 62
   256
176
     0
 40
1.0
176
     0
 90
        2
176
     1
  1
strokes_ogs.tif
176
     1
290
     0
176
     1
 40
1.0
176
     1
 40
1.0
176
     1
  0
VISUALSTYLE
  5
2D
102
{ACAD_REACTORS
330
29
102
}
330
29
100
AcDbVisualStyle
  2
GouraudWithEdges
 70
     3
177
     3
291
     1
 70
    58
 90
        2
176
     1
 90
        2
176
     1
 90
        1
176
     1
 90
        2
176
     1
 40
0.6
176
     1
 40
30.0
176
     1
 62
     7
420
 16777215
176
     1
 90
        1
176
     1
 90
        0
176
     1
 62
     7
176
     1
 62
   257
176
     1
 90
        1
176
     1
 90
        1
176
     1
 40
1.0
176
     1
 90
        0
176
     1
 62
   257
176
     1
 40
1.0
176
     1
 90
        1
176
     1
 90
        6
176
     1
 90
        2
176
     1
 62
     7
176
     1
 90
        5
176
     1
 90
        0
176
     1
 90
        0
176
     1
290
     0
176
     1
 90
       13
176
     1
 40
0.0
176
     1
 90
        0
176
     1
290
     0
176
     1
290
     1
176
     1
290
     1
176
     1
290
     0
176
     1
290
     0
176
     1
290
     0
176
     1
290
     0
176
     1
290
     0
176
     1
290
     0
176
     1
 90
       50
176
     1
 40
0.0
176
     1
 40
1.0
176
     1
 90
        0
176
     1
 62
    18
420
        0
176
     1
 90
       50
176
     1
 90
        3
176
     1
 62
     5
420
      255
176
     1
290
     0
176
     1
 90
       50
176
     1
 90
       50
176
     1
 90
       50
176
     1
290
     0
176
     1
 90
       50
176
     1
 62
   256
176
     0
 40
1.0
176
     0
 90
        2
176
     1
  1
strokes_ogs.tif
176
     1
290
     0
176
     1
 40
1.0
176
     1
 40
1.0
176
     1
  0
VISUALSTYLE
  5
31
102
{ACAD_REACTORS
330
29
102
}
330
29
100
AcDbVisualStyle
  2
Hidden
 70
     6
177
     3
291
     0
 70
    58
 90
        1
176
     1
 90
        2
176
     1
 90
        2
176
     1
 90
        0
176
     1
 40
0.6
176
     1
 40
30.0
176
     1
 62
     7
420
 16777215
176
     1
 90
        2
176
     1
 90
        2
176
     1
 62
     7
176
     1
 62
   257
176
     1
 90
        2
176
     1
 90
        1
176
     1
 40
40.0
176
     1
 90
        0
176
     1
 62
   257
176
     1
 40
1.0
176
     1
 90
        1
176
     1
 90
        6
176
     1
 90
        2
176
     1
 62
     7
176
     1
 90
        3
176
     1
 90
        0
176
     1
 90
        0
176
     1
290
     0
176
     1
 90
        1
176
     1
 40
0.0
176
     1
 90
        0
176
     1
290
     0
176
     1
290
     1
176
     1
290
     1
176
     1
290
     0
176
     1
290
     0
176
     1
290
     0
176
     1
290
     0
176
     1
290
     0
176
     1
290
     0
176
     1
 90
       50
176
     1
 40
0.0
176
     1
 40
1.0
176
     1
 90
        0
176
     1
 62
    18
420
        0
176
     1
 90
       50
176
     1
 90
        3
176
     1
 62
     5
420
      255
176
     1
290
     0
176
     1
 90
       50
176
     1
 90
       50
176
     1
 90
       50
176
     1
290
     0
176
     1
 90
       50
176
     1
 62
   256
176
     0
 40
1.0
176
     0
 90
        2
176
     1
  1
strokes_ogs.tif
176
     1
290
     0
176
     1
 40
1.0
176
     1
 40
1.0
176
     1
  0
VISUALSTYLE
  5
3F
102
{ACAD_REACTORS
330
29
102
}
330
29
100
AcDbVisualStyle
  2
JitterOff
 70
    20
177
     3
291
     1
 70
    58
 90
        2
176
     0
 90
        2
176
     0
 90
        0
176
     0
 90
        0
176
     0
 40
0.6
176
     0
 40
30.0
176
     0
 62
     7
420
 16777215
176
     0
 90
        1
176
     0
 90
        4
176
     0
 62
     7
176
     0
 62
   257
176
     0
 90
        1
176
     0
 90
        1
176
     0
 40
1.0
176
     0
 90
       10
176
     2
 62
     7
176
     0
 40
1.0
176
     0
 90
        1
176
     0
 90
        6
176
     0
 90
        2
176
     0
 62
     7
176
     0
 90
        5
176
     0
 90
        0
176
     0
 90
        0
176
     0
290
     0
176
     0
 90
        1
176
     0
 40
0.0
176
     0
 90
        0
176
     0
290
     0
176
     0
290
     1
176
     0
290
     1
176
     0
290
     0
176
     0
290
     0
176
     0
290
     0
176
     0
290
     0
176
     0
290
     0
176
     0
290
     0
176
     0
 90
       50
176
     0
 40
0.0
176
     0
 40
1.0
176
     0
 90
        0
176
     0
 62
    18
420
        0
176
     0
 90
       50
176
     0
 90
        3
176
     0
 62
     5
420
      255
176
     0
290
     0
176
     0
 90
       50
176
     0
 90
       50
176
     0
 90
       50
176
     0
290
     0
176
     0
 90
       50
176
     0
 62
   256
176
     0
 40
1.0
176
     0
 90
        2
176
     0
  1
strokes_ogs.tif
176
     0
290
     0
176
     0
 40
1.0
176
     0
 40
1.0
176
     0
  0
VISUALSTYLE
  5
37
102
{ACAD_REACTORS
330
29
102
}
330
29
100
AcDbVisualStyle
  2
Linepattern
 70
    14
177
     3
291
     1
 70
    58
 90
        2
176
     1
 90
        2
176
     1
 90
        0
176
     1
 90
        0
176
     1
 40
0.6
176
     1
 40
30.0
176
     1
 62
     7
420
 16777215
176
     1
 90
        1
176
     1
 90
        4
176
     1
 62
     7
176
     1
 62
   257
176
     1
 90
        7
176
     1
 90
        7
176
     1
 40
1.0
176
     1
 90
        8
176
     1
 62
     7
176
     1
 40
1.0
176
     1
 90
        1
176
     1
 90
        6
176
     1
 90
        2
176
     1
 62
     7
176
     1
 90
        5
176
     1
 90
        0
176
     1
 90
        0
176
     1
290
     0
176
     1
 90
        1
176
     1
 40
0.0
176
     1
 90
        0
176
     1
290
     0
176
     1
290
     1
176
     1
290
     1
176
     1
290
     0
176
     1
290
     0
176
     1
290
     0
176
     1
290
     0
176
     1
290
     0
176
     1
290
     0
176
     1
 90
       50
176
     1
 40
0.0
176
     1
 40
1.0
176
     1
 90
        0
176
     1
 62
    18
420
        0
176
     1
 90
       50
176
     1
 90
        3
176
     1
 62
     5
420
      255
176
     1
290
     0
176
     1
 90
       50
176
     1
 90
       50
176
     1
 90
       50
176
     1
290
     0
176
     1
 90
       50
176
     1
 62
   256
176
     0
 40
1.0
176
     0
 90
        2
176
     1
  1
strokes_ogs.tif
176
     1
290
     0
176
     1
 40
1.0
176
     1
 40
1.0
176
     1
  0
VISUALSTYLE
  5
40
102
{ACAD_REACTORS
330
29
102
}
330
29
100
AcDbVisualStyle
  2
OverhangOff
 70
    21
177
     3
291
     1
 70
    58
 90
        2
176
     0
 90
        2
176
     0
 90
        0
176
     0
 90
        0
176
     0
 40
0.6
176
     0
 40
30.0
176
     0
 62
     7
420
 16777215
176
     0
 90
        1
176
     0
 90
        4
176
     0
 62
     7
176
     0
 62
   257
176
     0
 90
        1
176
     0
 90
        1
176
     0
 40
1.0
176
     0
 90
        9
176
     2
 62
     7
176
     0
 40
1.0
176
     0
 90
        1
176
     0
 90
        6
176
     0
 90
        2
176
     0
 62
     7
176
     0
 90
        5
176
     0
 90
        0
176
     0
 90
        0
176
     0
290
     0
176
     0
 90
        1
176
     0
 40
0.0
176
     0
 90
        0
176
     0
290
     0
176
     0
290
     1
176
     0
290
     1
176
     0
290
     0
176
     0
290
     0
176
     0
290
     0
176
     0
290
     0
176
     0
290
     0
176
     0
290
     0
176
     0
 90
       50
176
     0
 40
0.0
176
     0
 40
1.0
176
     0
 90
        0
176
     0
 62
    18
420
        0
176
     0
 90
       50
176
     0
 90
        3
176
     0
 62
     5
420
      255
176
     0
290
     0
176
     0
 90
       50
176
     0
 90
       50
176
     0
 90
       50
176
     0
290
     0
176
     0
 90
       50
176
     0
 62
   256
176
     0
 40
1.0
176
     0
 90
        2
176
     0
  1
strokes_ogs.tif
176
     0
290
     0
176
     0
 40
1.0
176
     0
 40
1.0
176
     0
  0
VISUALSTYLE
  5
33
102
{ACAD_REACTORS
330
29
102
}
330
29
100
AcDbVisualStyle
  2
Realistic
 70
     8
177
     3
291
     0
 70
    58
 90
        2
176
     1
 90
        3
176
     1
 90
        0
176
     1
 90
        2
176
     1
 40
0.6
176
     1
 40
30.0
176
     1
 62
     7
420
 16777215
176
     1
 90
        0
176
     1
 90
        0
176
     1
 62
     7
176
     1
 62
   257
176
     1
 90
        1
176
     1
 90
        1
176
     1
 40
1.0
176
     1
 90
        8
176
     1
 62
   257
176
     1
 40
1.0
176
     1
 90
        1
176
     1
 90
        6
176
     1
 90
        2
176
     1
 62
     7
176
     1
 90
        3
176
     1
 90
        0
176
     1
 90
        0
176
     1
290
     0
176
     1
 90
       13
176
     1
 40
0.0
176
     1
 90
        0
176
     1
290
     0
176
     1
290
     1
176
     1
290
     1
176
     1
290
     0
176
     1
290
     0
176
     1
290
     0
176
     1
290
     0
176
     1
290
     0
176
     1
290
     0
176
     1
 90
       50
176
     1
 40
0.0
176
     1
 40
1.0
176
     1
 90
        0
176
     1
 62
    18
420
        0
176
     1
 90
       50
176
     1
 90
        3
176
     1
 62
     5
420
      255
176
     1
290
     0
176
     1
 90
       50
176
     1
 90
       50
176
     1
 90
       50
176
     1
290
     0
176
     1
 90
       50
176
     1
 62
   256
176
     0
 40
1.0
176
     0
 90
        2
176
     1
  1
strokes_ogs.tif
176
     1
290
     0
176
     1
 40
1.0
176
     1
 40
1.0
176
     1
  0
VISUALSTYLE
  5
3E
102
{ACAD_REACTORS
330
29
102
}
330
29
100
AcDbVisualStyle
  2
Shaded
 70
    27
177
     3
291
     0
 70
    58
 90
        2
176
     1
 90
        2
176
     1
 90
        1
176
     1
 90
        2
176
     1
 40
0.6
176
     1
 40
30.0
176
     1
 62
     7
420
 16777215
176
     1
 90
        0
176
     1
 90
        4
176
     1
 62
     7
176
     1
 62
   257
176
     1
 90
        1
176
     1
 90
        1
176
     1
 40
1.0
176
     1
 90
        8
176
     1
 62
   257
176
     1
 40
1.0
176
     1
 90
        1
176
     1
 90
        6
176
     1
 90
        2
176
     1
 62
     8
420
  7895160
176
     1
 90
        3
176
     1
 90
        0
176
     1
 90
        0
176
     1
290
     0
176
     1
 90
        5
176
     1
 40
0.0
176
     1
 90
        0
176
     1
290
     0
176
     1
290
     1
176
     1
290
     1
176
     1
290
     0
176
     1
290
     0
176
     1
290
     0
176
     1
290
     0
176
     1
290
     0
176
     1
290
     0
176
     1
 90
       50
176
     1
 40
0.0
176
     1
 40
1.0
176
     1
 90
        0
176
     1
 62
    18
420
        0
176
     1
 90
       50
176
     1
 90
        3
176
     1
 62
     5
420
      255
176
     1
290
     0
176
     1
 90
       50
176
     1
 90
       50
176
     1
 90
       50
176
     1
290
     0
176
     1
 90
       50
176
     1
 62
   256
176
     0
 40
1.0
176
     0
 90
        2
176
     1
  1
strokes_ogs.tif
176
     1
290
     0
176
     1
 40
1.0
176
     1
 40
1.0
176
     1
  0
VISUALSTYLE
  5
3D
102
{ACAD_REACTORS
330
29
102
}
330
29
100
AcDbVisualStyle
  2
Shaded with edges
 70
    26
177
     3
291
     0
 70
    58
 90
        2
176
     1
 90
        2
176
     1
 90
        1
176
     1
 90
        2
176
     1
 40
0.6
176
     1
 40
30.0
176
     1
 62
     7
420
 16777215
176
     1
 90
        1
176
     1
 90
       10
176
     1
 62
     7
176
     1
 62
   257
176
     1
 90
        2
176
     1
 90
        1
176
     1
 40
1.0
176
     1
 90
        8
176
     1
 62
   257
176
     1
 40
1.0
176
     1
 90
        1
176
     1
 90
        6
176
     1
 90
        2
176
     1
 62
     7
176
     1
 90
        3
176
     1
 90
        0
176
     1
 90
        0
176
     1
290
     0
176
     1
 90
        5
176
     1
 40
0.0
176
     1
 90
        0
176
     1
290
     0
176
     1
290
     1
176
     1
290
     1
176
     1
290
     0
176
     1
290
     0
176
     1
290
     0
176
     1
290
     0
176
     1
290
     0
176
     1
290
     0
176
     1
 90
       50
176
     1
 40
0.0
176
     1
 40
1.0
176
     1
 90
        0
176
     1
 62
    18
420
        0
176
     1
 90
       50
176
     1
 90
        3
176
     1
 62
     5
420
      255
176
     1
290
     0
176
     1
 90
       50
176
     1
 90
       50
176
     1
 90
       50
176
     1
290
     0
176
     1
 90
       50
176
     1
 62
   256
176
     0
 40
1.0
176
     0
 90
        2
176
     1
  1
strokes_ogs.tif
176
     1
290
     0
176
     1
 40
1.0
176
     1
 40
1.0
176
     1
  0
VISUALSTYLE
  5
3A
102
{ACAD_REACTORS
330
29
102
}
330
29
100
AcDbVisualStyle
  2
Shades of Gray
 70
    23
177
     3
291
     0
 70
    58
 90
        2
176
     1
 90
        2
176
     1
 90
        3
176
     1
 90
        0
176
     1
 40
0.6
176
     1
 40
30.0
176
     1
 62
     7
420
 16777215
176
     1
 90
        2
176
     1
 90
        2
176
     1
 62
     7
176
     1
 62
     7
176
     1
 90
        1
176
     1
 90
        1
176
     1
 40
40.0
176
     1
 90
        8
176
     1
 62
     7
176
     1
 40
1.0
176
     1
 90
        1
176
     1
 90
        6
176
     1
 90
        2
176
     1
 62
     7
176
     1
 90
        3
176
     1
 90
        0
176
     1
 90
        0
176
     1
290
     0
176
     1
 90
        1
176
     1
 40
0.0
176
     1
 90
        0
176
     1
290
     0
176
     1
290
     1
176
     1
290
     1
176
     1
290
     0
176
     1
290
     0
176
     1
290
     0
176
     1
290
     0
176
     1
290
     0
176
     1
290
     0
176
     1
 90
       50
176
     1
 40
0.0
176
     1
 40
1.0
176
     1
 90
        0
176
     1
 62
    18
420
        0
176
     1
 90
       50
176
     1
 90
        3
176
     1
 62
     5
420
      255
176
     1
290
     0
176
     1
 90
       50
176
     1
 90
       50
176
     1
 90
       50
176
     1
290
     0
176
     1
 90
       50
176
     1
 62
   256
176
     0
 40
1.0
176
     0
 90
        2
176
     1
  1
strokes_ogs.tif
176
     1
290
     0
176
     1
 40
1.0
176
     1
 40
1.0
176
     1
  0
VISUALSTYLE
  5
3B
102
{ACAD_REACTORS
330
29
102
}
330
29
100
AcDbVisualStyle
  2
Sketchy
 70
    24
177
     3
291
     0
 70
    58
 90
        1
176
     1
 90
        2
176
     1
 90
        2
176
     1
 90
        0
176
     1
 40
0.6
176
     1
 40
30.0
176
     1
 62
     7
420
 16777215
176
     1
 90
        2
176
     1
 90
        2
176
     1
 62
     7
176
     1
 62
     7
176
     1
 90
        1
176
     1
 90
        1
176
     1
 40
40.0
176
     1
 90
       11
176
     1
 62
     7
176
     1
 40
1.0
176
     1
 90
        1
176
     1
 90
        6
176
     1
 90
        2
176
     1
 62
     7
176
     1
 90
        6
176
     1
 90
        0
176
     1
 90
        0
176
     1
290
     0
176
     1
 90
        1
176
     1
 40
0.0
176
     1
 90
        0
176
     1
290
     0
176
     1
290
     1
176
     1
290
     1
176
     1
290
     0
176
     1
290
     0
176
     1
290
     0
176
     1
290
     0
176
     1
290
     0
176
     1
290
     0
176
     1
 90
       50
176
     1
 40
0.0
176
     1
 40
1.0
176
     1
 90
        0
176
     1
 62
    18
420
        0
176
     1
 90
       50
176
     1
 90
        3
176
     1
 62
     5
420
      255
176
     1
290
     0
176
     1
 90
       50
176
     1
 90
       50
176
     1
 90
       50
176
     1
290
     0
176
     1
 90
       50
176
     1
 62
   256
176
     0
 40
1.0
176
     0
 90
        2
176
     1
  1
strokes_ogs.tif
176
     1
290
     0
176
     1
 40
1.0
176
     1
 40
1.0
176
     1
  0
VISUALSTYLE
  5
36
102
{ACAD_REACTORS
330
29
102
}
330
29
100
AcDbVisualStyle
  2
Thicken
 70
    13
177
     3
291
     1
 70
    58
 90
        2
176
     1
 90
        2
176
     1
 90
        0
176
     1
 90
        0
176
     1
 40
0.6
176
     1
 40
30.0
176
     1
 62
     7
420
 16777215
176
     1
 90
        1
176
     1
 90
        4
176
     1
 62
     7
176
     1
 62
   257
176
     1
 90
        1
176
     1
 90
        1
176
     1
 40
1.0
176
     1
 90
       12
176
     1
 62
     7
176
     1
 40
1.0
176
     1
 90
        1
176
     1
 90
        6
176
     1
 90
        2
176
     1
 62
     7
176
     1
 90
        5
176
     1
 90
        0
176
     1
 90
        0
176
     1
290
     0
176
     1
 90
        1
176
     1
 40
0.0
176
     1
 90
        0
176
     1
290
     0
176
     1
290
     1
176
     1
290
     1
176
     1
290
     0
176
     1
290
     0
176
     1
290
     0
176
     1
290
     0
176
     1
290
     0
176
     1
290
     0
176
     1
 90
       50
176
     1
 40
0.0
176
     1
 40
1.0
176
     1
 90
        0
176
     1
 62
    18
420
        0
176
     1
 90
       50
176
     1
 90
        3
176
     1
 62
     5
420
      255
176
     1
290
     0
176
     1
 90
       50
176
     1
 90
       50
176
     1
 90
       50
176
     1
290
     0
176
     1
 90
       50
176
     1
 62
   256
176
     0
 40
1.0
176
     0
 90
        2
176
     1
  1
strokes_ogs.tif
176
     1
290
     0
176
     1
 40
1.0
176
     1
 40
1.0
176
     1
  0
VISUALSTYLE
  5
30
102
{ACAD_REACTORS
330
29
102
}
330
29
100
AcDbVisualStyle
  2
Wireframe
 70
     5
177
     3
291
     0
 70
    58
 90
        0
176
     1
 90
        2
176
     1
 90
        0
176
     1
 90
        0
176
     1
 40
0.6
176
     1
 40
30.0
176
     1
 62
     7
420
 16777215
176
     1
 90
        1
176
     1
 90
        4
176
     1
 62
     7
176
     1
 62
   257
176
     1
 90
        1
176
     1
 90
        1
176
     1
 40
1.0
176
     1
 90
        0
176
     1
 62
   257
176
     1
 40
1.0
176
     1
 90
        1
176
     1
 90
        6
176
     1
 90
        2
176
     1
 62
     7
176
     1
 90
        3
176
     1
 90
        0
176
     1
 90
        0
176
     1
290
     0
176
     1
 90
        1
176
     1
 40
0.0
176
     1
 90
        0
176
     1
290
     0
176
     1
290
     1
176
     1
290
     1
176
     1
290
     0
176
     1
290
     0
176
     1
290
     0
176
     1
290
     0
176
     1
290
     0
176
     1
290
     0
176
     1
 90
       50
176
     1
 40
0.0
176
     1
 40
1.0
176
     1
 90
        0
176
     1
 62
    18
420
        0
176
     1
 90
       50
176
     1
 90
        3
176
     1
 62
     5
420
      255
176
     1
290
     0
176
     1
 90
       50
176
     1
 90
       50
176
     1
 90
       50
176
     1
290
     0
176
     1
 90
       50
176
     1
 62
   256
176
     0
 40
1.0
176
     0
 90
        2
176
     1
  1
strokes_ogs.tif
176
     1
290
     0
176
     1
 40
1.0
176
     1
 40
1.0
176
     1
  0
VISUALSTYLE
  5
3C
102
{ACAD_REACTORS
330
29
102
}
330
29
100
AcDbVisualStyle
  2
X-Ray
 70
    25
177
     3
291
     0
 70
    58
 90
        2
176
     1
 90
        2
176
     1
 90
        1
176
     1
 90
        1
176
     1
 40
0.5
176
     1
 40
30.0
176
     1
 62
     7
420
 16777215
176
     1
 90
        1
176
     1
 90
        0
176
     1
 62
     7
176
     1
 62
   257
176
     1
 90
        1
176
     1
 90
        1
176
     1
 40
1.0
176
     1
 90
        8
176
     1
 62
     7
176
     1
 40
1.0
176
     1
 90
        1
176
     1
 90
        6
176
     1
 90
        2
176
     1
 62
     7
176
     1
 90
        3
176
     1
 90
        0
176
     1
 90
        0
176
     1
290
     0
176
     1
 90
       13
176
     1
 40
0.0
176
     1
 90
        0
176
     1
290
     0
176
     1
290
     1
176
     1
290
     1
176
     1
290
     0
176
     1
290
     0
176
     1
290
     0
176
     1
290
     0
176
     1
290
     0
176
     1
290
     0
176
     1
 90
       50
176
     1
 40
0.0
176
     1
 40
1.0
176
     1
 90
        0
176
     1
 62
    18
420
        0
176
     1
 90
       50
176
     1
 90
        3
176
     1
 62
     5
420
      255
176
     1
290
     0
176
     1
 90
       50
176
     1
 90
       50
176
     1
 90
       50
176
     1
290
     0
176
     1
 90
       50
176
     1
 62
   256
176
     0
 40
1.0
176
     0
 90
        2
176
     1
  1
strokes_ogs.tif
176
     1
290
     0
176
     1
 40
1.0
176
     1
 40
1.0
176
     1
  0
DICTIONARYVAR
  5
553
102
{ACAD_REACTORS
330
54E
102
}
330
54E
100
DictionaryVariables
280
     0
  1
1:1
  0
DICTIONARYVAR
  5
550
102
{ACAD_REACTORS
330
54E
102
}
330
54E
100
DictionaryVariables
280
     0
  1
STANDARD
  0
DICTIONARYVAR
  5
54F
102
{ACAD_REACTORS
330
54E
102
}
330
54E
100
DictionaryVariables
280
     0
  1
STANDARD
  0
DICTIONARYVAR
  5
551
102
{ACAD_REACTORS
330
54E
102
}
330
54E
100
DictionaryVariables
280
     0
  1
Imperial24
  0
DICTIONARYVAR
  5
552
102
{ACAD_REACTORS
330
54E
102
}
330
54E
100
DictionaryVariables
280
     0
  1
Imperial24
  0
DICTIONARY
  5
559
330
6A
100
AcDbDictionary
280
     1
281
     1
  3
ACAD_XREC_ROUNDTRIP
360
55A
  0
DICTIONARY
  5
1A
330
19
100
AcDbDictionary
280
     1
281
     1
  3
BUMPTILE
360
1C
  3
DIFFUSETILE
360
1B
  3
OPACITYTILE
360
1F
  3
REFLECTIONTILE
360
1E
  3
REFRACTIONTILE
360
20
  3
SPECULARTILE
360
1D
  0
DICTIONARY
  5
12
330
11
100
AcDbDictionary
280
     1
281
     1
  3
BUMPTILE
360
14
  3
DIFFUSETILE
360
13
  3
OPACITYTILE
360
17
  3
REFLECTIONTILE
360
16
  3
REFRACTIONTILE
360
18
  3
SPECULARTILE
360
15
  0
DICTIONARY
  5
22
330
21
100
AcDbDictionary
280
     1
281
     1
  3
BUMPTILE
360
24
  3
DIFFUSETILE
360
23
  3
OPACITYTILE
360
27
  3
REFLECTIONTILE
360
26
  3
REFRACTIONTILE
360
28
  3
SPECULARTILE
360
25
  0
DICTIONARY
  5
557
330
68
100
AcDbDictionary
280
     1
281
     1
  3
ACAD_XREC_ROUNDTRIP
360
558
  0
DICTIONARY
  5
555
330
64
100
AcDbDictionary
280
     1
281
     1
  3
ACAD_ROUNDTRIP_2008_TABLESTYLE_CELLSTYLEMAP
360
556
  0
XRECORD
  5
55A
102
{ACAD_REACTORS
330
559
102
}
330
559
100
AcDbXrecord
280
     1
102
DISPLAYNAME
  1
Imperial24
102
FLAGS
 90
        0
  0
XRECORD
  5
1C
102
{ACAD_REACTORS
330
1A
102
}
330
1A
100
AcDbXrecord
280
     1
270
     1
271
     1
  0
XRECORD
  5
1B
102
{ACAD_REACTORS
330
1A
102
}
330
1A
100
AcDbXrecord
280
     1
270
     1
271
     1
  0
XRECORD
  5
1F
102
{ACAD_REACTORS
330
1A
102
}
330
1A
100
AcDbXrecord
280
     1
270
     1
271
     1
  0
XRECORD
  5
1E
102
{ACAD_REACTORS
330
1A
102
}
330
1A
100
AcDbXrecord
280
     1
270
     1
271
     1
  0
XRECORD
  5
20
102
{ACAD_REACTORS
330
1A
102
}
330
1A
100
AcDbXrecord
280
     1
270
     1
271
     1
  0
XRECORD
  5
1D
102
{ACAD_REACTORS
330
1A
102
}
330
1A
100
AcDbXrecord
280
     1
270
     1
271
     1
  0
XRECORD
  5
14
102
{ACAD_REACTORS
330
12
102
}
330
12
100
AcDbXrecord
280
     1
270
     1
271
     1
  0
XRECORD
  5
13
102
{ACAD_REACTORS
330
12
102
}
330
12
100
AcDbXrecord
280
     1
270
     1
271
     1
  0
XRECORD
  5
17
102
{ACAD_REACTORS
330
12
102
}
330
12
100
AcDbXrecord
280
     1
270
     1
271
     1
  0
XRECORD
  5
16
102
{ACAD_REACTORS
330
12
102
}
330
12
100
AcDbXrecord
280
     1
270
     1
271
     1
  0
XRECORD
  5
18
102
{ACAD_REACTORS
330
12
102
}
330
12
100
AcDbXrecord
280
     1
270
     1
271
     1
  0
XRECORD
  5
15
102
{ACAD_REACTORS
330
12
102
}
330
12
100
AcDbXrecord
280
     1
270
     1
271
     1
  0
XRECORD
  5
24
102
{ACAD_REACTORS
330
22
102
}
330
22
100
AcDbXrecord
280
     1
270
     1
271
     1
  0
XRECORD
  5
23
102
{ACAD_REACTORS
330
22
102
}
330
22
100
AcDbXrecord
280
     1
270
     1
271
     1
  0
XRECORD
  5
27
102
{ACAD_REACTORS
330
22
102
}
330
22
100
AcDbXrecord
280
     1
270
     1
271
     1
  0
XRECORD
  5
26
102
{ACAD_REACTORS
330
22
102
}
330
22
100
AcDbXrecord
280
     1
270
     1
271
     1
  0
XRECORD
  5
28
102
{ACAD_REACTORS
330
22
102
}
330
22
100
AcDbXrecord
280
     1
270
     1
271
     1
  0
XRECORD
  5
25
102
{ACAD_REACTORS
330
22
102
}
330
22
100
AcDbXrecord
280
     1
270
     1
271
     1
  0
XRECORD
  5
558
102
{ACAD_REACTORS
330
557
102
}
330
557
100
AcDbXrecord
280
     1
102
DISPLAYNAME
  1
Imperial24
102
FLAGS
 90
        0
  0
CELLSTYLEMAP
  5
556
102
{ACAD_REACTORS
330
555
102
}
330
555
100
AcDbCellStyleMap
 90
        3
300
CELLSTYLE
  1
TABLEFORMAT_BEGIN
 90
        5
170
     1
 91
        0
 92
    32768
 62
   257
 93
        1
300
CONTENTFORMAT
  1
CONTENTFORMAT_BEGIN
 90
        0
 91
        0
 92
      512
 93
        0
300

 40
0.0
140
1.0
 94
        5
 62
     0
340
55
144
0.25
309
CONTENTFORMAT_END
171
     0
 94
        0
309
TABLEFORMAT_END
  1
CELLSTYLE_BEGIN
 90
        1
 91
        1
300
_TITLE
309
CELLSTYLE_END
300
CELLSTYLE
  1
TABLEFORMAT_BEGIN
 90
        5
170
     1
 91
        0
 92
        0
 62
   257
 93
        1
300
CONTENTFORMAT
  1
CONTENTFORMAT_BEGIN
 90
        0
 91
        0
 92
      512
 93
        0
300

 40
0.0
140
1.0
 94
        5
 62
     0
340
55
144
0.18
309
CONTENTFORMAT_END
171
     0
 94
        0
309
TABLEFORMAT_END
  1
CELLSTYLE_BEGIN
 90
        2
 91
        1
300
_HEADER
309
CELLSTYLE_END
300
CELLSTYLE
  1
TABLEFORMAT_BEGIN
 90
        5
170
     1
 91
        0
 92
        0
 62
   257
 93
        1
300
CONTENTFORMAT
  1
CONTENTFORMAT_BEGIN
 90
        0
 91
        0
 92
      512
 93
        0
300

 40
0.0
140
1.0
 94
        2
 62
     0
340
55
144
0.18
309
CONTENTFORMAT_END
171
     0
 94
        0
309
TABLEFORMAT_END
  1
CELLSTYLE_BEGIN
 90
        3
 91
        2
300
_DATA
309
CELLSTYLE_END
  0
ENDSEC
  0
SECTION
  2
ACDSDATA
 70
     2
 71
     6
  0
ACDSSCHEMA
 90
        0
  1
AcDb_Thumbnail_Schema
  2
AcDbDs::ID
280
    10
 91
        8
  2
Thumbnail_Data
280
    15
 91
        0
101
ACDSRECORD
 95
        0
 90
        1
  2
AcDbDs::TreatedAsObjectData
280
     1
291
     1
101
ACDSRECORD
 95
        0
 90
        2
  2
AcDbDs::Legacy
280
     1
291
     1
101
ACDSRECORD
  1
AcDbDs::ID
 90
        3
  2
AcDs:Indexable
280
     1
291
     1
101
ACDSRECORD
  1
AcDbDs::ID
 90
        4
  2
AcDbDs::HandleAttribute
280
     7
282
     1
  0
ACDSSCHEMA
 90
        1
  1
AcDbDs::TreatedAsObjectDataSchema
  2
AcDbDs::TreatedAsObjectData
280
     1
 91
        0
  0
ACDSSCHEMA
 90
        2
  1
AcDbDs::LegacySchema
  2
AcDbDs::Legacy
280
     1
 91
        0
  0
ACDSSCHEMA
 90
        3
  1
AcDbDs::IndexedPropertySchema
  2
AcDs:Indexable
280
     1
 91
        0
  0
ACDSSCHEMA
 90
        4
  1
AcDbDs::HandleAttributeSchema
  2
AcDbDs::HandleAttribute
280
     7
 91
        1
284
     1
  0
ACDSRECORD
 90
        0
  2
AcDbDs::ID
280
    10
320
72
  2
Thumbnail_Data
280
    15
 94
     2382
310
89504E470D0A1A0A0000000D49484452000001000000009B0803000000BA7AB56000000300504C54455B5B5B000000C8C8C80000000000000000000000000000000000000000000000000000330000660000990000CC0000FF0033000033330033660033990033CC0033FF0066000066330066660066990066CC0066FF0099
310
000099330099660099990099CC0099FF00CC0000CC3300CC6600CC9900CCCC00CCFF00FF0000FF3300FF6600FF9900FFCC00FFFF3300003300333300663300993300CC3300FF3333003333333333663333993333CC3333FF3366003366333366663366993366CC3366FF3399003399333399663399993399CC3399FF33CC00
310
33CC3333CC6633CC9933CCCC33CCFF33FF0033FF3333FF6633FF9933FFCC33FFFF6600006600336600666600996600CC6600FF6633006633336633666633996633CC6633FF6666006666336666666666996666CC6666FF6699006699336699666699996699CC6699FF66CC0066CC3366CC6666CC9966CCCC66CCFF66FF0066
310
FF3366FF6666FF9966FFCC66FFFF9900009900339900669900999900CC9900FF9933009933339933669933999933CC9933FF9966009966339966669966999966CC9966FF9999009999339999669999999999CC9999FF99CC0099CC3399CC6699CC9999CCCC99CCFF99FF0099FF3399FF6699FF9999FFCC99FFFFCC0000CC00
310
33CC0066CC0099CC00CCCC00FFCC3300CC3333CC3366CC3399CC33CCCC33FFCC6600CC6633CC6666CC6699CC66CCCC66FFCC9900CC9933CC9966CC9999CC99CCCC99FFCCCC00CCCC33CCCC66CCCC99CCCCCCCCCCFFCCFF00CCFF33CCFF66CCFF99CCFFCCCCFFFFFF0000FF0033FF0066FF0099FF00CCFF00FFFF3300FF3333
310
FF3366FF3399FF33CCFF33FFFF6600FF6633FF6666FF6699FF66CCFF66FFFF9900FF9933FF9966FF9999FF99CCFF99FFFFCC00FFCC33FFCC66FFCC99FFCCCCFFCCFFFFFF00FFFF33FFFF66FFFF99FFFFCCFFFFFF0000000D0D0D1A1A1A2828283535354343435050505D5D5D6B6B6B787878868686939393A1A1A1AEAEAEBB
310
BBBBC9C9C9D6D6D6E4E4E4F1F1F1FFFFFF00000000000000000000000000000000000000000000000000000000000054549EDE000006094944415478DAED5D5992232B0CE438FAC9FBFFE9243ECC3CD702921054B9DB1D0F153013BDD8E58ECA44BB849DD22F16519A7AD1F67F6E0216FE857FE19F958C25000BFFC23F312D
310
347968482B3A5E09C2B2904B0816058B82494DC1DAD9B596C4ACB5D65AB39A825FC0784664F42B100FA0E0B708C25340939B826FDC7D6821F8CEBDC7A58086FB434109A0A00C2C0158F8E78E89E9FB7F86261780D9F187226076FC69E1FF4B02687A05183F3BF8CE1D7614600A0AFA06605C0AE85B777865010398029A1BFF
310
DF84C3537A455AF8C31000668E14697CFFB6901233FEFA76C7C59FB0AF47E2FB8400709A6F6DFB86CC004F4EC0DB163C57DBDD5B7D8346E6E0FD104FE5BA69837E78C383022D04DFCF11878D56F0FEF7130A9ED207DCB4E1733D88DC0926891EBB3938F4816F827C4823BCC441391CE23B40E929A310220E842B022E58A2DA
310
69466D03883878FFD10B0BF717B058B1E361454095213A0CD086BE2BFC2105A099055906A4C47F827F70563A7920DB5FF3950FC22F42C10B063821FB0BFA00E9A00470C7003408C0796983B16002D04CFB5EFE45BB0074288BA60007B6D7CBE27FF90C30CACEE30906A04D802B282C718727807A04B83C31A4EEBB0470300F
310
70A7F493E39EE201D03482C40FC45F2EC681BB43405D4FA340F855642F77FE3FB47C460B388980134B50153E07C0FFCA369FB3B6F3F6F49B03DE2D1FDBB201DCDC616388857484508082FF788C8BE4EFDF4039FCD9C18B7840C452452C4E0A6219003E13DDEA094AC5009CE25FE3BFF211E3B94083B4D915626BF75113A003
310
648C4F00DBC22F37FBC34CB95A5A0880934D89871140000C5E6EEE1B9F904E7C70AFCC1EF2AE87FD9FEB206C13DD16014C62DB15CA160BC66D8C5A08623FE06909004E3B2F14016E6961BB9687C79FF8752B2864BDD9D2193454667003E812D0C64F36FDBF1080008B4AFC2342A0D6425D00C14308D862E09D02EEE0372520
310
D13F0A4A0029CFDF686EB8F8A1373D3E01371694CF83D33EAAD2A1D153804FF1A7A61134D6FE2C943C8900A4E41581D10E80C627E013BD45F5B5EDE9A5580CDD3087B55DF80901158F02FFD8F302B6ABE354B62A77EFF3D410098CDE05553BA8329BCFF05B21C8570721601F8EEE29015D11602838281DBF0D2C7EE29E1960
310
8DFC46DAB3F9C1400424C63501A515825B4E656CFC67D9CA75DD7516BCE386C989FA14041884C8313CBA7D4EAEDC1B6E08558C5190320F9913BB6B023A0CA86768781300A10DDA1F76F1F77420525A28EBD665F72D04721C448F8040B93014229C00343A2AB360B8CC22802842008780AC0896803C348E4B02E2A8026009C8
310
550E75668CF651080B1AD7D1E0F0F560B947E5988CACF4EF76DC0D917C2310AC2A06582EB4FE430B80F602970450200A508C0234CCF730700E16F23890519F1FD55746328652EE3501C480AA7C4B4389E81A208A204504B4A0338C6F2F3C3904446D8D88541F7E8688CAFFB99361082902CAE66B02C0F04C1EEA28E2B2A014
310
201FD47DDEE3E434DCBD85D71743683F085D1ECED6DE0FF1D5C1522475BA0C615CA009553542C7A8A12E0600EA709918968A1103D44A5CF5BDFCA7B569942FC2F8BD306DFDE14D77D5BD7F992FA12642BC686F1A532013E00C38A2B5EBD044E81282782ED04939A44B5F8EA40F514BC140756406402C57807B0458A5C9CD6F
310
5B4B460AF70E0BD612F69402498842F9862A830E190AB7F25C14C4CD8A001018FF1501C9CFFF94B2CB38302001307B586B052ADDD0FE325A1458DB3D88C66F151FC02320C19440C30A803AFC24129D3A02AA7C03ACAF8C4B80906AAF02889A1343001059009279DFA0EA1754D9A3B6153146E22E04C04DFA609BE822E237A1
310
21AA13A7211D615D2A77B2629B366E6404C6EF47378D0A97B2868288D7EBF5140A3C47DF8895A588BCE7EDD38316D21D02542500E9690B5D255195C35865805F11A07263E02BEF3E1A91808B71E1C71270F1B629CFC72FFA0033E0AF8A81F248F004225046A79407388E8CCE210336059031628C7786F84A54582583FA799A
310
4B004C129026F894802A2BD4D4D01CB6004625721E30C1A744E4AA61E9099661A9193E2503B08DF03228340901C629A09B313FD6087AF9D01C1F1303371F9A07FFF404B48F06CC8C3FF8FA074C49B2E83985EDDD0000000049454E44AE426082
  0
ENDSEC
  0
EOF
