  0
SECTION
  2
HEADER
  9
$ACADVER
  1
AC1027
  9
$ACADMAINTVER
 70
    55
  9
$DWGCODEPAGE
  3
ANSI_1252
  9
$LASTSAVEDBY
  1
crinne
  9
$REQUIREDVERSIONS
160
                 0
  9
$INSBASE
 10
0.0
 20
0.0
 30
0.0
  9
$EXTMIN
 10
-504.4481796518599
 20
-1463.787361842866
 30
0.0
  9
$EXTMAX
 10
-425.1630971550683
 20
-1134.050811189969
 30
0.0
  9
$LIMMIN
 10
-2600.0
 20
-2600.0
  9
$LIMMAX
 10
2000.0
 20
200.0
  9
$ORTHOMODE
 70
     0
  9
$REGENMODE
 70
     1
  9
$FILLMODE
 70
     1
  9
$QTEXTMODE
 70
     0
  9
$MIRRTEXT
 70
     1
  9
$LTSCALE
 40
25.0
  9
$ATTMODE
 70
     1
  9
$TEXTSIZE
 40
3.5
  9
$TRACEWID
 40
1.0
  9
$TEXTSTYLE
  7
STANDARD
  9
$CLAYER
  8
GRABUNGSGRENZE
  9
$CELTYPE
  6
ByLayer
  9
$CECOLOR
 62
   256
  9
$CELTSCALE
 40
1.0
  9
$DISPSILH
 70
     0
  9
$DIMSCALE
 40
1.0
  9
$DIMASZ
 40
3.5
  9
$DIMEXO
 40
0.1
  9
$DIMDLI
 40
7.0
  9
$DIMRND
 40
0.0
  9
$DIMDLE
 40
0.0
  9
$DIMEXE
 40
1.8
  9
$DIMTP
 40
0.0
  9
$DIMTM
 40
0.0
  9
$DIMTXT
 40
3.5
  9
$DIMCEN
 40
1.5
  9
$DIMTSZ
 40
0.0
  9
$DIMTOL
 70
     0
  9
$DIMLIM
 70
     0
  9
$DIMTIH
 70
     0
  9
$DIMTOH
 70
     0
  9
$DIMSE1
 70
     0
  9
$DIMSE2
 70
     0
  9
$DIMTAD
 70
     0
  9
$DIMZIN
 70
     0
  9
$DIMBLK
  1

  9
$DIMASO
 70
     1
  9
$DIMSHO
 70
     0
  9
$DIMPOST
  1

  9
$DIMAPOST
  1

  9
$DIMALT
 70
     0
  9
$DIMALTD
 70
     2
  9
$DIMALTF
 40
25.4
  9
$DIMLFAC
 40
1.0
  9
$DIMTOFL
 70
     0
  9
$DIMTVP
 40
0.0
  9
$DIMTIX
 70
     0
  9
$DIMSOXD
 70
     0
  9
$DIMSAH
 70
     0
  9
$DIMBLK1
  1

  9
$DIMBLK2
  1

  9
$DIMSTYLE
  2
Standard
  9
$DIMCLRD
 70
     0
  9
$DIMCLRE
 70
     0
  9
$DIMCLRT
 70
     0
  9
$DIMTFAC
 40
1.0
  9
$DIMGAP
 40
0.09
  9
$DIMJUST
 70
     0
  9
$DIMSD1
 70
     0
  9
$DIMSD2
 70
     0
  9
$DIMTOLJ
 70
     1
  9
$DIMTZIN
 70
     0
  9
$DIMALTZ
 70
     0
  9
$DIMALTTZ
 70
     0
  9
$DIMUPT
 70
     0
  9
$DIMDEC
 70
     2
  9
$DIMTDEC
 70
     2
  9
$DIMALTU
 70
     2
  9
$DIMALTTD
 70
     2
  9
$DIMTXSTY
  7
STANDARD
  9
$DIMAUNIT
 70
     0
  9
$DIMADEC
 70
     0
  9
$DIMALTRND
 40
0.0
  9
$DIMAZIN
 70
     0
  9
$DIMDSEP
 70
    46
  9
$DIMATFIT
 70
     3
  9
$DIMFRAC
 70
     0
  9
$DIMLDRBLK
  1

  9
$DIMLUNIT
 70
     2
  9
$DIMLWD
 70
    -2
  9
$DIMLWE
 70
    -2
  9
$DIMTMOVE
 70
     2
  9
$DIMFXL
 40
1.0
  9
$DIMFXLON
 70
     0
  9
$DIMJOGANG
 40
0.7853981633974483
  9
$DIMTFILL
 70
     0
  9
$DIMTFILLCLR
 70
     0
  9
$DIMARCSYM
 70
     0
  9
$DIMLTYPE
  6

  9
$DIMLTEX1
  6

  9
$DIMLTEX2
  6

  9
$DIMTXTDIRECTION
 70
     0
  9
$LUNITS
 70
     2
  9
$LUPREC
 70
     2
  9
$SKETCHINC
 40
1.0
  9
$FILLETRAD
 40
0.0
  9
$AUNITS
 70
     0
  9
$AUPREC
 70
     0
  9
$MENU
  1
ACAD
  9
$ELEVATION
 40
0.0
  9
$PELEVATION
 40
0.0
  9
$THICKNESS
 40
0.0
  9
$LIMCHECK
 70
     0
  9
$CHAMFERA
 40
0.0
  9
$CHAMFERB
 40
0.0
  9
$CHAMFERC
 40
0.0
  9
$CHAMFERD
 40
0.0
  9
$SKPOLY
 70
     0
  9
$TDCREATE
 40
2450591.801998611
  9
$TDUCREATE
 40
2450591.718665278
  9
$TDUPDATE
 40
2459793.590761401
  9
$TDUUPDATE
 40
2459793.507428067
  9
$TDINDWG
 40
0.0000050463
  9
$TDUSRTIMER
 40
0.0000050463
  9
$USRTIMER
 70
     1
  9
$ANGBASE
 50
0.0
  9
$ANGDIR
 70
     0
  9
$PDMODE
 70
     0
  9
$PDSIZE
 40
0.0
  9
$PLINEWID
 40
0.0
  9
$SPLFRAME
 70
     0
  9
$SPLINETYPE
 70
     6
  9
$SPLINESEGS
 70
     8
  9
$HANDSEED
  5
48E
  9
$SURFTAB1
 70
     6
  9
$SURFTAB2
 70
     6
  9
$SURFTYPE
 70
     6
  9
$SURFU
 70
     6
  9
$SURFV
 70
     6
  9
$UCSBASE
  2

  9
$UCSNAME
  2

  9
$UCSORG
 10
0.0
 20
0.0
 30
0.0
  9
$UCSXDIR
 10
1.0
 20
0.0
 30
0.0
  9
$UCSYDIR
 10
0.0
 20
1.0
 30
0.0
  9
$UCSORTHOREF
  2

  9
$UCSORTHOVIEW
 70
     0
  9
$UCSORGTOP
 10
0.0
 20
0.0
 30
0.0
  9
$UCSORGBOTTOM
 10
0.0
 20
0.0
 30
0.0
  9
$UCSORGLEFT
 10
0.0
 20
0.0
 30
0.0
  9
$UCSORGRIGHT
 10
0.0
 20
0.0
 30
0.0
  9
$UCSORGFRONT
 10
0.0
 20
0.0
 30
0.0
  9
$UCSORGBACK
 10
0.0
 20
0.0
 30
0.0
  9
$PUCSBASE
  2

  9
$PUCSNAME
  2

  9
$PUCSORG
 10
0.0
 20
0.0
 30
0.0
  9
$PUCSXDIR
 10
1.0
 20
0.0
 30
0.0
  9
$PUCSYDIR
 10
0.0
 20
1.0
 30
0.0
  9
$PUCSORTHOREF
  2

  9
$PUCSORTHOVIEW
 70
     0
  9
$PUCSORGTOP
 10
0.0
 20
0.0
 30
0.0
  9
$PUCSORGBOTTOM
 10
0.0
 20
0.0
 30
0.0
  9
$PUCSORGLEFT
 10
0.0
 20
0.0
 30
0.0
  9
$PUCSORGRIGHT
 10
0.0
 20
0.0
 30
0.0
  9
$PUCSORGFRONT
 10
0.0
 20
0.0
 30
0.0
  9
$PUCSORGBACK
 10
0.0
 20
0.0
 30
0.0
  9
$USERI1
 70
     0
  9
$USERI2
 70
     0
  9
$USERI3
 70
     0
  9
$USERI4
 70
     0
  9
$USERI5
 70
     0
  9
$USERR1
 40
0.0
  9
$USERR2
 40
0.0
  9
$USERR3
 40
0.0
  9
$USERR4
 40
0.0
  9
$USERR5
 40
0.0
  9
$WORLDVIEW
 70
     1
  9
$SHADEDGE
 70
     3
  9
$SHADEDIF
 70
    70
  9
$TILEMODE
 70
     1
  9
$MAXACTVP
 70
    16
  9
$PINSBASE
 10
0.0
 20
0.0
 30
0.0
  9
$PLIMCHECK
 70
     0
  9
$PEXTMIN
 10
1.000000000000000E+20
 20
1.000000000000000E+20
 30
1.000000000000000E+20
  9
$PEXTMAX
 10
-1.000000000000000E+20
 20
-1.000000000000000E+20
 30
-1.000000000000000E+20
  9
$PLIMMIN
 10
0.0
 20
0.0
  9
$PLIMMAX
 10
12.0
 20
9.0
  9
$UNITMODE
 70
     0
  9
$VISRETAIN
 70
     0
  9
$PLINEGEN
 70
     0
  9
$PSLTSCALE
 70
     0
  9
$TREEDEPTH
 70
  3020
  9
$CMLSTYLE
  2
Standard
  9
$CMLJUST
 70
     0
  9
$CMLSCALE
 40
1.0
  9
$PROXYGRAPHICS
 70
     1
  9
$MEASUREMENT
 70
     0
  9
$CELWEIGHT
370
    -1
  9
$ENDCAPS
280
     0
  9
$JOINSTYLE
280
     0
  9
$LWDISPLAY
290
     0
  9
$INSUNITS
 70
     6
  9
$HYPERLINKBASE
  1

  9
$STYLESHEET
  1

  9
$XEDIT
290
     1
  9
$CEPSNTYPE
380
     0
  9
$PSTYLEMODE
290
     1
  9
$FINGERPRINTGUID
  2
{B79631B7-FCC0-496A-B10C-062ADA21C376}
  9
$VERSIONGUID
  2
{C35A9B65-75BF-4BD5-9970-B54B72933271}
  9
$EXTNAMES
290
     1
  9
$PSVPSCALE
 40
0.0
  9
$OLESTARTUP
290
     0
  9
$SORTENTS
280
   127
  9
$INDEXCTL
280
     0
  9
$HIDETEXT
280
     1
  9
$XCLIPFRAME
280
     2
  9
$HALOGAP
280
     0
  9
$OBSCOLOR
 70
   257
  9
$OBSLTYPE
280
     0
  9
$INTERSECTIONDISPLAY
280
     0
  9
$INTERSECTIONCOLOR
 70
   257
  9
$DIMASSOC
280
     2
  9
$PROJECTNAME
  1

  9
$CAMERADISPLAY
290
     0
  9
$LENSLENGTH
 40
50.0
  9
$CAMERAHEIGHT
 40
0.0
  9
$STEPSPERSEC
 40
2.0
  9
$STEPSIZE
 40
6.0
  9
$3DDWFPREC
 40
2.0
  9
$PSOLWIDTH
 40
0.25
  9
$PSOLHEIGHT
 40
4.0
  9
$LOFTANG1
 40
1.570796326794896
  9
$LOFTANG2
 40
1.570796326794896
  9
$LOFTMAG1
 40
0.0
  9
$LOFTMAG2
 40
0.0
  9
$LOFTPARAM
 70
     7
  9
$LOFTNORMALS
280
     1
  9
$LATITUDE
 40
37.795
  9
$LONGITUDE
 40
-122.394
  9
$NORTHDIRECTION
 40
0.0
  9
$TIMEZONE
 70
 -8000
  9
$LIGHTGLYPHDISPLAY
280
     1
  9
$TILEMODELIGHTSYNCH
280
     1
  9
$CMATERIAL
347
11
  9
$SOLIDHIST
280
     0
  9
$SHOWHIST
280
     1
  9
$DWFFRAME
280
     2
  9
$DGNFRAME
280
     0
  9
$REALWORLDSCALE
290
     1
  9
$INTERFERECOLOR
 62
     1
  9
$INTERFEREOBJVS
345
33
  9
$INTERFEREVPVS
346
30
  9
$CSHADOW
280
     0
  9
$SHADOWPLANELOCATION
 40
0.0
  0
ENDSEC
  0
SECTION
  2
CLASSES
  0
CLASS
  1
ACDBDICTIONARYWDFLT
  2
AcDbDictionaryWithDefault
  3
ObjectDBX Classes
 90
        0
 91
        1
280
     0
281
     0
  0
CLASS
  1
MATERIAL
  2
AcDbMaterial
  3
ObjectDBX Classes
 90
     1153
 91
        3
280
     0
281
     0
  0
CLASS
  1
VISUALSTYLE
  2
AcDbVisualStyle
  3
ObjectDBX Classes
 90
     4095
 91
       24
280
     0
281
     0
  0
CLASS
  1
SCALE
  2
AcDbScale
  3
ObjectDBX Classes
 90
     1153
 91
       17
280
     0
281
     0
  0
CLASS
  1
TABLESTYLE
  2
AcDbTableStyle
  3
ObjectDBX Classes
 90
     4095
 91
        1
280
     0
281
     0
  0
CLASS
  1
MLEADERSTYLE
  2
AcDbMLeaderStyle
  3
ACDB_MLEADERSTYLE_CLASS
 90
     4095
 91
        1
280
     0
281
     0
  0
CLASS
  1
ACDBSECTIONVIEWSTYLE
  2
AcDbSectionViewStyle
  3
ObjectDBX Classes
 90
     1025
 91
        1
280
     0
281
     0
  0
CLASS
  1
ACDBDETAILVIEWSTYLE
  2
AcDbDetailViewStyle
  3
ObjectDBX Classes
 90
     1025
 91
        1
280
     0
281
     0
  0
CLASS
  1
DICTIONARYVAR
  2
AcDbDictionaryVar
  3
ObjectDBX Classes
 90
        0
 91
        5
280
     0
281
     0
  0
CLASS
  1
CELLSTYLEMAP
  2
AcDbCellStyleMap
  3
ObjectDBX Classes
 90
     1152
 91
        1
280
     0
281
     0
  0
ENDSEC
  0
SECTION
  2
TABLES
  0
TABLE
  2
VPORT
  5
8
330
0
100
AcDbSymbolTable
 70
     2
  0
VPORT
  5
90
330
8
100
AcDbSymbolTableRecord
100
AcDbViewportTableRecord
  2
*ACTIVE
 70
     0
 10
0.0
 20
0.0
 11
1.0
 21
1.0
 12
-210.9417006282757
 22
-1293.636800430789
 13
0.0
 23
0.0
 14
5.0
 24
5.0
 15
100.0
 25
100.0
 16
0.0
 26
0.0
 36
1.0
 17
0.0
 27
0.0
 37
0.0
 40
366.3062235534023
 41
1.649386084583901
 42
50.0
 43
0.0
 44
0.0
 50
0.0
 51
0.0
 71
     0
 72
   100
 73
     1
 74
     0
 75
     0
 76
     1
 77
     0
 78
     0
281
     0
 65
     1
110
0.0
120
0.0
130
0.0
111
1.0
121
0.0
131
0.0
112
0.0
122
1.0
132
0.0
 79
     0
146
0.0
348
2F
 60
     3
 61
     5
292
     1
282
     0
141
0.0
142
0.0
 63
   250
421
  3355443
1001
ACAD_NAV_VCDISPLAY
1070
     3
  0
ENDTAB
  0
TABLE
  2
LTYPE
  5
5
330
0
100
AcDbSymbolTable
 70
    25
  0
LTYPE
  5
5A
330
5
100
AcDbSymbolTableRecord
100
AcDbLinetypeTableRecord
  2
ByBlock
 70
     0
  3

 72
    65
 73
     0
 40
0.0
  0
LTYPE
  5
5B
330
5
100
AcDbSymbolTableRecord
100
AcDbLinetypeTableRecord
  2
ByLayer
 70
     0
  3

 72
    65
 73
     0
 40
0.0
  0
LTYPE
  5
5C
330
5
100
AcDbSymbolTableRecord
100
AcDbLinetypeTableRecord
  2
CONTINUOUS
 70
     0
  3
Ausgezogene Linie
 72
    65
 73
     0
 40
0.0
  0
LTYPE
  5
77
330
5
100
AcDbSymbolTableRecord
100
AcDbLinetypeTableRecord
  2
RAND
 70
     0
  3
__ __ . __ __ . __ __ . __ __ . __ __ . __ __ .
 72
    65
 73
     6
 40
1.75
 49
0.5
 74
     0
 49
-0.25
 74
     0
 49
0.5
 74
     0
 49
-0.25
 74
     0
 49
0.0
 74
     0
 49
-0.25
 74
     0
  0
LTYPE
  5
78
330
5
100
AcDbSymbolTableRecord
100
AcDbLinetypeTableRecord
  2
RAND2
 70
     0
  3
__.__.__.__.__.__.__.__.__.__.__.__.__.__.__.__
 72
    65
 73
     6
 40
0.875
 49
0.25
 74
     0
 49
-0.125
 74
     0
 49
0.25
 74
     0
 49
-0.125
 74
     0
 49
0.0
 74
     0
 49
-0.125
 74
     0
  0
LTYPE
  5
79
330
5
100
AcDbSymbolTableRecord
100
AcDbLinetypeTableRecord
  2
RANDX2
 70
     0
  3
____  ____  .  ____  ____  .  ____  ____  .  __
 72
    65
 73
     6
 40
3.5
 49
1.0
 74
     0
 49
-0.5
 74
     0
 49
1.0
 74
     0
 49
-0.5
 74
     0
 49
0.0
 74
     0
 49
-0.5
 74
     0
  0
LTYPE
  5
7A
330
5
100
AcDbSymbolTableRecord
100
AcDbLinetypeTableRecord
  2
MITTE
 70
     0
  3
____ _ ____ _ ____ _ ____ _ ____ _ ____ _ ____ 
 72
    65
 73
     4
 40
2.0
 49
1.25
 74
     0
 49
-0.25
 74
     0
 49
0.25
 74
     0
 49
-0.25
 74
     0
  0
LTYPE
  5
7B
330
5
100
AcDbSymbolTableRecord
100
AcDbLinetypeTableRecord
  2
MITTE2
 70
     0
  3
___ _ ___ _ ___ _ ___ _ ___ _ ___ _ ___ _ ___ _
 72
    65
 73
     4
 40
1.125
 49
0.75
 74
     0
 49
-0.125
 74
     0
 49
0.125
 74
     0
 49
-0.125
 74
     0
  0
LTYPE
  5
7C
330
5
100
AcDbSymbolTableRecord
100
AcDbLinetypeTableRecord
  2
MITTEX2
 70
     0
  3
________  __  ________  __  ________  __  _____
 72
    65
 73
     4
 40
4.0
 49
2.5
 74
     0
 49
-0.5
 74
     0
 49
0.5
 74
     0
 49
-0.5
 74
     0
  0
LTYPE
  5
7D
330
5
100
AcDbSymbolTableRecord
100
AcDbLinetypeTableRecord
  2
STRICHPUNKT
 70
     0
  3
__ . __ . __ . __ . __ . __ . __ . __ . __ . __
 72
    65
 73
     4
 40
1.0
 49
0.5
 74
     0
 49
-0.25
 74
     0
 49
0.0
 74
     0
 49
-0.25
 74
     0
  0
LTYPE
  5
7E
330
5
100
AcDbSymbolTableRecord
100
AcDbLinetypeTableRecord
  2
STRICHPUNKT2
 70
     0
  3
_._._._._._._._._._._._._._._._._._._._._._._._
 72
    65
 73
     4
 40
0.5
 49
0.25
 74
     0
 49
-0.125
 74
     0
 49
0.0
 74
     0
 49
-0.125
 74
     0
  0
LTYPE
  5
7F
330
5
100
AcDbSymbolTableRecord
100
AcDbLinetypeTableRecord
  2
STRICHPUNKTX2
 70
     0
  3
____  .  ____  .  ____  .  ____  .  ____  .  __
 72
    65
 73
     4
 40
2.0
 49
1.0
 74
     0
 49
-0.5
 74
     0
 49
0.0
 74
     0
 49
-0.5
 74
     0
  0
LTYPE
  5
80
330
5
100
AcDbSymbolTableRecord
100
AcDbLinetypeTableRecord
  2
GESTRICHELT
 70
     0
  3
__ __ __ __ __ __ __ __ __ __ __ __ __ __ __ __
 72
    65
 73
     2
 40
0.75
 49
0.5
 74
     0
 49
-0.25
 74
     0
  0
LTYPE
  5
81
330
5
100
AcDbSymbolTableRecord
100
AcDbLinetypeTableRecord
  2
GESTRICHELT2
 70
     0
  3
_ _ _ _ _ _ _ _ _ _ _ _ _ _ _ _ _ _ _ _ _ _ _ _
 72
    65
 73
     2
 40
0.375
 49
0.25
 74
     0
 49
-0.125
 74
     0
  0
LTYPE
  5
82
330
5
100
AcDbSymbolTableRecord
100
AcDbLinetypeTableRecord
  2
GESTRICHELTX2
 70
     0
  3
____  ____  ____  ____  ____  ____  ____  ____ 
 72
    65
 73
     2
 40
1.5
 49
1.0
 74
     0
 49
-0.5
 74
     0
  0
LTYPE
  5
83
330
5
100
AcDbSymbolTableRecord
100
AcDbLinetypeTableRecord
  2
GETRENNT
 70
     0
  3
____ . . ____ . . ____ . . ____ . . ____ . . __
 72
    65
 73
     6
 40
1.25
 49
0.5
 74
     0
 49
-0.25
 74
     0
 49
0.0
 74
     0
 49
-0.25
 74
     0
 49
0.0
 74
     0
 49
-0.25
 74
     0
  0
LTYPE
  5
84
330
5
100
AcDbSymbolTableRecord
100
AcDbLinetypeTableRecord
  2
GETRENNT2
 70
     0
  3
__..__..__..__..__..__..__..__..__..__..__..__.
 72
    65
 73
     6
 40
0.625
 49
0.25
 74
     0
 49
-0.125
 74
     0
 49
0.0
 74
     0
 49
-0.125
 74
     0
 49
0.0
 74
     0
 49
-0.125
 74
     0
  0
LTYPE
  5
85
330
5
100
AcDbSymbolTableRecord
100
AcDbLinetypeTableRecord
  2
GETRENNTX2
 70
     0
  3
________  .  .  ________  .  .  ________  .  . 
 72
    65
 73
     6
 40
2.5
 49
1.0
 74
     0
 49
-0.5
 74
     0
 49
0.0
 74
     0
 49
-0.5
 74
     0
 49
0.0
 74
     0
 49
-0.5
 74
     0
  0
LTYPE
  5
86
330
5
100
AcDbSymbolTableRecord
100
AcDbLinetypeTableRecord
  2
PUNKT
 70
     0
  3
. . . . . . . . . . . . . . . . . . . . . . . .
 72
    65
 73
     2
 40
0.25
 49
0.0
 74
     0
 49
-0.25
 74
     0
  0
LTYPE
  5
87
330
5
100
AcDbSymbolTableRecord
100
AcDbLinetypeTableRecord
  2
PUNKT2
 70
     0
  3
...............................................
 72
    65
 73
     2
 40
0.125
 49
0.0
 74
     0
 49
-0.125
 74
     0
  0
LTYPE
  5
88
330
5
100
AcDbSymbolTableRecord
100
AcDbLinetypeTableRecord
  2
PUNKTX2
 70
     0
  3
.  .  .  .  .  .  .  .  .  .  .  .  .  .  .  . 
 72
    65
 73
     2
 40
0.5
 49
0.0
 74
     0
 49
-0.5
 74
     0
  0
LTYPE
  5
89
330
5
100
AcDbSymbolTableRecord
100
AcDbLinetypeTableRecord
  2
VERDECKT
 70
     0
  3
__ __ __ __ __ __ __ __ __ __ __ __ __ __ __ __
 72
    65
 73
     2
 40
0.375
 49
0.25
 74
     0
 49
-0.125
 74
     0
  0
LTYPE
  5
8A
330
5
100
AcDbSymbolTableRecord
100
AcDbLinetypeTableRecord
  2
VERDECKT2
 70
     0
  3
_ _ _ _ _ _ _ _ _ _ _ _ _ _ _ _ _ _ _ _ _ _ _ _
 72
    65
 73
     2
 40
0.1875
 49
0.125
 74
     0
 49
-0.0625
 74
     0
  0
LTYPE
  5
8B
330
5
100
AcDbSymbolTableRecord
100
AcDbLinetypeTableRecord
  2
VERDECKTX2
 70
     0
  3
____ ____ ____ ____ ____ ____ ____ ____ ____ __
 72
    65
 73
     2
 40
0.75
 49
0.5
 74
     0
 49
-0.25
 74
     0
  0
LTYPE
  5
8C
330
5
100
AcDbSymbolTableRecord
100
AcDbLinetypeTableRecord
  2
PHANTOM
 70
     0
  3
______  __  __  ______  __  __  ______  __  __ 
 72
    65
 73
     6
 40
2.5
 49
1.25
 74
     0
 49
-0.25
 74
     0
 49
0.25
 74
     0
 49
-0.25
 74
     0
 49
0.25
 74
     0
 49
-0.25
 74
     0
  0
LTYPE
  5
8D
330
5
100
AcDbSymbolTableRecord
100
AcDbLinetypeTableRecord
  2
PHANTOM2
 70
     0
  3
___ _ _ ___ _ _ ___ _ _ ___ _ _ ___ _ _ ___ _ _
 72
    65
 73
     6
 40
1.25
 49
0.625
 74
     0
 49
-0.125
 74
     0
 49
0.125
 74
     0
 49
-0.125
 74
     0
 49
0.125
 74
     0
 49
-0.125
 74
     0
  0
LTYPE
  5
8E
330
5
100
AcDbSymbolTableRecord
100
AcDbLinetypeTableRecord
  2
PHANTOMX2
 70
     0
  3
____________    ____    ____    ____________   
 72
    65
 73
     6
 40
5.0
 49
2.5
 74
     0
 49
-0.5
 74
     0
 49
0.5
 74
     0
 49
-0.5
 74
     0
 49
0.5
 74
     0
 49
-0.5
 74
     0
  0
ENDTAB
  0
TABLE
  2
LAYER
  5
2
102
{ACAD_XDICTIONARY
360
47A
102
}
330
0
100
AcDbSymbolTable
 70
    10
  0
LAYER
  5
54
330
2
100
AcDbSymbolTableRecord
100
AcDbLayerTableRecord
  2
0
 70
     0
 62
     7
  6
CONTINUOUS
370
    -3
390
F
347
21
348
0
  0
LAYER
  5
91
330
2
100
AcDbSymbolTableRecord
100
AcDbLayerTableRecord
  2
GRABUNGSGRENZE
 70
     0
 62
     3
  6
STRICHPUNKTX2
370
    -3
390
F
347
21
348
0
  0
LAYER
  5
92
330
2
100
AcDbSymbolTableRecord
100
AcDbLayerTableRecord
  2
BEFUND
 70
     0
 62
     1
  6
CONTINUOUS
370
    -3
390
F
347
21
348
0
  0
LAYER
  5
93
330
2
100
AcDbSymbolTableRecord
100
AcDbLayerTableRecord
  2
STEINE
 70
     0
 62
     4
  6
CONTINUOUS
370
    -3
390
F
347
21
348
0
  0
LAYER
  5
94
330
2
100
AcDbSymbolTableRecord
100
AcDbLayerTableRecord
  2
KNOCHEN
 70
     0
 62
     2
  6
CONTINUOUS
370
    -3
390
F
347
21
348
0
  0
LAYER
  5
95
330
2
100
AcDbSymbolTableRecord
100
AcDbLayerTableRecord
  2
BEFUND_UNSICHER
 70
     0
 62
     1
  6
GESTRICHELT
370
    -3
390
F
347
21
348
0
  0
LAYER
  5
96
330
2
100
AcDbSymbolTableRecord
100
AcDbLayerTableRecord
  2
FEUER
 70
     0
 62
     1
  6
CONTINUOUS
370
    -3
390
F
347
21
348
0
  0
LAYER
  5
97
330
2
100
AcDbSymbolTableRecord
100
AcDbLayerTableRecord
  2
KNOCHENSCHRAFF
 70
     0
 62
     2
  6
CONTINUOUS
370
    -3
390
F
347
21
348
0
  0
LAYER
  5
98
330
2
100
AcDbSymbolTableRecord
100
AcDbLayerTableRecord
  2
TPROFIL
 70
     0
 62
     3
  6
CONTINUOUS
370
    -3
390
F
347
21
348
0
  0
LAYER
  5
99
330
2
100
AcDbSymbolTableRecord
100
AcDbLayerTableRecord
  2
STEINESCHRAFF
 70
     0
 62
     4
  6
CONTINUOUS
370
    -3
390
F
347
21
348
0
  0
ENDTAB
  0
TABLE
  2
STYLE
  5
3
330
0
100
AcDbSymbolTable
 70
     2
  0
STYLE
  5
55
330
3
100
AcDbSymbolTableRecord
100
AcDbTextStyleTableRecord
  2
STANDARD
 70
     0
 40
0.0
 41
1.0
 50
0.0
 71
     0
 42
3.5
  3
txt.shx
  4

  0
STYLE
  5
59
330
3
100
AcDbSymbolTableRecord
100
AcDbTextStyleTableRecord
  2
Annotative
 70
     0
 40
0.0
 41
1.0
 50
0.0
 71
     0
 42
3.5
  3
txt
  4

1001
AcadAnnotative
1000
AnnotativeData
1002
{
1070
     1
1070
     1
1002
}
  0
ENDTAB
  0
TABLE
  2
VIEW
  5
6
330
0
100
AcDbSymbolTable
 70
     1
  0
ENDTAB
  0
TABLE
  2
UCS
  5
7
330
0
100
AcDbSymbolTable
 70
     0
  0
ENDTAB
  0
TABLE
  2
APPID
  5
9
330
0
100
AcDbSymbolTable
 70
     3
  0
APPID
  5
56
330
9
100
AcDbSymbolTableRecord
100
AcDbRegAppTableRecord
  2
ACAD
 70
     0
  0
APPID
  5
5D
330
9
100
AcDbSymbolTableRecord
100
AcDbRegAppTableRecord
  2
AcadAnnotative
 70
     0
  0
APPID
  5
486
330
9
100
AcDbSymbolTableRecord
100
AcDbRegAppTableRecord
  2
ACAD_NAV_VCDISPLAY
 70
     0
  0
ENDTAB
  0
TABLE
  2
DIMSTYLE
  5
A
330
0
100
AcDbSymbolTable
 70
     2
100
AcDbDimStyleTable
 71
     0
  0
DIMSTYLE
105
57
330
A
100
AcDbSymbolTableRecord
100
AcDbDimStyleTableRecord
  2
Standard
 70
     0
340
55
  0
DIMSTYLE
105
58
330
A
100
AcDbSymbolTableRecord
100
AcDbDimStyleTableRecord
  2
Annotative
 70
     0
340
55
1001
AcadAnnotative
1000
AnnotativeData
1002
{
1070
     1
1070
     1
1002
}
  0
ENDTAB
  0
TABLE
  2
BLOCK_RECORD
  5
1
330
0
100
AcDbSymbolTable
 70
     4
  0
BLOCK_RECORD
  5
6F
330
1
100
AcDbSymbolTableRecord
100
AcDbBlockTableRecord
  2
*Model_Space
340
72
 70
     0
280
     1
281
     0
  0
BLOCK_RECORD
  5
6B
330
1
100
AcDbSymbolTableRecord
100
AcDbBlockTableRecord
  2
*Paper_Space
340
6E
 70
     0
280
     1
281
     0
  0
BLOCK_RECORD
  5
73
330
1
100
AcDbSymbolTableRecord
100
AcDbBlockTableRecord
  2
TPFEIL
340
0
 70
     0
280
     1
281
     0
  0
BLOCK_RECORD
  5
74
330
1
100
AcDbSymbolTableRecord
100
AcDbBlockTableRecord
  2
*X1
340
0
102
{BLKREFS
331
471
102
}
 70
     0
280
     1
281
     0
  0
BLOCK_RECORD
  5
75
330
1
100
AcDbSymbolTableRecord
100
AcDbBlockTableRecord
  2
*X2
340
0
102
{BLKREFS
331
472
102
}
 70
     0
280
     1
281
     0
  0
BLOCK_RECORD
  5
76
330
1
100
AcDbSymbolTableRecord
100
AcDbBlockTableRecord
  2
*X3
340
0
102
{BLKREFS
331
473
102
}
 70
     0
280
     1
281
     0
  0
ENDTAB
  0
ENDSEC
  0
SECTION
  2
BLOCKS
  0
BLOCK
  5
9C
330
6F
100
AcDbEntity
  8
0
100
AcDbBlockBegin
  2
*Model_Space
 70
     0
 10
0.0
 20
0.0
 30
0.0
  3
*Model_Space
  1

  0
ENDBLK
  5
9D
330
6F
100
AcDbEntity
  8
0
100
AcDbBlockEnd
  0
BLOCK
  5
9A
330
6B
100
AcDbEntity
 67
     1
  8
0
100
AcDbBlockBegin
  2
*Paper_Space
 70
     0
 10
0.0
 20
0.0
 30
0.0
  3
*Paper_Space
  1

  0
ENDBLK
  5
9B
330
6B
100
AcDbEntity
 67
     1
  8
0
100
AcDbBlockEnd
  0
BLOCK
  5
9E
330
73
100
AcDbEntity
  8
0
100
AcDbBlockBegin
  2
TPFEIL
 70
     0
 10
0.0
 20
0.0
 30
0.0
  3
TPFEIL
  1

  0
LWPOLYLINE
  5
9F
330
73
100
AcDbEntity
  8
GRABUNGSGRENZE
100
AcDbPolyline
 90
        2
 70
     0
 10
0.0
 20
-10.0
 40
5.0
 41
0.0
 10
0.0
 20
0.0
 40
0.0
 41
0.0
  0
ENDBLK
  5
A3
330
73
100
AcDbEntity
  8
0
100
AcDbBlockEnd
  0
BLOCK
  5
A4
330
74
100
AcDbEntity
  8
0
100
AcDbBlockBegin
  2
*X1
 70
     1
 10
0.0
 20
0.0
 30
0.0
  3
*X1
  1

  0
LINE
  5
A5
330
74
100
AcDbEntity
  8
0
 62
     0
100
AcDbLine
 10
-456.9439323982269
 20
-1391.031990345656
 30
0.0
 11
-456.8237721496062
 21
-1390.911830097035
 31
0.0
  0
LINE
  5
A6
330
74
100
AcDbEntity
  8
0
 62
     0
100
AcDbLine
 10
-457.1627987828799
 20
-1390.897303339716
 30
0.0
 11
-456.3186958773301
 21
-1390.053200434166
 31
0.0
  0
LINE
  5
A7
330
74
100
AcDbEntity
  8
0
 62
     0
100
AcDbLine
 10
-457.3816651675328
 20
-1390.762616333775
 30
0.0
 11
-455.8136196050539
 21
-1389.194570771296
 31
0.0
  0
LINE
  5
A8
330
74
100
AcDbEntity
  8
0
 62
     0
100
AcDbLine
 10
-457.6005315521858
 20
-1390.627929327835
 30
0.0
 11
-455.3085433327778
 21
-1388.335941108427
 31
0.0
  0
LINE
  5
A9
330
74
100
AcDbEntity
  8
0
 62
     0
100
AcDbLine
 10
-457.8193979368387
 20
-1390.493242321895
 30
0.0
 11
-454.8034670605016
 21
-1387.477311445558
 31
0.0
  0
LINE
  5
AA
330
74
100
AcDbEntity
  8
0
 62
     0
100
AcDbLine
 10
-458.0382643214917
 20
-1390.358555315954
 30
0.0
 11
-454.403049599208
 21
-1386.723340593671
 31
0.0
  0
LINE
  5
AB
330
74
100
AcDbEntity
  8
0
 62
     0
100
AcDbLine
 10
-458.1580178978884
 20
-1390.124755501758
 30
0.0
 11
-454.6568828027108
 21
-1386.62362040658
 31
0.0
  0
LINE
  5
AC
330
74
100
AcDbEntity
  8
0
 62
     0
100
AcDbLine
 10
-457.6276878119984
 20
-1389.240872025275
 30
0.0
 11
-454.9107160062137
 21
-1386.52390021949
 31
0.0
  0
LINE
  5
AD
330
74
100
AcDbEntity
  8
0
 62
     0
100
AcDbLine
 10
-457.0973577261084
 20
-1388.356988548791
 30
0.0
 11
-455.1645492097166
 21
-1386.424180032399
 31
0.0
  0
LINE
  5
AE
330
74
100
AcDbEntity
  8
0
 62
     0
100
AcDbLine
 10
-456.5670276402185
 20
-1387.473105072308
 30
0.0
 11
-455.4183824132194
 21
-1386.324459845309
 31
0.0
  0
LINE
  5
AF
330
74
100
AcDbEntity
  8
0
 62
     0
100
AcDbLine
 10
-456.0366975543286
 20
-1386.589221595825
 30
0.0
 11
-455.6722156167222
 21
-1386.224739658219
 31
0.0
  0
LINE
  5
B0
330
74
100
AcDbEntity
  8
0
 62
     0
100
AcDbLine
 10
-455.1753426689955
 20
-1375.474818383287
 30
0.0
 11
-454.9427953938918
 21
-1375.242271108183
 31
0.0
  0
LINE
  5
B1
330
74
100
AcDbEntity
  8
0
 62
     0
100
AcDbLine
 10
-455.3963135381163
 20
-1375.342235861815
 30
0.0
 11
-454.8142305245852
 21
-1374.760152848283
 31
0.0
  0
LINE
  5
B2
330
74
100
AcDbEntity
  8
0
 62
     0
100
AcDbLine
 10
-455.6172844072371
 20
-1375.209653340342
 30
0.0
 11
-454.6856656552785
 21
-1374.278034588384
 31
0.0
  0
LINE
  5
B3
330
74
100
AcDbEntity
  8
0
 62
     0
100
AcDbLine
 10
-455.8382552763579
 20
-1375.07707081887
 30
0.0
 11
-454.7321692953579
 21
-1373.970984837869
 31
0.0
  0
LINE
  5
B4
330
74
100
AcDbEntity
  8
0
 62
     0
100
AcDbLine
 10
-456.0592261454787
 20
-1374.944488297397
 30
0.0
 11
-454.9504121290574
 21
-1373.835674280976
 31
0.0
  0
LINE
  5
B5
330
74
100
AcDbEntity
  8
0
 62
     0
100
AcDbLine
 10
-456.2801970145995
 20
-1374.811905775924
 30
0.0
 11
-455.168654962757
 21
-1373.700363724082
 31
0.0
  0
LINE
  5
B6
330
74
100
AcDbEntity
  8
0
 62
     0
100
AcDbLine
 10
-456.5011678837203
 20
-1374.679323254452
 30
0.0
 11
-455.3868977964565
 21
-1373.565053167188
 31
0.0
  0
LINE
  5
B7
330
74
100
AcDbEntity
  8
0
 62
     0
100
AcDbLine
 10
-456.7221387528412
 20
-1374.54674073298
 30
0.0
 11
-455.6051406301561
 21
-1373.429742610295
 31
0.0
  0
LINE
  5
B8
330
74
100
AcDbEntity
  8
0
 62
     0
100
AcDbLine
 10
-456.9431096219619
 20
-1374.414158211507
 30
0.0
 11
-455.8233834638556
 21
-1373.294432053401
 31
0.0
  0
LINE
  5
B9
330
74
100
AcDbEntity
  8
0
 62
     0
100
AcDbLine
 10
-457.1640804910827
 20
-1374.281575690035
 30
0.0
 11
-456.0416262975551
 21
-1373.159121496507
 31
0.0
  0
LINE
  5
BA
330
74
100
AcDbEntity
  8
0
 62
     0
100
AcDbLine
 10
-457.3850513602035
 20
-1374.148993168562
 30
0.0
 11
-456.2598691312547
 21
-1373.023810939613
 31
0.0
  0
LINE
  5
BB
330
74
100
AcDbEntity
  8
0
 62
     0
100
AcDbLine
 10
-457.6060222293243
 20
-1374.01641064709
 30
0.0
 11
-456.4781119649543
 21
-1372.88850038272
 31
0.0
  0
LINE
  5
BC
330
74
100
AcDbEntity
  8
0
 62
     0
100
AcDbLine
 10
-457.8269930984451
 20
-1373.883828125617
 30
0.0
 11
-456.6963547986539
 21
-1372.753189825826
 31
0.0
  0
LINE
  5
BD
330
74
100
AcDbEntity
  8
0
 62
     0
100
AcDbLine
 10
-458.0479639675659
 20
-1373.751245604145
 30
0.0
 11
-456.9145976323534
 21
-1372.617879268932
 31
0.0
  0
LINE
  5
BE
330
74
100
AcDbEntity
  8
0
 62
     0
100
AcDbLine
 10
-458.2689348366867
 20
-1373.618663082672
 30
0.0
 11
-457.132840466053
 21
-1372.482568712039
 31
0.0
  0
LINE
  5
BF
330
74
100
AcDbEntity
  8
0
 62
     0
100
AcDbLine
 10
-458.4899057058074
 20
-1373.4860805612
 30
0.0
 11
-457.3510832997525
 21
-1372.347258155145
 31
0.0
  0
LINE
  5
C0
330
74
100
AcDbEntity
  8
0
 62
     0
100
AcDbLine
 10
-458.7108765749283
 20
-1373.353498039727
 30
0.0
 11
-457.569326133452
 21
-1372.211947598251
 31
0.0
  0
LINE
  5
C1
330
74
100
AcDbEntity
  8
0
 62
     0
100
AcDbLine
 10
-458.931847444049
 20
-1373.220915518255
 30
0.0
 11
-457.7875689671516
 21
-1372.076637041357
 31
0.0
  0
LINE
  5
C2
330
74
100
AcDbEntity
  8
0
 62
     0
100
AcDbLine
 10
-459.1528183131698
 20
-1373.088332996782
 30
0.0
 11
-458.0058118008511
 21
-1371.941326484464
 31
0.0
  0
LINE
  5
C3
330
74
100
AcDbEntity
  8
0
 62
     0
100
AcDbLine
 10
-459.3737891822906
 20
-1372.95575047531
 30
0.0
 11
-458.2240546345507
 21
-1371.80601592757
 31
0.0
  0
LINE
  5
C4
330
74
100
AcDbEntity
  8
0
 62
     0
100
AcDbLine
 10
-465.471869377571
 20
-1378.700277279997
 30
0.0
 11
-465.1576443899452
 21
-1378.386052292371
 31
0.0
  0
LINE
  5
C5
330
74
100
AcDbEntity
  8
0
 62
     0
100
AcDbLine
 10
-459.5947600514114
 20
-1372.823167953838
 30
0.0
 11
-458.4422974682502
 21
-1371.670705370676
 31
0.0
  0
LINE
  5
C6
330
74
100
AcDbEntity
  8
0
 62
     0
100
AcDbLine
 10
-465.9166623528334
 20
-1378.791516864666
 30
0.0
 11
-465.2830988188654
 21
-1378.157953330698
 31
0.0
  0
LINE
  5
C7
330
74
100
AcDbEntity
  8
0
 62
     0
100
AcDbLine
 10
-459.8157309205322
 20
-1372.690585432365
 30
0.0
 11
-458.6605403019499
 21
-1371.535394813782
 31
0.0
  0
LINE
  5
C8
330
74
100
AcDbEntity
  8
0
 62
     0
100
AcDbLine
 10
-466.3614553280959
 20
-1378.882756449335
 30
0.0
 11
-465.4085532477856
 21
-1377.929854369025
 31
0.0
  0
LINE
  5
C9
330
74
100
AcDbEntity
  8
0
 62
     0
100
AcDbLine
 10
-460.0367017896529
 20
-1372.558002910892
 30
0.0
 11
-458.8787831356494
 21
-1371.400084256889
 31
0.0
  0
LINE
  5
CA
330
74
100
AcDbEntity
  8
0
 62
     0
100
AcDbLine
 10
-466.8062483033585
 20
-1378.973996034005
 30
0.0
 11
-465.5340076767057
 21
-1377.701755407352
 31
0.0
  0
LINE
  5
CB
330
74
100
AcDbEntity
  8
0
 62
     0
100
AcDbLine
 10
-460.2576726587738
 20
-1372.42542038942
 30
0.0
 11
-459.097025969349
 21
-1371.264773699995
 31
0.0
  0
LINE
  5
CC
330
74
100
AcDbEntity
  8
0
 62
     0
100
AcDbLine
 10
-460.4786435278946
 20
-1372.292837867947
 30
0.0
 11
-459.3152688030484
 21
-1371.129463143101
 31
0.0
  0
LINE
  5
CD
330
74
100
AcDbEntity
  8
0
 62
     0
100
AcDbLine
 10
-460.3120597353714
 20
-1371.772700684831
 30
0.0
 11
-459.533511636748
 21
-1370.994152586208
 31
0.0
  0
LINE
  5
CE
330
74
100
AcDbEntity
  8
0
 62
     0
100
AcDbLine
 10
-466.9288270497421
 20
-1375.207487483862
 30
0.0
 11
-464.8034487777222
 21
-1373.082109211842
 31
0.0
  0
LINE
  5
CF
330
74
100
AcDbEntity
  8
0
 62
     0
100
AcDbLine
 10
-467.2823804403354
 20
-1375.207487483862
 30
0.0
 11
-464.9594282147486
 21
-1372.884535258276
 31
0.0
  0
LINE
  5
D0
330
74
100
AcDbEntity
  8
0
 62
     0
100
AcDbLine
 10
-467.6359338309286
 20
-1375.207487483862
 30
0.0
 11
-465.1154076517751
 21
-1372.686961304709
 31
0.0
  0
LINE
  5
D1
330
74
100
AcDbEntity
  8
0
 62
     0
100
AcDbLine
 10
-467.7601275831746
 20
-1374.978127845515
 30
0.0
 11
-465.2713870888015
 21
-1372.489387351142
 31
0.0
  0
LINE
  5
D2
330
74
100
AcDbEntity
  8
0
 62
     0
100
AcDbLine
 10
-467.3830039665417
 20
-1374.247450838289
 30
0.0
 11
-465.4273665258279
 21
-1372.291813397575
 31
0.0
  0
LINE
  5
D3
330
74
100
AcDbEntity
  8
0
 62
     0
100
AcDbLine
 10
-469.7421062731236
 20
-1438.831949889287
 30
0.0
 11
-469.6450513134919
 21
-1438.734894929655
 31
0.0
  0
LINE
  5
D4
330
74
100
AcDbEntity
  8
0
 62
     0
100
AcDbLine
 10
-469.8658499598312
 20
-1439.309246966588
 30
0.0
 11
-469.4267862101154
 21
-1438.870183216872
 31
0.0
  0
LINE
  5
D5
330
74
100
AcDbEntity
  8
0
 62
     0
100
AcDbLine
 10
-469.9895936465388
 20
-1439.786544043889
 30
0.0
 11
-469.2085211067389
 21
-1439.005471504089
 31
0.0
  0
LINE
  5
D6
330
74
100
AcDbEntity
  8
0
 62
     0
100
AcDbLine
 10
-469.9861251981982
 20
-1440.136628986141
 30
0.0
 11
-468.9902560033624
 21
-1439.140759791306
 31
0.0
  0
LINE
  5
D7
330
74
100
AcDbEntity
  8
0
 62
     0
100
AcDbLine
 10
-469.800044466307
 20
-1440.304101644843
 30
0.0
 11
-468.771990899986
 21
-1439.276048078522
 31
0.0
  0
LINE
  5
D8
330
74
100
AcDbEntity
  8
0
 62
     0
100
AcDbLine
 10
-469.6139637344158
 20
-1440.471574303545
 30
0.0
 11
-468.5537257966095
 21
-1439.411336365739
 31
0.0
  0
LINE
  5
D9
330
74
100
AcDbEntity
  8
0
 62
     0
100
AcDbLine
 10
-469.4278830025246
 20
-1440.639046962248
 30
0.0
 11
-468.3354606932331
 21
-1439.546624652956
 31
0.0
  0
LINE
  5
DA
330
74
100
AcDbEntity
  8
0
 62
     0
100
AcDbLine
 10
-469.2418022706334
 20
-1440.80651962095
 30
0.0
 11
-468.1171955898567
 21
-1439.681912940173
 31
0.0
  0
LINE
  5
DB
330
74
100
AcDbEntity
  8
0
 62
     0
100
AcDbLine
 10
-469.2261293155512
 20
-1441.497953447054
 30
0.0
 11
-467.6806653831037
 21
-1439.952489514606
 31
0.0
  0
LINE
  5
DC
330
74
100
AcDbEntity
  8
0
 62
     0
100
AcDbLine
 10
-469.4146911238676
 20
-1442.040068645964
 30
0.0
 11
-467.4624002797273
 21
-1440.087777801823
 31
0.0
  0
LINE
  5
DD
330
74
100
AcDbEntity
  8
0
 62
     0
100
AcDbLine
 10
-469.2730386776658
 20
-1442.251969590355
 30
0.0
 11
-467.2441351763509
 21
-1440.22306608904
 31
0.0
  0
LINE
  5
DE
330
74
100
AcDbEntity
  8
0
 62
     0
100
AcDbLine
 10
-469.0470992327897
 20
-1442.379583536072
 30
0.0
 11
-467.0258700729744
 21
-1440.358354376257
 31
0.0
  0
LINE
  5
DF
330
74
100
AcDbEntity
  8
0
 62
     0
100
AcDbLine
 10
-468.8211597879135
 20
-1442.507197481789
 30
0.0
 11
-466.8076049695979
 21
-1440.493642663474
 31
0.0
  0
LINE
  5
E0
330
74
100
AcDbEntity
  8
0
 62
     0
100
AcDbLine
 10
-468.5952203430373
 20
-1442.634811427506
 30
0.0
 11
-466.5893398662214
 21
-1440.628930950691
 31
0.0
  0
LINE
  5
E1
330
74
100
AcDbEntity
  8
0
 62
     0
100
AcDbLine
 10
-468.3692808981612
 20
-1442.762425373224
 30
0.0
 11
-466.3710747628449
 21
-1440.764219237907
 31
0.0
  0
LINE
  5
E2
330
74
100
AcDbEntity
  8
0
 62
     0
100
AcDbLine
 10
-468.143341453285
 20
-1442.890039318941
 30
0.0
 11
-466.1528096594685
 21
-1440.899507525124
 31
0.0
  0
LINE
  5
E3
330
74
100
AcDbEntity
  8
0
 62
     0
100
AcDbLine
 10
-467.9174020084088
 20
-1443.017653264658
 30
0.0
 11
-465.9345445560921
 21
-1441.034795812341
 31
0.0
  0
LINE
  5
E4
330
74
100
AcDbEntity
  8
0
 62
     0
100
AcDbLine
 10
-467.6914625635326
 20
-1443.145267210375
 30
0.0
 11
-465.7162794527156
 21
-1441.170084099558
 31
0.0
  0
LINE
  5
E5
330
74
100
AcDbEntity
  8
0
 62
     0
100
AcDbLine
 10
-467.4655231186565
 20
-1443.272881156092
 30
0.0
 11
-465.4980143493392
 21
-1441.305372386775
 31
0.0
  0
LINE
  5
E6
330
74
100
AcDbEntity
  8
0
 62
     0
100
AcDbLine
 10
-467.2395836737803
 20
-1443.400495101809
 30
0.0
 11
-465.2797492459627
 21
-1441.440660673991
 31
0.0
  0
LINE
  5
E7
330
74
100
AcDbEntity
  8
0
 62
     0
100
AcDbLine
 10
-467.0136442289041
 20
-1443.528109047526
 30
0.0
 11
-465.0614841425862
 21
-1441.575948961208
 31
0.0
  0
LINE
  5
E8
330
74
100
AcDbEntity
  8
0
 62
     0
100
AcDbLine
 10
-466.787704784028
 20
-1443.655722993243
 30
0.0
 11
-464.8432190392098
 21
-1441.711237248425
 31
0.0
  0
LINE
  5
E9
330
74
100
AcDbEntity
  8
0
 62
     0
100
AcDbLine
 10
-466.5617653391517
 20
-1443.78333693896
 30
0.0
 11
-464.6249539358334
 21
-1441.846525535642
 31
0.0
  0
LINE
  5
EA
330
74
100
AcDbEntity
  8
0
 62
     0
100
AcDbLine
 10
-466.3358258942756
 20
-1443.910950884677
 30
0.0
 11
-464.4066888324569
 21
-1441.981813822859
 31
0.0
  0
LINE
  5
EB
330
74
100
AcDbEntity
  8
0
 62
     0
100
AcDbLine
 10
-466.1098864493994
 20
-1444.038564830395
 30
0.0
 11
-464.1884237290804
 21
-1442.117102110075
 31
0.0
  0
LINE
  5
EC
330
74
100
AcDbEntity
  8
0
 62
     0
100
AcDbLine
 10
-465.8839470045233
 20
-1444.166178776112
 30
0.0
 11
-463.9701586257039
 21
-1442.252390397292
 31
0.0
  0
LINE
  5
ED
330
74
100
AcDbEntity
  8
0
 62
     0
100
AcDbLine
 10
-465.6580075596471
 20
-1444.293792721829
 30
0.0
 11
-463.7518935223275
 21
-1442.387678684509
 31
0.0
  0
LINE
  5
EE
330
74
100
AcDbEntity
  8
0
 62
     0
100
AcDbLine
 10
-465.4320681147709
 20
-1444.421406667546
 30
0.0
 11
-464.4618602850605
 21
-1443.451198837835
 31
0.0
  0
LINE
  5
EF
330
74
100
AcDbEntity
  8
0
 62
     0
100
AcDbLine
 10
-465.2061286698947
 20
-1444.549020613263
 30
0.0
 11
-464.3856036714032
 21
-1443.728495614771
 31
0.0
  0
LINE
  5
F0
330
74
100
AcDbEntity
  8
0
 62
     0
100
AcDbLine
 10
-464.9801892250185
 20
-1444.67663455898
 30
0.0
 11
-464.3093470577458
 21
-1444.005792391707
 31
0.0
  0
LINE
  5
F1
330
74
100
AcDbEntity
  8
0
 62
     0
100
AcDbLine
 10
-464.7542497801423
 20
-1444.804248504697
 30
0.0
 11
-464.2330904440885
 21
-1444.283089168643
 31
0.0
  0
LINE
  5
F2
330
74
100
AcDbEntity
  8
0
 62
     0
100
AcDbLine
 10
-464.5283103352662
 20
-1444.931862450414
 30
0.0
 11
-464.1568338304311
 21
-1444.560385945579
 31
0.0
  0
LINE
  5
F3
330
74
100
AcDbEntity
  8
0
 62
     0
100
AcDbLine
 10
-464.3023708903901
 20
-1445.059476396131
 30
0.0
 11
-464.0805772167737
 21
-1444.837682722515
 31
0.0
  0
LINE
  5
F4
330
74
100
AcDbEntity
  8
0
 62
     0
100
AcDbLine
 10
-464.0764314455139
 20
-1445.187090341848
 30
0.0
 11
-464.0043206031164
 21
-1445.114979499451
 31
0.0
  0
ENDBLK
  5
F5
330
74
100
AcDbEntity
  8
0
100
AcDbBlockEnd
  0
BLOCK
  5
F6
330
75
100
AcDbEntity
  8
0
100
AcDbBlockBegin
  2
*X2
 70
     1
 10
0.0
 20
0.0
 30
0.0
  3
*X2
  1

  0
LINE
  5
F7
330
75
100
AcDbEntity
  8
0
 62
     0
100
AcDbLine
 10
-487.5
 20
-1235.0
 30
0.0
 11
-487.5
 21
-1235.0
 31
0.0
  0
LINE
  5
F8
330
75
100
AcDbEntity
  8
0
 62
     0
100
AcDbLine
 10
-486.2499999999999
 20
-1235.0
 30
0.0
 11
-486.2499999999999
 21
-1235.0
 31
0.0
  0
LINE
  5
F9
330
75
100
AcDbEntity
  8
0
 62
     0
100
AcDbLine
 10
-488.125
 20
-1233.75
 30
0.0
 11
-488.125
 21
-1233.75
 31
0.0
  0
LINE
  5
FA
330
75
100
AcDbEntity
  8
0
 62
     0
100
AcDbLine
 10
-486.875
 20
-1233.75
 30
0.0
 11
-486.875
 21
-1233.75
 31
0.0
  0
LINE
  5
FB
330
75
100
AcDbEntity
  8
0
 62
     0
100
AcDbLine
 10
-485.625
 20
-1233.75
 30
0.0
 11
-485.625
 21
-1233.75
 31
0.0
  0
LINE
  5
FC
330
75
100
AcDbEntity
  8
0
 62
     0
100
AcDbLine
 10
-488.75
 20
-1232.5
 30
0.0
 11
-488.75
 21
-1232.5
 31
0.0
  0
LINE
  5
FD
330
75
100
AcDbEntity
  8
0
 62
     0
100
AcDbLine
 10
-487.5
 20
-1232.5
 30
0.0
 11
-487.5
 21
-1232.5
 31
0.0
  0
LINE
  5
FE
330
75
100
AcDbEntity
  8
0
 62
     0
100
AcDbLine
 10
-486.2499999999999
 20
-1232.5
 30
0.0
 11
-486.2499999999999
 21
-1232.5
 31
0.0
  0
LINE
  5
FF
330
75
100
AcDbEntity
  8
0
 62
     0
100
AcDbLine
 10
-485.0
 20
-1232.5
 30
0.0
 11
-485.0
 21
-1232.5
 31
0.0
  0
LINE
  5
100
330
75
100
AcDbEntity
  8
0
 62
     0
100
AcDbLine
 10
-483.75
 20
-1232.5
 30
0.0
 11
-483.75
 21
-1232.5
 31
0.0
  0
LINE
  5
101
330
75
100
AcDbEntity
  8
0
 62
     0
100
AcDbLine
 10
-490.625
 20
-1231.25
 30
0.0
 11
-490.625
 21
-1231.25
 31
0.0
  0
LINE
  5
102
330
75
100
AcDbEntity
  8
0
 62
     0
100
AcDbLine
 10
-489.3749999999999
 20
-1231.25
 30
0.0
 11
-489.3749999999999
 21
-1231.25
 31
0.0
  0
LINE
  5
103
330
75
100
AcDbEntity
  8
0
 62
     0
100
AcDbLine
 10
-488.125
 20
-1231.25
 30
0.0
 11
-488.125
 21
-1231.25
 31
0.0
  0
LINE
  5
104
330
75
100
AcDbEntity
  8
0
 62
     0
100
AcDbLine
 10
-486.875
 20
-1231.25
 30
0.0
 11
-486.875
 21
-1231.25
 31
0.0
  0
LINE
  5
105
330
75
100
AcDbEntity
  8
0
 62
     0
100
AcDbLine
 10
-485.625
 20
-1231.25
 30
0.0
 11
-485.625
 21
-1231.25
 31
0.0
  0
LINE
  5
106
330
75
100
AcDbEntity
  8
0
 62
     0
100
AcDbLine
 10
-484.375
 20
-1231.25
 30
0.0
 11
-484.375
 21
-1231.25
 31
0.0
  0
LINE
  5
107
330
75
100
AcDbEntity
  8
0
 62
     0
100
AcDbLine
 10
-483.1249999999999
 20
-1231.25
 30
0.0
 11
-483.1249999999999
 21
-1231.25
 31
0.0
  0
LINE
  5
108
330
75
100
AcDbEntity
  8
0
 62
     0
100
AcDbLine
 10
-481.875
 20
-1231.25
 30
0.0
 11
-481.875
 21
-1231.25
 31
0.0
  0
LINE
  5
109
330
75
100
AcDbEntity
  8
0
 62
     0
100
AcDbLine
 10
-491.25
 20
-1230.0
 30
0.0
 11
-491.25
 21
-1230.0
 31
0.0
  0
LINE
  5
10A
330
75
100
AcDbEntity
  8
0
 62
     0
100
AcDbLine
 10
-490.0
 20
-1230.0
 30
0.0
 11
-490.0
 21
-1230.0
 31
0.0
  0
LINE
  5
10B
330
75
100
AcDbEntity
  8
0
 62
     0
100
AcDbLine
 10
-488.75
 20
-1230.0
 30
0.0
 11
-488.75
 21
-1230.0
 31
0.0
  0
LINE
  5
10C
330
75
100
AcDbEntity
  8
0
 62
     0
100
AcDbLine
 10
-487.5
 20
-1230.0
 30
0.0
 11
-487.5
 21
-1230.0
 31
0.0
  0
LINE
  5
10D
330
75
100
AcDbEntity
  8
0
 62
     0
100
AcDbLine
 10
-486.2499999999999
 20
-1230.0
 30
0.0
 11
-486.2499999999999
 21
-1230.0
 31
0.0
  0
LINE
  5
10E
330
75
100
AcDbEntity
  8
0
 62
     0
100
AcDbLine
 10
-485.0
 20
-1230.0
 30
0.0
 11
-485.0
 21
-1230.0
 31
0.0
  0
LINE
  5
10F
330
75
100
AcDbEntity
  8
0
 62
     0
100
AcDbLine
 10
-483.75
 20
-1230.0
 30
0.0
 11
-483.75
 21
-1230.0
 31
0.0
  0
LINE
  5
110
330
75
100
AcDbEntity
  8
0
 62
     0
100
AcDbLine
 10
-482.5
 20
-1230.0
 30
0.0
 11
-482.5
 21
-1230.0
 31
0.0
  0
LINE
  5
111
330
75
100
AcDbEntity
  8
0
 62
     0
100
AcDbLine
 10
-481.25
 20
-1230.0
 30
0.0
 11
-481.25
 21
-1230.0
 31
0.0
  0
LINE
  5
112
330
75
100
AcDbEntity
  8
0
 62
     0
100
AcDbLine
 10
-480.0
 20
-1230.0
 30
0.0
 11
-480.0
 21
-1230.0
 31
0.0
  0
LINE
  5
113
330
75
100
AcDbEntity
  8
0
 62
     0
100
AcDbLine
 10
-478.75
 20
-1230.0
 30
0.0
 11
-478.75
 21
-1230.0
 31
0.0
  0
LINE
  5
114
330
75
100
AcDbEntity
  8
0
 62
     0
100
AcDbLine
 10
-493.125
 20
-1228.75
 30
0.0
 11
-493.125
 21
-1228.75
 31
0.0
  0
LINE
  5
115
330
75
100
AcDbEntity
  8
0
 62
     0
100
AcDbLine
 10
-491.875
 20
-1228.75
 30
0.0
 11
-491.875
 21
-1228.75
 31
0.0
  0
LINE
  5
116
330
75
100
AcDbEntity
  8
0
 62
     0
100
AcDbLine
 10
-490.625
 20
-1228.75
 30
0.0
 11
-490.625
 21
-1228.75
 31
0.0
  0
LINE
  5
117
330
75
100
AcDbEntity
  8
0
 62
     0
100
AcDbLine
 10
-489.3749999999999
 20
-1228.75
 30
0.0
 11
-489.3749999999999
 21
-1228.75
 31
0.0
  0
LINE
  5
118
330
75
100
AcDbEntity
  8
0
 62
     0
100
AcDbLine
 10
-488.125
 20
-1228.75
 30
0.0
 11
-488.125
 21
-1228.75
 31
0.0
  0
LINE
  5
119
330
75
100
AcDbEntity
  8
0
 62
     0
100
AcDbLine
 10
-486.875
 20
-1228.75
 30
0.0
 11
-486.875
 21
-1228.75
 31
0.0
  0
LINE
  5
11A
330
75
100
AcDbEntity
  8
0
 62
     0
100
AcDbLine
 10
-485.625
 20
-1228.75
 30
0.0
 11
-485.625
 21
-1228.75
 31
0.0
  0
LINE
  5
11B
330
75
100
AcDbEntity
  8
0
 62
     0
100
AcDbLine
 10
-484.375
 20
-1228.75
 30
0.0
 11
-484.375
 21
-1228.75
 31
0.0
  0
LINE
  5
11C
330
75
100
AcDbEntity
  8
0
 62
     0
100
AcDbLine
 10
-483.1249999999999
 20
-1228.75
 30
0.0
 11
-483.1249999999999
 21
-1228.75
 31
0.0
  0
LINE
  5
11D
330
75
100
AcDbEntity
  8
0
 62
     0
100
AcDbLine
 10
-481.875
 20
-1228.75
 30
0.0
 11
-481.875
 21
-1228.75
 31
0.0
  0
LINE
  5
11E
330
75
100
AcDbEntity
  8
0
 62
     0
100
AcDbLine
 10
-480.625
 20
-1228.75
 30
0.0
 11
-480.625
 21
-1228.75
 31
0.0
  0
LINE
  5
11F
330
75
100
AcDbEntity
  8
0
 62
     0
100
AcDbLine
 10
-479.375
 20
-1228.75
 30
0.0
 11
-479.375
 21
-1228.75
 31
0.0
  0
LINE
  5
120
330
75
100
AcDbEntity
  8
0
 62
     0
100
AcDbLine
 10
-493.75
 20
-1227.5
 30
0.0
 11
-493.75
 21
-1227.5
 31
0.0
  0
LINE
  5
121
330
75
100
AcDbEntity
  8
0
 62
     0
100
AcDbLine
 10
-492.4999999999999
 20
-1227.5
 30
0.0
 11
-492.4999999999999
 21
-1227.5
 31
0.0
  0
LINE
  5
122
330
75
100
AcDbEntity
  8
0
 62
     0
100
AcDbLine
 10
-491.25
 20
-1227.5
 30
0.0
 11
-491.25
 21
-1227.5
 31
0.0
  0
LINE
  5
123
330
75
100
AcDbEntity
  8
0
 62
     0
100
AcDbLine
 10
-490.0
 20
-1227.5
 30
0.0
 11
-490.0
 21
-1227.5
 31
0.0
  0
LINE
  5
124
330
75
100
AcDbEntity
  8
0
 62
     0
100
AcDbLine
 10
-488.75
 20
-1227.5
 30
0.0
 11
-488.75
 21
-1227.5
 31
0.0
  0
LINE
  5
125
330
75
100
AcDbEntity
  8
0
 62
     0
100
AcDbLine
 10
-487.5
 20
-1227.5
 30
0.0
 11
-487.5
 21
-1227.5
 31
0.0
  0
LINE
  5
126
330
75
100
AcDbEntity
  8
0
 62
     0
100
AcDbLine
 10
-486.2499999999999
 20
-1227.5
 30
0.0
 11
-486.2499999999999
 21
-1227.5
 31
0.0
  0
LINE
  5
127
330
75
100
AcDbEntity
  8
0
 62
     0
100
AcDbLine
 10
-485.0
 20
-1227.5
 30
0.0
 11
-485.0
 21
-1227.5
 31
0.0
  0
LINE
  5
128
330
75
100
AcDbEntity
  8
0
 62
     0
100
AcDbLine
 10
-483.75
 20
-1227.5
 30
0.0
 11
-483.75
 21
-1227.5
 31
0.0
  0
LINE
  5
129
330
75
100
AcDbEntity
  8
0
 62
     0
100
AcDbLine
 10
-482.5
 20
-1227.5
 30
0.0
 11
-482.5
 21
-1227.5
 31
0.0
  0
LINE
  5
12A
330
75
100
AcDbEntity
  8
0
 62
     0
100
AcDbLine
 10
-481.25
 20
-1227.5
 30
0.0
 11
-481.25
 21
-1227.5
 31
0.0
  0
LINE
  5
12B
330
75
100
AcDbEntity
  8
0
 62
     0
100
AcDbLine
 10
-480.0
 20
-1227.5
 30
0.0
 11
-480.0
 21
-1227.5
 31
0.0
  0
LINE
  5
12C
330
75
100
AcDbEntity
  8
0
 62
     0
100
AcDbLine
 10
-495.6249999999999
 20
-1226.25
 30
0.0
 11
-495.6249999999999
 21
-1226.25
 31
0.0
  0
LINE
  5
12D
330
75
100
AcDbEntity
  8
0
 62
     0
100
AcDbLine
 10
-494.375
 20
-1226.25
 30
0.0
 11
-494.375
 21
-1226.25
 31
0.0
  0
LINE
  5
12E
330
75
100
AcDbEntity
  8
0
 62
     0
100
AcDbLine
 10
-493.125
 20
-1226.25
 30
0.0
 11
-493.125
 21
-1226.25
 31
0.0
  0
LINE
  5
12F
330
75
100
AcDbEntity
  8
0
 62
     0
100
AcDbLine
 10
-491.875
 20
-1226.25
 30
0.0
 11
-491.875
 21
-1226.25
 31
0.0
  0
LINE
  5
130
330
75
100
AcDbEntity
  8
0
 62
     0
100
AcDbLine
 10
-490.625
 20
-1226.25
 30
0.0
 11
-490.625
 21
-1226.25
 31
0.0
  0
LINE
  5
131
330
75
100
AcDbEntity
  8
0
 62
     0
100
AcDbLine
 10
-489.3749999999999
 20
-1226.25
 30
0.0
 11
-489.3749999999999
 21
-1226.25
 31
0.0
  0
LINE
  5
132
330
75
100
AcDbEntity
  8
0
 62
     0
100
AcDbLine
 10
-488.125
 20
-1226.25
 30
0.0
 11
-488.125
 21
-1226.25
 31
0.0
  0
LINE
  5
133
330
75
100
AcDbEntity
  8
0
 62
     0
100
AcDbLine
 10
-486.875
 20
-1226.25
 30
0.0
 11
-486.875
 21
-1226.25
 31
0.0
  0
LINE
  5
134
330
75
100
AcDbEntity
  8
0
 62
     0
100
AcDbLine
 10
-485.625
 20
-1226.25
 30
0.0
 11
-485.625
 21
-1226.25
 31
0.0
  0
LINE
  5
135
330
75
100
AcDbEntity
  8
0
 62
     0
100
AcDbLine
 10
-484.375
 20
-1226.25
 30
0.0
 11
-484.375
 21
-1226.25
 31
0.0
  0
LINE
  5
136
330
75
100
AcDbEntity
  8
0
 62
     0
100
AcDbLine
 10
-483.1249999999999
 20
-1226.25
 30
0.0
 11
-483.1249999999999
 21
-1226.25
 31
0.0
  0
LINE
  5
137
330
75
100
AcDbEntity
  8
0
 62
     0
100
AcDbLine
 10
-481.875
 20
-1226.25
 30
0.0
 11
-481.875
 21
-1226.25
 31
0.0
  0
LINE
  5
138
330
75
100
AcDbEntity
  8
0
 62
     0
100
AcDbLine
 10
-496.25
 20
-1225.0
 30
0.0
 11
-496.25
 21
-1225.0
 31
0.0
  0
LINE
  5
139
330
75
100
AcDbEntity
  8
0
 62
     0
100
AcDbLine
 10
-495.0
 20
-1225.0
 30
0.0
 11
-495.0
 21
-1225.0
 31
0.0
  0
LINE
  5
13A
330
75
100
AcDbEntity
  8
0
 62
     0
100
AcDbLine
 10
-493.75
 20
-1225.0
 30
0.0
 11
-493.75
 21
-1225.0
 31
0.0
  0
LINE
  5
13B
330
75
100
AcDbEntity
  8
0
 62
     0
100
AcDbLine
 10
-492.4999999999999
 20
-1225.0
 30
0.0
 11
-492.4999999999999
 21
-1225.0
 31
0.0
  0
LINE
  5
13C
330
75
100
AcDbEntity
  8
0
 62
     0
100
AcDbLine
 10
-491.25
 20
-1225.0
 30
0.0
 11
-491.25
 21
-1225.0
 31
0.0
  0
LINE
  5
13D
330
75
100
AcDbEntity
  8
0
 62
     0
100
AcDbLine
 10
-490.0
 20
-1225.0
 30
0.0
 11
-490.0
 21
-1225.0
 31
0.0
  0
LINE
  5
13E
330
75
100
AcDbEntity
  8
0
 62
     0
100
AcDbLine
 10
-488.75
 20
-1225.0
 30
0.0
 11
-488.75
 21
-1225.0
 31
0.0
  0
LINE
  5
13F
330
75
100
AcDbEntity
  8
0
 62
     0
100
AcDbLine
 10
-487.5
 20
-1225.0
 30
0.0
 11
-487.5
 21
-1225.0
 31
0.0
  0
LINE
  5
140
330
75
100
AcDbEntity
  8
0
 62
     0
100
AcDbLine
 10
-486.2499999999999
 20
-1225.0
 30
0.0
 11
-486.2499999999999
 21
-1225.0
 31
0.0
  0
LINE
  5
141
330
75
100
AcDbEntity
  8
0
 62
     0
100
AcDbLine
 10
-485.0
 20
-1225.0
 30
0.0
 11
-485.0
 21
-1225.0
 31
0.0
  0
LINE
  5
142
330
75
100
AcDbEntity
  8
0
 62
     0
100
AcDbLine
 10
-483.75
 20
-1225.0
 30
0.0
 11
-483.75
 21
-1225.0
 31
0.0
  0
LINE
  5
143
330
75
100
AcDbEntity
  8
0
 62
     0
100
AcDbLine
 10
-496.875
 20
-1223.75
 30
0.0
 11
-496.875
 21
-1223.75
 31
0.0
  0
LINE
  5
144
330
75
100
AcDbEntity
  8
0
 62
     0
100
AcDbLine
 10
-495.6249999999999
 20
-1223.75
 30
0.0
 11
-495.6249999999999
 21
-1223.75
 31
0.0
  0
LINE
  5
145
330
75
100
AcDbEntity
  8
0
 62
     0
100
AcDbLine
 10
-494.375
 20
-1223.75
 30
0.0
 11
-494.375
 21
-1223.75
 31
0.0
  0
LINE
  5
146
330
75
100
AcDbEntity
  8
0
 62
     0
100
AcDbLine
 10
-493.125
 20
-1223.75
 30
0.0
 11
-493.125
 21
-1223.75
 31
0.0
  0
LINE
  5
147
330
75
100
AcDbEntity
  8
0
 62
     0
100
AcDbLine
 10
-491.875
 20
-1223.75
 30
0.0
 11
-491.875
 21
-1223.75
 31
0.0
  0
LINE
  5
148
330
75
100
AcDbEntity
  8
0
 62
     0
100
AcDbLine
 10
-490.625
 20
-1223.75
 30
0.0
 11
-490.625
 21
-1223.75
 31
0.0
  0
LINE
  5
149
330
75
100
AcDbEntity
  8
0
 62
     0
100
AcDbLine
 10
-489.3749999999999
 20
-1223.75
 30
0.0
 11
-489.3749999999999
 21
-1223.75
 31
0.0
  0
LINE
  5
14A
330
75
100
AcDbEntity
  8
0
 62
     0
100
AcDbLine
 10
-488.125
 20
-1223.75
 30
0.0
 11
-488.125
 21
-1223.75
 31
0.0
  0
LINE
  5
14B
330
75
100
AcDbEntity
  8
0
 62
     0
100
AcDbLine
 10
-486.875
 20
-1223.75
 30
0.0
 11
-486.875
 21
-1223.75
 31
0.0
  0
LINE
  5
14C
330
75
100
AcDbEntity
  8
0
 62
     0
100
AcDbLine
 10
-485.625
 20
-1223.75
 30
0.0
 11
-485.625
 21
-1223.75
 31
0.0
  0
LINE
  5
14D
330
75
100
AcDbEntity
  8
0
 62
     0
100
AcDbLine
 10
-498.7499999999999
 20
-1222.5
 30
0.0
 11
-498.7499999999999
 21
-1222.5
 31
0.0
  0
LINE
  5
14E
330
75
100
AcDbEntity
  8
0
 62
     0
100
AcDbLine
 10
-497.5
 20
-1222.5
 30
0.0
 11
-497.5
 21
-1222.5
 31
0.0
  0
LINE
  5
14F
330
75
100
AcDbEntity
  8
0
 62
     0
100
AcDbLine
 10
-496.25
 20
-1222.5
 30
0.0
 11
-496.25
 21
-1222.5
 31
0.0
  0
LINE
  5
150
330
75
100
AcDbEntity
  8
0
 62
     0
100
AcDbLine
 10
-495.0
 20
-1222.5
 30
0.0
 11
-495.0
 21
-1222.5
 31
0.0
  0
LINE
  5
151
330
75
100
AcDbEntity
  8
0
 62
     0
100
AcDbLine
 10
-493.75
 20
-1222.5
 30
0.0
 11
-493.75
 21
-1222.5
 31
0.0
  0
LINE
  5
152
330
75
100
AcDbEntity
  8
0
 62
     0
100
AcDbLine
 10
-492.4999999999999
 20
-1222.5
 30
0.0
 11
-492.4999999999999
 21
-1222.5
 31
0.0
  0
LINE
  5
153
330
75
100
AcDbEntity
  8
0
 62
     0
100
AcDbLine
 10
-491.25
 20
-1222.5
 30
0.0
 11
-491.25
 21
-1222.5
 31
0.0
  0
LINE
  5
154
330
75
100
AcDbEntity
  8
0
 62
     0
100
AcDbLine
 10
-490.0
 20
-1222.5
 30
0.0
 11
-490.0
 21
-1222.5
 31
0.0
  0
LINE
  5
155
330
75
100
AcDbEntity
  8
0
 62
     0
100
AcDbLine
 10
-488.75
 20
-1222.5
 30
0.0
 11
-488.75
 21
-1222.5
 31
0.0
  0
LINE
  5
156
330
75
100
AcDbEntity
  8
0
 62
     0
100
AcDbLine
 10
-487.5
 20
-1222.5
 30
0.0
 11
-487.5
 21
-1222.5
 31
0.0
  0
LINE
  5
157
330
75
100
AcDbEntity
  8
0
 62
     0
100
AcDbLine
 10
-486.2499999999999
 20
-1222.5
 30
0.0
 11
-486.2499999999999
 21
-1222.5
 31
0.0
  0
LINE
  5
158
330
75
100
AcDbEntity
  8
0
 62
     0
100
AcDbLine
 10
-499.375
 20
-1221.25
 30
0.0
 11
-499.375
 21
-1221.25
 31
0.0
  0
LINE
  5
159
330
75
100
AcDbEntity
  8
0
 62
     0
100
AcDbLine
 10
-498.125
 20
-1221.25
 30
0.0
 11
-498.125
 21
-1221.25
 31
0.0
  0
LINE
  5
15A
330
75
100
AcDbEntity
  8
0
 62
     0
100
AcDbLine
 10
-496.875
 20
-1221.25
 30
0.0
 11
-496.875
 21
-1221.25
 31
0.0
  0
LINE
  5
15B
330
75
100
AcDbEntity
  8
0
 62
     0
100
AcDbLine
 10
-495.6249999999999
 20
-1221.25
 30
0.0
 11
-495.6249999999999
 21
-1221.25
 31
0.0
  0
LINE
  5
15C
330
75
100
AcDbEntity
  8
0
 62
     0
100
AcDbLine
 10
-494.375
 20
-1221.25
 30
0.0
 11
-494.375
 21
-1221.25
 31
0.0
  0
LINE
  5
15D
330
75
100
AcDbEntity
  8
0
 62
     0
100
AcDbLine
 10
-493.125
 20
-1221.25
 30
0.0
 11
-493.125
 21
-1221.25
 31
0.0
  0
LINE
  5
15E
330
75
100
AcDbEntity
  8
0
 62
     0
100
AcDbLine
 10
-491.875
 20
-1221.25
 30
0.0
 11
-491.875
 21
-1221.25
 31
0.0
  0
LINE
  5
15F
330
75
100
AcDbEntity
  8
0
 62
     0
100
AcDbLine
 10
-490.625
 20
-1221.25
 30
0.0
 11
-490.625
 21
-1221.25
 31
0.0
  0
LINE
  5
160
330
75
100
AcDbEntity
  8
0
 62
     0
100
AcDbLine
 10
-489.3749999999999
 20
-1221.25
 30
0.0
 11
-489.3749999999999
 21
-1221.25
 31
0.0
  0
LINE
  5
161
330
75
100
AcDbEntity
  8
0
 62
     0
100
AcDbLine
 10
-488.125
 20
-1221.25
 30
0.0
 11
-488.125
 21
-1221.25
 31
0.0
  0
LINE
  5
162
330
75
100
AcDbEntity
  8
0
 62
     0
100
AcDbLine
 10
-500.0
 20
-1220.0
 30
0.0
 11
-500.0
 21
-1220.0
 31
0.0
  0
LINE
  5
163
330
75
100
AcDbEntity
  8
0
 62
     0
100
AcDbLine
 10
-498.7499999999999
 20
-1220.0
 30
0.0
 11
-498.7499999999999
 21
-1220.0
 31
0.0
  0
LINE
  5
164
330
75
100
AcDbEntity
  8
0
 62
     0
100
AcDbLine
 10
-497.5
 20
-1220.0
 30
0.0
 11
-497.5
 21
-1220.0
 31
0.0
  0
LINE
  5
165
330
75
100
AcDbEntity
  8
0
 62
     0
100
AcDbLine
 10
-496.25
 20
-1220.0
 30
0.0
 11
-496.25
 21
-1220.0
 31
0.0
  0
LINE
  5
166
330
75
100
AcDbEntity
  8
0
 62
     0
100
AcDbLine
 10
-495.0
 20
-1220.0
 30
0.0
 11
-495.0
 21
-1220.0
 31
0.0
  0
LINE
  5
167
330
75
100
AcDbEntity
  8
0
 62
     0
100
AcDbLine
 10
-493.75
 20
-1220.0
 30
0.0
 11
-493.75
 21
-1220.0
 31
0.0
  0
LINE
  5
168
330
75
100
AcDbEntity
  8
0
 62
     0
100
AcDbLine
 10
-492.4999999999999
 20
-1220.0
 30
0.0
 11
-492.4999999999999
 21
-1220.0
 31
0.0
  0
LINE
  5
169
330
75
100
AcDbEntity
  8
0
 62
     0
100
AcDbLine
 10
-491.25
 20
-1220.0
 30
0.0
 11
-491.25
 21
-1220.0
 31
0.0
  0
LINE
  5
16A
330
75
100
AcDbEntity
  8
0
 62
     0
100
AcDbLine
 10
-490.0
 20
-1220.0
 30
0.0
 11
-490.0
 21
-1220.0
 31
0.0
  0
LINE
  5
16B
330
75
100
AcDbEntity
  8
0
 62
     0
100
AcDbLine
 10
-488.75
 20
-1220.0
 30
0.0
 11
-488.75
 21
-1220.0
 31
0.0
  0
LINE
  5
16C
330
75
100
AcDbEntity
  8
0
 62
     0
100
AcDbLine
 10
-500.625
 20
-1218.75
 30
0.0
 11
-500.625
 21
-1218.75
 31
0.0
  0
LINE
  5
16D
330
75
100
AcDbEntity
  8
0
 62
     0
100
AcDbLine
 10
-499.375
 20
-1218.75
 30
0.0
 11
-499.375
 21
-1218.75
 31
0.0
  0
LINE
  5
16E
330
75
100
AcDbEntity
  8
0
 62
     0
100
AcDbLine
 10
-498.125
 20
-1218.75
 30
0.0
 11
-498.125
 21
-1218.75
 31
0.0
  0
LINE
  5
16F
330
75
100
AcDbEntity
  8
0
 62
     0
100
AcDbLine
 10
-496.875
 20
-1218.75
 30
0.0
 11
-496.875
 21
-1218.75
 31
0.0
  0
LINE
  5
170
330
75
100
AcDbEntity
  8
0
 62
     0
100
AcDbLine
 10
-495.6249999999999
 20
-1218.75
 30
0.0
 11
-495.6249999999999
 21
-1218.75
 31
0.0
  0
LINE
  5
171
330
75
100
AcDbEntity
  8
0
 62
     0
100
AcDbLine
 10
-494.375
 20
-1218.75
 30
0.0
 11
-494.375
 21
-1218.75
 31
0.0
  0
LINE
  5
172
330
75
100
AcDbEntity
  8
0
 62
     0
100
AcDbLine
 10
-493.125
 20
-1218.75
 30
0.0
 11
-493.125
 21
-1218.75
 31
0.0
  0
LINE
  5
173
330
75
100
AcDbEntity
  8
0
 62
     0
100
AcDbLine
 10
-491.875
 20
-1218.75
 30
0.0
 11
-491.875
 21
-1218.75
 31
0.0
  0
LINE
  5
174
330
75
100
AcDbEntity
  8
0
 62
     0
100
AcDbLine
 10
-490.625
 20
-1218.75
 30
0.0
 11
-490.625
 21
-1218.75
 31
0.0
  0
LINE
  5
175
330
75
100
AcDbEntity
  8
0
 62
     0
100
AcDbLine
 10
-489.3749999999999
 20
-1218.75
 30
0.0
 11
-489.3749999999999
 21
-1218.75
 31
0.0
  0
LINE
  5
176
330
75
100
AcDbEntity
  8
0
 62
     0
100
AcDbLine
 10
-500.0
 20
-1217.5
 30
0.0
 11
-500.0
 21
-1217.5
 31
0.0
  0
LINE
  5
177
330
75
100
AcDbEntity
  8
0
 62
     0
100
AcDbLine
 10
-498.7499999999999
 20
-1217.5
 30
0.0
 11
-498.7499999999999
 21
-1217.5
 31
0.0
  0
LINE
  5
178
330
75
100
AcDbEntity
  8
0
 62
     0
100
AcDbLine
 10
-500.625
 20
-1216.25
 30
0.0
 11
-500.625
 21
-1216.25
 31
0.0
  0
LINE
  5
179
330
75
100
AcDbEntity
  8
0
 62
     0
100
AcDbLine
 10
-470.0
 20
-1147.5
 30
0.0
 11
-470.0
 21
-1147.5
 31
0.0
  0
LINE
  5
17A
330
75
100
AcDbEntity
  8
0
 62
     0
100
AcDbLine
 10
-468.75
 20
-1147.5
 30
0.0
 11
-468.75
 21
-1147.5
 31
0.0
  0
LINE
  5
17B
330
75
100
AcDbEntity
  8
0
 62
     0
100
AcDbLine
 10
-467.4999999999999
 20
-1147.5
 30
0.0
 11
-467.4999999999999
 21
-1147.5
 31
0.0
  0
LINE
  5
17C
330
75
100
AcDbEntity
  8
0
 62
     0
100
AcDbLine
 10
-433.75
 20
-1147.5
 30
0.0
 11
-433.75
 21
-1147.5
 31
0.0
  0
LINE
  5
17D
330
75
100
AcDbEntity
  8
0
 62
     0
100
AcDbLine
 10
-470.6249999999999
 20
-1146.25
 30
0.0
 11
-470.6249999999999
 21
-1146.25
 31
0.0
  0
LINE
  5
17E
330
75
100
AcDbEntity
  8
0
 62
     0
100
AcDbLine
 10
-469.375
 20
-1146.25
 30
0.0
 11
-469.375
 21
-1146.25
 31
0.0
  0
LINE
  5
17F
330
75
100
AcDbEntity
  8
0
 62
     0
100
AcDbLine
 10
-468.125
 20
-1146.25
 30
0.0
 11
-468.125
 21
-1146.25
 31
0.0
  0
LINE
  5
180
330
75
100
AcDbEntity
  8
0
 62
     0
100
AcDbLine
 10
-466.875
 20
-1146.25
 30
0.0
 11
-466.875
 21
-1146.25
 31
0.0
  0
LINE
  5
181
330
75
100
AcDbEntity
  8
0
 62
     0
100
AcDbLine
 10
-434.375
 20
-1146.25
 30
0.0
 11
-434.375
 21
-1146.25
 31
0.0
  0
LINE
  5
182
330
75
100
AcDbEntity
  8
0
 62
     0
100
AcDbLine
 10
-471.25
 20
-1145.0
 30
0.0
 11
-471.25
 21
-1145.0
 31
0.0
  0
LINE
  5
183
330
75
100
AcDbEntity
  8
0
 62
     0
100
AcDbLine
 10
-470.0
 20
-1145.0
 30
0.0
 11
-470.0
 21
-1145.0
 31
0.0
  0
LINE
  5
184
330
75
100
AcDbEntity
  8
0
 62
     0
100
AcDbLine
 10
-468.75
 20
-1145.0
 30
0.0
 11
-468.75
 21
-1145.0
 31
0.0
  0
LINE
  5
185
330
75
100
AcDbEntity
  8
0
 62
     0
100
AcDbLine
 10
-467.4999999999999
 20
-1145.0
 30
0.0
 11
-467.4999999999999
 21
-1145.0
 31
0.0
  0
LINE
  5
186
330
75
100
AcDbEntity
  8
0
 62
     0
100
AcDbLine
 10
-466.25
 20
-1145.0
 30
0.0
 11
-466.25
 21
-1145.0
 31
0.0
  0
LINE
  5
187
330
75
100
AcDbEntity
  8
0
 62
     0
100
AcDbLine
 10
-435.0
 20
-1145.0
 30
0.0
 11
-435.0
 21
-1145.0
 31
0.0
  0
LINE
  5
188
330
75
100
AcDbEntity
  8
0
 62
     0
100
AcDbLine
 10
-471.875
 20
-1143.75
 30
0.0
 11
-471.875
 21
-1143.75
 31
0.0
  0
LINE
  5
189
330
75
100
AcDbEntity
  8
0
 62
     0
100
AcDbLine
 10
-470.6249999999999
 20
-1143.75
 30
0.0
 11
-470.6249999999999
 21
-1143.75
 31
0.0
  0
LINE
  5
18A
330
75
100
AcDbEntity
  8
0
 62
     0
100
AcDbLine
 10
-469.375
 20
-1143.75
 30
0.0
 11
-469.375
 21
-1143.75
 31
0.0
  0
LINE
  5
18B
330
75
100
AcDbEntity
  8
0
 62
     0
100
AcDbLine
 10
-468.125
 20
-1143.75
 30
0.0
 11
-468.125
 21
-1143.75
 31
0.0
  0
LINE
  5
18C
330
75
100
AcDbEntity
  8
0
 62
     0
100
AcDbLine
 10
-466.875
 20
-1143.75
 30
0.0
 11
-466.875
 21
-1143.75
 31
0.0
  0
LINE
  5
18D
330
75
100
AcDbEntity
  8
0
 62
     0
100
AcDbLine
 10
-465.625
 20
-1143.75
 30
0.0
 11
-465.625
 21
-1143.75
 31
0.0
  0
LINE
  5
18E
330
75
100
AcDbEntity
  8
0
 62
     0
100
AcDbLine
 10
-471.25
 20
-1142.5
 30
0.0
 11
-471.25
 21
-1142.5
 31
0.0
  0
LINE
  5
18F
330
75
100
AcDbEntity
  8
0
 62
     0
100
AcDbLine
 10
-470.0
 20
-1142.5
 30
0.0
 11
-470.0
 21
-1142.5
 31
0.0
  0
LINE
  5
190
330
75
100
AcDbEntity
  8
0
 62
     0
100
AcDbLine
 10
-468.75
 20
-1142.5
 30
0.0
 11
-468.75
 21
-1142.5
 31
0.0
  0
LINE
  5
191
330
75
100
AcDbEntity
  8
0
 62
     0
100
AcDbLine
 10
-467.4999999999999
 20
-1142.5
 30
0.0
 11
-467.4999999999999
 21
-1142.5
 31
0.0
  0
LINE
  5
192
330
75
100
AcDbEntity
  8
0
 62
     0
100
AcDbLine
 10
-466.25
 20
-1142.5
 30
0.0
 11
-466.25
 21
-1142.5
 31
0.0
  0
LINE
  5
193
330
75
100
AcDbEntity
  8
0
 62
     0
100
AcDbLine
 10
-465.0
 20
-1142.5
 30
0.0
 11
-465.0
 21
-1142.5
 31
0.0
  0
LINE
  5
194
330
75
100
AcDbEntity
  8
0
 62
     0
100
AcDbLine
 10
-463.75
 20
-1142.5
 30
0.0
 11
-463.75
 21
-1142.5
 31
0.0
  0
LINE
  5
195
330
75
100
AcDbEntity
  8
0
 62
     0
100
AcDbLine
 10
-471.875
 20
-1141.25
 30
0.0
 11
-471.875
 21
-1141.25
 31
0.0
  0
LINE
  5
196
330
75
100
AcDbEntity
  8
0
 62
     0
100
AcDbLine
 10
-470.6249999999999
 20
-1141.25
 30
0.0
 11
-470.6249999999999
 21
-1141.25
 31
0.0
  0
LINE
  5
197
330
75
100
AcDbEntity
  8
0
 62
     0
100
AcDbLine
 10
-469.375
 20
-1141.25
 30
0.0
 11
-469.375
 21
-1141.25
 31
0.0
  0
LINE
  5
198
330
75
100
AcDbEntity
  8
0
 62
     0
100
AcDbLine
 10
-468.125
 20
-1141.25
 30
0.0
 11
-468.125
 21
-1141.25
 31
0.0
  0
LINE
  5
199
330
75
100
AcDbEntity
  8
0
 62
     0
100
AcDbLine
 10
-466.875
 20
-1141.25
 30
0.0
 11
-466.875
 21
-1141.25
 31
0.0
  0
LINE
  5
19A
330
75
100
AcDbEntity
  8
0
 62
     0
100
AcDbLine
 10
-465.625
 20
-1141.25
 30
0.0
 11
-465.625
 21
-1141.25
 31
0.0
  0
LINE
  5
19B
330
75
100
AcDbEntity
  8
0
 62
     0
100
AcDbLine
 10
-464.3749999999999
 20
-1141.25
 30
0.0
 11
-464.3749999999999
 21
-1141.25
 31
0.0
  0
LINE
  5
19C
330
75
100
AcDbEntity
  8
0
 62
     0
100
AcDbLine
 10
-472.5
 20
-1140.0
 30
0.0
 11
-472.5
 21
-1140.0
 31
0.0
  0
LINE
  5
19D
330
75
100
AcDbEntity
  8
0
 62
     0
100
AcDbLine
 10
-471.25
 20
-1140.0
 30
0.0
 11
-471.25
 21
-1140.0
 31
0.0
  0
LINE
  5
19E
330
75
100
AcDbEntity
  8
0
 62
     0
100
AcDbLine
 10
-470.0
 20
-1140.0
 30
0.0
 11
-470.0
 21
-1140.0
 31
0.0
  0
LINE
  5
19F
330
75
100
AcDbEntity
  8
0
 62
     0
100
AcDbLine
 10
-468.75
 20
-1140.0
 30
0.0
 11
-468.75
 21
-1140.0
 31
0.0
  0
LINE
  5
1A0
330
75
100
AcDbEntity
  8
0
 62
     0
100
AcDbLine
 10
-467.4999999999999
 20
-1140.0
 30
0.0
 11
-467.4999999999999
 21
-1140.0
 31
0.0
  0
LINE
  5
1A1
330
75
100
AcDbEntity
  8
0
 62
     0
100
AcDbLine
 10
-466.25
 20
-1140.0
 30
0.0
 11
-466.25
 21
-1140.0
 31
0.0
  0
LINE
  5
1A2
330
75
100
AcDbEntity
  8
0
 62
     0
100
AcDbLine
 10
-473.125
 20
-1138.75
 30
0.0
 11
-473.125
 21
-1138.75
 31
0.0
  0
LINE
  5
1A3
330
75
100
AcDbEntity
  8
0
 62
     0
100
AcDbLine
 10
-471.875
 20
-1138.75
 30
0.0
 11
-471.875
 21
-1138.75
 31
0.0
  0
LINE
  5
1A4
330
75
100
AcDbEntity
  8
0
 62
     0
100
AcDbLine
 10
-470.6249999999999
 20
-1138.75
 30
0.0
 11
-470.6249999999999
 21
-1138.75
 31
0.0
  0
LINE
  5
1A5
330
75
100
AcDbEntity
  8
0
 62
     0
100
AcDbLine
 10
-469.375
 20
-1138.75
 30
0.0
 11
-469.375
 21
-1138.75
 31
0.0
  0
LINE
  5
1A6
330
75
100
AcDbEntity
  8
0
 62
     0
100
AcDbLine
 10
-468.125
 20
-1138.75
 30
0.0
 11
-468.125
 21
-1138.75
 31
0.0
  0
LINE
  5
1A7
330
75
100
AcDbEntity
  8
0
 62
     0
100
AcDbLine
 10
-473.7499999999999
 20
-1137.5
 30
0.0
 11
-473.7499999999999
 21
-1137.5
 31
0.0
  0
LINE
  5
1A8
330
75
100
AcDbEntity
  8
0
 62
     0
100
AcDbLine
 10
-472.5
 20
-1137.5
 30
0.0
 11
-472.5
 21
-1137.5
 31
0.0
  0
LINE
  5
1A9
330
75
100
AcDbEntity
  8
0
 62
     0
100
AcDbLine
 10
-471.25
 20
-1137.5
 30
0.0
 11
-471.25
 21
-1137.5
 31
0.0
  0
LINE
  5
1AA
330
75
100
AcDbEntity
  8
0
 62
     0
100
AcDbLine
 10
-470.0
 20
-1137.5
 30
0.0
 11
-470.0
 21
-1137.5
 31
0.0
  0
LINE
  5
1AB
330
75
100
AcDbEntity
  8
0
 62
     0
100
AcDbLine
 10
-474.375
 20
-1136.25
 30
0.0
 11
-474.375
 21
-1136.25
 31
0.0
  0
LINE
  5
1AC
330
75
100
AcDbEntity
  8
0
 62
     0
100
AcDbLine
 10
-473.125
 20
-1136.25
 30
0.0
 11
-473.125
 21
-1136.25
 31
0.0
  0
LINE
  5
1AD
330
75
100
AcDbEntity
  8
0
 62
     0
100
AcDbLine
 10
-471.875
 20
-1136.25
 30
0.0
 11
-471.875
 21
-1136.25
 31
0.0
  0
LINE
  5
1AE
330
75
100
AcDbEntity
  8
0
 62
     0
100
AcDbLine
 10
-473.7499999999999
 20
-1135.0
 30
0.0
 11
-473.7499999999999
 21
-1135.0
 31
0.0
  0
LINE
  5
1AF
330
75
100
AcDbEntity
  8
0
 62
     0
100
AcDbLine
 10
-455.0
 20
-1337.5
 30
0.0
 11
-455.0
 21
-1337.5
 31
0.0
  0
LINE
  5
1B0
330
75
100
AcDbEntity
  8
0
 62
     0
100
AcDbLine
 10
-455.625
 20
-1338.75
 30
0.0
 11
-455.625
 21
-1338.75
 31
0.0
  0
LINE
  5
1B1
330
75
100
AcDbEntity
  8
0
 62
     0
100
AcDbLine
 10
-454.375
 20
-1338.75
 30
0.0
 11
-454.375
 21
-1338.75
 31
0.0
  0
LINE
  5
1B2
330
75
100
AcDbEntity
  8
0
 62
     0
100
AcDbLine
 10
-453.125
 20
-1338.75
 30
0.0
 11
-453.125
 21
-1338.75
 31
0.0
  0
LINE
  5
1B3
330
75
100
AcDbEntity
  8
0
 62
     0
100
AcDbLine
 10
-455.0
 20
-1340.0
 30
0.0
 11
-455.0
 21
-1340.0
 31
0.0
  0
LINE
  5
1B4
330
75
100
AcDbEntity
  8
0
 62
     0
100
AcDbLine
 10
-453.75
 20
-1340.0
 30
0.0
 11
-453.75
 21
-1340.0
 31
0.0
  0
LINE
  5
1B5
330
75
100
AcDbEntity
  8
0
 62
     0
100
AcDbLine
 10
-452.5
 20
-1340.0
 30
0.0
 11
-452.5
 21
-1340.0
 31
0.0
  0
LINE
  5
1B6
330
75
100
AcDbEntity
  8
0
 62
     0
100
AcDbLine
 10
-451.25
 20
-1340.0
 30
0.0
 11
-451.25
 21
-1340.0
 31
0.0
  0
LINE
  5
1B7
330
75
100
AcDbEntity
  8
0
 62
     0
100
AcDbLine
 10
-454.375
 20
-1341.25
 30
0.0
 11
-454.375
 21
-1341.25
 31
0.0
  0
LINE
  5
1B8
330
75
100
AcDbEntity
  8
0
 62
     0
100
AcDbLine
 10
-453.125
 20
-1341.25
 30
0.0
 11
-453.125
 21
-1341.25
 31
0.0
  0
LINE
  5
1B9
330
75
100
AcDbEntity
  8
0
 62
     0
100
AcDbLine
 10
-451.8749999999999
 20
-1341.25
 30
0.0
 11
-451.8749999999999
 21
-1341.25
 31
0.0
  0
LINE
  5
1BA
330
75
100
AcDbEntity
  8
0
 62
     0
100
AcDbLine
 10
-450.625
 20
-1341.25
 30
0.0
 11
-450.625
 21
-1341.25
 31
0.0
  0
LINE
  5
1BB
330
75
100
AcDbEntity
  8
0
 62
     0
100
AcDbLine
 10
-455.0
 20
-1342.5
 30
0.0
 11
-455.0
 21
-1342.5
 31
0.0
  0
LINE
  5
1BC
330
75
100
AcDbEntity
  8
0
 62
     0
100
AcDbLine
 10
-453.75
 20
-1342.5
 30
0.0
 11
-453.75
 21
-1342.5
 31
0.0
  0
LINE
  5
1BD
330
75
100
AcDbEntity
  8
0
 62
     0
100
AcDbLine
 10
-452.5
 20
-1342.5
 30
0.0
 11
-452.5
 21
-1342.5
 31
0.0
  0
LINE
  5
1BE
330
75
100
AcDbEntity
  8
0
 62
     0
100
AcDbLine
 10
-451.25
 20
-1342.5
 30
0.0
 11
-451.25
 21
-1342.5
 31
0.0
  0
LINE
  5
1BF
330
75
100
AcDbEntity
  8
0
 62
     0
100
AcDbLine
 10
-454.375
 20
-1343.75
 30
0.0
 11
-454.375
 21
-1343.75
 31
0.0
  0
LINE
  5
1C0
330
75
100
AcDbEntity
  8
0
 62
     0
100
AcDbLine
 10
-453.125
 20
-1343.75
 30
0.0
 11
-453.125
 21
-1343.75
 31
0.0
  0
LINE
  5
1C1
330
75
100
AcDbEntity
  8
0
 62
     0
100
AcDbLine
 10
-451.8749999999999
 20
-1343.75
 30
0.0
 11
-451.8749999999999
 21
-1343.75
 31
0.0
  0
LINE
  5
1C2
330
75
100
AcDbEntity
  8
0
 62
     0
100
AcDbLine
 10
-450.625
 20
-1343.75
 30
0.0
 11
-450.625
 21
-1343.75
 31
0.0
  0
LINE
  5
1C3
330
75
100
AcDbEntity
  8
0
 62
     0
100
AcDbLine
 10
-455.0
 20
-1345.0
 30
0.0
 11
-455.0
 21
-1345.0
 31
0.0
  0
LINE
  5
1C4
330
75
100
AcDbEntity
  8
0
 62
     0
100
AcDbLine
 10
-453.75
 20
-1345.0
 30
0.0
 11
-453.75
 21
-1345.0
 31
0.0
  0
LINE
  5
1C5
330
75
100
AcDbEntity
  8
0
 62
     0
100
AcDbLine
 10
-452.5
 20
-1345.0
 30
0.0
 11
-452.5
 21
-1345.0
 31
0.0
  0
LINE
  5
1C6
330
75
100
AcDbEntity
  8
0
 62
     0
100
AcDbLine
 10
-451.25
 20
-1345.0
 30
0.0
 11
-451.25
 21
-1345.0
 31
0.0
  0
LINE
  5
1C7
330
75
100
AcDbEntity
  8
0
 62
     0
100
AcDbLine
 10
-450.0
 20
-1345.0
 30
0.0
 11
-450.0
 21
-1345.0
 31
0.0
  0
LINE
  5
1C8
330
75
100
AcDbEntity
  8
0
 62
     0
100
AcDbLine
 10
-454.375
 20
-1346.25
 30
0.0
 11
-454.375
 21
-1346.25
 31
0.0
  0
LINE
  5
1C9
330
75
100
AcDbEntity
  8
0
 62
     0
100
AcDbLine
 10
-453.125
 20
-1346.25
 30
0.0
 11
-453.125
 21
-1346.25
 31
0.0
  0
LINE
  5
1CA
330
75
100
AcDbEntity
  8
0
 62
     0
100
AcDbLine
 10
-451.8749999999999
 20
-1346.25
 30
0.0
 11
-451.8749999999999
 21
-1346.25
 31
0.0
  0
LINE
  5
1CB
330
75
100
AcDbEntity
  8
0
 62
     0
100
AcDbLine
 10
-450.625
 20
-1346.25
 30
0.0
 11
-450.625
 21
-1346.25
 31
0.0
  0
LINE
  5
1CC
330
75
100
AcDbEntity
  8
0
 62
     0
100
AcDbLine
 10
-455.0
 20
-1347.5
 30
0.0
 11
-455.0
 21
-1347.5
 31
0.0
  0
LINE
  5
1CD
330
75
100
AcDbEntity
  8
0
 62
     0
100
AcDbLine
 10
-453.75
 20
-1347.5
 30
0.0
 11
-453.75
 21
-1347.5
 31
0.0
  0
LINE
  5
1CE
330
75
100
AcDbEntity
  8
0
 62
     0
100
AcDbLine
 10
-452.5
 20
-1347.5
 30
0.0
 11
-452.5
 21
-1347.5
 31
0.0
  0
LINE
  5
1CF
330
75
100
AcDbEntity
  8
0
 62
     0
100
AcDbLine
 10
-468.125
 20
-1456.25
 30
0.0
 11
-468.125
 21
-1456.25
 31
0.0
  0
LINE
  5
1D0
330
75
100
AcDbEntity
  8
0
 62
     0
100
AcDbLine
 10
-467.4999999999999
 20
-1457.5
 30
0.0
 11
-467.4999999999999
 21
-1457.5
 31
0.0
  0
LINE
  5
1D1
330
75
100
AcDbEntity
  8
0
 62
     0
100
AcDbLine
 10
-466.25
 20
-1457.5
 30
0.0
 11
-466.25
 21
-1457.5
 31
0.0
  0
LINE
  5
1D2
330
75
100
AcDbEntity
  8
0
 62
     0
100
AcDbLine
 10
-468.125
 20
-1458.75
 30
0.0
 11
-468.125
 21
-1458.75
 31
0.0
  0
LINE
  5
1D3
330
75
100
AcDbEntity
  8
0
 62
     0
100
AcDbLine
 10
-466.875
 20
-1458.75
 30
0.0
 11
-466.875
 21
-1458.75
 31
0.0
  0
LINE
  5
1D4
330
75
100
AcDbEntity
  8
0
 62
     0
100
AcDbLine
 10
-465.625
 20
-1458.75
 30
0.0
 11
-465.625
 21
-1458.75
 31
0.0
  0
LINE
  5
1D5
330
75
100
AcDbEntity
  8
0
 62
     0
100
AcDbLine
 10
-467.4999999999999
 20
-1460.0
 30
0.0
 11
-467.4999999999999
 21
-1460.0
 31
0.0
  0
LINE
  5
1D6
330
75
100
AcDbEntity
  8
0
 62
     0
100
AcDbLine
 10
-466.25
 20
-1460.0
 30
0.0
 11
-466.25
 21
-1460.0
 31
0.0
  0
LINE
  5
1D7
330
75
100
AcDbEntity
  8
0
 62
     0
100
AcDbLine
 10
-468.125
 20
-1461.25
 30
0.0
 11
-468.125
 21
-1461.25
 31
0.0
  0
LINE
  5
1D8
330
75
100
AcDbEntity
  8
0
 62
     0
100
AcDbLine
 10
-466.875
 20
-1461.25
 30
0.0
 11
-466.875
 21
-1461.25
 31
0.0
  0
LINE
  5
1D9
330
75
100
AcDbEntity
  8
0
 62
     0
100
AcDbLine
 10
-465.625
 20
-1461.25
 30
0.0
 11
-465.625
 21
-1461.25
 31
0.0
  0
LINE
  5
1DA
330
75
100
AcDbEntity
  8
0
 62
     0
100
AcDbLine
 10
-475.0
 20
-1462.5
 30
0.0
 11
-475.0
 21
-1462.5
 31
0.0
  0
LINE
  5
1DB
330
75
100
AcDbEntity
  8
0
 62
     0
100
AcDbLine
 10
-473.7499999999999
 20
-1462.5
 30
0.0
 11
-473.7499999999999
 21
-1462.5
 31
0.0
  0
LINE
  5
1DC
330
75
100
AcDbEntity
  8
0
 62
     0
100
AcDbLine
 10
-468.75
 20
-1462.5
 30
0.0
 11
-468.75
 21
-1462.5
 31
0.0
  0
LINE
  5
1DD
330
75
100
AcDbEntity
  8
0
 62
     0
100
AcDbLine
 10
-467.4999999999999
 20
-1462.5
 30
0.0
 11
-467.4999999999999
 21
-1462.5
 31
0.0
  0
LINE
  5
1DE
330
75
100
AcDbEntity
  8
0
 62
     0
100
AcDbLine
 10
-466.25
 20
-1462.5
 30
0.0
 11
-466.25
 21
-1462.5
 31
0.0
  0
LINE
  5
1DF
330
75
100
AcDbEntity
  8
0
 62
     0
100
AcDbLine
 10
-473.125
 20
-1463.75
 30
0.0
 11
-473.125
 21
-1463.75
 31
0.0
  0
ENDBLK
  5
1E0
330
75
100
AcDbEntity
  8
0
100
AcDbBlockEnd
  0
BLOCK
  5
1E1
330
76
100
AcDbEntity
  8
0
100
AcDbBlockBegin
  2
*X3
 70
     1
 10
0.0
 20
0.0
 30
0.0
  3
*X3
  1

  0
LINE
  5
1E2
330
76
100
AcDbEntity
  8
0
 62
     0
100
AcDbLine
 10
-492.4999999999999
 20
-1285.0
 30
0.0
 11
-492.4999999999999
 21
-1285.0
 31
0.0
  0
LINE
  5
1E3
330
76
100
AcDbEntity
  8
0
 62
     0
100
AcDbLine
 10
-491.25
 20
-1285.0
 30
0.0
 11
-491.25
 21
-1285.0
 31
0.0
  0
LINE
  5
1E4
330
76
100
AcDbEntity
  8
0
 62
     0
100
AcDbLine
 10
-490.0
 20
-1285.0
 30
0.0
 11
-490.0
 21
-1285.0
 31
0.0
  0
LINE
  5
1E5
330
76
100
AcDbEntity
  8
0
 62
     0
100
AcDbLine
 10
-488.75
 20
-1285.0
 30
0.0
 11
-488.75
 21
-1285.0
 31
0.0
  0
LINE
  5
1E6
330
76
100
AcDbEntity
  8
0
 62
     0
100
AcDbLine
 10
-487.5
 20
-1285.0
 30
0.0
 11
-487.5
 21
-1285.0
 31
0.0
  0
LINE
  5
1E7
330
76
100
AcDbEntity
  8
0
 62
     0
100
AcDbLine
 10
-486.2499999999999
 20
-1285.0
 30
0.0
 11
-486.2499999999999
 21
-1285.0
 31
0.0
  0
LINE
  5
1E8
330
76
100
AcDbEntity
  8
0
 62
     0
100
AcDbLine
 10
-485.0
 20
-1285.0
 30
0.0
 11
-485.0
 21
-1285.0
 31
0.0
  0
LINE
  5
1E9
330
76
100
AcDbEntity
  8
0
 62
     0
100
AcDbLine
 10
-483.75
 20
-1285.0
 30
0.0
 11
-483.75
 21
-1285.0
 31
0.0
  0
LINE
  5
1EA
330
76
100
AcDbEntity
  8
0
 62
     0
100
AcDbLine
 10
-478.75
 20
-1285.0
 30
0.0
 11
-478.75
 21
-1285.0
 31
0.0
  0
LINE
  5
1EB
330
76
100
AcDbEntity
  8
0
 62
     0
100
AcDbLine
 10
-477.5
 20
-1285.0
 30
0.0
 11
-477.5
 21
-1285.0
 31
0.0
  0
LINE
  5
1EC
330
76
100
AcDbEntity
  8
0
 62
     0
100
AcDbLine
 10
-476.25
 20
-1285.0
 30
0.0
 11
-476.25
 21
-1285.0
 31
0.0
  0
LINE
  5
1ED
330
76
100
AcDbEntity
  8
0
 62
     0
100
AcDbLine
 10
-475.0
 20
-1285.0
 30
0.0
 11
-475.0
 21
-1285.0
 31
0.0
  0
LINE
  5
1EE
330
76
100
AcDbEntity
  8
0
 62
     0
100
AcDbLine
 10
-473.7499999999999
 20
-1285.0
 30
0.0
 11
-473.7499999999999
 21
-1285.0
 31
0.0
  0
LINE
  5
1EF
330
76
100
AcDbEntity
  8
0
 62
     0
100
AcDbLine
 10
-472.5
 20
-1285.0
 30
0.0
 11
-472.5
 21
-1285.0
 31
0.0
  0
LINE
  5
1F0
330
76
100
AcDbEntity
  8
0
 62
     0
100
AcDbLine
 10
-471.25
 20
-1285.0
 30
0.0
 11
-471.25
 21
-1285.0
 31
0.0
  0
LINE
  5
1F1
330
76
100
AcDbEntity
  8
0
 62
     0
100
AcDbLine
 10
-470.0
 20
-1285.0
 30
0.0
 11
-470.0
 21
-1285.0
 31
0.0
  0
LINE
  5
1F2
330
76
100
AcDbEntity
  8
0
 62
     0
100
AcDbLine
 10
-468.75
 20
-1285.0
 30
0.0
 11
-468.75
 21
-1285.0
 31
0.0
  0
LINE
  5
1F3
330
76
100
AcDbEntity
  8
0
 62
     0
100
AcDbLine
 10
-467.4999999999999
 20
-1285.0
 30
0.0
 11
-467.4999999999999
 21
-1285.0
 31
0.0
  0
LINE
  5
1F4
330
76
100
AcDbEntity
  8
0
 62
     0
100
AcDbLine
 10
-466.25
 20
-1285.0
 30
0.0
 11
-466.25
 21
-1285.0
 31
0.0
  0
LINE
  5
1F5
330
76
100
AcDbEntity
  8
0
 62
     0
100
AcDbLine
 10
-491.875
 20
-1283.75
 30
0.0
 11
-491.875
 21
-1283.75
 31
0.0
  0
LINE
  5
1F6
330
76
100
AcDbEntity
  8
0
 62
     0
100
AcDbLine
 10
-490.625
 20
-1283.75
 30
0.0
 11
-490.625
 21
-1283.75
 31
0.0
  0
LINE
  5
1F7
330
76
100
AcDbEntity
  8
0
 62
     0
100
AcDbLine
 10
-489.3749999999999
 20
-1283.75
 30
0.0
 11
-489.3749999999999
 21
-1283.75
 31
0.0
  0
LINE
  5
1F8
330
76
100
AcDbEntity
  8
0
 62
     0
100
AcDbLine
 10
-488.125
 20
-1283.75
 30
0.0
 11
-488.125
 21
-1283.75
 31
0.0
  0
LINE
  5
1F9
330
76
100
AcDbEntity
  8
0
 62
     0
100
AcDbLine
 10
-486.875
 20
-1283.75
 30
0.0
 11
-486.875
 21
-1283.75
 31
0.0
  0
LINE
  5
1FA
330
76
100
AcDbEntity
  8
0
 62
     0
100
AcDbLine
 10
-485.625
 20
-1283.75
 30
0.0
 11
-485.625
 21
-1283.75
 31
0.0
  0
LINE
  5
1FB
330
76
100
AcDbEntity
  8
0
 62
     0
100
AcDbLine
 10
-484.375
 20
-1283.75
 30
0.0
 11
-484.375
 21
-1283.75
 31
0.0
  0
LINE
  5
1FC
330
76
100
AcDbEntity
  8
0
 62
     0
100
AcDbLine
 10
-483.1249999999999
 20
-1283.75
 30
0.0
 11
-483.1249999999999
 21
-1283.75
 31
0.0
  0
LINE
  5
1FD
330
76
100
AcDbEntity
  8
0
 62
     0
100
AcDbLine
 10
-478.125
 20
-1283.75
 30
0.0
 11
-478.125
 21
-1283.75
 31
0.0
  0
LINE
  5
1FE
330
76
100
AcDbEntity
  8
0
 62
     0
100
AcDbLine
 10
-476.8749999999999
 20
-1283.75
 30
0.0
 11
-476.8749999999999
 21
-1283.75
 31
0.0
  0
LINE
  5
1FF
330
76
100
AcDbEntity
  8
0
 62
     0
100
AcDbLine
 10
-475.625
 20
-1283.75
 30
0.0
 11
-475.625
 21
-1283.75
 31
0.0
  0
LINE
  5
200
330
76
100
AcDbEntity
  8
0
 62
     0
100
AcDbLine
 10
-474.375
 20
-1283.75
 30
0.0
 11
-474.375
 21
-1283.75
 31
0.0
  0
LINE
  5
201
330
76
100
AcDbEntity
  8
0
 62
     0
100
AcDbLine
 10
-473.125
 20
-1283.75
 30
0.0
 11
-473.125
 21
-1283.75
 31
0.0
  0
LINE
  5
202
330
76
100
AcDbEntity
  8
0
 62
     0
100
AcDbLine
 10
-471.875
 20
-1283.75
 30
0.0
 11
-471.875
 21
-1283.75
 31
0.0
  0
LINE
  5
203
330
76
100
AcDbEntity
  8
0
 62
     0
100
AcDbLine
 10
-470.6249999999999
 20
-1283.75
 30
0.0
 11
-470.6249999999999
 21
-1283.75
 31
0.0
  0
LINE
  5
204
330
76
100
AcDbEntity
  8
0
 62
     0
100
AcDbLine
 10
-469.375
 20
-1283.75
 30
0.0
 11
-469.375
 21
-1283.75
 31
0.0
  0
LINE
  5
205
330
76
100
AcDbEntity
  8
0
 62
     0
100
AcDbLine
 10
-468.125
 20
-1283.75
 30
0.0
 11
-468.125
 21
-1283.75
 31
0.0
  0
LINE
  5
206
330
76
100
AcDbEntity
  8
0
 62
     0
100
AcDbLine
 10
-492.4999999999999
 20
-1282.5
 30
0.0
 11
-492.4999999999999
 21
-1282.5
 31
0.0
  0
LINE
  5
207
330
76
100
AcDbEntity
  8
0
 62
     0
100
AcDbLine
 10
-491.25
 20
-1282.5
 30
0.0
 11
-491.25
 21
-1282.5
 31
0.0
  0
LINE
  5
208
330
76
100
AcDbEntity
  8
0
 62
     0
100
AcDbLine
 10
-490.0
 20
-1282.5
 30
0.0
 11
-490.0
 21
-1282.5
 31
0.0
  0
LINE
  5
209
330
76
100
AcDbEntity
  8
0
 62
     0
100
AcDbLine
 10
-488.75
 20
-1282.5
 30
0.0
 11
-488.75
 21
-1282.5
 31
0.0
  0
LINE
  5
20A
330
76
100
AcDbEntity
  8
0
 62
     0
100
AcDbLine
 10
-487.5
 20
-1282.5
 30
0.0
 11
-487.5
 21
-1282.5
 31
0.0
  0
LINE
  5
20B
330
76
100
AcDbEntity
  8
0
 62
     0
100
AcDbLine
 10
-486.2499999999999
 20
-1282.5
 30
0.0
 11
-486.2499999999999
 21
-1282.5
 31
0.0
  0
LINE
  5
20C
330
76
100
AcDbEntity
  8
0
 62
     0
100
AcDbLine
 10
-485.0
 20
-1282.5
 30
0.0
 11
-485.0
 21
-1282.5
 31
0.0
  0
LINE
  5
20D
330
76
100
AcDbEntity
  8
0
 62
     0
100
AcDbLine
 10
-477.5
 20
-1282.5
 30
0.0
 11
-477.5
 21
-1282.5
 31
0.0
  0
LINE
  5
20E
330
76
100
AcDbEntity
  8
0
 62
     0
100
AcDbLine
 10
-476.25
 20
-1282.5
 30
0.0
 11
-476.25
 21
-1282.5
 31
0.0
  0
LINE
  5
20F
330
76
100
AcDbEntity
  8
0
 62
     0
100
AcDbLine
 10
-475.0
 20
-1282.5
 30
0.0
 11
-475.0
 21
-1282.5
 31
0.0
  0
LINE
  5
210
330
76
100
AcDbEntity
  8
0
 62
     0
100
AcDbLine
 10
-473.7499999999999
 20
-1282.5
 30
0.0
 11
-473.7499999999999
 21
-1282.5
 31
0.0
  0
LINE
  5
211
330
76
100
AcDbEntity
  8
0
 62
     0
100
AcDbLine
 10
-491.875
 20
-1281.25
 30
0.0
 11
-491.875
 21
-1281.25
 31
0.0
  0
LINE
  5
212
330
76
100
AcDbEntity
  8
0
 62
     0
100
AcDbLine
 10
-490.625
 20
-1281.25
 30
0.0
 11
-490.625
 21
-1281.25
 31
0.0
  0
LINE
  5
213
330
76
100
AcDbEntity
  8
0
 62
     0
100
AcDbLine
 10
-489.3749999999999
 20
-1281.25
 30
0.0
 11
-489.3749999999999
 21
-1281.25
 31
0.0
  0
LINE
  5
214
330
76
100
AcDbEntity
  8
0
 62
     0
100
AcDbLine
 10
-488.125
 20
-1281.25
 30
0.0
 11
-488.125
 21
-1281.25
 31
0.0
  0
LINE
  5
215
330
76
100
AcDbEntity
  8
0
 62
     0
100
AcDbLine
 10
-492.4999999999999
 20
-1280.0
 30
0.0
 11
-492.4999999999999
 21
-1280.0
 31
0.0
  0
LINE
  5
216
330
76
100
AcDbEntity
  8
0
 62
     0
100
AcDbLine
 10
-491.25
 20
-1280.0
 30
0.0
 11
-491.25
 21
-1280.0
 31
0.0
  0
LINE
  5
217
330
76
100
AcDbEntity
  8
0
 62
     0
100
AcDbLine
 10
-493.125
 20
-1286.25
 30
0.0
 11
-493.125
 21
-1286.25
 31
0.0
  0
LINE
  5
218
330
76
100
AcDbEntity
  8
0
 62
     0
100
AcDbLine
 10
-491.875
 20
-1286.25
 30
0.0
 11
-491.875
 21
-1286.25
 31
0.0
  0
LINE
  5
219
330
76
100
AcDbEntity
  8
0
 62
     0
100
AcDbLine
 10
-490.625
 20
-1286.25
 30
0.0
 11
-490.625
 21
-1286.25
 31
0.0
  0
LINE
  5
21A
330
76
100
AcDbEntity
  8
0
 62
     0
100
AcDbLine
 10
-489.3749999999999
 20
-1286.25
 30
0.0
 11
-489.3749999999999
 21
-1286.25
 31
0.0
  0
LINE
  5
21B
330
76
100
AcDbEntity
  8
0
 62
     0
100
AcDbLine
 10
-488.125
 20
-1286.25
 30
0.0
 11
-488.125
 21
-1286.25
 31
0.0
  0
LINE
  5
21C
330
76
100
AcDbEntity
  8
0
 62
     0
100
AcDbLine
 10
-486.875
 20
-1286.25
 30
0.0
 11
-486.875
 21
-1286.25
 31
0.0
  0
LINE
  5
21D
330
76
100
AcDbEntity
  8
0
 62
     0
100
AcDbLine
 10
-485.625
 20
-1286.25
 30
0.0
 11
-485.625
 21
-1286.25
 31
0.0
  0
LINE
  5
21E
330
76
100
AcDbEntity
  8
0
 62
     0
100
AcDbLine
 10
-484.375
 20
-1286.25
 30
0.0
 11
-484.375
 21
-1286.25
 31
0.0
  0
LINE
  5
21F
330
76
100
AcDbEntity
  8
0
 62
     0
100
AcDbLine
 10
-483.1249999999999
 20
-1286.25
 30
0.0
 11
-483.1249999999999
 21
-1286.25
 31
0.0
  0
LINE
  5
220
330
76
100
AcDbEntity
  8
0
 62
     0
100
AcDbLine
 10
-479.375
 20
-1286.25
 30
0.0
 11
-479.375
 21
-1286.25
 31
0.0
  0
LINE
  5
221
330
76
100
AcDbEntity
  8
0
 62
     0
100
AcDbLine
 10
-478.125
 20
-1286.25
 30
0.0
 11
-478.125
 21
-1286.25
 31
0.0
  0
LINE
  5
222
330
76
100
AcDbEntity
  8
0
 62
     0
100
AcDbLine
 10
-476.8749999999999
 20
-1286.25
 30
0.0
 11
-476.8749999999999
 21
-1286.25
 31
0.0
  0
LINE
  5
223
330
76
100
AcDbEntity
  8
0
 62
     0
100
AcDbLine
 10
-475.625
 20
-1286.25
 30
0.0
 11
-475.625
 21
-1286.25
 31
0.0
  0
LINE
  5
224
330
76
100
AcDbEntity
  8
0
 62
     0
100
AcDbLine
 10
-474.375
 20
-1286.25
 30
0.0
 11
-474.375
 21
-1286.25
 31
0.0
  0
LINE
  5
225
330
76
100
AcDbEntity
  8
0
 62
     0
100
AcDbLine
 10
-473.125
 20
-1286.25
 30
0.0
 11
-473.125
 21
-1286.25
 31
0.0
  0
LINE
  5
226
330
76
100
AcDbEntity
  8
0
 62
     0
100
AcDbLine
 10
-471.875
 20
-1286.25
 30
0.0
 11
-471.875
 21
-1286.25
 31
0.0
  0
LINE
  5
227
330
76
100
AcDbEntity
  8
0
 62
     0
100
AcDbLine
 10
-470.6249999999999
 20
-1286.25
 30
0.0
 11
-470.6249999999999
 21
-1286.25
 31
0.0
  0
LINE
  5
228
330
76
100
AcDbEntity
  8
0
 62
     0
100
AcDbLine
 10
-469.375
 20
-1286.25
 30
0.0
 11
-469.375
 21
-1286.25
 31
0.0
  0
LINE
  5
229
330
76
100
AcDbEntity
  8
0
 62
     0
100
AcDbLine
 10
-468.125
 20
-1286.25
 30
0.0
 11
-468.125
 21
-1286.25
 31
0.0
  0
LINE
  5
22A
330
76
100
AcDbEntity
  8
0
 62
     0
100
AcDbLine
 10
-466.875
 20
-1286.25
 30
0.0
 11
-466.875
 21
-1286.25
 31
0.0
  0
LINE
  5
22B
330
76
100
AcDbEntity
  8
0
 62
     0
100
AcDbLine
 10
-465.625
 20
-1286.25
 30
0.0
 11
-465.625
 21
-1286.25
 31
0.0
  0
LINE
  5
22C
330
76
100
AcDbEntity
  8
0
 62
     0
100
AcDbLine
 10
-464.3749999999999
 20
-1286.25
 30
0.0
 11
-464.3749999999999
 21
-1286.25
 31
0.0
  0
LINE
  5
22D
330
76
100
AcDbEntity
  8
0
 62
     0
100
AcDbLine
 10
-493.75
 20
-1287.5
 30
0.0
 11
-493.75
 21
-1287.5
 31
0.0
  0
LINE
  5
22E
330
76
100
AcDbEntity
  8
0
 62
     0
100
AcDbLine
 10
-492.4999999999999
 20
-1287.5
 30
0.0
 11
-492.4999999999999
 21
-1287.5
 31
0.0
  0
LINE
  5
22F
330
76
100
AcDbEntity
  8
0
 62
     0
100
AcDbLine
 10
-491.25
 20
-1287.5
 30
0.0
 11
-491.25
 21
-1287.5
 31
0.0
  0
LINE
  5
230
330
76
100
AcDbEntity
  8
0
 62
     0
100
AcDbLine
 10
-490.0
 20
-1287.5
 30
0.0
 11
-490.0
 21
-1287.5
 31
0.0
  0
LINE
  5
231
330
76
100
AcDbEntity
  8
0
 62
     0
100
AcDbLine
 10
-488.75
 20
-1287.5
 30
0.0
 11
-488.75
 21
-1287.5
 31
0.0
  0
LINE
  5
232
330
76
100
AcDbEntity
  8
0
 62
     0
100
AcDbLine
 10
-487.5
 20
-1287.5
 30
0.0
 11
-487.5
 21
-1287.5
 31
0.0
  0
LINE
  5
233
330
76
100
AcDbEntity
  8
0
 62
     0
100
AcDbLine
 10
-486.2499999999999
 20
-1287.5
 30
0.0
 11
-486.2499999999999
 21
-1287.5
 31
0.0
  0
LINE
  5
234
330
76
100
AcDbEntity
  8
0
 62
     0
100
AcDbLine
 10
-485.0
 20
-1287.5
 30
0.0
 11
-485.0
 21
-1287.5
 31
0.0
  0
LINE
  5
235
330
76
100
AcDbEntity
  8
0
 62
     0
100
AcDbLine
 10
-483.75
 20
-1287.5
 30
0.0
 11
-483.75
 21
-1287.5
 31
0.0
  0
LINE
  5
236
330
76
100
AcDbEntity
  8
0
 62
     0
100
AcDbLine
 10
-480.0
 20
-1287.5
 30
0.0
 11
-480.0
 21
-1287.5
 31
0.0
  0
LINE
  5
237
330
76
100
AcDbEntity
  8
0
 62
     0
100
AcDbLine
 10
-478.75
 20
-1287.5
 30
0.0
 11
-478.75
 21
-1287.5
 31
0.0
  0
LINE
  5
238
330
76
100
AcDbEntity
  8
0
 62
     0
100
AcDbLine
 10
-477.5
 20
-1287.5
 30
0.0
 11
-477.5
 21
-1287.5
 31
0.0
  0
LINE
  5
239
330
76
100
AcDbEntity
  8
0
 62
     0
100
AcDbLine
 10
-476.25
 20
-1287.5
 30
0.0
 11
-476.25
 21
-1287.5
 31
0.0
  0
LINE
  5
23A
330
76
100
AcDbEntity
  8
0
 62
     0
100
AcDbLine
 10
-475.0
 20
-1287.5
 30
0.0
 11
-475.0
 21
-1287.5
 31
0.0
  0
LINE
  5
23B
330
76
100
AcDbEntity
  8
0
 62
     0
100
AcDbLine
 10
-473.7499999999999
 20
-1287.5
 30
0.0
 11
-473.7499999999999
 21
-1287.5
 31
0.0
  0
LINE
  5
23C
330
76
100
AcDbEntity
  8
0
 62
     0
100
AcDbLine
 10
-472.5
 20
-1287.5
 30
0.0
 11
-472.5
 21
-1287.5
 31
0.0
  0
LINE
  5
23D
330
76
100
AcDbEntity
  8
0
 62
     0
100
AcDbLine
 10
-471.25
 20
-1287.5
 30
0.0
 11
-471.25
 21
-1287.5
 31
0.0
  0
LINE
  5
23E
330
76
100
AcDbEntity
  8
0
 62
     0
100
AcDbLine
 10
-470.0
 20
-1287.5
 30
0.0
 11
-470.0
 21
-1287.5
 31
0.0
  0
LINE
  5
23F
330
76
100
AcDbEntity
  8
0
 62
     0
100
AcDbLine
 10
-468.75
 20
-1287.5
 30
0.0
 11
-468.75
 21
-1287.5
 31
0.0
  0
LINE
  5
240
330
76
100
AcDbEntity
  8
0
 62
     0
100
AcDbLine
 10
-467.4999999999999
 20
-1287.5
 30
0.0
 11
-467.4999999999999
 21
-1287.5
 31
0.0
  0
LINE
  5
241
330
76
100
AcDbEntity
  8
0
 62
     0
100
AcDbLine
 10
-466.25
 20
-1287.5
 30
0.0
 11
-466.25
 21
-1287.5
 31
0.0
  0
LINE
  5
242
330
76
100
AcDbEntity
  8
0
 62
     0
100
AcDbLine
 10
-465.0
 20
-1287.5
 30
0.0
 11
-465.0
 21
-1287.5
 31
0.0
  0
LINE
  5
243
330
76
100
AcDbEntity
  8
0
 62
     0
100
AcDbLine
 10
-463.75
 20
-1287.5
 30
0.0
 11
-463.75
 21
-1287.5
 31
0.0
  0
LINE
  5
244
330
76
100
AcDbEntity
  8
0
 62
     0
100
AcDbLine
 10
-462.5
 20
-1287.5
 30
0.0
 11
-462.5
 21
-1287.5
 31
0.0
  0
LINE
  5
245
330
76
100
AcDbEntity
  8
0
 62
     0
100
AcDbLine
 10
-494.375
 20
-1288.75
 30
0.0
 11
-494.375
 21
-1288.75
 31
0.0
  0
LINE
  5
246
330
76
100
AcDbEntity
  8
0
 62
     0
100
AcDbLine
 10
-493.125
 20
-1288.75
 30
0.0
 11
-493.125
 21
-1288.75
 31
0.0
  0
LINE
  5
247
330
76
100
AcDbEntity
  8
0
 62
     0
100
AcDbLine
 10
-491.875
 20
-1288.75
 30
0.0
 11
-491.875
 21
-1288.75
 31
0.0
  0
LINE
  5
248
330
76
100
AcDbEntity
  8
0
 62
     0
100
AcDbLine
 10
-490.625
 20
-1288.75
 30
0.0
 11
-490.625
 21
-1288.75
 31
0.0
  0
LINE
  5
249
330
76
100
AcDbEntity
  8
0
 62
     0
100
AcDbLine
 10
-489.3749999999999
 20
-1288.75
 30
0.0
 11
-489.3749999999999
 21
-1288.75
 31
0.0
  0
LINE
  5
24A
330
76
100
AcDbEntity
  8
0
 62
     0
100
AcDbLine
 10
-488.125
 20
-1288.75
 30
0.0
 11
-488.125
 21
-1288.75
 31
0.0
  0
LINE
  5
24B
330
76
100
AcDbEntity
  8
0
 62
     0
100
AcDbLine
 10
-486.875
 20
-1288.75
 30
0.0
 11
-486.875
 21
-1288.75
 31
0.0
  0
LINE
  5
24C
330
76
100
AcDbEntity
  8
0
 62
     0
100
AcDbLine
 10
-485.625
 20
-1288.75
 30
0.0
 11
-485.625
 21
-1288.75
 31
0.0
  0
LINE
  5
24D
330
76
100
AcDbEntity
  8
0
 62
     0
100
AcDbLine
 10
-484.375
 20
-1288.75
 30
0.0
 11
-484.375
 21
-1288.75
 31
0.0
  0
LINE
  5
24E
330
76
100
AcDbEntity
  8
0
 62
     0
100
AcDbLine
 10
-480.625
 20
-1288.75
 30
0.0
 11
-480.625
 21
-1288.75
 31
0.0
  0
LINE
  5
24F
330
76
100
AcDbEntity
  8
0
 62
     0
100
AcDbLine
 10
-479.375
 20
-1288.75
 30
0.0
 11
-479.375
 21
-1288.75
 31
0.0
  0
LINE
  5
250
330
76
100
AcDbEntity
  8
0
 62
     0
100
AcDbLine
 10
-478.125
 20
-1288.75
 30
0.0
 11
-478.125
 21
-1288.75
 31
0.0
  0
LINE
  5
251
330
76
100
AcDbEntity
  8
0
 62
     0
100
AcDbLine
 10
-476.8749999999999
 20
-1288.75
 30
0.0
 11
-476.8749999999999
 21
-1288.75
 31
0.0
  0
LINE
  5
252
330
76
100
AcDbEntity
  8
0
 62
     0
100
AcDbLine
 10
-475.625
 20
-1288.75
 30
0.0
 11
-475.625
 21
-1288.75
 31
0.0
  0
LINE
  5
253
330
76
100
AcDbEntity
  8
0
 62
     0
100
AcDbLine
 10
-474.375
 20
-1288.75
 30
0.0
 11
-474.375
 21
-1288.75
 31
0.0
  0
LINE
  5
254
330
76
100
AcDbEntity
  8
0
 62
     0
100
AcDbLine
 10
-473.125
 20
-1288.75
 30
0.0
 11
-473.125
 21
-1288.75
 31
0.0
  0
LINE
  5
255
330
76
100
AcDbEntity
  8
0
 62
     0
100
AcDbLine
 10
-471.875
 20
-1288.75
 30
0.0
 11
-471.875
 21
-1288.75
 31
0.0
  0
LINE
  5
256
330
76
100
AcDbEntity
  8
0
 62
     0
100
AcDbLine
 10
-470.6249999999999
 20
-1288.75
 30
0.0
 11
-470.6249999999999
 21
-1288.75
 31
0.0
  0
LINE
  5
257
330
76
100
AcDbEntity
  8
0
 62
     0
100
AcDbLine
 10
-469.375
 20
-1288.75
 30
0.0
 11
-469.375
 21
-1288.75
 31
0.0
  0
LINE
  5
258
330
76
100
AcDbEntity
  8
0
 62
     0
100
AcDbLine
 10
-468.125
 20
-1288.75
 30
0.0
 11
-468.125
 21
-1288.75
 31
0.0
  0
LINE
  5
259
330
76
100
AcDbEntity
  8
0
 62
     0
100
AcDbLine
 10
-466.875
 20
-1288.75
 30
0.0
 11
-466.875
 21
-1288.75
 31
0.0
  0
LINE
  5
25A
330
76
100
AcDbEntity
  8
0
 62
     0
100
AcDbLine
 10
-465.625
 20
-1288.75
 30
0.0
 11
-465.625
 21
-1288.75
 31
0.0
  0
LINE
  5
25B
330
76
100
AcDbEntity
  8
0
 62
     0
100
AcDbLine
 10
-464.3749999999999
 20
-1288.75
 30
0.0
 11
-464.3749999999999
 21
-1288.75
 31
0.0
  0
LINE
  5
25C
330
76
100
AcDbEntity
  8
0
 62
     0
100
AcDbLine
 10
-463.125
 20
-1288.75
 30
0.0
 11
-463.125
 21
-1288.75
 31
0.0
  0
LINE
  5
25D
330
76
100
AcDbEntity
  8
0
 62
     0
100
AcDbLine
 10
-461.875
 20
-1288.75
 30
0.0
 11
-461.875
 21
-1288.75
 31
0.0
  0
LINE
  5
25E
330
76
100
AcDbEntity
  8
0
 62
     0
100
AcDbLine
 10
-495.0
 20
-1290.0
 30
0.0
 11
-495.0
 21
-1290.0
 31
0.0
  0
LINE
  5
25F
330
76
100
AcDbEntity
  8
0
 62
     0
100
AcDbLine
 10
-493.75
 20
-1290.0
 30
0.0
 11
-493.75
 21
-1290.0
 31
0.0
  0
LINE
  5
260
330
76
100
AcDbEntity
  8
0
 62
     0
100
AcDbLine
 10
-492.4999999999999
 20
-1290.0
 30
0.0
 11
-492.4999999999999
 21
-1290.0
 31
0.0
  0
LINE
  5
261
330
76
100
AcDbEntity
  8
0
 62
     0
100
AcDbLine
 10
-491.25
 20
-1290.0
 30
0.0
 11
-491.25
 21
-1290.0
 31
0.0
  0
LINE
  5
262
330
76
100
AcDbEntity
  8
0
 62
     0
100
AcDbLine
 10
-490.0
 20
-1290.0
 30
0.0
 11
-490.0
 21
-1290.0
 31
0.0
  0
LINE
  5
263
330
76
100
AcDbEntity
  8
0
 62
     0
100
AcDbLine
 10
-488.75
 20
-1290.0
 30
0.0
 11
-488.75
 21
-1290.0
 31
0.0
  0
LINE
  5
264
330
76
100
AcDbEntity
  8
0
 62
     0
100
AcDbLine
 10
-487.5
 20
-1290.0
 30
0.0
 11
-487.5
 21
-1290.0
 31
0.0
  0
LINE
  5
265
330
76
100
AcDbEntity
  8
0
 62
     0
100
AcDbLine
 10
-486.2499999999999
 20
-1290.0
 30
0.0
 11
-486.2499999999999
 21
-1290.0
 31
0.0
  0
LINE
  5
266
330
76
100
AcDbEntity
  8
0
 62
     0
100
AcDbLine
 10
-485.0
 20
-1290.0
 30
0.0
 11
-485.0
 21
-1290.0
 31
0.0
  0
LINE
  5
267
330
76
100
AcDbEntity
  8
0
 62
     0
100
AcDbLine
 10
-463.75
 20
-1290.0
 30
0.0
 11
-463.75
 21
-1290.0
 31
0.0
  0
LINE
  5
268
330
76
100
AcDbEntity
  8
0
 62
     0
100
AcDbLine
 10
-462.5
 20
-1290.0
 30
0.0
 11
-462.5
 21
-1290.0
 31
0.0
  0
LINE
  5
269
330
76
100
AcDbEntity
  8
0
 62
     0
100
AcDbLine
 10
-461.2499999999999
 20
-1290.0
 30
0.0
 11
-461.2499999999999
 21
-1290.0
 31
0.0
  0
LINE
  5
26A
330
76
100
AcDbEntity
  8
0
 62
     0
100
AcDbLine
 10
-481.25
 20
-1290.0
 30
0.0
 11
-481.25
 21
-1290.0
 31
0.0
  0
LINE
  5
26B
330
76
100
AcDbEntity
  8
0
 62
     0
100
AcDbLine
 10
-480.0
 20
-1290.0
 30
0.0
 11
-480.0
 21
-1290.0
 31
0.0
  0
LINE
  5
26C
330
76
100
AcDbEntity
  8
0
 62
     0
100
AcDbLine
 10
-478.75
 20
-1290.0
 30
0.0
 11
-478.75
 21
-1290.0
 31
0.0
  0
LINE
  5
26D
330
76
100
AcDbEntity
  8
0
 62
     0
100
AcDbLine
 10
-477.5
 20
-1290.0
 30
0.0
 11
-477.5
 21
-1290.0
 31
0.0
  0
LINE
  5
26E
330
76
100
AcDbEntity
  8
0
 62
     0
100
AcDbLine
 10
-476.25
 20
-1290.0
 30
0.0
 11
-476.25
 21
-1290.0
 31
0.0
  0
LINE
  5
26F
330
76
100
AcDbEntity
  8
0
 62
     0
100
AcDbLine
 10
-475.0
 20
-1290.0
 30
0.0
 11
-475.0
 21
-1290.0
 31
0.0
  0
LINE
  5
270
330
76
100
AcDbEntity
  8
0
 62
     0
100
AcDbLine
 10
-473.7499999999999
 20
-1290.0
 30
0.0
 11
-473.7499999999999
 21
-1290.0
 31
0.0
  0
LINE
  5
271
330
76
100
AcDbEntity
  8
0
 62
     0
100
AcDbLine
 10
-472.5
 20
-1290.0
 30
0.0
 11
-472.5
 21
-1290.0
 31
0.0
  0
LINE
  5
272
330
76
100
AcDbEntity
  8
0
 62
     0
100
AcDbLine
 10
-471.25
 20
-1290.0
 30
0.0
 11
-471.25
 21
-1290.0
 31
0.0
  0
LINE
  5
273
330
76
100
AcDbEntity
  8
0
 62
     0
100
AcDbLine
 10
-470.0
 20
-1290.0
 30
0.0
 11
-470.0
 21
-1290.0
 31
0.0
  0
LINE
  5
274
330
76
100
AcDbEntity
  8
0
 62
     0
100
AcDbLine
 10
-494.375
 20
-1291.25
 30
0.0
 11
-494.375
 21
-1291.25
 31
0.0
  0
LINE
  5
275
330
76
100
AcDbEntity
  8
0
 62
     0
100
AcDbLine
 10
-493.125
 20
-1291.25
 30
0.0
 11
-493.125
 21
-1291.25
 31
0.0
  0
LINE
  5
276
330
76
100
AcDbEntity
  8
0
 62
     0
100
AcDbLine
 10
-491.875
 20
-1291.25
 30
0.0
 11
-491.875
 21
-1291.25
 31
0.0
  0
LINE
  5
277
330
76
100
AcDbEntity
  8
0
 62
     0
100
AcDbLine
 10
-490.625
 20
-1291.25
 30
0.0
 11
-490.625
 21
-1291.25
 31
0.0
  0
LINE
  5
278
330
76
100
AcDbEntity
  8
0
 62
     0
100
AcDbLine
 10
-489.3749999999999
 20
-1291.25
 30
0.0
 11
-489.3749999999999
 21
-1291.25
 31
0.0
  0
LINE
  5
279
330
76
100
AcDbEntity
  8
0
 62
     0
100
AcDbLine
 10
-488.125
 20
-1291.25
 30
0.0
 11
-488.125
 21
-1291.25
 31
0.0
  0
LINE
  5
27A
330
76
100
AcDbEntity
  8
0
 62
     0
100
AcDbLine
 10
-486.875
 20
-1291.25
 30
0.0
 11
-486.875
 21
-1291.25
 31
0.0
  0
LINE
  5
27B
330
76
100
AcDbEntity
  8
0
 62
     0
100
AcDbLine
 10
-485.625
 20
-1291.25
 30
0.0
 11
-485.625
 21
-1291.25
 31
0.0
  0
LINE
  5
27C
330
76
100
AcDbEntity
  8
0
 62
     0
100
AcDbLine
 10
-480.625
 20
-1291.25
 30
0.0
 11
-480.625
 21
-1291.25
 31
0.0
  0
LINE
  5
27D
330
76
100
AcDbEntity
  8
0
 62
     0
100
AcDbLine
 10
-479.375
 20
-1291.25
 30
0.0
 11
-479.375
 21
-1291.25
 31
0.0
  0
LINE
  5
27E
330
76
100
AcDbEntity
  8
0
 62
     0
100
AcDbLine
 10
-478.125
 20
-1291.25
 30
0.0
 11
-478.125
 21
-1291.25
 31
0.0
  0
LINE
  5
27F
330
76
100
AcDbEntity
  8
0
 62
     0
100
AcDbLine
 10
-476.8749999999999
 20
-1291.25
 30
0.0
 11
-476.8749999999999
 21
-1291.25
 31
0.0
  0
LINE
  5
280
330
76
100
AcDbEntity
  8
0
 62
     0
100
AcDbLine
 10
-475.625
 20
-1291.25
 30
0.0
 11
-475.625
 21
-1291.25
 31
0.0
  0
LINE
  5
281
330
76
100
AcDbEntity
  8
0
 62
     0
100
AcDbLine
 10
-474.375
 20
-1291.25
 30
0.0
 11
-474.375
 21
-1291.25
 31
0.0
  0
LINE
  5
282
330
76
100
AcDbEntity
  8
0
 62
     0
100
AcDbLine
 10
-473.125
 20
-1291.25
 30
0.0
 11
-473.125
 21
-1291.25
 31
0.0
  0
LINE
  5
283
330
76
100
AcDbEntity
  8
0
 62
     0
100
AcDbLine
 10
-471.875
 20
-1291.25
 30
0.0
 11
-471.875
 21
-1291.25
 31
0.0
  0
LINE
  5
284
330
76
100
AcDbEntity
  8
0
 62
     0
100
AcDbLine
 10
-491.25
 20
-1292.5
 30
0.0
 11
-491.25
 21
-1292.5
 31
0.0
  0
LINE
  5
285
330
76
100
AcDbEntity
  8
0
 62
     0
100
AcDbLine
 10
-490.0
 20
-1292.5
 30
0.0
 11
-490.0
 21
-1292.5
 31
0.0
  0
LINE
  5
286
330
76
100
AcDbEntity
  8
0
 62
     0
100
AcDbLine
 10
-488.75
 20
-1292.5
 30
0.0
 11
-488.75
 21
-1292.5
 31
0.0
  0
LINE
  5
287
330
76
100
AcDbEntity
  8
0
 62
     0
100
AcDbLine
 10
-481.25
 20
-1292.5
 30
0.0
 11
-481.25
 21
-1292.5
 31
0.0
  0
LINE
  5
288
330
76
100
AcDbEntity
  8
0
 62
     0
100
AcDbLine
 10
-480.0
 20
-1292.5
 30
0.0
 11
-480.0
 21
-1292.5
 31
0.0
  0
LINE
  5
289
330
76
100
AcDbEntity
  8
0
 62
     0
100
AcDbLine
 10
-478.75
 20
-1292.5
 30
0.0
 11
-478.75
 21
-1292.5
 31
0.0
  0
ENDBLK
  5
28A
330
76
100
AcDbEntity
  8
0
100
AcDbBlockEnd
  0
ENDSEC
  0
SECTION
  2
ENTITIES
  0
LWPOLYLINE
  5
28B
330
6F
100
AcDbEntity
  8
STEINE
100
AcDbPolyline
 90
       11
 70
     0
 43
0.0
 10
-484.8427716801998
 20
-1446.010437516231
 10
-492.1059150479392
 20
-1443.978789021758
 10
-492.8677832333664
 20
-1442.04872295201
 10
-491.9535414108537
 20
-1439.509162333919
 10
-492.6138271715573
 20
-1436.410898379848
 10
-491.1916732254265
 20
-1434.937953221355
 10
-485.858595927436
 20
-1433.160260788692
 10
-484.5380244060288
 20
-1433.871337761758
 10
-484.5380244060288
 20
-1440.067865669899
 10
-482.9634968228126
 20
-1443.267712048693
 10
-484.8427716801998
 20
-1446.010437516231
  0
LWPOLYLINE
  5
298
330
6F
100
AcDbEntity
  8
STEINE
100
AcDbPolyline
 90
        5
 70
     0
 43
0.0
 10
-475.1416501190933
 20
-1463.482614568695
 10
-475.0400676943696
 20
-1461.09542758769
 10
-473.0592104122589
 20
-1461.806504560755
 10
-472.9576279875352
 20
-1463.787361842866
 10
-475.1416501190933
 20
-1463.482614568695
  0
LWPOLYLINE
  5
29F
330
6F
100
AcDbEntity
  8
STEINE
100
AcDbPolyline
 90
        8
 70
     0
 43
0.0
 10
-469.1482870603993
 20
-1463.431823356333
 10
-469.7577816087409
 20
-1461.755713348394
 10
-467.9800891760775
 20
-1459.520900004474
 10
-469.4530343345701
 20
-1455.356020590805
 10
-467.6753419019067
 20
-1455.50839422789
 10
-465.0341988590922
 20
-1458.352702120152
 10
-465.389737345625
 20
-1462.619163958544
 10
-469.1482870603993
 20
-1463.431823356333
  0
LWPOLYLINE
  5
2A9
330
6F
100
AcDbEntity
  8
STEINE
100
AcDbPolyline
 90
        7
 70
     0
 43
0.0
 10
-483.1666616722599
 20
-1410.15184158879
 10
-487.1791674488433
 20
-1406.799621572911
 10
-487.788661997185
 20
-1404.767973078438
 10
-486.4680904757778
 20
-1403.548983981754
 10
-485.0459365296471
 20
-1403.752148831202
 10
-481.6937165137672
 20
-1407.358324908891
 10
-483.1666616722599
 20
-1410.15184158879
  0
LWPOLYLINE
  5
2B2
330
6F
100
AcDbEntity
  8
STEINE
100
AcDbPolyline
 90
       11
 70
     0
 43
0.0
 10
-454.3680442631114
 20
-1391.206719377834
 10
-452.3363957686388
 20
-1391.460675439643
 10
-454.5204179001968
 20
-1395.777928490397
 10
-454.0125057765787
 20
-1399.993599116428
 10
-453.4538024405987
 20
-1403.904522468287
 10
-455.1807036609003
 20
-1405.580632476227
 10
-460.7677370206999
 20
-1405.123511564971
 10
-461.1740667195944
 20
-1404.056896105372
 10
-459.5995391363782
 20
-1401.111005788387
 10
-457.8218467037147
 20
-1393.543115146477
 10
-454.3680442631114
 20
-1391.206719377834
  0
LWPOLYLINE
  5
2BF
330
6F
100
AcDbEntity
  8
STEINE
100
AcDbPolyline
 90
       10
 70
     0
 43
0.0
 10
-455.282286085624
 20
-1349.303969179337
 10
-452.9966815293424
 20
-1347.729441596121
 10
-449.6444615134627
 20
-1346.561243711799
 10
-448.6794284785882
 20
-1345.18988097803
 10
-450.2539560618044
 20
-1341.990034599236
 10
-450.2031648494426
 20
-1339.907594892402
 10
-452.5903518304478
 20
-1338.587023370994
 10
-454.5204179001968
 20
-1337.012495787778
 10
-455.6886157845185
 20
-1337.62199033612
 10
-455.282286085624
 20
-1349.303969179337
  0
LWPOLYLINE
  5
2CB
330
6F
100
AcDbEntity
  8
STEINE
100
AcDbPolyline
 90
        7
 70
     0
 43
0.0
 10
-467.8785067513539
 20
-1321.521176017425
 10
-453.1998463787896
 20
-1330.003308481848
 10
-441.8226148097433
 20
-1333.558693347175
 10
-440.6036257130598
 20
-1332.949198798833
 10
-453.2506375911514
 20
-1324.771813608581
 10
-459.1932094374837
 20
-1322.943329963556
 10
-467.8785067513539
 20
-1321.521176017425
  0
LWPOLYLINE
  5
2D4
330
6F
100
AcDbEntity
  8
STEINE
100
AcDbPolyline
 90
        6
 70
     0
 43
0.0
 10
-467.8785067513539
 20
-1321.521176017425
 10
-462.9009679398961
 20
-1324.822604820943
 10
-461.7327700555744
 20
-1328.479572110993
 10
-467.2182209906504
 20
-1325.279725732199
 10
-469.7577816087409
 20
-1322.689373901747
 10
-467.8785067513539
 20
-1321.521176017425
  0
LWPOLYLINE
  5
2DC
330
6F
100
AcDbEntity
  8
STEINE
100
AcDbPolyline
 90
        5
 70
     0
 43
0.0
 10
-493.6296514187936
 20
-1327.209791801948
 10
-485.7062222903506
 20
-1327.616121500843
 10
-477.3764634630131
 20
-1337.114078212502
 10
-480.4747274170837
 20
-1339.450473981145
 10
-493.6296514187936
 20
-1327.209791801948
  0
LWPOLYLINE
  5
2E3
330
6F
100
AcDbEntity
  8
STEINE
100
AcDbPolyline
 90
       12
 70
     0
 43
0.0
 10
-494.5438932413062
 20
-1329.647769995315
 10
-496.0168383997988
 20
-1330.206473331295
 10
-495.966047187437
 20
-1333.253946073004
 10
-499.3690584156786
 20
-1335.184012142753
 10
-499.6230144774877
 20
-1337.469616699034
 10
-494.4423108165826
 20
-1344.224847943156
 10
-492.0043326232155
 20
-1345.240672190392
 10
-486.7728377499487
 20
-1342.904276421749
 10
-482.8111231857272
 20
-1342.599529147578
 10
-481.4397604519582
 20
-1341.329748838532
 10
-485.5538486532651
 20
-1337.875946397929
 10
-494.5438932413062
 20
-1329.647769995315
  0
LWPOLYLINE
  5
2F1
330
6F
100
AcDbEntity
  8
STEINE
100
AcDbPolyline
 90
        8
 70
     0
 43
0.0
 10
-467.2182209906504
 20
-1309.88998838657
 10
-467.7769243266303
 20
-1314.359615074409
 10
-464.9326164343687
 20
-1319.489527522953
 10
-463.1549240017052
 20
-1321.013263893807
 10
-460.9709018701471
 20
-1318.168956001545
 10
-458.0758027655238
 20
-1314.308823862047
 10
-457.8726379160765
 20
-1309.128120201142
 10
-467.2182209906504
 20
-1309.88998838657
  0
LWPOLYLINE
  5
2FB
330
6F
100
AcDbEntity
  8
STEINE
100
AcDbPolyline
 90
       12
 70
     0
 43
0.0
 10
-470.57044100653
 20
-1308.061504741544
 10
-469.5546167592937
 20
-1310.093153236017
 10
-475.6495622427114
 20
-1313.902494163153
 10
-485.2998925914561
 20
-1306.842515644861
 10
-486.0617607768833
 20
-1304.963240787474
 10
-484.8427716801998
 20
-1303.795042903152
 10
-482.7095407610036
 20
-1304.048998964961
 10
-478.5954525596967
 20
-1300.798361373805
 10
-476.2590567910532
 20
-1297.85247105682
 10
-474.2274082965806
 20
-1298.055635906267
 10
-472.1449685897463
 20
-1302.779218655916
 10
-470.57044100653
 20
-1308.061504741544
  0
LWPOLYLINE
  5
309
330
6F
100
AcDbEntity
  8
STEINE
100
AcDbPolyline
 90
        6
 70
     0
 43
0.0
 10
-470.57044100653
 20
-1308.061504741544
 10
-468.4372100873338
 20
-1307.909131104459
 10
-466.1516055310523
 20
-1301.306273497423
 10
-464.6786603725596
 20
-1298.411174392799
 10
-468.3356276626102
 20
-1297.496932570287
 10
-474.2274082965806
 20
-1298.055635906267
  0
LWPOLYLINE
  5
311
330
6F
100
AcDbEntity
  8
STEINE
100
AcDbPolyline
 90
       10
 70
     0
 43
0.0
 10
-468.3356276626102
 20
-1297.496932570287
 10
-472.0433861650227
 20
-1292.976514670086
 10
-472.0433861650227
 20
-1291.70673436104
 10
-467.0658473535649
 20
-1288.862426468779
 10
-461.3264403566799
 20
-1291.300404662146
 10
-455.3330772979858
 20
-1294.601833465663
 10
-457.4155170048202
 20
-1295.973196199432
 10
-456.4504839699457
 20
-1297.700097419734
 10
-459.4471654992927
 20
-1298.766712879332
 10
-464.6786603725596
 20
-1298.411174392799
  0
LWPOLYLINE
  5
31D
330
6F
100
AcDbEntity
  8
STEINE
100
AcDbPolyline
 90
       10
 70
     0
 43
0.0
 10
-461.3264403566799
 20
-1291.300404662146
 10
-460.7169458083381
 20
-1288.557679194608
 10
-467.827715538992
 20
-1283.58014038315
 10
-476.8177601270331
 20
-1281.599283101039
 10
-479.306529532762
 20
-1283.58014038315
 10
-481.1858043901492
 20
-1289.065591318226
 10
-481.7952989384909
 20
-1293.484426793704
 10
-479.8144416563801
 20
-1293.332053156618
 10
-476.4622216405005
 20
-1291.14803102506
 10
-472.0433861650227
 20
-1291.70673436104
  0
LWPOLYLINE
  5
329
330
6F
100
AcDbEntity
  8
STEINE
100
AcDbPolyline
 90
       12
 70
     0
 43
0.0
 10
-490.1758489781902
 20
-1293.332053156618
 10
-495.7628823379898
 20
-1290.640118901442
 10
-495.2549702143716
 20
-1288.35451434516
 10
-493.5280689940699
 20
-1285.307041603451
 10
-492.6646183839191
 20
-1282.056404012295
 10
-493.5280689940699
 20
-1279.618425818928
 10
-492.6138271715573
 20
-1279.008931270587
 10
-484.4364419813053
 20
-1282.310360074105
 10
-482.6587495486418
 20
-1283.326184321341
 10
-483.3698265217072
 20
-1288.60847040697
 10
-486.0109695645215
 20
-1291.859107998126
 10
-490.1758489781902
 20
-1293.332053156618
  0
LWPOLYLINE
  5
337
330
6F
100
AcDbEntity
  8
STEINE
100
AcDbPolyline
 90
       10
 70
     0
 43
0.0
 10
-483.1158704598981
 20
-1296.938229234307
 10
-485.0459365296471
 20
-1296.430317110689
 10
-485.5538486532651
 20
-1297.446141357925
 10
-488.5505301826121
 20
-1296.73506438486
 10
-489.3631895804012
 20
-1297.395350145563
 10
-489.0076510938685
 20
-1298.614339242247
 10
-489.2616071556775
 20
-1299.680954701845
 10
-486.8236289623105
 20
-1301.357064709785
 10
-483.8269474329634
 20
-1299.934910763654
 10
-483.1158704598981
 20
-1296.938229234307
  0
LWPOLYLINE
  5
343
330
6F
100
AcDbEntity
  8
STEINE
100
AcDbPolyline
 90
       14
 70
     0
 43
0.0
 10
-501.8578278214074
 20
-1215.164377331787
 10
-497.5913659830151
 20
-1217.653146737516
 10
-493.5788602064318
 20
-1217.653146737516
 10
-490.3790138276375
 20
-1217.602355525154
 10
-483.3698265217072
 20
-1225.017872529978
 10
-478.2907052855257
 20
-1228.42088375822
 10
-478.5446613473348
 20
-1229.995411341436
 10
-481.8460901508528
 20
-1231.722312561738
 10
-484.6396068307525
 20
-1233.804752268572
 10
-485.9601783521596
 20
-1236.598268948472
 10
-493.8836074806026
 20
-1228.42088375822
 10
-498.3532341684423
 20
-1223.3925537344
 10
-500.6896299370857
 20
-1219.227674320731
 10
-501.8578278214074
 20
-1215.164377331787
  0
LWPOLYLINE
  5
353
330
6F
100
AcDbEntity
  8
STEINE
100
AcDbPolyline
 90
        8
 70
     0
 43
0.0
 10
-498.8103550796986
 20
-1214.961212482339
 10
-504.4481796518599
 20
-1202.517365453695
 10
-489.2108159433158
 20
-1200.841255445755
 10
-488.2457829084414
 20
-1205.615629407766
 10
-486.671255325225
 20
-1210.948706705756
 10
-487.8394532095468
 20
-1215.672289455405
 10
-492.8677832333664
 20
-1215.723080667767
 10
-498.8103550796986
 20
-1214.961212482339
  0
LWPOLYLINE
  5
35D
330
6F
100
AcDbEntity
  8
STEINE
100
AcDbPolyline
 90
        7
 70
     0
 43
0.0
 10
-468.5387925120575
 20
-1219.329256745455
 10
-473.4655401111535
 20
-1215.113586119425
 10
-473.1607928369825
 20
-1213.843805810379
 10
-469.9609464581882
 20
-1214.859630057615
 10
-467.319803415374
 20
-1215.469124605957
 10
-466.6595176546703
 20
-1217.602355525154
 10
-468.5387925120575
 20
-1219.329256745455
  0
LWPOLYLINE
  5
366
330
6F
100
AcDbEntity
  8
STEINE
100
AcDbPolyline
 90
        8
 70
     0
 43
0.0
 10
-464.3231218860269
 20
-1220.85299311631
 10
-468.6911661491429
 20
-1219.837168869073
 10
-470.57044100653
 20
-1224.916290105255
 10
-469.8593640334646
 20
-1226.846356175004
 10
-467.8785067513539
 20
-1226.541608900833
 10
-466.8626825041176
 20
-1226.135279201938
 10
-465.1357812838159
 20
-1225.830531927768
 10
-464.3231218860269
 20
-1220.85299311631
  0
LWPOLYLINE
  5
370
330
6F
100
AcDbEntity
  8
STEINE
100
AcDbPolyline
 90
       15
 70
     0
 43
0.0
 10
-467.8785067513539
 20
-1226.541608900833
 10
-466.9642649288412
 20
-1229.843037704351
 10
-464.9834076467305
 20
-1231.976268623547
 10
-464.0183746118561
 20
-1236.54747773611
 10
-461.3264403566799
 20
-1238.477543805859
 10
-459.8534951981873
 20
-1235.582444701236
 10
-456.2981103328603
 20
-1233.296840144954
 10
-455.1299124485386
 20
-1232.839719233698
 10
-453.1490551664278
 20
-1231.620730137014
 10
-457.7710554913529
 20
-1222.986224035506
 10
-458.5837148891419
 20
-1218.668970984752
 10
-459.396374286931
 20
-1217.196025826259
 10
-461.0724842948708
 20
-1217.703937949877
 10
-462.951759152258
 20
-1217.653146737516
 10
-464.3231218860269
 20
-1220.85299311631
  0
LWPOLYLINE
  5
381
330
6F
100
AcDbEntity
  8
STEINE
100
AcDbPolyline
 90
        4
 70
     0
 43
0.0
 10
-458.5837148891419
 20
-1218.668970984752
 10
-457.4155170048202
 20
-1217.043652189174
 10
-456.3489015452221
 20
-1219.278465533093
 10
-457.7710554913529
 20
-1222.986224035506
  0
LWPOLYLINE
  5
387
330
6F
100
AcDbEntity
  8
STEINE
100
AcDbPolyline
 90
        9
 70
     0
 43
0.0
 10
-459.1424182251219
 20
-1215.519915818319
 10
-459.0916270127601
 20
-1213.03114641259
 10
-462.5962206657253
 20
-1209.37417912254
 10
-458.0758027655238
 20
-1210.643959431585
 10
-455.028330023815
 20
-1211.405827617012
 10
-454.5712091125587
 20
-1212.777190350781
 10
-455.7394069968804
 20
-1213.183520049676
 10
-456.7552312441166
 20
-1215.723080667767
 10
-459.1424182251219
 20
-1215.519915818319
  0
LWPOLYLINE
  5
392
330
6F
100
AcDbEntity
  8
STEINE
100
AcDbPolyline
 90
       12
 70
     0
 43
0.0
 10
-476.309848003415
 20
-1208.967849423645
 10
-480.8810571159782
 20
-1202.161826967162
 10
-482.3540022744709
 20
-1199.368310287262
 10
-481.3381780272345
 20
-1196.828749669172
 10
-478.2399140731639
 20
-1198.047738765855
 10
-474.5321555707516
 20
-1198.961980588368
 10
-469.0467046356756
 20
-1198.911189376006
 10
-464.3739130983887
 20
-1198.45406846475
 10
-461.7835612679362
 20
-1198.911189376006
 10
-466.202396743414
 20
-1202.212618179524
 10
-470.7228146436155
 20
-1205.869585469575
 10
-476.309848003415
 20
-1208.967849423645
  0
LWPOLYLINE
  5
3A0
330
6F
100
AcDbEntity
  8
STEINE
100
AcDbPolyline
 90
        8
 70
     0
 43
0.0
 10
-481.1858043901492
 20
-1194.949474811785
 10
-481.7445077261291
 20
-1191.902002070076
 10
-482.9127056104509
 20
-1191.089342672287
 10
-483.5729913711544
 20
-1191.851210857714
 10
-483.4714089464307
 20
-1193.171782379121
 10
-484.233277131858
 20
-1194.339980263443
 10
-483.2682440969835
 20
-1195.508178147765
 10
-481.1858043901492
 20
-1194.949474811785
  0
LWPOLYLINE
  5
3AA
330
6F
100
AcDbEntity
  8
STEINE
100
AcDbPolyline
 90
       20
 70
     0
 43
0.0
 10
-465.2373637085395
 20
-1192.917826317312
 10
-464.6278691601978
 20
-1195.254222085956
 10
-466.4055615928613
 20
-1197.235079368066
 10
-469.8085728211029
 20
-1197.742991491684
 10
-473.3639576864298
 20
-1197.641409066961
 10
-476.8177601270331
 20
-1196.930332093895
 10
-479.4081119574856
 20
-1195.254222085956
 10
-477.5796283124604
 20
-1193.42573844093
 10
-478.1383316484403
 20
-1192.003584494799
 10
-469.8593640334646
 20
-1192.86703510495
 10
-465.2373637085395
 20
-1192.917826317312
 10
-463.8152097624088
 20
-1192.511496618418
 10
-466.7103088670322
 20
-1189.616397513794
 10
-469.4022431222083
 20
-1184.842023551784
 10
-474.7353204201988
 20
-1183.165913543843
 10
-474.1766170842188
 20
-1185.654682949573
 10
-476.4114304281386
 20
-1185.807056586658
 10
-475.751144667435
 20
-1187.83870508113
 10
-477.0209249764804
 20
-1188.95611175309
 10
-478.1383316484403
 20
-1192.003584494799
  0
LWPOLYLINE
  5
3C0
330
6F
100
AcDbEntity
  8
STEINE
100
AcDbPolyline
 90
        5
 70
     0
 43
0.0
 10
-478.1383316484403
 20
-1192.003584494799
 10
-479.9160240811038
 20
-1190.530639336307
 10
-480.2207713552747
 20
-1192.359122981332
 10
-479.8144416563801
 20
-1193.832068139824
 10
-479.4081119574856
 20
-1195.254222085956
  0
LWPOLYLINE
  5
3C7
330
6F
100
AcDbEntity
  8
STEINE
100
AcDbPolyline
 90
       11
 70
     0
 43
0.0
 10
-465.2881549209014
 20
-1173.363209558013
 10
-466.8626825041176
 20
-1175.140901990677
 10
-468.945122210952
 20
-1178.137583520024
 10
-469.9101552458265
 20
-1180.473979288668
 10
-467.3705946277357
 20
-1182.556418995502
 10
-465.0849900714542
 20
-1184.74044112706
 10
-463.5612537005997
 20
-1187.026045683341
 10
-461.4788139937653
 20
-1188.346617204748
 10
-457.3647257924584
 20
-1187.991078718216
 10
-457.466308217182
 20
-1179.559737466155
 10
-461.3772315690417
 20
-1173.769539256908
  0
LWPOLYLINE
  5
3D4
330
6F
100
AcDbEntity
  8
STEINE
100
AcDbPolyline
 90
       15
 70
     1
 43
0.0
 10
-468.4880012996956
 20
-1156.094197354997
 10
-468.132462813163
 20
-1160.66540646756
 10
-467.1674297782884
 20
-1165.947692553189
 10
-465.2881549209014
 20
-1173.363209558013
 10
-464.2215394613033
 20
-1175.140901990677
 10
-461.3772315690417
 20
-1173.769539256908
 10
-456.8060224564785
 20
-1170.163363179219
 10
-451.3713627337644
 20
-1167.67459377349
 10
-450.4571209112516
 20
-1165.388989217209
 10
-453.098263954066
 20
-1159.141670096706
 10
-456.3996927575839
 20
-1152.183274003137
 10
-459.4471654992927
 20
-1150.354790358112
 10
-462.2406821791925
 20
-1147.459691253488
 10
-463.3072976387906
 20
-1144.513800936503
 10
-468.2340452378865
 20
-1154.570460984142
  0
LWPOLYLINE
  5
3E5
330
6F
100
AcDbEntity
  8
STEINE
100
AcDbPolyline
 90
        4
 70
     0
 43
0.0
 10
-433.2388999205967
 20
-1186.822880833894
 10
-433.7468120442149
 20
-1189.819562363241
 10
-430.4961744530587
 20
-1189.159276602538
 10
-425.6202180663247
 20
-1188.245034780025
  0
LWPOLYLINE
  5
3EB
330
6F
100
AcDbEntity
  8
STEINE
100
AcDbPolyline
 90
       10
 70
     0
 43
0.0
 10
-425.6202180663247
 20
-1188.245034780025
 10
-428.9724380822043
 20
-1186.010221436105
 10
-433.2388999205967
 20
-1186.822880833894
 10
-435.4229220521547
 20
-1186.061012648467
 10
-431.9691196115514
 20
-1182.50562778314
 10
-429.8358886923552
 20
-1180.372396863944
 10
-428.9724380822043
 20
-1177.832836245853
 10
-426.9407895877318
 20
-1176.91859442334
 10
-425.1630971550683
 20
-1187.787913868769
 10
-425.6202180663247
 20
-1188.245034780025
  0
LWPOLYLINE
  5
3F7
330
6F
100
AcDbEntity
  8
STEINE
100
AcDbPolyline
 90
        6
 70
     0
 43
0.0
 10
-455.7901982092421
 20
-1175.851978963742
 10
-455.6378245721568
 20
-1180.118440802135
 10
-454.1140882013023
 20
-1188.803738116005
 10
-450.2539560618044
 20
-1187.076836895703
 10
-445.9874942234121
 20
-1182.658001420225
 10
-444.7177139143668
 20
-1180.677144138115
  0
LWPOLYLINE
  5
3FF
330
6F
100
AcDbEntity
  8
STEINE
100
AcDbPolyline
 90
       10
 70
     0
 43
0.0
 10
-447.6636042313519
 20
-1173.769539256908
 10
-447.2064833200956
 20
-1175.445649264848
 10
-448.6286372662264
 20
-1176.867803210979
 10
-444.7177139143668
 20
-1180.677144138115
 10
-439.0290981298435
 20
-1183.470660818015
 10
-438.9783069174817
 20
-1180.575561713391
 10
-440.1465048018034
 20
-1177.578880184044
 10
-440.4512520759744
 20
-1175.039319565953
 10
-442.5844829951706
 20
-1173.26162713329
 10
-447.6636042313519
 20
-1173.769539256908
  0
LWPOLYLINE
  5
40B
330
6F
100
AcDbEntity
  8
STEINE
100
AcDbPolyline
 90
        4
 70
     0
 43
0.0
 10
-438.9783069174817
 20
-1180.575561713391
 10
-430.5469656654207
 20
-1175.445649264848
 10
-429.886679904717
 20
-1173.921912893994
 10
-433.8991856813003
 20
-1169.198330144345
  0
LWPOLYLINE
  5
411
330
6F
100
AcDbEntity
  8
STEINE
100
AcDbPolyline
 90
        4
 70
     0
 43
0.0
 10
-455.7901982092421
 20
-1175.851978963742
 10
-453.3014288035133
 20
-1173.871121681631
 10
-448.4762636291409
 20
-1173.718748044546
 10
-447.6636042313519
 20
-1173.769539256908
  0
LWPOLYLINE
  5
417
330
6F
100
AcDbEntity
  8
STEINE
100
AcDbPolyline
 90
        9
 70
     0
 43
0.0
 10
-439.3338454040145
 20
-1169.147538931983
 10
-441.9749884468287
 20
-1170.772857727561
 10
-444.2098017907485
 20
-1172.195011673692
 10
-446.1398678604975
 20
-1171.483934700626
 10
-447.0541096830102
 20
-1166.455604676807
 10
-447.3588569571811
 20
-1164.068417695802
 10
-446.2414502852211
 20
-1158.684549185449
 10
-439.6893838905471
 20
-1167.268264074596
 10
-439.3338454040145
 20
-1169.147538931983
  0
LWPOLYLINE
  5
422
330
6F
100
AcDbEntity
  8
STEINE
100
AcDbPolyline
 90
       13
 70
     0
 43
0.0
 10
-440.4512520759744
 20
-1175.039319565953
 10
-438.36881236914
 20
-1176.91859442334
 10
-436.2863726623055
 20
-1174.683781079421
 10
-436.184790237582
 20
-1168.995165294897
 10
-433.8991856813003
 20
-1169.198330144345
 10
-429.6835150552698
 20
-1168.334879534194
 10
-432.4770317351696
 20
-1164.779494668867
 10
-427.4487017113499
 20
-1162.90021981148
 10
-429.074020506928
 20
-1154.875208258313
 10
-431.1056690014005
 20
-1153.910175223439
 10
-440.9083729872306
 20
-1152.792768551479
 10
-444.1082193660249
 20
-1154.976790683037
 10
-446.2414502852211
 20
-1158.684549185449
  0
LWPOLYLINE
  5
431
330
6F
100
AcDbEntity
  8
STEINE
100
AcDbPolyline
 90
        6
 70
     0
 43
0.0
 10
-445.6827469492412
 20
-1147.256526404041
 10
-444.0066369413013
 20
-1144.107471237609
 10
-441.365493898487
 20
-1140.755251221729
 10
-439.4862190410998
 20
-1142.939273353287
 10
-442.5336917828087
 20
-1149.237383686152
 10
-445.6827469492412
 20
-1147.256526404041
  0
LWPOLYLINE
  5
439
330
6F
100
AcDbEntity
  8
STEINE
100
AcDbPolyline
 90
        6
 70
     0
 43
0.0
 10
-434.8642187161748
 20
-1148.119977014192
 10
-435.1689659903457
 20
-1144.310636087056
 10
-433.3912735576822
 20
-1145.478833971378
 10
-432.883361434064
 20
-1147.713647315298
 10
-434.254724167833
 20
-1148.526306713087
 10
-434.8642187161748
 20
-1148.119977014192
  0
LWPOLYLINE
  5
441
330
6F
100
AcDbEntity
  8
STEINE
100
AcDbPolyline
 90
        8
 70
     0
 43
0.0
 10
-463.6120449129615
 20
-1141.364745770071
 10
-474.6845292078369
 20
-1134.050811189969
 10
-474.4305731460279
 20
-1138.063316966553
 10
-472.6528807133644
 20
-1142.126613955498
 10
-470.0625288829119
 20
-1147.662856102936
 10
-467.9292979637157
 20
-1148.831053987257
 10
-463.3072976387906
 20
-1142.075822743136
 10
-463.6120449129615
 20
-1141.364745770071
  0
LWPOLYLINE
  5
44B
330
6F
100
AcDbEntity
  8
KNOCHEN
100
AcDbPolyline
 90
        8
 70
     0
 43
0.0
 10
-463.9675833994941
 20
-1445.248569330804
 10
-469.4530343345701
 20
-1442.150305376733
 10
-469.0467046356756
 20
-1440.982107492411
 10
-470.0625288829119
 20
-1440.067865669899
 10
-469.7069903963792
 20
-1438.69650293613
 10
-463.5612537005997
 20
-1442.505843863266
 10
-464.5262867354741
 20
-1443.216920836331
 10
-463.9675833994941
 20
-1445.248569330804
  0
LWPOLYLINE
  5
455
330
6F
100
AcDbEntity
  8
KNOCHEN
100
AcDbPolyline
 90
        5
 70
     0
 43
0.0
 10
-456.9076048812021
 20
-1391.054345740748
 10
-458.2281764026093
 20
-1390.241686342959
 10
-455.7901982092421
 20
-1386.178389354014
 10
-454.3680442631114
 20
-1386.737092689994
 10
-456.9076048812021
 20
-1391.054345740748
  0
LWPOLYLINE
  5
45C
330
6F
100
AcDbEntity
  8
KNOCHEN
100
AcDbPolyline
 90
        5
 70
     0
 43
0.0
 10
-455.028330023815
 20
-1375.563025970395
 10
-460.6153633836145
 20
-1372.210805954515
 10
-459.7011215611018
 20
-1370.890234433108
 10
-454.6220003249204
 20
-1374.039289599541
 10
-455.028330023815
 20
-1375.563025970395
  0
LWPOLYLINE
  5
463
330
6F
100
AcDbEntity
  8
KNOCHEN
100
AcDbPolyline
 90
        6
 70
     0
 43
0.0
 10
-467.8785067513539
 20
-1375.207487483862
 10
-467.0658473535649
 20
-1373.632959900646
 10
-465.4913197703486
 20
-1372.210805954515
 10
-464.7294515849214
 20
-1373.17583898939
 10
-466.5579352299467
 20
-1375.207487483862
 10
-467.8785067513539
 20
-1375.207487483862
  0
LWPOLYLINE
  5
46B
330
6F
100
AcDbEntity
  8
KNOCHEN
100
AcDbPolyline
 90
        4
 70
     0
 43
0.0
 10
-467.0150561412031
 20
-1379.016828410998
 10
-465.5929021950722
 20
-1377.594674464868
 10
-465.0341988590922
 20
-1378.610498712104
 10
-467.0150561412031
 20
-1379.016828410998
  0
INSERT
  5
471
330
6F
100
AcDbEntity
  8
KNOCHENSCHRAFF
100
AcDbBlockReference
  2
*X1
 10
0.0
 20
0.0
 30
0.0
1001
ACAD
1000
HATCH
1002
{
1070
    16
1000
ANSI31,I
1040
2.0
1040
0.0
1002
}
  0
INSERT
  5
472
330
6F
100
AcDbEntity
  8
STEINESCHRAFF
100
AcDbBlockReference
  2
*X2
 10
0.0
 20
0.0
 30
0.0
1001
ACAD
1000
HATCH
1002
{
1070
    16
1000
DOTS,I
1040
20.0
1040
0.0
1002
}
  0
INSERT
  5
473
330
6F
100
AcDbEntity
  8
STEINESCHRAFF
100
AcDbBlockReference
  2
*X3
 10
0.0
 20
0.0
 30
0.0
1001
ACAD
1000
HATCH
1002
{
1070
    16
1000
DOTS,I
1040
20.0
1040
0.0
1002
}
  0
ENDSEC
  0
SECTION
  2
OBJECTS
  0
DICTIONARY
  5
C
330
0
100
AcDbDictionary
281
     1
  3
ACAD_CIP_PREVIOUS_PRODUCT_INFO
350
476
  3
ACAD_COLOR
350
62
  3
ACAD_DETAILVIEWSTYLE
350
69
  3
ACAD_GROUP
350
D
  3
ACAD_LAYOUT
350
61
  3
ACAD_MATERIAL
350
10
  3
ACAD_MLEADERSTYLE
350
65
  3
ACAD_MLINESTYLE
350
5E
  3
ACAD_PLOTSETTINGS
350
60
  3
ACAD_PLOTSTYLENAME
350
E
  3
ACAD_SCALELIST
350
42
  3
ACAD_SECTIONVIEWSTYLE
350
67
  3
ACAD_TABLESTYLE
350
63
  3
ACAD_VISUALSTYLE
350
29
  3
ACDB_RECOMPOSE_DATA
350
48D
  3
AcDbVariableDictionary
350
480
  0
DICTIONARY
  5
47A
330
2
100
AcDbDictionary
280
     1
281
     1
  3
ACAD_LAYERSTATES
360
47B
  0
XRECORD
  5
476
102
{ACAD_REACTORS
330
C
102
}
330
C
100
AcDbXrecord
280
     1
300
ACD
300
2014
300
DSADV_F_S
  0
DICTIONARY
  5
62
102
{ACAD_REACTORS
330
C
102
}
330
C
100
AcDbDictionary
281
     1
  0
DICTIONARY
  5
69
102
{ACAD_REACTORS
330
C
102
}
330
C
100
AcDbDictionary
281
     1
  3
Imperial24
350
6A
  0
DICTIONARY
  5
D
102
{ACAD_REACTORS
330
C
102
}
330
C
100
AcDbDictionary
281
     1
  0
DICTIONARY
  5
61
102
{ACAD_REACTORS
330
C
102
}
330
C
100
AcDbDictionary
281
     1
  3
Layout1
350
6E
  3
Model
350
72
  0
DICTIONARY
  5
10
102
{ACAD_REACTORS
330
C
102
}
330
C
100
AcDbDictionary
281
     1
  3
ByBlock
350
19
  3
ByLayer
350
11
  3
Global
350
21
  0
DICTIONARY
  5
65
102
{ACAD_REACTORS
330
C
102
}
330
C
100
AcDbDictionary
281
     1
  3
Standard
350
66
  0
DICTIONARY
  5
5E
102
{ACAD_REACTORS
330
C
102
}
330
C
100
AcDbDictionary
281
     1
  3
Standard
350
5F
  0
DICTIONARY
  5
60
102
{ACAD_REACTORS
330
C
102
}
330
C
100
AcDbDictionary
281
     1
  0
ACDBDICTIONARYWDFLT
  5
E
102
{ACAD_REACTORS
330
C
102
}
330
C
100
AcDbDictionary
281
     1
  3
Normal
350
F
100
AcDbDictionaryWithDefault
340
F
  0
DICTIONARY
  5
42
102
{ACAD_REACTORS
330
C
102
}
330
C
100
AcDbDictionary
281
     1
  3
A0
350
43
  3
A1
350
44
  3
A2
350
45
  3
A3
350
46
  3
A4
350
47
  3
A5
350
48
  3
A6
350
49
  3
A7
350
4A
  3
A8
350
4B
  3
A9
350
4C
  3
B0
350
4D
  3
B1
350
4E
  3
B2
350
4F
  3
B3
350
50
  3
B4
350
51
  3
B5
350
52
  3
B6
350
53
  0
DICTIONARY
  5
67
102
{ACAD_REACTORS
330
C
102
}
330
C
100
AcDbDictionary
281
     1
  3
Imperial24
350
68
  0
DICTIONARY
  5
63
102
{ACAD_REACTORS
330
C
102
}
330
C
100
AcDbDictionary
281
     1
  3
Standard
350
64
  0
DICTIONARY
  5
29
102
{ACAD_REACTORS
330
C
102
}
330
C
100
AcDbDictionary
281
     1
  3
2dWireframe
350
2F
  3
Basic
350
2E
  3
Brighten
350
35
  3
ColorChange
350
39
  3
Conceptual
350
32
  3
Dim
350
34
  3
EdgeColorOff
350
41
  3
Facepattern
350
38
  3
Flat
350
2A
  3
FlatWithEdges
350
2B
  3
Gouraud
350
2C
  3
GouraudWithEdges
350
2D
  3
Hidden
350
31
  3
JitterOff
350
3F
  3
Linepattern
350
37
  3
OverhangOff
350
40
  3
Realistic
350
33
  3
Shaded
350
3E
  3
Shaded with edges
350
3D
  3
Shades of Gray
350
3A
  3
Sketchy
350
3B
  3
Thicken
350
36
  3
Wireframe
350
30
  3
X-Ray
350
3C
  0
XRECORD
  5
48D
102
{ACAD_REACTORS
330
C
102
}
330
C
100
AcDbXrecord
280
     1
 90
        1
330
64
330
68
330
6A
  0
DICTIONARY
  5
480
102
{ACAD_REACTORS
330
C
102
}
330
C
100
AcDbDictionary
281
     1
  3
CANNOSCALE
350
485
  3
CMLEADERSTYLE
350
482
  3
CTABLESTYLE
350
481
  3
CVIEWDETAILSTYLE
350
483
  3
CVIEWSECTIONSTYLE
350
484
  0
DICTIONARY
  5
47B
102
{ACAD_REACTORS
330
47A
102
}
330
47A
100
AcDbDictionary
281
     1
  0
ACDBDETAILVIEWSTYLE
  5
6A
102
{ACAD_XDICTIONARY
360
48B
102
}
102
{ACAD_REACTORS
330
69
102
}
330
69
100
AcDbModelDocViewStyle
 70
     0
  3
Imperial24
290
     0
100
AcDbDetailViewStyle
 70
     0
 71
     0
 90
        3
 71
     1
340
55
 62
   256
 40
0.24
340
0
 62
   256
 40
0.24
300

 40
0.36
280
     3
 71
     2
340
5C
 90
       25
 62
   256
 71
     3
340
55
 62
   256
 40
0.24
 90
        1
 40
0.75
 90
        1
300
%<\AcVar ViewType \f "%tc1">% %<\AcVar ViewDetailId>%\PVARIA %<\AcVar ViewScale \f "%sn">%
 71
     4
340
5C
 90
       25
 62
   256
340
5C
 90
       25
 62
   256
280
     0
  0
LAYOUT
  5
6E
102
{ACAD_REACTORS
330
61
102
}
330
61
100
AcDbPlotSettings
  1

  2
Kyocera FS-1350DN KX
  4

  6

 40
0.0
 41
0.0
 42
0.0
 43
0.0
 44
0.0
 45
0.0
 46
0.0
 47
0.0
 48
0.0
 49
0.0
140
0.0
141
0.0
142
1.0
143
1.0
 70
   688
 72
     0
 73
     0
 74
     5
  7

 75
    16
147
1.0
 76
     0
 77
     2
 78
   300
148
0.0
149
0.0
100
AcDbLayout
  1
Layout1
 70
     0
 71
     1
 10
0.0
 20
0.0
 11
12.0
 21
9.0
 12
0.0
 22
0.0
 32
0.0
 14
1.000000000000000E+20
 24
1.000000000000000E+20
 34
1.000000000000000E+20
 15
-1.000000000000000E+20
 25
-1.000000000000000E+20
 35
-1.000000000000000E+20
146
0.0
 13
0.0
 23
0.0
 33
0.0
 16
1.0
 26
0.0
 36
0.0
 17
0.0
 27
1.0
 37
0.0
 76
     0
330
6B
  0
LAYOUT
  5
72
102
{ACAD_REACTORS
330
61
102
}
330
61
100
AcDbPlotSettings
  1

  2
Kyocera FS-1350DN KX
  4

  6

 40
0.0
 41
0.0
 42
0.0
 43
0.0
 44
0.0
 45
0.0
 46
0.0
 47
0.0
 48
0.0
 49
0.0
140
0.0
141
0.0
142
1.0
143
1.0
 70
  1712
 72
     0
 73
     0
 74
     0
  7

 75
     0
147
1.0
 76
     0
 77
     2
 78
   300
148
0.0
149
0.0
100
AcDbLayout
  1
Model
 70
     1
 71
     0
 10
0.0
 20
0.0
 11
12.0
 21
9.0
 12
0.0
 22
0.0
 32
0.0
 14
0.0
 24
0.0
 34
0.0
 15
0.0
 25
0.0
 35
0.0
146
0.0
 13
0.0
 23
0.0
 33
0.0
 16
1.0
 26
0.0
 36
0.0
 17
0.0
 27
1.0
 37
0.0
 76
     0
330
6F
331
90
  0
MATERIAL
  5
19
102
{ACAD_XDICTIONARY
360
1A
102
}
102
{ACAD_REACTORS
330
10
102
}
330
10
100
AcDbMaterial
  1
ByBlock
 72
     0
 43
0.0208333333333333
 43
0.0
 43
0.0
 43
0.0
 43
0.0
 43
0.0208333333333333
 43
0.0
 43
0.0
 43
0.0
 43
0.0
 43
1.0
 43
0.0
 43
0.0
 43
0.0
 43
0.0
 43
1.0
 77
     0
 47
0.0208333333333333
 47
0.0
 47
0.0
 47
0.0
 47
0.0
 47
0.0208333333333333
 47
0.0
 47
0.0
 47
0.0
 47
0.0
 47
1.0
 47
0.0
 47
0.0
 47
0.0
 47
0.0
 47
1.0
171
     0
 49
0.0208333333333333
 49
0.0
 49
0.0
 49
0.0
 49
0.0
 49
0.0208333333333333
 49
0.0
 49
0.0
 49
0.0
 49
0.0
 49
1.0
 49
0.0
 49
0.0
 49
0.0
 49
0.0
 49
1.0
175
     0
142
0.0208333333333333
142
0.0
142
0.0
142
0.0
142
0.0
142
0.0208333333333333
142
0.0
142
0.0
142
0.0
142
0.0
142
1.0
142
0.0
142
0.0
142
0.0
142
0.0
142
1.0
179
     0
144
0.0208333333333333
144
0.0
144
0.0
144
0.0
144
0.0
144
0.0208333333333333
144
0.0
144
0.0
144
0.0
144
0.0
144
1.0
144
0.0
144
0.0
144
0.0
144
0.0
144
1.0
147
0.0208333333333333
147
0.0
147
0.0
147
0.0
147
0.0
147
0.0208333333333333
147
0.0
147
0.0
147
0.0
147
0.0
147
1.0
147
0.0
147
0.0
147
0.0
147
0.0
147
1.0
  0
MATERIAL
  5
11
102
{ACAD_XDICTIONARY
360
12
102
}
102
{ACAD_REACTORS
330
10
102
}
330
10
100
AcDbMaterial
  1
ByLayer
 72
     0
 43
0.0208333333333333
 43
0.0
 43
0.0
 43
0.0
 43
0.0
 43
0.0208333333333333
 43
0.0
 43
0.0
 43
0.0
 43
0.0
 43
1.0
 43
0.0
 43
0.0
 43
0.0
 43
0.0
 43
1.0
 77
     0
 47
0.0208333333333333
 47
0.0
 47
0.0
 47
0.0
 47
0.0
 47
0.0208333333333333
 47
0.0
 47
0.0
 47
0.0
 47
0.0
 47
1.0
 47
0.0
 47
0.0
 47
0.0
 47
0.0
 47
1.0
171
     0
 49
0.0208333333333333
 49
0.0
 49
0.0
 49
0.0
 49
0.0
 49
0.0208333333333333
 49
0.0
 49
0.0
 49
0.0
 49
0.0
 49
1.0
 49
0.0
 49
0.0
 49
0.0
 49
0.0
 49
1.0
175
     0
142
0.0208333333333333
142
0.0
142
0.0
142
0.0
142
0.0
142
0.0208333333333333
142
0.0
142
0.0
142
0.0
142
0.0
142
1.0
142
0.0
142
0.0
142
0.0
142
0.0
142
1.0
179
     0
144
0.0208333333333333
144
0.0
144
0.0
144
0.0
144
0.0
144
0.0208333333333333
144
0.0
144
0.0
144
0.0
144
0.0
144
1.0
144
0.0
144
0.0
144
0.0
144
0.0
144
1.0
147
0.0208333333333333
147
0.0
147
0.0
147
0.0
147
0.0
147
0.0208333333333333
147
0.0
147
0.0
147
0.0
147
0.0
147
1.0
147
0.0
147
0.0
147
0.0
147
0.0
147
1.0
  0
MATERIAL
  5
21
102
{ACAD_XDICTIONARY
360
22
102
}
102
{ACAD_REACTORS
330
10
102
}
330
10
100
AcDbMaterial
  1
Global
 72
     0
 43
0.0208333333333333
 43
0.0
 43
0.0
 43
0.0
 43
0.0
 43
0.0208333333333333
 43
0.0
 43
0.0
 43
0.0
 43
0.0
 43
1.0
 43
0.0
 43
0.0
 43
0.0
 43
0.0
 43
1.0
 77
     0
 47
0.0208333333333333
 47
0.0
 47
0.0
 47
0.0
 47
0.0
 47
0.0208333333333333
 47
0.0
 47
0.0
 47
0.0
 47
0.0
 47
1.0
 47
0.0
 47
0.0
 47
0.0
 47
0.0
 47
1.0
171
     0
 49
0.0208333333333333
 49
0.0
 49
0.0
 49
0.0
 49
0.0
 49
0.0208333333333333
 49
0.0
 49
0.0
 49
0.0
 49
0.0
 49
1.0
 49
0.0
 49
0.0
 49
0.0
 49
0.0
 49
1.0
175
     0
142
0.0208333333333333
142
0.0
142
0.0
142
0.0
142
0.0
142
0.0208333333333333
142
0.0
142
0.0
142
0.0
142
0.0
142
1.0
142
0.0
142
0.0
142
0.0
142
0.0
142
1.0
179
     0
144
0.0208333333333333
144
0.0
144
0.0
144
0.0
144
0.0
144
0.0208333333333333
144
0.0
144
0.0
144
0.0
144
0.0
144
1.0
144
0.0
144
0.0
144
0.0
144
0.0
144
1.0
147
0.0208333333333333
147
0.0
147
0.0
147
0.0
147
0.0
147
0.0208333333333333
147
0.0
147
0.0
147
0.0
147
0.0
147
1.0
147
0.0
147
0.0
147
0.0
147
0.0
147
1.0
  0
MLEADERSTYLE
  5
66
102
{ACAD_REACTORS
330
65
102
}
330
65
100
AcDbMLeaderStyle
179
     2
170
     2
171
     1
172
     0
 90
        2
 40
0.0
 41
0.0
173
     1
 91
-1056964608
340
5A
 92
       -2
290
     1
 42
0.09
291
     1
 43
0.36
  3
Standard
 44
0.18
300

342
55
174
     1
178
     6
175
     1
176
     0
 93
-1056964608
 45
0.18
292
     0
297
     0
 46
0.18
 94
-1056964608
 47
1.0
 49
1.0
140
1.0
293
     1
141
0.0
294
     1
177
     0
142
1.0
295
     1
296
     0
143
0.125
271
     0
272
     9
273
     9
298
     1
  0
MLINESTYLE
  5
5F
102
{ACAD_REACTORS
330
5E
102
}
330
5E
100
AcDbMlineStyle
  2
STANDARD
 70
     0
  3

 62
   256
 51
90.0
 52
90.0
 71
     2
 49
0.5
 62
   256
  6
BYLAYER
 49
-0.5
 62
   256
  6
BYLAYER
  0
ACDBPLACEHOLDER
  5
F
102
{ACAD_REACTORS
330
E
102
}
330
E
  0
SCALE
  5
43
102
{ACAD_REACTORS
330
42
102
}
330
42
100
AcDbScale
 70
     0
300
1:1
140
1.0
141
1.0
290
     1
  0
SCALE
  5
44
102
{ACAD_REACTORS
330
42
102
}
330
42
100
AcDbScale
 70
     0
300
1/128" = 1'-0"
140
0.0078125
141
12.0
290
     0
  0
SCALE
  5
45
102
{ACAD_REACTORS
330
42
102
}
330
42
100
AcDbScale
 70
     0
300
1/64" = 1'-0"
140
0.015625
141
12.0
290
     0
  0
SCALE
  5
46
102
{ACAD_REACTORS
330
42
102
}
330
42
100
AcDbScale
 70
     0
300
1/32" = 1'-0"
140
0.03125
141
12.0
290
     0
  0
SCALE
  5
47
102
{ACAD_REACTORS
330
42
102
}
330
42
100
AcDbScale
 70
     0
300
1/16" = 1'-0"
140
0.0625
141
12.0
290
     0
  0
SCALE
  5
48
102
{ACAD_REACTORS
330
42
102
}
330
42
100
AcDbScale
 70
     0
300
3/32" = 1'-0"
140
0.09375
141
12.0
290
     0
  0
SCALE
  5
49
102
{ACAD_REACTORS
330
42
102
}
330
42
100
AcDbScale
 70
     0
300
1/8" = 1'-0"
140
0.125
141
12.0
290
     0
  0
SCALE
  5
4A
102
{ACAD_REACTORS
330
42
102
}
330
42
100
AcDbScale
 70
     0
300
3/16" = 1'-0"
140
0.1875
141
12.0
290
     0
  0
SCALE
  5
4B
102
{ACAD_REACTORS
330
42
102
}
330
42
100
AcDbScale
 70
     0
300
1/4" = 1'-0"
140
0.25
141
12.0
290
     0
  0
SCALE
  5
4C
102
{ACAD_REACTORS
330
42
102
}
330
42
100
AcDbScale
 70
     0
300
3/8" = 1'-0"
140
0.375
141
12.0
290
     0
  0
SCALE
  5
4D
102
{ACAD_REACTORS
330
42
102
}
330
42
100
AcDbScale
 70
     0
300
1/2" = 1'-0"
140
0.5
141
12.0
290
     0
  0
SCALE
  5
4E
102
{ACAD_REACTORS
330
42
102
}
330
42
100
AcDbScale
 70
     0
300
3/4" = 1'-0"
140
0.75
141
12.0
290
     0
  0
SCALE
  5
4F
102
{ACAD_REACTORS
330
42
102
}
330
42
100
AcDbScale
 70
     0
300
1" = 1'-0"
140
1.0
141
12.0
290
     0
  0
SCALE
  5
50
102
{ACAD_REACTORS
330
42
102
}
330
42
100
AcDbScale
 70
     0
300
1-1/2" = 1'-0"
140
1.5
141
12.0
290
     0
  0
SCALE
  5
51
102
{ACAD_REACTORS
330
42
102
}
330
42
100
AcDbScale
 70
     0
300
3" = 1'-0"
140
3.0
141
12.0
290
     0
  0
SCALE
  5
52
102
{ACAD_REACTORS
330
42
102
}
330
42
100
AcDbScale
 70
     0
300
6" = 1'-0"
140
6.0
141
12.0
290
     0
  0
SCALE
  5
53
102
{ACAD_REACTORS
330
42
102
}
330
42
100
AcDbScale
 70
     0
300
1'-0" = 1'-0"
140
12.0
141
12.0
290
     0
  0
ACDBSECTIONVIEWSTYLE
  5
68
102
{ACAD_XDICTIONARY
360
489
102
}
102
{ACAD_REACTORS
330
67
102
}
330
67
100
AcDbModelDocViewStyle
 70
     0
  3
Imperial24
290
     0
100
AcDbSectionViewStyle
 70
     0
 71
     0
 90
       78
 71
     1
340
55
 62
   256
 40
0.24
340
0
340
0
 62
   256
 40
0.24
300
I, O, Q, S, X, Z
 40
0.48
 90
        3
 40
0.18
 90
        1
 71
     2
340
5C
 90
       25
 62
   256
340
5C
 90
       50
 62
   256
 40
0.24
 40
0.0
 40
0.24
 71
     3
340
55
 62
   256
 40
0.24
 90
        1
 40
0.75
 90
        1
300
%<\AcVar ViewType \f "%tc1">% %<\AcVar ViewSectionStartId>%-%<\AcVar ViewSectionEndId>%\PVARIA %<\AcVar ViewScale \f "%sn">%
 71
     4
 62
   256
 62
   257
300
ANSI31
 40
1.0
 90
        0
290
     0
290
     0
 90
        6
 40
0.0
 40
1.570796326794896
 40
0.2617993877991494
 40
1.308996938995747
 40
-0.2617993877991494
 40
1.832595714594046
  0
TABLESTYLE
  5
64
102
{ACAD_XDICTIONARY
360
487
102
}
102
{ACAD_REACTORS
330
63
102
}
330
63
100
AcDbTableStyle
280
     0
  3
Standard
 70
     0
 71
     0
 40
0.06
 41
0.06
280
     0
281
     0
  7
STANDARD
140
0.18
170
     2
 62
     0
 63
     7
283
     0
 90
      512
 91
        0
  1

274
    -2
284
     1
 64
     0
275
    -2
285
     1
 65
     0
276
    -2
286
     1
 66
     0
277
    -2
287
     1
 67
     0
278
    -2
288
     1
 68
     0
279
    -2
289
     1
 69
     0
  7
STANDARD
140
0.25
170
     5
 62
     0
 63
     7
283
     0
 90
      512
 91
        0
  1

274
    -2
284
     1
 64
     0
275
    -2
285
     1
 65
     0
276
    -2
286
     1
 66
     0
277
    -2
287
     1
 67
     0
278
    -2
288
     1
 68
     0
279
    -2
289
     1
 69
     0
  7
STANDARD
140
0.18
170
     5
 62
     0
 63
     7
283
     0
 90
      512
 91
        0
  1

274
    -2
284
     1
 64
     0
275
    -2
285
     1
 65
     0
276
    -2
286
     1
 66
     0
277
    -2
287
     1
 67
     0
278
    -2
288
     1
 68
     0
279
    -2
289
     1
 69
     0
  0
VISUALSTYLE
  5
2F
102
{ACAD_REACTORS
330
29
102
}
330
29
100
AcDbVisualStyle
  2
2dWireframe
 70
     4
177
     3
291
     0
 70
    58
 90
        0
176
     1
 90
        2
176
     1
 90
        0
176
     1
 90
        0
176
     1
 40
0.6
176
     1
 40
30.0
176
     1
 62
     7
420
 16777215
176
     1
 90
        1
176
     1
 90
        4
176
     1
 62
     7
176
     1
 62
   257
176
     1
 90
        1
176
     1
 90
        1
176
     1
 40
1.0
176
     1
 90
        0
176
     1
 62
   257
176
     1
 40
1.0
176
     1
 90
        1
176
     1
 90
        6
176
     1
 90
        2
176
     1
 62
     7
176
     1
 90
        5
176
     1
 90
        0
176
     1
 90
        0
176
     1
290
     0
176
     1
 90
        1
176
     1
 40
0.0
176
     1
 90
        0
176
     1
290
     1
176
     1
290
     1
176
     1
290
     0
176
     1
290
     0
176
     1
290
     0
176
     1
290
     0
176
     1
290
     0
176
     1
290
     0
176
     1
290
     0
176
     1
 90
       50
176
     1
 40
0.0
176
     1
 40
1.0
176
     1
 90
        0
176
     1
 62
    18
420
        0
176
     1
 90
       50
176
     1
 90
        3
176
     1
 62
     5
420
      255
176
     1
290
     0
176
     1
 90
       50
176
     1
 90
       50
176
     1
 90
       50
176
     1
290
     0
176
     1
 90
       50
176
     1
 62
   256
176
     0
 40
1.0
176
     0
 90
        2
176
     1
  1
strokes_ogs.tif
176
     1
290
     0
176
     1
 40
1.0
176
     1
 40
1.0
176
     1
  0
VISUALSTYLE
  5
2E
102
{ACAD_REACTORS
330
29
102
}
330
29
100
AcDbVisualStyle
  2
Basic
 70
     7
177
     3
291
     1
 70
    58
 90
        1
176
     1
 90
        0
176
     1
 90
        1
176
     1
 90
        0
176
     1
 40
0.6
176
     1
 40
30.0
176
     1
 62
     7
420
 16777215
176
     1
 90
        0
176
     1
 90
        4
176
     1
 62
     7
176
     1
 62
   257
176
     1
 90
        1
176
     1
 90
        1
176
     1
 40
1.0
176
     1
 90
        8
176
     1
 62
     7
176
     1
 40
1.0
176
     1
 90
        1
176
     1
 90
        6
176
     1
 90
        2
176
     1
 62
     7
176
     1
 90
        5
176
     1
 90
        0
176
     1
 90
        0
176
     1
290
     0
176
     1
 90
        1
176
     1
 40
0.0
176
     1
 90
        0
176
     1
290
     0
176
     1
290
     1
176
     1
290
     1
176
     1
290
     0
176
     1
290
     0
176
     1
290
     0
176
     1
290
     0
176
     1
290
     0
176
     1
290
     0
176
     1
 90
       50
176
     1
 40
0.0
176
     1
 40
1.0
176
     1
 90
        0
176
     1
 62
    18
420
        0
176
     1
 90
       50
176
     1
 90
        3
176
     1
 62
     5
420
      255
176
     1
290
     0
176
     1
 90
       50
176
     1
 90
       50
176
     1
 90
       50
176
     1
290
     0
176
     1
 90
       50
176
     1
 62
   256
176
     0
 40
1.0
176
     0
 90
        2
176
     1
  1
strokes_ogs.tif
176
     1
290
     0
176
     1
 40
1.0
176
     1
 40
1.0
176
     1
  0
VISUALSTYLE
  5
35
102
{ACAD_REACTORS
330
29
102
}
330
29
100
AcDbVisualStyle
  2
Brighten
 70
    12
177
     3
291
     1
 70
    58
 90
        2
176
     1
 90
        2
176
     1
 90
        0
176
     1
 90
        0
176
     1
 40
0.6
176
     1
 40
30.0
176
     1
 62
     7
420
 16777215
176
     1
 90
        1
176
     1
 90
        4
176
     1
 62
     7
176
     1
 62
   257
176
     1
 90
        1
176
     1
 90
        1
176
     1
 40
1.0
176
     1
 90
        8
176
     1
 62
     7
176
     1
 40
1.0
176
     1
 90
        1
176
     1
 90
        6
176
     1
 90
        2
176
     1
 62
     7
176
     1
 90
        5
176
     1
 90
        0
176
     1
 90
        0
176
     1
290
     0
176
     1
 90
        1
176
     1
 40
50.0
176
     1
 90
        0
176
     1
290
     0
176
     1
290
     1
176
     1
290
     1
176
     1
290
     0
176
     1
290
     0
176
     1
290
     0
176
     1
290
     0
176
     1
290
     0
176
     1
290
     0
176
     1
 90
       50
176
     1
 40
0.0
176
     1
 40
1.0
176
     1
 90
        0
176
     1
 62
    18
420
        0
176
     1
 90
       50
176
     1
 90
        3
176
     1
 62
     5
420
      255
176
     1
290
     0
176
     1
 90
       50
176
     1
 90
       50
176
     1
 90
       50
176
     1
290
     0
176
     1
 90
       50
176
     1
 62
   256
176
     0
 40
1.0
176
     0
 90
        2
176
     1
  1
strokes_ogs.tif
176
     1
290
     0
176
     1
 40
1.0
176
     1
 40
1.0
176
     1
  0
VISUALSTYLE
  5
39
102
{ACAD_REACTORS
330
29
102
}
330
29
100
AcDbVisualStyle
  2
ColorChange
 70
    16
177
     3
291
     1
 70
    58
 90
        2
176
     1
 90
        2
176
     1
 90
        3
176
     1
 90
        0
176
     1
 40
0.6
176
     1
 40
30.0
176
     1
 62
     8
420
  8421504
176
     1
 90
        1
176
     1
 90
        4
176
     1
 62
     7
176
     1
 62
   257
176
     1
 90
        1
176
     1
 90
        1
176
     1
 40
1.0
176
     1
 90
        8
176
     1
 62
     8
420
  8421504
176
     1
 40
1.0
176
     1
 90
        1
176
     1
 90
        6
176
     1
 90
        2
176
     1
 62
     7
176
     1
 90
        5
176
     1
 90
        0
176
     1
 90
        0
176
     1
290
     0
176
     1
 90
        1
176
     1
 40
0.0
176
     1
 90
        0
176
     1
290
     0
176
     1
290
     1
176
     1
290
     1
176
     1
290
     0
176
     1
290
     0
176
     1
290
     0
176
     1
290
     0
176
     1
290
     0
176
     1
290
     0
176
     1
 90
       50
176
     1
 40
0.0
176
     1
 40
1.0
176
     1
 90
        0
176
     1
 62
    18
420
        0
176
     1
 90
       50
176
     1
 90
        3
176
     1
 62
     5
420
      255
176
     1
290
     0
176
     1
 90
       50
176
     1
 90
       50
176
     1
 90
       50
176
     1
290
     0
176
     1
 90
       50
176
     1
 62
   256
176
     0
 40
1.0
176
     0
 90
        2
176
     1
  1
strokes_ogs.tif
176
     1
290
     0
176
     1
 40
1.0
176
     1
 40
1.0
176
     1
  0
VISUALSTYLE
  5
32
102
{ACAD_REACTORS
330
29
102
}
330
29
100
AcDbVisualStyle
  2
Conceptual
 70
     9
177
     3
291
     0
 70
    58
 90
        3
176
     1
 90
        2
176
     1
 90
        0
176
     1
 90
        0
176
     1
 40
0.6
176
     1
 40
30.0
176
     1
 62
     7
420
 16777215
176
     1
 90
        2
176
     1
 90
        2
176
     1
 62
     7
176
     1
 62
   257
176
     1
 90
        1
176
     1
 90
        1
176
     1
 40
179.0
176
     1
 90
        8
176
     1
 62
     7
176
     1
 40
1.0
176
     1
 90
        1
176
     1
 90
        6
176
     1
 90
        2
176
     1
 62
     7
176
     1
 90
        3
176
     1
 90
        0
176
     1
 90
        0
176
     1
290
     0
176
     1
 90
        1
176
     1
 40
0.0
176
     1
 90
        0
176
     1
290
     0
176
     1
290
     1
176
     1
290
     1
176
     1
290
     0
176
     1
290
     0
176
     1
290
     0
176
     1
290
     0
176
     1
290
     0
176
     1
290
     0
176
     1
 90
       50
176
     1
 40
0.0
176
     1
 40
1.0
176
     1
 90
        0
176
     1
 62
    18
420
        0
176
     1
 90
       50
176
     1
 90
        3
176
     1
 62
     5
420
      255
176
     1
290
     0
176
     1
 90
       50
176
     1
 90
       50
176
     1
 90
       50
176
     1
290
     0
176
     1
 90
       50
176
     1
 62
   256
176
     0
 40
1.0
176
     0
 90
        2
176
     1
  1
strokes_ogs.tif
176
     1
290
     0
176
     1
 40
1.0
176
     1
 40
1.0
176
     1
  0
VISUALSTYLE
  5
34
102
{ACAD_REACTORS
330
29
102
}
330
29
100
AcDbVisualStyle
  2
Dim
 70
    11
177
     3
291
     1
 70
    58
 90
        2
176
     1
 90
        2
176
     1
 90
        0
176
     1
 90
        0
176
     1
 40
0.6
176
     1
 40
30.0
176
     1
 62
     7
420
 16777215
176
     1
 90
        1
176
     1
 90
        4
176
     1
 62
     7
176
     1
 62
   257
176
     1
 90
        1
176
     1
 90
        1
176
     1
 40
1.0
176
     1
 90
        8
176
     1
 62
     7
176
     1
 40
1.0
176
     1
 90
        1
176
     1
 90
        6
176
     1
 90
        2
176
     1
 62
     7
176
     1
 90
        5
176
     1
 90
        0
176
     1
 90
        0
176
     1
290
     0
176
     1
 90
        1
176
     1
 40
-50.0
176
     1
 90
        0
176
     1
290
     0
176
     1
290
     1
176
     1
290
     1
176
     1
290
     0
176
     1
290
     0
176
     1
290
     0
176
     1
290
     0
176
     1
290
     0
176
     1
290
     0
176
     1
 90
       50
176
     1
 40
0.0
176
     1
 40
1.0
176
     1
 90
        0
176
     1
 62
    18
420
        0
176
     1
 90
       50
176
     1
 90
        3
176
     1
 62
     5
420
      255
176
     1
290
     0
176
     1
 90
       50
176
     1
 90
       50
176
     1
 90
       50
176
     1
290
     0
176
     1
 90
       50
176
     1
 62
   256
176
     0
 40
1.0
176
     0
 90
        2
176
     1
  1
strokes_ogs.tif
176
     1
290
     0
176
     1
 40
1.0
176
     1
 40
1.0
176
     1
  0
VISUALSTYLE
  5
41
102
{ACAD_REACTORS
330
29
102
}
330
29
100
AcDbVisualStyle
  2
EdgeColorOff
 70
    22
177
     3
291
     1
 70
    58
 90
        2
176
     0
 90
        2
176
     0
 90
        0
176
     0
 90
        0
176
     0
 40
0.6
176
     0
 40
30.0
176
     0
 62
     7
420
 16777215
176
     0
 90
        1
176
     0
 90
        4
176
     0
 62
     7
176
     0
 62
   257
176
     0
 90
        1
176
     0
 90
        1
176
     0
 40
1.0
176
     0
 90
        8
176
     2
 62
     7
176
     0
 40
1.0
176
     0
 90
        1
176
     0
 90
        6
176
     0
 90
        2
176
     0
 62
     7
176
     0
 90
        5
176
     0
 90
        0
176
     0
 90
        0
176
     0
290
     0
176
     0
 90
        1
176
     0
 40
0.0
176
     0
 90
        0
176
     0
290
     0
176
     0
290
     1
176
     0
290
     1
176
     0
290
     0
176
     0
290
     0
176
     0
290
     0
176
     0
290
     0
176
     0
290
     0
176
     0
290
     0
176
     0
 90
       50
176
     0
 40
0.0
176
     0
 40
1.0
176
     0
 90
        0
176
     0
 62
    18
420
        0
176
     0
 90
       50
176
     0
 90
        3
176
     0
 62
     5
420
      255
176
     0
290
     0
176
     0
 90
       50
176
     0
 90
       50
176
     0
 90
       50
176
     0
290
     0
176
     0
 90
       50
176
     0
 62
   256
176
     0
 40
1.0
176
     0
 90
        2
176
     0
  1
strokes_ogs.tif
176
     0
290
     0
176
     0
 40
1.0
176
     0
 40
1.0
176
     0
  0
VISUALSTYLE
  5
38
102
{ACAD_REACTORS
330
29
102
}
330
29
100
AcDbVisualStyle
  2
Facepattern
 70
    15
177
     3
291
     1
 70
    58
 90
        2
176
     1
 90
        2
176
     1
 90
        0
176
     1
 90
        0
176
     1
 40
0.6
176
     1
 40
30.0
176
     1
 62
     7
420
 16777215
176
     1
 90
        1
176
     1
 90
        4
176
     1
 62
     7
176
     1
 62
   257
176
     1
 90
        1
176
     1
 90
        1
176
     1
 40
1.0
176
     1
 90
        8
176
     1
 62
     7
176
     1
 40
1.0
176
     1
 90
        1
176
     1
 90
        6
176
     1
 90
        2
176
     1
 62
     7
176
     1
 90
        5
176
     1
 90
        0
176
     1
 90
        0
176
     1
290
     0
176
     1
 90
        1
176
     1
 40
0.0
176
     1
 90
        0
176
     1
290
     0
176
     1
290
     1
176
     1
290
     1
176
     1
290
     0
176
     1
290
     0
176
     1
290
     0
176
     1
290
     0
176
     1
290
     0
176
     1
290
     0
176
     1
 90
       50
176
     1
 40
0.0
176
     1
 40
1.0
176
     1
 90
        0
176
     1
 62
    18
420
        0
176
     1
 90
       50
176
     1
 90
        3
176
     1
 62
     5
420
      255
176
     1
290
     0
176
     1
 90
       50
176
     1
 90
       50
176
     1
 90
       50
176
     1
290
     0
176
     1
 90
       50
176
     1
 62
   256
176
     0
 40
1.0
176
     0
 90
        2
176
     1
  1
strokes_ogs.tif
176
     1
290
     0
176
     1
 40
1.0
176
     1
 40
1.0
176
     1
  0
VISUALSTYLE
  5
2A
102
{ACAD_REACTORS
330
29
102
}
330
29
100
AcDbVisualStyle
  2
Flat
 70
     0
177
     3
291
     1
 70
    58
 90
        2
176
     1
 90
        1
176
     1
 90
        1
176
     1
 90
        2
176
     1
 40
0.6
176
     1
 40
30.0
176
     1
 62
     7
420
 16777215
176
     1
 90
        0
176
     1
 90
        0
176
     1
 62
     7
176
     1
 62
   257
176
     1
 90
        1
176
     1
 90
        1
176
     1
 40
1.0
176
     1
 90
        8
176
     1
 62
     7
176
     1
 40
1.0
176
     1
 90
        1
176
     1
 90
        6
176
     1
 90
        2
176
     1
 62
     7
176
     1
 90
        5
176
     1
 90
        0
176
     1
 90
        0
176
     1
290
     0
176
     1
 90
       13
176
     1
 40
0.0
176
     1
 90
        0
176
     1
290
     0
176
     1
290
     1
176
     1
290
     1
176
     1
290
     0
176
     1
290
     0
176
     1
290
     0
176
     1
290
     0
176
     1
290
     0
176
     1
290
     0
176
     1
 90
       50
176
     1
 40
0.0
176
     1
 40
1.0
176
     1
 90
        0
176
     1
 62
    18
420
        0
176
     1
 90
       50
176
     1
 90
        3
176
     1
 62
     5
420
      255
176
     1
290
     0
176
     1
 90
       50
176
     1
 90
       50
176
     1
 90
       50
176
     1
290
     0
176
     1
 90
       50
176
     1
 62
   256
176
     0
 40
1.0
176
     0
 90
        2
176
     1
  1
strokes_ogs.tif
176
     1
290
     0
176
     1
 40
1.0
176
     1
 40
1.0
176
     1
  0
VISUALSTYLE
  5
2B
102
{ACAD_REACTORS
330
29
102
}
330
29
100
AcDbVisualStyle
  2
FlatWithEdges
 70
     1
177
     3
291
     1
 70
    58
 90
        2
176
     1
 90
        1
176
     1
 90
        1
176
     1
 90
        2
176
     1
 40
0.6
176
     1
 40
30.0
176
     1
 62
     7
420
 16777215
176
     1
 90
        1
176
     1
 90
        0
176
     1
 62
     7
176
     1
 62
   257
176
     1
 90
        1
176
     1
 90
        1
176
     1
 40
1.0
176
     1
 90
        0
176
     1
 62
   257
176
     1
 40
1.0
176
     1
 90
        1
176
     1
 90
        6
176
     1
 90
        2
176
     1
 62
     7
176
     1
 90
        5
176
     1
 90
        0
176
     1
 90
        0
176
     1
290
     0
176
     1
 90
       13
176
     1
 40
0.0
176
     1
 90
        0
176
     1
290
     0
176
     1
290
     1
176
     1
290
     1
176
     1
290
     0
176
     1
290
     0
176
     1
290
     0
176
     1
290
     0
176
     1
290
     0
176
     1
290
     0
176
     1
 90
       50
176
     1
 40
0.0
176
     1
 40
1.0
176
     1
 90
        0
176
     1
 62
    18
420
        0
176
     1
 90
       50
176
     1
 90
        3
176
     1
 62
     5
420
      255
176
     1
290
     0
176
     1
 90
       50
176
     1
 90
       50
176
     1
 90
       50
176
     1
290
     0
176
     1
 90
       50
176
     1
 62
   256
176
     0
 40
1.0
176
     0
 90
        2
176
     1
  1
strokes_ogs.tif
176
     1
290
     0
176
     1
 40
1.0
176
     1
 40
1.0
176
     1
  0
VISUALSTYLE
  5
2C
102
{ACAD_REACTORS
330
29
102
}
330
29
100
AcDbVisualStyle
  2
Gouraud
 70
     2
177
     3
291
     1
 70
    58
 90
        2
176
     1
 90
        2
176
     1
 90
        1
176
     1
 90
        2
176
     1
 40
0.6
176
     1
 40
30.0
176
     1
 62
     7
420
 16777215
176
     1
 90
        0
176
     1
 90
        0
176
     1
 62
     7
176
     1
 62
   257
176
     1
 90
        1
176
     1
 90
        1
176
     1
 40
1.0
176
     1
 90
        0
176
     1
 62
     7
176
     1
 40
1.0
176
     1
 90
        1
176
     1
 90
        6
176
     1
 90
        2
176
     1
 62
     7
176
     1
 90
        5
176
     1
 90
        0
176
     1
 90
        0
176
     1
290
     0
176
     1
 90
       13
176
     1
 40
0.0
176
     1
 90
        0
176
     1
290
     0
176
     1
290
     1
176
     1
290
     1
176
     1
290
     0
176
     1
290
     0
176
     1
290
     0
176
     1
290
     0
176
     1
290
     0
176
     1
290
     0
176
     1
 90
       50
176
     1
 40
0.0
176
     1
 40
1.0
176
     1
 90
        0
176
     1
 62
    18
420
        0
176
     1
 90
       50
176
     1
 90
        3
176
     1
 62
     5
420
      255
176
     1
290
     0
176
     1
 90
       50
176
     1
 90
       50
176
     1
 90
       50
176
     1
290
     0
176
     1
 90
       50
176
     1
 62
   256
176
     0
 40
1.0
176
     0
 90
        2
176
     1
  1
strokes_ogs.tif
176
     1
290
     0
176
     1
 40
1.0
176
     1
 40
1.0
176
     1
  0
VISUALSTYLE
  5
2D
102
{ACAD_REACTORS
330
29
102
}
330
29
100
AcDbVisualStyle
  2
GouraudWithEdges
 70
     3
177
     3
291
     1
 70
    58
 90
        2
176
     1
 90
        2
176
     1
 90
        1
176
     1
 90
        2
176
     1
 40
0.6
176
     1
 40
30.0
176
     1
 62
     7
420
 16777215
176
     1
 90
        1
176
     1
 90
        0
176
     1
 62
     7
176
     1
 62
   257
176
     1
 90
        1
176
     1
 90
        1
176
     1
 40
1.0
176
     1
 90
        0
176
     1
 62
   257
176
     1
 40
1.0
176
     1
 90
        1
176
     1
 90
        6
176
     1
 90
        2
176
     1
 62
     7
176
     1
 90
        5
176
     1
 90
        0
176
     1
 90
        0
176
     1
290
     0
176
     1
 90
       13
176
     1
 40
0.0
176
     1
 90
        0
176
     1
290
     0
176
     1
290
     1
176
     1
290
     1
176
     1
290
     0
176
     1
290
     0
176
     1
290
     0
176
     1
290
     0
176
     1
290
     0
176
     1
290
     0
176
     1
 90
       50
176
     1
 40
0.0
176
     1
 40
1.0
176
     1
 90
        0
176
     1
 62
    18
420
        0
176
     1
 90
       50
176
     1
 90
        3
176
     1
 62
     5
420
      255
176
     1
290
     0
176
     1
 90
       50
176
     1
 90
       50
176
     1
 90
       50
176
     1
290
     0
176
     1
 90
       50
176
     1
 62
   256
176
     0
 40
1.0
176
     0
 90
        2
176
     1
  1
strokes_ogs.tif
176
     1
290
     0
176
     1
 40
1.0
176
     1
 40
1.0
176
     1
  0
VISUALSTYLE
  5
31
102
{ACAD_REACTORS
330
29
102
}
330
29
100
AcDbVisualStyle
  2
Hidden
 70
     6
177
     3
291
     0
 70
    58
 90
        1
176
     1
 90
        2
176
     1
 90
        2
176
     1
 90
        0
176
     1
 40
0.6
176
     1
 40
30.0
176
     1
 62
     7
420
 16777215
176
     1
 90
        2
176
     1
 90
        2
176
     1
 62
     7
176
     1
 62
   257
176
     1
 90
        2
176
     1
 90
        1
176
     1
 40
40.0
176
     1
 90
        0
176
     1
 62
   257
176
     1
 40
1.0
176
     1
 90
        1
176
     1
 90
        6
176
     1
 90
        2
176
     1
 62
     7
176
     1
 90
        3
176
     1
 90
        0
176
     1
 90
        0
176
     1
290
     0
176
     1
 90
        1
176
     1
 40
0.0
176
     1
 90
        0
176
     1
290
     0
176
     1
290
     1
176
     1
290
     1
176
     1
290
     0
176
     1
290
     0
176
     1
290
     0
176
     1
290
     0
176
     1
290
     0
176
     1
290
     0
176
     1
 90
       50
176
     1
 40
0.0
176
     1
 40
1.0
176
     1
 90
        0
176
     1
 62
    18
420
        0
176
     1
 90
       50
176
     1
 90
        3
176
     1
 62
     5
420
      255
176
     1
290
     0
176
     1
 90
       50
176
     1
 90
       50
176
     1
 90
       50
176
     1
290
     0
176
     1
 90
       50
176
     1
 62
   256
176
     0
 40
1.0
176
     0
 90
        2
176
     1
  1
strokes_ogs.tif
176
     1
290
     0
176
     1
 40
1.0
176
     1
 40
1.0
176
     1
  0
VISUALSTYLE
  5
3F
102
{ACAD_REACTORS
330
29
102
}
330
29
100
AcDbVisualStyle
  2
JitterOff
 70
    20
177
     3
291
     1
 70
    58
 90
        2
176
     0
 90
        2
176
     0
 90
        0
176
     0
 90
        0
176
     0
 40
0.6
176
     0
 40
30.0
176
     0
 62
     7
420
 16777215
176
     0
 90
        1
176
     0
 90
        4
176
     0
 62
     7
176
     0
 62
   257
176
     0
 90
        1
176
     0
 90
        1
176
     0
 40
1.0
176
     0
 90
       10
176
     2
 62
     7
176
     0
 40
1.0
176
     0
 90
        1
176
     0
 90
        6
176
     0
 90
        2
176
     0
 62
     7
176
     0
 90
        5
176
     0
 90
        0
176
     0
 90
        0
176
     0
290
     0
176
     0
 90
        1
176
     0
 40
0.0
176
     0
 90
        0
176
     0
290
     0
176
     0
290
     1
176
     0
290
     1
176
     0
290
     0
176
     0
290
     0
176
     0
290
     0
176
     0
290
     0
176
     0
290
     0
176
     0
290
     0
176
     0
 90
       50
176
     0
 40
0.0
176
     0
 40
1.0
176
     0
 90
        0
176
     0
 62
    18
420
        0
176
     0
 90
       50
176
     0
 90
        3
176
     0
 62
     5
420
      255
176
     0
290
     0
176
     0
 90
       50
176
     0
 90
       50
176
     0
 90
       50
176
     0
290
     0
176
     0
 90
       50
176
     0
 62
   256
176
     0
 40
1.0
176
     0
 90
        2
176
     0
  1
strokes_ogs.tif
176
     0
290
     0
176
     0
 40
1.0
176
     0
 40
1.0
176
     0
  0
VISUALSTYLE
  5
37
102
{ACAD_REACTORS
330
29
102
}
330
29
100
AcDbVisualStyle
  2
Linepattern
 70
    14
177
     3
291
     1
 70
    58
 90
        2
176
     1
 90
        2
176
     1
 90
        0
176
     1
 90
        0
176
     1
 40
0.6
176
     1
 40
30.0
176
     1
 62
     7
420
 16777215
176
     1
 90
        1
176
     1
 90
        4
176
     1
 62
     7
176
     1
 62
   257
176
     1
 90
        7
176
     1
 90
        7
176
     1
 40
1.0
176
     1
 90
        8
176
     1
 62
     7
176
     1
 40
1.0
176
     1
 90
        1
176
     1
 90
        6
176
     1
 90
        2
176
     1
 62
     7
176
     1
 90
        5
176
     1
 90
        0
176
     1
 90
        0
176
     1
290
     0
176
     1
 90
        1
176
     1
 40
0.0
176
     1
 90
        0
176
     1
290
     0
176
     1
290
     1
176
     1
290
     1
176
     1
290
     0
176
     1
290
     0
176
     1
290
     0
176
     1
290
     0
176
     1
290
     0
176
     1
290
     0
176
     1
 90
       50
176
     1
 40
0.0
176
     1
 40
1.0
176
     1
 90
        0
176
     1
 62
    18
420
        0
176
     1
 90
       50
176
     1
 90
        3
176
     1
 62
     5
420
      255
176
     1
290
     0
176
     1
 90
       50
176
     1
 90
       50
176
     1
 90
       50
176
     1
290
     0
176
     1
 90
       50
176
     1
 62
   256
176
     0
 40
1.0
176
     0
 90
        2
176
     1
  1
strokes_ogs.tif
176
     1
290
     0
176
     1
 40
1.0
176
     1
 40
1.0
176
     1
  0
VISUALSTYLE
  5
40
102
{ACAD_REACTORS
330
29
102
}
330
29
100
AcDbVisualStyle
  2
OverhangOff
 70
    21
177
     3
291
     1
 70
    58
 90
        2
176
     0
 90
        2
176
     0
 90
        0
176
     0
 90
        0
176
     0
 40
0.6
176
     0
 40
30.0
176
     0
 62
     7
420
 16777215
176
     0
 90
        1
176
     0
 90
        4
176
     0
 62
     7
176
     0
 62
   257
176
     0
 90
        1
176
     0
 90
        1
176
     0
 40
1.0
176
     0
 90
        9
176
     2
 62
     7
176
     0
 40
1.0
176
     0
 90
        1
176
     0
 90
        6
176
     0
 90
        2
176
     0
 62
     7
176
     0
 90
        5
176
     0
 90
        0
176
     0
 90
        0
176
     0
290
     0
176
     0
 90
        1
176
     0
 40
0.0
176
     0
 90
        0
176
     0
290
     0
176
     0
290
     1
176
     0
290
     1
176
     0
290
     0
176
     0
290
     0
176
     0
290
     0
176
     0
290
     0
176
     0
290
     0
176
     0
290
     0
176
     0
 90
       50
176
     0
 40
0.0
176
     0
 40
1.0
176
     0
 90
        0
176
     0
 62
    18
420
        0
176
     0
 90
       50
176
     0
 90
        3
176
     0
 62
     5
420
      255
176
     0
290
     0
176
     0
 90
       50
176
     0
 90
       50
176
     0
 90
       50
176
     0
290
     0
176
     0
 90
       50
176
     0
 62
   256
176
     0
 40
1.0
176
     0
 90
        2
176
     0
  1
strokes_ogs.tif
176
     0
290
     0
176
     0
 40
1.0
176
     0
 40
1.0
176
     0
  0
VISUALSTYLE
  5
33
102
{ACAD_REACTORS
330
29
102
}
330
29
100
AcDbVisualStyle
  2
Realistic
 70
     8
177
     3
291
     0
 70
    58
 90
        2
176
     1
 90
        3
176
     1
 90
        0
176
     1
 90
        2
176
     1
 40
0.6
176
     1
 40
30.0
176
     1
 62
     7
420
 16777215
176
     1
 90
        0
176
     1
 90
        0
176
     1
 62
     7
176
     1
 62
   257
176
     1
 90
        1
176
     1
 90
        1
176
     1
 40
1.0
176
     1
 90
        8
176
     1
 62
   257
176
     1
 40
1.0
176
     1
 90
        1
176
     1
 90
        6
176
     1
 90
        2
176
     1
 62
     7
176
     1
 90
        3
176
     1
 90
        0
176
     1
 90
        0
176
     1
290
     0
176
     1
 90
       13
176
     1
 40
0.0
176
     1
 90
        0
176
     1
290
     0
176
     1
290
     1
176
     1
290
     1
176
     1
290
     0
176
     1
290
     0
176
     1
290
     0
176
     1
290
     0
176
     1
290
     0
176
     1
290
     0
176
     1
 90
       50
176
     1
 40
0.0
176
     1
 40
1.0
176
     1
 90
        0
176
     1
 62
    18
420
        0
176
     1
 90
       50
176
     1
 90
        3
176
     1
 62
     5
420
      255
176
     1
290
     0
176
     1
 90
       50
176
     1
 90
       50
176
     1
 90
       50
176
     1
290
     0
176
     1
 90
       50
176
     1
 62
   256
176
     0
 40
1.0
176
     0
 90
        2
176
     1
  1
strokes_ogs.tif
176
     1
290
     0
176
     1
 40
1.0
176
     1
 40
1.0
176
     1
  0
VISUALSTYLE
  5
3E
102
{ACAD_REACTORS
330
29
102
}
330
29
100
AcDbVisualStyle
  2
Shaded
 70
    27
177
     3
291
     0
 70
    58
 90
        2
176
     1
 90
        2
176
     1
 90
        1
176
     1
 90
        2
176
     1
 40
0.6
176
     1
 40
30.0
176
     1
 62
     7
420
 16777215
176
     1
 90
        0
176
     1
 90
        4
176
     1
 62
     7
176
     1
 62
   257
176
     1
 90
        1
176
     1
 90
        1
176
     1
 40
1.0
176
     1
 90
        8
176
     1
 62
   257
176
     1
 40
1.0
176
     1
 90
        1
176
     1
 90
        6
176
     1
 90
        2
176
     1
 62
     8
420
  7895160
176
     1
 90
        3
176
     1
 90
        0
176
     1
 90
        0
176
     1
290
     0
176
     1
 90
        5
176
     1
 40
0.0
176
     1
 90
        0
176
     1
290
     0
176
     1
290
     1
176
     1
290
     1
176
     1
290
     0
176
     1
290
     0
176
     1
290
     0
176
     1
290
     0
176
     1
290
     0
176
     1
290
     0
176
     1
 90
       50
176
     1
 40
0.0
176
     1
 40
1.0
176
     1
 90
        0
176
     1
 62
    18
420
        0
176
     1
 90
       50
176
     1
 90
        3
176
     1
 62
     5
420
      255
176
     1
290
     0
176
     1
 90
       50
176
     1
 90
       50
176
     1
 90
       50
176
     1
290
     0
176
     1
 90
       50
176
     1
 62
   256
176
     0
 40
1.0
176
     0
 90
        2
176
     1
  1
strokes_ogs.tif
176
     1
290
     0
176
     1
 40
1.0
176
     1
 40
1.0
176
     1
  0
VISUALSTYLE
  5
3D
102
{ACAD_REACTORS
330
29
102
}
330
29
100
AcDbVisualStyle
  2
Shaded with edges
 70
    26
177
     3
291
     0
 70
    58
 90
        2
176
     1
 90
        2
176
     1
 90
        1
176
     1
 90
        2
176
     1
 40
0.6
176
     1
 40
30.0
176
     1
 62
     7
420
 16777215
176
     1
 90
        1
176
     1
 90
       10
176
     1
 62
     7
176
     1
 62
   257
176
     1
 90
        2
176
     1
 90
        1
176
     1
 40
1.0
176
     1
 90
        8
176
     1
 62
   257
176
     1
 40
1.0
176
     1
 90
        1
176
     1
 90
        6
176
     1
 90
        2
176
     1
 62
     7
176
     1
 90
        3
176
     1
 90
        0
176
     1
 90
        0
176
     1
290
     0
176
     1
 90
        5
176
     1
 40
0.0
176
     1
 90
        0
176
     1
290
     0
176
     1
290
     1
176
     1
290
     1
176
     1
290
     0
176
     1
290
     0
176
     1
290
     0
176
     1
290
     0
176
     1
290
     0
176
     1
290
     0
176
     1
 90
       50
176
     1
 40
0.0
176
     1
 40
1.0
176
     1
 90
        0
176
     1
 62
    18
420
        0
176
     1
 90
       50
176
     1
 90
        3
176
     1
 62
     5
420
      255
176
     1
290
     0
176
     1
 90
       50
176
     1
 90
       50
176
     1
 90
       50
176
     1
290
     0
176
     1
 90
       50
176
     1
 62
   256
176
     0
 40
1.0
176
     0
 90
        2
176
     1
  1
strokes_ogs.tif
176
     1
290
     0
176
     1
 40
1.0
176
     1
 40
1.0
176
     1
  0
VISUALSTYLE
  5
3A
102
{ACAD_REACTORS
330
29
102
}
330
29
100
AcDbVisualStyle
  2
Shades of Gray
 70
    23
177
     3
291
     0
 70
    58
 90
        2
176
     1
 90
        2
176
     1
 90
        3
176
     1
 90
        0
176
     1
 40
0.6
176
     1
 40
30.0
176
     1
 62
     7
420
 16777215
176
     1
 90
        2
176
     1
 90
        2
176
     1
 62
     7
176
     1
 62
     7
176
     1
 90
        1
176
     1
 90
        1
176
     1
 40
40.0
176
     1
 90
        8
176
     1
 62
     7
176
     1
 40
1.0
176
     1
 90
        1
176
     1
 90
        6
176
     1
 90
        2
176
     1
 62
     7
176
     1
 90
        3
176
     1
 90
        0
176
     1
 90
        0
176
     1
290
     0
176
     1
 90
        1
176
     1
 40
0.0
176
     1
 90
        0
176
     1
290
     0
176
     1
290
     1
176
     1
290
     1
176
     1
290
     0
176
     1
290
     0
176
     1
290
     0
176
     1
290
     0
176
     1
290
     0
176
     1
290
     0
176
     1
 90
       50
176
     1
 40
0.0
176
     1
 40
1.0
176
     1
 90
        0
176
     1
 62
    18
420
        0
176
     1
 90
       50
176
     1
 90
        3
176
     1
 62
     5
420
      255
176
     1
290
     0
176
     1
 90
       50
176
     1
 90
       50
176
     1
 90
       50
176
     1
290
     0
176
     1
 90
       50
176
     1
 62
   256
176
     0
 40
1.0
176
     0
 90
        2
176
     1
  1
strokes_ogs.tif
176
     1
290
     0
176
     1
 40
1.0
176
     1
 40
1.0
176
     1
  0
VISUALSTYLE
  5
3B
102
{ACAD_REACTORS
330
29
102
}
330
29
100
AcDbVisualStyle
  2
Sketchy
 70
    24
177
     3
291
     0
 70
    58
 90
        1
176
     1
 90
        2
176
     1
 90
        2
176
     1
 90
        0
176
     1
 40
0.6
176
     1
 40
30.0
176
     1
 62
     7
420
 16777215
176
     1
 90
        2
176
     1
 90
        2
176
     1
 62
     7
176
     1
 62
     7
176
     1
 90
        1
176
     1
 90
        1
176
     1
 40
40.0
176
     1
 90
       11
176
     1
 62
     7
176
     1
 40
1.0
176
     1
 90
        1
176
     1
 90
        6
176
     1
 90
        2
176
     1
 62
     7
176
     1
 90
        6
176
     1
 90
        0
176
     1
 90
        0
176
     1
290
     0
176
     1
 90
        1
176
     1
 40
0.0
176
     1
 90
        0
176
     1
290
     0
176
     1
290
     1
176
     1
290
     1
176
     1
290
     0
176
     1
290
     0
176
     1
290
     0
176
     1
290
     0
176
     1
290
     0
176
     1
290
     0
176
     1
 90
       50
176
     1
 40
0.0
176
     1
 40
1.0
176
     1
 90
        0
176
     1
 62
    18
420
        0
176
     1
 90
       50
176
     1
 90
        3
176
     1
 62
     5
420
      255
176
     1
290
     0
176
     1
 90
       50
176
     1
 90
       50
176
     1
 90
       50
176
     1
290
     0
176
     1
 90
       50
176
     1
 62
   256
176
     0
 40
1.0
176
     0
 90
        2
176
     1
  1
strokes_ogs.tif
176
     1
290
     0
176
     1
 40
1.0
176
     1
 40
1.0
176
     1
  0
VISUALSTYLE
  5
36
102
{ACAD_REACTORS
330
29
102
}
330
29
100
AcDbVisualStyle
  2
Thicken
 70
    13
177
     3
291
     1
 70
    58
 90
        2
176
     1
 90
        2
176
     1
 90
        0
176
     1
 90
        0
176
     1
 40
0.6
176
     1
 40
30.0
176
     1
 62
     7
420
 16777215
176
     1
 90
        1
176
     1
 90
        4
176
     1
 62
     7
176
     1
 62
   257
176
     1
 90
        1
176
     1
 90
        1
176
     1
 40
1.0
176
     1
 90
       12
176
     1
 62
     7
176
     1
 40
1.0
176
     1
 90
        1
176
     1
 90
        6
176
     1
 90
        2
176
     1
 62
     7
176
     1
 90
        5
176
     1
 90
        0
176
     1
 90
        0
176
     1
290
     0
176
     1
 90
        1
176
     1
 40
0.0
176
     1
 90
        0
176
     1
290
     0
176
     1
290
     1
176
     1
290
     1
176
     1
290
     0
176
     1
290
     0
176
     1
290
     0
176
     1
290
     0
176
     1
290
     0
176
     1
290
     0
176
     1
 90
       50
176
     1
 40
0.0
176
     1
 40
1.0
176
     1
 90
        0
176
     1
 62
    18
420
        0
176
     1
 90
       50
176
     1
 90
        3
176
     1
 62
     5
420
      255
176
     1
290
     0
176
     1
 90
       50
176
     1
 90
       50
176
     1
 90
       50
176
     1
290
     0
176
     1
 90
       50
176
     1
 62
   256
176
     0
 40
1.0
176
     0
 90
        2
176
     1
  1
strokes_ogs.tif
176
     1
290
     0
176
     1
 40
1.0
176
     1
 40
1.0
176
     1
  0
VISUALSTYLE
  5
30
102
{ACAD_REACTORS
330
29
102
}
330
29
100
AcDbVisualStyle
  2
Wireframe
 70
     5
177
     3
291
     0
 70
    58
 90
        0
176
     1
 90
        2
176
     1
 90
        0
176
     1
 90
        0
176
     1
 40
0.6
176
     1
 40
30.0
176
     1
 62
     7
420
 16777215
176
     1
 90
        1
176
     1
 90
        4
176
     1
 62
     7
176
     1
 62
   257
176
     1
 90
        1
176
     1
 90
        1
176
     1
 40
1.0
176
     1
 90
        0
176
     1
 62
   257
176
     1
 40
1.0
176
     1
 90
        1
176
     1
 90
        6
176
     1
 90
        2
176
     1
 62
     7
176
     1
 90
        3
176
     1
 90
        0
176
     1
 90
        0
176
     1
290
     0
176
     1
 90
        1
176
     1
 40
0.0
176
     1
 90
        0
176
     1
290
     0
176
     1
290
     1
176
     1
290
     1
176
     1
290
     0
176
     1
290
     0
176
     1
290
     0
176
     1
290
     0
176
     1
290
     0
176
     1
290
     0
176
     1
 90
       50
176
     1
 40
0.0
176
     1
 40
1.0
176
     1
 90
        0
176
     1
 62
    18
420
        0
176
     1
 90
       50
176
     1
 90
        3
176
     1
 62
     5
420
      255
176
     1
290
     0
176
     1
 90
       50
176
     1
 90
       50
176
     1
 90
       50
176
     1
290
     0
176
     1
 90
       50
176
     1
 62
   256
176
     0
 40
1.0
176
     0
 90
        2
176
     1
  1
strokes_ogs.tif
176
     1
290
     0
176
     1
 40
1.0
176
     1
 40
1.0
176
     1
  0
VISUALSTYLE
  5
3C
102
{ACAD_REACTORS
330
29
102
}
330
29
100
AcDbVisualStyle
  2
X-Ray
 70
    25
177
     3
291
     0
 70
    58
 90
        2
176
     1
 90
        2
176
     1
 90
        1
176
     1
 90
        1
176
     1
 40
0.5
176
     1
 40
30.0
176
     1
 62
     7
420
 16777215
176
     1
 90
        1
176
     1
 90
        0
176
     1
 62
     7
176
     1
 62
   257
176
     1
 90
        1
176
     1
 90
        1
176
     1
 40
1.0
176
     1
 90
        8
176
     1
 62
     7
176
     1
 40
1.0
176
     1
 90
        1
176
     1
 90
        6
176
     1
 90
        2
176
     1
 62
     7
176
     1
 90
        3
176
     1
 90
        0
176
     1
 90
        0
176
     1
290
     0
176
     1
 90
       13
176
     1
 40
0.0
176
     1
 90
        0
176
     1
290
     0
176
     1
290
     1
176
     1
290
     1
176
     1
290
     0
176
     1
290
     0
176
     1
290
     0
176
     1
290
     0
176
     1
290
     0
176
     1
290
     0
176
     1
 90
       50
176
     1
 40
0.0
176
     1
 40
1.0
176
     1
 90
        0
176
     1
 62
    18
420
        0
176
     1
 90
       50
176
     1
 90
        3
176
     1
 62
     5
420
      255
176
     1
290
     0
176
     1
 90
       50
176
     1
 90
       50
176
     1
 90
       50
176
     1
290
     0
176
     1
 90
       50
176
     1
 62
   256
176
     0
 40
1.0
176
     0
 90
        2
176
     1
  1
strokes_ogs.tif
176
     1
290
     0
176
     1
 40
1.0
176
     1
 40
1.0
176
     1
  0
DICTIONARYVAR
  5
485
102
{ACAD_REACTORS
330
480
102
}
330
480
100
DictionaryVariables
280
     0
  1
1:1
  0
DICTIONARYVAR
  5
482
102
{ACAD_REACTORS
330
480
102
}
330
480
100
DictionaryVariables
280
     0
  1
STANDARD
  0
DICTIONARYVAR
  5
481
102
{ACAD_REACTORS
330
480
102
}
330
480
100
DictionaryVariables
280
     0
  1
STANDARD
  0
DICTIONARYVAR
  5
483
102
{ACAD_REACTORS
330
480
102
}
330
480
100
DictionaryVariables
280
     0
  1
Imperial24
  0
DICTIONARYVAR
  5
484
102
{ACAD_REACTORS
330
480
102
}
330
480
100
DictionaryVariables
280
     0
  1
Imperial24
  0
DICTIONARY
  5
48B
330
6A
100
AcDbDictionary
280
     1
281
     1
  3
ACAD_XREC_ROUNDTRIP
360
48C
  0
DICTIONARY
  5
1A
330
19
100
AcDbDictionary
280
     1
281
     1
  3
BUMPTILE
360
1C
  3
DIFFUSETILE
360
1B
  3
OPACITYTILE
360
1F
  3
REFLECTIONTILE
360
1E
  3
REFRACTIONTILE
360
20
  3
SPECULARTILE
360
1D
  0
DICTIONARY
  5
12
330
11
100
AcDbDictionary
280
     1
281
     1
  3
BUMPTILE
360
14
  3
DIFFUSETILE
360
13
  3
OPACITYTILE
360
17
  3
REFLECTIONTILE
360
16
  3
REFRACTIONTILE
360
18
  3
SPECULARTILE
360
15
  0
DICTIONARY
  5
22
330
21
100
AcDbDictionary
280
     1
281
     1
  3
BUMPTILE
360
24
  3
DIFFUSETILE
360
23
  3
OPACITYTILE
360
27
  3
REFLECTIONTILE
360
26
  3
REFRACTIONTILE
360
28
  3
SPECULARTILE
360
25
  0
DICTIONARY
  5
489
330
68
100
AcDbDictionary
280
     1
281
     1
  3
ACAD_XREC_ROUNDTRIP
360
48A
  0
DICTIONARY
  5
487
330
64
100
AcDbDictionary
280
     1
281
     1
  3
ACAD_ROUNDTRIP_2008_TABLESTYLE_CELLSTYLEMAP
360
488
  0
XRECORD
  5
48C
102
{ACAD_REACTORS
330
48B
102
}
330
48B
100
AcDbXrecord
280
     1
102
DISPLAYNAME
  1
Imperial24
102
FLAGS
 90
        0
  0
XRECORD
  5
1C
102
{ACAD_REACTORS
330
1A
102
}
330
1A
100
AcDbXrecord
280
     1
270
     1
271
     1
  0
XRECORD
  5
1B
102
{ACAD_REACTORS
330
1A
102
}
330
1A
100
AcDbXrecord
280
     1
270
     1
271
     1
  0
XRECORD
  5
1F
102
{ACAD_REACTORS
330
1A
102
}
330
1A
100
AcDbXrecord
280
     1
270
     1
271
     1
  0
XRECORD
  5
1E
102
{ACAD_REACTORS
330
1A
102
}
330
1A
100
AcDbXrecord
280
     1
270
     1
271
     1
  0
XRECORD
  5
20
102
{ACAD_REACTORS
330
1A
102
}
330
1A
100
AcDbXrecord
280
     1
270
     1
271
     1
  0
XRECORD
  5
1D
102
{ACAD_REACTORS
330
1A
102
}
330
1A
100
AcDbXrecord
280
     1
270
     1
271
     1
  0
XRECORD
  5
14
102
{ACAD_REACTORS
330
12
102
}
330
12
100
AcDbXrecord
280
     1
270
     1
271
     1
  0
XRECORD
  5
13
102
{ACAD_REACTORS
330
12
102
}
330
12
100
AcDbXrecord
280
     1
270
     1
271
     1
  0
XRECORD
  5
17
102
{ACAD_REACTORS
330
12
102
}
330
12
100
AcDbXrecord
280
     1
270
     1
271
     1
  0
XRECORD
  5
16
102
{ACAD_REACTORS
330
12
102
}
330
12
100
AcDbXrecord
280
     1
270
     1
271
     1
  0
XRECORD
  5
18
102
{ACAD_REACTORS
330
12
102
}
330
12
100
AcDbXrecord
280
     1
270
     1
271
     1
  0
XRECORD
  5
15
102
{ACAD_REACTORS
330
12
102
}
330
12
100
AcDbXrecord
280
     1
270
     1
271
     1
  0
XRECORD
  5
24
102
{ACAD_REACTORS
330
22
102
}
330
22
100
AcDbXrecord
280
     1
270
     1
271
     1
  0
XRECORD
  5
23
102
{ACAD_REACTORS
330
22
102
}
330
22
100
AcDbXrecord
280
     1
270
     1
271
     1
  0
XRECORD
  5
27
102
{ACAD_REACTORS
330
22
102
}
330
22
100
AcDbXrecord
280
     1
270
     1
271
     1
  0
XRECORD
  5
26
102
{ACAD_REACTORS
330
22
102
}
330
22
100
AcDbXrecord
280
     1
270
     1
271
     1
  0
XRECORD
  5
28
102
{ACAD_REACTORS
330
22
102
}
330
22
100
AcDbXrecord
280
     1
270
     1
271
     1
  0
XRECORD
  5
25
102
{ACAD_REACTORS
330
22
102
}
330
22
100
AcDbXrecord
280
     1
270
     1
271
     1
  0
XRECORD
  5
48A
102
{ACAD_REACTORS
330
489
102
}
330
489
100
AcDbXrecord
280
     1
102
DISPLAYNAME
  1
Imperial24
102
FLAGS
 90
        0
  0
CELLSTYLEMAP
  5
488
102
{ACAD_REACTORS
330
487
102
}
330
487
100
AcDbCellStyleMap
 90
        3
300
CELLSTYLE
  1
TABLEFORMAT_BEGIN
 90
        5
170
     1
 91
        0
 92
    32768
 62
   257
 93
        1
300
CONTENTFORMAT
  1
CONTENTFORMAT_BEGIN
 90
        0
 91
        0
 92
      512
 93
        0
300

 40
0.0
140
1.0
 94
        5
 62
     0
340
55
144
0.25
309
CONTENTFORMAT_END
171
     0
 94
        0
309
TABLEFORMAT_END
  1
CELLSTYLE_BEGIN
 90
        1
 91
        1
300
_TITLE
309
CELLSTYLE_END
300
CELLSTYLE
  1
TABLEFORMAT_BEGIN
 90
        5
170
     1
 91
        0
 92
        0
 62
   257
 93
        1
300
CONTENTFORMAT
  1
CONTENTFORMAT_BEGIN
 90
        0
 91
        0
 92
      512
 93
        0
300

 40
0.0
140
1.0
 94
        5
 62
     0
340
55
144
0.18
309
CONTENTFORMAT_END
171
     0
 94
        0
309
TABLEFORMAT_END
  1
CELLSTYLE_BEGIN
 90
        2
 91
        1
300
_HEADER
309
CELLSTYLE_END
300
CELLSTYLE
  1
TABLEFORMAT_BEGIN
 90
        5
170
     1
 91
        0
 92
        0
 62
   257
 93
        1
300
CONTENTFORMAT
  1
CONTENTFORMAT_BEGIN
 90
        0
 91
        0
 92
      512
 93
        0
300

 40
0.0
140
1.0
 94
        2
 62
     0
340
55
144
0.18
309
CONTENTFORMAT_END
171
     0
 94
        0
309
TABLEFORMAT_END
  1
CELLSTYLE_BEGIN
 90
        3
 91
        2
300
_DATA
309
CELLSTYLE_END
  0
ENDSEC
  0
SECTION
  2
ACDSDATA
 70
     2
 71
     6
  0
ACDSSCHEMA
 90
        0
  1
AcDb_Thumbnail_Schema
  2
AcDbDs::ID
280
    10
 91
        8
  2
Thumbnail_Data
280
    15
 91
        0
101
ACDSRECORD
 95
        0
 90
        1
  2
AcDbDs::TreatedAsObjectData
280
     1
291
     1
101
ACDSRECORD
 95
        0
 90
        2
  2
AcDbDs::Legacy
280
     1
291
     1
101
ACDSRECORD
  1
AcDbDs::ID
 90
        3
  2
AcDs:Indexable
280
     1
291
     1
101
ACDSRECORD
  1
AcDbDs::ID
 90
        4
  2
AcDbDs::HandleAttribute
280
     7
282
     1
  0
ACDSSCHEMA
 90
        1
  1
AcDbDs::TreatedAsObjectDataSchema
  2
AcDbDs::TreatedAsObjectData
280
     1
 91
        0
  0
ACDSSCHEMA
 90
        2
  1
AcDbDs::LegacySchema
  2
AcDbDs::Legacy
280
     1
 91
        0
  0
ACDSSCHEMA
 90
        3
  1
AcDbDs::IndexedPropertySchema
  2
AcDs:Indexable
280
     1
 91
        0
  0
ACDSSCHEMA
 90
        4
  1
AcDbDs::HandleAttributeSchema
  2
AcDbDs::HandleAttribute
280
     7
 91
        1
284
     1
  0
ACDSRECORD
 90
        0
  2
AcDbDs::ID
280
    10
320
72
  2
Thumbnail_Data
280
    15
 94
     1337
310
89504E470D0A1A0A0000000D49484452000001000000009B0803000000BA7AB56000000300504C54455B5B5B000000C8C8C80000000000000000000000000000000000000000000000000000330000660000990000CC0000FF0033000033330033660033990033CC0033FF0066000066330066660066990066CC0066FF0099
310
000099330099660099990099CC0099FF00CC0000CC3300CC6600CC9900CCCC00CCFF00FF0000FF3300FF6600FF9900FFCC00FFFF3300003300333300663300993300CC3300FF3333003333333333663333993333CC3333FF3366003366333366663366993366CC3366FF3399003399333399663399993399CC3399FF33CC00
310
33CC3333CC6633CC9933CCCC33CCFF33FF0033FF3333FF6633FF9933FFCC33FFFF6600006600336600666600996600CC6600FF6633006633336633666633996633CC6633FF6666006666336666666666996666CC6666FF6699006699336699666699996699CC6699FF66CC0066CC3366CC6666CC9966CCCC66CCFF66FF0066
310
FF3366FF6666FF9966FFCC66FFFF9900009900339900669900999900CC9900FF9933009933339933669933999933CC9933FF9966009966339966669966999966CC9966FF9999009999339999669999999999CC9999FF99CC0099CC3399CC6699CC9999CCCC99CCFF99FF0099FF3399FF6699FF9999FFCC99FFFFCC0000CC00
310
33CC0066CC0099CC00CCCC00FFCC3300CC3333CC3366CC3399CC33CCCC33FFCC6600CC6633CC6666CC6699CC66CCCC66FFCC9900CC9933CC9966CC9999CC99CCCC99FFCCCC00CCCC33CCCC66CCCC99CCCCCCCCCCFFCCFF00CCFF33CCFF66CCFF99CCFFCCCCFFFFFF0000FF0033FF0066FF0099FF00CCFF00FFFF3300FF3333
310
FF3366FF3399FF33CCFF33FFFF6600FF6633FF6666FF6699FF66CCFF66FFFF9900FF9933FF9966FF9999FF99CCFF99FFFFCC00FFCC33FFCC66FFCC99FFCCCCFFCCFFFFFF00FFFF33FFFF66FFFF99FFFFCCFFFFFF0000000D0D0D1A1A1A2828283535354343435050505D5D5D6B6B6B787878868686939393A1A1A1AEAEAEBB
310
BBBBC9C9C9D6D6D6E4E4E4F1F1F1FFFFFF00000000000000000000000000000000000000000000000000000000000054549EDE000001F44944415478DAED9CED7103210C0569E8F5DFCC159309064E224903D95D8F3DF79777421F20790C1111111191498217207801E0123405021720F34354E038C400BD62370164580873
310
F38FE6F9F25A439002CCDF304341AE7D001600AA40AE242070018099D09B054113819C2FB432DA0120811603D3FC3F2F3FC8626079FE6C23086FFD9F45E715036901CB05C24AA3ECF07792009600398B7F4F4550A130396160F004386BA51E8724C1267F4501F2E5D04A008936B0164D3D01494A0D38C8A7A0C88B90A600D4
310
01DEC7DF3C37985B06980235F62D8FC8B2805C77E2BC1DD015209E0255059027A14501E67548A901A015715560701518E494B075C7812B02663DF8B7162222222222222222FF963835BDFA83C81D62C17608DD02042F40C8EBA77AC4DD22499D967C1B83B0DDC2594680F583AB31843C3B5F078590EB2F3290152017056756
310
8C2B027764BC6C03B600DB0C1480EC09E97FA8965A14B1DE7B7BC64D0C54DF9F51A76729667FDB3DC91324BF76C983C6A66B1688AC0872C77F5A24FCD1220F1C9CEBEF1C3A3A48166050038088888848E781AFFE79C80A7C2F1EAE007DFFD30510711FC0A3C014807E22668F843D120AC05B74E02EA05D8D428746E8E99F97
310
4122222222C82C309E0129C07CA01E8716019812A42A407583EBC1CB41117646A402F47CC8C1597A4A2C222210BE00383A812044CF6E030000000049454E44AE426082
  0
ENDSEC
  0
EOF
