  0
SECTION
  2
HEADER
  9
$ACADVER
  1
AC1027
  9
$ACADMAINTVER
 70
    55
  9
$DWGCODEPAGE
  3
ANSI_1252
  9
$LASTSAVEDBY
  1
crinne
  9
$REQUIREDVERSIONS
160
                 0
  9
$INSBASE
 10
0.0
 20
0.0
 30
0.0
  9
$EXTMIN
 10
-387.563380384613
 20
-1826.922649402741
 30
0.0
  9
$EXTMAX
 10
-270.9678187946519
 20
-1597.17322841372
 30
0.0
  9
$LIMMIN
 10
-2600.0
 20
-2600.0
  9
$LIMMAX
 10
2000.0
 20
200.0
  9
$ORTHOMODE
 70
     0
  9
$REGENMODE
 70
     1
  9
$FILLMODE
 70
     1
  9
$QTEXTMODE
 70
     0
  9
$MIRRTEXT
 70
     1
  9
$LTSCALE
 40
25.0
  9
$ATTMODE
 70
     1
  9
$TEXTSIZE
 40
3.5
  9
$TRACEWID
 40
1.0
  9
$TEXTSTYLE
  7
STANDARD
  9
$CLAYER
  8
GRABUNGSGRENZE
  9
$CELTYPE
  6
ByLayer
  9
$CECOLOR
 62
   256
  9
$CELTSCALE
 40
1.0
  9
$DISPSILH
 70
     0
  9
$DIMSCALE
 40
1.0
  9
$DIMASZ
 40
3.5
  9
$DIMEXO
 40
0.1
  9
$DIMDLI
 40
7.0
  9
$DIMRND
 40
0.0
  9
$DIMDLE
 40
0.0
  9
$DIMEXE
 40
1.8
  9
$DIMTP
 40
0.0
  9
$DIMTM
 40
0.0
  9
$DIMTXT
 40
3.5
  9
$DIMCEN
 40
1.5
  9
$DIMTSZ
 40
0.0
  9
$DIMTOL
 70
     0
  9
$DIMLIM
 70
     0
  9
$DIMTIH
 70
     0
  9
$DIMTOH
 70
     0
  9
$DIMSE1
 70
     0
  9
$DIMSE2
 70
     0
  9
$DIMTAD
 70
     0
  9
$DIMZIN
 70
     0
  9
$DIMBLK
  1

  9
$DIMASO
 70
     1
  9
$DIMSHO
 70
     0
  9
$DIMPOST
  1

  9
$DIMAPOST
  1

  9
$DIMALT
 70
     0
  9
$DIMALTD
 70
     2
  9
$DIMALTF
 40
25.4
  9
$DIMLFAC
 40
1.0
  9
$DIMTOFL
 70
     0
  9
$DIMTVP
 40
0.0
  9
$DIMTIX
 70
     0
  9
$DIMSOXD
 70
     0
  9
$DIMSAH
 70
     0
  9
$DIMBLK1
  1

  9
$DIMBLK2
  1

  9
$DIMSTYLE
  2
Standard
  9
$DIMCLRD
 70
     0
  9
$DIMCLRE
 70
     0
  9
$DIMCLRT
 70
     0
  9
$DIMTFAC
 40
1.0
  9
$DIMGAP
 40
0.09
  9
$DIMJUST
 70
     0
  9
$DIMSD1
 70
     0
  9
$DIMSD2
 70
     0
  9
$DIMTOLJ
 70
     1
  9
$DIMTZIN
 70
     0
  9
$DIMALTZ
 70
     0
  9
$DIMALTTZ
 70
     0
  9
$DIMUPT
 70
     0
  9
$DIMDEC
 70
     2
  9
$DIMTDEC
 70
     2
  9
$DIMALTU
 70
     2
  9
$DIMALTTD
 70
     2
  9
$DIMTXSTY
  7
STANDARD
  9
$DIMAUNIT
 70
     0
  9
$DIMADEC
 70
     0
  9
$DIMALTRND
 40
0.0
  9
$DIMAZIN
 70
     0
  9
$DIMDSEP
 70
    46
  9
$DIMATFIT
 70
     3
  9
$DIMFRAC
 70
     0
  9
$DIMLDRBLK
  1

  9
$DIMLUNIT
 70
     2
  9
$DIMLWD
 70
    -2
  9
$DIMLWE
 70
    -2
  9
$DIMTMOVE
 70
     2
  9
$DIMFXL
 40
1.0
  9
$DIMFXLON
 70
     0
  9
$DIMJOGANG
 40
0.7853981633974483
  9
$DIMTFILL
 70
     0
  9
$DIMTFILLCLR
 70
     0
  9
$DIMARCSYM
 70
     0
  9
$DIMLTYPE
  6

  9
$DIMLTEX1
  6

  9
$DIMLTEX2
  6

  9
$DIMTXTDIRECTION
 70
     0
  9
$LUNITS
 70
     2
  9
$LUPREC
 70
     2
  9
$SKETCHINC
 40
1.0
  9
$FILLETRAD
 40
0.0
  9
$AUNITS
 70
     0
  9
$AUPREC
 70
     0
  9
$MENU
  1
ACAD
  9
$ELEVATION
 40
0.0
  9
$PELEVATION
 40
0.0
  9
$THICKNESS
 40
0.0
  9
$LIMCHECK
 70
     0
  9
$CHAMFERA
 40
0.0
  9
$CHAMFERB
 40
0.0
  9
$CHAMFERC
 40
0.0
  9
$CHAMFERD
 40
0.0
  9
$SKPOLY
 70
     0
  9
$TDCREATE
 40
2450576.545303935
  9
$TDUCREATE
 40
2450576.461970602
  9
$TDUPDATE
 40
2459793.590932315
  9
$TDUUPDATE
 40
2459793.507598981
  9
$TDINDWG
 40
0.0000048843
  9
$TDUSRTIMER
 40
0.0000048843
  9
$USRTIMER
 70
     1
  9
$ANGBASE
 50
0.0
  9
$ANGDIR
 70
     0
  9
$PDMODE
 70
     0
  9
$PDSIZE
 40
0.0
  9
$PLINEWID
 40
0.0
  9
$SPLFRAME
 70
     0
  9
$SPLINETYPE
 70
     6
  9
$SPLINESEGS
 70
     8
  9
$HANDSEED
  5
359
  9
$SURFTAB1
 70
     6
  9
$SURFTAB2
 70
     6
  9
$SURFTYPE
 70
     6
  9
$SURFU
 70
     6
  9
$SURFV
 70
     6
  9
$UCSBASE
  2

  9
$UCSNAME
  2

  9
$UCSORG
 10
0.0
 20
0.0
 30
0.0
  9
$UCSXDIR
 10
1.0
 20
0.0
 30
0.0
  9
$UCSYDIR
 10
0.0
 20
1.0
 30
0.0
  9
$UCSORTHOREF
  2

  9
$UCSORTHOVIEW
 70
     0
  9
$UCSORGTOP
 10
0.0
 20
0.0
 30
0.0
  9
$UCSORGBOTTOM
 10
0.0
 20
0.0
 30
0.0
  9
$UCSORGLEFT
 10
0.0
 20
0.0
 30
0.0
  9
$UCSORGRIGHT
 10
0.0
 20
0.0
 30
0.0
  9
$UCSORGFRONT
 10
0.0
 20
0.0
 30
0.0
  9
$UCSORGBACK
 10
0.0
 20
0.0
 30
0.0
  9
$PUCSBASE
  2

  9
$PUCSNAME
  2

  9
$PUCSORG
 10
0.0
 20
0.0
 30
0.0
  9
$PUCSXDIR
 10
1.0
 20
0.0
 30
0.0
  9
$PUCSYDIR
 10
0.0
 20
1.0
 30
0.0
  9
$PUCSORTHOREF
  2

  9
$PUCSORTHOVIEW
 70
     0
  9
$PUCSORGTOP
 10
0.0
 20
0.0
 30
0.0
  9
$PUCSORGBOTTOM
 10
0.0
 20
0.0
 30
0.0
  9
$PUCSORGLEFT
 10
0.0
 20
0.0
 30
0.0
  9
$PUCSORGRIGHT
 10
0.0
 20
0.0
 30
0.0
  9
$PUCSORGFRONT
 10
0.0
 20
0.0
 30
0.0
  9
$PUCSORGBACK
 10
0.0
 20
0.0
 30
0.0
  9
$USERI1
 70
     0
  9
$USERI2
 70
     0
  9
$USERI3
 70
     0
  9
$USERI4
 70
     0
  9
$USERI5
 70
     0
  9
$USERR1
 40
0.0
  9
$USERR2
 40
0.0
  9
$USERR3
 40
0.0
  9
$USERR4
 40
0.0
  9
$USERR5
 40
0.0
  9
$WORLDVIEW
 70
     1
  9
$SHADEDGE
 70
     3
  9
$SHADEDIF
 70
    70
  9
$TILEMODE
 70
     1
  9
$MAXACTVP
 70
    16
  9
$PINSBASE
 10
0.0
 20
0.0
 30
0.0
  9
$PLIMCHECK
 70
     0
  9
$PEXTMIN
 10
1.000000000000000E+20
 20
1.000000000000000E+20
 30
1.000000000000000E+20
  9
$PEXTMAX
 10
-1.000000000000000E+20
 20
-1.000000000000000E+20
 30
-1.000000000000000E+20
  9
$PLIMMIN
 10
0.0
 20
0.0
  9
$PLIMMAX
 10
12.0
 20
9.0
  9
$UNITMODE
 70
     0
  9
$VISRETAIN
 70
     0
  9
$PLINEGEN
 70
     0
  9
$PSLTSCALE
 70
     0
  9
$TREEDEPTH
 70
  3020
  9
$CMLSTYLE
  2
Standard
  9
$CMLJUST
 70
     0
  9
$CMLSCALE
 40
1.0
  9
$PROXYGRAPHICS
 70
     1
  9
$MEASUREMENT
 70
     0
  9
$CELWEIGHT
370
    -1
  9
$ENDCAPS
280
     0
  9
$JOINSTYLE
280
     0
  9
$LWDISPLAY
290
     0
  9
$INSUNITS
 70
     6
  9
$HYPERLINKBASE
  1

  9
$STYLESHEET
  1

  9
$XEDIT
290
     1
  9
$CEPSNTYPE
380
     0
  9
$PSTYLEMODE
290
     1
  9
$FINGERPRINTGUID
  2
{DB03C08B-AD0B-480F-8A79-D8CD74721640}
  9
$VERSIONGUID
  2
{846466A6-0BB9-44E7-B715-F308043CF300}
  9
$EXTNAMES
290
     1
  9
$PSVPSCALE
 40
0.0
  9
$OLESTARTUP
290
     0
  9
$SORTENTS
280
   127
  9
$INDEXCTL
280
     0
  9
$HIDETEXT
280
     1
  9
$XCLIPFRAME
280
     2
  9
$HALOGAP
280
     0
  9
$OBSCOLOR
 70
   257
  9
$OBSLTYPE
280
     0
  9
$INTERSECTIONDISPLAY
280
     0
  9
$INTERSECTIONCOLOR
 70
   257
  9
$DIMASSOC
280
     2
  9
$PROJECTNAME
  1

  9
$CAMERADISPLAY
290
     0
  9
$LENSLENGTH
 40
50.0
  9
$CAMERAHEIGHT
 40
0.0
  9
$STEPSPERSEC
 40
2.0
  9
$STEPSIZE
 40
6.0
  9
$3DDWFPREC
 40
2.0
  9
$PSOLWIDTH
 40
0.25
  9
$PSOLHEIGHT
 40
4.0
  9
$LOFTANG1
 40
1.570796326794896
  9
$LOFTANG2
 40
1.570796326794896
  9
$LOFTMAG1
 40
0.0
  9
$LOFTMAG2
 40
0.0
  9
$LOFTPARAM
 70
     7
  9
$LOFTNORMALS
280
     1
  9
$LATITUDE
 40
37.795
  9
$LONGITUDE
 40
-122.394
  9
$NORTHDIRECTION
 40
0.0
  9
$TIMEZONE
 70
 -8000
  9
$LIGHTGLYPHDISPLAY
280
     1
  9
$TILEMODELIGHTSYNCH
280
     1
  9
$CMATERIAL
347
11
  9
$SOLIDHIST
280
     0
  9
$SHOWHIST
280
     1
  9
$DWFFRAME
280
     2
  9
$DGNFRAME
280
     0
  9
$REALWORLDSCALE
290
     1
  9
$INTERFERECOLOR
 62
     1
  9
$INTERFEREOBJVS
345
33
  9
$INTERFEREVPVS
346
30
  9
$CSHADOW
280
     0
  9
$SHADOWPLANELOCATION
 40
0.0
  0
ENDSEC
  0
SECTION
  2
CLASSES
  0
CLASS
  1
ACDBDICTIONARYWDFLT
  2
AcDbDictionaryWithDefault
  3
ObjectDBX Classes
 90
        0
 91
        1
280
     0
281
     0
  0
CLASS
  1
MATERIAL
  2
AcDbMaterial
  3
ObjectDBX Classes
 90
     1153
 91
        3
280
     0
281
     0
  0
CLASS
  1
VISUALSTYLE
  2
AcDbVisualStyle
  3
ObjectDBX Classes
 90
     4095
 91
       24
280
     0
281
     0
  0
CLASS
  1
SCALE
  2
AcDbScale
  3
ObjectDBX Classes
 90
     1153
 91
       17
280
     0
281
     0
  0
CLASS
  1
TABLESTYLE
  2
AcDbTableStyle
  3
ObjectDBX Classes
 90
     4095
 91
        1
280
     0
281
     0
  0
CLASS
  1
MLEADERSTYLE
  2
AcDbMLeaderStyle
  3
ACDB_MLEADERSTYLE_CLASS
 90
     4095
 91
        1
280
     0
281
     0
  0
CLASS
  1
ACDBSECTIONVIEWSTYLE
  2
AcDbSectionViewStyle
  3
ObjectDBX Classes
 90
     1025
 91
        1
280
     0
281
     0
  0
CLASS
  1
ACDBDETAILVIEWSTYLE
  2
AcDbDetailViewStyle
  3
ObjectDBX Classes
 90
     1025
 91
        1
280
     0
281
     0
  0
CLASS
  1
DICTIONARYVAR
  2
AcDbDictionaryVar
  3
ObjectDBX Classes
 90
        0
 91
        5
280
     0
281
     0
  0
CLASS
  1
CELLSTYLEMAP
  2
AcDbCellStyleMap
  3
ObjectDBX Classes
 90
     1152
 91
        1
280
     0
281
     0
  0
ENDSEC
  0
SECTION
  2
TABLES
  0
TABLE
  2
VPORT
  5
8
330
0
100
AcDbSymbolTable
 70
     2
  0
VPORT
  5
8E
330
8
100
AcDbSymbolTableRecord
100
AcDbViewportTableRecord
  2
*ACTIVE
 70
     0
 10
0.0
 20
0.0
 11
1.0
 21
1.0
 12
-198.0906314243632
 22
-1712.047938908231
 13
0.0
 23
0.0
 14
5.0
 24
5.0
 15
100.0
 25
100.0
 16
0.0
 26
0.0
 36
1.0
 17
0.0
 27
0.0
 37
0.0
 40
229.7494209890208
 41
1.649386084583901
 42
50.0
 43
0.0
 44
0.0
 50
0.0
 51
0.0
 71
     0
 72
   100
 73
     1
 74
     0
 75
     0
 76
     1
 77
     0
 78
     0
281
     0
 65
     1
110
0.0
120
0.0
130
0.0
111
1.0
121
0.0
131
0.0
112
0.0
122
1.0
132
0.0
 79
     0
146
0.0
348
2F
 60
     3
 61
     5
292
     1
282
     0
141
0.0
142
0.0
 63
   250
421
  3355443
1001
ACAD_NAV_VCDISPLAY
1070
     3
  0
ENDTAB
  0
TABLE
  2
LTYPE
  5
5
330
0
100
AcDbSymbolTable
 70
    25
  0
LTYPE
  5
5A
330
5
100
AcDbSymbolTableRecord
100
AcDbLinetypeTableRecord
  2
ByBlock
 70
     0
  3

 72
    65
 73
     0
 40
0.0
  0
LTYPE
  5
5B
330
5
100
AcDbSymbolTableRecord
100
AcDbLinetypeTableRecord
  2
ByLayer
 70
     0
  3

 72
    65
 73
     0
 40
0.0
  0
LTYPE
  5
5C
330
5
100
AcDbSymbolTableRecord
100
AcDbLinetypeTableRecord
  2
CONTINUOUS
 70
     0
  3
Ausgezogene Linie
 72
    65
 73
     0
 40
0.0
  0
LTYPE
  5
75
330
5
100
AcDbSymbolTableRecord
100
AcDbLinetypeTableRecord
  2
RAND
 70
     0
  3
__ __ . __ __ . __ __ . __ __ . __ __ . __ __ .
 72
    65
 73
     6
 40
1.75
 49
0.5
 74
     0
 49
-0.25
 74
     0
 49
0.5
 74
     0
 49
-0.25
 74
     0
 49
0.0
 74
     0
 49
-0.25
 74
     0
  0
LTYPE
  5
76
330
5
100
AcDbSymbolTableRecord
100
AcDbLinetypeTableRecord
  2
RAND2
 70
     0
  3
__.__.__.__.__.__.__.__.__.__.__.__.__.__.__.__
 72
    65
 73
     6
 40
0.875
 49
0.25
 74
     0
 49
-0.125
 74
     0
 49
0.25
 74
     0
 49
-0.125
 74
     0
 49
0.0
 74
     0
 49
-0.125
 74
     0
  0
LTYPE
  5
77
330
5
100
AcDbSymbolTableRecord
100
AcDbLinetypeTableRecord
  2
RANDX2
 70
     0
  3
____  ____  .  ____  ____  .  ____  ____  .  __
 72
    65
 73
     6
 40
3.5
 49
1.0
 74
     0
 49
-0.5
 74
     0
 49
1.0
 74
     0
 49
-0.5
 74
     0
 49
0.0
 74
     0
 49
-0.5
 74
     0
  0
LTYPE
  5
78
330
5
100
AcDbSymbolTableRecord
100
AcDbLinetypeTableRecord
  2
MITTE
 70
     0
  3
____ _ ____ _ ____ _ ____ _ ____ _ ____ _ ____ 
 72
    65
 73
     4
 40
2.0
 49
1.25
 74
     0
 49
-0.25
 74
     0
 49
0.25
 74
     0
 49
-0.25
 74
     0
  0
LTYPE
  5
79
330
5
100
AcDbSymbolTableRecord
100
AcDbLinetypeTableRecord
  2
MITTE2
 70
     0
  3
___ _ ___ _ ___ _ ___ _ ___ _ ___ _ ___ _ ___ _
 72
    65
 73
     4
 40
1.125
 49
0.75
 74
     0
 49
-0.125
 74
     0
 49
0.125
 74
     0
 49
-0.125
 74
     0
  0
LTYPE
  5
7A
330
5
100
AcDbSymbolTableRecord
100
AcDbLinetypeTableRecord
  2
MITTEX2
 70
     0
  3
________  __  ________  __  ________  __  _____
 72
    65
 73
     4
 40
4.0
 49
2.5
 74
     0
 49
-0.5
 74
     0
 49
0.5
 74
     0
 49
-0.5
 74
     0
  0
LTYPE
  5
7B
330
5
100
AcDbSymbolTableRecord
100
AcDbLinetypeTableRecord
  2
STRICHPUNKT
 70
     0
  3
__ . __ . __ . __ . __ . __ . __ . __ . __ . __
 72
    65
 73
     4
 40
1.0
 49
0.5
 74
     0
 49
-0.25
 74
     0
 49
0.0
 74
     0
 49
-0.25
 74
     0
  0
LTYPE
  5
7C
330
5
100
AcDbSymbolTableRecord
100
AcDbLinetypeTableRecord
  2
STRICHPUNKT2
 70
     0
  3
_._._._._._._._._._._._._._._._._._._._._._._._
 72
    65
 73
     4
 40
0.5
 49
0.25
 74
     0
 49
-0.125
 74
     0
 49
0.0
 74
     0
 49
-0.125
 74
     0
  0
LTYPE
  5
7D
330
5
100
AcDbSymbolTableRecord
100
AcDbLinetypeTableRecord
  2
STRICHPUNKTX2
 70
     0
  3
____  .  ____  .  ____  .  ____  .  ____  .  __
 72
    65
 73
     4
 40
2.0
 49
1.0
 74
     0
 49
-0.5
 74
     0
 49
0.0
 74
     0
 49
-0.5
 74
     0
  0
LTYPE
  5
7E
330
5
100
AcDbSymbolTableRecord
100
AcDbLinetypeTableRecord
  2
GESTRICHELT
 70
     0
  3
__ __ __ __ __ __ __ __ __ __ __ __ __ __ __ __
 72
    65
 73
     2
 40
0.75
 49
0.5
 74
     0
 49
-0.25
 74
     0
  0
LTYPE
  5
7F
330
5
100
AcDbSymbolTableRecord
100
AcDbLinetypeTableRecord
  2
GESTRICHELT2
 70
     0
  3
_ _ _ _ _ _ _ _ _ _ _ _ _ _ _ _ _ _ _ _ _ _ _ _
 72
    65
 73
     2
 40
0.375
 49
0.25
 74
     0
 49
-0.125
 74
     0
  0
LTYPE
  5
80
330
5
100
AcDbSymbolTableRecord
100
AcDbLinetypeTableRecord
  2
GESTRICHELTX2
 70
     0
  3
____  ____  ____  ____  ____  ____  ____  ____ 
 72
    65
 73
     2
 40
1.5
 49
1.0
 74
     0
 49
-0.5
 74
     0
  0
LTYPE
  5
81
330
5
100
AcDbSymbolTableRecord
100
AcDbLinetypeTableRecord
  2
GETRENNT
 70
     0
  3
____ . . ____ . . ____ . . ____ . . ____ . . __
 72
    65
 73
     6
 40
1.25
 49
0.5
 74
     0
 49
-0.25
 74
     0
 49
0.0
 74
     0
 49
-0.25
 74
     0
 49
0.0
 74
     0
 49
-0.25
 74
     0
  0
LTYPE
  5
82
330
5
100
AcDbSymbolTableRecord
100
AcDbLinetypeTableRecord
  2
GETRENNT2
 70
     0
  3
__..__..__..__..__..__..__..__..__..__..__..__.
 72
    65
 73
     6
 40
0.625
 49
0.25
 74
     0
 49
-0.125
 74
     0
 49
0.0
 74
     0
 49
-0.125
 74
     0
 49
0.0
 74
     0
 49
-0.125
 74
     0
  0
LTYPE
  5
83
330
5
100
AcDbSymbolTableRecord
100
AcDbLinetypeTableRecord
  2
GETRENNTX2
 70
     0
  3
________  .  .  ________  .  .  ________  .  . 
 72
    65
 73
     6
 40
2.5
 49
1.0
 74
     0
 49
-0.5
 74
     0
 49
0.0
 74
     0
 49
-0.5
 74
     0
 49
0.0
 74
     0
 49
-0.5
 74
     0
  0
LTYPE
  5
84
330
5
100
AcDbSymbolTableRecord
100
AcDbLinetypeTableRecord
  2
PUNKT
 70
     0
  3
. . . . . . . . . . . . . . . . . . . . . . . .
 72
    65
 73
     2
 40
0.25
 49
0.0
 74
     0
 49
-0.25
 74
     0
  0
LTYPE
  5
85
330
5
100
AcDbSymbolTableRecord
100
AcDbLinetypeTableRecord
  2
PUNKT2
 70
     0
  3
...............................................
 72
    65
 73
     2
 40
0.125
 49
0.0
 74
     0
 49
-0.125
 74
     0
  0
LTYPE
  5
86
330
5
100
AcDbSymbolTableRecord
100
AcDbLinetypeTableRecord
  2
PUNKTX2
 70
     0
  3
.  .  .  .  .  .  .  .  .  .  .  .  .  .  .  . 
 72
    65
 73
     2
 40
0.5
 49
0.0
 74
     0
 49
-0.5
 74
     0
  0
LTYPE
  5
87
330
5
100
AcDbSymbolTableRecord
100
AcDbLinetypeTableRecord
  2
VERDECKT
 70
     0
  3
__ __ __ __ __ __ __ __ __ __ __ __ __ __ __ __
 72
    65
 73
     2
 40
0.375
 49
0.25
 74
     0
 49
-0.125
 74
     0
  0
LTYPE
  5
88
330
5
100
AcDbSymbolTableRecord
100
AcDbLinetypeTableRecord
  2
VERDECKT2
 70
     0
  3
_ _ _ _ _ _ _ _ _ _ _ _ _ _ _ _ _ _ _ _ _ _ _ _
 72
    65
 73
     2
 40
0.1875
 49
0.125
 74
     0
 49
-0.0625
 74
     0
  0
LTYPE
  5
89
330
5
100
AcDbSymbolTableRecord
100
AcDbLinetypeTableRecord
  2
VERDECKTX2
 70
     0
  3
____ ____ ____ ____ ____ ____ ____ ____ ____ __
 72
    65
 73
     2
 40
0.75
 49
0.5
 74
     0
 49
-0.25
 74
     0
  0
LTYPE
  5
8A
330
5
100
AcDbSymbolTableRecord
100
AcDbLinetypeTableRecord
  2
PHANTOM
 70
     0
  3
______  __  __  ______  __  __  ______  __  __ 
 72
    65
 73
     6
 40
2.5
 49
1.25
 74
     0
 49
-0.25
 74
     0
 49
0.25
 74
     0
 49
-0.25
 74
     0
 49
0.25
 74
     0
 49
-0.25
 74
     0
  0
LTYPE
  5
8B
330
5
100
AcDbSymbolTableRecord
100
AcDbLinetypeTableRecord
  2
PHANTOM2
 70
     0
  3
___ _ _ ___ _ _ ___ _ _ ___ _ _ ___ _ _ ___ _ _
 72
    65
 73
     6
 40
1.25
 49
0.625
 74
     0
 49
-0.125
 74
     0
 49
0.125
 74
     0
 49
-0.125
 74
     0
 49
0.125
 74
     0
 49
-0.125
 74
     0
  0
LTYPE
  5
8C
330
5
100
AcDbSymbolTableRecord
100
AcDbLinetypeTableRecord
  2
PHANTOMX2
 70
     0
  3
____________    ____    ____    ____________   
 72
    65
 73
     6
 40
5.0
 49
2.5
 74
     0
 49
-0.5
 74
     0
 49
0.5
 74
     0
 49
-0.5
 74
     0
 49
0.5
 74
     0
 49
-0.5
 74
     0
  0
ENDTAB
  0
TABLE
  2
LAYER
  5
2
102
{ACAD_XDICTIONARY
360
345
102
}
330
0
100
AcDbSymbolTable
 70
    10
  0
LAYER
  5
54
330
2
100
AcDbSymbolTableRecord
100
AcDbLayerTableRecord
  2
0
 70
     0
 62
     7
  6
CONTINUOUS
370
    -3
390
F
347
21
348
0
  0
LAYER
  5
8F
330
2
100
AcDbSymbolTableRecord
100
AcDbLayerTableRecord
  2
GRABUNGSGRENZE
 70
     0
 62
     3
  6
STRICHPUNKTX2
370
    -3
390
F
347
21
348
0
  0
LAYER
  5
90
330
2
100
AcDbSymbolTableRecord
100
AcDbLayerTableRecord
  2
BEFUND
 70
     0
 62
     1
  6
CONTINUOUS
370
    -3
390
F
347
21
348
0
  0
LAYER
  5
91
330
2
100
AcDbSymbolTableRecord
100
AcDbLayerTableRecord
  2
STEINE
 70
     0
 62
     4
  6
CONTINUOUS
370
    -3
390
F
347
21
348
0
  0
LAYER
  5
92
330
2
100
AcDbSymbolTableRecord
100
AcDbLayerTableRecord
  2
KNOCHEN
 70
     0
 62
     2
  6
CONTINUOUS
370
    -3
390
F
347
21
348
0
  0
LAYER
  5
93
330
2
100
AcDbSymbolTableRecord
100
AcDbLayerTableRecord
  2
BEFUND_UNSICHER
 70
     0
 62
     1
  6
GESTRICHELT
370
    -3
390
F
347
21
348
0
  0
LAYER
  5
94
330
2
100
AcDbSymbolTableRecord
100
AcDbLayerTableRecord
  2
FEUER
 70
     0
 62
     1
  6
CONTINUOUS
370
    -3
390
F
347
21
348
0
  0
LAYER
  5
95
330
2
100
AcDbSymbolTableRecord
100
AcDbLayerTableRecord
  2
KNOCHENSCHRAFF
 70
     0
 62
     2
  6
CONTINUOUS
370
    -3
390
F
347
21
348
0
  0
LAYER
  5
96
330
2
100
AcDbSymbolTableRecord
100
AcDbLayerTableRecord
  2
TPROFIL
 70
     0
 62
     3
  6
CONTINUOUS
370
    -3
390
F
347
21
348
0
  0
LAYER
  5
97
330
2
100
AcDbSymbolTableRecord
100
AcDbLayerTableRecord
  2
STEINESCHRAFF
 70
     0
 62
     4
  6
CONTINUOUS
370
    -3
390
F
347
21
348
0
  0
ENDTAB
  0
TABLE
  2
STYLE
  5
3
330
0
100
AcDbSymbolTable
 70
     2
  0
STYLE
  5
55
330
3
100
AcDbSymbolTableRecord
100
AcDbTextStyleTableRecord
  2
STANDARD
 70
     0
 40
0.0
 41
1.0
 50
0.0
 71
     0
 42
3.5
  3
txt.shx
  4

  0
STYLE
  5
59
330
3
100
AcDbSymbolTableRecord
100
AcDbTextStyleTableRecord
  2
Annotative
 70
     0
 40
0.0
 41
1.0
 50
0.0
 71
     0
 42
3.5
  3
txt
  4

1001
AcadAnnotative
1000
AnnotativeData
1002
{
1070
     1
1070
     1
1002
}
  0
ENDTAB
  0
TABLE
  2
VIEW
  5
6
330
0
100
AcDbSymbolTable
 70
     1
  0
ENDTAB
  0
TABLE
  2
UCS
  5
7
330
0
100
AcDbSymbolTable
 70
     0
  0
ENDTAB
  0
TABLE
  2
APPID
  5
9
330
0
100
AcDbSymbolTable
 70
     3
  0
APPID
  5
56
330
9
100
AcDbSymbolTableRecord
100
AcDbRegAppTableRecord
  2
ACAD
 70
     0
  0
APPID
  5
5D
330
9
100
AcDbSymbolTableRecord
100
AcDbRegAppTableRecord
  2
AcadAnnotative
 70
     0
  0
APPID
  5
351
330
9
100
AcDbSymbolTableRecord
100
AcDbRegAppTableRecord
  2
ACAD_NAV_VCDISPLAY
 70
     0
  0
ENDTAB
  0
TABLE
  2
DIMSTYLE
  5
A
330
0
100
AcDbSymbolTable
 70
     2
100
AcDbDimStyleTable
 71
     0
  0
DIMSTYLE
105
57
330
A
100
AcDbSymbolTableRecord
100
AcDbDimStyleTableRecord
  2
Standard
 70
     0
340
55
  0
DIMSTYLE
105
58
330
A
100
AcDbSymbolTableRecord
100
AcDbDimStyleTableRecord
  2
Annotative
 70
     0
340
55
1001
AcadAnnotative
1000
AnnotativeData
1002
{
1070
     1
1070
     1
1002
}
  0
ENDTAB
  0
TABLE
  2
BLOCK_RECORD
  5
1
330
0
100
AcDbSymbolTable
 70
     2
  0
BLOCK_RECORD
  5
6F
330
1
100
AcDbSymbolTableRecord
100
AcDbBlockTableRecord
  2
*Model_Space
340
72
 70
     0
280
     1
281
     0
  0
BLOCK_RECORD
  5
6B
330
1
100
AcDbSymbolTableRecord
100
AcDbBlockTableRecord
  2
*Paper_Space
340
6E
 70
     0
280
     1
281
     0
  0
BLOCK_RECORD
  5
73
330
1
100
AcDbSymbolTableRecord
100
AcDbBlockTableRecord
  2
TPFEIL
340
0
 70
     0
280
     1
281
     0
  0
BLOCK_RECORD
  5
74
330
1
100
AcDbSymbolTableRecord
100
AcDbBlockTableRecord
  2
*X1
340
0
102
{BLKREFS
331
33E
102
}
 70
     0
280
     1
281
     0
  0
ENDTAB
  0
ENDSEC
  0
SECTION
  2
BLOCKS
  0
BLOCK
  5
9A
330
6F
100
AcDbEntity
  8
0
100
AcDbBlockBegin
  2
*Model_Space
 70
     0
 10
0.0
 20
0.0
 30
0.0
  3
*Model_Space
  1

  0
ENDBLK
  5
9B
330
6F
100
AcDbEntity
  8
0
100
AcDbBlockEnd
  0
BLOCK
  5
98
330
6B
100
AcDbEntity
 67
     1
  8
0
100
AcDbBlockBegin
  2
*Paper_Space
 70
     0
 10
0.0
 20
0.0
 30
0.0
  3
*Paper_Space
  1

  0
ENDBLK
  5
99
330
6B
100
AcDbEntity
 67
     1
  8
0
100
AcDbBlockEnd
  0
BLOCK
  5
9C
330
73
100
AcDbEntity
  8
0
100
AcDbBlockBegin
  2
TPFEIL
 70
     0
 10
0.0
 20
0.0
 30
0.0
  3
TPFEIL
  1

  0
LWPOLYLINE
  5
9D
330
73
100
AcDbEntity
  8
GRABUNGSGRENZE
100
AcDbPolyline
 90
        2
 70
     0
 10
0.0
 20
-10.0
 40
5.0
 41
0.0
 10
0.0
 20
0.0
 40
0.0
 41
0.0
  0
ENDBLK
  5
A1
330
73
100
AcDbEntity
  8
0
100
AcDbBlockEnd
  0
BLOCK
  5
A2
330
74
100
AcDbEntity
  8
0
100
AcDbBlockBegin
  2
*X1
 70
     1
 10
0.0
 20
0.0
 30
0.0
  3
*X1
  1

  0
LINE
  5
A3
330
74
100
AcDbEntity
  8
0
 62
     0
100
AcDbLine
 10
-381.875
 20
-1606.25
 30
0.0
 11
-381.875
 21
-1606.25
 31
0.0
  0
LINE
  5
A4
330
74
100
AcDbEntity
  8
0
 62
     0
100
AcDbLine
 10
-380.625
 20
-1606.25
 30
0.0
 11
-380.625
 21
-1606.25
 31
0.0
  0
LINE
  5
A5
330
74
100
AcDbEntity
  8
0
 62
     0
100
AcDbLine
 10
-379.375
 20
-1606.25
 30
0.0
 11
-379.375
 21
-1606.25
 31
0.0
  0
LINE
  5
A6
330
74
100
AcDbEntity
  8
0
 62
     0
100
AcDbLine
 10
-378.125
 20
-1606.25
 30
0.0
 11
-378.125
 21
-1606.25
 31
0.0
  0
LINE
  5
A7
330
74
100
AcDbEntity
  8
0
 62
     0
100
AcDbLine
 10
-376.875
 20
-1606.25
 30
0.0
 11
-376.875
 21
-1606.25
 31
0.0
  0
LINE
  5
A8
330
74
100
AcDbEntity
  8
0
 62
     0
100
AcDbLine
 10
-375.625
 20
-1606.25
 30
0.0
 11
-375.625
 21
-1606.25
 31
0.0
  0
LINE
  5
A9
330
74
100
AcDbEntity
  8
0
 62
     0
100
AcDbLine
 10
-374.375
 20
-1606.25
 30
0.0
 11
-374.375
 21
-1606.25
 31
0.0
  0
LINE
  5
AA
330
74
100
AcDbEntity
  8
0
 62
     0
100
AcDbLine
 10
-373.125
 20
-1606.25
 30
0.0
 11
-373.125
 21
-1606.25
 31
0.0
  0
LINE
  5
AB
330
74
100
AcDbEntity
  8
0
 62
     0
100
AcDbLine
 10
-371.875
 20
-1606.25
 30
0.0
 11
-371.875
 21
-1606.25
 31
0.0
  0
LINE
  5
AC
330
74
100
AcDbEntity
  8
0
 62
     0
100
AcDbLine
 10
-370.625
 20
-1606.25
 30
0.0
 11
-370.625
 21
-1606.25
 31
0.0
  0
LINE
  5
AD
330
74
100
AcDbEntity
  8
0
 62
     0
100
AcDbLine
 10
-369.375
 20
-1606.25
 30
0.0
 11
-369.375
 21
-1606.25
 31
0.0
  0
LINE
  5
AE
330
74
100
AcDbEntity
  8
0
 62
     0
100
AcDbLine
 10
-368.125
 20
-1606.25
 30
0.0
 11
-368.125
 21
-1606.25
 31
0.0
  0
LINE
  5
AF
330
74
100
AcDbEntity
  8
0
 62
     0
100
AcDbLine
 10
-366.875
 20
-1606.25
 30
0.0
 11
-366.875
 21
-1606.25
 31
0.0
  0
LINE
  5
B0
330
74
100
AcDbEntity
  8
0
 62
     0
100
AcDbLine
 10
-365.625
 20
-1606.25
 30
0.0
 11
-365.625
 21
-1606.25
 31
0.0
  0
LINE
  5
B1
330
74
100
AcDbEntity
  8
0
 62
     0
100
AcDbLine
 10
-364.375
 20
-1606.25
 30
0.0
 11
-364.375
 21
-1606.25
 31
0.0
  0
LINE
  5
B2
330
74
100
AcDbEntity
  8
0
 62
     0
100
AcDbLine
 10
-363.125
 20
-1606.25
 30
0.0
 11
-363.125
 21
-1606.25
 31
0.0
  0
LINE
  5
B3
330
74
100
AcDbEntity
  8
0
 62
     0
100
AcDbLine
 10
-361.875
 20
-1606.25
 30
0.0
 11
-361.875
 21
-1606.25
 31
0.0
  0
LINE
  5
B4
330
74
100
AcDbEntity
  8
0
 62
     0
100
AcDbLine
 10
-360.625
 20
-1606.25
 30
0.0
 11
-360.625
 21
-1606.25
 31
0.0
  0
LINE
  5
B5
330
74
100
AcDbEntity
  8
0
 62
     0
100
AcDbLine
 10
-359.375
 20
-1606.25
 30
0.0
 11
-359.375
 21
-1606.25
 31
0.0
  0
LINE
  5
B6
330
74
100
AcDbEntity
  8
0
 62
     0
100
AcDbLine
 10
-358.125
 20
-1606.25
 30
0.0
 11
-358.125
 21
-1606.25
 31
0.0
  0
LINE
  5
B7
330
74
100
AcDbEntity
  8
0
 62
     0
100
AcDbLine
 10
-356.875
 20
-1606.25
 30
0.0
 11
-356.875
 21
-1606.25
 31
0.0
  0
LINE
  5
B8
330
74
100
AcDbEntity
  8
0
 62
     0
100
AcDbLine
 10
-355.625
 20
-1606.25
 30
0.0
 11
-355.625
 21
-1606.25
 31
0.0
  0
LINE
  5
B9
330
74
100
AcDbEntity
  8
0
 62
     0
100
AcDbLine
 10
-354.375
 20
-1606.25
 30
0.0
 11
-354.375
 21
-1606.25
 31
0.0
  0
LINE
  5
BA
330
74
100
AcDbEntity
  8
0
 62
     0
100
AcDbLine
 10
-353.125
 20
-1606.25
 30
0.0
 11
-353.125
 21
-1606.25
 31
0.0
  0
LINE
  5
BB
330
74
100
AcDbEntity
  8
0
 62
     0
100
AcDbLine
 10
-351.875
 20
-1606.25
 30
0.0
 11
-351.875
 21
-1606.25
 31
0.0
  0
LINE
  5
BC
330
74
100
AcDbEntity
  8
0
 62
     0
100
AcDbLine
 10
-350.625
 20
-1606.25
 30
0.0
 11
-350.625
 21
-1606.25
 31
0.0
  0
LINE
  5
BD
330
74
100
AcDbEntity
  8
0
 62
     0
100
AcDbLine
 10
-349.375
 20
-1606.25
 30
0.0
 11
-349.375
 21
-1606.25
 31
0.0
  0
LINE
  5
BE
330
74
100
AcDbEntity
  8
0
 62
     0
100
AcDbLine
 10
-348.125
 20
-1606.25
 30
0.0
 11
-348.125
 21
-1606.25
 31
0.0
  0
LINE
  5
BF
330
74
100
AcDbEntity
  8
0
 62
     0
100
AcDbLine
 10
-382.5
 20
-1605.0
 30
0.0
 11
-382.5
 21
-1605.0
 31
0.0
  0
LINE
  5
C0
330
74
100
AcDbEntity
  8
0
 62
     0
100
AcDbLine
 10
-381.25
 20
-1605.0
 30
0.0
 11
-381.25
 21
-1605.0
 31
0.0
  0
LINE
  5
C1
330
74
100
AcDbEntity
  8
0
 62
     0
100
AcDbLine
 10
-380.0
 20
-1605.0
 30
0.0
 11
-380.0
 21
-1605.0
 31
0.0
  0
LINE
  5
C2
330
74
100
AcDbEntity
  8
0
 62
     0
100
AcDbLine
 10
-378.75
 20
-1605.0
 30
0.0
 11
-378.75
 21
-1605.0
 31
0.0
  0
LINE
  5
C3
330
74
100
AcDbEntity
  8
0
 62
     0
100
AcDbLine
 10
-377.5
 20
-1605.0
 30
0.0
 11
-377.5
 21
-1605.0
 31
0.0
  0
LINE
  5
C4
330
74
100
AcDbEntity
  8
0
 62
     0
100
AcDbLine
 10
-376.25
 20
-1605.0
 30
0.0
 11
-376.25
 21
-1605.0
 31
0.0
  0
LINE
  5
C5
330
74
100
AcDbEntity
  8
0
 62
     0
100
AcDbLine
 10
-375.0
 20
-1605.0
 30
0.0
 11
-375.0
 21
-1605.0
 31
0.0
  0
LINE
  5
C6
330
74
100
AcDbEntity
  8
0
 62
     0
100
AcDbLine
 10
-373.75
 20
-1605.0
 30
0.0
 11
-373.75
 21
-1605.0
 31
0.0
  0
LINE
  5
C7
330
74
100
AcDbEntity
  8
0
 62
     0
100
AcDbLine
 10
-372.5
 20
-1605.0
 30
0.0
 11
-372.5
 21
-1605.0
 31
0.0
  0
LINE
  5
C8
330
74
100
AcDbEntity
  8
0
 62
     0
100
AcDbLine
 10
-371.25
 20
-1605.0
 30
0.0
 11
-371.25
 21
-1605.0
 31
0.0
  0
LINE
  5
C9
330
74
100
AcDbEntity
  8
0
 62
     0
100
AcDbLine
 10
-370.0
 20
-1605.0
 30
0.0
 11
-370.0
 21
-1605.0
 31
0.0
  0
LINE
  5
CA
330
74
100
AcDbEntity
  8
0
 62
     0
100
AcDbLine
 10
-368.75
 20
-1605.0
 30
0.0
 11
-368.75
 21
-1605.0
 31
0.0
  0
LINE
  5
CB
330
74
100
AcDbEntity
  8
0
 62
     0
100
AcDbLine
 10
-367.5
 20
-1605.0
 30
0.0
 11
-367.5
 21
-1605.0
 31
0.0
  0
LINE
  5
CC
330
74
100
AcDbEntity
  8
0
 62
     0
100
AcDbLine
 10
-366.25
 20
-1605.0
 30
0.0
 11
-366.25
 21
-1605.0
 31
0.0
  0
LINE
  5
CD
330
74
100
AcDbEntity
  8
0
 62
     0
100
AcDbLine
 10
-365.0
 20
-1605.0
 30
0.0
 11
-365.0
 21
-1605.0
 31
0.0
  0
LINE
  5
CE
330
74
100
AcDbEntity
  8
0
 62
     0
100
AcDbLine
 10
-363.75
 20
-1605.0
 30
0.0
 11
-363.75
 21
-1605.0
 31
0.0
  0
LINE
  5
CF
330
74
100
AcDbEntity
  8
0
 62
     0
100
AcDbLine
 10
-362.5
 20
-1605.0
 30
0.0
 11
-362.5
 21
-1605.0
 31
0.0
  0
LINE
  5
D0
330
74
100
AcDbEntity
  8
0
 62
     0
100
AcDbLine
 10
-361.25
 20
-1605.0
 30
0.0
 11
-361.25
 21
-1605.0
 31
0.0
  0
LINE
  5
D1
330
74
100
AcDbEntity
  8
0
 62
     0
100
AcDbLine
 10
-360.0
 20
-1605.0
 30
0.0
 11
-360.0
 21
-1605.0
 31
0.0
  0
LINE
  5
D2
330
74
100
AcDbEntity
  8
0
 62
     0
100
AcDbLine
 10
-358.75
 20
-1605.0
 30
0.0
 11
-358.75
 21
-1605.0
 31
0.0
  0
LINE
  5
D3
330
74
100
AcDbEntity
  8
0
 62
     0
100
AcDbLine
 10
-357.5
 20
-1605.0
 30
0.0
 11
-357.5
 21
-1605.0
 31
0.0
  0
LINE
  5
D4
330
74
100
AcDbEntity
  8
0
 62
     0
100
AcDbLine
 10
-356.25
 20
-1605.0
 30
0.0
 11
-356.25
 21
-1605.0
 31
0.0
  0
LINE
  5
D5
330
74
100
AcDbEntity
  8
0
 62
     0
100
AcDbLine
 10
-355.0
 20
-1605.0
 30
0.0
 11
-355.0
 21
-1605.0
 31
0.0
  0
LINE
  5
D6
330
74
100
AcDbEntity
  8
0
 62
     0
100
AcDbLine
 10
-353.75
 20
-1605.0
 30
0.0
 11
-353.75
 21
-1605.0
 31
0.0
  0
LINE
  5
D7
330
74
100
AcDbEntity
  8
0
 62
     0
100
AcDbLine
 10
-352.5
 20
-1605.0
 30
0.0
 11
-352.5
 21
-1605.0
 31
0.0
  0
LINE
  5
D8
330
74
100
AcDbEntity
  8
0
 62
     0
100
AcDbLine
 10
-351.25
 20
-1605.0
 30
0.0
 11
-351.25
 21
-1605.0
 31
0.0
  0
LINE
  5
D9
330
74
100
AcDbEntity
  8
0
 62
     0
100
AcDbLine
 10
-350.0
 20
-1605.0
 30
0.0
 11
-350.0
 21
-1605.0
 31
0.0
  0
LINE
  5
DA
330
74
100
AcDbEntity
  8
0
 62
     0
100
AcDbLine
 10
-348.75
 20
-1605.0
 30
0.0
 11
-348.75
 21
-1605.0
 31
0.0
  0
LINE
  5
DB
330
74
100
AcDbEntity
  8
0
 62
     0
100
AcDbLine
 10
-384.375
 20
-1603.75
 30
0.0
 11
-384.375
 21
-1603.75
 31
0.0
  0
LINE
  5
DC
330
74
100
AcDbEntity
  8
0
 62
     0
100
AcDbLine
 10
-383.125
 20
-1603.75
 30
0.0
 11
-383.125
 21
-1603.75
 31
0.0
  0
LINE
  5
DD
330
74
100
AcDbEntity
  8
0
 62
     0
100
AcDbLine
 10
-381.875
 20
-1603.75
 30
0.0
 11
-381.875
 21
-1603.75
 31
0.0
  0
LINE
  5
DE
330
74
100
AcDbEntity
  8
0
 62
     0
100
AcDbLine
 10
-380.625
 20
-1603.75
 30
0.0
 11
-380.625
 21
-1603.75
 31
0.0
  0
LINE
  5
DF
330
74
100
AcDbEntity
  8
0
 62
     0
100
AcDbLine
 10
-379.375
 20
-1603.75
 30
0.0
 11
-379.375
 21
-1603.75
 31
0.0
  0
LINE
  5
E0
330
74
100
AcDbEntity
  8
0
 62
     0
100
AcDbLine
 10
-378.125
 20
-1603.75
 30
0.0
 11
-378.125
 21
-1603.75
 31
0.0
  0
LINE
  5
E1
330
74
100
AcDbEntity
  8
0
 62
     0
100
AcDbLine
 10
-376.875
 20
-1603.75
 30
0.0
 11
-376.875
 21
-1603.75
 31
0.0
  0
LINE
  5
E2
330
74
100
AcDbEntity
  8
0
 62
     0
100
AcDbLine
 10
-375.625
 20
-1603.75
 30
0.0
 11
-375.625
 21
-1603.75
 31
0.0
  0
LINE
  5
E3
330
74
100
AcDbEntity
  8
0
 62
     0
100
AcDbLine
 10
-374.375
 20
-1603.75
 30
0.0
 11
-374.375
 21
-1603.75
 31
0.0
  0
LINE
  5
E4
330
74
100
AcDbEntity
  8
0
 62
     0
100
AcDbLine
 10
-373.125
 20
-1603.75
 30
0.0
 11
-373.125
 21
-1603.75
 31
0.0
  0
LINE
  5
E5
330
74
100
AcDbEntity
  8
0
 62
     0
100
AcDbLine
 10
-371.875
 20
-1603.75
 30
0.0
 11
-371.875
 21
-1603.75
 31
0.0
  0
LINE
  5
E6
330
74
100
AcDbEntity
  8
0
 62
     0
100
AcDbLine
 10
-370.625
 20
-1603.75
 30
0.0
 11
-370.625
 21
-1603.75
 31
0.0
  0
LINE
  5
E7
330
74
100
AcDbEntity
  8
0
 62
     0
100
AcDbLine
 10
-369.375
 20
-1603.75
 30
0.0
 11
-369.375
 21
-1603.75
 31
0.0
  0
LINE
  5
E8
330
74
100
AcDbEntity
  8
0
 62
     0
100
AcDbLine
 10
-368.125
 20
-1603.75
 30
0.0
 11
-368.125
 21
-1603.75
 31
0.0
  0
LINE
  5
E9
330
74
100
AcDbEntity
  8
0
 62
     0
100
AcDbLine
 10
-366.875
 20
-1603.75
 30
0.0
 11
-366.875
 21
-1603.75
 31
0.0
  0
LINE
  5
EA
330
74
100
AcDbEntity
  8
0
 62
     0
100
AcDbLine
 10
-365.625
 20
-1603.75
 30
0.0
 11
-365.625
 21
-1603.75
 31
0.0
  0
LINE
  5
EB
330
74
100
AcDbEntity
  8
0
 62
     0
100
AcDbLine
 10
-364.375
 20
-1603.75
 30
0.0
 11
-364.375
 21
-1603.75
 31
0.0
  0
LINE
  5
EC
330
74
100
AcDbEntity
  8
0
 62
     0
100
AcDbLine
 10
-363.125
 20
-1603.75
 30
0.0
 11
-363.125
 21
-1603.75
 31
0.0
  0
LINE
  5
ED
330
74
100
AcDbEntity
  8
0
 62
     0
100
AcDbLine
 10
-361.875
 20
-1603.75
 30
0.0
 11
-361.875
 21
-1603.75
 31
0.0
  0
LINE
  5
EE
330
74
100
AcDbEntity
  8
0
 62
     0
100
AcDbLine
 10
-360.625
 20
-1603.75
 30
0.0
 11
-360.625
 21
-1603.75
 31
0.0
  0
LINE
  5
EF
330
74
100
AcDbEntity
  8
0
 62
     0
100
AcDbLine
 10
-359.375
 20
-1603.75
 30
0.0
 11
-359.375
 21
-1603.75
 31
0.0
  0
LINE
  5
F0
330
74
100
AcDbEntity
  8
0
 62
     0
100
AcDbLine
 10
-358.125
 20
-1603.75
 30
0.0
 11
-358.125
 21
-1603.75
 31
0.0
  0
LINE
  5
F1
330
74
100
AcDbEntity
  8
0
 62
     0
100
AcDbLine
 10
-356.875
 20
-1603.75
 30
0.0
 11
-356.875
 21
-1603.75
 31
0.0
  0
LINE
  5
F2
330
74
100
AcDbEntity
  8
0
 62
     0
100
AcDbLine
 10
-355.625
 20
-1603.75
 30
0.0
 11
-355.625
 21
-1603.75
 31
0.0
  0
LINE
  5
F3
330
74
100
AcDbEntity
  8
0
 62
     0
100
AcDbLine
 10
-354.375
 20
-1603.75
 30
0.0
 11
-354.375
 21
-1603.75
 31
0.0
  0
LINE
  5
F4
330
74
100
AcDbEntity
  8
0
 62
     0
100
AcDbLine
 10
-353.125
 20
-1603.75
 30
0.0
 11
-353.125
 21
-1603.75
 31
0.0
  0
LINE
  5
F5
330
74
100
AcDbEntity
  8
0
 62
     0
100
AcDbLine
 10
-351.875
 20
-1603.75
 30
0.0
 11
-351.875
 21
-1603.75
 31
0.0
  0
LINE
  5
F6
330
74
100
AcDbEntity
  8
0
 62
     0
100
AcDbLine
 10
-350.625
 20
-1603.75
 30
0.0
 11
-350.625
 21
-1603.75
 31
0.0
  0
LINE
  5
F7
330
74
100
AcDbEntity
  8
0
 62
     0
100
AcDbLine
 10
-349.375
 20
-1603.75
 30
0.0
 11
-349.375
 21
-1603.75
 31
0.0
  0
LINE
  5
F8
330
74
100
AcDbEntity
  8
0
 62
     0
100
AcDbLine
 10
-348.125
 20
-1603.75
 30
0.0
 11
-348.125
 21
-1603.75
 31
0.0
  0
LINE
  5
F9
330
74
100
AcDbEntity
  8
0
 62
     0
100
AcDbLine
 10
-385.0
 20
-1602.5
 30
0.0
 11
-385.0
 21
-1602.5
 31
0.0
  0
LINE
  5
FA
330
74
100
AcDbEntity
  8
0
 62
     0
100
AcDbLine
 10
-383.75
 20
-1602.5
 30
0.0
 11
-383.75
 21
-1602.5
 31
0.0
  0
LINE
  5
FB
330
74
100
AcDbEntity
  8
0
 62
     0
100
AcDbLine
 10
-382.5
 20
-1602.5
 30
0.0
 11
-382.5
 21
-1602.5
 31
0.0
  0
LINE
  5
FC
330
74
100
AcDbEntity
  8
0
 62
     0
100
AcDbLine
 10
-381.25
 20
-1602.5
 30
0.0
 11
-381.25
 21
-1602.5
 31
0.0
  0
LINE
  5
FD
330
74
100
AcDbEntity
  8
0
 62
     0
100
AcDbLine
 10
-380.0
 20
-1602.5
 30
0.0
 11
-380.0
 21
-1602.5
 31
0.0
  0
LINE
  5
FE
330
74
100
AcDbEntity
  8
0
 62
     0
100
AcDbLine
 10
-378.75
 20
-1602.5
 30
0.0
 11
-378.75
 21
-1602.5
 31
0.0
  0
LINE
  5
FF
330
74
100
AcDbEntity
  8
0
 62
     0
100
AcDbLine
 10
-377.5
 20
-1602.5
 30
0.0
 11
-377.5
 21
-1602.5
 31
0.0
  0
LINE
  5
100
330
74
100
AcDbEntity
  8
0
 62
     0
100
AcDbLine
 10
-376.25
 20
-1602.5
 30
0.0
 11
-376.25
 21
-1602.5
 31
0.0
  0
LINE
  5
101
330
74
100
AcDbEntity
  8
0
 62
     0
100
AcDbLine
 10
-375.0
 20
-1602.5
 30
0.0
 11
-375.0
 21
-1602.5
 31
0.0
  0
LINE
  5
102
330
74
100
AcDbEntity
  8
0
 62
     0
100
AcDbLine
 10
-373.75
 20
-1602.5
 30
0.0
 11
-373.75
 21
-1602.5
 31
0.0
  0
LINE
  5
103
330
74
100
AcDbEntity
  8
0
 62
     0
100
AcDbLine
 10
-372.5
 20
-1602.5
 30
0.0
 11
-372.5
 21
-1602.5
 31
0.0
  0
LINE
  5
104
330
74
100
AcDbEntity
  8
0
 62
     0
100
AcDbLine
 10
-371.25
 20
-1602.5
 30
0.0
 11
-371.25
 21
-1602.5
 31
0.0
  0
LINE
  5
105
330
74
100
AcDbEntity
  8
0
 62
     0
100
AcDbLine
 10
-370.0
 20
-1602.5
 30
0.0
 11
-370.0
 21
-1602.5
 31
0.0
  0
LINE
  5
106
330
74
100
AcDbEntity
  8
0
 62
     0
100
AcDbLine
 10
-368.75
 20
-1602.5
 30
0.0
 11
-368.75
 21
-1602.5
 31
0.0
  0
LINE
  5
107
330
74
100
AcDbEntity
  8
0
 62
     0
100
AcDbLine
 10
-367.5
 20
-1602.5
 30
0.0
 11
-367.5
 21
-1602.5
 31
0.0
  0
LINE
  5
108
330
74
100
AcDbEntity
  8
0
 62
     0
100
AcDbLine
 10
-366.25
 20
-1602.5
 30
0.0
 11
-366.25
 21
-1602.5
 31
0.0
  0
LINE
  5
109
330
74
100
AcDbEntity
  8
0
 62
     0
100
AcDbLine
 10
-365.0
 20
-1602.5
 30
0.0
 11
-365.0
 21
-1602.5
 31
0.0
  0
LINE
  5
10A
330
74
100
AcDbEntity
  8
0
 62
     0
100
AcDbLine
 10
-363.75
 20
-1602.5
 30
0.0
 11
-363.75
 21
-1602.5
 31
0.0
  0
LINE
  5
10B
330
74
100
AcDbEntity
  8
0
 62
     0
100
AcDbLine
 10
-362.5
 20
-1602.5
 30
0.0
 11
-362.5
 21
-1602.5
 31
0.0
  0
LINE
  5
10C
330
74
100
AcDbEntity
  8
0
 62
     0
100
AcDbLine
 10
-361.25
 20
-1602.5
 30
0.0
 11
-361.25
 21
-1602.5
 31
0.0
  0
LINE
  5
10D
330
74
100
AcDbEntity
  8
0
 62
     0
100
AcDbLine
 10
-360.0
 20
-1602.5
 30
0.0
 11
-360.0
 21
-1602.5
 31
0.0
  0
LINE
  5
10E
330
74
100
AcDbEntity
  8
0
 62
     0
100
AcDbLine
 10
-358.75
 20
-1602.5
 30
0.0
 11
-358.75
 21
-1602.5
 31
0.0
  0
LINE
  5
10F
330
74
100
AcDbEntity
  8
0
 62
     0
100
AcDbLine
 10
-357.5
 20
-1602.5
 30
0.0
 11
-357.5
 21
-1602.5
 31
0.0
  0
LINE
  5
110
330
74
100
AcDbEntity
  8
0
 62
     0
100
AcDbLine
 10
-356.25
 20
-1602.5
 30
0.0
 11
-356.25
 21
-1602.5
 31
0.0
  0
LINE
  5
111
330
74
100
AcDbEntity
  8
0
 62
     0
100
AcDbLine
 10
-355.0
 20
-1602.5
 30
0.0
 11
-355.0
 21
-1602.5
 31
0.0
  0
LINE
  5
112
330
74
100
AcDbEntity
  8
0
 62
     0
100
AcDbLine
 10
-353.75
 20
-1602.5
 30
0.0
 11
-353.75
 21
-1602.5
 31
0.0
  0
LINE
  5
113
330
74
100
AcDbEntity
  8
0
 62
     0
100
AcDbLine
 10
-352.5
 20
-1602.5
 30
0.0
 11
-352.5
 21
-1602.5
 31
0.0
  0
LINE
  5
114
330
74
100
AcDbEntity
  8
0
 62
     0
100
AcDbLine
 10
-351.25
 20
-1602.5
 30
0.0
 11
-351.25
 21
-1602.5
 31
0.0
  0
LINE
  5
115
330
74
100
AcDbEntity
  8
0
 62
     0
100
AcDbLine
 10
-350.0
 20
-1602.5
 30
0.0
 11
-350.0
 21
-1602.5
 31
0.0
  0
LINE
  5
116
330
74
100
AcDbEntity
  8
0
 62
     0
100
AcDbLine
 10
-348.75
 20
-1602.5
 30
0.0
 11
-348.75
 21
-1602.5
 31
0.0
  0
LINE
  5
117
330
74
100
AcDbEntity
  8
0
 62
     0
100
AcDbLine
 10
-384.375
 20
-1601.25
 30
0.0
 11
-384.375
 21
-1601.25
 31
0.0
  0
LINE
  5
118
330
74
100
AcDbEntity
  8
0
 62
     0
100
AcDbLine
 10
-383.125
 20
-1601.25
 30
0.0
 11
-383.125
 21
-1601.25
 31
0.0
  0
LINE
  5
119
330
74
100
AcDbEntity
  8
0
 62
     0
100
AcDbLine
 10
-381.875
 20
-1601.25
 30
0.0
 11
-381.875
 21
-1601.25
 31
0.0
  0
LINE
  5
11A
330
74
100
AcDbEntity
  8
0
 62
     0
100
AcDbLine
 10
-380.625
 20
-1601.25
 30
0.0
 11
-380.625
 21
-1601.25
 31
0.0
  0
LINE
  5
11B
330
74
100
AcDbEntity
  8
0
 62
     0
100
AcDbLine
 10
-379.375
 20
-1601.25
 30
0.0
 11
-379.375
 21
-1601.25
 31
0.0
  0
LINE
  5
11C
330
74
100
AcDbEntity
  8
0
 62
     0
100
AcDbLine
 10
-378.125
 20
-1601.25
 30
0.0
 11
-378.125
 21
-1601.25
 31
0.0
  0
LINE
  5
11D
330
74
100
AcDbEntity
  8
0
 62
     0
100
AcDbLine
 10
-376.875
 20
-1601.25
 30
0.0
 11
-376.875
 21
-1601.25
 31
0.0
  0
LINE
  5
11E
330
74
100
AcDbEntity
  8
0
 62
     0
100
AcDbLine
 10
-375.625
 20
-1601.25
 30
0.0
 11
-375.625
 21
-1601.25
 31
0.0
  0
LINE
  5
11F
330
74
100
AcDbEntity
  8
0
 62
     0
100
AcDbLine
 10
-374.375
 20
-1601.25
 30
0.0
 11
-374.375
 21
-1601.25
 31
0.0
  0
LINE
  5
120
330
74
100
AcDbEntity
  8
0
 62
     0
100
AcDbLine
 10
-373.125
 20
-1601.25
 30
0.0
 11
-373.125
 21
-1601.25
 31
0.0
  0
LINE
  5
121
330
74
100
AcDbEntity
  8
0
 62
     0
100
AcDbLine
 10
-371.875
 20
-1601.25
 30
0.0
 11
-371.875
 21
-1601.25
 31
0.0
  0
LINE
  5
122
330
74
100
AcDbEntity
  8
0
 62
     0
100
AcDbLine
 10
-370.625
 20
-1601.25
 30
0.0
 11
-370.625
 21
-1601.25
 31
0.0
  0
LINE
  5
123
330
74
100
AcDbEntity
  8
0
 62
     0
100
AcDbLine
 10
-369.375
 20
-1601.25
 30
0.0
 11
-369.375
 21
-1601.25
 31
0.0
  0
LINE
  5
124
330
74
100
AcDbEntity
  8
0
 62
     0
100
AcDbLine
 10
-368.125
 20
-1601.25
 30
0.0
 11
-368.125
 21
-1601.25
 31
0.0
  0
LINE
  5
125
330
74
100
AcDbEntity
  8
0
 62
     0
100
AcDbLine
 10
-366.875
 20
-1601.25
 30
0.0
 11
-366.875
 21
-1601.25
 31
0.0
  0
LINE
  5
126
330
74
100
AcDbEntity
  8
0
 62
     0
100
AcDbLine
 10
-365.625
 20
-1601.25
 30
0.0
 11
-365.625
 21
-1601.25
 31
0.0
  0
LINE
  5
127
330
74
100
AcDbEntity
  8
0
 62
     0
100
AcDbLine
 10
-364.375
 20
-1601.25
 30
0.0
 11
-364.375
 21
-1601.25
 31
0.0
  0
LINE
  5
128
330
74
100
AcDbEntity
  8
0
 62
     0
100
AcDbLine
 10
-363.125
 20
-1601.25
 30
0.0
 11
-363.125
 21
-1601.25
 31
0.0
  0
LINE
  5
129
330
74
100
AcDbEntity
  8
0
 62
     0
100
AcDbLine
 10
-361.875
 20
-1601.25
 30
0.0
 11
-361.875
 21
-1601.25
 31
0.0
  0
LINE
  5
12A
330
74
100
AcDbEntity
  8
0
 62
     0
100
AcDbLine
 10
-360.625
 20
-1601.25
 30
0.0
 11
-360.625
 21
-1601.25
 31
0.0
  0
LINE
  5
12B
330
74
100
AcDbEntity
  8
0
 62
     0
100
AcDbLine
 10
-359.375
 20
-1601.25
 30
0.0
 11
-359.375
 21
-1601.25
 31
0.0
  0
LINE
  5
12C
330
74
100
AcDbEntity
  8
0
 62
     0
100
AcDbLine
 10
-358.125
 20
-1601.25
 30
0.0
 11
-358.125
 21
-1601.25
 31
0.0
  0
LINE
  5
12D
330
74
100
AcDbEntity
  8
0
 62
     0
100
AcDbLine
 10
-356.875
 20
-1601.25
 30
0.0
 11
-356.875
 21
-1601.25
 31
0.0
  0
LINE
  5
12E
330
74
100
AcDbEntity
  8
0
 62
     0
100
AcDbLine
 10
-355.625
 20
-1601.25
 30
0.0
 11
-355.625
 21
-1601.25
 31
0.0
  0
LINE
  5
12F
330
74
100
AcDbEntity
  8
0
 62
     0
100
AcDbLine
 10
-354.375
 20
-1601.25
 30
0.0
 11
-354.375
 21
-1601.25
 31
0.0
  0
LINE
  5
130
330
74
100
AcDbEntity
  8
0
 62
     0
100
AcDbLine
 10
-353.125
 20
-1601.25
 30
0.0
 11
-353.125
 21
-1601.25
 31
0.0
  0
LINE
  5
131
330
74
100
AcDbEntity
  8
0
 62
     0
100
AcDbLine
 10
-351.875
 20
-1601.25
 30
0.0
 11
-351.875
 21
-1601.25
 31
0.0
  0
LINE
  5
132
330
74
100
AcDbEntity
  8
0
 62
     0
100
AcDbLine
 10
-350.625
 20
-1601.25
 30
0.0
 11
-350.625
 21
-1601.25
 31
0.0
  0
LINE
  5
133
330
74
100
AcDbEntity
  8
0
 62
     0
100
AcDbLine
 10
-349.375
 20
-1601.25
 30
0.0
 11
-349.375
 21
-1601.25
 31
0.0
  0
LINE
  5
134
330
74
100
AcDbEntity
  8
0
 62
     0
100
AcDbLine
 10
-348.125
 20
-1601.25
 30
0.0
 11
-348.125
 21
-1601.25
 31
0.0
  0
LINE
  5
135
330
74
100
AcDbEntity
  8
0
 62
     0
100
AcDbLine
 10
-381.25
 20
-1607.5
 30
0.0
 11
-381.25
 21
-1607.5
 31
0.0
  0
LINE
  5
136
330
74
100
AcDbEntity
  8
0
 62
     0
100
AcDbLine
 10
-380.0
 20
-1607.5
 30
0.0
 11
-380.0
 21
-1607.5
 31
0.0
  0
LINE
  5
137
330
74
100
AcDbEntity
  8
0
 62
     0
100
AcDbLine
 10
-378.75
 20
-1607.5
 30
0.0
 11
-378.75
 21
-1607.5
 31
0.0
  0
LINE
  5
138
330
74
100
AcDbEntity
  8
0
 62
     0
100
AcDbLine
 10
-377.5
 20
-1607.5
 30
0.0
 11
-377.5
 21
-1607.5
 31
0.0
  0
LINE
  5
139
330
74
100
AcDbEntity
  8
0
 62
     0
100
AcDbLine
 10
-376.25
 20
-1607.5
 30
0.0
 11
-376.25
 21
-1607.5
 31
0.0
  0
LINE
  5
13A
330
74
100
AcDbEntity
  8
0
 62
     0
100
AcDbLine
 10
-375.0
 20
-1607.5
 30
0.0
 11
-375.0
 21
-1607.5
 31
0.0
  0
LINE
  5
13B
330
74
100
AcDbEntity
  8
0
 62
     0
100
AcDbLine
 10
-373.75
 20
-1607.5
 30
0.0
 11
-373.75
 21
-1607.5
 31
0.0
  0
LINE
  5
13C
330
74
100
AcDbEntity
  8
0
 62
     0
100
AcDbLine
 10
-372.5
 20
-1607.5
 30
0.0
 11
-372.5
 21
-1607.5
 31
0.0
  0
LINE
  5
13D
330
74
100
AcDbEntity
  8
0
 62
     0
100
AcDbLine
 10
-371.25
 20
-1607.5
 30
0.0
 11
-371.25
 21
-1607.5
 31
0.0
  0
LINE
  5
13E
330
74
100
AcDbEntity
  8
0
 62
     0
100
AcDbLine
 10
-370.0
 20
-1607.5
 30
0.0
 11
-370.0
 21
-1607.5
 31
0.0
  0
LINE
  5
13F
330
74
100
AcDbEntity
  8
0
 62
     0
100
AcDbLine
 10
-368.75
 20
-1607.5
 30
0.0
 11
-368.75
 21
-1607.5
 31
0.0
  0
LINE
  5
140
330
74
100
AcDbEntity
  8
0
 62
     0
100
AcDbLine
 10
-367.5
 20
-1607.5
 30
0.0
 11
-367.5
 21
-1607.5
 31
0.0
  0
LINE
  5
141
330
74
100
AcDbEntity
  8
0
 62
     0
100
AcDbLine
 10
-366.25
 20
-1607.5
 30
0.0
 11
-366.25
 21
-1607.5
 31
0.0
  0
LINE
  5
142
330
74
100
AcDbEntity
  8
0
 62
     0
100
AcDbLine
 10
-365.0
 20
-1607.5
 30
0.0
 11
-365.0
 21
-1607.5
 31
0.0
  0
LINE
  5
143
330
74
100
AcDbEntity
  8
0
 62
     0
100
AcDbLine
 10
-363.75
 20
-1607.5
 30
0.0
 11
-363.75
 21
-1607.5
 31
0.0
  0
LINE
  5
144
330
74
100
AcDbEntity
  8
0
 62
     0
100
AcDbLine
 10
-362.5
 20
-1607.5
 30
0.0
 11
-362.5
 21
-1607.5
 31
0.0
  0
LINE
  5
145
330
74
100
AcDbEntity
  8
0
 62
     0
100
AcDbLine
 10
-361.25
 20
-1607.5
 30
0.0
 11
-361.25
 21
-1607.5
 31
0.0
  0
LINE
  5
146
330
74
100
AcDbEntity
  8
0
 62
     0
100
AcDbLine
 10
-360.0
 20
-1607.5
 30
0.0
 11
-360.0
 21
-1607.5
 31
0.0
  0
LINE
  5
147
330
74
100
AcDbEntity
  8
0
 62
     0
100
AcDbLine
 10
-358.75
 20
-1607.5
 30
0.0
 11
-358.75
 21
-1607.5
 31
0.0
  0
LINE
  5
148
330
74
100
AcDbEntity
  8
0
 62
     0
100
AcDbLine
 10
-357.5
 20
-1607.5
 30
0.0
 11
-357.5
 21
-1607.5
 31
0.0
  0
LINE
  5
149
330
74
100
AcDbEntity
  8
0
 62
     0
100
AcDbLine
 10
-356.25
 20
-1607.5
 30
0.0
 11
-356.25
 21
-1607.5
 31
0.0
  0
LINE
  5
14A
330
74
100
AcDbEntity
  8
0
 62
     0
100
AcDbLine
 10
-355.0
 20
-1607.5
 30
0.0
 11
-355.0
 21
-1607.5
 31
0.0
  0
LINE
  5
14B
330
74
100
AcDbEntity
  8
0
 62
     0
100
AcDbLine
 10
-353.75
 20
-1607.5
 30
0.0
 11
-353.75
 21
-1607.5
 31
0.0
  0
LINE
  5
14C
330
74
100
AcDbEntity
  8
0
 62
     0
100
AcDbLine
 10
-352.5
 20
-1607.5
 30
0.0
 11
-352.5
 21
-1607.5
 31
0.0
  0
LINE
  5
14D
330
74
100
AcDbEntity
  8
0
 62
     0
100
AcDbLine
 10
-351.25
 20
-1607.5
 30
0.0
 11
-351.25
 21
-1607.5
 31
0.0
  0
LINE
  5
14E
330
74
100
AcDbEntity
  8
0
 62
     0
100
AcDbLine
 10
-350.0
 20
-1607.5
 30
0.0
 11
-350.0
 21
-1607.5
 31
0.0
  0
LINE
  5
14F
330
74
100
AcDbEntity
  8
0
 62
     0
100
AcDbLine
 10
-348.75
 20
-1607.5
 30
0.0
 11
-348.75
 21
-1607.5
 31
0.0
  0
LINE
  5
150
330
74
100
AcDbEntity
  8
0
 62
     0
100
AcDbLine
 10
-379.375
 20
-1608.75
 30
0.0
 11
-379.375
 21
-1608.75
 31
0.0
  0
LINE
  5
151
330
74
100
AcDbEntity
  8
0
 62
     0
100
AcDbLine
 10
-378.125
 20
-1608.75
 30
0.0
 11
-378.125
 21
-1608.75
 31
0.0
  0
LINE
  5
152
330
74
100
AcDbEntity
  8
0
 62
     0
100
AcDbLine
 10
-376.875
 20
-1608.75
 30
0.0
 11
-376.875
 21
-1608.75
 31
0.0
  0
LINE
  5
153
330
74
100
AcDbEntity
  8
0
 62
     0
100
AcDbLine
 10
-375.625
 20
-1608.75
 30
0.0
 11
-375.625
 21
-1608.75
 31
0.0
  0
LINE
  5
154
330
74
100
AcDbEntity
  8
0
 62
     0
100
AcDbLine
 10
-374.375
 20
-1608.75
 30
0.0
 11
-374.375
 21
-1608.75
 31
0.0
  0
LINE
  5
155
330
74
100
AcDbEntity
  8
0
 62
     0
100
AcDbLine
 10
-373.125
 20
-1608.75
 30
0.0
 11
-373.125
 21
-1608.75
 31
0.0
  0
LINE
  5
156
330
74
100
AcDbEntity
  8
0
 62
     0
100
AcDbLine
 10
-371.875
 20
-1608.75
 30
0.0
 11
-371.875
 21
-1608.75
 31
0.0
  0
LINE
  5
157
330
74
100
AcDbEntity
  8
0
 62
     0
100
AcDbLine
 10
-370.625
 20
-1608.75
 30
0.0
 11
-370.625
 21
-1608.75
 31
0.0
  0
LINE
  5
158
330
74
100
AcDbEntity
  8
0
 62
     0
100
AcDbLine
 10
-369.375
 20
-1608.75
 30
0.0
 11
-369.375
 21
-1608.75
 31
0.0
  0
LINE
  5
159
330
74
100
AcDbEntity
  8
0
 62
     0
100
AcDbLine
 10
-368.125
 20
-1608.75
 30
0.0
 11
-368.125
 21
-1608.75
 31
0.0
  0
LINE
  5
15A
330
74
100
AcDbEntity
  8
0
 62
     0
100
AcDbLine
 10
-366.875
 20
-1608.75
 30
0.0
 11
-366.875
 21
-1608.75
 31
0.0
  0
LINE
  5
15B
330
74
100
AcDbEntity
  8
0
 62
     0
100
AcDbLine
 10
-365.625
 20
-1608.75
 30
0.0
 11
-365.625
 21
-1608.75
 31
0.0
  0
LINE
  5
15C
330
74
100
AcDbEntity
  8
0
 62
     0
100
AcDbLine
 10
-364.375
 20
-1608.75
 30
0.0
 11
-364.375
 21
-1608.75
 31
0.0
  0
LINE
  5
15D
330
74
100
AcDbEntity
  8
0
 62
     0
100
AcDbLine
 10
-363.125
 20
-1608.75
 30
0.0
 11
-363.125
 21
-1608.75
 31
0.0
  0
LINE
  5
15E
330
74
100
AcDbEntity
  8
0
 62
     0
100
AcDbLine
 10
-361.875
 20
-1608.75
 30
0.0
 11
-361.875
 21
-1608.75
 31
0.0
  0
LINE
  5
15F
330
74
100
AcDbEntity
  8
0
 62
     0
100
AcDbLine
 10
-360.625
 20
-1608.75
 30
0.0
 11
-360.625
 21
-1608.75
 31
0.0
  0
LINE
  5
160
330
74
100
AcDbEntity
  8
0
 62
     0
100
AcDbLine
 10
-359.375
 20
-1608.75
 30
0.0
 11
-359.375
 21
-1608.75
 31
0.0
  0
LINE
  5
161
330
74
100
AcDbEntity
  8
0
 62
     0
100
AcDbLine
 10
-358.125
 20
-1608.75
 30
0.0
 11
-358.125
 21
-1608.75
 31
0.0
  0
LINE
  5
162
330
74
100
AcDbEntity
  8
0
 62
     0
100
AcDbLine
 10
-356.875
 20
-1608.75
 30
0.0
 11
-356.875
 21
-1608.75
 31
0.0
  0
LINE
  5
163
330
74
100
AcDbEntity
  8
0
 62
     0
100
AcDbLine
 10
-355.625
 20
-1608.75
 30
0.0
 11
-355.625
 21
-1608.75
 31
0.0
  0
LINE
  5
164
330
74
100
AcDbEntity
  8
0
 62
     0
100
AcDbLine
 10
-354.375
 20
-1608.75
 30
0.0
 11
-354.375
 21
-1608.75
 31
0.0
  0
LINE
  5
165
330
74
100
AcDbEntity
  8
0
 62
     0
100
AcDbLine
 10
-353.125
 20
-1608.75
 30
0.0
 11
-353.125
 21
-1608.75
 31
0.0
  0
LINE
  5
166
330
74
100
AcDbEntity
  8
0
 62
     0
100
AcDbLine
 10
-351.875
 20
-1608.75
 30
0.0
 11
-351.875
 21
-1608.75
 31
0.0
  0
LINE
  5
167
330
74
100
AcDbEntity
  8
0
 62
     0
100
AcDbLine
 10
-350.625
 20
-1608.75
 30
0.0
 11
-350.625
 21
-1608.75
 31
0.0
  0
LINE
  5
168
330
74
100
AcDbEntity
  8
0
 62
     0
100
AcDbLine
 10
-349.375
 20
-1608.75
 30
0.0
 11
-349.375
 21
-1608.75
 31
0.0
  0
LINE
  5
169
330
74
100
AcDbEntity
  8
0
 62
     0
100
AcDbLine
 10
-348.125
 20
-1608.75
 30
0.0
 11
-348.125
 21
-1608.75
 31
0.0
  0
LINE
  5
16A
330
74
100
AcDbEntity
  8
0
 62
     0
100
AcDbLine
 10
-378.75
 20
-1610.0
 30
0.0
 11
-378.75
 21
-1610.0
 31
0.0
  0
LINE
  5
16B
330
74
100
AcDbEntity
  8
0
 62
     0
100
AcDbLine
 10
-377.5
 20
-1610.0
 30
0.0
 11
-377.5
 21
-1610.0
 31
0.0
  0
LINE
  5
16C
330
74
100
AcDbEntity
  8
0
 62
     0
100
AcDbLine
 10
-376.25
 20
-1610.0
 30
0.0
 11
-376.25
 21
-1610.0
 31
0.0
  0
LINE
  5
16D
330
74
100
AcDbEntity
  8
0
 62
     0
100
AcDbLine
 10
-375.0
 20
-1610.0
 30
0.0
 11
-375.0
 21
-1610.0
 31
0.0
  0
LINE
  5
16E
330
74
100
AcDbEntity
  8
0
 62
     0
100
AcDbLine
 10
-373.75
 20
-1610.0
 30
0.0
 11
-373.75
 21
-1610.0
 31
0.0
  0
LINE
  5
16F
330
74
100
AcDbEntity
  8
0
 62
     0
100
AcDbLine
 10
-372.5
 20
-1610.0
 30
0.0
 11
-372.5
 21
-1610.0
 31
0.0
  0
LINE
  5
170
330
74
100
AcDbEntity
  8
0
 62
     0
100
AcDbLine
 10
-371.25
 20
-1610.0
 30
0.0
 11
-371.25
 21
-1610.0
 31
0.0
  0
LINE
  5
171
330
74
100
AcDbEntity
  8
0
 62
     0
100
AcDbLine
 10
-370.0
 20
-1610.0
 30
0.0
 11
-370.0
 21
-1610.0
 31
0.0
  0
LINE
  5
172
330
74
100
AcDbEntity
  8
0
 62
     0
100
AcDbLine
 10
-368.75
 20
-1610.0
 30
0.0
 11
-368.75
 21
-1610.0
 31
0.0
  0
LINE
  5
173
330
74
100
AcDbEntity
  8
0
 62
     0
100
AcDbLine
 10
-367.5
 20
-1610.0
 30
0.0
 11
-367.5
 21
-1610.0
 31
0.0
  0
LINE
  5
174
330
74
100
AcDbEntity
  8
0
 62
     0
100
AcDbLine
 10
-366.25
 20
-1610.0
 30
0.0
 11
-366.25
 21
-1610.0
 31
0.0
  0
LINE
  5
175
330
74
100
AcDbEntity
  8
0
 62
     0
100
AcDbLine
 10
-365.0
 20
-1610.0
 30
0.0
 11
-365.0
 21
-1610.0
 31
0.0
  0
LINE
  5
176
330
74
100
AcDbEntity
  8
0
 62
     0
100
AcDbLine
 10
-363.75
 20
-1610.0
 30
0.0
 11
-363.75
 21
-1610.0
 31
0.0
  0
LINE
  5
177
330
74
100
AcDbEntity
  8
0
 62
     0
100
AcDbLine
 10
-362.5
 20
-1610.0
 30
0.0
 11
-362.5
 21
-1610.0
 31
0.0
  0
LINE
  5
178
330
74
100
AcDbEntity
  8
0
 62
     0
100
AcDbLine
 10
-361.25
 20
-1610.0
 30
0.0
 11
-361.25
 21
-1610.0
 31
0.0
  0
LINE
  5
179
330
74
100
AcDbEntity
  8
0
 62
     0
100
AcDbLine
 10
-360.0
 20
-1610.0
 30
0.0
 11
-360.0
 21
-1610.0
 31
0.0
  0
LINE
  5
17A
330
74
100
AcDbEntity
  8
0
 62
     0
100
AcDbLine
 10
-358.75
 20
-1610.0
 30
0.0
 11
-358.75
 21
-1610.0
 31
0.0
  0
LINE
  5
17B
330
74
100
AcDbEntity
  8
0
 62
     0
100
AcDbLine
 10
-357.5
 20
-1610.0
 30
0.0
 11
-357.5
 21
-1610.0
 31
0.0
  0
LINE
  5
17C
330
74
100
AcDbEntity
  8
0
 62
     0
100
AcDbLine
 10
-356.25
 20
-1610.0
 30
0.0
 11
-356.25
 21
-1610.0
 31
0.0
  0
LINE
  5
17D
330
74
100
AcDbEntity
  8
0
 62
     0
100
AcDbLine
 10
-355.0
 20
-1610.0
 30
0.0
 11
-355.0
 21
-1610.0
 31
0.0
  0
LINE
  5
17E
330
74
100
AcDbEntity
  8
0
 62
     0
100
AcDbLine
 10
-353.75
 20
-1610.0
 30
0.0
 11
-353.75
 21
-1610.0
 31
0.0
  0
LINE
  5
17F
330
74
100
AcDbEntity
  8
0
 62
     0
100
AcDbLine
 10
-352.5
 20
-1610.0
 30
0.0
 11
-352.5
 21
-1610.0
 31
0.0
  0
LINE
  5
180
330
74
100
AcDbEntity
  8
0
 62
     0
100
AcDbLine
 10
-351.25
 20
-1610.0
 30
0.0
 11
-351.25
 21
-1610.0
 31
0.0
  0
LINE
  5
181
330
74
100
AcDbEntity
  8
0
 62
     0
100
AcDbLine
 10
-350.0
 20
-1610.0
 30
0.0
 11
-350.0
 21
-1610.0
 31
0.0
  0
LINE
  5
182
330
74
100
AcDbEntity
  8
0
 62
     0
100
AcDbLine
 10
-376.875
 20
-1611.25
 30
0.0
 11
-376.875
 21
-1611.25
 31
0.0
  0
LINE
  5
183
330
74
100
AcDbEntity
  8
0
 62
     0
100
AcDbLine
 10
-375.625
 20
-1611.25
 30
0.0
 11
-375.625
 21
-1611.25
 31
0.0
  0
LINE
  5
184
330
74
100
AcDbEntity
  8
0
 62
     0
100
AcDbLine
 10
-374.375
 20
-1611.25
 30
0.0
 11
-374.375
 21
-1611.25
 31
0.0
  0
LINE
  5
185
330
74
100
AcDbEntity
  8
0
 62
     0
100
AcDbLine
 10
-373.125
 20
-1611.25
 30
0.0
 11
-373.125
 21
-1611.25
 31
0.0
  0
LINE
  5
186
330
74
100
AcDbEntity
  8
0
 62
     0
100
AcDbLine
 10
-371.875
 20
-1611.25
 30
0.0
 11
-371.875
 21
-1611.25
 31
0.0
  0
LINE
  5
187
330
74
100
AcDbEntity
  8
0
 62
     0
100
AcDbLine
 10
-370.625
 20
-1611.25
 30
0.0
 11
-370.625
 21
-1611.25
 31
0.0
  0
LINE
  5
188
330
74
100
AcDbEntity
  8
0
 62
     0
100
AcDbLine
 10
-369.375
 20
-1611.25
 30
0.0
 11
-369.375
 21
-1611.25
 31
0.0
  0
LINE
  5
189
330
74
100
AcDbEntity
  8
0
 62
     0
100
AcDbLine
 10
-368.125
 20
-1611.25
 30
0.0
 11
-368.125
 21
-1611.25
 31
0.0
  0
LINE
  5
18A
330
74
100
AcDbEntity
  8
0
 62
     0
100
AcDbLine
 10
-366.875
 20
-1611.25
 30
0.0
 11
-366.875
 21
-1611.25
 31
0.0
  0
LINE
  5
18B
330
74
100
AcDbEntity
  8
0
 62
     0
100
AcDbLine
 10
-365.625
 20
-1611.25
 30
0.0
 11
-365.625
 21
-1611.25
 31
0.0
  0
LINE
  5
18C
330
74
100
AcDbEntity
  8
0
 62
     0
100
AcDbLine
 10
-364.375
 20
-1611.25
 30
0.0
 11
-364.375
 21
-1611.25
 31
0.0
  0
LINE
  5
18D
330
74
100
AcDbEntity
  8
0
 62
     0
100
AcDbLine
 10
-363.125
 20
-1611.25
 30
0.0
 11
-363.125
 21
-1611.25
 31
0.0
  0
LINE
  5
18E
330
74
100
AcDbEntity
  8
0
 62
     0
100
AcDbLine
 10
-361.875
 20
-1611.25
 30
0.0
 11
-361.875
 21
-1611.25
 31
0.0
  0
LINE
  5
18F
330
74
100
AcDbEntity
  8
0
 62
     0
100
AcDbLine
 10
-360.625
 20
-1611.25
 30
0.0
 11
-360.625
 21
-1611.25
 31
0.0
  0
LINE
  5
190
330
74
100
AcDbEntity
  8
0
 62
     0
100
AcDbLine
 10
-359.375
 20
-1611.25
 30
0.0
 11
-359.375
 21
-1611.25
 31
0.0
  0
LINE
  5
191
330
74
100
AcDbEntity
  8
0
 62
     0
100
AcDbLine
 10
-358.125
 20
-1611.25
 30
0.0
 11
-358.125
 21
-1611.25
 31
0.0
  0
LINE
  5
192
330
74
100
AcDbEntity
  8
0
 62
     0
100
AcDbLine
 10
-356.875
 20
-1611.25
 30
0.0
 11
-356.875
 21
-1611.25
 31
0.0
  0
LINE
  5
193
330
74
100
AcDbEntity
  8
0
 62
     0
100
AcDbLine
 10
-355.625
 20
-1611.25
 30
0.0
 11
-355.625
 21
-1611.25
 31
0.0
  0
LINE
  5
194
330
74
100
AcDbEntity
  8
0
 62
     0
100
AcDbLine
 10
-354.375
 20
-1611.25
 30
0.0
 11
-354.375
 21
-1611.25
 31
0.0
  0
LINE
  5
195
330
74
100
AcDbEntity
  8
0
 62
     0
100
AcDbLine
 10
-353.125
 20
-1611.25
 30
0.0
 11
-353.125
 21
-1611.25
 31
0.0
  0
LINE
  5
196
330
74
100
AcDbEntity
  8
0
 62
     0
100
AcDbLine
 10
-373.75
 20
-1612.5
 30
0.0
 11
-373.75
 21
-1612.5
 31
0.0
  0
LINE
  5
197
330
74
100
AcDbEntity
  8
0
 62
     0
100
AcDbLine
 10
-372.5
 20
-1612.5
 30
0.0
 11
-372.5
 21
-1612.5
 31
0.0
  0
LINE
  5
198
330
74
100
AcDbEntity
  8
0
 62
     0
100
AcDbLine
 10
-371.25
 20
-1612.5
 30
0.0
 11
-371.25
 21
-1612.5
 31
0.0
  0
LINE
  5
199
330
74
100
AcDbEntity
  8
0
 62
     0
100
AcDbLine
 10
-370.0
 20
-1612.5
 30
0.0
 11
-370.0
 21
-1612.5
 31
0.0
  0
LINE
  5
19A
330
74
100
AcDbEntity
  8
0
 62
     0
100
AcDbLine
 10
-368.75
 20
-1612.5
 30
0.0
 11
-368.75
 21
-1612.5
 31
0.0
  0
LINE
  5
19B
330
74
100
AcDbEntity
  8
0
 62
     0
100
AcDbLine
 10
-367.5
 20
-1612.5
 30
0.0
 11
-367.5
 21
-1612.5
 31
0.0
  0
LINE
  5
19C
330
74
100
AcDbEntity
  8
0
 62
     0
100
AcDbLine
 10
-366.25
 20
-1612.5
 30
0.0
 11
-366.25
 21
-1612.5
 31
0.0
  0
LINE
  5
19D
330
74
100
AcDbEntity
  8
0
 62
     0
100
AcDbLine
 10
-365.0
 20
-1612.5
 30
0.0
 11
-365.0
 21
-1612.5
 31
0.0
  0
LINE
  5
19E
330
74
100
AcDbEntity
  8
0
 62
     0
100
AcDbLine
 10
-363.75
 20
-1612.5
 30
0.0
 11
-363.75
 21
-1612.5
 31
0.0
  0
LINE
  5
19F
330
74
100
AcDbEntity
  8
0
 62
     0
100
AcDbLine
 10
-362.5
 20
-1612.5
 30
0.0
 11
-362.5
 21
-1612.5
 31
0.0
  0
LINE
  5
1A0
330
74
100
AcDbEntity
  8
0
 62
     0
100
AcDbLine
 10
-361.25
 20
-1612.5
 30
0.0
 11
-361.25
 21
-1612.5
 31
0.0
  0
LINE
  5
1A1
330
74
100
AcDbEntity
  8
0
 62
     0
100
AcDbLine
 10
-360.0
 20
-1612.5
 30
0.0
 11
-360.0
 21
-1612.5
 31
0.0
  0
LINE
  5
1A2
330
74
100
AcDbEntity
  8
0
 62
     0
100
AcDbLine
 10
-358.75
 20
-1612.5
 30
0.0
 11
-358.75
 21
-1612.5
 31
0.0
  0
LINE
  5
1A3
330
74
100
AcDbEntity
  8
0
 62
     0
100
AcDbLine
 10
-357.5
 20
-1612.5
 30
0.0
 11
-357.5
 21
-1612.5
 31
0.0
  0
LINE
  5
1A4
330
74
100
AcDbEntity
  8
0
 62
     0
100
AcDbLine
 10
-356.25
 20
-1612.5
 30
0.0
 11
-356.25
 21
-1612.5
 31
0.0
  0
LINE
  5
1A5
330
74
100
AcDbEntity
  8
0
 62
     0
100
AcDbLine
 10
-355.0
 20
-1612.5
 30
0.0
 11
-355.0
 21
-1612.5
 31
0.0
  0
LINE
  5
1A6
330
74
100
AcDbEntity
  8
0
 62
     0
100
AcDbLine
 10
-368.125
 20
-1613.75
 30
0.0
 11
-368.125
 21
-1613.75
 31
0.0
  0
LINE
  5
1A7
330
74
100
AcDbEntity
  8
0
 62
     0
100
AcDbLine
 10
-366.875
 20
-1613.75
 30
0.0
 11
-366.875
 21
-1613.75
 31
0.0
  0
LINE
  5
1A8
330
74
100
AcDbEntity
  8
0
 62
     0
100
AcDbLine
 10
-365.625
 20
-1613.75
 30
0.0
 11
-365.625
 21
-1613.75
 31
0.0
  0
LINE
  5
1A9
330
74
100
AcDbEntity
  8
0
 62
     0
100
AcDbLine
 10
-364.375
 20
-1613.75
 30
0.0
 11
-364.375
 21
-1613.75
 31
0.0
  0
LINE
  5
1AA
330
74
100
AcDbEntity
  8
0
 62
     0
100
AcDbLine
 10
-363.125
 20
-1613.75
 30
0.0
 11
-363.125
 21
-1613.75
 31
0.0
  0
LINE
  5
1AB
330
74
100
AcDbEntity
  8
0
 62
     0
100
AcDbLine
 10
-361.875
 20
-1613.75
 30
0.0
 11
-361.875
 21
-1613.75
 31
0.0
  0
LINE
  5
1AC
330
74
100
AcDbEntity
  8
0
 62
     0
100
AcDbLine
 10
-360.625
 20
-1613.75
 30
0.0
 11
-360.625
 21
-1613.75
 31
0.0
  0
LINE
  5
1AD
330
74
100
AcDbEntity
  8
0
 62
     0
100
AcDbLine
 10
-359.375
 20
-1613.75
 30
0.0
 11
-359.375
 21
-1613.75
 31
0.0
  0
LINE
  5
1AE
330
74
100
AcDbEntity
  8
0
 62
     0
100
AcDbLine
 10
-358.125
 20
-1613.75
 30
0.0
 11
-358.125
 21
-1613.75
 31
0.0
  0
LINE
  5
1AF
330
74
100
AcDbEntity
  8
0
 62
     0
100
AcDbLine
 10
-356.875
 20
-1613.75
 30
0.0
 11
-356.875
 21
-1613.75
 31
0.0
  0
ENDBLK
  5
1B0
330
74
100
AcDbEntity
  8
0
100
AcDbBlockEnd
  0
ENDSEC
  0
SECTION
  2
ENTITIES
  0
LWPOLYLINE
  5
1B1
330
6F
100
AcDbEntity
  8
GRABUNGSGRENZE
100
AcDbPolyline
 90
        4
 70
     0
 43
0.0
 10
-282.9896027608516
 20
-1709.819504397684
 10
-357.3215929334891
 20
-1826.922649402741
 10
-384.8720226979109
 20
-1808.039326740659
 10
-385.5466735390837
 20
-1597.17322841372
  0
LWPOLYLINE
  5
1B7
330
6F
100
AcDbEntity
  8
GRABUNGSGRENZE
100
AcDbPolyline
 90
        2
 70
     0
 43
0.0
 10
-270.9678187946519
 20
-1666.376086504338
 10
-327.0216805300308
 20
-1623.991227171869
  0
LWPOLYLINE
  5
1BB
330
6F
100
AcDbEntity
  8
STEINE
100
AcDbPolyline
 90
        6
 70
     0
 43
0.0
 10
-356.2781123814961
 20
-1771.025948893063
 10
-356.5722827909911
 20
-1766.662898022126
 10
-350.5278538168011
 20
-1763.176965289806
 10
-346.9330146332861
 20
-1766.025962787474
 10
-352.8271626882177
 20
-1770.323848871213
 10
-356.2781123814961
 20
-1771.025948893063
  0
LWPOLYLINE
  5
1C3
330
6F
100
AcDbEntity
  8
STEINE
100
AcDbPolyline
 90
       10
 70
     0
 43
0.0
 10
-343.6822422326911
 20
-1764.156716810395
 10
-349.9144207209112
 20
-1761.149389927293
 10
-356.3975013938165
 20
-1756.974798729166
 10
-355.4315979694412
 20
-1756.06399950927
 10
-352.5377935696061
 20
-1755.005523285643
 10
-349.2957797939667
 20
-1756.8899193167
 10
-347.828900518798
 20
-1758.668722970868
 10
-342.9062187986864
 20
-1757.665706031111
 10
-341.1406714417481
 20
-1761.880014660147
 10
-343.6822422326911
 20
-1764.156716810395
  0
LWPOLYLINE
  5
1CF
330
6F
100
AcDbEntity
  8
STEINE
100
AcDbPolyline
 90
        4
 70
     0
 43
0.0
 10
-355.4315979694412
 20
-1756.06399950927
 10
-355.9843639504066
 20
-1753.830802303426
 10
-349.38290804257
 20
-1750.751970664885
 10
-349.2957797939667
 20
-1756.8899193167
  0
LWPOLYLINE
  5
1D5
330
6F
100
AcDbEntity
  8
STEINE
100
AcDbPolyline
 90
        4
 70
     0
 43
0.0
 10
-347.828900518798
 20
-1758.668722970868
 10
-348.0237516206299
 20
-1755.218956875557
 10
-345.6934839432598
 20
-1756.543248618253
 10
-347.828900518798
 20
-1758.668722970868
  0
LWPOLYLINE
  5
1DB
330
6F
100
AcDbEntity
  8
STEINE
100
AcDbPolyline
 90
        8
 70
     0
 43
0.0
 10
-381.8079654496444
 20
-1712.277358789816
 10
-383.2744896454231
 20
-1710.346380459642
 10
-384.4303914199658
 20
-1705.727693012151
 10
-380.1180654410299
 20
-1705.433404242859
 10
-376.5604581326933
 20
-1702.499645692522
 10
-373.9813003871819
 20
-1705.853524914274
 10
-376.4226049920881
 20
-1708.637712704134
 10
-381.8079654496444
 20
-1712.277358789816
  0
LWPOLYLINE
  5
1E5
330
6F
100
AcDbEntity
  8
STEINE
100
AcDbPolyline
 90
        6
 70
     0
 43
0.0
 10
-376.4226049920881
 20
-1708.637712704134
 10
-377.3400323605989
 20
-1710.512403231861
 10
-375.9221025804815
 20
-1711.530215146205
 10
-373.9911242503077
 20
-1710.063690950426
 10
-374.4450443627969
 20
-1708.946678088216
 10
-376.4226049920881
 20
-1708.637712704134
  0
LWPOLYLINE
  5
1ED
330
6F
100
AcDbEntity
  8
STEINE
100
AcDbPolyline
 90
        7
 70
     0
 43
0.0
 10
-384.02033133127
 20
-1703.902543778459
 10
-387.4639427171532
 20
-1701.459700496195
 10
-387.563380384613
 20
-1700.597140612571
 10
-380.1017317890858
 20
-1698.433369146606
 10
-375.9936073359209
 20
-1698.696580750148
 10
-378.1810507612246
 20
-1701.379910554987
 10
-384.02033133127
 20
-1703.902543778459
  0
LWPOLYLINE
  5
1F6
330
6F
100
AcDbEntity
  8
STEINE
100
AcDbPolyline
 90
       12
 70
     0
 43
0.0
 10
-330.0234136262192
 20
-1714.782274066329
 10
-325.9132770565104
 20
-1714.18316250584
 10
-320.6287745839743
 20
-1710.289655240555
 10
-317.7920865051627
 20
-1711.97020482523
 10
-318.7253740864309
 20
-1720.642030881203
 10
-322.129623120795
 20
-1723.068895590913
 10
-326.7965499045569
 20
-1723.15945627362
 10
-331.4070705260755
 20
-1720.815340500036
 10
-333.637072017409
 20
-1719.998534396953
 10
-334.5975308911363
 20
-1718.575988584764
 10
-331.7028979727244
 20
-1717.162438117124
 10
-330.0234136262192
 20
-1714.782274066329
  0
LWPOLYLINE
  5
204
330
6F
100
AcDbEntity
  8
STEINE
100
AcDbPolyline
 90
        5
 70
     0
 43
0.0
 10
-344.4748669147021
 20
-1690.806274139609
 10
-343.7534742459902
 20
-1685.989066436589
 10
-340.0595524744054
 20
-1689.852798493887
 10
-341.6865365319583
 20
-1691.472207524452
 10
-344.4748669147021
 20
-1690.806274139609
  0
LWPOLYLINE
  5
20B
330
6F
100
AcDbEntity
  8
STEINE
100
AcDbPolyline
 90
        5
 70
     0
 43
0.0
 10
-293.4724263356941
 20
-1724.150266716083
 10
-298.4326950103742
 20
-1719.52270228384
 10
-297.6685075560392
 20
-1718.104180704739
 10
-287.3654364898325
 20
-1715.591963143377
 10
-293.4724263356941
 20
-1724.150266716083
  0
LWPOLYLINE
  5
212
330
6F
100
AcDbEntity
  8
STEINE
100
AcDbPolyline
 90
        6
 70
     0
 43
0.0
 10
-297.6685075560392
 20
-1718.104180704739
 10
-299.6886262513602
 20
-1714.295079412734
 10
-299.87495544783
 20
-1707.193121093291
 10
-299.4589773692993
 20
-1702.831727259507
 10
-294.7294897138659
 20
-1697.668795736413
 10
-293.1046361326536
 20
-1696.962434761881
  0
LWPOLYLINE
  5
21A
330
6F
100
AcDbEntity
  8
STEINE
100
AcDbPolyline
 90
        3
 70
     0
 43
0.0
 10
-287.3654364898325
 20
-1715.591963143377
 10
-282.6857268480273
 20
-1710.023114124471
 10
-283.5375159901525
 20
-1705.506586619765
  0
LWPOLYLINE
  5
21F
330
6F
100
AcDbEntity
  8
STEINE
100
AcDbPolyline
 90
        5
 70
     0
 43
0.0
 10
-283.5375159901525
 20
-1705.506586619765
 10
-289.9704635700394
 20
-1701.585738241443
 10
-287.8304309624301
 20
-1697.481993100756
 10
-283.7668766918388
 20
-1695.107391960406
 10
-283.5375159901525
 20
-1705.506586619765
  0
LWPOLYLINE
  5
226
330
6F
100
AcDbEntity
  8
STEINE
100
AcDbPolyline
 90
       12
 70
     0
 43
0.0
 10
-294.7163517764325
 20
-1692.038332724209
 10
-293.1046361326536
 20
-1696.962434761881
 10
-291.6370466987046
 20
-1698.436889064038
 10
-288.9962749598953
 20
-1697.124196581419
 10
-286.8074112170313
 20
-1693.832168072558
 10
-283.7079849738648
 20
-1691.607492772076
 10
-281.7256899527057
 20
-1689.887462476085
 10
-278.0121204548692
 20
-1685.330862461079
 10
-282.4159539948862
 20
-1681.364023582624
 10
-284.694549901881
 20
-1679.63405106371
 10
-288.6616254999299
 20
-1684.139334387731
 10
-294.7163517764325
 20
-1692.038332724209
  0
LWPOLYLINE
  5
234
330
6F
100
AcDbEntity
  8
STEINE
100
AcDbPolyline
 90
        2
 70
     0
 43
0.0
 10
-283.7668766918388
 20
-1695.107391960406
 10
-283.7079849738648
 20
-1691.607492772076
  0
LWPOLYLINE
  5
238
330
6F
100
AcDbEntity
  8
STEINE
100
AcDbPolyline
 90
        6
 70
     0
 43
0.0
 10
-282.50029306915
 20
-1695.769774551347
 10
-279.5693751539333
 20
-1700.544779267727
 10
-274.4981879115138
 20
-1701.114589059417
 10
-274.5342361887253
 20
-1694.824584091394
 10
-281.788724263564
 20
-1695.162732884479
 10
-282.50029306915
 20
-1695.769774551347
  0
LWPOLYLINE
  5
240
330
6F
100
AcDbEntity
  8
STEINE
100
AcDbPolyline
 90
        6
 70
     0
 43
0.0
 10
-282.0875107051302
 20
-1692.777952801613
 10
-278.4750359119074
 20
-1688.068941391008
 10
-275.1824156040628
 20
-1690.004180673863
 10
-276.5099030612693
 20
-1693.704020435282
 10
-281.987836318077
 20
-1693.539062901233
 10
-282.0875107051302
 20
-1692.777952801613
  0
LWPOLYLINE
  5
248
330
6F
100
AcDbEntity
  8
STEINE
100
AcDbPolyline
 90
        6
 70
     0
 43
0.0
 10
-285.957109291482
 20
-1677.247022144706
 10
-274.2588335261238
 20
-1685.49179576204
 10
-272.5191555038811
 20
-1679.053758710895
 10
-271.9874061059464
 20
-1668.554889664483
 10
-273.4507345872142
 20
-1665.25433925026
 10
-278.0065060836433
 20
-1661.18569550841
  0
LWPOLYLINE
  5
250
330
6F
100
AcDbEntity
  8
STEINE
100
AcDbPolyline
 90
        4
 70
     0
 43
0.0
 10
-279.0834464355548
 20
-1666.204974260861
 10
-281.9848258623784
 20
-1670.509843572605
 10
-283.5111886545046
 20
-1672.484563566776
 10
-285.957109291482
 20
-1677.247022144706
  0
LWPOLYLINE
  5
256
330
6F
100
AcDbEntity
  8
STEINE
100
AcDbPolyline
 90
       12
 70
     0
 43
0.0
 10
-286.1011171415155
 20
-1673.74664951719
 10
-285.957109291482
 20
-1677.247022144706
 10
-288.6616254999299
 20
-1684.139334387731
 10
-293.3303276806422
 20
-1684.990768450466
 10
-299.0558490478276
 20
-1682.23824962534
 10
-309.0374085915022
 20
-1677.396068005217
 10
-304.1997246436533
 20
-1669.342054357612
 10
-297.6843317462498
 20
-1659.668750039239
 10
-292.7218142354325
 20
-1663.332541523447
 10
-290.6398448272201
 20
-1662.373621327077
 10
-282.7900327053861
 20
-1667.768805647759
 10
-286.1011171415155
 20
-1673.74664951719
  0
LWPOLYLINE
  5
264
330
6F
100
AcDbEntity
  8
STEINE
100
AcDbPolyline
 90
        6
 70
     0
 43
0.0
 10
-279.0834464355548
 20
-1666.204974260861
 10
-284.8090861625369
 20
-1663.503180327737
 10
-284.8435957623912
 20
-1656.55375176369
 10
-278.0065060836433
 20
-1661.18569550841
 10
-277.4601315316995
 20
-1666.158036882354
 10
-279.0834464355548
 20
-1666.204974260861
  0
LWPOLYLINE
  5
26C
330
6F
100
AcDbEntity
  8
STEINE
100
AcDbPolyline
 90
       11
 70
     0
 43
0.0
 10
-284.8090861625369
 20
-1663.503180327737
 10
-286.1292353123481
 20
-1664.058076785044
 10
-295.1447730718507
 20
-1658.254371053023
 10
-299.4993020374262
 20
-1654.896349238386
 10
-303.2466709763368
 20
-1652.199171337333
 10
-305.1630910515168
 20
-1647.426533816886
 10
-304.8531787890611
 20
-1645.04317405158
 10
-302.7752336139365
 20
-1645.808900183273
 10
-299.9409127310589
 20
-1648.503947607984
 10
-297.4546828641889
 20
-1648.205397886012
 10
-284.8435957623912
 20
-1656.55375176369
  0
LWPOLYLINE
  5
279
330
6F
100
AcDbEntity
  8
STEINE
100
AcDbPolyline
 90
        7
 70
     0
 43
0.0
 10
-297.4546828641889
 20
-1648.205397886012
 10
-296.8350950588708
 20
-1643.540128139404
 10
-298.8537934366314
 20
-1639.122328143377
 10
-303.4133524465548
 20
-1636.676880945586
 10
-307.6800430047468
 20
-1639.152458430753
 10
-308.3936239268767
 20
-1640.621823261652
 10
-302.7752336139365
 20
-1645.808900183273
  0
LWPOLYLINE
  5
282
330
6F
100
AcDbEntity
  8
STEINE
100
AcDbPolyline
 90
        6
 70
     0
 43
0.0
 10
-307.6800430047468
 20
-1639.152458430753
 10
-311.8325009208919
 20
-1636.149984299316
 10
-302.9399029676107
 20
-1629.424286627494
 10
-299.3968539142678
 20
-1632.729689793382
 10
-300.4670477577676
 20
-1634.857649701728
 10
-303.4133524465548
 20
-1636.676880945586
  0
LWPOLYLINE
  5
28A
330
6F
100
AcDbEntity
  8
STEINE
100
AcDbPolyline
 90
       12
 70
     0
 43
0.0
 10
-319.9310693128361
 20
-1672.145956772738
 10
-315.9292473953395
 20
-1674.488652228761
 10
-311.6711971023064
 20
-1675.715991859728
 10
-306.2273000061663
 20
-1668.728621261722
 10
-301.1338611219677
 20
-1659.762151357067
 10
-300.1613295489773
 20
-1656.010758185069
 10
-304.4248243926585
 20
-1657.116763586187
 10
-307.1670459154715
 20
-1658.429219349213
 10
-309.7611169953668
 20
-1661.466676519691
 10
-312.0951721862312
 20
-1661.765581321054
 10
-319.420269598917
 20
-1670.62539361065
 10
-319.9310693128361
 20
-1672.145956772738
  0
LWPOLYLINE
  5
298
330
6F
100
AcDbEntity
  8
STEINE
100
AcDbPolyline
 90
       16
 70
     0
 43
0.0
 10
-325.4293089938946
 20
-1658.944583634422
 10
-326.614208918628
 20
-1666.75349472738
 10
-326.2242699953708
 20
-1673.551577133999
 10
-325.4678942876178
 20
-1675.480898427019
 10
-323.6415614559585
 20
-1675.383709595697
 10
-320.2796337680307
 20
-1669.35525919406
 10
-315.8560341419653
 20
-1664.85104110821
 10
-314.8357366718905
 20
-1662.367888596054
 10
-308.7386890489515
 20
-1658.070475951502
 10
-305.4867330503895
 20
-1655.693981054405
 10
-305.0181363231099
 20
-1650.521107308388
 10
-307.2463624174929
 20
-1648.943427825277
 10
-309.2268820417016
 20
-1649.90258474124
 10
-314.8684708747944
 20
-1654.657586651979
 10
-321.2136984070945
 20
-1656.621062465464
 10
-325.4293089938946
 20
-1658.944583634422
  0
LWPOLYLINE
  5
2AA
330
6F
100
AcDbEntity
  8
STEINE
100
AcDbPolyline
 90
       18
 70
     0
 43
0.0
 10
-326.5914838376622
 20
-1657.014315463028
 10
-327.8028448960747
 20
-1654.424505335814
 10
-329.6186437058279
 20
-1650.007178778974
 10
-328.701689776504
 20
-1648.335387819254
 10
-326.9659176275522
 20
-1643.571272204169
 10
-326.9627219130414
 20
-1642.20170012012
 10
-324.2182515540911
 20
-1639.925471409059
 10
-321.321724878932
 20
-1637.70032266939
 10
-317.6132448523536
 20
-1635.324893010463
 10
-315.6405369747269
 20
-1637.71357896662
 10
-313.0073402629061
 20
-1639.647279572118
 10
-310.6828722155742
 20
-1643.457091022904
 10
-308.6579007685886
 20
-1645.186471742834
 10
-310.1376812615973
 20
-1648.936681316865
 10
-314.0997857481849
 20
-1651.311519176809
 10
-316.997851100701
 20
-1654.196091512502
 10
-322.9360958990195
 20
-1655.653265284341
 10
-326.5914838376622
 20
-1657.014315463028
  0
LWPOLYLINE
  5
2BE
330
6F
100
AcDbEntity
  8
STEINE
100
AcDbPolyline
 90
        8
 70
     0
 43
0.0
 10
-358.1967607085009
 20
-1658.513048961743
 10
-363.3000903548408
 20
-1649.979312765969
 10
-353.9491929765926
 20
-1642.49380695229
 10
-346.9542473515979
 20
-1644.691310960313
 10
-345.8437442782056
 20
-1647.027259907925
 10
-347.5335259270235
 20
-1653.820489562879
 10
-354.189967679543
 20
-1658.725298953689
 10
-358.1967607085009
 20
-1658.513048961743
  0
LWPOLYLINE
  5
2C8
330
6F
100
AcDbEntity
  8
STEINE
100
AcDbPolyline
 90
       14
 70
     0
 43
0.0
 10
-339.5504097976399
 20
-1689.042383819825
 10
-343.7534742459902
 20
-1685.989066436589
 10
-344.9161225289446
 20
-1684.261697833203
 10
-340.4395491747401
 20
-1678.793825159115
 10
-337.2270738874938
 20
-1671.598347162046
 10
-339.0020900281678
 20
-1671.442029893156
 10
-338.6868515748607
 20
-1666.776049987768
 10
-331.2677610453632
 20
-1661.112142613881
 10
-327.7725962489014
 20
-1663.200030011928
 10
-328.9513414642066
 20
-1668.371246720791
 10
-330.0795985071034
 20
-1673.644031573453
 10
-330.5625167697833
 20
-1684.954617251692
 10
-334.4241183507409
 20
-1687.735490967243
 10
-339.5504097976399
 20
-1689.042383819825
  0
LWPOLYLINE
  5
2D8
330
6F
100
AcDbEntity
  8
STEINE
100
AcDbPolyline
 90
       10
 70
     0
 43
0.0
 10
-327.8028448960747
 20
-1654.424505335814
 10
-331.8712519183305
 20
-1658.87882704824
 10
-337.0550147656432
 20
-1663.076920385129
 10
-340.6107283172326
 20
-1665.199080663436
 10
-343.9045322230442
 20
-1663.7710903006
 10
-343.2285382554828
 20
-1656.671144097701
 10
-344.0758297253335
 20
-1650.227070696924
 10
-342.9048962566103
 20
-1648.403696860182
 10
-335.805305133101
 20
-1649.231865503749
 10
-328.701689776504
 20
-1648.335387819254
  0
LWPOLYLINE
  5
2E4
330
6F
100
AcDbEntity
  8
STEINE
100
AcDbPolyline
 90
       14
 70
     0
 43
0.0
 10
-317.4538502287496
 20
-1632.231029677742
 10
-321.321724878932
 20
-1637.70032266939
 10
-326.9627219130414
 20
-1642.20170012012
 10
-332.7083644456652
 20
-1648.072412935305
 10
-335.805305133101
 20
-1649.231865503749
 10
-337.7301287538466
 20
-1648.060695315433
 10
-335.6476859064474
 20
-1646.898875551055
 10
-334.2118837970288
 20
-1640.257228773123
 10
-333.1817624638282
 20
-1633.563910224815
 10
-333.2731516651126
 20
-1629.252057685066
 10
-330.8303083828493
 20
-1625.808446299183
 10
-327.9307043529761
 20
-1622.264450367466
 10
-319.3220309676584
 20
-1628.52373324913
 10
-317.4538502287496
 20
-1632.231029677742
  0
LWPOLYLINE
  5
2F4
330
6F
100
AcDbEntity
  8
STEINE
100
AcDbPolyline
 90
       21
 70
     0
 43
0.0
 10
-354.222176982479
 20
-1629.051000413024
 10
-354.1046302661245
 20
-1622.152651820369
 10
-353.6296421098233
 20
-1614.240633906253
 10
-346.1690587524663
 20
-1612.533386468305
 10
-342.9278734954038
 20
-1614.772856743374
 10
-339.7920438956359
 20
-1618.686011734911
 10
-334.574126527859
 20
-1621.589521638075
 10
-335.7469537533294
 20
-1624.224493746846
 10
-334.7914659910633
 20
-1627.777485023112
 10
-336.3308483608261
 20
-1635.331943137484
 10
-336.440820050192
 20
-1638.983898642022
 10
-337.0076708469644
 20
-1642.786963584396
 10
-338.6338263859404
 20
-1644.051298370947
 10
-342.3828523620048
 20
-1642.064268957921
 10
-344.0053387472832
 20
-1641.756132092415
 10
-345.3700580796681
 20
-1639.673215805829
 10
-347.2953551396005
 20
-1638.70494518552
 10
-347.1348952778261
 20
-1635.154557824782
 10
-348.5947913249898
 20
-1630.382985542506
 10
-352.0420718645705
 20
-1629.512613912299
 10
-354.222176982479
 20
-1629.051000413024
  0
LWPOLYLINE
  5
30B
330
6F
100
AcDbEntity
  8
STEINE
100
AcDbPolyline
 90
       10
 70
     0
 43
0.0
 10
-320.5287245332185
 20
-1602.194555305262
 10
-319.6740947559727
 20
-1605.493685401925
 10
-324.0160106840828
 20
-1618.469197171674
 10
-327.9307043529761
 20
-1622.264450367466
 10
-338.8191572432554
 20
-1614.782443886907
 10
-345.100285226527
 20
-1611.014125263981
 10
-347.9860411601866
 20
-1608.623308831483
 10
-347.9282146803829
 20
-1605.57993367117
 10
-345.5837438274092
 20
-1600.817238373646
 10
-320.5287245332185
 20
-1602.194555305262
  0
LWPOLYLINE
  5
317
330
6F
100
AcDbEntity
  8
STEINE
100
AcDbPolyline
 90
       12
 70
     0
 43
0.0
 10
-347.7144260110795
 20
-1600.913717046189
 10
-347.9860411601866
 20
-1608.623308831483
 10
-349.6142088157065
 20
-1610.749966782066
 10
-352.65864921419
 20
-1611.148664330279
 10
-356.8244817873618
 20
-1613.878102995048
 10
-366.6147410231054
 20
-1614.007434230291
 10
-373.9164031960451
 20
-1612.823717903525
 10
-378.7817318755398
 20
-1610.986259250976
 10
-382.2713337615569
 20
-1606.514301928843
 10
-385.3055952175244
 20
-1602.550658764898
 10
-384.7925466674679
 20
-1600.066322654775
 10
-347.7144260110795
 20
-1600.913717046189
  0
LWPOLYLINE
  5
325
330
6F
100
AcDbEntity
  8
BEFUND
100
AcDbPolyline
 90
        8
 70
     0
 43
0.0
 10
-307.1199593006986
 20
-1746.944747691392
 10
-318.2510291898943
 20
-1734.744734455679
 10
-332.5369846061261
 20
-1726.798273840725
 10
-346.6375577042617
 20
-1726.359570681229
 10
-364.2096236395197
 20
-1713.688001723319
 10
-368.5523166254256
 20
-1705.257490708499
 10
-357.415987444394
 20
-1693.464511667549
 10
-344.9161225289446
 20
-1684.261697833203
  0
LWPOLYLINE
  5
32F
330
6F
100
AcDbEntity
  8
BEFUND
100
AcDbPolyline
 90
        6
 70
     0
 43
0.0
 10
-355.7281870356513
 20
-1774.476543506952
 10
-345.9842733794318
 20
-1772.470272907844
 10
-338.6115284294584
 20
-1764.929426170092
 10
-338.744883897789
 20
-1756.863813262411
 10
-345.326692079374
 20
-1751.522312828648
 10
-349.38290804257
 20
-1750.751970664885
  0
LWPOLYLINE
  5
337
330
6F
100
AcDbEntity
  8
BEFUND
100
AcDbPolyline
 90
        5
 70
     0
 43
0.0
 10
-355.7281870356513
 20
-1774.476543506952
 10
-359.4200966906922
 20
-1769.750488285622
 10
-359.7640451138155
 20
-1764.981519918873
 10
-356.2013483342209
 20
-1759.866591012457
 10
-356.3975013938165
 20
-1756.974798729166
  0
INSERT
  5
33E
330
6F
100
AcDbEntity
  8
STEINESCHRAFF
100
AcDbBlockReference
  2
*X1
 10
0.0
 20
0.0
 30
0.0
1001
ACAD
1000
HATCH
1002
{
1070
    16
1000
DOTS,I
1040
20.0
1040
0.0
1002
}
  0
ENDSEC
  0
SECTION
  2
OBJECTS
  0
DICTIONARY
  5
C
330
0
100
AcDbDictionary
281
     1
  3
ACAD_CIP_PREVIOUS_PRODUCT_INFO
350
341
  3
ACAD_COLOR
350
62
  3
ACAD_DETAILVIEWSTYLE
350
69
  3
ACAD_GROUP
350
D
  3
ACAD_LAYOUT
350
61
  3
ACAD_MATERIAL
350
10
  3
ACAD_MLEADERSTYLE
350
65
  3
ACAD_MLINESTYLE
350
5E
  3
ACAD_PLOTSETTINGS
350
60
  3
ACAD_PLOTSTYLENAME
350
E
  3
ACAD_SCALELIST
350
42
  3
ACAD_SECTIONVIEWSTYLE
350
67
  3
ACAD_TABLESTYLE
350
63
  3
ACAD_VISUALSTYLE
350
29
  3
ACDB_RECOMPOSE_DATA
350
358
  3
AcDbVariableDictionary
350
34B
  0
DICTIONARY
  5
345
330
2
100
AcDbDictionary
280
     1
281
     1
  3
ACAD_LAYERSTATES
360
346
  0
XRECORD
  5
341
102
{ACAD_REACTORS
330
C
102
}
330
C
100
AcDbXrecord
280
     1
300
ACD
300
2014
300
DSADV_F_S
  0
DICTIONARY
  5
62
102
{ACAD_REACTORS
330
C
102
}
330
C
100
AcDbDictionary
281
     1
  0
DICTIONARY
  5
69
102
{ACAD_REACTORS
330
C
102
}
330
C
100
AcDbDictionary
281
     1
  3
Imperial24
350
6A
  0
DICTIONARY
  5
D
102
{ACAD_REACTORS
330
C
102
}
330
C
100
AcDbDictionary
281
     1
  0
DICTIONARY
  5
61
102
{ACAD_REACTORS
330
C
102
}
330
C
100
AcDbDictionary
281
     1
  3
Layout1
350
6E
  3
Model
350
72
  0
DICTIONARY
  5
10
102
{ACAD_REACTORS
330
C
102
}
330
C
100
AcDbDictionary
281
     1
  3
ByBlock
350
19
  3
ByLayer
350
11
  3
Global
350
21
  0
DICTIONARY
  5
65
102
{ACAD_REACTORS
330
C
102
}
330
C
100
AcDbDictionary
281
     1
  3
Standard
350
66
  0
DICTIONARY
  5
5E
102
{ACAD_REACTORS
330
C
102
}
330
C
100
AcDbDictionary
281
     1
  3
Standard
350
5F
  0
DICTIONARY
  5
60
102
{ACAD_REACTORS
330
C
102
}
330
C
100
AcDbDictionary
281
     1
  0
ACDBDICTIONARYWDFLT
  5
E
102
{ACAD_REACTORS
330
C
102
}
330
C
100
AcDbDictionary
281
     1
  3
Normal
350
F
100
AcDbDictionaryWithDefault
340
F
  0
DICTIONARY
  5
42
102
{ACAD_REACTORS
330
C
102
}
330
C
100
AcDbDictionary
281
     1
  3
A0
350
43
  3
A1
350
44
  3
A2
350
45
  3
A3
350
46
  3
A4
350
47
  3
A5
350
48
  3
A6
350
49
  3
A7
350
4A
  3
A8
350
4B
  3
A9
350
4C
  3
B0
350
4D
  3
B1
350
4E
  3
B2
350
4F
  3
B3
350
50
  3
B4
350
51
  3
B5
350
52
  3
B6
350
53
  0
DICTIONARY
  5
67
102
{ACAD_REACTORS
330
C
102
}
330
C
100
AcDbDictionary
281
     1
  3
Imperial24
350
68
  0
DICTIONARY
  5
63
102
{ACAD_REACTORS
330
C
102
}
330
C
100
AcDbDictionary
281
     1
  3
Standard
350
64
  0
DICTIONARY
  5
29
102
{ACAD_REACTORS
330
C
102
}
330
C
100
AcDbDictionary
281
     1
  3
2dWireframe
350
2F
  3
Basic
350
2E
  3
Brighten
350
35
  3
ColorChange
350
39
  3
Conceptual
350
32
  3
Dim
350
34
  3
EdgeColorOff
350
41
  3
Facepattern
350
38
  3
Flat
350
2A
  3
FlatWithEdges
350
2B
  3
Gouraud
350
2C
  3
GouraudWithEdges
350
2D
  3
Hidden
350
31
  3
JitterOff
350
3F
  3
Linepattern
350
37
  3
OverhangOff
350
40
  3
Realistic
350
33
  3
Shaded
350
3E
  3
Shaded with edges
350
3D
  3
Shades of Gray
350
3A
  3
Sketchy
350
3B
  3
Thicken
350
36
  3
Wireframe
350
30
  3
X-Ray
350
3C
  0
XRECORD
  5
358
102
{ACAD_REACTORS
330
C
102
}
330
C
100
AcDbXrecord
280
     1
 90
        1
330
64
330
68
330
6A
  0
DICTIONARY
  5
34B
102
{ACAD_REACTORS
330
C
102
}
330
C
100
AcDbDictionary
281
     1
  3
CANNOSCALE
350
350
  3
CMLEADERSTYLE
350
34D
  3
CTABLESTYLE
350
34C
  3
CVIEWDETAILSTYLE
350
34E
  3
CVIEWSECTIONSTYLE
350
34F
  0
DICTIONARY
  5
346
102
{ACAD_REACTORS
330
345
102
}
330
345
100
AcDbDictionary
281
     1
  0
ACDBDETAILVIEWSTYLE
  5
6A
102
{ACAD_XDICTIONARY
360
356
102
}
102
{ACAD_REACTORS
330
69
102
}
330
69
100
AcDbModelDocViewStyle
 70
     0
  3
Imperial24
290
     0
100
AcDbDetailViewStyle
 70
     0
 71
     0
 90
        3
 71
     1
340
55
 62
   256
 40
0.24
340
0
 62
   256
 40
0.24
300

 40
0.36
280
     3
 71
     2
340
5C
 90
       25
 62
   256
 71
     3
340
55
 62
   256
 40
0.24
 90
        1
 40
0.75
 90
        1
300
%<\AcVar ViewType \f "%tc1">% %<\AcVar ViewDetailId>%\PVARIA %<\AcVar ViewScale \f "%sn">%
 71
     4
340
5C
 90
       25
 62
   256
340
5C
 90
       25
 62
   256
280
     0
  0
LAYOUT
  5
6E
102
{ACAD_REACTORS
330
61
102
}
330
61
100
AcDbPlotSettings
  1

  2
Kyocera FS-1350DN KX
  4

  6

 40
0.0
 41
0.0
 42
0.0
 43
0.0
 44
0.0
 45
0.0
 46
0.0
 47
0.0
 48
0.0
 49
0.0
140
0.0
141
0.0
142
1.0
143
1.0
 70
   688
 72
     0
 73
     0
 74
     5
  7

 75
    16
147
1.0
 76
     0
 77
     2
 78
   300
148
0.0
149
0.0
100
AcDbLayout
  1
Layout1
 70
     0
 71
     1
 10
0.0
 20
0.0
 11
12.0
 21
9.0
 12
0.0
 22
0.0
 32
0.0
 14
1.000000000000000E+20
 24
1.000000000000000E+20
 34
1.000000000000000E+20
 15
-1.000000000000000E+20
 25
-1.000000000000000E+20
 35
-1.000000000000000E+20
146
0.0
 13
0.0
 23
0.0
 33
0.0
 16
1.0
 26
0.0
 36
0.0
 17
0.0
 27
1.0
 37
0.0
 76
     0
330
6B
  0
LAYOUT
  5
72
102
{ACAD_REACTORS
330
61
102
}
330
61
100
AcDbPlotSettings
  1

  2
Kyocera FS-1350DN KX
  4

  6

 40
0.0
 41
0.0
 42
0.0
 43
0.0
 44
0.0
 45
0.0
 46
0.0
 47
0.0
 48
0.0
 49
0.0
140
0.0
141
0.0
142
1.0
143
1.0
 70
  1712
 72
     0
 73
     0
 74
     0
  7

 75
     0
147
1.0
 76
     0
 77
     2
 78
   300
148
0.0
149
0.0
100
AcDbLayout
  1
Model
 70
     1
 71
     0
 10
0.0
 20
0.0
 11
12.0
 21
9.0
 12
0.0
 22
0.0
 32
0.0
 14
0.0
 24
0.0
 34
0.0
 15
0.0
 25
0.0
 35
0.0
146
0.0
 13
0.0
 23
0.0
 33
0.0
 16
1.0
 26
0.0
 36
0.0
 17
0.0
 27
1.0
 37
0.0
 76
     0
330
6F
331
8E
  0
MATERIAL
  5
19
102
{ACAD_XDICTIONARY
360
1A
102
}
102
{ACAD_REACTORS
330
10
102
}
330
10
100
AcDbMaterial
  1
ByBlock
 72
     0
 43
0.0208333333333333
 43
0.0
 43
0.0
 43
0.0
 43
0.0
 43
0.0208333333333333
 43
0.0
 43
0.0
 43
0.0
 43
0.0
 43
1.0
 43
0.0
 43
0.0
 43
0.0
 43
0.0
 43
1.0
 77
     0
 47
0.0208333333333333
 47
0.0
 47
0.0
 47
0.0
 47
0.0
 47
0.0208333333333333
 47
0.0
 47
0.0
 47
0.0
 47
0.0
 47
1.0
 47
0.0
 47
0.0
 47
0.0
 47
0.0
 47
1.0
171
     0
 49
0.0208333333333333
 49
0.0
 49
0.0
 49
0.0
 49
0.0
 49
0.0208333333333333
 49
0.0
 49
0.0
 49
0.0
 49
0.0
 49
1.0
 49
0.0
 49
0.0
 49
0.0
 49
0.0
 49
1.0
175
     0
142
0.0208333333333333
142
0.0
142
0.0
142
0.0
142
0.0
142
0.0208333333333333
142
0.0
142
0.0
142
0.0
142
0.0
142
1.0
142
0.0
142
0.0
142
0.0
142
0.0
142
1.0
179
     0
144
0.0208333333333333
144
0.0
144
0.0
144
0.0
144
0.0
144
0.0208333333333333
144
0.0
144
0.0
144
0.0
144
0.0
144
1.0
144
0.0
144
0.0
144
0.0
144
0.0
144
1.0
147
0.0208333333333333
147
0.0
147
0.0
147
0.0
147
0.0
147
0.0208333333333333
147
0.0
147
0.0
147
0.0
147
0.0
147
1.0
147
0.0
147
0.0
147
0.0
147
0.0
147
1.0
  0
MATERIAL
  5
11
102
{ACAD_XDICTIONARY
360
12
102
}
102
{ACAD_REACTORS
330
10
102
}
330
10
100
AcDbMaterial
  1
ByLayer
 72
     0
 43
0.0208333333333333
 43
0.0
 43
0.0
 43
0.0
 43
0.0
 43
0.0208333333333333
 43
0.0
 43
0.0
 43
0.0
 43
0.0
 43
1.0
 43
0.0
 43
0.0
 43
0.0
 43
0.0
 43
1.0
 77
     0
 47
0.0208333333333333
 47
0.0
 47
0.0
 47
0.0
 47
0.0
 47
0.0208333333333333
 47
0.0
 47
0.0
 47
0.0
 47
0.0
 47
1.0
 47
0.0
 47
0.0
 47
0.0
 47
0.0
 47
1.0
171
     0
 49
0.0208333333333333
 49
0.0
 49
0.0
 49
0.0
 49
0.0
 49
0.0208333333333333
 49
0.0
 49
0.0
 49
0.0
 49
0.0
 49
1.0
 49
0.0
 49
0.0
 49
0.0
 49
0.0
 49
1.0
175
     0
142
0.0208333333333333
142
0.0
142
0.0
142
0.0
142
0.0
142
0.0208333333333333
142
0.0
142
0.0
142
0.0
142
0.0
142
1.0
142
0.0
142
0.0
142
0.0
142
0.0
142
1.0
179
     0
144
0.0208333333333333
144
0.0
144
0.0
144
0.0
144
0.0
144
0.0208333333333333
144
0.0
144
0.0
144
0.0
144
0.0
144
1.0
144
0.0
144
0.0
144
0.0
144
0.0
144
1.0
147
0.0208333333333333
147
0.0
147
0.0
147
0.0
147
0.0
147
0.0208333333333333
147
0.0
147
0.0
147
0.0
147
0.0
147
1.0
147
0.0
147
0.0
147
0.0
147
0.0
147
1.0
  0
MATERIAL
  5
21
102
{ACAD_XDICTIONARY
360
22
102
}
102
{ACAD_REACTORS
330
10
102
}
330
10
100
AcDbMaterial
  1
Global
 72
     0
 43
0.0208333333333333
 43
0.0
 43
0.0
 43
0.0
 43
0.0
 43
0.0208333333333333
 43
0.0
 43
0.0
 43
0.0
 43
0.0
 43
1.0
 43
0.0
 43
0.0
 43
0.0
 43
0.0
 43
1.0
 77
     0
 47
0.0208333333333333
 47
0.0
 47
0.0
 47
0.0
 47
0.0
 47
0.0208333333333333
 47
0.0
 47
0.0
 47
0.0
 47
0.0
 47
1.0
 47
0.0
 47
0.0
 47
0.0
 47
0.0
 47
1.0
171
     0
 49
0.0208333333333333
 49
0.0
 49
0.0
 49
0.0
 49
0.0
 49
0.0208333333333333
 49
0.0
 49
0.0
 49
0.0
 49
0.0
 49
1.0
 49
0.0
 49
0.0
 49
0.0
 49
0.0
 49
1.0
175
     0
142
0.0208333333333333
142
0.0
142
0.0
142
0.0
142
0.0
142
0.0208333333333333
142
0.0
142
0.0
142
0.0
142
0.0
142
1.0
142
0.0
142
0.0
142
0.0
142
0.0
142
1.0
179
     0
144
0.0208333333333333
144
0.0
144
0.0
144
0.0
144
0.0
144
0.0208333333333333
144
0.0
144
0.0
144
0.0
144
0.0
144
1.0
144
0.0
144
0.0
144
0.0
144
0.0
144
1.0
147
0.0208333333333333
147
0.0
147
0.0
147
0.0
147
0.0
147
0.0208333333333333
147
0.0
147
0.0
147
0.0
147
0.0
147
1.0
147
0.0
147
0.0
147
0.0
147
0.0
147
1.0
  0
MLEADERSTYLE
  5
66
102
{ACAD_REACTORS
330
65
102
}
330
65
100
AcDbMLeaderStyle
179
     2
170
     2
171
     1
172
     0
 90
        2
 40
0.0
 41
0.0
173
     1
 91
-1056964608
340
5A
 92
       -2
290
     1
 42
0.09
291
     1
 43
0.36
  3
Standard
 44
0.18
300

342
55
174
     1
178
     6
175
     1
176
     0
 93
-1056964608
 45
0.18
292
     0
297
     0
 46
0.18
 94
-1056964608
 47
1.0
 49
1.0
140
1.0
293
     1
141
0.0
294
     1
177
     0
142
1.0
295
     1
296
     0
143
0.125
271
     0
272
     9
273
     9
298
     1
  0
MLINESTYLE
  5
5F
102
{ACAD_REACTORS
330
5E
102
}
330
5E
100
AcDbMlineStyle
  2
STANDARD
 70
     0
  3

 62
   256
 51
90.0
 52
90.0
 71
     2
 49
0.5
 62
   256
  6
BYLAYER
 49
-0.5
 62
   256
  6
BYLAYER
  0
ACDBPLACEHOLDER
  5
F
102
{ACAD_REACTORS
330
E
102
}
330
E
  0
SCALE
  5
43
102
{ACAD_REACTORS
330
42
102
}
330
42
100
AcDbScale
 70
     0
300
1:1
140
1.0
141
1.0
290
     1
  0
SCALE
  5
44
102
{ACAD_REACTORS
330
42
102
}
330
42
100
AcDbScale
 70
     0
300
1/128" = 1'-0"
140
0.0078125
141
12.0
290
     0
  0
SCALE
  5
45
102
{ACAD_REACTORS
330
42
102
}
330
42
100
AcDbScale
 70
     0
300
1/64" = 1'-0"
140
0.015625
141
12.0
290
     0
  0
SCALE
  5
46
102
{ACAD_REACTORS
330
42
102
}
330
42
100
AcDbScale
 70
     0
300
1/32" = 1'-0"
140
0.03125
141
12.0
290
     0
  0
SCALE
  5
47
102
{ACAD_REACTORS
330
42
102
}
330
42
100
AcDbScale
 70
     0
300
1/16" = 1'-0"
140
0.0625
141
12.0
290
     0
  0
SCALE
  5
48
102
{ACAD_REACTORS
330
42
102
}
330
42
100
AcDbScale
 70
     0
300
3/32" = 1'-0"
140
0.09375
141
12.0
290
     0
  0
SCALE
  5
49
102
{ACAD_REACTORS
330
42
102
}
330
42
100
AcDbScale
 70
     0
300
1/8" = 1'-0"
140
0.125
141
12.0
290
     0
  0
SCALE
  5
4A
102
{ACAD_REACTORS
330
42
102
}
330
42
100
AcDbScale
 70
     0
300
3/16" = 1'-0"
140
0.1875
141
12.0
290
     0
  0
SCALE
  5
4B
102
{ACAD_REACTORS
330
42
102
}
330
42
100
AcDbScale
 70
     0
300
1/4" = 1'-0"
140
0.25
141
12.0
290
     0
  0
SCALE
  5
4C
102
{ACAD_REACTORS
330
42
102
}
330
42
100
AcDbScale
 70
     0
300
3/8" = 1'-0"
140
0.375
141
12.0
290
     0
  0
SCALE
  5
4D
102
{ACAD_REACTORS
330
42
102
}
330
42
100
AcDbScale
 70
     0
300
1/2" = 1'-0"
140
0.5
141
12.0
290
     0
  0
SCALE
  5
4E
102
{ACAD_REACTORS
330
42
102
}
330
42
100
AcDbScale
 70
     0
300
3/4" = 1'-0"
140
0.75
141
12.0
290
     0
  0
SCALE
  5
4F
102
{ACAD_REACTORS
330
42
102
}
330
42
100
AcDbScale
 70
     0
300
1" = 1'-0"
140
1.0
141
12.0
290
     0
  0
SCALE
  5
50
102
{ACAD_REACTORS
330
42
102
}
330
42
100
AcDbScale
 70
     0
300
1-1/2" = 1'-0"
140
1.5
141
12.0
290
     0
  0
SCALE
  5
51
102
{ACAD_REACTORS
330
42
102
}
330
42
100
AcDbScale
 70
     0
300
3" = 1'-0"
140
3.0
141
12.0
290
     0
  0
SCALE
  5
52
102
{ACAD_REACTORS
330
42
102
}
330
42
100
AcDbScale
 70
     0
300
6" = 1'-0"
140
6.0
141
12.0
290
     0
  0
SCALE
  5
53
102
{ACAD_REACTORS
330
42
102
}
330
42
100
AcDbScale
 70
     0
300
1'-0" = 1'-0"
140
12.0
141
12.0
290
     0
  0
ACDBSECTIONVIEWSTYLE
  5
68
102
{ACAD_XDICTIONARY
360
354
102
}
102
{ACAD_REACTORS
330
67
102
}
330
67
100
AcDbModelDocViewStyle
 70
     0
  3
Imperial24
290
     0
100
AcDbSectionViewStyle
 70
     0
 71
     0
 90
       78
 71
     1
340
55
 62
   256
 40
0.24
340
0
340
0
 62
   256
 40
0.24
300
I, O, Q, S, X, Z
 40
0.48
 90
        3
 40
0.18
 90
        1
 71
     2
340
5C
 90
       25
 62
   256
340
5C
 90
       50
 62
   256
 40
0.24
 40
0.0
 40
0.24
 71
     3
340
55
 62
   256
 40
0.24
 90
        1
 40
0.75
 90
        1
300
%<\AcVar ViewType \f "%tc1">% %<\AcVar ViewSectionStartId>%-%<\AcVar ViewSectionEndId>%\PVARIA %<\AcVar ViewScale \f "%sn">%
 71
     4
 62
   256
 62
   257
300
ANSI31
 40
1.0
 90
        0
290
     0
290
     0
 90
        6
 40
0.0
 40
1.570796326794896
 40
0.2617993877991494
 40
1.308996938995747
 40
-0.2617993877991494
 40
1.832595714594046
  0
TABLESTYLE
  5
64
102
{ACAD_XDICTIONARY
360
352
102
}
102
{ACAD_REACTORS
330
63
102
}
330
63
100
AcDbTableStyle
280
     0
  3
Standard
 70
     0
 71
     0
 40
0.06
 41
0.06
280
     0
281
     0
  7
STANDARD
140
0.18
170
     2
 62
     0
 63
     7
283
     0
 90
      512
 91
        0
  1

274
    -2
284
     1
 64
     0
275
    -2
285
     1
 65
     0
276
    -2
286
     1
 66
     0
277
    -2
287
     1
 67
     0
278
    -2
288
     1
 68
     0
279
    -2
289
     1
 69
     0
  7
STANDARD
140
0.25
170
     5
 62
     0
 63
     7
283
     0
 90
      512
 91
        0
  1

274
    -2
284
     1
 64
     0
275
    -2
285
     1
 65
     0
276
    -2
286
     1
 66
     0
277
    -2
287
     1
 67
     0
278
    -2
288
     1
 68
     0
279
    -2
289
     1
 69
     0
  7
STANDARD
140
0.18
170
     5
 62
     0
 63
     7
283
     0
 90
      512
 91
        0
  1

274
    -2
284
     1
 64
     0
275
    -2
285
     1
 65
     0
276
    -2
286
     1
 66
     0
277
    -2
287
     1
 67
     0
278
    -2
288
     1
 68
     0
279
    -2
289
     1
 69
     0
  0
VISUALSTYLE
  5
2F
102
{ACAD_REACTORS
330
29
102
}
330
29
100
AcDbVisualStyle
  2
2dWireframe
 70
     4
177
     3
291
     0
 70
    58
 90
        0
176
     1
 90
        2
176
     1
 90
        0
176
     1
 90
        0
176
     1
 40
0.6
176
     1
 40
30.0
176
     1
 62
     7
420
 16777215
176
     1
 90
        1
176
     1
 90
        4
176
     1
 62
     7
176
     1
 62
   257
176
     1
 90
        1
176
     1
 90
        1
176
     1
 40
1.0
176
     1
 90
        0
176
     1
 62
   257
176
     1
 40
1.0
176
     1
 90
        1
176
     1
 90
        6
176
     1
 90
        2
176
     1
 62
     7
176
     1
 90
        5
176
     1
 90
        0
176
     1
 90
        0
176
     1
290
     0
176
     1
 90
        1
176
     1
 40
0.0
176
     1
 90
        0
176
     1
290
     1
176
     1
290
     1
176
     1
290
     0
176
     1
290
     0
176
     1
290
     0
176
     1
290
     0
176
     1
290
     0
176
     1
290
     0
176
     1
290
     0
176
     1
 90
       50
176
     1
 40
0.0
176
     1
 40
1.0
176
     1
 90
        0
176
     1
 62
    18
420
        0
176
     1
 90
       50
176
     1
 90
        3
176
     1
 62
     5
420
      255
176
     1
290
     0
176
     1
 90
       50
176
     1
 90
       50
176
     1
 90
       50
176
     1
290
     0
176
     1
 90
       50
176
     1
 62
   256
176
     0
 40
1.0
176
     0
 90
        2
176
     1
  1
strokes_ogs.tif
176
     1
290
     0
176
     1
 40
1.0
176
     1
 40
1.0
176
     1
  0
VISUALSTYLE
  5
2E
102
{ACAD_REACTORS
330
29
102
}
330
29
100
AcDbVisualStyle
  2
Basic
 70
     7
177
     3
291
     1
 70
    58
 90
        1
176
     1
 90
        0
176
     1
 90
        1
176
     1
 90
        0
176
     1
 40
0.6
176
     1
 40
30.0
176
     1
 62
     7
420
 16777215
176
     1
 90
        0
176
     1
 90
        4
176
     1
 62
     7
176
     1
 62
   257
176
     1
 90
        1
176
     1
 90
        1
176
     1
 40
1.0
176
     1
 90
        8
176
     1
 62
     7
176
     1
 40
1.0
176
     1
 90
        1
176
     1
 90
        6
176
     1
 90
        2
176
     1
 62
     7
176
     1
 90
        5
176
     1
 90
        0
176
     1
 90
        0
176
     1
290
     0
176
     1
 90
        1
176
     1
 40
0.0
176
     1
 90
        0
176
     1
290
     0
176
     1
290
     1
176
     1
290
     1
176
     1
290
     0
176
     1
290
     0
176
     1
290
     0
176
     1
290
     0
176
     1
290
     0
176
     1
290
     0
176
     1
 90
       50
176
     1
 40
0.0
176
     1
 40
1.0
176
     1
 90
        0
176
     1
 62
    18
420
        0
176
     1
 90
       50
176
     1
 90
        3
176
     1
 62
     5
420
      255
176
     1
290
     0
176
     1
 90
       50
176
     1
 90
       50
176
     1
 90
       50
176
     1
290
     0
176
     1
 90
       50
176
     1
 62
   256
176
     0
 40
1.0
176
     0
 90
        2
176
     1
  1
strokes_ogs.tif
176
     1
290
     0
176
     1
 40
1.0
176
     1
 40
1.0
176
     1
  0
VISUALSTYLE
  5
35
102
{ACAD_REACTORS
330
29
102
}
330
29
100
AcDbVisualStyle
  2
Brighten
 70
    12
177
     3
291
     1
 70
    58
 90
        2
176
     1
 90
        2
176
     1
 90
        0
176
     1
 90
        0
176
     1
 40
0.6
176
     1
 40
30.0
176
     1
 62
     7
420
 16777215
176
     1
 90
        1
176
     1
 90
        4
176
     1
 62
     7
176
     1
 62
   257
176
     1
 90
        1
176
     1
 90
        1
176
     1
 40
1.0
176
     1
 90
        8
176
     1
 62
     7
176
     1
 40
1.0
176
     1
 90
        1
176
     1
 90
        6
176
     1
 90
        2
176
     1
 62
     7
176
     1
 90
        5
176
     1
 90
        0
176
     1
 90
        0
176
     1
290
     0
176
     1
 90
        1
176
     1
 40
50.0
176
     1
 90
        0
176
     1
290
     0
176
     1
290
     1
176
     1
290
     1
176
     1
290
     0
176
     1
290
     0
176
     1
290
     0
176
     1
290
     0
176
     1
290
     0
176
     1
290
     0
176
     1
 90
       50
176
     1
 40
0.0
176
     1
 40
1.0
176
     1
 90
        0
176
     1
 62
    18
420
        0
176
     1
 90
       50
176
     1
 90
        3
176
     1
 62
     5
420
      255
176
     1
290
     0
176
     1
 90
       50
176
     1
 90
       50
176
     1
 90
       50
176
     1
290
     0
176
     1
 90
       50
176
     1
 62
   256
176
     0
 40
1.0
176
     0
 90
        2
176
     1
  1
strokes_ogs.tif
176
     1
290
     0
176
     1
 40
1.0
176
     1
 40
1.0
176
     1
  0
VISUALSTYLE
  5
39
102
{ACAD_REACTORS
330
29
102
}
330
29
100
AcDbVisualStyle
  2
ColorChange
 70
    16
177
     3
291
     1
 70
    58
 90
        2
176
     1
 90
        2
176
     1
 90
        3
176
     1
 90
        0
176
     1
 40
0.6
176
     1
 40
30.0
176
     1
 62
     8
420
  8421504
176
     1
 90
        1
176
     1
 90
        4
176
     1
 62
     7
176
     1
 62
   257
176
     1
 90
        1
176
     1
 90
        1
176
     1
 40
1.0
176
     1
 90
        8
176
     1
 62
     8
420
  8421504
176
     1
 40
1.0
176
     1
 90
        1
176
     1
 90
        6
176
     1
 90
        2
176
     1
 62
     7
176
     1
 90
        5
176
     1
 90
        0
176
     1
 90
        0
176
     1
290
     0
176
     1
 90
        1
176
     1
 40
0.0
176
     1
 90
        0
176
     1
290
     0
176
     1
290
     1
176
     1
290
     1
176
     1
290
     0
176
     1
290
     0
176
     1
290
     0
176
     1
290
     0
176
     1
290
     0
176
     1
290
     0
176
     1
 90
       50
176
     1
 40
0.0
176
     1
 40
1.0
176
     1
 90
        0
176
     1
 62
    18
420
        0
176
     1
 90
       50
176
     1
 90
        3
176
     1
 62
     5
420
      255
176
     1
290
     0
176
     1
 90
       50
176
     1
 90
       50
176
     1
 90
       50
176
     1
290
     0
176
     1
 90
       50
176
     1
 62
   256
176
     0
 40
1.0
176
     0
 90
        2
176
     1
  1
strokes_ogs.tif
176
     1
290
     0
176
     1
 40
1.0
176
     1
 40
1.0
176
     1
  0
VISUALSTYLE
  5
32
102
{ACAD_REACTORS
330
29
102
}
330
29
100
AcDbVisualStyle
  2
Conceptual
 70
     9
177
     3
291
     0
 70
    58
 90
        3
176
     1
 90
        2
176
     1
 90
        0
176
     1
 90
        0
176
     1
 40
0.6
176
     1
 40
30.0
176
     1
 62
     7
420
 16777215
176
     1
 90
        2
176
     1
 90
        2
176
     1
 62
     7
176
     1
 62
   257
176
     1
 90
        1
176
     1
 90
        1
176
     1
 40
179.0
176
     1
 90
        8
176
     1
 62
     7
176
     1
 40
1.0
176
     1
 90
        1
176
     1
 90
        6
176
     1
 90
        2
176
     1
 62
     7
176
     1
 90
        3
176
     1
 90
        0
176
     1
 90
        0
176
     1
290
     0
176
     1
 90
        1
176
     1
 40
0.0
176
     1
 90
        0
176
     1
290
     0
176
     1
290
     1
176
     1
290
     1
176
     1
290
     0
176
     1
290
     0
176
     1
290
     0
176
     1
290
     0
176
     1
290
     0
176
     1
290
     0
176
     1
 90
       50
176
     1
 40
0.0
176
     1
 40
1.0
176
     1
 90
        0
176
     1
 62
    18
420
        0
176
     1
 90
       50
176
     1
 90
        3
176
     1
 62
     5
420
      255
176
     1
290
     0
176
     1
 90
       50
176
     1
 90
       50
176
     1
 90
       50
176
     1
290
     0
176
     1
 90
       50
176
     1
 62
   256
176
     0
 40
1.0
176
     0
 90
        2
176
     1
  1
strokes_ogs.tif
176
     1
290
     0
176
     1
 40
1.0
176
     1
 40
1.0
176
     1
  0
VISUALSTYLE
  5
34
102
{ACAD_REACTORS
330
29
102
}
330
29
100
AcDbVisualStyle
  2
Dim
 70
    11
177
     3
291
     1
 70
    58
 90
        2
176
     1
 90
        2
176
     1
 90
        0
176
     1
 90
        0
176
     1
 40
0.6
176
     1
 40
30.0
176
     1
 62
     7
420
 16777215
176
     1
 90
        1
176
     1
 90
        4
176
     1
 62
     7
176
     1
 62
   257
176
     1
 90
        1
176
     1
 90
        1
176
     1
 40
1.0
176
     1
 90
        8
176
     1
 62
     7
176
     1
 40
1.0
176
     1
 90
        1
176
     1
 90
        6
176
     1
 90
        2
176
     1
 62
     7
176
     1
 90
        5
176
     1
 90
        0
176
     1
 90
        0
176
     1
290
     0
176
     1
 90
        1
176
     1
 40
-50.0
176
     1
 90
        0
176
     1
290
     0
176
     1
290
     1
176
     1
290
     1
176
     1
290
     0
176
     1
290
     0
176
     1
290
     0
176
     1
290
     0
176
     1
290
     0
176
     1
290
     0
176
     1
 90
       50
176
     1
 40
0.0
176
     1
 40
1.0
176
     1
 90
        0
176
     1
 62
    18
420
        0
176
     1
 90
       50
176
     1
 90
        3
176
     1
 62
     5
420
      255
176
     1
290
     0
176
     1
 90
       50
176
     1
 90
       50
176
     1
 90
       50
176
     1
290
     0
176
     1
 90
       50
176
     1
 62
   256
176
     0
 40
1.0
176
     0
 90
        2
176
     1
  1
strokes_ogs.tif
176
     1
290
     0
176
     1
 40
1.0
176
     1
 40
1.0
176
     1
  0
VISUALSTYLE
  5
41
102
{ACAD_REACTORS
330
29
102
}
330
29
100
AcDbVisualStyle
  2
EdgeColorOff
 70
    22
177
     3
291
     1
 70
    58
 90
        2
176
     0
 90
        2
176
     0
 90
        0
176
     0
 90
        0
176
     0
 40
0.6
176
     0
 40
30.0
176
     0
 62
     7
420
 16777215
176
     0
 90
        1
176
     0
 90
        4
176
     0
 62
     7
176
     0
 62
   257
176
     0
 90
        1
176
     0
 90
        1
176
     0
 40
1.0
176
     0
 90
        8
176
     2
 62
     7
176
     0
 40
1.0
176
     0
 90
        1
176
     0
 90
        6
176
     0
 90
        2
176
     0
 62
     7
176
     0
 90
        5
176
     0
 90
        0
176
     0
 90
        0
176
     0
290
     0
176
     0
 90
        1
176
     0
 40
0.0
176
     0
 90
        0
176
     0
290
     0
176
     0
290
     1
176
     0
290
     1
176
     0
290
     0
176
     0
290
     0
176
     0
290
     0
176
     0
290
     0
176
     0
290
     0
176
     0
290
     0
176
     0
 90
       50
176
     0
 40
0.0
176
     0
 40
1.0
176
     0
 90
        0
176
     0
 62
    18
420
        0
176
     0
 90
       50
176
     0
 90
        3
176
     0
 62
     5
420
      255
176
     0
290
     0
176
     0
 90
       50
176
     0
 90
       50
176
     0
 90
       50
176
     0
290
     0
176
     0
 90
       50
176
     0
 62
   256
176
     0
 40
1.0
176
     0
 90
        2
176
     0
  1
strokes_ogs.tif
176
     0
290
     0
176
     0
 40
1.0
176
     0
 40
1.0
176
     0
  0
VISUALSTYLE
  5
38
102
{ACAD_REACTORS
330
29
102
}
330
29
100
AcDbVisualStyle
  2
Facepattern
 70
    15
177
     3
291
     1
 70
    58
 90
        2
176
     1
 90
        2
176
     1
 90
        0
176
     1
 90
        0
176
     1
 40
0.6
176
     1
 40
30.0
176
     1
 62
     7
420
 16777215
176
     1
 90
        1
176
     1
 90
        4
176
     1
 62
     7
176
     1
 62
   257
176
     1
 90
        1
176
     1
 90
        1
176
     1
 40
1.0
176
     1
 90
        8
176
     1
 62
     7
176
     1
 40
1.0
176
     1
 90
        1
176
     1
 90
        6
176
     1
 90
        2
176
     1
 62
     7
176
     1
 90
        5
176
     1
 90
        0
176
     1
 90
        0
176
     1
290
     0
176
     1
 90
        1
176
     1
 40
0.0
176
     1
 90
        0
176
     1
290
     0
176
     1
290
     1
176
     1
290
     1
176
     1
290
     0
176
     1
290
     0
176
     1
290
     0
176
     1
290
     0
176
     1
290
     0
176
     1
290
     0
176
     1
 90
       50
176
     1
 40
0.0
176
     1
 40
1.0
176
     1
 90
        0
176
     1
 62
    18
420
        0
176
     1
 90
       50
176
     1
 90
        3
176
     1
 62
     5
420
      255
176
     1
290
     0
176
     1
 90
       50
176
     1
 90
       50
176
     1
 90
       50
176
     1
290
     0
176
     1
 90
       50
176
     1
 62
   256
176
     0
 40
1.0
176
     0
 90
        2
176
     1
  1
strokes_ogs.tif
176
     1
290
     0
176
     1
 40
1.0
176
     1
 40
1.0
176
     1
  0
VISUALSTYLE
  5
2A
102
{ACAD_REACTORS
330
29
102
}
330
29
100
AcDbVisualStyle
  2
Flat
 70
     0
177
     3
291
     1
 70
    58
 90
        2
176
     1
 90
        1
176
     1
 90
        1
176
     1
 90
        2
176
     1
 40
0.6
176
     1
 40
30.0
176
     1
 62
     7
420
 16777215
176
     1
 90
        0
176
     1
 90
        0
176
     1
 62
     7
176
     1
 62
   257
176
     1
 90
        1
176
     1
 90
        1
176
     1
 40
1.0
176
     1
 90
        8
176
     1
 62
     7
176
     1
 40
1.0
176
     1
 90
        1
176
     1
 90
        6
176
     1
 90
        2
176
     1
 62
     7
176
     1
 90
        5
176
     1
 90
        0
176
     1
 90
        0
176
     1
290
     0
176
     1
 90
       13
176
     1
 40
0.0
176
     1
 90
        0
176
     1
290
     0
176
     1
290
     1
176
     1
290
     1
176
     1
290
     0
176
     1
290
     0
176
     1
290
     0
176
     1
290
     0
176
     1
290
     0
176
     1
290
     0
176
     1
 90
       50
176
     1
 40
0.0
176
     1
 40
1.0
176
     1
 90
        0
176
     1
 62
    18
420
        0
176
     1
 90
       50
176
     1
 90
        3
176
     1
 62
     5
420
      255
176
     1
290
     0
176
     1
 90
       50
176
     1
 90
       50
176
     1
 90
       50
176
     1
290
     0
176
     1
 90
       50
176
     1
 62
   256
176
     0
 40
1.0
176
     0
 90
        2
176
     1
  1
strokes_ogs.tif
176
     1
290
     0
176
     1
 40
1.0
176
     1
 40
1.0
176
     1
  0
VISUALSTYLE
  5
2B
102
{ACAD_REACTORS
330
29
102
}
330
29
100
AcDbVisualStyle
  2
FlatWithEdges
 70
     1
177
     3
291
     1
 70
    58
 90
        2
176
     1
 90
        1
176
     1
 90
        1
176
     1
 90
        2
176
     1
 40
0.6
176
     1
 40
30.0
176
     1
 62
     7
420
 16777215
176
     1
 90
        1
176
     1
 90
        0
176
     1
 62
     7
176
     1
 62
   257
176
     1
 90
        1
176
     1
 90
        1
176
     1
 40
1.0
176
     1
 90
        0
176
     1
 62
   257
176
     1
 40
1.0
176
     1
 90
        1
176
     1
 90
        6
176
     1
 90
        2
176
     1
 62
     7
176
     1
 90
        5
176
     1
 90
        0
176
     1
 90
        0
176
     1
290
     0
176
     1
 90
       13
176
     1
 40
0.0
176
     1
 90
        0
176
     1
290
     0
176
     1
290
     1
176
     1
290
     1
176
     1
290
     0
176
     1
290
     0
176
     1
290
     0
176
     1
290
     0
176
     1
290
     0
176
     1
290
     0
176
     1
 90
       50
176
     1
 40
0.0
176
     1
 40
1.0
176
     1
 90
        0
176
     1
 62
    18
420
        0
176
     1
 90
       50
176
     1
 90
        3
176
     1
 62
     5
420
      255
176
     1
290
     0
176
     1
 90
       50
176
     1
 90
       50
176
     1
 90
       50
176
     1
290
     0
176
     1
 90
       50
176
     1
 62
   256
176
     0
 40
1.0
176
     0
 90
        2
176
     1
  1
strokes_ogs.tif
176
     1
290
     0
176
     1
 40
1.0
176
     1
 40
1.0
176
     1
  0
VISUALSTYLE
  5
2C
102
{ACAD_REACTORS
330
29
102
}
330
29
100
AcDbVisualStyle
  2
Gouraud
 70
     2
177
     3
291
     1
 70
    58
 90
        2
176
     1
 90
        2
176
     1
 90
        1
176
     1
 90
        2
176
     1
 40
0.6
176
     1
 40
30.0
176
     1
 62
     7
420
 16777215
176
     1
 90
        0
176
     1
 90
        0
176
     1
 62
     7
176
     1
 62
   257
176
     1
 90
        1
176
     1
 90
        1
176
     1
 40
1.0
176
     1
 90
        0
176
     1
 62
     7
176
     1
 40
1.0
176
     1
 90
        1
176
     1
 90
        6
176
     1
 90
        2
176
     1
 62
     7
176
     1
 90
        5
176
     1
 90
        0
176
     1
 90
        0
176
     1
290
     0
176
     1
 90
       13
176
     1
 40
0.0
176
     1
 90
        0
176
     1
290
     0
176
     1
290
     1
176
     1
290
     1
176
     1
290
     0
176
     1
290
     0
176
     1
290
     0
176
     1
290
     0
176
     1
290
     0
176
     1
290
     0
176
     1
 90
       50
176
     1
 40
0.0
176
     1
 40
1.0
176
     1
 90
        0
176
     1
 62
    18
420
        0
176
     1
 90
       50
176
     1
 90
        3
176
     1
 62
     5
420
      255
176
     1
290
     0
176
     1
 90
       50
176
     1
 90
       50
176
     1
 90
       50
176
     1
290
     0
176
     1
 90
       50
176
     1
 62
   256
176
     0
 40
1.0
176
     0
 90
        2
176
     1
  1
strokes_ogs.tif
176
     1
290
     0
176
     1
 40
1.0
176
     1
 40
1.0
176
     1
  0
VISUALSTYLE
  5
2D
102
{ACAD_REACTORS
330
29
102
}
330
29
100
AcDbVisualStyle
  2
GouraudWithEdges
 70
     3
177
     3
291
     1
 70
    58
 90
        2
176
     1
 90
        2
176
     1
 90
        1
176
     1
 90
        2
176
     1
 40
0.6
176
     1
 40
30.0
176
     1
 62
     7
420
 16777215
176
     1
 90
        1
176
     1
 90
        0
176
     1
 62
     7
176
     1
 62
   257
176
     1
 90
        1
176
     1
 90
        1
176
     1
 40
1.0
176
     1
 90
        0
176
     1
 62
   257
176
     1
 40
1.0
176
     1
 90
        1
176
     1
 90
        6
176
     1
 90
        2
176
     1
 62
     7
176
     1
 90
        5
176
     1
 90
        0
176
     1
 90
        0
176
     1
290
     0
176
     1
 90
       13
176
     1
 40
0.0
176
     1
 90
        0
176
     1
290
     0
176
     1
290
     1
176
     1
290
     1
176
     1
290
     0
176
     1
290
     0
176
     1
290
     0
176
     1
290
     0
176
     1
290
     0
176
     1
290
     0
176
     1
 90
       50
176
     1
 40
0.0
176
     1
 40
1.0
176
     1
 90
        0
176
     1
 62
    18
420
        0
176
     1
 90
       50
176
     1
 90
        3
176
     1
 62
     5
420
      255
176
     1
290
     0
176
     1
 90
       50
176
     1
 90
       50
176
     1
 90
       50
176
     1
290
     0
176
     1
 90
       50
176
     1
 62
   256
176
     0
 40
1.0
176
     0
 90
        2
176
     1
  1
strokes_ogs.tif
176
     1
290
     0
176
     1
 40
1.0
176
     1
 40
1.0
176
     1
  0
VISUALSTYLE
  5
31
102
{ACAD_REACTORS
330
29
102
}
330
29
100
AcDbVisualStyle
  2
Hidden
 70
     6
177
     3
291
     0
 70
    58
 90
        1
176
     1
 90
        2
176
     1
 90
        2
176
     1
 90
        0
176
     1
 40
0.6
176
     1
 40
30.0
176
     1
 62
     7
420
 16777215
176
     1
 90
        2
176
     1
 90
        2
176
     1
 62
     7
176
     1
 62
   257
176
     1
 90
        2
176
     1
 90
        1
176
     1
 40
40.0
176
     1
 90
        0
176
     1
 62
   257
176
     1
 40
1.0
176
     1
 90
        1
176
     1
 90
        6
176
     1
 90
        2
176
     1
 62
     7
176
     1
 90
        3
176
     1
 90
        0
176
     1
 90
        0
176
     1
290
     0
176
     1
 90
        1
176
     1
 40
0.0
176
     1
 90
        0
176
     1
290
     0
176
     1
290
     1
176
     1
290
     1
176
     1
290
     0
176
     1
290
     0
176
     1
290
     0
176
     1
290
     0
176
     1
290
     0
176
     1
290
     0
176
     1
 90
       50
176
     1
 40
0.0
176
     1
 40
1.0
176
     1
 90
        0
176
     1
 62
    18
420
        0
176
     1
 90
       50
176
     1
 90
        3
176
     1
 62
     5
420
      255
176
     1
290
     0
176
     1
 90
       50
176
     1
 90
       50
176
     1
 90
       50
176
     1
290
     0
176
     1
 90
       50
176
     1
 62
   256
176
     0
 40
1.0
176
     0
 90
        2
176
     1
  1
strokes_ogs.tif
176
     1
290
     0
176
     1
 40
1.0
176
     1
 40
1.0
176
     1
  0
VISUALSTYLE
  5
3F
102
{ACAD_REACTORS
330
29
102
}
330
29
100
AcDbVisualStyle
  2
JitterOff
 70
    20
177
     3
291
     1
 70
    58
 90
        2
176
     0
 90
        2
176
     0
 90
        0
176
     0
 90
        0
176
     0
 40
0.6
176
     0
 40
30.0
176
     0
 62
     7
420
 16777215
176
     0
 90
        1
176
     0
 90
        4
176
     0
 62
     7
176
     0
 62
   257
176
     0
 90
        1
176
     0
 90
        1
176
     0
 40
1.0
176
     0
 90
       10
176
     2
 62
     7
176
     0
 40
1.0
176
     0
 90
        1
176
     0
 90
        6
176
     0
 90
        2
176
     0
 62
     7
176
     0
 90
        5
176
     0
 90
        0
176
     0
 90
        0
176
     0
290
     0
176
     0
 90
        1
176
     0
 40
0.0
176
     0
 90
        0
176
     0
290
     0
176
     0
290
     1
176
     0
290
     1
176
     0
290
     0
176
     0
290
     0
176
     0
290
     0
176
     0
290
     0
176
     0
290
     0
176
     0
290
     0
176
     0
 90
       50
176
     0
 40
0.0
176
     0
 40
1.0
176
     0
 90
        0
176
     0
 62
    18
420
        0
176
     0
 90
       50
176
     0
 90
        3
176
     0
 62
     5
420
      255
176
     0
290
     0
176
     0
 90
       50
176
     0
 90
       50
176
     0
 90
       50
176
     0
290
     0
176
     0
 90
       50
176
     0
 62
   256
176
     0
 40
1.0
176
     0
 90
        2
176
     0
  1
strokes_ogs.tif
176
     0
290
     0
176
     0
 40
1.0
176
     0
 40
1.0
176
     0
  0
VISUALSTYLE
  5
37
102
{ACAD_REACTORS
330
29
102
}
330
29
100
AcDbVisualStyle
  2
Linepattern
 70
    14
177
     3
291
     1
 70
    58
 90
        2
176
     1
 90
        2
176
     1
 90
        0
176
     1
 90
        0
176
     1
 40
0.6
176
     1
 40
30.0
176
     1
 62
     7
420
 16777215
176
     1
 90
        1
176
     1
 90
        4
176
     1
 62
     7
176
     1
 62
   257
176
     1
 90
        7
176
     1
 90
        7
176
     1
 40
1.0
176
     1
 90
        8
176
     1
 62
     7
176
     1
 40
1.0
176
     1
 90
        1
176
     1
 90
        6
176
     1
 90
        2
176
     1
 62
     7
176
     1
 90
        5
176
     1
 90
        0
176
     1
 90
        0
176
     1
290
     0
176
     1
 90
        1
176
     1
 40
0.0
176
     1
 90
        0
176
     1
290
     0
176
     1
290
     1
176
     1
290
     1
176
     1
290
     0
176
     1
290
     0
176
     1
290
     0
176
     1
290
     0
176
     1
290
     0
176
     1
290
     0
176
     1
 90
       50
176
     1
 40
0.0
176
     1
 40
1.0
176
     1
 90
        0
176
     1
 62
    18
420
        0
176
     1
 90
       50
176
     1
 90
        3
176
     1
 62
     5
420
      255
176
     1
290
     0
176
     1
 90
       50
176
     1
 90
       50
176
     1
 90
       50
176
     1
290
     0
176
     1
 90
       50
176
     1
 62
   256
176
     0
 40
1.0
176
     0
 90
        2
176
     1
  1
strokes_ogs.tif
176
     1
290
     0
176
     1
 40
1.0
176
     1
 40
1.0
176
     1
  0
VISUALSTYLE
  5
40
102
{ACAD_REACTORS
330
29
102
}
330
29
100
AcDbVisualStyle
  2
OverhangOff
 70
    21
177
     3
291
     1
 70
    58
 90
        2
176
     0
 90
        2
176
     0
 90
        0
176
     0
 90
        0
176
     0
 40
0.6
176
     0
 40
30.0
176
     0
 62
     7
420
 16777215
176
     0
 90
        1
176
     0
 90
        4
176
     0
 62
     7
176
     0
 62
   257
176
     0
 90
        1
176
     0
 90
        1
176
     0
 40
1.0
176
     0
 90
        9
176
     2
 62
     7
176
     0
 40
1.0
176
     0
 90
        1
176
     0
 90
        6
176
     0
 90
        2
176
     0
 62
     7
176
     0
 90
        5
176
     0
 90
        0
176
     0
 90
        0
176
     0
290
     0
176
     0
 90
        1
176
     0
 40
0.0
176
     0
 90
        0
176
     0
290
     0
176
     0
290
     1
176
     0
290
     1
176
     0
290
     0
176
     0
290
     0
176
     0
290
     0
176
     0
290
     0
176
     0
290
     0
176
     0
290
     0
176
     0
 90
       50
176
     0
 40
0.0
176
     0
 40
1.0
176
     0
 90
        0
176
     0
 62
    18
420
        0
176
     0
 90
       50
176
     0
 90
        3
176
     0
 62
     5
420
      255
176
     0
290
     0
176
     0
 90
       50
176
     0
 90
       50
176
     0
 90
       50
176
     0
290
     0
176
     0
 90
       50
176
     0
 62
   256
176
     0
 40
1.0
176
     0
 90
        2
176
     0
  1
strokes_ogs.tif
176
     0
290
     0
176
     0
 40
1.0
176
     0
 40
1.0
176
     0
  0
VISUALSTYLE
  5
33
102
{ACAD_REACTORS
330
29
102
}
330
29
100
AcDbVisualStyle
  2
Realistic
 70
     8
177
     3
291
     0
 70
    58
 90
        2
176
     1
 90
        3
176
     1
 90
        0
176
     1
 90
        2
176
     1
 40
0.6
176
     1
 40
30.0
176
     1
 62
     7
420
 16777215
176
     1
 90
        0
176
     1
 90
        0
176
     1
 62
     7
176
     1
 62
   257
176
     1
 90
        1
176
     1
 90
        1
176
     1
 40
1.0
176
     1
 90
        8
176
     1
 62
   257
176
     1
 40
1.0
176
     1
 90
        1
176
     1
 90
        6
176
     1
 90
        2
176
     1
 62
     7
176
     1
 90
        3
176
     1
 90
        0
176
     1
 90
        0
176
     1
290
     0
176
     1
 90
       13
176
     1
 40
0.0
176
     1
 90
        0
176
     1
290
     0
176
     1
290
     1
176
     1
290
     1
176
     1
290
     0
176
     1
290
     0
176
     1
290
     0
176
     1
290
     0
176
     1
290
     0
176
     1
290
     0
176
     1
 90
       50
176
     1
 40
0.0
176
     1
 40
1.0
176
     1
 90
        0
176
     1
 62
    18
420
        0
176
     1
 90
       50
176
     1
 90
        3
176
     1
 62
     5
420
      255
176
     1
290
     0
176
     1
 90
       50
176
     1
 90
       50
176
     1
 90
       50
176
     1
290
     0
176
     1
 90
       50
176
     1
 62
   256
176
     0
 40
1.0
176
     0
 90
        2
176
     1
  1
strokes_ogs.tif
176
     1
290
     0
176
     1
 40
1.0
176
     1
 40
1.0
176
     1
  0
VISUALSTYLE
  5
3E
102
{ACAD_REACTORS
330
29
102
}
330
29
100
AcDbVisualStyle
  2
Shaded
 70
    27
177
     3
291
     0
 70
    58
 90
        2
176
     1
 90
        2
176
     1
 90
        1
176
     1
 90
        2
176
     1
 40
0.6
176
     1
 40
30.0
176
     1
 62
     7
420
 16777215
176
     1
 90
        0
176
     1
 90
        4
176
     1
 62
     7
176
     1
 62
   257
176
     1
 90
        1
176
     1
 90
        1
176
     1
 40
1.0
176
     1
 90
        8
176
     1
 62
   257
176
     1
 40
1.0
176
     1
 90
        1
176
     1
 90
        6
176
     1
 90
        2
176
     1
 62
     8
420
  7895160
176
     1
 90
        3
176
     1
 90
        0
176
     1
 90
        0
176
     1
290
     0
176
     1
 90
        5
176
     1
 40
0.0
176
     1
 90
        0
176
     1
290
     0
176
     1
290
     1
176
     1
290
     1
176
     1
290
     0
176
     1
290
     0
176
     1
290
     0
176
     1
290
     0
176
     1
290
     0
176
     1
290
     0
176
     1
 90
       50
176
     1
 40
0.0
176
     1
 40
1.0
176
     1
 90
        0
176
     1
 62
    18
420
        0
176
     1
 90
       50
176
     1
 90
        3
176
     1
 62
     5
420
      255
176
     1
290
     0
176
     1
 90
       50
176
     1
 90
       50
176
     1
 90
       50
176
     1
290
     0
176
     1
 90
       50
176
     1
 62
   256
176
     0
 40
1.0
176
     0
 90
        2
176
     1
  1
strokes_ogs.tif
176
     1
290
     0
176
     1
 40
1.0
176
     1
 40
1.0
176
     1
  0
VISUALSTYLE
  5
3D
102
{ACAD_REACTORS
330
29
102
}
330
29
100
AcDbVisualStyle
  2
Shaded with edges
 70
    26
177
     3
291
     0
 70
    58
 90
        2
176
     1
 90
        2
176
     1
 90
        1
176
     1
 90
        2
176
     1
 40
0.6
176
     1
 40
30.0
176
     1
 62
     7
420
 16777215
176
     1
 90
        1
176
     1
 90
       10
176
     1
 62
     7
176
     1
 62
   257
176
     1
 90
        2
176
     1
 90
        1
176
     1
 40
1.0
176
     1
 90
        8
176
     1
 62
   257
176
     1
 40
1.0
176
     1
 90
        1
176
     1
 90
        6
176
     1
 90
        2
176
     1
 62
     7
176
     1
 90
        3
176
     1
 90
        0
176
     1
 90
        0
176
     1
290
     0
176
     1
 90
        5
176
     1
 40
0.0
176
     1
 90
        0
176
     1
290
     0
176
     1
290
     1
176
     1
290
     1
176
     1
290
     0
176
     1
290
     0
176
     1
290
     0
176
     1
290
     0
176
     1
290
     0
176
     1
290
     0
176
     1
 90
       50
176
     1
 40
0.0
176
     1
 40
1.0
176
     1
 90
        0
176
     1
 62
    18
420
        0
176
     1
 90
       50
176
     1
 90
        3
176
     1
 62
     5
420
      255
176
     1
290
     0
176
     1
 90
       50
176
     1
 90
       50
176
     1
 90
       50
176
     1
290
     0
176
     1
 90
       50
176
     1
 62
   256
176
     0
 40
1.0
176
     0
 90
        2
176
     1
  1
strokes_ogs.tif
176
     1
290
     0
176
     1
 40
1.0
176
     1
 40
1.0
176
     1
  0
VISUALSTYLE
  5
3A
102
{ACAD_REACTORS
330
29
102
}
330
29
100
AcDbVisualStyle
  2
Shades of Gray
 70
    23
177
     3
291
     0
 70
    58
 90
        2
176
     1
 90
        2
176
     1
 90
        3
176
     1
 90
        0
176
     1
 40
0.6
176
     1
 40
30.0
176
     1
 62
     7
420
 16777215
176
     1
 90
        2
176
     1
 90
        2
176
     1
 62
     7
176
     1
 62
     7
176
     1
 90
        1
176
     1
 90
        1
176
     1
 40
40.0
176
     1
 90
        8
176
     1
 62
     7
176
     1
 40
1.0
176
     1
 90
        1
176
     1
 90
        6
176
     1
 90
        2
176
     1
 62
     7
176
     1
 90
        3
176
     1
 90
        0
176
     1
 90
        0
176
     1
290
     0
176
     1
 90
        1
176
     1
 40
0.0
176
     1
 90
        0
176
     1
290
     0
176
     1
290
     1
176
     1
290
     1
176
     1
290
     0
176
     1
290
     0
176
     1
290
     0
176
     1
290
     0
176
     1
290
     0
176
     1
290
     0
176
     1
 90
       50
176
     1
 40
0.0
176
     1
 40
1.0
176
     1
 90
        0
176
     1
 62
    18
420
        0
176
     1
 90
       50
176
     1
 90
        3
176
     1
 62
     5
420
      255
176
     1
290
     0
176
     1
 90
       50
176
     1
 90
       50
176
     1
 90
       50
176
     1
290
     0
176
     1
 90
       50
176
     1
 62
   256
176
     0
 40
1.0
176
     0
 90
        2
176
     1
  1
strokes_ogs.tif
176
     1
290
     0
176
     1
 40
1.0
176
     1
 40
1.0
176
     1
  0
VISUALSTYLE
  5
3B
102
{ACAD_REACTORS
330
29
102
}
330
29
100
AcDbVisualStyle
  2
Sketchy
 70
    24
177
     3
291
     0
 70
    58
 90
        1
176
     1
 90
        2
176
     1
 90
        2
176
     1
 90
        0
176
     1
 40
0.6
176
     1
 40
30.0
176
     1
 62
     7
420
 16777215
176
     1
 90
        2
176
     1
 90
        2
176
     1
 62
     7
176
     1
 62
     7
176
     1
 90
        1
176
     1
 90
        1
176
     1
 40
40.0
176
     1
 90
       11
176
     1
 62
     7
176
     1
 40
1.0
176
     1
 90
        1
176
     1
 90
        6
176
     1
 90
        2
176
     1
 62
     7
176
     1
 90
        6
176
     1
 90
        0
176
     1
 90
        0
176
     1
290
     0
176
     1
 90
        1
176
     1
 40
0.0
176
     1
 90
        0
176
     1
290
     0
176
     1
290
     1
176
     1
290
     1
176
     1
290
     0
176
     1
290
     0
176
     1
290
     0
176
     1
290
     0
176
     1
290
     0
176
     1
290
     0
176
     1
 90
       50
176
     1
 40
0.0
176
     1
 40
1.0
176
     1
 90
        0
176
     1
 62
    18
420
        0
176
     1
 90
       50
176
     1
 90
        3
176
     1
 62
     5
420
      255
176
     1
290
     0
176
     1
 90
       50
176
     1
 90
       50
176
     1
 90
       50
176
     1
290
     0
176
     1
 90
       50
176
     1
 62
   256
176
     0
 40
1.0
176
     0
 90
        2
176
     1
  1
strokes_ogs.tif
176
     1
290
     0
176
     1
 40
1.0
176
     1
 40
1.0
176
     1
  0
VISUALSTYLE
  5
36
102
{ACAD_REACTORS
330
29
102
}
330
29
100
AcDbVisualStyle
  2
Thicken
 70
    13
177
     3
291
     1
 70
    58
 90
        2
176
     1
 90
        2
176
     1
 90
        0
176
     1
 90
        0
176
     1
 40
0.6
176
     1
 40
30.0
176
     1
 62
     7
420
 16777215
176
     1
 90
        1
176
     1
 90
        4
176
     1
 62
     7
176
     1
 62
   257
176
     1
 90
        1
176
     1
 90
        1
176
     1
 40
1.0
176
     1
 90
       12
176
     1
 62
     7
176
     1
 40
1.0
176
     1
 90
        1
176
     1
 90
        6
176
     1
 90
        2
176
     1
 62
     7
176
     1
 90
        5
176
     1
 90
        0
176
     1
 90
        0
176
     1
290
     0
176
     1
 90
        1
176
     1
 40
0.0
176
     1
 90
        0
176
     1
290
     0
176
     1
290
     1
176
     1
290
     1
176
     1
290
     0
176
     1
290
     0
176
     1
290
     0
176
     1
290
     0
176
     1
290
     0
176
     1
290
     0
176
     1
 90
       50
176
     1
 40
0.0
176
     1
 40
1.0
176
     1
 90
        0
176
     1
 62
    18
420
        0
176
     1
 90
       50
176
     1
 90
        3
176
     1
 62
     5
420
      255
176
     1
290
     0
176
     1
 90
       50
176
     1
 90
       50
176
     1
 90
       50
176
     1
290
     0
176
     1
 90
       50
176
     1
 62
   256
176
     0
 40
1.0
176
     0
 90
        2
176
     1
  1
strokes_ogs.tif
176
     1
290
     0
176
     1
 40
1.0
176
     1
 40
1.0
176
     1
  0
VISUALSTYLE
  5
30
102
{ACAD_REACTORS
330
29
102
}
330
29
100
AcDbVisualStyle
  2
Wireframe
 70
     5
177
     3
291
     0
 70
    58
 90
        0
176
     1
 90
        2
176
     1
 90
        0
176
     1
 90
        0
176
     1
 40
0.6
176
     1
 40
30.0
176
     1
 62
     7
420
 16777215
176
     1
 90
        1
176
     1
 90
        4
176
     1
 62
     7
176
     1
 62
   257
176
     1
 90
        1
176
     1
 90
        1
176
     1
 40
1.0
176
     1
 90
        0
176
     1
 62
   257
176
     1
 40
1.0
176
     1
 90
        1
176
     1
 90
        6
176
     1
 90
        2
176
     1
 62
     7
176
     1
 90
        3
176
     1
 90
        0
176
     1
 90
        0
176
     1
290
     0
176
     1
 90
        1
176
     1
 40
0.0
176
     1
 90
        0
176
     1
290
     0
176
     1
290
     1
176
     1
290
     1
176
     1
290
     0
176
     1
290
     0
176
     1
290
     0
176
     1
290
     0
176
     1
290
     0
176
     1
290
     0
176
     1
 90
       50
176
     1
 40
0.0
176
     1
 40
1.0
176
     1
 90
        0
176
     1
 62
    18
420
        0
176
     1
 90
       50
176
     1
 90
        3
176
     1
 62
     5
420
      255
176
     1
290
     0
176
     1
 90
       50
176
     1
 90
       50
176
     1
 90
       50
176
     1
290
     0
176
     1
 90
       50
176
     1
 62
   256
176
     0
 40
1.0
176
     0
 90
        2
176
     1
  1
strokes_ogs.tif
176
     1
290
     0
176
     1
 40
1.0
176
     1
 40
1.0
176
     1
  0
VISUALSTYLE
  5
3C
102
{ACAD_REACTORS
330
29
102
}
330
29
100
AcDbVisualStyle
  2
X-Ray
 70
    25
177
     3
291
     0
 70
    58
 90
        2
176
     1
 90
        2
176
     1
 90
        1
176
     1
 90
        1
176
     1
 40
0.5
176
     1
 40
30.0
176
     1
 62
     7
420
 16777215
176
     1
 90
        1
176
     1
 90
        0
176
     1
 62
     7
176
     1
 62
   257
176
     1
 90
        1
176
     1
 90
        1
176
     1
 40
1.0
176
     1
 90
        8
176
     1
 62
     7
176
     1
 40
1.0
176
     1
 90
        1
176
     1
 90
        6
176
     1
 90
        2
176
     1
 62
     7
176
     1
 90
        3
176
     1
 90
        0
176
     1
 90
        0
176
     1
290
     0
176
     1
 90
       13
176
     1
 40
0.0
176
     1
 90
        0
176
     1
290
     0
176
     1
290
     1
176
     1
290
     1
176
     1
290
     0
176
     1
290
     0
176
     1
290
     0
176
     1
290
     0
176
     1
290
     0
176
     1
290
     0
176
     1
 90
       50
176
     1
 40
0.0
176
     1
 40
1.0
176
     1
 90
        0
176
     1
 62
    18
420
        0
176
     1
 90
       50
176
     1
 90
        3
176
     1
 62
     5
420
      255
176
     1
290
     0
176
     1
 90
       50
176
     1
 90
       50
176
     1
 90
       50
176
     1
290
     0
176
     1
 90
       50
176
     1
 62
   256
176
     0
 40
1.0
176
     0
 90
        2
176
     1
  1
strokes_ogs.tif
176
     1
290
     0
176
     1
 40
1.0
176
     1
 40
1.0
176
     1
  0
DICTIONARYVAR
  5
350
102
{ACAD_REACTORS
330
34B
102
}
330
34B
100
DictionaryVariables
280
     0
  1
1:1
  0
DICTIONARYVAR
  5
34D
102
{ACAD_REACTORS
330
34B
102
}
330
34B
100
DictionaryVariables
280
     0
  1
STANDARD
  0
DICTIONARYVAR
  5
34C
102
{ACAD_REACTORS
330
34B
102
}
330
34B
100
DictionaryVariables
280
     0
  1
STANDARD
  0
DICTIONARYVAR
  5
34E
102
{ACAD_REACTORS
330
34B
102
}
330
34B
100
DictionaryVariables
280
     0
  1
Imperial24
  0
DICTIONARYVAR
  5
34F
102
{ACAD_REACTORS
330
34B
102
}
330
34B
100
DictionaryVariables
280
     0
  1
Imperial24
  0
DICTIONARY
  5
356
330
6A
100
AcDbDictionary
280
     1
281
     1
  3
ACAD_XREC_ROUNDTRIP
360
357
  0
DICTIONARY
  5
1A
330
19
100
AcDbDictionary
280
     1
281
     1
  3
BUMPTILE
360
1C
  3
DIFFUSETILE
360
1B
  3
OPACITYTILE
360
1F
  3
REFLECTIONTILE
360
1E
  3
REFRACTIONTILE
360
20
  3
SPECULARTILE
360
1D
  0
DICTIONARY
  5
12
330
11
100
AcDbDictionary
280
     1
281
     1
  3
BUMPTILE
360
14
  3
DIFFUSETILE
360
13
  3
OPACITYTILE
360
17
  3
REFLECTIONTILE
360
16
  3
REFRACTIONTILE
360
18
  3
SPECULARTILE
360
15
  0
DICTIONARY
  5
22
330
21
100
AcDbDictionary
280
     1
281
     1
  3
BUMPTILE
360
24
  3
DIFFUSETILE
360
23
  3
OPACITYTILE
360
27
  3
REFLECTIONTILE
360
26
  3
REFRACTIONTILE
360
28
  3
SPECULARTILE
360
25
  0
DICTIONARY
  5
354
330
68
100
AcDbDictionary
280
     1
281
     1
  3
ACAD_XREC_ROUNDTRIP
360
355
  0
DICTIONARY
  5
352
330
64
100
AcDbDictionary
280
     1
281
     1
  3
ACAD_ROUNDTRIP_2008_TABLESTYLE_CELLSTYLEMAP
360
353
  0
XRECORD
  5
357
102
{ACAD_REACTORS
330
356
102
}
330
356
100
AcDbXrecord
280
     1
102
DISPLAYNAME
  1
Imperial24
102
FLAGS
 90
        0
  0
XRECORD
  5
1C
102
{ACAD_REACTORS
330
1A
102
}
330
1A
100
AcDbXrecord
280
     1
270
     1
271
     1
  0
XRECORD
  5
1B
102
{ACAD_REACTORS
330
1A
102
}
330
1A
100
AcDbXrecord
280
     1
270
     1
271
     1
  0
XRECORD
  5
1F
102
{ACAD_REACTORS
330
1A
102
}
330
1A
100
AcDbXrecord
280
     1
270
     1
271
     1
  0
XRECORD
  5
1E
102
{ACAD_REACTORS
330
1A
102
}
330
1A
100
AcDbXrecord
280
     1
270
     1
271
     1
  0
XRECORD
  5
20
102
{ACAD_REACTORS
330
1A
102
}
330
1A
100
AcDbXrecord
280
     1
270
     1
271
     1
  0
XRECORD
  5
1D
102
{ACAD_REACTORS
330
1A
102
}
330
1A
100
AcDbXrecord
280
     1
270
     1
271
     1
  0
XRECORD
  5
14
102
{ACAD_REACTORS
330
12
102
}
330
12
100
AcDbXrecord
280
     1
270
     1
271
     1
  0
XRECORD
  5
13
102
{ACAD_REACTORS
330
12
102
}
330
12
100
AcDbXrecord
280
     1
270
     1
271
     1
  0
XRECORD
  5
17
102
{ACAD_REACTORS
330
12
102
}
330
12
100
AcDbXrecord
280
     1
270
     1
271
     1
  0
XRECORD
  5
16
102
{ACAD_REACTORS
330
12
102
}
330
12
100
AcDbXrecord
280
     1
270
     1
271
     1
  0
XRECORD
  5
18
102
{ACAD_REACTORS
330
12
102
}
330
12
100
AcDbXrecord
280
     1
270
     1
271
     1
  0
XRECORD
  5
15
102
{ACAD_REACTORS
330
12
102
}
330
12
100
AcDbXrecord
280
     1
270
     1
271
     1
  0
XRECORD
  5
24
102
{ACAD_REACTORS
330
22
102
}
330
22
100
AcDbXrecord
280
     1
270
     1
271
     1
  0
XRECORD
  5
23
102
{ACAD_REACTORS
330
22
102
}
330
22
100
AcDbXrecord
280
     1
270
     1
271
     1
  0
XRECORD
  5
27
102
{ACAD_REACTORS
330
22
102
}
330
22
100
AcDbXrecord
280
     1
270
     1
271
     1
  0
XRECORD
  5
26
102
{ACAD_REACTORS
330
22
102
}
330
22
100
AcDbXrecord
280
     1
270
     1
271
     1
  0
XRECORD
  5
28
102
{ACAD_REACTORS
330
22
102
}
330
22
100
AcDbXrecord
280
     1
270
     1
271
     1
  0
XRECORD
  5
25
102
{ACAD_REACTORS
330
22
102
}
330
22
100
AcDbXrecord
280
     1
270
     1
271
     1
  0
XRECORD
  5
355
102
{ACAD_REACTORS
330
354
102
}
330
354
100
AcDbXrecord
280
     1
102
DISPLAYNAME
  1
Imperial24
102
FLAGS
 90
        0
  0
CELLSTYLEMAP
  5
353
102
{ACAD_REACTORS
330
352
102
}
330
352
100
AcDbCellStyleMap
 90
        3
300
CELLSTYLE
  1
TABLEFORMAT_BEGIN
 90
        5
170
     1
 91
        0
 92
    32768
 62
   257
 93
        1
300
CONTENTFORMAT
  1
CONTENTFORMAT_BEGIN
 90
        0
 91
        0
 92
      512
 93
        0
300

 40
0.0
140
1.0
 94
        5
 62
     0
340
55
144
0.25
309
CONTENTFORMAT_END
171
     0
 94
        0
309
TABLEFORMAT_END
  1
CELLSTYLE_BEGIN
 90
        1
 91
        1
300
_TITLE
309
CELLSTYLE_END
300
CELLSTYLE
  1
TABLEFORMAT_BEGIN
 90
        5
170
     1
 91
        0
 92
        0
 62
   257
 93
        1
300
CONTENTFORMAT
  1
CONTENTFORMAT_BEGIN
 90
        0
 91
        0
 92
      512
 93
        0
300

 40
0.0
140
1.0
 94
        5
 62
     0
340
55
144
0.18
309
CONTENTFORMAT_END
171
     0
 94
        0
309
TABLEFORMAT_END
  1
CELLSTYLE_BEGIN
 90
        2
 91
        1
300
_HEADER
309
CELLSTYLE_END
300
CELLSTYLE
  1
TABLEFORMAT_BEGIN
 90
        5
170
     1
 91
        0
 92
        0
 62
   257
 93
        1
300
CONTENTFORMAT
  1
CONTENTFORMAT_BEGIN
 90
        0
 91
        0
 92
      512
 93
        0
300

 40
0.0
140
1.0
 94
        2
 62
     0
340
55
144
0.18
309
CONTENTFORMAT_END
171
     0
 94
        0
309
TABLEFORMAT_END
  1
CELLSTYLE_BEGIN
 90
        3
 91
        2
300
_DATA
309
CELLSTYLE_END
  0
ENDSEC
  0
SECTION
  2
ACDSDATA
 70
     2
 71
     6
  0
ACDSSCHEMA
 90
        0
  1
AcDb_Thumbnail_Schema
  2
AcDbDs::ID
280
    10
 91
        8
  2
Thumbnail_Data
280
    15
 91
        0
101
ACDSRECORD
 95
        0
 90
        1
  2
AcDbDs::TreatedAsObjectData
280
     1
291
     1
101
ACDSRECORD
 95
        0
 90
        2
  2
AcDbDs::Legacy
280
     1
291
     1
101
ACDSRECORD
  1
AcDbDs::ID
 90
        3
  2
AcDs:Indexable
280
     1
291
     1
101
ACDSRECORD
  1
AcDbDs::ID
 90
        4
  2
AcDbDs::HandleAttribute
280
     7
282
     1
  0
ACDSSCHEMA
 90
        1
  1
AcDbDs::TreatedAsObjectDataSchema
  2
AcDbDs::TreatedAsObjectData
280
     1
 91
        0
  0
ACDSSCHEMA
 90
        2
  1
AcDbDs::LegacySchema
  2
AcDbDs::Legacy
280
     1
 91
        0
  0
ACDSSCHEMA
 90
        3
  1
AcDbDs::IndexedPropertySchema
  2
AcDs:Indexable
280
     1
 91
        0
  0
ACDSSCHEMA
 90
        4
  1
AcDbDs::HandleAttributeSchema
  2
AcDbDs::HandleAttribute
280
     7
 91
        1
284
     1
  0
ACDSRECORD
 90
        0
  2
AcDbDs::ID
280
    10
320
72
  2
Thumbnail_Data
280
    15
 94
     1888
310
89504E470D0A1A0A0000000D49484452000001000000009B0803000000BA7AB56000000300504C54455B5B5B000000C8C8C80000000000000000000000000000000000000000000000000000330000660000990000CC0000FF0033000033330033660033990033CC0033FF0066000066330066660066990066CC0066FF0099
310
000099330099660099990099CC0099FF00CC0000CC3300CC6600CC9900CCCC00CCFF00FF0000FF3300FF6600FF9900FFCC00FFFF3300003300333300663300993300CC3300FF3333003333333333663333993333CC3333FF3366003366333366663366993366CC3366FF3399003399333399663399993399CC3399FF33CC00
310
33CC3333CC6633CC9933CCCC33CCFF33FF0033FF3333FF6633FF9933FFCC33FFFF6600006600336600666600996600CC6600FF6633006633336633666633996633CC6633FF6666006666336666666666996666CC6666FF6699006699336699666699996699CC6699FF66CC0066CC3366CC6666CC9966CCCC66CCFF66FF0066
310
FF3366FF6666FF9966FFCC66FFFF9900009900339900669900999900CC9900FF9933009933339933669933999933CC9933FF9966009966339966669966999966CC9966FF9999009999339999669999999999CC9999FF99CC0099CC3399CC6699CC9999CCCC99CCFF99FF0099FF3399FF6699FF9999FFCC99FFFFCC0000CC00
310
33CC0066CC0099CC00CCCC00FFCC3300CC3333CC3366CC3399CC33CCCC33FFCC6600CC6633CC6666CC6699CC66CCCC66FFCC9900CC9933CC9966CC9999CC99CCCC99FFCCCC00CCCC33CCCC66CCCC99CCCCCCCCCCFFCCFF00CCFF33CCFF66CCFF99CCFFCCCCFFFFFF0000FF0033FF0066FF0099FF00CCFF00FFFF3300FF3333
310
FF3366FF3399FF33CCFF33FFFF6600FF6633FF6666FF6699FF66CCFF66FFFF9900FF9933FF9966FF9999FF99CCFF99FFFFCC00FFCC33FFCC66FFCC99FFCCCCFFCCFFFFFF00FFFF33FFFF66FFFF99FFFFCCFFFFFF0000000D0D0D1A1A1A2828283535354343435050505D5D5D6B6B6B787878868686939393A1A1A1AEAEAEBB
310
BBBBC9C9C9D6D6D6E4E4E4F1F1F1FFFFFF00000000000000000000000000000000000000000000000000000000000054549EDE0000041B4944415478DAED9D4182E42008453D0E9B7FFF1D679B9EAA44413149A757F275D1D35DB5E205F0839829450AF9DA006097FB2AFE343700843852937802A082C899031EDB9F938094
310
B201B00328E43960466034382F8001C1F793D20B83E44AD0D87F30F036E71444B11446FD07D901942B001F0220B4BF18156CDD8110C00701E8ECF7D6A242A005C0F6FCC7DD6F90046400F0A99B9336446E23A09C0980C809BCA9F52F210A035B0BB65F0D01F0A401BB0542BC382091C3F6B94BFD0A2400E09CE1270CE41B12
310
A004801A0604F91043041CB5E1B75342E001E800A013C63908C89D0F0C3208B9EA63B978FA4767B4CBF9C93A043231FF0C8063C707CA48202B00F43AC06B8164E5915C49C0666EDF2008CF0D5200B035C01100FD29D1617A92E372B96A04E0382CF01F3720C8E801252C82AC8798165902277806C01D147855206909A0F42E
310
D0329FF90E22B90058E107970FD1129F3B315ADC0942005D9243DBFA6A1EB47F4A2A00D632E7FF7EAB74A9706504B7D550AF7B0F3EA626C6D2DB813CB0DFCABE9A06E0F7446405803EE5B94D12759064D93090EB964835AF533E40573B62D55C28375D21D70E09EC37E533324E5EBBBE98698F212AA1901CC0DCFE4202203A
310
2BF199312180E6FB083AE55D6628595D00E76E1801E81BE73943A0B403314207E8A6C672019007F6CF2C1E3B08491D609C1B47543D82C6FEAE3A2E6965C06570BBF200298709F526B85D932CE1AD3ABDCF6E4099A9C3F5CDD747FA26AD06D033BD5FBB76DF274AA303D4E9BFFB6D62E1B6A0C4EEFFECB1BAEA280F00FDAD4C
310
587A1394F7F6B75271E5CBE5F207FBEB5D8295E725E42FF6A30E512C9C03BCFBBE78FE4B27C17ACEF5C2FE76228475E7C7F1BD3FFFDE7E7336B66608404CFE7A61FFFA77074CC35FCB1B00AB4F0AC1C8187D07607D0F387F5202103BF4A8EF002C4D4050DA28A43ED83203A3979E1A162762F4C2FCE9535F3B09CA23211C9C
310
7FB78659AA3139D5CB3D3FAA85B38D45E8ECF107778A3F7B68BAB9109D2B9E804BC6B9982E0C30698FA7B57F7402C4F7E751EFD2A62750E29617B23AC07437186BC992773D229000805C38415D89EDFF5B4010BD943744C0F552E21101DD4B997B04846FA55672FB3D01CED7922BB9FDBFED9D2F2D8448086C00EC4120EC69
310
E04D32577600C20E802104A0AAC400BE8785CA0AA01E03523841FC2EADB309AC9400D48C0C282780834094078401801903D7F4BBE66458FA1CA0E405705C11CDDF060CA7C581F3BA88A6978D32CB00D12640A19B95DCFE2F00F0DAFF1F00E2E16996C2512743833C47C19F1F6339CCD339882702D83B27C26ED87680BDF6DA
310
6BAFBDF662DCDF841DC056381BC006B0016C00AC00841C80940D801A8090E7008EFC480FA04CFF9F209E0D52E80582D02BA4200CD814A2D02BE4CE09184B04A12F9184BE44AC61C05B230B7D8F400A7B8FE4270CF62800CFFA07DB5E08B176D193440000000049454E44AE426082
  0
ENDSEC
  0
EOF
