  0
SECTION
  2
HEADER
  9
$ACADVER
  1
AC1027
  9
$ACADMAINTVER
 70
    55
  9
$DWGCODEPAGE
  3
ANSI_1252
  9
$LASTSAVEDBY
  1
crinne
  9
$REQUIREDVERSIONS
160
                 0
  9
$INSBASE
 10
0.0
 20
0.0
 30
0.0
  9
$EXTMIN
 10
334.6852871993988
 20
-1965.378983103061
 30
0.0
  9
$EXTMAX
 10
402.7863587377668
 20
-1860.636360514366
 30
0.0
  9
$LIMMIN
 10
-2600.0
 20
-2600.0
  9
$LIMMAX
 10
2000.0
 20
200.0
  9
$ORTHOMODE
 70
     0
  9
$REGENMODE
 70
     1
  9
$FILLMODE
 70
     1
  9
$QTEXTMODE
 70
     0
  9
$MIRRTEXT
 70
     1
  9
$LTSCALE
 40
25.0
  9
$ATTMODE
 70
     1
  9
$TEXTSIZE
 40
3.5
  9
$TRACEWID
 40
1.0
  9
$TEXTSTYLE
  7
STANDARD
  9
$CLAYER
  8
GRABUNGSGRENZE
  9
$CELTYPE
  6
ByLayer
  9
$CECOLOR
 62
   256
  9
$CELTSCALE
 40
1.0
  9
$DISPSILH
 70
     0
  9
$DIMSCALE
 40
1.0
  9
$DIMASZ
 40
3.5
  9
$DIMEXO
 40
0.1
  9
$DIMDLI
 40
7.0
  9
$DIMRND
 40
0.0
  9
$DIMDLE
 40
0.0
  9
$DIMEXE
 40
1.8
  9
$DIMTP
 40
0.0
  9
$DIMTM
 40
0.0
  9
$DIMTXT
 40
3.5
  9
$DIMCEN
 40
1.5
  9
$DIMTSZ
 40
0.0
  9
$DIMTOL
 70
     0
  9
$DIMLIM
 70
     0
  9
$DIMTIH
 70
     0
  9
$DIMTOH
 70
     0
  9
$DIMSE1
 70
     0
  9
$DIMSE2
 70
     0
  9
$DIMTAD
 70
     0
  9
$DIMZIN
 70
     0
  9
$DIMBLK
  1

  9
$DIMASO
 70
     1
  9
$DIMSHO
 70
     0
  9
$DIMPOST
  1

  9
$DIMAPOST
  1

  9
$DIMALT
 70
     0
  9
$DIMALTD
 70
     2
  9
$DIMALTF
 40
25.4
  9
$DIMLFAC
 40
1.0
  9
$DIMTOFL
 70
     0
  9
$DIMTVP
 40
0.0
  9
$DIMTIX
 70
     0
  9
$DIMSOXD
 70
     0
  9
$DIMSAH
 70
     0
  9
$DIMBLK1
  1

  9
$DIMBLK2
  1

  9
$DIMSTYLE
  2
Standard
  9
$DIMCLRD
 70
     0
  9
$DIMCLRE
 70
     0
  9
$DIMCLRT
 70
     0
  9
$DIMTFAC
 40
1.0
  9
$DIMGAP
 40
0.09
  9
$DIMJUST
 70
     0
  9
$DIMSD1
 70
     0
  9
$DIMSD2
 70
     0
  9
$DIMTOLJ
 70
     1
  9
$DIMTZIN
 70
     0
  9
$DIMALTZ
 70
     0
  9
$DIMALTTZ
 70
     0
  9
$DIMUPT
 70
     0
  9
$DIMDEC
 70
     2
  9
$DIMTDEC
 70
     2
  9
$DIMALTU
 70
     2
  9
$DIMALTTD
 70
     2
  9
$DIMTXSTY
  7
STANDARD
  9
$DIMAUNIT
 70
     0
  9
$DIMADEC
 70
     0
  9
$DIMALTRND
 40
0.0
  9
$DIMAZIN
 70
     0
  9
$DIMDSEP
 70
    46
  9
$DIMATFIT
 70
     3
  9
$DIMFRAC
 70
     0
  9
$DIMLDRBLK
  1

  9
$DIMLUNIT
 70
     2
  9
$DIMLWD
 70
    -2
  9
$DIMLWE
 70
    -2
  9
$DIMTMOVE
 70
     2
  9
$DIMFXL
 40
1.0
  9
$DIMFXLON
 70
     0
  9
$DIMJOGANG
 40
0.7853981633974483
  9
$DIMTFILL
 70
     0
  9
$DIMTFILLCLR
 70
     0
  9
$DIMARCSYM
 70
     0
  9
$DIMLTYPE
  6

  9
$DIMLTEX1
  6

  9
$DIMLTEX2
  6

  9
$DIMTXTDIRECTION
 70
     0
  9
$LUNITS
 70
     2
  9
$LUPREC
 70
     2
  9
$SKETCHINC
 40
1.0
  9
$FILLETRAD
 40
0.0
  9
$AUNITS
 70
     0
  9
$AUPREC
 70
     0
  9
$MENU
  1
ACAD
  9
$ELEVATION
 40
0.0
  9
$PELEVATION
 40
0.0
  9
$THICKNESS
 40
0.0
  9
$LIMCHECK
 70
     0
  9
$CHAMFERA
 40
0.0
  9
$CHAMFERB
 40
0.0
  9
$CHAMFERC
 40
0.0
  9
$CHAMFERD
 40
0.0
  9
$SKPOLY
 70
     0
  9
$TDCREATE
 40
2450595.598545370
  9
$TDUCREATE
 40
2450595.515212037
  9
$TDUPDATE
 40
2459793.591075324
  9
$TDUUPDATE
 40
2459793.507741991
  9
$TDINDWG
 40
0.0132178125
  9
$TDUSRTIMER
 40
0.0132178125
  9
$USRTIMER
 70
     1
  9
$ANGBASE
 50
0.0
  9
$ANGDIR
 70
     0
  9
$PDMODE
 70
     0
  9
$PDSIZE
 40
0.0
  9
$PLINEWID
 40
0.0
  9
$SPLFRAME
 70
     0
  9
$SPLINETYPE
 70
     6
  9
$SPLINESEGS
 70
     8
  9
$HANDSEED
  5
42A
  9
$SURFTAB1
 70
     6
  9
$SURFTAB2
 70
     6
  9
$SURFTYPE
 70
     6
  9
$SURFU
 70
     6
  9
$SURFV
 70
     6
  9
$UCSBASE
  2

  9
$UCSNAME
  2

  9
$UCSORG
 10
0.0
 20
0.0
 30
0.0
  9
$UCSXDIR
 10
1.0
 20
0.0
 30
0.0
  9
$UCSYDIR
 10
0.0
 20
1.0
 30
0.0
  9
$UCSORTHOREF
  2

  9
$UCSORTHOVIEW
 70
     0
  9
$UCSORGTOP
 10
0.0
 20
0.0
 30
0.0
  9
$UCSORGBOTTOM
 10
0.0
 20
0.0
 30
0.0
  9
$UCSORGLEFT
 10
0.0
 20
0.0
 30
0.0
  9
$UCSORGRIGHT
 10
0.0
 20
0.0
 30
0.0
  9
$UCSORGFRONT
 10
0.0
 20
0.0
 30
0.0
  9
$UCSORGBACK
 10
0.0
 20
0.0
 30
0.0
  9
$PUCSBASE
  2

  9
$PUCSNAME
  2

  9
$PUCSORG
 10
0.0
 20
0.0
 30
0.0
  9
$PUCSXDIR
 10
1.0
 20
0.0
 30
0.0
  9
$PUCSYDIR
 10
0.0
 20
1.0
 30
0.0
  9
$PUCSORTHOREF
  2

  9
$PUCSORTHOVIEW
 70
     0
  9
$PUCSORGTOP
 10
0.0
 20
0.0
 30
0.0
  9
$PUCSORGBOTTOM
 10
0.0
 20
0.0
 30
0.0
  9
$PUCSORGLEFT
 10
0.0
 20
0.0
 30
0.0
  9
$PUCSORGRIGHT
 10
0.0
 20
0.0
 30
0.0
  9
$PUCSORGFRONT
 10
0.0
 20
0.0
 30
0.0
  9
$PUCSORGBACK
 10
0.0
 20
0.0
 30
0.0
  9
$USERI1
 70
     0
  9
$USERI2
 70
     0
  9
$USERI3
 70
     0
  9
$USERI4
 70
     0
  9
$USERI5
 70
     0
  9
$USERR1
 40
0.0
  9
$USERR2
 40
0.0
  9
$USERR3
 40
0.0
  9
$USERR4
 40
0.0
  9
$USERR5
 40
0.0
  9
$WORLDVIEW
 70
     1
  9
$SHADEDGE
 70
     3
  9
$SHADEDIF
 70
    70
  9
$TILEMODE
 70
     1
  9
$MAXACTVP
 70
    16
  9
$PINSBASE
 10
0.0
 20
0.0
 30
0.0
  9
$PLIMCHECK
 70
     0
  9
$PEXTMIN
 10
1.000000000000000E+20
 20
1.000000000000000E+20
 30
1.000000000000000E+20
  9
$PEXTMAX
 10
-1.000000000000000E+20
 20
-1.000000000000000E+20
 30
-1.000000000000000E+20
  9
$PLIMMIN
 10
0.0
 20
0.0
  9
$PLIMMAX
 10
12.0
 20
9.0
  9
$UNITMODE
 70
     0
  9
$VISRETAIN
 70
     0
  9
$PLINEGEN
 70
     0
  9
$PSLTSCALE
 70
     0
  9
$TREEDEPTH
 70
  3020
  9
$CMLSTYLE
  2
Standard
  9
$CMLJUST
 70
     0
  9
$CMLSCALE
 40
1.0
  9
$PROXYGRAPHICS
 70
     1
  9
$MEASUREMENT
 70
     0
  9
$CELWEIGHT
370
    -1
  9
$ENDCAPS
280
     0
  9
$JOINSTYLE
280
     0
  9
$LWDISPLAY
290
     0
  9
$INSUNITS
 70
     6
  9
$HYPERLINKBASE
  1

  9
$STYLESHEET
  1

  9
$XEDIT
290
     1
  9
$CEPSNTYPE
380
     0
  9
$PSTYLEMODE
290
     1
  9
$FINGERPRINTGUID
  2
{3D1A5983-B330-4F5A-B686-A598DBD104BF}
  9
$VERSIONGUID
  2
{822731F3-A53A-4852-9EE9-4C491392C23C}
  9
$EXTNAMES
290
     1
  9
$PSVPSCALE
 40
0.0
  9
$OLESTARTUP
290
     0
  9
$SORTENTS
280
   127
  9
$INDEXCTL
280
     0
  9
$HIDETEXT
280
     1
  9
$XCLIPFRAME
280
     2
  9
$HALOGAP
280
     0
  9
$OBSCOLOR
 70
   257
  9
$OBSLTYPE
280
     0
  9
$INTERSECTIONDISPLAY
280
     0
  9
$INTERSECTIONCOLOR
 70
   257
  9
$DIMASSOC
280
     2
  9
$PROJECTNAME
  1

  9
$CAMERADISPLAY
290
     0
  9
$LENSLENGTH
 40
50.0
  9
$CAMERAHEIGHT
 40
0.0
  9
$STEPSPERSEC
 40
2.0
  9
$STEPSIZE
 40
6.0
  9
$3DDWFPREC
 40
2.0
  9
$PSOLWIDTH
 40
0.25
  9
$PSOLHEIGHT
 40
4.0
  9
$LOFTANG1
 40
1.570796326794896
  9
$LOFTANG2
 40
1.570796326794896
  9
$LOFTMAG1
 40
0.0
  9
$LOFTMAG2
 40
0.0
  9
$LOFTPARAM
 70
     7
  9
$LOFTNORMALS
280
     1
  9
$LATITUDE
 40
37.795
  9
$LONGITUDE
 40
-122.394
  9
$NORTHDIRECTION
 40
0.0
  9
$TIMEZONE
 70
 -8000
  9
$LIGHTGLYPHDISPLAY
280
     1
  9
$TILEMODELIGHTSYNCH
280
     1
  9
$CMATERIAL
347
11
  9
$SOLIDHIST
280
     0
  9
$SHOWHIST
280
     1
  9
$DWFFRAME
280
     2
  9
$DGNFRAME
280
     0
  9
$REALWORLDSCALE
290
     1
  9
$INTERFERECOLOR
 62
     1
  9
$INTERFEREOBJVS
345
33
  9
$INTERFEREVPVS
346
30
  9
$CSHADOW
280
     0
  9
$SHADOWPLANELOCATION
 40
0.0
  0
ENDSEC
  0
SECTION
  2
CLASSES
  0
CLASS
  1
ACDBDICTIONARYWDFLT
  2
AcDbDictionaryWithDefault
  3
ObjectDBX Classes
 90
        0
 91
        1
280
     0
281
     0
  0
CLASS
  1
MATERIAL
  2
AcDbMaterial
  3
ObjectDBX Classes
 90
     1153
 91
        3
280
     0
281
     0
  0
CLASS
  1
VISUALSTYLE
  2
AcDbVisualStyle
  3
ObjectDBX Classes
 90
     4095
 91
       24
280
     0
281
     0
  0
CLASS
  1
SCALE
  2
AcDbScale
  3
ObjectDBX Classes
 90
     1153
 91
       17
280
     0
281
     0
  0
CLASS
  1
TABLESTYLE
  2
AcDbTableStyle
  3
ObjectDBX Classes
 90
     4095
 91
        1
280
     0
281
     0
  0
CLASS
  1
MLEADERSTYLE
  2
AcDbMLeaderStyle
  3
ACDB_MLEADERSTYLE_CLASS
 90
     4095
 91
        1
280
     0
281
     0
  0
CLASS
  1
ACDBSECTIONVIEWSTYLE
  2
AcDbSectionViewStyle
  3
ObjectDBX Classes
 90
     1025
 91
        1
280
     0
281
     0
  0
CLASS
  1
ACDBDETAILVIEWSTYLE
  2
AcDbDetailViewStyle
  3
ObjectDBX Classes
 90
     1025
 91
        1
280
     0
281
     0
  0
CLASS
  1
DICTIONARYVAR
  2
AcDbDictionaryVar
  3
ObjectDBX Classes
 90
        0
 91
        5
280
     0
281
     0
  0
CLASS
  1
CELLSTYLEMAP
  2
AcDbCellStyleMap
  3
ObjectDBX Classes
 90
     1152
 91
        1
280
     0
281
     0
  0
ENDSEC
  0
SECTION
  2
TABLES
  0
TABLE
  2
VPORT
  5
8
330
0
100
AcDbSymbolTable
 70
     2
  0
VPORT
  5
90
330
8
100
AcDbSymbolTableRecord
100
AcDbViewportTableRecord
  2
*ACTIVE
 70
     0
 10
0.0
 20
0.0
 11
1.0
 21
1.0
 12
421.065799279707
 22
-1913.007671808713
 13
0.0
 23
0.0
 14
5.0
 24
5.0
 15
100.0
 25
100.0
 16
0.0
 26
0.0
 36
1.0
 17
0.0
 27
0.0
 37
0.0
 40
104.7426225886947
 41
1.649386084583901
 42
50.0
 43
0.0
 44
0.0
 50
0.0
 51
0.0
 71
     0
 72
   100
 73
     1
 74
     0
 75
     0
 76
     1
 77
     0
 78
     0
281
     0
 65
     1
110
0.0
120
0.0
130
0.0
111
1.0
121
0.0
131
0.0
112
0.0
122
1.0
132
0.0
 79
     0
146
0.0
348
2F
 60
     3
 61
     5
292
     1
282
     0
141
0.0
142
0.0
 63
   250
421
  3355443
1001
ACAD_NAV_VCDISPLAY
1070
     3
  0
ENDTAB
  0
TABLE
  2
LTYPE
  5
5
330
0
100
AcDbSymbolTable
 70
    25
  0
LTYPE
  5
5A
330
5
100
AcDbSymbolTableRecord
100
AcDbLinetypeTableRecord
  2
ByBlock
 70
     0
  3

 72
    65
 73
     0
 40
0.0
  0
LTYPE
  5
5B
330
5
100
AcDbSymbolTableRecord
100
AcDbLinetypeTableRecord
  2
ByLayer
 70
     0
  3

 72
    65
 73
     0
 40
0.0
  0
LTYPE
  5
5C
330
5
100
AcDbSymbolTableRecord
100
AcDbLinetypeTableRecord
  2
CONTINUOUS
 70
     0
  3
Ausgezogene Linie
 72
    65
 73
     0
 40
0.0
  0
LTYPE
  5
77
330
5
100
AcDbSymbolTableRecord
100
AcDbLinetypeTableRecord
  2
RAND
 70
     0
  3
__ __ . __ __ . __ __ . __ __ . __ __ . __ __ .
 72
    65
 73
     6
 40
1.75
 49
0.5
 74
     0
 49
-0.25
 74
     0
 49
0.5
 74
     0
 49
-0.25
 74
     0
 49
0.0
 74
     0
 49
-0.25
 74
     0
  0
LTYPE
  5
78
330
5
100
AcDbSymbolTableRecord
100
AcDbLinetypeTableRecord
  2
RAND2
 70
     0
  3
__.__.__.__.__.__.__.__.__.__.__.__.__.__.__.__
 72
    65
 73
     6
 40
0.875
 49
0.25
 74
     0
 49
-0.125
 74
     0
 49
0.25
 74
     0
 49
-0.125
 74
     0
 49
0.0
 74
     0
 49
-0.125
 74
     0
  0
LTYPE
  5
79
330
5
100
AcDbSymbolTableRecord
100
AcDbLinetypeTableRecord
  2
RANDX2
 70
     0
  3
____  ____  .  ____  ____  .  ____  ____  .  __
 72
    65
 73
     6
 40
3.5
 49
1.0
 74
     0
 49
-0.5
 74
     0
 49
1.0
 74
     0
 49
-0.5
 74
     0
 49
0.0
 74
     0
 49
-0.5
 74
     0
  0
LTYPE
  5
7A
330
5
100
AcDbSymbolTableRecord
100
AcDbLinetypeTableRecord
  2
MITTE
 70
     0
  3
____ _ ____ _ ____ _ ____ _ ____ _ ____ _ ____ 
 72
    65
 73
     4
 40
2.0
 49
1.25
 74
     0
 49
-0.25
 74
     0
 49
0.25
 74
     0
 49
-0.25
 74
     0
  0
LTYPE
  5
7B
330
5
100
AcDbSymbolTableRecord
100
AcDbLinetypeTableRecord
  2
MITTE2
 70
     0
  3
___ _ ___ _ ___ _ ___ _ ___ _ ___ _ ___ _ ___ _
 72
    65
 73
     4
 40
1.125
 49
0.75
 74
     0
 49
-0.125
 74
     0
 49
0.125
 74
     0
 49
-0.125
 74
     0
  0
LTYPE
  5
7C
330
5
100
AcDbSymbolTableRecord
100
AcDbLinetypeTableRecord
  2
MITTEX2
 70
     0
  3
________  __  ________  __  ________  __  _____
 72
    65
 73
     4
 40
4.0
 49
2.5
 74
     0
 49
-0.5
 74
     0
 49
0.5
 74
     0
 49
-0.5
 74
     0
  0
LTYPE
  5
7D
330
5
100
AcDbSymbolTableRecord
100
AcDbLinetypeTableRecord
  2
STRICHPUNKT
 70
     0
  3
__ . __ . __ . __ . __ . __ . __ . __ . __ . __
 72
    65
 73
     4
 40
1.0
 49
0.5
 74
     0
 49
-0.25
 74
     0
 49
0.0
 74
     0
 49
-0.25
 74
     0
  0
LTYPE
  5
7E
330
5
100
AcDbSymbolTableRecord
100
AcDbLinetypeTableRecord
  2
STRICHPUNKT2
 70
     0
  3
_._._._._._._._._._._._._._._._._._._._._._._._
 72
    65
 73
     4
 40
0.5
 49
0.25
 74
     0
 49
-0.125
 74
     0
 49
0.0
 74
     0
 49
-0.125
 74
     0
  0
LTYPE
  5
7F
330
5
100
AcDbSymbolTableRecord
100
AcDbLinetypeTableRecord
  2
STRICHPUNKTX2
 70
     0
  3
____  .  ____  .  ____  .  ____  .  ____  .  __
 72
    65
 73
     4
 40
2.0
 49
1.0
 74
     0
 49
-0.5
 74
     0
 49
0.0
 74
     0
 49
-0.5
 74
     0
  0
LTYPE
  5
80
330
5
100
AcDbSymbolTableRecord
100
AcDbLinetypeTableRecord
  2
GESTRICHELT
 70
     0
  3
__ __ __ __ __ __ __ __ __ __ __ __ __ __ __ __
 72
    65
 73
     2
 40
0.75
 49
0.5
 74
     0
 49
-0.25
 74
     0
  0
LTYPE
  5
81
330
5
100
AcDbSymbolTableRecord
100
AcDbLinetypeTableRecord
  2
GESTRICHELT2
 70
     0
  3
_ _ _ _ _ _ _ _ _ _ _ _ _ _ _ _ _ _ _ _ _ _ _ _
 72
    65
 73
     2
 40
0.375
 49
0.25
 74
     0
 49
-0.125
 74
     0
  0
LTYPE
  5
82
330
5
100
AcDbSymbolTableRecord
100
AcDbLinetypeTableRecord
  2
GESTRICHELTX2
 70
     0
  3
____  ____  ____  ____  ____  ____  ____  ____ 
 72
    65
 73
     2
 40
1.5
 49
1.0
 74
     0
 49
-0.5
 74
     0
  0
LTYPE
  5
83
330
5
100
AcDbSymbolTableRecord
100
AcDbLinetypeTableRecord
  2
GETRENNT
 70
     0
  3
____ . . ____ . . ____ . . ____ . . ____ . . __
 72
    65
 73
     6
 40
1.25
 49
0.5
 74
     0
 49
-0.25
 74
     0
 49
0.0
 74
     0
 49
-0.25
 74
     0
 49
0.0
 74
     0
 49
-0.25
 74
     0
  0
LTYPE
  5
84
330
5
100
AcDbSymbolTableRecord
100
AcDbLinetypeTableRecord
  2
GETRENNT2
 70
     0
  3
__..__..__..__..__..__..__..__..__..__..__..__.
 72
    65
 73
     6
 40
0.625
 49
0.25
 74
     0
 49
-0.125
 74
     0
 49
0.0
 74
     0
 49
-0.125
 74
     0
 49
0.0
 74
     0
 49
-0.125
 74
     0
  0
LTYPE
  5
85
330
5
100
AcDbSymbolTableRecord
100
AcDbLinetypeTableRecord
  2
GETRENNTX2
 70
     0
  3
________  .  .  ________  .  .  ________  .  . 
 72
    65
 73
     6
 40
2.5
 49
1.0
 74
     0
 49
-0.5
 74
     0
 49
0.0
 74
     0
 49
-0.5
 74
     0
 49
0.0
 74
     0
 49
-0.5
 74
     0
  0
LTYPE
  5
86
330
5
100
AcDbSymbolTableRecord
100
AcDbLinetypeTableRecord
  2
PUNKT
 70
     0
  3
. . . . . . . . . . . . . . . . . . . . . . . .
 72
    65
 73
     2
 40
0.25
 49
0.0
 74
     0
 49
-0.25
 74
     0
  0
LTYPE
  5
87
330
5
100
AcDbSymbolTableRecord
100
AcDbLinetypeTableRecord
  2
PUNKT2
 70
     0
  3
...............................................
 72
    65
 73
     2
 40
0.125
 49
0.0
 74
     0
 49
-0.125
 74
     0
  0
LTYPE
  5
88
330
5
100
AcDbSymbolTableRecord
100
AcDbLinetypeTableRecord
  2
PUNKTX2
 70
     0
  3
.  .  .  .  .  .  .  .  .  .  .  .  .  .  .  . 
 72
    65
 73
     2
 40
0.5
 49
0.0
 74
     0
 49
-0.5
 74
     0
  0
LTYPE
  5
89
330
5
100
AcDbSymbolTableRecord
100
AcDbLinetypeTableRecord
  2
VERDECKT
 70
     0
  3
__ __ __ __ __ __ __ __ __ __ __ __ __ __ __ __
 72
    65
 73
     2
 40
0.375
 49
0.25
 74
     0
 49
-0.125
 74
     0
  0
LTYPE
  5
8A
330
5
100
AcDbSymbolTableRecord
100
AcDbLinetypeTableRecord
  2
VERDECKT2
 70
     0
  3
_ _ _ _ _ _ _ _ _ _ _ _ _ _ _ _ _ _ _ _ _ _ _ _
 72
    65
 73
     2
 40
0.1875
 49
0.125
 74
     0
 49
-0.0625
 74
     0
  0
LTYPE
  5
8B
330
5
100
AcDbSymbolTableRecord
100
AcDbLinetypeTableRecord
  2
VERDECKTX2
 70
     0
  3
____ ____ ____ ____ ____ ____ ____ ____ ____ __
 72
    65
 73
     2
 40
0.75
 49
0.5
 74
     0
 49
-0.25
 74
     0
  0
LTYPE
  5
8C
330
5
100
AcDbSymbolTableRecord
100
AcDbLinetypeTableRecord
  2
PHANTOM
 70
     0
  3
______  __  __  ______  __  __  ______  __  __ 
 72
    65
 73
     6
 40
2.5
 49
1.25
 74
     0
 49
-0.25
 74
     0
 49
0.25
 74
     0
 49
-0.25
 74
     0
 49
0.25
 74
     0
 49
-0.25
 74
     0
  0
LTYPE
  5
8D
330
5
100
AcDbSymbolTableRecord
100
AcDbLinetypeTableRecord
  2
PHANTOM2
 70
     0
  3
___ _ _ ___ _ _ ___ _ _ ___ _ _ ___ _ _ ___ _ _
 72
    65
 73
     6
 40
1.25
 49
0.625
 74
     0
 49
-0.125
 74
     0
 49
0.125
 74
     0
 49
-0.125
 74
     0
 49
0.125
 74
     0
 49
-0.125
 74
     0
  0
LTYPE
  5
8E
330
5
100
AcDbSymbolTableRecord
100
AcDbLinetypeTableRecord
  2
PHANTOMX2
 70
     0
  3
____________    ____    ____    ____________   
 72
    65
 73
     6
 40
5.0
 49
2.5
 74
     0
 49
-0.5
 74
     0
 49
0.5
 74
     0
 49
-0.5
 74
     0
 49
0.5
 74
     0
 49
-0.5
 74
     0
  0
ENDTAB
  0
TABLE
  2
LAYER
  5
2
102
{ACAD_XDICTIONARY
360
416
102
}
330
0
100
AcDbSymbolTable
 70
    10
  0
LAYER
  5
54
330
2
100
AcDbSymbolTableRecord
100
AcDbLayerTableRecord
  2
0
 70
     0
 62
     7
  6
CONTINUOUS
370
    -3
390
F
347
21
348
0
  0
LAYER
  5
91
330
2
100
AcDbSymbolTableRecord
100
AcDbLayerTableRecord
  2
GRABUNGSGRENZE
 70
     0
 62
     3
  6
STRICHPUNKTX2
370
    -3
390
F
347
21
348
0
  0
LAYER
  5
92
330
2
100
AcDbSymbolTableRecord
100
AcDbLayerTableRecord
  2
BEFUND
 70
     0
 62
     1
  6
CONTINUOUS
370
    -3
390
F
347
21
348
0
  0
LAYER
  5
93
330
2
100
AcDbSymbolTableRecord
100
AcDbLayerTableRecord
  2
STEINE
 70
     0
 62
     4
  6
CONTINUOUS
370
    -3
390
F
347
21
348
0
  0
LAYER
  5
94
330
2
100
AcDbSymbolTableRecord
100
AcDbLayerTableRecord
  2
KNOCHEN
 70
     0
 62
     2
  6
CONTINUOUS
370
    -3
390
F
347
21
348
0
  0
LAYER
  5
95
330
2
100
AcDbSymbolTableRecord
100
AcDbLayerTableRecord
  2
BEFUND_UNSICHER
 70
     0
 62
     1
  6
GESTRICHELT
370
    -3
390
F
347
21
348
0
  0
LAYER
  5
96
330
2
100
AcDbSymbolTableRecord
100
AcDbLayerTableRecord
  2
FEUER
 70
     0
 62
     1
  6
CONTINUOUS
370
    -3
390
F
347
21
348
0
  0
LAYER
  5
97
330
2
100
AcDbSymbolTableRecord
100
AcDbLayerTableRecord
  2
KNOCHENSCHRAFF
 70
     0
 62
     2
  6
CONTINUOUS
370
    -3
390
F
347
21
348
0
  0
LAYER
  5
98
330
2
100
AcDbSymbolTableRecord
100
AcDbLayerTableRecord
  2
TPROFIL
 70
     0
 62
     3
  6
CONTINUOUS
370
    -3
390
F
347
21
348
0
  0
LAYER
  5
99
330
2
100
AcDbSymbolTableRecord
100
AcDbLayerTableRecord
  2
STEINESCHRAFF
 70
     0
 62
     4
  6
CONTINUOUS
370
    -3
390
F
347
21
348
0
  0
ENDTAB
  0
TABLE
  2
STYLE
  5
3
330
0
100
AcDbSymbolTable
 70
     2
  0
STYLE
  5
55
330
3
100
AcDbSymbolTableRecord
100
AcDbTextStyleTableRecord
  2
STANDARD
 70
     0
 40
0.0
 41
1.0
 50
0.0
 71
     0
 42
3.5
  3
txt.shx
  4

  0
STYLE
  5
59
330
3
100
AcDbSymbolTableRecord
100
AcDbTextStyleTableRecord
  2
Annotative
 70
     0
 40
0.0
 41
1.0
 50
0.0
 71
     0
 42
3.5
  3
txt
  4

1001
AcadAnnotative
1000
AnnotativeData
1002
{
1070
     1
1070
     1
1002
}
  0
ENDTAB
  0
TABLE
  2
VIEW
  5
6
330
0
100
AcDbSymbolTable
 70
     1
  0
ENDTAB
  0
TABLE
  2
UCS
  5
7
330
0
100
AcDbSymbolTable
 70
     0
  0
ENDTAB
  0
TABLE
  2
APPID
  5
9
330
0
100
AcDbSymbolTable
 70
     3
  0
APPID
  5
56
330
9
100
AcDbSymbolTableRecord
100
AcDbRegAppTableRecord
  2
ACAD
 70
     0
  0
APPID
  5
5D
330
9
100
AcDbSymbolTableRecord
100
AcDbRegAppTableRecord
  2
AcadAnnotative
 70
     0
  0
APPID
  5
422
330
9
100
AcDbSymbolTableRecord
100
AcDbRegAppTableRecord
  2
ACAD_NAV_VCDISPLAY
 70
     0
  0
ENDTAB
  0
TABLE
  2
DIMSTYLE
  5
A
330
0
100
AcDbSymbolTable
 70
     2
100
AcDbDimStyleTable
 71
     0
  0
DIMSTYLE
105
57
330
A
100
AcDbSymbolTableRecord
100
AcDbDimStyleTableRecord
  2
Standard
 70
     0
340
55
  0
DIMSTYLE
105
58
330
A
100
AcDbSymbolTableRecord
100
AcDbDimStyleTableRecord
  2
Annotative
 70
     0
340
55
1001
AcadAnnotative
1000
AnnotativeData
1002
{
1070
     1
1070
     1
1002
}
  0
ENDTAB
  0
TABLE
  2
BLOCK_RECORD
  5
1
330
0
100
AcDbSymbolTable
 70
     4
  0
BLOCK_RECORD
  5
6F
330
1
100
AcDbSymbolTableRecord
100
AcDbBlockTableRecord
  2
*Model_Space
340
72
 70
     0
280
     1
281
     0
  0
BLOCK_RECORD
  5
6B
330
1
100
AcDbSymbolTableRecord
100
AcDbBlockTableRecord
  2
*Paper_Space
340
6E
 70
     0
280
     1
281
     0
  0
BLOCK_RECORD
  5
73
330
1
100
AcDbSymbolTableRecord
100
AcDbBlockTableRecord
  2
TPFEIL
340
0
 70
     0
280
     1
281
     0
  0
BLOCK_RECORD
  5
74
330
1
100
AcDbSymbolTableRecord
100
AcDbBlockTableRecord
  2
RL
340
0
102
{BLKREFS
331
3E3
331
3E4
331
3E5
331
3E6
331
3E7
331
3E8
331
3E9
331
3EA
331
3EB
331
3EC
331
3ED
331
3EE
331
3EF
331
3F0
331
3F1
331
3F2
331
3F3
331
3F4
331
3F5
331
3F6
331
3F7
331
3F8
331
3F9
331
3FA
331
3FB
331
3FC
331
3FD
331
3FE
331
3FF
331
400
331
401
331
402
102
}
 70
     0
280
     1
281
     0
  0
BLOCK_RECORD
  5
75
330
1
100
AcDbSymbolTableRecord
100
AcDbBlockTableRecord
  2
*X2
340
0
102
{BLKREFS
331
403
102
}
 70
     0
280
     1
281
     0
  0
BLOCK_RECORD
  5
76
330
1
100
AcDbSymbolTableRecord
100
AcDbBlockTableRecord
  2
*X3
340
0
102
{BLKREFS
331
40F
102
}
 70
     0
280
     1
281
     0
  0
ENDTAB
  0
ENDSEC
  0
SECTION
  2
BLOCKS
  0
BLOCK
  5
9C
330
6F
100
AcDbEntity
  8
0
100
AcDbBlockBegin
  2
*Model_Space
 70
     0
 10
0.0
 20
0.0
 30
0.0
  3
*Model_Space
  1

  0
ENDBLK
  5
9D
330
6F
100
AcDbEntity
  8
0
100
AcDbBlockEnd
  0
BLOCK
  5
9A
330
6B
100
AcDbEntity
 67
     1
  8
0
100
AcDbBlockBegin
  2
*Paper_Space
 70
     0
 10
0.0
 20
0.0
 30
0.0
  3
*Paper_Space
  1

  0
ENDBLK
  5
9B
330
6B
100
AcDbEntity
 67
     1
  8
0
100
AcDbBlockEnd
  0
BLOCK
  5
9E
330
73
100
AcDbEntity
  8
0
100
AcDbBlockBegin
  2
TPFEIL
 70
     0
 10
0.0
 20
0.0
 30
0.0
  3
TPFEIL
  1

  0
LWPOLYLINE
  5
9F
330
73
100
AcDbEntity
  8
GRABUNGSGRENZE
100
AcDbPolyline
 90
        2
 70
     0
 10
0.0
 20
-10.0
 40
5.0
 41
0.0
 10
0.0
 20
0.0
 40
0.0
 41
0.0
  0
ENDBLK
  5
A3
330
73
100
AcDbEntity
  8
0
100
AcDbBlockEnd
  0
BLOCK
  5
A4
330
74
100
AcDbEntity
  8
0
100
AcDbBlockBegin
  2
RL
 70
     0
 10
0.0
 20
0.0
 30
0.0
  3
RL
  1

  0
LWPOLYLINE
  5
A5
330
74
100
AcDbEntity
  8
FEUER
100
AcDbPolyline
 90
        5
 70
     0
 43
0.1
 10
0.0
 20
-1.40000000000009
 10
0.0
 20
0.0
 10
1.5
 20
0.0
 10
1.5
 20
-1.40000000000009
 10
0.0
 20
-1.40000000000009
  0
ENDBLK
  5
AC
330
74
100
AcDbEntity
  8
0
100
AcDbBlockEnd
  0
BLOCK
  5
AD
330
75
100
AcDbEntity
  8
0
100
AcDbBlockBegin
  2
*X2
 70
     1
 10
0.0
 20
0.0
 30
0.0
  3
*X2
  1

  0
LINE
  5
AE
330
75
100
AcDbEntity
  8
0
 62
     0
100
AcDbLine
 10
387.4999999999999
 20
-1907.5
 30
0.0
 11
387.4999999999999
 21
-1907.5
 31
0.0
  0
LINE
  5
AF
330
75
100
AcDbEntity
  8
0
 62
     0
100
AcDbLine
 10
388.7499999999999
 20
-1907.5
 30
0.0
 11
388.7499999999999
 21
-1907.5
 31
0.0
  0
LINE
  5
B0
330
75
100
AcDbEntity
  8
0
 62
     0
100
AcDbLine
 10
389.9999999999999
 20
-1907.5
 30
0.0
 11
389.9999999999999
 21
-1907.5
 31
0.0
  0
LINE
  5
B1
330
75
100
AcDbEntity
  8
0
 62
     0
100
AcDbLine
 10
385.625
 20
-1906.25
 30
0.0
 11
385.625
 21
-1906.25
 31
0.0
  0
LINE
  5
B2
330
75
100
AcDbEntity
  8
0
 62
     0
100
AcDbLine
 10
386.875
 20
-1906.25
 30
0.0
 11
386.875
 21
-1906.25
 31
0.0
  0
LINE
  5
B3
330
75
100
AcDbEntity
  8
0
 62
     0
100
AcDbLine
 10
388.125
 20
-1906.25
 30
0.0
 11
388.125
 21
-1906.25
 31
0.0
  0
LINE
  5
B4
330
75
100
AcDbEntity
  8
0
 62
     0
100
AcDbLine
 10
386.2499999999999
 20
-1905.0
 30
0.0
 11
386.2499999999999
 21
-1905.0
 31
0.0
  0
LINE
  5
B5
330
75
100
AcDbEntity
  8
0
 62
     0
100
AcDbLine
 10
387.5
 20
-1905.0
 30
0.0
 11
387.5
 21
-1905.0
 31
0.0
  0
LINE
  5
B6
330
75
100
AcDbEntity
  8
0
 62
     0
100
AcDbLine
 10
388.7500000000001
 20
-1897.5
 30
0.0
 11
388.7500000000001
 21
-1897.5
 31
0.0
  0
LINE
  5
B7
330
75
100
AcDbEntity
  8
0
 62
     0
100
AcDbLine
 10
390.0000000000001
 20
-1897.5
 30
0.0
 11
390.0000000000001
 21
-1897.5
 31
0.0
  0
LINE
  5
B8
330
75
100
AcDbEntity
  8
0
 62
     0
100
AcDbLine
 10
388.1250000000001
 20
-1896.25
 30
0.0
 11
388.1250000000001
 21
-1896.25
 31
0.0
  0
LINE
  5
B9
330
75
100
AcDbEntity
  8
0
 62
     0
100
AcDbLine
 10
389.3750000000001
 20
-1896.25
 30
0.0
 11
389.3750000000001
 21
-1896.25
 31
0.0
  0
LINE
  5
BA
330
75
100
AcDbEntity
  8
0
 62
     0
100
AcDbLine
 10
390.625
 20
-1896.25
 30
0.0
 11
390.625
 21
-1896.25
 31
0.0
  0
LINE
  5
BB
330
75
100
AcDbEntity
  8
0
 62
     0
100
AcDbLine
 10
342.5
 20
-1895.0
 30
0.0
 11
342.5
 21
-1895.0
 31
0.0
  0
LINE
  5
BC
330
75
100
AcDbEntity
  8
0
 62
     0
100
AcDbLine
 10
388.75
 20
-1895.0
 30
0.0
 11
388.75
 21
-1895.0
 31
0.0
  0
LINE
  5
BD
330
75
100
AcDbEntity
  8
0
 62
     0
100
AcDbLine
 10
390.0
 20
-1895.0
 30
0.0
 11
390.0
 21
-1895.0
 31
0.0
  0
LINE
  5
BE
330
75
100
AcDbEntity
  8
0
 62
     0
100
AcDbLine
 10
376.2500000000001
 20
-1895.0
 30
0.0
 11
376.2500000000001
 21
-1895.0
 31
0.0
  0
LINE
  5
BF
330
75
100
AcDbEntity
  8
0
 62
     0
100
AcDbLine
 10
377.5000000000001
 20
-1895.0
 30
0.0
 11
377.5000000000001
 21
-1895.0
 31
0.0
  0
LINE
  5
C0
330
75
100
AcDbEntity
  8
0
 62
     0
100
AcDbLine
 10
378.75
 20
-1895.0
 30
0.0
 11
378.75
 21
-1895.0
 31
0.0
  0
LINE
  5
C1
330
75
100
AcDbEntity
  8
0
 62
     0
100
AcDbLine
 10
340.6250000000001
 20
-1893.75
 30
0.0
 11
340.6250000000001
 21
-1893.75
 31
0.0
  0
LINE
  5
C2
330
75
100
AcDbEntity
  8
0
 62
     0
100
AcDbLine
 10
341.8750000000001
 20
-1893.75
 30
0.0
 11
341.8750000000001
 21
-1893.75
 31
0.0
  0
LINE
  5
C3
330
75
100
AcDbEntity
  8
0
 62
     0
100
AcDbLine
 10
343.1250000000001
 20
-1893.75
 30
0.0
 11
343.1250000000001
 21
-1893.75
 31
0.0
  0
LINE
  5
C4
330
75
100
AcDbEntity
  8
0
 62
     0
100
AcDbLine
 10
373.125
 20
-1893.75
 30
0.0
 11
373.125
 21
-1893.75
 31
0.0
  0
LINE
  5
C5
330
75
100
AcDbEntity
  8
0
 62
     0
100
AcDbLine
 10
374.375
 20
-1893.75
 30
0.0
 11
374.375
 21
-1893.75
 31
0.0
  0
LINE
  5
C6
330
75
100
AcDbEntity
  8
0
 62
     0
100
AcDbLine
 10
375.625
 20
-1893.75
 30
0.0
 11
375.625
 21
-1893.75
 31
0.0
  0
LINE
  5
C7
330
75
100
AcDbEntity
  8
0
 62
     0
100
AcDbLine
 10
376.875
 20
-1893.75
 30
0.0
 11
376.875
 21
-1893.75
 31
0.0
  0
LINE
  5
C8
330
75
100
AcDbEntity
  8
0
 62
     0
100
AcDbLine
 10
378.125
 20
-1893.75
 30
0.0
 11
378.125
 21
-1893.75
 31
0.0
  0
LINE
  5
C9
330
75
100
AcDbEntity
  8
0
 62
     0
100
AcDbLine
 10
379.375
 20
-1893.75
 30
0.0
 11
379.375
 21
-1893.75
 31
0.0
  0
LINE
  5
CA
330
75
100
AcDbEntity
  8
0
 62
     0
100
AcDbLine
 10
338.75
 20
-1892.5
 30
0.0
 11
338.75
 21
-1892.5
 31
0.0
  0
LINE
  5
CB
330
75
100
AcDbEntity
  8
0
 62
     0
100
AcDbLine
 10
340.0
 20
-1892.5
 30
0.0
 11
340.0
 21
-1892.5
 31
0.0
  0
LINE
  5
CC
330
75
100
AcDbEntity
  8
0
 62
     0
100
AcDbLine
 10
341.25
 20
-1892.5
 30
0.0
 11
341.25
 21
-1892.5
 31
0.0
  0
LINE
  5
CD
330
75
100
AcDbEntity
  8
0
 62
     0
100
AcDbLine
 10
342.5
 20
-1892.5
 30
0.0
 11
342.5
 21
-1892.5
 31
0.0
  0
LINE
  5
CE
330
75
100
AcDbEntity
  8
0
 62
     0
100
AcDbLine
 10
343.75
 20
-1892.5
 30
0.0
 11
343.75
 21
-1892.5
 31
0.0
  0
LINE
  5
CF
330
75
100
AcDbEntity
  8
0
 62
     0
100
AcDbLine
 10
373.7499999999999
 20
-1892.5
 30
0.0
 11
373.7499999999999
 21
-1892.5
 31
0.0
  0
LINE
  5
D0
330
75
100
AcDbEntity
  8
0
 62
     0
100
AcDbLine
 10
375.0
 20
-1892.5
 30
0.0
 11
375.0
 21
-1892.5
 31
0.0
  0
LINE
  5
D1
330
75
100
AcDbEntity
  8
0
 62
     0
100
AcDbLine
 10
376.2499999999999
 20
-1892.5
 30
0.0
 11
376.2499999999999
 21
-1892.5
 31
0.0
  0
LINE
  5
D2
330
75
100
AcDbEntity
  8
0
 62
     0
100
AcDbLine
 10
377.4999999999999
 20
-1892.5
 30
0.0
 11
377.4999999999999
 21
-1892.5
 31
0.0
  0
LINE
  5
D3
330
75
100
AcDbEntity
  8
0
 62
     0
100
AcDbLine
 10
378.75
 20
-1892.5
 30
0.0
 11
378.75
 21
-1892.5
 31
0.0
  0
LINE
  5
D4
330
75
100
AcDbEntity
  8
0
 62
     0
100
AcDbLine
 10
379.9999999999999
 20
-1892.5
 30
0.0
 11
379.9999999999999
 21
-1892.5
 31
0.0
  0
LINE
  5
D5
330
75
100
AcDbEntity
  8
0
 62
     0
100
AcDbLine
 10
336.8750000000001
 20
-1891.25
 30
0.0
 11
336.8750000000001
 21
-1891.25
 31
0.0
  0
LINE
  5
D6
330
75
100
AcDbEntity
  8
0
 62
     0
100
AcDbLine
 10
338.125
 20
-1891.25
 30
0.0
 11
338.125
 21
-1891.25
 31
0.0
  0
LINE
  5
D7
330
75
100
AcDbEntity
  8
0
 62
     0
100
AcDbLine
 10
339.3750000000001
 20
-1891.25
 30
0.0
 11
339.3750000000001
 21
-1891.25
 31
0.0
  0
LINE
  5
D8
330
75
100
AcDbEntity
  8
0
 62
     0
100
AcDbLine
 10
340.625
 20
-1891.25
 30
0.0
 11
340.625
 21
-1891.25
 31
0.0
  0
LINE
  5
D9
330
75
100
AcDbEntity
  8
0
 62
     0
100
AcDbLine
 10
341.8750000000001
 20
-1891.25
 30
0.0
 11
341.8750000000001
 21
-1891.25
 31
0.0
  0
LINE
  5
DA
330
75
100
AcDbEntity
  8
0
 62
     0
100
AcDbLine
 10
343.1250000000001
 20
-1891.25
 30
0.0
 11
343.1250000000001
 21
-1891.25
 31
0.0
  0
LINE
  5
DB
330
75
100
AcDbEntity
  8
0
 62
     0
100
AcDbLine
 10
344.375
 20
-1891.25
 30
0.0
 11
344.375
 21
-1891.25
 31
0.0
  0
LINE
  5
DC
330
75
100
AcDbEntity
  8
0
 62
     0
100
AcDbLine
 10
345.6250000000001
 20
-1891.25
 30
0.0
 11
345.6250000000001
 21
-1891.25
 31
0.0
  0
LINE
  5
DD
330
75
100
AcDbEntity
  8
0
 62
     0
100
AcDbLine
 10
374.3750000000001
 20
-1891.25
 30
0.0
 11
374.3750000000001
 21
-1891.25
 31
0.0
  0
LINE
  5
DE
330
75
100
AcDbEntity
  8
0
 62
     0
100
AcDbLine
 10
375.625
 20
-1891.25
 30
0.0
 11
375.625
 21
-1891.25
 31
0.0
  0
LINE
  5
DF
330
75
100
AcDbEntity
  8
0
 62
     0
100
AcDbLine
 10
376.8750000000001
 20
-1891.25
 30
0.0
 11
376.8750000000001
 21
-1891.25
 31
0.0
  0
LINE
  5
E0
330
75
100
AcDbEntity
  8
0
 62
     0
100
AcDbLine
 10
378.125
 20
-1891.25
 30
0.0
 11
378.125
 21
-1891.25
 31
0.0
  0
LINE
  5
E1
330
75
100
AcDbEntity
  8
0
 62
     0
100
AcDbLine
 10
379.3750000000001
 20
-1891.25
 30
0.0
 11
379.3750000000001
 21
-1891.25
 31
0.0
  0
LINE
  5
E2
330
75
100
AcDbEntity
  8
0
 62
     0
100
AcDbLine
 10
380.6250000000001
 20
-1891.25
 30
0.0
 11
380.6250000000001
 21
-1891.25
 31
0.0
  0
LINE
  5
E3
330
75
100
AcDbEntity
  8
0
 62
     0
100
AcDbLine
 10
336.2499999999999
 20
-1890.0
 30
0.0
 11
336.2499999999999
 21
-1890.0
 31
0.0
  0
LINE
  5
E4
330
75
100
AcDbEntity
  8
0
 62
     0
100
AcDbLine
 10
337.5
 20
-1890.0
 30
0.0
 11
337.5
 21
-1890.0
 31
0.0
  0
LINE
  5
E5
330
75
100
AcDbEntity
  8
0
 62
     0
100
AcDbLine
 10
338.7499999999999
 20
-1890.0
 30
0.0
 11
338.7499999999999
 21
-1890.0
 31
0.0
  0
LINE
  5
E6
330
75
100
AcDbEntity
  8
0
 62
     0
100
AcDbLine
 10
339.9999999999999
 20
-1890.0
 30
0.0
 11
339.9999999999999
 21
-1890.0
 31
0.0
  0
LINE
  5
E7
330
75
100
AcDbEntity
  8
0
 62
     0
100
AcDbLine
 10
341.25
 20
-1890.0
 30
0.0
 11
341.25
 21
-1890.0
 31
0.0
  0
LINE
  5
E8
330
75
100
AcDbEntity
  8
0
 62
     0
100
AcDbLine
 10
342.4999999999999
 20
-1890.0
 30
0.0
 11
342.4999999999999
 21
-1890.0
 31
0.0
  0
LINE
  5
E9
330
75
100
AcDbEntity
  8
0
 62
     0
100
AcDbLine
 10
343.75
 20
-1890.0
 30
0.0
 11
343.75
 21
-1890.0
 31
0.0
  0
LINE
  5
EA
330
75
100
AcDbEntity
  8
0
 62
     0
100
AcDbLine
 10
344.9999999999999
 20
-1890.0
 30
0.0
 11
344.9999999999999
 21
-1890.0
 31
0.0
  0
LINE
  5
EB
330
75
100
AcDbEntity
  8
0
 62
     0
100
AcDbLine
 10
346.2499999999999
 20
-1890.0
 30
0.0
 11
346.2499999999999
 21
-1890.0
 31
0.0
  0
LINE
  5
EC
330
75
100
AcDbEntity
  8
0
 62
     0
100
AcDbLine
 10
385.0000000000001
 20
-1890.0
 30
0.0
 11
385.0000000000001
 21
-1890.0
 31
0.0
  0
LINE
  5
ED
330
75
100
AcDbEntity
  8
0
 62
     0
100
AcDbLine
 10
386.2500000000001
 20
-1890.0
 30
0.0
 11
386.2500000000001
 21
-1890.0
 31
0.0
  0
LINE
  5
EE
330
75
100
AcDbEntity
  8
0
 62
     0
100
AcDbLine
 10
387.5000000000001
 20
-1890.0
 30
0.0
 11
387.5000000000001
 21
-1890.0
 31
0.0
  0
LINE
  5
EF
330
75
100
AcDbEntity
  8
0
 62
     0
100
AcDbLine
 10
375.0
 20
-1890.0
 30
0.0
 11
375.0
 21
-1890.0
 31
0.0
  0
LINE
  5
F0
330
75
100
AcDbEntity
  8
0
 62
     0
100
AcDbLine
 10
376.2500000000001
 20
-1890.0
 30
0.0
 11
376.2500000000001
 21
-1890.0
 31
0.0
  0
LINE
  5
F1
330
75
100
AcDbEntity
  8
0
 62
     0
100
AcDbLine
 10
377.5000000000001
 20
-1890.0
 30
0.0
 11
377.5000000000001
 21
-1890.0
 31
0.0
  0
LINE
  5
F2
330
75
100
AcDbEntity
  8
0
 62
     0
100
AcDbLine
 10
378.75
 20
-1890.0
 30
0.0
 11
378.75
 21
-1890.0
 31
0.0
  0
LINE
  5
F3
330
75
100
AcDbEntity
  8
0
 62
     0
100
AcDbLine
 10
380.0000000000001
 20
-1890.0
 30
0.0
 11
380.0000000000001
 21
-1890.0
 31
0.0
  0
LINE
  5
F4
330
75
100
AcDbEntity
  8
0
 62
     0
100
AcDbLine
 10
335.6250000000001
 20
-1888.75
 30
0.0
 11
335.6250000000001
 21
-1888.75
 31
0.0
  0
LINE
  5
F5
330
75
100
AcDbEntity
  8
0
 62
     0
100
AcDbLine
 10
336.8750000000001
 20
-1888.75
 30
0.0
 11
336.8750000000001
 21
-1888.75
 31
0.0
  0
LINE
  5
F6
330
75
100
AcDbEntity
  8
0
 62
     0
100
AcDbLine
 10
338.125
 20
-1888.75
 30
0.0
 11
338.125
 21
-1888.75
 31
0.0
  0
LINE
  5
F7
330
75
100
AcDbEntity
  8
0
 62
     0
100
AcDbLine
 10
339.3750000000001
 20
-1888.75
 30
0.0
 11
339.3750000000001
 21
-1888.75
 31
0.0
  0
LINE
  5
F8
330
75
100
AcDbEntity
  8
0
 62
     0
100
AcDbLine
 10
340.625
 20
-1888.75
 30
0.0
 11
340.625
 21
-1888.75
 31
0.0
  0
LINE
  5
F9
330
75
100
AcDbEntity
  8
0
 62
     0
100
AcDbLine
 10
341.8750000000001
 20
-1888.75
 30
0.0
 11
341.8750000000001
 21
-1888.75
 31
0.0
  0
LINE
  5
FA
330
75
100
AcDbEntity
  8
0
 62
     0
100
AcDbLine
 10
343.1250000000001
 20
-1888.75
 30
0.0
 11
343.1250000000001
 21
-1888.75
 31
0.0
  0
LINE
  5
FB
330
75
100
AcDbEntity
  8
0
 62
     0
100
AcDbLine
 10
344.375
 20
-1888.75
 30
0.0
 11
344.375
 21
-1888.75
 31
0.0
  0
LINE
  5
FC
330
75
100
AcDbEntity
  8
0
 62
     0
100
AcDbLine
 10
345.6250000000001
 20
-1888.75
 30
0.0
 11
345.6250000000001
 21
-1888.75
 31
0.0
  0
LINE
  5
FD
330
75
100
AcDbEntity
  8
0
 62
     0
100
AcDbLine
 10
385.6249999999999
 20
-1888.75
 30
0.0
 11
385.6249999999999
 21
-1888.75
 31
0.0
  0
LINE
  5
FE
330
75
100
AcDbEntity
  8
0
 62
     0
100
AcDbLine
 10
386.8749999999999
 20
-1888.75
 30
0.0
 11
386.8749999999999
 21
-1888.75
 31
0.0
  0
LINE
  5
FF
330
75
100
AcDbEntity
  8
0
 62
     0
100
AcDbLine
 10
388.1249999999999
 20
-1888.75
 30
0.0
 11
388.1249999999999
 21
-1888.75
 31
0.0
  0
LINE
  5
100
330
75
100
AcDbEntity
  8
0
 62
     0
100
AcDbLine
 10
376.8750000000001
 20
-1888.75
 30
0.0
 11
376.8750000000001
 21
-1888.75
 31
0.0
  0
LINE
  5
101
330
75
100
AcDbEntity
  8
0
 62
     0
100
AcDbLine
 10
378.125
 20
-1888.75
 30
0.0
 11
378.125
 21
-1888.75
 31
0.0
  0
LINE
  5
102
330
75
100
AcDbEntity
  8
0
 62
     0
100
AcDbLine
 10
379.3750000000001
 20
-1888.75
 30
0.0
 11
379.3750000000001
 21
-1888.75
 31
0.0
  0
LINE
  5
103
330
75
100
AcDbEntity
  8
0
 62
     0
100
AcDbLine
 10
335.0
 20
-1887.5
 30
0.0
 11
335.0
 21
-1887.5
 31
0.0
  0
LINE
  5
104
330
75
100
AcDbEntity
  8
0
 62
     0
100
AcDbLine
 10
336.25
 20
-1887.5
 30
0.0
 11
336.25
 21
-1887.5
 31
0.0
  0
LINE
  5
105
330
75
100
AcDbEntity
  8
0
 62
     0
100
AcDbLine
 10
337.5
 20
-1887.5
 30
0.0
 11
337.5
 21
-1887.5
 31
0.0
  0
LINE
  5
106
330
75
100
AcDbEntity
  8
0
 62
     0
100
AcDbLine
 10
338.75
 20
-1887.5
 30
0.0
 11
338.75
 21
-1887.5
 31
0.0
  0
LINE
  5
107
330
75
100
AcDbEntity
  8
0
 62
     0
100
AcDbLine
 10
340.0
 20
-1887.5
 30
0.0
 11
340.0
 21
-1887.5
 31
0.0
  0
LINE
  5
108
330
75
100
AcDbEntity
  8
0
 62
     0
100
AcDbLine
 10
341.25
 20
-1887.5
 30
0.0
 11
341.25
 21
-1887.5
 31
0.0
  0
LINE
  5
109
330
75
100
AcDbEntity
  8
0
 62
     0
100
AcDbLine
 10
342.5
 20
-1887.5
 30
0.0
 11
342.5
 21
-1887.5
 31
0.0
  0
LINE
  5
10A
330
75
100
AcDbEntity
  8
0
 62
     0
100
AcDbLine
 10
343.75
 20
-1887.5
 30
0.0
 11
343.75
 21
-1887.5
 31
0.0
  0
LINE
  5
10B
330
75
100
AcDbEntity
  8
0
 62
     0
100
AcDbLine
 10
345.0
 20
-1887.5
 30
0.0
 11
345.0
 21
-1887.5
 31
0.0
  0
LINE
  5
10C
330
75
100
AcDbEntity
  8
0
 62
     0
100
AcDbLine
 10
346.25
 20
-1887.5
 30
0.0
 11
346.25
 21
-1887.5
 31
0.0
  0
LINE
  5
10D
330
75
100
AcDbEntity
  8
0
 62
     0
100
AcDbLine
 10
386.2500000000001
 20
-1887.5
 30
0.0
 11
386.2500000000001
 21
-1887.5
 31
0.0
  0
LINE
  5
10E
330
75
100
AcDbEntity
  8
0
 62
     0
100
AcDbLine
 10
387.5
 20
-1887.5
 30
0.0
 11
387.5
 21
-1887.5
 31
0.0
  0
LINE
  5
10F
330
75
100
AcDbEntity
  8
0
 62
     0
100
AcDbLine
 10
388.7500000000001
 20
-1887.5
 30
0.0
 11
388.7500000000001
 21
-1887.5
 31
0.0
  0
LINE
  5
110
330
75
100
AcDbEntity
  8
0
 62
     0
100
AcDbLine
 10
381.25
 20
-1887.5
 30
0.0
 11
381.25
 21
-1887.5
 31
0.0
  0
LINE
  5
111
330
75
100
AcDbEntity
  8
0
 62
     0
100
AcDbLine
 10
382.5000000000001
 20
-1887.5
 30
0.0
 11
382.5000000000001
 21
-1887.5
 31
0.0
  0
LINE
  5
112
330
75
100
AcDbEntity
  8
0
 62
     0
100
AcDbLine
 10
335.625
 20
-1886.25
 30
0.0
 11
335.625
 21
-1886.25
 31
0.0
  0
LINE
  5
113
330
75
100
AcDbEntity
  8
0
 62
     0
100
AcDbLine
 10
336.875
 20
-1886.25
 30
0.0
 11
336.875
 21
-1886.25
 31
0.0
  0
LINE
  5
114
330
75
100
AcDbEntity
  8
0
 62
     0
100
AcDbLine
 10
338.125
 20
-1886.25
 30
0.0
 11
338.125
 21
-1886.25
 31
0.0
  0
LINE
  5
115
330
75
100
AcDbEntity
  8
0
 62
     0
100
AcDbLine
 10
339.375
 20
-1886.25
 30
0.0
 11
339.375
 21
-1886.25
 31
0.0
  0
LINE
  5
116
330
75
100
AcDbEntity
  8
0
 62
     0
100
AcDbLine
 10
340.625
 20
-1886.25
 30
0.0
 11
340.625
 21
-1886.25
 31
0.0
  0
LINE
  5
117
330
75
100
AcDbEntity
  8
0
 62
     0
100
AcDbLine
 10
341.875
 20
-1886.25
 30
0.0
 11
341.875
 21
-1886.25
 31
0.0
  0
LINE
  5
118
330
75
100
AcDbEntity
  8
0
 62
     0
100
AcDbLine
 10
343.125
 20
-1886.25
 30
0.0
 11
343.125
 21
-1886.25
 31
0.0
  0
LINE
  5
119
330
75
100
AcDbEntity
  8
0
 62
     0
100
AcDbLine
 10
344.375
 20
-1886.25
 30
0.0
 11
344.375
 21
-1886.25
 31
0.0
  0
LINE
  5
11A
330
75
100
AcDbEntity
  8
0
 62
     0
100
AcDbLine
 10
345.625
 20
-1886.25
 30
0.0
 11
345.625
 21
-1886.25
 31
0.0
  0
LINE
  5
11B
330
75
100
AcDbEntity
  8
0
 62
     0
100
AcDbLine
 10
346.875
 20
-1886.25
 30
0.0
 11
346.875
 21
-1886.25
 31
0.0
  0
LINE
  5
11C
330
75
100
AcDbEntity
  8
0
 62
     0
100
AcDbLine
 10
380.625
 20
-1886.25
 30
0.0
 11
380.625
 21
-1886.25
 31
0.0
  0
LINE
  5
11D
330
75
100
AcDbEntity
  8
0
 62
     0
100
AcDbLine
 10
390.625
 20
-1886.25
 30
0.0
 11
390.625
 21
-1886.25
 31
0.0
  0
LINE
  5
11E
330
75
100
AcDbEntity
  8
0
 62
     0
100
AcDbLine
 10
381.875
 20
-1886.25
 30
0.0
 11
381.875
 21
-1886.25
 31
0.0
  0
LINE
  5
11F
330
75
100
AcDbEntity
  8
0
 62
     0
100
AcDbLine
 10
383.125
 20
-1886.25
 30
0.0
 11
383.125
 21
-1886.25
 31
0.0
  0
LINE
  5
120
330
75
100
AcDbEntity
  8
0
 62
     0
100
AcDbLine
 10
386.875
 20
-1886.25
 30
0.0
 11
386.875
 21
-1886.25
 31
0.0
  0
LINE
  5
121
330
75
100
AcDbEntity
  8
0
 62
     0
100
AcDbLine
 10
384.3749999999999
 20
-1886.25
 30
0.0
 11
384.3749999999999
 21
-1886.25
 31
0.0
  0
LINE
  5
122
330
75
100
AcDbEntity
  8
0
 62
     0
100
AcDbLine
 10
336.25
 20
-1885.0
 30
0.0
 11
336.25
 21
-1885.0
 31
0.0
  0
LINE
  5
123
330
75
100
AcDbEntity
  8
0
 62
     0
100
AcDbLine
 10
337.5
 20
-1885.0
 30
0.0
 11
337.5
 21
-1885.0
 31
0.0
  0
LINE
  5
124
330
75
100
AcDbEntity
  8
0
 62
     0
100
AcDbLine
 10
338.75
 20
-1885.0
 30
0.0
 11
338.75
 21
-1885.0
 31
0.0
  0
LINE
  5
125
330
75
100
AcDbEntity
  8
0
 62
     0
100
AcDbLine
 10
340.0
 20
-1885.0
 30
0.0
 11
340.0
 21
-1885.0
 31
0.0
  0
LINE
  5
126
330
75
100
AcDbEntity
  8
0
 62
     0
100
AcDbLine
 10
341.25
 20
-1885.0
 30
0.0
 11
341.25
 21
-1885.0
 31
0.0
  0
LINE
  5
127
330
75
100
AcDbEntity
  8
0
 62
     0
100
AcDbLine
 10
342.5
 20
-1885.0
 30
0.0
 11
342.5
 21
-1885.0
 31
0.0
  0
LINE
  5
128
330
75
100
AcDbEntity
  8
0
 62
     0
100
AcDbLine
 10
343.75
 20
-1885.0
 30
0.0
 11
343.75
 21
-1885.0
 31
0.0
  0
LINE
  5
129
330
75
100
AcDbEntity
  8
0
 62
     0
100
AcDbLine
 10
345.0
 20
-1885.0
 30
0.0
 11
345.0
 21
-1885.0
 31
0.0
  0
LINE
  5
12A
330
75
100
AcDbEntity
  8
0
 62
     0
100
AcDbLine
 10
346.25
 20
-1885.0
 30
0.0
 11
346.25
 21
-1885.0
 31
0.0
  0
LINE
  5
12B
330
75
100
AcDbEntity
  8
0
 62
     0
100
AcDbLine
 10
347.5
 20
-1885.0
 30
0.0
 11
347.5
 21
-1885.0
 31
0.0
  0
LINE
  5
12C
330
75
100
AcDbEntity
  8
0
 62
     0
100
AcDbLine
 10
393.75
 20
-1885.0
 30
0.0
 11
393.75
 21
-1885.0
 31
0.0
  0
LINE
  5
12D
330
75
100
AcDbEntity
  8
0
 62
     0
100
AcDbLine
 10
377.5000000000001
 20
-1885.0
 30
0.0
 11
377.5000000000001
 21
-1885.0
 31
0.0
  0
LINE
  5
12E
330
75
100
AcDbEntity
  8
0
 62
     0
100
AcDbLine
 10
378.75
 20
-1885.0
 30
0.0
 11
378.75
 21
-1885.0
 31
0.0
  0
LINE
  5
12F
330
75
100
AcDbEntity
  8
0
 62
     0
100
AcDbLine
 10
390.0000000000001
 20
-1885.0
 30
0.0
 11
390.0000000000001
 21
-1885.0
 31
0.0
  0
LINE
  5
130
330
75
100
AcDbEntity
  8
0
 62
     0
100
AcDbLine
 10
391.2500000000001
 20
-1885.0
 30
0.0
 11
391.2500000000001
 21
-1885.0
 31
0.0
  0
LINE
  5
131
330
75
100
AcDbEntity
  8
0
 62
     0
100
AcDbLine
 10
380.0000000000001
 20
-1885.0
 30
0.0
 11
380.0000000000001
 21
-1885.0
 31
0.0
  0
LINE
  5
132
330
75
100
AcDbEntity
  8
0
 62
     0
100
AcDbLine
 10
381.2500000000001
 20
-1885.0
 30
0.0
 11
381.2500000000001
 21
-1885.0
 31
0.0
  0
LINE
  5
133
330
75
100
AcDbEntity
  8
0
 62
     0
100
AcDbLine
 10
382.4999999999999
 20
-1885.0
 30
0.0
 11
382.4999999999999
 21
-1885.0
 31
0.0
  0
LINE
  5
134
330
75
100
AcDbEntity
  8
0
 62
     0
100
AcDbLine
 10
336.8749999999999
 20
-1883.75
 30
0.0
 11
336.8749999999999
 21
-1883.75
 31
0.0
  0
LINE
  5
135
330
75
100
AcDbEntity
  8
0
 62
     0
100
AcDbLine
 10
338.125
 20
-1883.75
 30
0.0
 11
338.125
 21
-1883.75
 31
0.0
  0
LINE
  5
136
330
75
100
AcDbEntity
  8
0
 62
     0
100
AcDbLine
 10
339.3749999999999
 20
-1883.75
 30
0.0
 11
339.3749999999999
 21
-1883.75
 31
0.0
  0
LINE
  5
137
330
75
100
AcDbEntity
  8
0
 62
     0
100
AcDbLine
 10
340.625
 20
-1883.75
 30
0.0
 11
340.625
 21
-1883.75
 31
0.0
  0
LINE
  5
138
330
75
100
AcDbEntity
  8
0
 62
     0
100
AcDbLine
 10
341.8749999999999
 20
-1883.75
 30
0.0
 11
341.8749999999999
 21
-1883.75
 31
0.0
  0
LINE
  5
139
330
75
100
AcDbEntity
  8
0
 62
     0
100
AcDbLine
 10
343.1249999999999
 20
-1883.75
 30
0.0
 11
343.1249999999999
 21
-1883.75
 31
0.0
  0
LINE
  5
13A
330
75
100
AcDbEntity
  8
0
 62
     0
100
AcDbLine
 10
344.375
 20
-1883.75
 30
0.0
 11
344.375
 21
-1883.75
 31
0.0
  0
LINE
  5
13B
330
75
100
AcDbEntity
  8
0
 62
     0
100
AcDbLine
 10
345.6249999999999
 20
-1883.75
 30
0.0
 11
345.6249999999999
 21
-1883.75
 31
0.0
  0
LINE
  5
13C
330
75
100
AcDbEntity
  8
0
 62
     0
100
AcDbLine
 10
346.875
 20
-1883.75
 30
0.0
 11
346.875
 21
-1883.75
 31
0.0
  0
LINE
  5
13D
330
75
100
AcDbEntity
  8
0
 62
     0
100
AcDbLine
 10
348.1249999999999
 20
-1883.75
 30
0.0
 11
348.1249999999999
 21
-1883.75
 31
0.0
  0
LINE
  5
13E
330
75
100
AcDbEntity
  8
0
 62
     0
100
AcDbLine
 10
390.6249999999999
 20
-1883.75
 30
0.0
 11
390.6249999999999
 21
-1883.75
 31
0.0
  0
LINE
  5
13F
330
75
100
AcDbEntity
  8
0
 62
     0
100
AcDbLine
 10
391.8749999999999
 20
-1883.75
 30
0.0
 11
391.8749999999999
 21
-1883.75
 31
0.0
  0
LINE
  5
140
330
75
100
AcDbEntity
  8
0
 62
     0
100
AcDbLine
 10
365.625
 20
-1883.75
 30
0.0
 11
365.625
 21
-1883.75
 31
0.0
  0
LINE
  5
141
330
75
100
AcDbEntity
  8
0
 62
     0
100
AcDbLine
 10
366.875
 20
-1883.75
 30
0.0
 11
366.875
 21
-1883.75
 31
0.0
  0
LINE
  5
142
330
75
100
AcDbEntity
  8
0
 62
     0
100
AcDbLine
 10
368.125
 20
-1883.75
 30
0.0
 11
368.125
 21
-1883.75
 31
0.0
  0
LINE
  5
143
330
75
100
AcDbEntity
  8
0
 62
     0
100
AcDbLine
 10
380.625
 20
-1883.75
 30
0.0
 11
380.625
 21
-1883.75
 31
0.0
  0
LINE
  5
144
330
75
100
AcDbEntity
  8
0
 62
     0
100
AcDbLine
 10
375.6249999999999
 20
-1883.75
 30
0.0
 11
375.6249999999999
 21
-1883.75
 31
0.0
  0
LINE
  5
145
330
75
100
AcDbEntity
  8
0
 62
     0
100
AcDbLine
 10
376.8749999999999
 20
-1883.75
 30
0.0
 11
376.8749999999999
 21
-1883.75
 31
0.0
  0
LINE
  5
146
330
75
100
AcDbEntity
  8
0
 62
     0
100
AcDbLine
 10
378.1250000000001
 20
-1883.75
 30
0.0
 11
378.1250000000001
 21
-1883.75
 31
0.0
  0
LINE
  5
147
330
75
100
AcDbEntity
  8
0
 62
     0
100
AcDbLine
 10
336.2500000000001
 20
-1882.5
 30
0.0
 11
336.2500000000001
 21
-1882.5
 31
0.0
  0
LINE
  5
148
330
75
100
AcDbEntity
  8
0
 62
     0
100
AcDbLine
 10
337.5000000000001
 20
-1882.5
 30
0.0
 11
337.5000000000001
 21
-1882.5
 31
0.0
  0
LINE
  5
149
330
75
100
AcDbEntity
  8
0
 62
     0
100
AcDbLine
 10
338.7500000000001
 20
-1882.5
 30
0.0
 11
338.7500000000001
 21
-1882.5
 31
0.0
  0
LINE
  5
14A
330
75
100
AcDbEntity
  8
0
 62
     0
100
AcDbLine
 10
340.0000000000001
 20
-1882.5
 30
0.0
 11
340.0000000000001
 21
-1882.5
 31
0.0
  0
LINE
  5
14B
330
75
100
AcDbEntity
  8
0
 62
     0
100
AcDbLine
 10
341.2500000000001
 20
-1882.5
 30
0.0
 11
341.2500000000001
 21
-1882.5
 31
0.0
  0
LINE
  5
14C
330
75
100
AcDbEntity
  8
0
 62
     0
100
AcDbLine
 10
342.5000000000001
 20
-1882.5
 30
0.0
 11
342.5000000000001
 21
-1882.5
 31
0.0
  0
LINE
  5
14D
330
75
100
AcDbEntity
  8
0
 62
     0
100
AcDbLine
 10
343.7500000000001
 20
-1882.5
 30
0.0
 11
343.7500000000001
 21
-1882.5
 31
0.0
  0
LINE
  5
14E
330
75
100
AcDbEntity
  8
0
 62
     0
100
AcDbLine
 10
345.0000000000001
 20
-1882.5
 30
0.0
 11
345.0000000000001
 21
-1882.5
 31
0.0
  0
LINE
  5
14F
330
75
100
AcDbEntity
  8
0
 62
     0
100
AcDbLine
 10
346.2500000000001
 20
-1882.5
 30
0.0
 11
346.2500000000001
 21
-1882.5
 31
0.0
  0
LINE
  5
150
330
75
100
AcDbEntity
  8
0
 62
     0
100
AcDbLine
 10
347.5000000000001
 20
-1882.5
 30
0.0
 11
347.5000000000001
 21
-1882.5
 31
0.0
  0
LINE
  5
151
330
75
100
AcDbEntity
  8
0
 62
     0
100
AcDbLine
 10
392.4999999999999
 20
-1882.5
 30
0.0
 11
392.4999999999999
 21
-1882.5
 31
0.0
  0
LINE
  5
152
330
75
100
AcDbEntity
  8
0
 62
     0
100
AcDbLine
 10
365.0
 20
-1882.5
 30
0.0
 11
365.0
 21
-1882.5
 31
0.0
  0
LINE
  5
153
330
75
100
AcDbEntity
  8
0
 62
     0
100
AcDbLine
 10
366.25
 20
-1882.5
 30
0.0
 11
366.25
 21
-1882.5
 31
0.0
  0
LINE
  5
154
330
75
100
AcDbEntity
  8
0
 62
     0
100
AcDbLine
 10
367.5
 20
-1882.5
 30
0.0
 11
367.5
 21
-1882.5
 31
0.0
  0
LINE
  5
155
330
75
100
AcDbEntity
  8
0
 62
     0
100
AcDbLine
 10
377.4999999999999
 20
-1882.5
 30
0.0
 11
377.4999999999999
 21
-1882.5
 31
0.0
  0
LINE
  5
156
330
75
100
AcDbEntity
  8
0
 62
     0
100
AcDbLine
 10
378.7499999999999
 20
-1882.5
 30
0.0
 11
378.7499999999999
 21
-1882.5
 31
0.0
  0
LINE
  5
157
330
75
100
AcDbEntity
  8
0
 62
     0
100
AcDbLine
 10
375.0
 20
-1882.5
 30
0.0
 11
375.0
 21
-1882.5
 31
0.0
  0
LINE
  5
158
330
75
100
AcDbEntity
  8
0
 62
     0
100
AcDbLine
 10
376.2500000000001
 20
-1882.5
 30
0.0
 11
376.2500000000001
 21
-1882.5
 31
0.0
  0
LINE
  5
159
330
75
100
AcDbEntity
  8
0
 62
     0
100
AcDbLine
 10
336.8750000000001
 20
-1881.25
 30
0.0
 11
336.8750000000001
 21
-1881.25
 31
0.0
  0
LINE
  5
15A
330
75
100
AcDbEntity
  8
0
 62
     0
100
AcDbLine
 10
338.1250000000001
 20
-1881.25
 30
0.0
 11
338.1250000000001
 21
-1881.25
 31
0.0
  0
LINE
  5
15B
330
75
100
AcDbEntity
  8
0
 62
     0
100
AcDbLine
 10
339.3750000000001
 20
-1881.25
 30
0.0
 11
339.3750000000001
 21
-1881.25
 31
0.0
  0
LINE
  5
15C
330
75
100
AcDbEntity
  8
0
 62
     0
100
AcDbLine
 10
340.6250000000001
 20
-1881.25
 30
0.0
 11
340.6250000000001
 21
-1881.25
 31
0.0
  0
LINE
  5
15D
330
75
100
AcDbEntity
  8
0
 62
     0
100
AcDbLine
 10
341.8750000000001
 20
-1881.25
 30
0.0
 11
341.8750000000001
 21
-1881.25
 31
0.0
  0
LINE
  5
15E
330
75
100
AcDbEntity
  8
0
 62
     0
100
AcDbLine
 10
343.1250000000001
 20
-1881.25
 30
0.0
 11
343.1250000000001
 21
-1881.25
 31
0.0
  0
LINE
  5
15F
330
75
100
AcDbEntity
  8
0
 62
     0
100
AcDbLine
 10
344.3750000000001
 20
-1881.25
 30
0.0
 11
344.3750000000001
 21
-1881.25
 31
0.0
  0
LINE
  5
160
330
75
100
AcDbEntity
  8
0
 62
     0
100
AcDbLine
 10
345.6250000000001
 20
-1881.25
 30
0.0
 11
345.6250000000001
 21
-1881.25
 31
0.0
  0
LINE
  5
161
330
75
100
AcDbEntity
  8
0
 62
     0
100
AcDbLine
 10
346.8750000000001
 20
-1881.25
 30
0.0
 11
346.8750000000001
 21
-1881.25
 31
0.0
  0
LINE
  5
162
330
75
100
AcDbEntity
  8
0
 62
     0
100
AcDbLine
 10
348.1250000000001
 20
-1881.25
 30
0.0
 11
348.1250000000001
 21
-1881.25
 31
0.0
  0
LINE
  5
163
330
75
100
AcDbEntity
  8
0
 62
     0
100
AcDbLine
 10
393.1250000000001
 20
-1881.25
 30
0.0
 11
393.1250000000001
 21
-1881.25
 31
0.0
  0
LINE
  5
164
330
75
100
AcDbEntity
  8
0
 62
     0
100
AcDbLine
 10
364.3750000000001
 20
-1881.25
 30
0.0
 11
364.3750000000001
 21
-1881.25
 31
0.0
  0
LINE
  5
165
330
75
100
AcDbEntity
  8
0
 62
     0
100
AcDbLine
 10
365.625
 20
-1881.25
 30
0.0
 11
365.625
 21
-1881.25
 31
0.0
  0
LINE
  5
166
330
75
100
AcDbEntity
  8
0
 62
     0
100
AcDbLine
 10
366.8750000000001
 20
-1881.25
 30
0.0
 11
366.8750000000001
 21
-1881.25
 31
0.0
  0
LINE
  5
167
330
75
100
AcDbEntity
  8
0
 62
     0
100
AcDbLine
 10
368.1250000000001
 20
-1881.25
 30
0.0
 11
368.1250000000001
 21
-1881.25
 31
0.0
  0
LINE
  5
168
330
75
100
AcDbEntity
  8
0
 62
     0
100
AcDbLine
 10
376.8750000000001
 20
-1881.25
 30
0.0
 11
376.8750000000001
 21
-1881.25
 31
0.0
  0
LINE
  5
169
330
75
100
AcDbEntity
  8
0
 62
     0
100
AcDbLine
 10
337.5
 20
-1880.0
 30
0.0
 11
337.5
 21
-1880.0
 31
0.0
  0
LINE
  5
16A
330
75
100
AcDbEntity
  8
0
 62
     0
100
AcDbLine
 10
338.7500000000001
 20
-1880.0
 30
0.0
 11
338.7500000000001
 21
-1880.0
 31
0.0
  0
LINE
  5
16B
330
75
100
AcDbEntity
  8
0
 62
     0
100
AcDbLine
 10
343.75
 20
-1880.0
 30
0.0
 11
343.75
 21
-1880.0
 31
0.0
  0
LINE
  5
16C
330
75
100
AcDbEntity
  8
0
 62
     0
100
AcDbLine
 10
345.0000000000001
 20
-1880.0
 30
0.0
 11
345.0000000000001
 21
-1880.0
 31
0.0
  0
LINE
  5
16D
330
75
100
AcDbEntity
  8
0
 62
     0
100
AcDbLine
 10
346.2500000000001
 20
-1880.0
 30
0.0
 11
346.2500000000001
 21
-1880.0
 31
0.0
  0
LINE
  5
16E
330
75
100
AcDbEntity
  8
0
 62
     0
100
AcDbLine
 10
344.375
 20
-1878.75
 30
0.0
 11
344.375
 21
-1878.75
 31
0.0
  0
LINE
  5
16F
330
75
100
AcDbEntity
  8
0
 62
     0
100
AcDbLine
 10
345.6250000000001
 20
-1878.75
 30
0.0
 11
345.6250000000001
 21
-1878.75
 31
0.0
  0
LINE
  5
170
330
75
100
AcDbEntity
  8
0
 62
     0
100
AcDbLine
 10
358.7499999999999
 20
-1927.5
 30
0.0
 11
358.7499999999999
 21
-1927.5
 31
0.0
  0
LINE
  5
171
330
75
100
AcDbEntity
  8
0
 62
     0
100
AcDbLine
 10
359.9999999999999
 20
-1927.5
 30
0.0
 11
359.9999999999999
 21
-1927.5
 31
0.0
  0
LINE
  5
172
330
75
100
AcDbEntity
  8
0
 62
     0
100
AcDbLine
 10
361.2499999999999
 20
-1927.5
 30
0.0
 11
361.2499999999999
 21
-1927.5
 31
0.0
  0
LINE
  5
173
330
75
100
AcDbEntity
  8
0
 62
     0
100
AcDbLine
 10
356.875
 20
-1928.75
 30
0.0
 11
356.875
 21
-1928.75
 31
0.0
  0
LINE
  5
174
330
75
100
AcDbEntity
  8
0
 62
     0
100
AcDbLine
 10
358.125
 20
-1928.75
 30
0.0
 11
358.125
 21
-1928.75
 31
0.0
  0
LINE
  5
175
330
75
100
AcDbEntity
  8
0
 62
     0
100
AcDbLine
 10
359.375
 20
-1928.75
 30
0.0
 11
359.375
 21
-1928.75
 31
0.0
  0
LINE
  5
176
330
75
100
AcDbEntity
  8
0
 62
     0
100
AcDbLine
 10
360.625
 20
-1928.75
 30
0.0
 11
360.625
 21
-1928.75
 31
0.0
  0
LINE
  5
177
330
75
100
AcDbEntity
  8
0
 62
     0
100
AcDbLine
 10
356.2499999999999
 20
-1930.0
 30
0.0
 11
356.2499999999999
 21
-1930.0
 31
0.0
  0
LINE
  5
178
330
75
100
AcDbEntity
  8
0
 62
     0
100
AcDbLine
 10
357.4999999999999
 20
-1930.0
 30
0.0
 11
357.4999999999999
 21
-1930.0
 31
0.0
  0
LINE
  5
179
330
75
100
AcDbEntity
  8
0
 62
     0
100
AcDbLine
 10
358.7499999999999
 20
-1930.0
 30
0.0
 11
358.7499999999999
 21
-1930.0
 31
0.0
  0
LINE
  5
17A
330
75
100
AcDbEntity
  8
0
 62
     0
100
AcDbLine
 10
359.9999999999999
 20
-1930.0
 30
0.0
 11
359.9999999999999
 21
-1930.0
 31
0.0
  0
LINE
  5
17B
330
75
100
AcDbEntity
  8
0
 62
     0
100
AcDbLine
 10
364.9999999999999
 20
-1937.5
 30
0.0
 11
364.9999999999999
 21
-1937.5
 31
0.0
  0
LINE
  5
17C
330
75
100
AcDbEntity
  8
0
 62
     0
100
AcDbLine
 10
366.2499999999999
 20
-1937.5
 30
0.0
 11
366.2499999999999
 21
-1937.5
 31
0.0
  0
LINE
  5
17D
330
75
100
AcDbEntity
  8
0
 62
     0
100
AcDbLine
 10
367.4999999999999
 20
-1937.5
 30
0.0
 11
367.4999999999999
 21
-1937.5
 31
0.0
  0
LINE
  5
17E
330
75
100
AcDbEntity
  8
0
 62
     0
100
AcDbLine
 10
365.6250000000001
 20
-1938.75
 30
0.0
 11
365.6250000000001
 21
-1938.75
 31
0.0
  0
LINE
  5
17F
330
75
100
AcDbEntity
  8
0
 62
     0
100
AcDbLine
 10
366.8750000000001
 20
-1938.75
 30
0.0
 11
366.8750000000001
 21
-1938.75
 31
0.0
  0
LINE
  5
180
330
75
100
AcDbEntity
  8
0
 62
     0
100
AcDbLine
 10
368.1250000000001
 20
-1938.75
 30
0.0
 11
368.1250000000001
 21
-1938.75
 31
0.0
  0
LINE
  5
181
330
75
100
AcDbEntity
  8
0
 62
     0
100
AcDbLine
 10
369.3750000000001
 20
-1938.75
 30
0.0
 11
369.3750000000001
 21
-1938.75
 31
0.0
  0
LINE
  5
182
330
75
100
AcDbEntity
  8
0
 62
     0
100
AcDbLine
 10
364.9999999999999
 20
-1940.0
 30
0.0
 11
364.9999999999999
 21
-1940.0
 31
0.0
  0
LINE
  5
183
330
75
100
AcDbEntity
  8
0
 62
     0
100
AcDbLine
 10
366.2499999999999
 20
-1940.0
 30
0.0
 11
366.2499999999999
 21
-1940.0
 31
0.0
  0
LINE
  5
184
330
75
100
AcDbEntity
  8
0
 62
     0
100
AcDbLine
 10
367.4999999999999
 20
-1940.0
 30
0.0
 11
367.4999999999999
 21
-1940.0
 31
0.0
  0
LINE
  5
185
330
75
100
AcDbEntity
  8
0
 62
     0
100
AcDbLine
 10
368.7499999999999
 20
-1940.0
 30
0.0
 11
368.7499999999999
 21
-1940.0
 31
0.0
  0
LINE
  5
186
330
75
100
AcDbEntity
  8
0
 62
     0
100
AcDbLine
 10
369.9999999999999
 20
-1940.0
 30
0.0
 11
369.9999999999999
 21
-1940.0
 31
0.0
  0
LINE
  5
187
330
75
100
AcDbEntity
  8
0
 62
     0
100
AcDbLine
 10
371.2499999999999
 20
-1940.0
 30
0.0
 11
371.2499999999999
 21
-1940.0
 31
0.0
  0
LINE
  5
188
330
75
100
AcDbEntity
  8
0
 62
     0
100
AcDbLine
 10
372.4999999999999
 20
-1940.0
 30
0.0
 11
372.4999999999999
 21
-1940.0
 31
0.0
  0
LINE
  5
189
330
75
100
AcDbEntity
  8
0
 62
     0
100
AcDbLine
 10
365.625
 20
-1941.25
 30
0.0
 11
365.625
 21
-1941.25
 31
0.0
  0
LINE
  5
18A
330
75
100
AcDbEntity
  8
0
 62
     0
100
AcDbLine
 10
366.8749999999999
 20
-1941.25
 30
0.0
 11
366.8749999999999
 21
-1941.25
 31
0.0
  0
LINE
  5
18B
330
75
100
AcDbEntity
  8
0
 62
     0
100
AcDbLine
 10
368.1249999999999
 20
-1941.25
 30
0.0
 11
368.1249999999999
 21
-1941.25
 31
0.0
  0
LINE
  5
18C
330
75
100
AcDbEntity
  8
0
 62
     0
100
AcDbLine
 10
369.375
 20
-1941.25
 30
0.0
 11
369.375
 21
-1941.25
 31
0.0
  0
LINE
  5
18D
330
75
100
AcDbEntity
  8
0
 62
     0
100
AcDbLine
 10
370.6249999999999
 20
-1941.25
 30
0.0
 11
370.6249999999999
 21
-1941.25
 31
0.0
  0
LINE
  5
18E
330
75
100
AcDbEntity
  8
0
 62
     0
100
AcDbLine
 10
371.875
 20
-1941.25
 30
0.0
 11
371.875
 21
-1941.25
 31
0.0
  0
LINE
  5
18F
330
75
100
AcDbEntity
  8
0
 62
     0
100
AcDbLine
 10
373.1249999999999
 20
-1941.25
 30
0.0
 11
373.1249999999999
 21
-1941.25
 31
0.0
  0
LINE
  5
190
330
75
100
AcDbEntity
  8
0
 62
     0
100
AcDbLine
 10
357.5000000000001
 20
-1942.5
 30
0.0
 11
357.5000000000001
 21
-1942.5
 31
0.0
  0
LINE
  5
191
330
75
100
AcDbEntity
  8
0
 62
     0
100
AcDbLine
 10
367.4999999999999
 20
-1942.5
 30
0.0
 11
367.4999999999999
 21
-1942.5
 31
0.0
  0
LINE
  5
192
330
75
100
AcDbEntity
  8
0
 62
     0
100
AcDbLine
 10
368.75
 20
-1942.5
 30
0.0
 11
368.75
 21
-1942.5
 31
0.0
  0
LINE
  5
193
330
75
100
AcDbEntity
  8
0
 62
     0
100
AcDbLine
 10
369.9999999999999
 20
-1942.5
 30
0.0
 11
369.9999999999999
 21
-1942.5
 31
0.0
  0
LINE
  5
194
330
75
100
AcDbEntity
  8
0
 62
     0
100
AcDbLine
 10
371.2499999999999
 20
-1942.5
 30
0.0
 11
371.2499999999999
 21
-1942.5
 31
0.0
  0
LINE
  5
195
330
75
100
AcDbEntity
  8
0
 62
     0
100
AcDbLine
 10
372.5
 20
-1942.5
 30
0.0
 11
372.5
 21
-1942.5
 31
0.0
  0
LINE
  5
196
330
75
100
AcDbEntity
  8
0
 62
     0
100
AcDbLine
 10
373.7499999999999
 20
-1942.5
 30
0.0
 11
373.7499999999999
 21
-1942.5
 31
0.0
  0
LINE
  5
197
330
75
100
AcDbEntity
  8
0
 62
     0
100
AcDbLine
 10
354.3750000000001
 20
-1943.75
 30
0.0
 11
354.3750000000001
 21
-1943.75
 31
0.0
  0
LINE
  5
198
330
75
100
AcDbEntity
  8
0
 62
     0
100
AcDbLine
 10
355.6250000000001
 20
-1943.75
 30
0.0
 11
355.6250000000001
 21
-1943.75
 31
0.0
  0
LINE
  5
199
330
75
100
AcDbEntity
  8
0
 62
     0
100
AcDbLine
 10
356.875
 20
-1943.75
 30
0.0
 11
356.875
 21
-1943.75
 31
0.0
  0
LINE
  5
19A
330
75
100
AcDbEntity
  8
0
 62
     0
100
AcDbLine
 10
358.1250000000001
 20
-1943.75
 30
0.0
 11
358.1250000000001
 21
-1943.75
 31
0.0
  0
LINE
  5
19B
330
75
100
AcDbEntity
  8
0
 62
     0
100
AcDbLine
 10
359.375
 20
-1943.75
 30
0.0
 11
359.375
 21
-1943.75
 31
0.0
  0
LINE
  5
19C
330
75
100
AcDbEntity
  8
0
 62
     0
100
AcDbLine
 10
369.375
 20
-1943.75
 30
0.0
 11
369.375
 21
-1943.75
 31
0.0
  0
LINE
  5
19D
330
75
100
AcDbEntity
  8
0
 62
     0
100
AcDbLine
 10
370.6249999999999
 20
-1943.75
 30
0.0
 11
370.6249999999999
 21
-1943.75
 31
0.0
  0
LINE
  5
19E
330
75
100
AcDbEntity
  8
0
 62
     0
100
AcDbLine
 10
371.875
 20
-1943.75
 30
0.0
 11
371.875
 21
-1943.75
 31
0.0
  0
LINE
  5
19F
330
75
100
AcDbEntity
  8
0
 62
     0
100
AcDbLine
 10
353.75
 20
-1945.0
 30
0.0
 11
353.75
 21
-1945.0
 31
0.0
  0
LINE
  5
1A0
330
75
100
AcDbEntity
  8
0
 62
     0
100
AcDbLine
 10
354.9999999999999
 20
-1945.0
 30
0.0
 11
354.9999999999999
 21
-1945.0
 31
0.0
  0
LINE
  5
1A1
330
75
100
AcDbEntity
  8
0
 62
     0
100
AcDbLine
 10
356.25
 20
-1945.0
 30
0.0
 11
356.25
 21
-1945.0
 31
0.0
  0
LINE
  5
1A2
330
75
100
AcDbEntity
  8
0
 62
     0
100
AcDbLine
 10
357.4999999999999
 20
-1945.0
 30
0.0
 11
357.4999999999999
 21
-1945.0
 31
0.0
  0
LINE
  5
1A3
330
75
100
AcDbEntity
  8
0
 62
     0
100
AcDbLine
 10
358.7499999999999
 20
-1945.0
 30
0.0
 11
358.7499999999999
 21
-1945.0
 31
0.0
  0
LINE
  5
1A4
330
75
100
AcDbEntity
  8
0
 62
     0
100
AcDbLine
 10
360.0
 20
-1945.0
 30
0.0
 11
360.0
 21
-1945.0
 31
0.0
  0
LINE
  5
1A5
330
75
100
AcDbEntity
  8
0
 62
     0
100
AcDbLine
 10
361.2499999999999
 20
-1945.0
 30
0.0
 11
361.2499999999999
 21
-1945.0
 31
0.0
  0
LINE
  5
1A6
330
75
100
AcDbEntity
  8
0
 62
     0
100
AcDbLine
 10
373.7500000000001
 20
-1945.0
 30
0.0
 11
373.7500000000001
 21
-1945.0
 31
0.0
  0
LINE
  5
1A7
330
75
100
AcDbEntity
  8
0
 62
     0
100
AcDbLine
 10
375.0000000000001
 20
-1945.0
 30
0.0
 11
375.0000000000001
 21
-1945.0
 31
0.0
  0
LINE
  5
1A8
330
75
100
AcDbEntity
  8
0
 62
     0
100
AcDbLine
 10
369.9999999999999
 20
-1945.0
 30
0.0
 11
369.9999999999999
 21
-1945.0
 31
0.0
  0
LINE
  5
1A9
330
75
100
AcDbEntity
  8
0
 62
     0
100
AcDbLine
 10
353.125
 20
-1946.25
 30
0.0
 11
353.125
 21
-1946.25
 31
0.0
  0
LINE
  5
1AA
330
75
100
AcDbEntity
  8
0
 62
     0
100
AcDbLine
 10
354.3750000000001
 20
-1946.25
 30
0.0
 11
354.3750000000001
 21
-1946.25
 31
0.0
  0
LINE
  5
1AB
330
75
100
AcDbEntity
  8
0
 62
     0
100
AcDbLine
 10
355.6250000000001
 20
-1946.25
 30
0.0
 11
355.6250000000001
 21
-1946.25
 31
0.0
  0
LINE
  5
1AC
330
75
100
AcDbEntity
  8
0
 62
     0
100
AcDbLine
 10
356.875
 20
-1946.25
 30
0.0
 11
356.875
 21
-1946.25
 31
0.0
  0
LINE
  5
1AD
330
75
100
AcDbEntity
  8
0
 62
     0
100
AcDbLine
 10
358.1250000000001
 20
-1946.25
 30
0.0
 11
358.1250000000001
 21
-1946.25
 31
0.0
  0
LINE
  5
1AE
330
75
100
AcDbEntity
  8
0
 62
     0
100
AcDbLine
 10
359.375
 20
-1946.25
 30
0.0
 11
359.375
 21
-1946.25
 31
0.0
  0
LINE
  5
1AF
330
75
100
AcDbEntity
  8
0
 62
     0
100
AcDbLine
 10
360.6250000000001
 20
-1946.25
 30
0.0
 11
360.6250000000001
 21
-1946.25
 31
0.0
  0
LINE
  5
1B0
330
75
100
AcDbEntity
  8
0
 62
     0
100
AcDbLine
 10
361.8750000000001
 20
-1946.25
 30
0.0
 11
361.8750000000001
 21
-1946.25
 31
0.0
  0
LINE
  5
1B1
330
75
100
AcDbEntity
  8
0
 62
     0
100
AcDbLine
 10
363.125
 20
-1946.25
 30
0.0
 11
363.125
 21
-1946.25
 31
0.0
  0
LINE
  5
1B2
330
75
100
AcDbEntity
  8
0
 62
     0
100
AcDbLine
 10
364.3750000000001
 20
-1946.25
 30
0.0
 11
364.3750000000001
 21
-1946.25
 31
0.0
  0
LINE
  5
1B3
330
75
100
AcDbEntity
  8
0
 62
     0
100
AcDbLine
 10
371.8749999999999
 20
-1946.25
 30
0.0
 11
371.8749999999999
 21
-1946.25
 31
0.0
  0
LINE
  5
1B4
330
75
100
AcDbEntity
  8
0
 62
     0
100
AcDbLine
 10
373.1249999999999
 20
-1946.25
 30
0.0
 11
373.1249999999999
 21
-1946.25
 31
0.0
  0
LINE
  5
1B5
330
75
100
AcDbEntity
  8
0
 62
     0
100
AcDbLine
 10
374.3749999999999
 20
-1946.25
 30
0.0
 11
374.3749999999999
 21
-1946.25
 31
0.0
  0
LINE
  5
1B6
330
75
100
AcDbEntity
  8
0
 62
     0
100
AcDbLine
 10
375.6249999999999
 20
-1946.25
 30
0.0
 11
375.6249999999999
 21
-1946.25
 31
0.0
  0
LINE
  5
1B7
330
75
100
AcDbEntity
  8
0
 62
     0
100
AcDbLine
 10
376.8749999999999
 20
-1946.25
 30
0.0
 11
376.8749999999999
 21
-1946.25
 31
0.0
  0
LINE
  5
1B8
330
75
100
AcDbEntity
  8
0
 62
     0
100
AcDbLine
 10
378.1249999999999
 20
-1946.25
 30
0.0
 11
378.1249999999999
 21
-1946.25
 31
0.0
  0
LINE
  5
1B9
330
75
100
AcDbEntity
  8
0
 62
     0
100
AcDbLine
 10
351.2499999999999
 20
-1947.5
 30
0.0
 11
351.2499999999999
 21
-1947.5
 31
0.0
  0
LINE
  5
1BA
330
75
100
AcDbEntity
  8
0
 62
     0
100
AcDbLine
 10
352.4999999999999
 20
-1947.5
 30
0.0
 11
352.4999999999999
 21
-1947.5
 31
0.0
  0
LINE
  5
1BB
330
75
100
AcDbEntity
  8
0
 62
     0
100
AcDbLine
 10
353.7499999999999
 20
-1947.5
 30
0.0
 11
353.7499999999999
 21
-1947.5
 31
0.0
  0
LINE
  5
1BC
330
75
100
AcDbEntity
  8
0
 62
     0
100
AcDbLine
 10
354.9999999999999
 20
-1947.5
 30
0.0
 11
354.9999999999999
 21
-1947.5
 31
0.0
  0
LINE
  5
1BD
330
75
100
AcDbEntity
  8
0
 62
     0
100
AcDbLine
 10
356.2499999999999
 20
-1947.5
 30
0.0
 11
356.2499999999999
 21
-1947.5
 31
0.0
  0
LINE
  5
1BE
330
75
100
AcDbEntity
  8
0
 62
     0
100
AcDbLine
 10
357.4999999999999
 20
-1947.5
 30
0.0
 11
357.4999999999999
 21
-1947.5
 31
0.0
  0
LINE
  5
1BF
330
75
100
AcDbEntity
  8
0
 62
     0
100
AcDbLine
 10
358.7499999999999
 20
-1947.5
 30
0.0
 11
358.7499999999999
 21
-1947.5
 31
0.0
  0
LINE
  5
1C0
330
75
100
AcDbEntity
  8
0
 62
     0
100
AcDbLine
 10
359.9999999999999
 20
-1947.5
 30
0.0
 11
359.9999999999999
 21
-1947.5
 31
0.0
  0
LINE
  5
1C1
330
75
100
AcDbEntity
  8
0
 62
     0
100
AcDbLine
 10
361.2499999999999
 20
-1947.5
 30
0.0
 11
361.2499999999999
 21
-1947.5
 31
0.0
  0
LINE
  5
1C2
330
75
100
AcDbEntity
  8
0
 62
     0
100
AcDbLine
 10
362.4999999999999
 20
-1947.5
 30
0.0
 11
362.4999999999999
 21
-1947.5
 31
0.0
  0
LINE
  5
1C3
330
75
100
AcDbEntity
  8
0
 62
     0
100
AcDbLine
 10
363.7499999999999
 20
-1947.5
 30
0.0
 11
363.7499999999999
 21
-1947.5
 31
0.0
  0
LINE
  5
1C4
330
75
100
AcDbEntity
  8
0
 62
     0
100
AcDbLine
 10
364.9999999999999
 20
-1947.5
 30
0.0
 11
364.9999999999999
 21
-1947.5
 31
0.0
  0
LINE
  5
1C5
330
75
100
AcDbEntity
  8
0
 62
     0
100
AcDbLine
 10
371.2500000000001
 20
-1947.5
 30
0.0
 11
371.2500000000001
 21
-1947.5
 31
0.0
  0
LINE
  5
1C6
330
75
100
AcDbEntity
  8
0
 62
     0
100
AcDbLine
 10
372.5000000000001
 20
-1947.5
 30
0.0
 11
372.5000000000001
 21
-1947.5
 31
0.0
  0
LINE
  5
1C7
330
75
100
AcDbEntity
  8
0
 62
     0
100
AcDbLine
 10
373.7500000000001
 20
-1947.5
 30
0.0
 11
373.7500000000001
 21
-1947.5
 31
0.0
  0
LINE
  5
1C8
330
75
100
AcDbEntity
  8
0
 62
     0
100
AcDbLine
 10
375.0000000000001
 20
-1947.5
 30
0.0
 11
375.0000000000001
 21
-1947.5
 31
0.0
  0
LINE
  5
1C9
330
75
100
AcDbEntity
  8
0
 62
     0
100
AcDbLine
 10
376.2500000000001
 20
-1947.5
 30
0.0
 11
376.2500000000001
 21
-1947.5
 31
0.0
  0
LINE
  5
1CA
330
75
100
AcDbEntity
  8
0
 62
     0
100
AcDbLine
 10
377.5000000000001
 20
-1947.5
 30
0.0
 11
377.5000000000001
 21
-1947.5
 31
0.0
  0
LINE
  5
1CB
330
75
100
AcDbEntity
  8
0
 62
     0
100
AcDbLine
 10
378.7500000000001
 20
-1947.5
 30
0.0
 11
378.7500000000001
 21
-1947.5
 31
0.0
  0
LINE
  5
1CC
330
75
100
AcDbEntity
  8
0
 62
     0
100
AcDbLine
 10
380.0000000000001
 20
-1947.5
 30
0.0
 11
380.0000000000001
 21
-1947.5
 31
0.0
  0
LINE
  5
1CD
330
75
100
AcDbEntity
  8
0
 62
     0
100
AcDbLine
 10
349.3749999999999
 20
-1948.75
 30
0.0
 11
349.3749999999999
 21
-1948.75
 31
0.0
  0
LINE
  5
1CE
330
75
100
AcDbEntity
  8
0
 62
     0
100
AcDbLine
 10
350.6249999999999
 20
-1948.75
 30
0.0
 11
350.6249999999999
 21
-1948.75
 31
0.0
  0
LINE
  5
1CF
330
75
100
AcDbEntity
  8
0
 62
     0
100
AcDbLine
 10
351.8749999999999
 20
-1948.75
 30
0.0
 11
351.8749999999999
 21
-1948.75
 31
0.0
  0
LINE
  5
1D0
330
75
100
AcDbEntity
  8
0
 62
     0
100
AcDbLine
 10
353.1249999999999
 20
-1948.75
 30
0.0
 11
353.1249999999999
 21
-1948.75
 31
0.0
  0
LINE
  5
1D1
330
75
100
AcDbEntity
  8
0
 62
     0
100
AcDbLine
 10
354.3749999999999
 20
-1948.75
 30
0.0
 11
354.3749999999999
 21
-1948.75
 31
0.0
  0
LINE
  5
1D2
330
75
100
AcDbEntity
  8
0
 62
     0
100
AcDbLine
 10
355.6249999999999
 20
-1948.75
 30
0.0
 11
355.6249999999999
 21
-1948.75
 31
0.0
  0
LINE
  5
1D3
330
75
100
AcDbEntity
  8
0
 62
     0
100
AcDbLine
 10
356.8749999999999
 20
-1948.75
 30
0.0
 11
356.8749999999999
 21
-1948.75
 31
0.0
  0
LINE
  5
1D4
330
75
100
AcDbEntity
  8
0
 62
     0
100
AcDbLine
 10
358.1249999999999
 20
-1948.75
 30
0.0
 11
358.1249999999999
 21
-1948.75
 31
0.0
  0
LINE
  5
1D5
330
75
100
AcDbEntity
  8
0
 62
     0
100
AcDbLine
 10
359.3749999999999
 20
-1948.75
 30
0.0
 11
359.3749999999999
 21
-1948.75
 31
0.0
  0
LINE
  5
1D6
330
75
100
AcDbEntity
  8
0
 62
     0
100
AcDbLine
 10
360.6249999999999
 20
-1948.75
 30
0.0
 11
360.6249999999999
 21
-1948.75
 31
0.0
  0
LINE
  5
1D7
330
75
100
AcDbEntity
  8
0
 62
     0
100
AcDbLine
 10
361.8749999999999
 20
-1948.75
 30
0.0
 11
361.8749999999999
 21
-1948.75
 31
0.0
  0
LINE
  5
1D8
330
75
100
AcDbEntity
  8
0
 62
     0
100
AcDbLine
 10
363.1249999999999
 20
-1948.75
 30
0.0
 11
363.1249999999999
 21
-1948.75
 31
0.0
  0
LINE
  5
1D9
330
75
100
AcDbEntity
  8
0
 62
     0
100
AcDbLine
 10
364.3749999999999
 20
-1948.75
 30
0.0
 11
364.3749999999999
 21
-1948.75
 31
0.0
  0
LINE
  5
1DA
330
75
100
AcDbEntity
  8
0
 62
     0
100
AcDbLine
 10
370.6249999999999
 20
-1948.75
 30
0.0
 11
370.6249999999999
 21
-1948.75
 31
0.0
  0
LINE
  5
1DB
330
75
100
AcDbEntity
  8
0
 62
     0
100
AcDbLine
 10
371.8749999999999
 20
-1948.75
 30
0.0
 11
371.8749999999999
 21
-1948.75
 31
0.0
  0
LINE
  5
1DC
330
75
100
AcDbEntity
  8
0
 62
     0
100
AcDbLine
 10
373.1249999999999
 20
-1948.75
 30
0.0
 11
373.1249999999999
 21
-1948.75
 31
0.0
  0
LINE
  5
1DD
330
75
100
AcDbEntity
  8
0
 62
     0
100
AcDbLine
 10
374.3749999999999
 20
-1948.75
 30
0.0
 11
374.3749999999999
 21
-1948.75
 31
0.0
  0
LINE
  5
1DE
330
75
100
AcDbEntity
  8
0
 62
     0
100
AcDbLine
 10
375.6249999999999
 20
-1948.75
 30
0.0
 11
375.6249999999999
 21
-1948.75
 31
0.0
  0
LINE
  5
1DF
330
75
100
AcDbEntity
  8
0
 62
     0
100
AcDbLine
 10
376.8749999999999
 20
-1948.75
 30
0.0
 11
376.8749999999999
 21
-1948.75
 31
0.0
  0
LINE
  5
1E0
330
75
100
AcDbEntity
  8
0
 62
     0
100
AcDbLine
 10
378.1249999999999
 20
-1948.75
 30
0.0
 11
378.1249999999999
 21
-1948.75
 31
0.0
  0
LINE
  5
1E1
330
75
100
AcDbEntity
  8
0
 62
     0
100
AcDbLine
 10
379.3749999999999
 20
-1948.75
 30
0.0
 11
379.3749999999999
 21
-1948.75
 31
0.0
  0
LINE
  5
1E2
330
75
100
AcDbEntity
  8
0
 62
     0
100
AcDbLine
 10
380.6249999999999
 20
-1948.75
 30
0.0
 11
380.6249999999999
 21
-1948.75
 31
0.0
  0
LINE
  5
1E3
330
75
100
AcDbEntity
  8
0
 62
     0
100
AcDbLine
 10
381.8749999999999
 20
-1948.75
 30
0.0
 11
381.8749999999999
 21
-1948.75
 31
0.0
  0
LINE
  5
1E4
330
75
100
AcDbEntity
  8
0
 62
     0
100
AcDbLine
 10
350.0
 20
-1950.0
 30
0.0
 11
350.0
 21
-1950.0
 31
0.0
  0
LINE
  5
1E5
330
75
100
AcDbEntity
  8
0
 62
     0
100
AcDbLine
 10
351.25
 20
-1950.0
 30
0.0
 11
351.25
 21
-1950.0
 31
0.0
  0
LINE
  5
1E6
330
75
100
AcDbEntity
  8
0
 62
     0
100
AcDbLine
 10
352.5
 20
-1950.0
 30
0.0
 11
352.5
 21
-1950.0
 31
0.0
  0
LINE
  5
1E7
330
75
100
AcDbEntity
  8
0
 62
     0
100
AcDbLine
 10
353.75
 20
-1950.0
 30
0.0
 11
353.75
 21
-1950.0
 31
0.0
  0
LINE
  5
1E8
330
75
100
AcDbEntity
  8
0
 62
     0
100
AcDbLine
 10
355.0
 20
-1950.0
 30
0.0
 11
355.0
 21
-1950.0
 31
0.0
  0
LINE
  5
1E9
330
75
100
AcDbEntity
  8
0
 62
     0
100
AcDbLine
 10
356.25
 20
-1950.0
 30
0.0
 11
356.25
 21
-1950.0
 31
0.0
  0
LINE
  5
1EA
330
75
100
AcDbEntity
  8
0
 62
     0
100
AcDbLine
 10
357.5
 20
-1950.0
 30
0.0
 11
357.5
 21
-1950.0
 31
0.0
  0
LINE
  5
1EB
330
75
100
AcDbEntity
  8
0
 62
     0
100
AcDbLine
 10
358.75
 20
-1950.0
 30
0.0
 11
358.75
 21
-1950.0
 31
0.0
  0
LINE
  5
1EC
330
75
100
AcDbEntity
  8
0
 62
     0
100
AcDbLine
 10
360.0
 20
-1950.0
 30
0.0
 11
360.0
 21
-1950.0
 31
0.0
  0
LINE
  5
1ED
330
75
100
AcDbEntity
  8
0
 62
     0
100
AcDbLine
 10
361.25
 20
-1950.0
 30
0.0
 11
361.25
 21
-1950.0
 31
0.0
  0
LINE
  5
1EE
330
75
100
AcDbEntity
  8
0
 62
     0
100
AcDbLine
 10
362.5
 20
-1950.0
 30
0.0
 11
362.5
 21
-1950.0
 31
0.0
  0
LINE
  5
1EF
330
75
100
AcDbEntity
  8
0
 62
     0
100
AcDbLine
 10
363.75
 20
-1950.0
 30
0.0
 11
363.75
 21
-1950.0
 31
0.0
  0
LINE
  5
1F0
330
75
100
AcDbEntity
  8
0
 62
     0
100
AcDbLine
 10
365.0
 20
-1950.0
 30
0.0
 11
365.0
 21
-1950.0
 31
0.0
  0
LINE
  5
1F1
330
75
100
AcDbEntity
  8
0
 62
     0
100
AcDbLine
 10
370.0000000000001
 20
-1950.0
 30
0.0
 11
370.0000000000001
 21
-1950.0
 31
0.0
  0
LINE
  5
1F2
330
75
100
AcDbEntity
  8
0
 62
     0
100
AcDbLine
 10
371.2500000000001
 20
-1950.0
 30
0.0
 11
371.2500000000001
 21
-1950.0
 31
0.0
  0
LINE
  5
1F3
330
75
100
AcDbEntity
  8
0
 62
     0
100
AcDbLine
 10
372.5000000000001
 20
-1950.0
 30
0.0
 11
372.5000000000001
 21
-1950.0
 31
0.0
  0
LINE
  5
1F4
330
75
100
AcDbEntity
  8
0
 62
     0
100
AcDbLine
 10
373.7500000000001
 20
-1950.0
 30
0.0
 11
373.7500000000001
 21
-1950.0
 31
0.0
  0
LINE
  5
1F5
330
75
100
AcDbEntity
  8
0
 62
     0
100
AcDbLine
 10
375.0000000000001
 20
-1950.0
 30
0.0
 11
375.0000000000001
 21
-1950.0
 31
0.0
  0
LINE
  5
1F6
330
75
100
AcDbEntity
  8
0
 62
     0
100
AcDbLine
 10
376.2500000000001
 20
-1950.0
 30
0.0
 11
376.2500000000001
 21
-1950.0
 31
0.0
  0
LINE
  5
1F7
330
75
100
AcDbEntity
  8
0
 62
     0
100
AcDbLine
 10
377.5000000000001
 20
-1950.0
 30
0.0
 11
377.5000000000001
 21
-1950.0
 31
0.0
  0
LINE
  5
1F8
330
75
100
AcDbEntity
  8
0
 62
     0
100
AcDbLine
 10
378.7500000000001
 20
-1950.0
 30
0.0
 11
378.7500000000001
 21
-1950.0
 31
0.0
  0
LINE
  5
1F9
330
75
100
AcDbEntity
  8
0
 62
     0
100
AcDbLine
 10
380.0000000000001
 20
-1950.0
 30
0.0
 11
380.0000000000001
 21
-1950.0
 31
0.0
  0
LINE
  5
1FA
330
75
100
AcDbEntity
  8
0
 62
     0
100
AcDbLine
 10
381.2500000000001
 20
-1950.0
 30
0.0
 11
381.2500000000001
 21
-1950.0
 31
0.0
  0
LINE
  5
1FB
330
75
100
AcDbEntity
  8
0
 62
     0
100
AcDbLine
 10
351.8749999999999
 20
-1951.25
 30
0.0
 11
351.8749999999999
 21
-1951.25
 31
0.0
  0
LINE
  5
1FC
330
75
100
AcDbEntity
  8
0
 62
     0
100
AcDbLine
 10
353.125
 20
-1951.25
 30
0.0
 11
353.125
 21
-1951.25
 31
0.0
  0
LINE
  5
1FD
330
75
100
AcDbEntity
  8
0
 62
     0
100
AcDbLine
 10
354.3749999999999
 20
-1951.25
 30
0.0
 11
354.3749999999999
 21
-1951.25
 31
0.0
  0
LINE
  5
1FE
330
75
100
AcDbEntity
  8
0
 62
     0
100
AcDbLine
 10
355.6249999999999
 20
-1951.25
 30
0.0
 11
355.6249999999999
 21
-1951.25
 31
0.0
  0
LINE
  5
1FF
330
75
100
AcDbEntity
  8
0
 62
     0
100
AcDbLine
 10
356.875
 20
-1951.25
 30
0.0
 11
356.875
 21
-1951.25
 31
0.0
  0
LINE
  5
200
330
75
100
AcDbEntity
  8
0
 62
     0
100
AcDbLine
 10
358.1249999999999
 20
-1951.25
 30
0.0
 11
358.1249999999999
 21
-1951.25
 31
0.0
  0
LINE
  5
201
330
75
100
AcDbEntity
  8
0
 62
     0
100
AcDbLine
 10
359.375
 20
-1951.25
 30
0.0
 11
359.375
 21
-1951.25
 31
0.0
  0
LINE
  5
202
330
75
100
AcDbEntity
  8
0
 62
     0
100
AcDbLine
 10
360.6249999999999
 20
-1951.25
 30
0.0
 11
360.6249999999999
 21
-1951.25
 31
0.0
  0
LINE
  5
203
330
75
100
AcDbEntity
  8
0
 62
     0
100
AcDbLine
 10
361.8749999999999
 20
-1951.25
 30
0.0
 11
361.8749999999999
 21
-1951.25
 31
0.0
  0
LINE
  5
204
330
75
100
AcDbEntity
  8
0
 62
     0
100
AcDbLine
 10
363.125
 20
-1951.25
 30
0.0
 11
363.125
 21
-1951.25
 31
0.0
  0
LINE
  5
205
330
75
100
AcDbEntity
  8
0
 62
     0
100
AcDbLine
 10
364.3749999999999
 20
-1951.25
 30
0.0
 11
364.3749999999999
 21
-1951.25
 31
0.0
  0
LINE
  5
206
330
75
100
AcDbEntity
  8
0
 62
     0
100
AcDbLine
 10
369.3749999999999
 20
-1951.25
 30
0.0
 11
369.3749999999999
 21
-1951.25
 31
0.0
  0
LINE
  5
207
330
75
100
AcDbEntity
  8
0
 62
     0
100
AcDbLine
 10
370.6249999999999
 20
-1951.25
 30
0.0
 11
370.6249999999999
 21
-1951.25
 31
0.0
  0
LINE
  5
208
330
75
100
AcDbEntity
  8
0
 62
     0
100
AcDbLine
 10
371.8749999999999
 20
-1951.25
 30
0.0
 11
371.8749999999999
 21
-1951.25
 31
0.0
  0
LINE
  5
209
330
75
100
AcDbEntity
  8
0
 62
     0
100
AcDbLine
 10
373.1249999999999
 20
-1951.25
 30
0.0
 11
373.1249999999999
 21
-1951.25
 31
0.0
  0
LINE
  5
20A
330
75
100
AcDbEntity
  8
0
 62
     0
100
AcDbLine
 10
374.3749999999999
 20
-1951.25
 30
0.0
 11
374.3749999999999
 21
-1951.25
 31
0.0
  0
LINE
  5
20B
330
75
100
AcDbEntity
  8
0
 62
     0
100
AcDbLine
 10
375.6249999999999
 20
-1951.25
 30
0.0
 11
375.6249999999999
 21
-1951.25
 31
0.0
  0
LINE
  5
20C
330
75
100
AcDbEntity
  8
0
 62
     0
100
AcDbLine
 10
376.8749999999999
 20
-1951.25
 30
0.0
 11
376.8749999999999
 21
-1951.25
 31
0.0
  0
LINE
  5
20D
330
75
100
AcDbEntity
  8
0
 62
     0
100
AcDbLine
 10
378.1249999999999
 20
-1951.25
 30
0.0
 11
378.1249999999999
 21
-1951.25
 31
0.0
  0
LINE
  5
20E
330
75
100
AcDbEntity
  8
0
 62
     0
100
AcDbLine
 10
379.3749999999999
 20
-1951.25
 30
0.0
 11
379.3749999999999
 21
-1951.25
 31
0.0
  0
LINE
  5
20F
330
75
100
AcDbEntity
  8
0
 62
     0
100
AcDbLine
 10
380.6249999999999
 20
-1951.25
 30
0.0
 11
380.6249999999999
 21
-1951.25
 31
0.0
  0
LINE
  5
210
330
75
100
AcDbEntity
  8
0
 62
     0
100
AcDbLine
 10
352.5
 20
-1952.5
 30
0.0
 11
352.5
 21
-1952.5
 31
0.0
  0
LINE
  5
211
330
75
100
AcDbEntity
  8
0
 62
     0
100
AcDbLine
 10
353.75
 20
-1952.5
 30
0.0
 11
353.75
 21
-1952.5
 31
0.0
  0
LINE
  5
212
330
75
100
AcDbEntity
  8
0
 62
     0
100
AcDbLine
 10
355.0
 20
-1952.5
 30
0.0
 11
355.0
 21
-1952.5
 31
0.0
  0
LINE
  5
213
330
75
100
AcDbEntity
  8
0
 62
     0
100
AcDbLine
 10
356.25
 20
-1952.5
 30
0.0
 11
356.25
 21
-1952.5
 31
0.0
  0
LINE
  5
214
330
75
100
AcDbEntity
  8
0
 62
     0
100
AcDbLine
 10
357.5
 20
-1952.5
 30
0.0
 11
357.5
 21
-1952.5
 31
0.0
  0
LINE
  5
215
330
75
100
AcDbEntity
  8
0
 62
     0
100
AcDbLine
 10
358.75
 20
-1952.5
 30
0.0
 11
358.75
 21
-1952.5
 31
0.0
  0
LINE
  5
216
330
75
100
AcDbEntity
  8
0
 62
     0
100
AcDbLine
 10
360.0
 20
-1952.5
 30
0.0
 11
360.0
 21
-1952.5
 31
0.0
  0
LINE
  5
217
330
75
100
AcDbEntity
  8
0
 62
     0
100
AcDbLine
 10
361.25
 20
-1952.5
 30
0.0
 11
361.25
 21
-1952.5
 31
0.0
  0
LINE
  5
218
330
75
100
AcDbEntity
  8
0
 62
     0
100
AcDbLine
 10
362.5
 20
-1952.5
 30
0.0
 11
362.5
 21
-1952.5
 31
0.0
  0
LINE
  5
219
330
75
100
AcDbEntity
  8
0
 62
     0
100
AcDbLine
 10
363.75
 20
-1952.5
 30
0.0
 11
363.75
 21
-1952.5
 31
0.0
  0
LINE
  5
21A
330
75
100
AcDbEntity
  8
0
 62
     0
100
AcDbLine
 10
368.75
 20
-1952.5
 30
0.0
 11
368.75
 21
-1952.5
 31
0.0
  0
LINE
  5
21B
330
75
100
AcDbEntity
  8
0
 62
     0
100
AcDbLine
 10
370.0000000000001
 20
-1952.5
 30
0.0
 11
370.0000000000001
 21
-1952.5
 31
0.0
  0
LINE
  5
21C
330
75
100
AcDbEntity
  8
0
 62
     0
100
AcDbLine
 10
371.2500000000001
 20
-1952.5
 30
0.0
 11
371.2500000000001
 21
-1952.5
 31
0.0
  0
LINE
  5
21D
330
75
100
AcDbEntity
  8
0
 62
     0
100
AcDbLine
 10
372.5
 20
-1952.5
 30
0.0
 11
372.5
 21
-1952.5
 31
0.0
  0
LINE
  5
21E
330
75
100
AcDbEntity
  8
0
 62
     0
100
AcDbLine
 10
373.7500000000001
 20
-1952.5
 30
0.0
 11
373.7500000000001
 21
-1952.5
 31
0.0
  0
LINE
  5
21F
330
75
100
AcDbEntity
  8
0
 62
     0
100
AcDbLine
 10
375.0
 20
-1952.5
 30
0.0
 11
375.0
 21
-1952.5
 31
0.0
  0
LINE
  5
220
330
75
100
AcDbEntity
  8
0
 62
     0
100
AcDbLine
 10
376.2500000000001
 20
-1952.5
 30
0.0
 11
376.2500000000001
 21
-1952.5
 31
0.0
  0
LINE
  5
221
330
75
100
AcDbEntity
  8
0
 62
     0
100
AcDbLine
 10
377.5000000000001
 20
-1952.5
 30
0.0
 11
377.5000000000001
 21
-1952.5
 31
0.0
  0
LINE
  5
222
330
75
100
AcDbEntity
  8
0
 62
     0
100
AcDbLine
 10
378.75
 20
-1952.5
 30
0.0
 11
378.75
 21
-1952.5
 31
0.0
  0
LINE
  5
223
330
75
100
AcDbEntity
  8
0
 62
     0
100
AcDbLine
 10
351.8750000000001
 20
-1953.75
 30
0.0
 11
351.8750000000001
 21
-1953.75
 31
0.0
  0
LINE
  5
224
330
75
100
AcDbEntity
  8
0
 62
     0
100
AcDbLine
 10
353.125
 20
-1953.75
 30
0.0
 11
353.125
 21
-1953.75
 31
0.0
  0
LINE
  5
225
330
75
100
AcDbEntity
  8
0
 62
     0
100
AcDbLine
 10
354.3750000000001
 20
-1953.75
 30
0.0
 11
354.3750000000001
 21
-1953.75
 31
0.0
  0
LINE
  5
226
330
75
100
AcDbEntity
  8
0
 62
     0
100
AcDbLine
 10
355.6250000000001
 20
-1953.75
 30
0.0
 11
355.6250000000001
 21
-1953.75
 31
0.0
  0
LINE
  5
227
330
75
100
AcDbEntity
  8
0
 62
     0
100
AcDbLine
 10
356.875
 20
-1953.75
 30
0.0
 11
356.875
 21
-1953.75
 31
0.0
  0
LINE
  5
228
330
75
100
AcDbEntity
  8
0
 62
     0
100
AcDbLine
 10
358.1250000000001
 20
-1953.75
 30
0.0
 11
358.1250000000001
 21
-1953.75
 31
0.0
  0
LINE
  5
229
330
75
100
AcDbEntity
  8
0
 62
     0
100
AcDbLine
 10
359.375
 20
-1953.75
 30
0.0
 11
359.375
 21
-1953.75
 31
0.0
  0
LINE
  5
22A
330
75
100
AcDbEntity
  8
0
 62
     0
100
AcDbLine
 10
360.6250000000001
 20
-1953.75
 30
0.0
 11
360.6250000000001
 21
-1953.75
 31
0.0
  0
LINE
  5
22B
330
75
100
AcDbEntity
  8
0
 62
     0
100
AcDbLine
 10
361.8750000000001
 20
-1953.75
 30
0.0
 11
361.8750000000001
 21
-1953.75
 31
0.0
  0
LINE
  5
22C
330
75
100
AcDbEntity
  8
0
 62
     0
100
AcDbLine
 10
363.125
 20
-1953.75
 30
0.0
 11
363.125
 21
-1953.75
 31
0.0
  0
LINE
  5
22D
330
75
100
AcDbEntity
  8
0
 62
     0
100
AcDbLine
 10
368.1250000000001
 20
-1953.75
 30
0.0
 11
368.1250000000001
 21
-1953.75
 31
0.0
  0
LINE
  5
22E
330
75
100
AcDbEntity
  8
0
 62
     0
100
AcDbLine
 10
369.3750000000001
 20
-1953.75
 30
0.0
 11
369.3750000000001
 21
-1953.75
 31
0.0
  0
LINE
  5
22F
330
75
100
AcDbEntity
  8
0
 62
     0
100
AcDbLine
 10
370.6250000000001
 20
-1953.75
 30
0.0
 11
370.6250000000001
 21
-1953.75
 31
0.0
  0
LINE
  5
230
330
75
100
AcDbEntity
  8
0
 62
     0
100
AcDbLine
 10
371.8750000000001
 20
-1953.75
 30
0.0
 11
371.8750000000001
 21
-1953.75
 31
0.0
  0
LINE
  5
231
330
75
100
AcDbEntity
  8
0
 62
     0
100
AcDbLine
 10
373.1250000000001
 20
-1953.75
 30
0.0
 11
373.1250000000001
 21
-1953.75
 31
0.0
  0
LINE
  5
232
330
75
100
AcDbEntity
  8
0
 62
     0
100
AcDbLine
 10
374.3750000000001
 20
-1953.75
 30
0.0
 11
374.3750000000001
 21
-1953.75
 31
0.0
  0
LINE
  5
233
330
75
100
AcDbEntity
  8
0
 62
     0
100
AcDbLine
 10
375.6250000000001
 20
-1953.75
 30
0.0
 11
375.6250000000001
 21
-1953.75
 31
0.0
  0
LINE
  5
234
330
75
100
AcDbEntity
  8
0
 62
     0
100
AcDbLine
 10
376.8750000000001
 20
-1953.75
 30
0.0
 11
376.8750000000001
 21
-1953.75
 31
0.0
  0
LINE
  5
235
330
75
100
AcDbEntity
  8
0
 62
     0
100
AcDbLine
 10
378.1250000000001
 20
-1953.75
 30
0.0
 11
378.1250000000001
 21
-1953.75
 31
0.0
  0
LINE
  5
236
330
75
100
AcDbEntity
  8
0
 62
     0
100
AcDbLine
 10
347.5
 20
-1955.0
 30
0.0
 11
347.5
 21
-1955.0
 31
0.0
  0
LINE
  5
237
330
75
100
AcDbEntity
  8
0
 62
     0
100
AcDbLine
 10
348.75
 20
-1955.0
 30
0.0
 11
348.75
 21
-1955.0
 31
0.0
  0
LINE
  5
238
330
75
100
AcDbEntity
  8
0
 62
     0
100
AcDbLine
 10
366.25
 20
-1955.0
 30
0.0
 11
366.25
 21
-1955.0
 31
0.0
  0
LINE
  5
239
330
75
100
AcDbEntity
  8
0
 62
     0
100
AcDbLine
 10
367.4999999999999
 20
-1955.0
 30
0.0
 11
367.4999999999999
 21
-1955.0
 31
0.0
  0
LINE
  5
23A
330
75
100
AcDbEntity
  8
0
 62
     0
100
AcDbLine
 10
368.75
 20
-1955.0
 30
0.0
 11
368.75
 21
-1955.0
 31
0.0
  0
LINE
  5
23B
330
75
100
AcDbEntity
  8
0
 62
     0
100
AcDbLine
 10
369.9999999999999
 20
-1955.0
 30
0.0
 11
369.9999999999999
 21
-1955.0
 31
0.0
  0
LINE
  5
23C
330
75
100
AcDbEntity
  8
0
 62
     0
100
AcDbLine
 10
371.2499999999999
 20
-1955.0
 30
0.0
 11
371.2499999999999
 21
-1955.0
 31
0.0
  0
LINE
  5
23D
330
75
100
AcDbEntity
  8
0
 62
     0
100
AcDbLine
 10
372.5
 20
-1955.0
 30
0.0
 11
372.5
 21
-1955.0
 31
0.0
  0
LINE
  5
23E
330
75
100
AcDbEntity
  8
0
 62
     0
100
AcDbLine
 10
373.7499999999999
 20
-1955.0
 30
0.0
 11
373.7499999999999
 21
-1955.0
 31
0.0
  0
LINE
  5
23F
330
75
100
AcDbEntity
  8
0
 62
     0
100
AcDbLine
 10
375.0
 20
-1955.0
 30
0.0
 11
375.0
 21
-1955.0
 31
0.0
  0
LINE
  5
240
330
75
100
AcDbEntity
  8
0
 62
     0
100
AcDbLine
 10
376.2499999999999
 20
-1955.0
 30
0.0
 11
376.2499999999999
 21
-1955.0
 31
0.0
  0
LINE
  5
241
330
75
100
AcDbEntity
  8
0
 62
     0
100
AcDbLine
 10
377.4999999999999
 20
-1955.0
 30
0.0
 11
377.4999999999999
 21
-1955.0
 31
0.0
  0
LINE
  5
242
330
75
100
AcDbEntity
  8
0
 62
     0
100
AcDbLine
 10
351.2500000000001
 20
-1955.0
 30
0.0
 11
351.2500000000001
 21
-1955.0
 31
0.0
  0
LINE
  5
243
330
75
100
AcDbEntity
  8
0
 62
     0
100
AcDbLine
 10
352.5000000000001
 20
-1955.0
 30
0.0
 11
352.5000000000001
 21
-1955.0
 31
0.0
  0
LINE
  5
244
330
75
100
AcDbEntity
  8
0
 62
     0
100
AcDbLine
 10
353.7500000000001
 20
-1955.0
 30
0.0
 11
353.7500000000001
 21
-1955.0
 31
0.0
  0
LINE
  5
245
330
75
100
AcDbEntity
  8
0
 62
     0
100
AcDbLine
 10
355.0000000000001
 20
-1955.0
 30
0.0
 11
355.0000000000001
 21
-1955.0
 31
0.0
  0
LINE
  5
246
330
75
100
AcDbEntity
  8
0
 62
     0
100
AcDbLine
 10
356.2500000000001
 20
-1955.0
 30
0.0
 11
356.2500000000001
 21
-1955.0
 31
0.0
  0
LINE
  5
247
330
75
100
AcDbEntity
  8
0
 62
     0
100
AcDbLine
 10
357.5000000000001
 20
-1955.0
 30
0.0
 11
357.5000000000001
 21
-1955.0
 31
0.0
  0
LINE
  5
248
330
75
100
AcDbEntity
  8
0
 62
     0
100
AcDbLine
 10
358.7500000000001
 20
-1955.0
 30
0.0
 11
358.7500000000001
 21
-1955.0
 31
0.0
  0
LINE
  5
249
330
75
100
AcDbEntity
  8
0
 62
     0
100
AcDbLine
 10
360.0000000000001
 20
-1955.0
 30
0.0
 11
360.0000000000001
 21
-1955.0
 31
0.0
  0
LINE
  5
24A
330
75
100
AcDbEntity
  8
0
 62
     0
100
AcDbLine
 10
361.2500000000001
 20
-1955.0
 30
0.0
 11
361.2500000000001
 21
-1955.0
 31
0.0
  0
LINE
  5
24B
330
75
100
AcDbEntity
  8
0
 62
     0
100
AcDbLine
 10
362.5000000000001
 20
-1955.0
 30
0.0
 11
362.5000000000001
 21
-1955.0
 31
0.0
  0
LINE
  5
24C
330
75
100
AcDbEntity
  8
0
 62
     0
100
AcDbLine
 10
345.6249999999999
 20
-1956.25
 30
0.0
 11
345.6249999999999
 21
-1956.25
 31
0.0
  0
LINE
  5
24D
330
75
100
AcDbEntity
  8
0
 62
     0
100
AcDbLine
 10
346.8749999999999
 20
-1956.25
 30
0.0
 11
346.8749999999999
 21
-1956.25
 31
0.0
  0
LINE
  5
24E
330
75
100
AcDbEntity
  8
0
 62
     0
100
AcDbLine
 10
348.1249999999999
 20
-1956.25
 30
0.0
 11
348.1249999999999
 21
-1956.25
 31
0.0
  0
LINE
  5
24F
330
75
100
AcDbEntity
  8
0
 62
     0
100
AcDbLine
 10
349.3749999999999
 20
-1956.25
 30
0.0
 11
349.3749999999999
 21
-1956.25
 31
0.0
  0
LINE
  5
250
330
75
100
AcDbEntity
  8
0
 62
     0
100
AcDbLine
 10
365.625
 20
-1956.25
 30
0.0
 11
365.625
 21
-1956.25
 31
0.0
  0
LINE
  5
251
330
75
100
AcDbEntity
  8
0
 62
     0
100
AcDbLine
 10
366.875
 20
-1956.25
 30
0.0
 11
366.875
 21
-1956.25
 31
0.0
  0
LINE
  5
252
330
75
100
AcDbEntity
  8
0
 62
     0
100
AcDbLine
 10
368.125
 20
-1956.25
 30
0.0
 11
368.125
 21
-1956.25
 31
0.0
  0
LINE
  5
253
330
75
100
AcDbEntity
  8
0
 62
     0
100
AcDbLine
 10
369.375
 20
-1956.25
 30
0.0
 11
369.375
 21
-1956.25
 31
0.0
  0
LINE
  5
254
330
75
100
AcDbEntity
  8
0
 62
     0
100
AcDbLine
 10
370.625
 20
-1956.25
 30
0.0
 11
370.625
 21
-1956.25
 31
0.0
  0
LINE
  5
255
330
75
100
AcDbEntity
  8
0
 62
     0
100
AcDbLine
 10
371.875
 20
-1956.25
 30
0.0
 11
371.875
 21
-1956.25
 31
0.0
  0
LINE
  5
256
330
75
100
AcDbEntity
  8
0
 62
     0
100
AcDbLine
 10
373.125
 20
-1956.25
 30
0.0
 11
373.125
 21
-1956.25
 31
0.0
  0
LINE
  5
257
330
75
100
AcDbEntity
  8
0
 62
     0
100
AcDbLine
 10
374.375
 20
-1956.25
 30
0.0
 11
374.375
 21
-1956.25
 31
0.0
  0
LINE
  5
258
330
75
100
AcDbEntity
  8
0
 62
     0
100
AcDbLine
 10
375.625
 20
-1956.25
 30
0.0
 11
375.625
 21
-1956.25
 31
0.0
  0
LINE
  5
259
330
75
100
AcDbEntity
  8
0
 62
     0
100
AcDbLine
 10
351.8749999999999
 20
-1956.25
 30
0.0
 11
351.8749999999999
 21
-1956.25
 31
0.0
  0
LINE
  5
25A
330
75
100
AcDbEntity
  8
0
 62
     0
100
AcDbLine
 10
353.125
 20
-1956.25
 30
0.0
 11
353.125
 21
-1956.25
 31
0.0
  0
LINE
  5
25B
330
75
100
AcDbEntity
  8
0
 62
     0
100
AcDbLine
 10
354.3749999999999
 20
-1956.25
 30
0.0
 11
354.3749999999999
 21
-1956.25
 31
0.0
  0
LINE
  5
25C
330
75
100
AcDbEntity
  8
0
 62
     0
100
AcDbLine
 10
355.6249999999999
 20
-1956.25
 30
0.0
 11
355.6249999999999
 21
-1956.25
 31
0.0
  0
LINE
  5
25D
330
75
100
AcDbEntity
  8
0
 62
     0
100
AcDbLine
 10
356.875
 20
-1956.25
 30
0.0
 11
356.875
 21
-1956.25
 31
0.0
  0
LINE
  5
25E
330
75
100
AcDbEntity
  8
0
 62
     0
100
AcDbLine
 10
358.1249999999999
 20
-1956.25
 30
0.0
 11
358.1249999999999
 21
-1956.25
 31
0.0
  0
LINE
  5
25F
330
75
100
AcDbEntity
  8
0
 62
     0
100
AcDbLine
 10
359.375
 20
-1956.25
 30
0.0
 11
359.375
 21
-1956.25
 31
0.0
  0
LINE
  5
260
330
75
100
AcDbEntity
  8
0
 62
     0
100
AcDbLine
 10
360.6249999999999
 20
-1956.25
 30
0.0
 11
360.6249999999999
 21
-1956.25
 31
0.0
  0
LINE
  5
261
330
75
100
AcDbEntity
  8
0
 62
     0
100
AcDbLine
 10
343.75
 20
-1957.5
 30
0.0
 11
343.75
 21
-1957.5
 31
0.0
  0
LINE
  5
262
330
75
100
AcDbEntity
  8
0
 62
     0
100
AcDbLine
 10
345.0000000000001
 20
-1957.5
 30
0.0
 11
345.0000000000001
 21
-1957.5
 31
0.0
  0
LINE
  5
263
330
75
100
AcDbEntity
  8
0
 62
     0
100
AcDbLine
 10
346.2500000000001
 20
-1957.5
 30
0.0
 11
346.2500000000001
 21
-1957.5
 31
0.0
  0
LINE
  5
264
330
75
100
AcDbEntity
  8
0
 62
     0
100
AcDbLine
 10
347.5
 20
-1957.5
 30
0.0
 11
347.5
 21
-1957.5
 31
0.0
  0
LINE
  5
265
330
75
100
AcDbEntity
  8
0
 62
     0
100
AcDbLine
 10
348.7500000000001
 20
-1957.5
 30
0.0
 11
348.7500000000001
 21
-1957.5
 31
0.0
  0
LINE
  5
266
330
75
100
AcDbEntity
  8
0
 62
     0
100
AcDbLine
 10
370.0000000000001
 20
-1957.5
 30
0.0
 11
370.0000000000001
 21
-1957.5
 31
0.0
  0
LINE
  5
267
330
75
100
AcDbEntity
  8
0
 62
     0
100
AcDbLine
 10
371.2500000000001
 20
-1957.5
 30
0.0
 11
371.2500000000001
 21
-1957.5
 31
0.0
  0
LINE
  5
268
330
75
100
AcDbEntity
  8
0
 62
     0
100
AcDbLine
 10
372.5
 20
-1957.5
 30
0.0
 11
372.5
 21
-1957.5
 31
0.0
  0
LINE
  5
269
330
75
100
AcDbEntity
  8
0
 62
     0
100
AcDbLine
 10
373.7500000000001
 20
-1957.5
 30
0.0
 11
373.7500000000001
 21
-1957.5
 31
0.0
  0
LINE
  5
26A
330
75
100
AcDbEntity
  8
0
 62
     0
100
AcDbLine
 10
375.0
 20
-1957.5
 30
0.0
 11
375.0
 21
-1957.5
 31
0.0
  0
LINE
  5
26B
330
75
100
AcDbEntity
  8
0
 62
     0
100
AcDbLine
 10
351.25
 20
-1957.5
 30
0.0
 11
351.25
 21
-1957.5
 31
0.0
  0
LINE
  5
26C
330
75
100
AcDbEntity
  8
0
 62
     0
100
AcDbLine
 10
352.5
 20
-1957.5
 30
0.0
 11
352.5
 21
-1957.5
 31
0.0
  0
LINE
  5
26D
330
75
100
AcDbEntity
  8
0
 62
     0
100
AcDbLine
 10
353.75
 20
-1957.5
 30
0.0
 11
353.75
 21
-1957.5
 31
0.0
  0
LINE
  5
26E
330
75
100
AcDbEntity
  8
0
 62
     0
100
AcDbLine
 10
355.0
 20
-1957.5
 30
0.0
 11
355.0
 21
-1957.5
 31
0.0
  0
LINE
  5
26F
330
75
100
AcDbEntity
  8
0
 62
     0
100
AcDbLine
 10
356.25
 20
-1957.5
 30
0.0
 11
356.25
 21
-1957.5
 31
0.0
  0
LINE
  5
270
330
75
100
AcDbEntity
  8
0
 62
     0
100
AcDbLine
 10
357.5
 20
-1957.5
 30
0.0
 11
357.5
 21
-1957.5
 31
0.0
  0
LINE
  5
271
330
75
100
AcDbEntity
  8
0
 62
     0
100
AcDbLine
 10
358.75
 20
-1957.5
 30
0.0
 11
358.75
 21
-1957.5
 31
0.0
  0
LINE
  5
272
330
75
100
AcDbEntity
  8
0
 62
     0
100
AcDbLine
 10
360.0
 20
-1957.5
 30
0.0
 11
360.0
 21
-1957.5
 31
0.0
  0
LINE
  5
273
330
75
100
AcDbEntity
  8
0
 62
     0
100
AcDbLine
 10
366.25
 20
-1957.5
 30
0.0
 11
366.25
 21
-1957.5
 31
0.0
  0
LINE
  5
274
330
75
100
AcDbEntity
  8
0
 62
     0
100
AcDbLine
 10
367.5
 20
-1957.5
 30
0.0
 11
367.5
 21
-1957.5
 31
0.0
  0
LINE
  5
275
330
75
100
AcDbEntity
  8
0
 62
     0
100
AcDbLine
 10
368.75
 20
-1957.5
 30
0.0
 11
368.75
 21
-1957.5
 31
0.0
  0
LINE
  5
276
330
75
100
AcDbEntity
  8
0
 62
     0
100
AcDbLine
 10
344.375
 20
-1958.75
 30
0.0
 11
344.375
 21
-1958.75
 31
0.0
  0
LINE
  5
277
330
75
100
AcDbEntity
  8
0
 62
     0
100
AcDbLine
 10
345.6250000000001
 20
-1958.75
 30
0.0
 11
345.6250000000001
 21
-1958.75
 31
0.0
  0
LINE
  5
278
330
75
100
AcDbEntity
  8
0
 62
     0
100
AcDbLine
 10
346.875
 20
-1958.75
 30
0.0
 11
346.875
 21
-1958.75
 31
0.0
  0
LINE
  5
279
330
75
100
AcDbEntity
  8
0
 62
     0
100
AcDbLine
 10
373.1250000000001
 20
-1958.75
 30
0.0
 11
373.1250000000001
 21
-1958.75
 31
0.0
  0
LINE
  5
27A
330
75
100
AcDbEntity
  8
0
 62
     0
100
AcDbLine
 10
374.3750000000001
 20
-1958.75
 30
0.0
 11
374.3750000000001
 21
-1958.75
 31
0.0
  0
LINE
  5
27B
330
75
100
AcDbEntity
  8
0
 62
     0
100
AcDbLine
 10
350.625
 20
-1958.75
 30
0.0
 11
350.625
 21
-1958.75
 31
0.0
  0
LINE
  5
27C
330
75
100
AcDbEntity
  8
0
 62
     0
100
AcDbLine
 10
351.8750000000001
 20
-1958.75
 30
0.0
 11
351.8750000000001
 21
-1958.75
 31
0.0
  0
LINE
  5
27D
330
75
100
AcDbEntity
  8
0
 62
     0
100
AcDbLine
 10
353.125
 20
-1958.75
 30
0.0
 11
353.125
 21
-1958.75
 31
0.0
  0
LINE
  5
27E
330
75
100
AcDbEntity
  8
0
 62
     0
100
AcDbLine
 10
354.3750000000001
 20
-1958.75
 30
0.0
 11
354.3750000000001
 21
-1958.75
 31
0.0
  0
LINE
  5
27F
330
75
100
AcDbEntity
  8
0
 62
     0
100
AcDbLine
 10
355.6250000000001
 20
-1958.75
 30
0.0
 11
355.6250000000001
 21
-1958.75
 31
0.0
  0
LINE
  5
280
330
75
100
AcDbEntity
  8
0
 62
     0
100
AcDbLine
 10
356.875
 20
-1958.75
 30
0.0
 11
356.875
 21
-1958.75
 31
0.0
  0
LINE
  5
281
330
75
100
AcDbEntity
  8
0
 62
     0
100
AcDbLine
 10
358.1250000000001
 20
-1958.75
 30
0.0
 11
358.1250000000001
 21
-1958.75
 31
0.0
  0
LINE
  5
282
330
75
100
AcDbEntity
  8
0
 62
     0
100
AcDbLine
 10
359.375
 20
-1958.75
 30
0.0
 11
359.375
 21
-1958.75
 31
0.0
  0
LINE
  5
283
330
75
100
AcDbEntity
  8
0
 62
     0
100
AcDbLine
 10
363.125
 20
-1958.75
 30
0.0
 11
363.125
 21
-1958.75
 31
0.0
  0
LINE
  5
284
330
75
100
AcDbEntity
  8
0
 62
     0
100
AcDbLine
 10
362.4999999999999
 20
-1960.0
 30
0.0
 11
362.4999999999999
 21
-1960.0
 31
0.0
  0
LINE
  5
285
330
75
100
AcDbEntity
  8
0
 62
     0
100
AcDbLine
 10
363.7499999999999
 20
-1960.0
 30
0.0
 11
363.7499999999999
 21
-1960.0
 31
0.0
  0
LINE
  5
286
330
75
100
AcDbEntity
  8
0
 62
     0
100
AcDbLine
 10
351.2500000000001
 20
-1960.0
 30
0.0
 11
351.2500000000001
 21
-1960.0
 31
0.0
  0
LINE
  5
287
330
75
100
AcDbEntity
  8
0
 62
     0
100
AcDbLine
 10
352.5000000000001
 20
-1960.0
 30
0.0
 11
352.5000000000001
 21
-1960.0
 31
0.0
  0
LINE
  5
288
330
75
100
AcDbEntity
  8
0
 62
     0
100
AcDbLine
 10
353.7500000000001
 20
-1960.0
 30
0.0
 11
353.7500000000001
 21
-1960.0
 31
0.0
  0
LINE
  5
289
330
75
100
AcDbEntity
  8
0
 62
     0
100
AcDbLine
 10
355.0000000000001
 20
-1960.0
 30
0.0
 11
355.0000000000001
 21
-1960.0
 31
0.0
  0
LINE
  5
28A
330
75
100
AcDbEntity
  8
0
 62
     0
100
AcDbLine
 10
356.2500000000001
 20
-1960.0
 30
0.0
 11
356.2500000000001
 21
-1960.0
 31
0.0
  0
LINE
  5
28B
330
75
100
AcDbEntity
  8
0
 62
     0
100
AcDbLine
 10
357.5000000000001
 20
-1960.0
 30
0.0
 11
357.5000000000001
 21
-1960.0
 31
0.0
  0
LINE
  5
28C
330
75
100
AcDbEntity
  8
0
 62
     0
100
AcDbLine
 10
358.7500000000001
 20
-1960.0
 30
0.0
 11
358.7500000000001
 21
-1960.0
 31
0.0
  0
LINE
  5
28D
330
75
100
AcDbEntity
  8
0
 62
     0
100
AcDbLine
 10
336.8750000000001
 20
-1961.25
 30
0.0
 11
336.8750000000001
 21
-1961.25
 31
0.0
  0
LINE
  5
28E
330
75
100
AcDbEntity
  8
0
 62
     0
100
AcDbLine
 10
338.125
 20
-1961.25
 30
0.0
 11
338.125
 21
-1961.25
 31
0.0
  0
LINE
  5
28F
330
75
100
AcDbEntity
  8
0
 62
     0
100
AcDbLine
 10
350.625
 20
-1961.25
 30
0.0
 11
350.625
 21
-1961.25
 31
0.0
  0
LINE
  5
290
330
75
100
AcDbEntity
  8
0
 62
     0
100
AcDbLine
 10
351.8749999999999
 20
-1961.25
 30
0.0
 11
351.8749999999999
 21
-1961.25
 31
0.0
  0
LINE
  5
291
330
75
100
AcDbEntity
  8
0
 62
     0
100
AcDbLine
 10
353.125
 20
-1961.25
 30
0.0
 11
353.125
 21
-1961.25
 31
0.0
  0
LINE
  5
292
330
75
100
AcDbEntity
  8
0
 62
     0
100
AcDbLine
 10
354.3749999999999
 20
-1961.25
 30
0.0
 11
354.3749999999999
 21
-1961.25
 31
0.0
  0
LINE
  5
293
330
75
100
AcDbEntity
  8
0
 62
     0
100
AcDbLine
 10
355.6249999999999
 20
-1961.25
 30
0.0
 11
355.6249999999999
 21
-1961.25
 31
0.0
  0
LINE
  5
294
330
75
100
AcDbEntity
  8
0
 62
     0
100
AcDbLine
 10
356.875
 20
-1961.25
 30
0.0
 11
356.875
 21
-1961.25
 31
0.0
  0
LINE
  5
295
330
75
100
AcDbEntity
  8
0
 62
     0
100
AcDbLine
 10
358.1249999999999
 20
-1961.25
 30
0.0
 11
358.1249999999999
 21
-1961.25
 31
0.0
  0
LINE
  5
296
330
75
100
AcDbEntity
  8
0
 62
     0
100
AcDbLine
 10
337.4999999999999
 20
-1962.5
 30
0.0
 11
337.4999999999999
 21
-1962.5
 31
0.0
  0
LINE
  5
297
330
75
100
AcDbEntity
  8
0
 62
     0
100
AcDbLine
 10
350.0
 20
-1962.5
 30
0.0
 11
350.0
 21
-1962.5
 31
0.0
  0
LINE
  5
298
330
75
100
AcDbEntity
  8
0
 62
     0
100
AcDbLine
 10
351.2499999999999
 20
-1962.5
 30
0.0
 11
351.2499999999999
 21
-1962.5
 31
0.0
  0
LINE
  5
299
330
75
100
AcDbEntity
  8
0
 62
     0
100
AcDbLine
 10
352.4999999999999
 20
-1962.5
 30
0.0
 11
352.4999999999999
 21
-1962.5
 31
0.0
  0
LINE
  5
29A
330
75
100
AcDbEntity
  8
0
 62
     0
100
AcDbLine
 10
353.75
 20
-1962.5
 30
0.0
 11
353.75
 21
-1962.5
 31
0.0
  0
LINE
  5
29B
330
75
100
AcDbEntity
  8
0
 62
     0
100
AcDbLine
 10
354.9999999999999
 20
-1962.5
 30
0.0
 11
354.9999999999999
 21
-1962.5
 31
0.0
  0
LINE
  5
29C
330
75
100
AcDbEntity
  8
0
 62
     0
100
AcDbLine
 10
356.25
 20
-1962.5
 30
0.0
 11
356.25
 21
-1962.5
 31
0.0
  0
LINE
  5
29D
330
75
100
AcDbEntity
  8
0
 62
     0
100
AcDbLine
 10
349.3749999999999
 20
-1963.75
 30
0.0
 11
349.3749999999999
 21
-1963.75
 31
0.0
  0
LINE
  5
29E
330
75
100
AcDbEntity
  8
0
 62
     0
100
AcDbLine
 10
350.6249999999999
 20
-1963.75
 30
0.0
 11
350.6249999999999
 21
-1963.75
 31
0.0
  0
LINE
  5
29F
330
75
100
AcDbEntity
  8
0
 62
     0
100
AcDbLine
 10
351.8749999999999
 20
-1963.75
 30
0.0
 11
351.8749999999999
 21
-1963.75
 31
0.0
  0
LINE
  5
2A0
330
75
100
AcDbEntity
  8
0
 62
     0
100
AcDbLine
 10
353.1249999999999
 20
-1963.75
 30
0.0
 11
353.1249999999999
 21
-1963.75
 31
0.0
  0
LINE
  5
2A1
330
75
100
AcDbEntity
  8
0
 62
     0
100
AcDbLine
 10
354.3749999999999
 20
-1963.75
 30
0.0
 11
354.3749999999999
 21
-1963.75
 31
0.0
  0
LINE
  5
2A2
330
75
100
AcDbEntity
  8
0
 62
     0
100
AcDbLine
 10
352.4999999999999
 20
-1965.0
 30
0.0
 11
352.4999999999999
 21
-1965.0
 31
0.0
  0
LINE
  5
2A3
330
75
100
AcDbEntity
  8
0
 62
     0
100
AcDbLine
 10
353.75
 20
-1965.0
 30
0.0
 11
353.75
 21
-1965.0
 31
0.0
  0
ENDBLK
  5
2A4
330
75
100
AcDbEntity
  8
0
100
AcDbBlockEnd
  0
BLOCK
  5
2A5
330
76
100
AcDbEntity
  8
0
100
AcDbBlockBegin
  2
*X3
 70
     1
 10
0.0
 20
0.0
 30
0.0
  3
*X3
  1

  0
LINE
  5
2A6
330
76
100
AcDbEntity
  8
0
 62
     0
100
AcDbLine
 10
365.3390765888558
 20
-1877.957186725466
 30
0.0
 11
366.6729781698067
 21
-1876.623285144515
 31
0.0
  0
LINE
  5
2A7
330
76
100
AcDbEntity
  8
0
 62
     0
100
AcDbLine
 10
364.0138469829427
 20
-1877.514649378413
 30
0.0
 11
366.2269778456779
 21
-1875.301518515678
 31
0.0
  0
LINE
  5
2A8
330
76
100
AcDbEntity
  8
0
 62
     0
100
AcDbLine
 10
362.6851847239098
 20
-1877.075544684479
 30
0.0
 11
365.7809775215491
 21
-1873.97975188684
 31
0.0
  0
LINE
  5
2A9
330
76
100
AcDbEntity
  8
0
 62
     0
100
AcDbLine
 10
361.3557484273168
 20
-1876.637214028106
 30
0.0
 11
365.1402451341144
 21
-1872.852717321308
 31
0.0
  0
LINE
  5
2AA
330
76
100
AcDbEntity
  8
0
 62
     0
100
AcDbLine
 10
341.2971297754247
 20
-1894.928065727032
 30
0.0
 11
346.4447540758487
 21
-1889.780441426608
 31
0.0
  0
LINE
  5
2AB
330
76
100
AcDbEntity
  8
0
 62
     0
100
AcDbLine
 10
360.0263121307238
 20
-1876.198883371732
 30
0.0
 11
364.2989290555318
 21
-1871.926266446925
 31
0.0
  0
LINE
  5
2AC
330
76
100
AcDbEntity
  8
0
 62
     0
100
AcDbLine
 10
340.3276856513011
 20
-1894.129742898189
 30
0.0
 11
346.5405173448829
 21
-1887.916911204607
 31
0.0
  0
LINE
  5
2AD
330
76
100
AcDbEntity
  8
0
 62
     0
100
AcDbLine
 10
360.0245335173308
 20
-1874.432895032159
 30
0.0
 11
363.385717369887
 21
-1871.071711179603
 31
0.0
  0
LINE
  5
2AE
330
76
100
AcDbEntity
  8
0
 62
     0
100
AcDbLine
 10
347.4901921227814
 20
-1886.967236426708
 30
0.0
 11
348.0516087135663
 21
-1886.405819835924
 31
0.0
  0
LINE
  5
2AF
330
76
100
AcDbEntity
  8
0
 62
     0
100
AcDbLine
 10
339.3582415271774
 20
-1893.331420069346
 30
0.0
 11
348.4151062350495
 21
-1884.274555361474
 31
0.0
  0
LINE
  5
2B0
330
76
100
AcDbEntity
  8
0
 62
     0
100
AcDbLine
 10
360.3751273116823
 20
-1872.314534284841
 30
0.0
 11
361.5558390424376
 21
-1871.133822554086
 31
0.0
  0
LINE
  5
2B1
330
76
100
AcDbEntity
  8
0
 62
     0
100
AcDbLine
 10
338.1911471244831
 20
-1892.730747519074
 30
0.0
 11
348.7786037565326
 21
-1882.143290887024
 31
0.0
  0
LINE
  5
2B2
330
76
100
AcDbEntity
  8
0
 62
     0
100
AcDbLine
 10
336.8863040947374
 20
-1892.267823595853
 30
0.0
 11
348.1480068719625
 21
-1881.006120818628
 31
0.0
  0
LINE
  5
2B3
330
76
100
AcDbEntity
  8
0
 62
     0
100
AcDbLine
 10
336.1685123680977
 20
-1891.217848369527
 30
0.0
 11
347.0365327198964
 21
-1880.349828017728
 31
0.0
  0
LINE
  5
2B4
330
76
100
AcDbEntity
  8
0
 62
     0
100
AcDbLine
 10
335.6832872493523
 20
-1889.935306535306
 30
0.0
 11
346.3779102769515
 21
-1879.240683507706
 31
0.0
  0
LINE
  5
2B5
330
76
100
AcDbEntity
  8
0
 62
     0
100
AcDbLine
 10
335.1980621306071
 20
-1888.652764701085
 30
0.0
 11
345.5242802710096
 21
-1878.326546560682
 31
0.0
  0
LINE
  5
2B6
330
76
100
AcDbEntity
  8
0
 62
     0
100
AcDbLine
 10
334.7128370118618
 20
-1887.370222866864
 30
0.0
 11
341.648856241251
 21
-1880.434203637474
 31
0.0
  0
LINE
  5
2B7
330
76
100
AcDbEntity
  8
0
 62
     0
100
AcDbLine
 10
335.2879335463657
 20
-1885.027359379393
 30
0.0
 11
339.8930716444939
 21
-1880.422221281265
 31
0.0
  0
LINE
  5
2B8
330
76
100
AcDbEntity
  8
0
 62
     0
100
AcDbLine
 10
335.9268562526042
 20
-1882.620669720188
 30
0.0
 11
339.0277034255777
 21
-1879.519822547215
 31
0.0
  0
LINE
  5
2B9
330
76
100
AcDbEntity
  8
0
 62
     0
100
AcDbLine
 10
336.5657789588427
 20
-1880.213980060984
 30
0.0
 11
337.2035170474783
 21
-1879.576241972348
 31
0.0
  0
LINE
  5
2BA
330
76
100
AcDbEntity
  8
0
 62
     0
100
AcDbLine
 10
383.8829900402751
 20
-1870.019874991845
 30
0.0
 11
384.2705102044058
 21
-1869.632354827714
 31
0.0
  0
LINE
  5
2BB
330
76
100
AcDbEntity
  8
0
 62
     0
100
AcDbLine
 10
384.9498239402525
 20
-1870.720808044834
 30
0.0
 11
386.5431970815639
 21
-1869.127434903522
 31
0.0
  0
LINE
  5
2BC
330
76
100
AcDbEntity
  8
0
 62
     0
100
AcDbLine
 10
381.5460304212534
 20
-1881.195669375698
 30
0.0
 11
384.5393301373498
 21
-1878.202369659602
 31
0.0
  0
LINE
  5
2BD
330
76
100
AcDbEntity
  8
0
 62
     0
100
AcDbLine
 10
382.1037312008855
 20
-1882.405735549033
 30
0.0
 11
386.7152054819148
 21
-1877.794261268004
 31
0.0
  0
LINE
  5
2BE
330
76
100
AcDbEntity
  8
0
 62
     0
100
AcDbLine
 10
383.0446369029068
 20
-1883.232596799978
 30
0.0
 11
388.3827136324028
 21
-1877.894520070482
 31
0.0
  0
LINE
  5
2BF
330
76
100
AcDbEntity
  8
0
 62
     0
100
AcDbLine
 10
384.2011986636549
 20
-1883.843801992196
 30
0.0
 11
389.5835706345561
 21
-1878.461430021295
 31
0.0
  0
LINE
  5
2C0
330
76
100
AcDbEntity
  8
0
 62
     0
100
AcDbLine
 10
385.3577604244029
 20
-1884.455007184415
 30
0.0
 11
390.7844276367093
 21
-1879.028339972108
 31
0.0
  0
LINE
  5
2C1
330
76
100
AcDbEntity
  8
0
 62
     0
100
AcDbLine
 10
388.5433834111648
 20
-1883.037151150619
 30
0.0
 11
390.9549841316864
 21
-1880.625550430097
 31
0.0
  0
LINE
  5
2C2
330
76
100
AcDbEntity
  8
0
 62
     0
100
AcDbLine
 10
397.0111650564771
 20
-1874.569369505307
 30
0.0
 11
397.5477084244047
 21
-1874.032826137379
 31
0.0
  0
LINE
  5
2C3
330
76
100
AcDbEntity
  8
0
 62
     0
100
AcDbLine
 10
394.988655319412
 20
-1878.359646195338
 30
0.0
 11
398.5620505638006
 21
-1874.786250950949
 31
0.0
  0
LINE
  5
2C4
330
76
100
AcDbEntity
  8
0
 62
     0
100
AcDbLine
 10
395.9939681111763
 20
-1879.12210035654
 30
0.0
 11
398.6890019399699
 21
-1876.427066527747
 31
0.0
  0
ENDBLK
  5
2C5
330
76
100
AcDbEntity
  8
0
100
AcDbBlockEnd
  0
ENDSEC
  0
SECTION
  2
ENTITIES
  0
LWPOLYLINE
  5
2C6
330
6F
100
AcDbEntity
  8
STEINE
100
AcDbPolyline
 90
        5
 70
     0
 43
0.0
 10
336.0710157626319
 20
-1961.90640955108
 10
336.8342360930585
 20
-1963.179999579842
 10
339.2793696722922
 20
-1962.009993866502
 10
338.211163284846
 20
-1959.666769458671
 10
336.0710157626319
 20
-1961.90640955108
  0
LWPOLYLINE
  5
2CD
330
6F
100
AcDbEntity
  8
STEINE
100
AcDbPolyline
 90
        6
 70
     0
 43
0.0
 10
350.7409384739584
 20
-1956.516043249412
 10
348.7027825072793
 20
-1958.501102642955
 10
344.6789629967548
 20
-1959.568402804949
 10
343.3562857559526
 20
-1956.919478344287
 10
348.2975624228761
 20
-1954.426713006013
 10
350.7409384739584
 20
-1956.516043249412
  0
LWPOLYLINE
  5
2D5
330
6F
100
AcDbEntity
  8
STEINE
100
AcDbPolyline
 90
       16
 70
     0
 43
0.0
 10
350.7409384739584
 20
-1956.516043249412
 10
350.4332886633344
 20
-1960.386339929776
 10
349.0561967032827
 20
-1964.20513279689
 10
353.7408605294157
 20
-1965.378983103061
 10
359.2946082957187
 20
-1960.391118209437
 10
362.1490262432057
 20
-1955.758287733081
 10
365.3095012414294
 20
-1950.208933787157
 10
365.5669104621635
 20
-1945.065431537314
 10
362.1548205938297
 20
-1945.012664500707
 10
357.3691812831243
 20
-1942.209091293412
 10
354.2111228861087
 20
-1943.27685829882
 10
351.2042805635553
 20
-1947.247553774832
 10
348.8099368017588
 20
-1948.672222571169
 10
349.1657675989704
 20
-1949.894665784588
 10
351.5591502125591
 20
-1950.252446339592
 10
350.7409384739584
 20
-1956.516043249412
  0
LWPOLYLINE
  5
2E7
330
6F
100
AcDbEntity
  8
STEINE
100
AcDbPolyline
 90
        9
 70
     0
 43
0.0
 10
372.9517828711883
 20
-1944.254579447848
 10
368.7717218541437
 20
-1951.738614890539
 10
365.1024424560946
 20
-1956.421933109181
 10
365.4071538993406
 20
-1958.000838731491
 10
369.2269628374178
 20
-1957.493627091553
 10
374.1659876713975
 20
-1959.17688594785
 10
382.9312474057577
 20
-1948.435986072383
 10
374.2249060565348
 20
-1944.35712023093
 10
372.9517828711883
 20
-1944.254579447848
  0
LWPOLYLINE
  5
2F2
330
6F
100
AcDbEntity
  8
STEINE
100
AcDbPolyline
 90
        6
 70
     0
 43
0.0
 10
364.3359267603842
 20
-1961.259597999305
 10
361.8407722822795
 20
-1960.748981148574
 10
361.9437249860222
 20
-1958.711951098366
 10
363.1154333047584
 20
-1957.999602969509
 10
364.2860157070227
 20
-1959.375266937938
 10
364.3359267603842
 20
-1961.259597999305
  0
LWPOLYLINE
  5
2FA
330
6F
100
AcDbEntity
  8
STEINE
100
AcDbPolyline
 90
        8
 70
     0
 43
0.0
 10
370.2519312862023
 20
-1945.577229227273
 10
364.1435323505626
 20
-1940.277512932288
 10
364.8581597737412
 20
-1937.222269932128
 10
366.8956566673636
 20
-1936.459461522362
 10
371.1719423506963
 20
-1939.415541488856
 10
372.9541445496417
 20
-1939.87484675598
 10
373.920359381553
 20
-1942.472651862676
 10
370.2519312862023
 20
-1945.577229227273
  0
LWPOLYLINE
  5
304
330
6F
100
AcDbEntity
  8
STEINE
100
AcDbPolyline
 90
        6
 70
     0
 43
0.0
 10
364.555013629005
 20
-1932.740518223348
 10
364.6067920560274
 20
-1931.161804830679
 10
367.7131818715301
 20
-1931.469042720643
 10
369.0366829536533
 20
-1932.590153451584
 10
367.6102840905421
 20
-1933.404218522202
 10
364.555013629005
 20
-1932.740518223348
  0
LWPOLYLINE
  5
30C
330
6F
100
AcDbEntity
  8
STEINE
100
AcDbPolyline
 90
        6
 70
     0
 43
0.0
 10
356.0510626309647
 20
-1931.106264194958
 10
355.2373820196293
 20
-1928.96688559131
 10
360.2804580124462
 20
-1926.576029424439
 10
362.1135873357157
 20
-1927.035362152941
 10
359.8707068007777
 20
-1930.904615300964
 10
356.0510626309647
 20
-1931.106264194958
  0
LWPOLYLINE
  5
314
330
6F
100
AcDbEntity
  8
STEINE
100
AcDbPolyline
 90
        5
 70
     0
 43
0.0
 10
363.8961465325668
 20
-1926.832614803853
 10
359.7726147608288
 20
-1923.927544345815
 10
366.749685715978
 20
-1923.829452305866
 10
365.9332864282834
 20
-1926.731859010299
 10
363.8961465325668
 20
-1926.832614803853
  0
LWPOLYLINE
  5
31B
330
6F
100
AcDbEntity
  8
STEINE
100
AcDbPolyline
 90
        7
 70
     0
 43
0.0
 10
348.8261390144044
 20
-1918.625219219981
 10
350.3028333901603
 20
-1918.982505470193
 10
349.537306304035
 20
-1921.986793884651
 10
345.9203270991782
 20
-1924.123783348468
 10
344.0871977759088
 20
-1923.664450619966
 10
345.4640425835642
 20
-1920.304001871768
 10
348.8261390144044
 20
-1918.625219219981
  0
LWPOLYLINE
  5
324
330
6F
100
AcDbEntity
  8
STEINE
100
AcDbPolyline
 90
        8
 70
     0
 43
0.0
 10
361.6611748743101
 20
-1916.03485614655
 10
355.0427083154863
 20
-1912.211751843189
 10
356.2157897030908
 20
-1908.95304749813
 10
360.1894784692348
 20
-1906.408833269362
 10
362.8370298610285
 20
-1907.632512244762
 10
364.5164441244954
 20
-1909.823284816149
 10
364.9219388226722
 20
-1913.388403209851
 10
361.6611748743101
 20
-1916.03485614655
  0
LWPOLYLINE
  5
32E
330
6F
100
AcDbEntity
  8
STEINE
100
AcDbPolyline
 90
        6
 70
     0
 43
0.0
 10
356.782578801223
 20
-1896.730839735509
 10
352.1991376120587
 20
-1896.728368211546
 10
350.8757738368223
 20
-1895.352621858985
 10
352.1495560952256
 20
-1894.23291165829
 10
358.1081394866486
 20
-1894.032416142146
 10
356.782578801223
 20
-1896.730839735509
  0
LWPOLYLINE
  5
336
330
6F
100
AcDbEntity
  8
STEINE
100
AcDbPolyline
 90
       17
 70
     0
 43
0.0
 10
348.8971129442052
 20
-1881.448445924803
 10
346.9115867072467
 20
-1880.276051071633
 10
346.0976040207603
 20
-1878.696870835549
 10
344.5194123942621
 20
-1877.67747704637
 10
342.9393259327258
 20
-1880.17205483555
 10
340.1889591440761
 20
-1880.730770288737
 10
338.9673946947331
 20
-1879.456933107579
 10
336.7265188403429
 20
-1879.608506179947
 10
334.6852871993988
 20
-1887.297403497784
 10
336.5160548442148
 20
-1892.136468918153
 10
338.9600899683539
 20
-1893.003548177776
 10
342.1161711461992
 20
-1895.602534123699
 10
343.1861350617968
 20
-1894.686422574791
 10
346.3966858816464
 20
-1890.715836944289
 10
346.551087475883
 20
-1887.711218993302
 10
348.0286056929598
 20
-1886.540691513793
 10
348.8971129442052
 20
-1881.448445924803
  0
LWPOLYLINE
  5
349
330
6F
100
AcDbEntity
  8
STEINE
100
AcDbPolyline
 90
        7
 70
     0
 43
0.0
 10
378.5801569304817
 20
-1895.316633723948
 10
372.6729675067979
 20
-1894.651395587961
 10
373.7446065664148
 20
-1890.628729455286
 10
377.6674505923668
 20
-1887.931706392168
 10
379.755105691747
 20
-1888.594884924853
 10
381.8927267672435
 20
-1891.040540270257
 10
378.5801569304817
 20
-1895.316633723948
  0
LWPOLYLINE
  5
352
330
6F
100
AcDbEntity
  8
STEINE
100
AcDbPolyline
 90
        6
 70
     0
 43
0.0
 10
387.3836017100685
 20
-1908.205946996217
 10
384.7369290823505
 20
-1905.352600042447
 10
387.1311629986375
 20
-1904.131639743406
 10
390.3378966870332
 20
-1907.239924393947
 10
389.0131323815512
 20
-1908.461461381912
 10
387.3836017100685
 20
-1908.205946996217
  0
LWPOLYLINE
  5
35A
330
6F
100
AcDbEntity
  8
STEINE
100
AcDbPolyline
 90
        6
 70
     0
 43
0.0
 10
388.4581516756861
 20
-1898.785005685192
 10
386.9829951370627
 20
-1895.575800472833
 10
388.562395064165
 20
-1894.354400791755
 10
390.7013617471524
 20
-1894.30462704528
 10
390.7506961115892
 20
-1897.258427717452
 10
388.4581516756861
 20
-1898.785005685192
  0
LWPOLYLINE
  5
362
330
6F
100
AcDbEntity
  8
STEINE
100
AcDbPolyline
 90
        6
 70
     0
 43
0.0
 10
387.2428484203824
 20
-1885.899784158151
 10
385.1542596341717
 20
-1886.968127852484
 10
384.5924410453427
 20
-1889.972526112453
 10
387.3419290699166
 20
-1891.043478637635
 10
389.2279078139257
 20
-1887.937940124831
 10
387.2428484203824
 20
-1885.899784158151
  0
LWPOLYLINE
  5
36A
330
6F
100
AcDbEntity
  8
STEINE
100
AcDbPolyline
 90
        5
 70
     0
 43
0.0
 10
362.5973057673177
 20
-1879.978946429917
 10
364.7340755401158
 20
-1884.003342629366
 10
368.2985073993839
 20
-1884.87102603929
 10
369.1158129125316
 20
-1880.288024232164
 10
362.5973057673177
 20
-1879.978946429917
  0
LWPOLYLINE
  5
371
330
6F
100
AcDbEntity
  8
STEINE
100
AcDbPolyline
 90
        8
 70
     0
 43
0.0
 10
360.5649716126399
 20
-1871.167455466762
 10
359.7474738698508
 20
-1876.106947144157
 10
363.770002695639
 20
-1877.433221825394
 10
366.0613113695607
 20
-1878.198364452236
 10
366.7749776445315
 20
-1876.925570803418
 10
365.5546764185473
 20
-1873.309085903354
 10
363.5187997461894
 20
-1871.067193978001
 10
360.5649716126399
 20
-1871.167455466762
  0
LWPOLYLINE
  5
37B
330
6F
100
AcDbEntity
  8
STEINE
100
AcDbPolyline
 90
       17
 70
     0
 43
0.0
 10
370.344627165499
 20
-1868.117100591774
 10
369.3247665329046
 20
-1870.56105333178
 10
370.5961321900996
 20
-1873.922930071602
 10
372.8363764328104
 20
-1874.942680858687
 10
375.0774719782195
 20
-1874.383690791726
 10
375.9419698683696
 20
-1876.726805354048
 10
377.8764865968719
 20
-1878.051954118813
 10
379.4039982514423
 20
-1878.612976327698
 10
382.3073111813282
 20
-1877.748780512699
 10
383.988977277739
 20
-1875.763528889515
 10
381.7018427331769
 20
-1867.257463365417
 10
380.3797421812993
 20
-1863.53906929395
 10
381.0933809948928
 20
-1862.317202769456
 10
380.6359431014294
 20
-1860.636360514366
 10
377.6820875065025
 20
-1860.787549127451
 10
373.6066817985973
 20
-1863.077072811844
 10
370.344627165499
 20
-1868.117100591774
  0
LWPOLYLINE
  5
38E
330
6F
100
AcDbEntity
  8
STEINE
100
AcDbPolyline
 90
       16
 70
     0
 43
0.0
 10
397.2820002586554
 20
-1873.835465584693
 10
396.2109653493405
 20
-1876.737734982239
 10
394.3260575990487
 20
-1877.857115646406
 10
392.5947001402954
 20
-1877.550619213631
 10
389.4896010095288
 20
-1874.849806480437
 10
387.3000642001231
 20
-1874.237500149322
 10
385.6703962217535
 20
-1874.236621385246
 10
385.0094969833903
 20
-1872.09732516573
 10
385.4174906669073
 20
-1871.028075245944
 10
387.5583796463103
 20
-1867.413402796786
 10
393.924846875741
 20
-1866.347365858152
 10
395.3511908160974
 20
-1865.635155036181
 10
397.79706585252
 20
-1863.090116966093
 10
401.1585306716807
 20
-1862.582658173758
 10
402.7863587377668
 20
-1865.995654267545
 10
397.2820002586554
 20
-1873.835465584693
  0
LWPOLYLINE
  5
3A0
330
6F
100
AcDbEntity
  8
STEINE
100
AcDbPolyline
 90
        5
 70
     0
 43
0.0
 10
397.2820002586554
 20
-1873.835465584693
 10
398.8601095010215
 20
-1875.007640746844
 10
398.5531736862089
 20
-1877.553832194783
 10
396.0059661673082
 20
-1879.13119997996
 10
394.3260575990487
 20
-1877.857115646406
  0
LWPOLYLINE
  5
3A7
330
6F
100
AcDbEntity
  8
STEINE
100
AcDbPolyline
 90
        4
 70
     0
 43
0.0
 10
387.5583796463103
 20
-1867.413402796786
 10
387.5583796463103
 20
-1867.413402796786
 10
383.7883993774625
 20
-1869.957726871064
 10
385.4174906669073
 20
-1871.028075245944
  0
LWPOLYLINE
  5
3AD
330
6F
100
AcDbEntity
  8
STEINE
100
AcDbPolyline
 90
        7
 70
     0
 43
0.0
 10
383.4238084008714
 20
-1884.981036317016
 10
382.709043670806
 20
-1888.290914938796
 10
380.8759692702913
 20
-1887.729727961646
 10
380.5708733677622
 20
-1886.863802079873
 10
381.7432956823099
 20
-1884.827348718591
 10
383.220539285613
 20
-1884.166092482322
 10
383.4238084008714
 20
-1884.981036317016
  0
LWPOLYLINE
  5
3B6
330
6F
100
AcDbEntity
  8
STEINE
100
AcDbPolyline
 90
        5
 70
     0
 43
0.0
 10
383.4238084008714
 20
-1884.981036317016
 10
384.5440129063589
 20
-1885.338130337586
 10
384.7977697639034
 20
-1886.967935622843
 10
383.5248113468211
 20
-1886.559832093816
 10
383.4238084008714
 20
-1884.981036317016
  0
LWPOLYLINE
  5
3BD
330
6F
100
AcDbEntity
  8
STEINE
100
AcDbPolyline
 90
        4
 70
     0
 43
0.0
 10
381.7432956823099
 20
-1884.827348718591
 10
379.9619173246855
 20
-1882.840229721745
 10
379.5527428019417
 20
-1886.099345987465
 10
380.5708733677622
 20
-1886.863802079873
  0
LWPOLYLINE
  5
3C3
330
6F
100
AcDbEntity
  8
STEINE
100
AcDbPolyline
 90
        7
 70
     0
 43
0.0
 10
378.7403803367198
 20
-1881.515465416263
 10
376.958150676397
 20
-1881.107087273463
 10
377.058192474139
 20
-1884.468332401605
 10
377.2103147740545
 20
-1885.690665769514
 10
378.1267833208683
 20
-1886.098577068899
 10
378.9932858915661
 20
-1884.724011555565
 10
378.7403803367198
 20
-1881.515465416263
  0
LWPOLYLINE
  5
3CC
330
6F
100
AcDbEntity
  8
STEINE
100
AcDbPolyline
 90
        4
 70
     0
 43
0.0
 10
377.058192474139
 20
-1884.468332401605
 10
374.0541237506997
 20
-1883.295388320888
 10
376.0415997454511
 20
-1880.85195734705
 10
376.958150676397
 20
-1881.107087273463
  0
LWPOLYLINE
  5
3D2
330
6F
100
AcDbEntity
  8
STEINE
100
AcDbPolyline
 90
        5
 70
     0
 43
0.0
 10
392.0805133105064
 20
-1886.666299853862
 10
392.2849358036141
 20
-1885.342304466946
 10
394.2209629078716
 20
-1883.866461393888
 10
394.8823564510274
 20
-1885.089069375571
 10
392.0805133105064
 20
-1886.666299853862
  0
LWPOLYLINE
  5
3D9
330
6F
100
AcDbEntity
  8
STEINE
100
AcDbPolyline
 90
        8
 70
     0
 43
0.0
 10
390.6546362135652
 20
-1886.512749562323
 10
388.6695218972672
 20
-1884.576447844293
 10
391.0638381976863
 20
-1883.202706172279
 10
393.0006067591326
 20
-1880.351830742473
 10
393.9163338487577
 20
-1882.134774398607
 10
391.7252866635969
 20
-1884.323459905314
 10
391.2153563472997
 20
-1885.545436275318
 10
390.6546362135652
 20
-1886.512749562323
  0
INSERT
  5
3E3
330
6F
100
AcDbEntity
  8
FEUER
100
AcDbBlockReference
  2
RL
 10
349.0987343768216
 20
-1885.31901721894
 30
0.0
  0
INSERT
  5
3E4
330
6F
100
AcDbEntity
  8
FEUER
100
AcDbBlockReference
  2
RL
 10
362.6928164377944
 20
-1891.743167071527
 30
0.0
  0
INSERT
  5
3E5
330
6F
100
AcDbEntity
  8
FEUER
100
AcDbBlockReference
  2
RL
 10
369.5623486391809
 20
-1902.186934843901
 30
0.0
  0
INSERT
  5
3E6
330
6F
100
AcDbEntity
  8
FEUER
100
AcDbBlockReference
  2
RL
 10
388.6562580519998
 20
-1909.174248892808
 30
0.0
  0
INSERT
  5
3E7
330
6F
100
AcDbEntity
  8
FEUER
100
AcDbBlockReference
  2
RL
 10
386.3138300241125
 20
-1908.765568674856
 30
0.0
  0
INSERT
  5
3E8
330
6F
100
AcDbEntity
  8
FEUER
100
AcDbBlockReference
  2
RL
 10
383.0039239409551
 20
-1908.101731069115
 30
0.0
  0
INSERT
  5
3E9
330
6F
100
AcDbEntity
  8
FEUER
100
AcDbBlockReference
  2
RL
 10
379.6433104244926
 20
-1907.030449007404
 30
0.0
  0
INSERT
  5
3EA
330
6F
100
AcDbEntity
  8
FEUER
100
AcDbBlockReference
  2
RL
 10
377.5558200933766
 20
-1906.061707728775
 30
0.0
  0
INSERT
  5
3EB
330
6F
100
AcDbEntity
  8
FEUER
100
AcDbBlockReference
  2
RL
 10
374.8061398391612
 20
-1905.34724507386
 30
0.0
  0
INSERT
  5
3EC
330
6F
100
AcDbEntity
  8
FEUER
100
AcDbBlockReference
  2
RL
 10
372.0058070743953
 20
-1904.123483714328
 30
0.0
  0
INSERT
  5
3ED
330
6F
100
AcDbEntity
  8
FEUER
100
AcDbBlockReference
  2
RL
 10
367.3736356710961
 20
-1900.046814783064
 30
0.0
  0
INSERT
  5
3EE
330
6F
100
AcDbEntity
  8
FEUER
100
AcDbBlockReference
  2
RL
 10
365.7452583774628
 20
-1897.652361175758
 30
0.0
  0
INSERT
  5
3EF
330
6F
100
AcDbEntity
  8
FEUER
100
AcDbBlockReference
  2
RL
 10
364.2697723023111
 20
-1895.054281455288
 30
0.0
  0
INSERT
  5
3F0
330
6F
100
AcDbEntity
  8
FEUER
100
AcDbBlockReference
  2
RL
 10
359.9433284132205
 20
-1890.672214546344
 30
0.0
  0
INSERT
  5
3F1
330
6F
100
AcDbEntity
  8
FEUER
100
AcDbBlockReference
  2
RL
 10
357.4994031345908
 20
-1889.601426789425
 30
0.0
  0
INSERT
  5
3F2
330
6F
100
AcDbEntity
  8
FEUER
100
AcDbBlockReference
  2
RL
 10
354.9536510686905
 20
-1888.479656985428
 30
0.0
  0
INSERT
  5
3F3
330
6F
100
AcDbEntity
  8
FEUER
100
AcDbBlockReference
  2
RL
 10
351.9497196521379
 20
-1887.05207728309
 30
0.0
  0
INSERT
  5
3F4
330
6F
100
AcDbEntity
  8
FEUER
100
AcDbBlockReference
  2
RL
 10
349.4056976530115
 20
-1882.721898646678
 30
0.0
  0
INSERT
  5
3F5
330
6F
100
AcDbEntity
  8
FEUER
100
AcDbBlockReference
  2
RL
 10
351.696539483518
 20
-1884.352802387029
 30
0.0
  0
INSERT
  5
3F6
330
6F
100
AcDbEntity
  8
FEUER
100
AcDbBlockReference
  2
RL
 10
354.5985342672904
 20
-1885.933108539584
 30
0.0
  0
INSERT
  5
3F7
330
6F
100
AcDbEntity
  8
FEUER
100
AcDbBlockReference
  2
RL
 10
357.8572386123501
 20
-1887.106189927189
 30
0.0
  0
INSERT
  5
3F8
330
6F
100
AcDbEntity
  8
FEUER
100
AcDbBlockReference
  2
RL
 10
360.0974553936835
 20
-1888.176867838598
 30
0.0
  0
INSERT
  5
3F9
330
6F
100
AcDbEntity
  8
FEUER
100
AcDbBlockReference
  2
RL
 10
362.7959064484238
 20
-1889.451501399699
 30
0.0
  0
INSERT
  5
3FA
330
6F
100
AcDbEntity
  8
FEUER
100
AcDbBlockReference
  2
RL
 10
364.7803616916651
 20
-1892.610054101508
 30
0.0
  0
INSERT
  5
3FB
330
6F
100
AcDbEntity
  8
FEUER
100
AcDbBlockReference
  2
RL
 10
366.4596661096225
 20
-1895.004535170191
 30
0.0
  0
INSERT
  5
3FC
330
6F
100
AcDbEntity
  8
FEUER
100
AcDbBlockReference
  2
RL
 10
367.7824257345569
 20
-1897.500678257881
 30
0.0
  0
INSERT
  5
3FD
330
6F
100
AcDbEntity
  8
FEUER
100
AcDbBlockReference
  2
RL
 10
370.3276560342873
 20
-1899.590063424035
 30
0.0
  0
INSERT
  5
3FE
330
6F
100
AcDbEntity
  8
FEUER
100
AcDbBlockReference
  2
RL
 10
372.771141930879
 20
-1901.475685170138
 30
0.0
  0
INSERT
  5
3FF
330
6F
100
AcDbEntity
  8
FEUER
100
AcDbBlockReference
  2
RL
 10
375.0622583751592
 20
-1902.597317667249
 30
0.0
  0
INSERT
  5
400
330
6F
100
AcDbEntity
  8
FEUER
100
AcDbBlockReference
  2
RL
 10
378.0664918668628
 20
-1903.464699002022
 30
0.0
  0
INSERT
  5
401
330
6F
100
AcDbEntity
  8
FEUER
100
AcDbBlockReference
  2
RL
 10
380.4084805127122
 20
-1904.688213209158
 30
0.0
  0
INSERT
  5
402
330
6F
100
AcDbEntity
  8
FEUER
100
AcDbBlockReference
  2
RL
 10
382.8014786670177
 20
-1905.758973504699
 30
0.0
  0
INSERT
  5
403
330
6F
100
AcDbEntity
  8
STEINESCHRAFF
100
AcDbBlockReference
  2
*X2
 10
0.0
 20
0.0
 30
0.0
1001
ACAD
1000
HATCH
1002
{
1070
    16
1000
DOTS,I
1040
20.0
1040
0.0
1002
}
  0
LWPOLYLINE
  5
404
330
6F
100
AcDbEntity
  8
STEINE
100
AcDbPolyline
 90
        9
 70
     0
 43
0.0
 10
385.9702744625833
 20
-1884.778700888588
 10
382.3045650435917
 20
-1882.841492945104
 10
381.0837420514375
 20
-1880.192623407197
 10
382.6124345452346
 20
-1878.563779270148
 10
387.7565958681334
 20
-1877.598937507105
 10
391.3205883453637
 20
-1879.281454906214
 10
390.3510506867912
 20
-1882.845831842728
 10
387.9573385366742
 20
-1883.099176779612
 10
385.9702744625833
 20
-1884.778700888588
  0
INSERT
  5
40F
330
6F
100
AcDbEntity
  8
FEUER
100
AcDbBlockReference
  2
*X3
 10
0.0
 20
0.0
 30
0.0
1001
ACAD
1000
HATCH
1002
{
1070
    16
1000
ANSI31,I
1040
10.0
1040
0.0
1002
}
  0
ENDSEC
  0
SECTION
  2
OBJECTS
  0
DICTIONARY
  5
C
330
0
100
AcDbDictionary
281
     1
  3
ACAD_CIP_PREVIOUS_PRODUCT_INFO
350
412
  3
ACAD_COLOR
350
62
  3
ACAD_DETAILVIEWSTYLE
350
69
  3
ACAD_GROUP
350
D
  3
ACAD_LAYOUT
350
61
  3
ACAD_MATERIAL
350
10
  3
ACAD_MLEADERSTYLE
350
65
  3
ACAD_MLINESTYLE
350
5E
  3
ACAD_PLOTSETTINGS
350
60
  3
ACAD_PLOTSTYLENAME
350
E
  3
ACAD_SCALELIST
350
42
  3
ACAD_SECTIONVIEWSTYLE
350
67
  3
ACAD_TABLESTYLE
350
63
  3
ACAD_VISUALSTYLE
350
29
  3
ACDB_RECOMPOSE_DATA
350
429
  3
AcDbVariableDictionary
350
41C
  0
DICTIONARY
  5
416
330
2
100
AcDbDictionary
280
     1
281
     1
  3
ACAD_LAYERSTATES
360
417
  0
XRECORD
  5
412
102
{ACAD_REACTORS
330
C
102
}
330
C
100
AcDbXrecord
280
     1
300
ACD
300
2014
300
DSADV_F_S
  0
DICTIONARY
  5
62
102
{ACAD_REACTORS
330
C
102
}
330
C
100
AcDbDictionary
281
     1
  0
DICTIONARY
  5
69
102
{ACAD_REACTORS
330
C
102
}
330
C
100
AcDbDictionary
281
     1
  3
Imperial24
350
6A
  0
DICTIONARY
  5
D
102
{ACAD_REACTORS
330
C
102
}
330
C
100
AcDbDictionary
281
     1
  0
DICTIONARY
  5
61
102
{ACAD_REACTORS
330
C
102
}
330
C
100
AcDbDictionary
281
     1
  3
Layout1
350
6E
  3
Model
350
72
  0
DICTIONARY
  5
10
102
{ACAD_REACTORS
330
C
102
}
330
C
100
AcDbDictionary
281
     1
  3
ByBlock
350
19
  3
ByLayer
350
11
  3
Global
350
21
  0
DICTIONARY
  5
65
102
{ACAD_REACTORS
330
C
102
}
330
C
100
AcDbDictionary
281
     1
  3
Standard
350
66
  0
DICTIONARY
  5
5E
102
{ACAD_REACTORS
330
C
102
}
330
C
100
AcDbDictionary
281
     1
  3
Standard
350
5F
  0
DICTIONARY
  5
60
102
{ACAD_REACTORS
330
C
102
}
330
C
100
AcDbDictionary
281
     1
  0
ACDBDICTIONARYWDFLT
  5
E
102
{ACAD_REACTORS
330
C
102
}
330
C
100
AcDbDictionary
281
     1
  3
Normal
350
F
100
AcDbDictionaryWithDefault
340
F
  0
DICTIONARY
  5
42
102
{ACAD_REACTORS
330
C
102
}
330
C
100
AcDbDictionary
281
     1
  3
A0
350
43
  3
A1
350
44
  3
A2
350
45
  3
A3
350
46
  3
A4
350
47
  3
A5
350
48
  3
A6
350
49
  3
A7
350
4A
  3
A8
350
4B
  3
A9
350
4C
  3
B0
350
4D
  3
B1
350
4E
  3
B2
350
4F
  3
B3
350
50
  3
B4
350
51
  3
B5
350
52
  3
B6
350
53
  0
DICTIONARY
  5
67
102
{ACAD_REACTORS
330
C
102
}
330
C
100
AcDbDictionary
281
     1
  3
Imperial24
350
68
  0
DICTIONARY
  5
63
102
{ACAD_REACTORS
330
C
102
}
330
C
100
AcDbDictionary
281
     1
  3
Standard
350
64
  0
DICTIONARY
  5
29
102
{ACAD_REACTORS
330
C
102
}
330
C
100
AcDbDictionary
281
     1
  3
2dWireframe
350
2F
  3
Basic
350
2E
  3
Brighten
350
35
  3
ColorChange
350
39
  3
Conceptual
350
32
  3
Dim
350
34
  3
EdgeColorOff
350
41
  3
Facepattern
350
38
  3
Flat
350
2A
  3
FlatWithEdges
350
2B
  3
Gouraud
350
2C
  3
GouraudWithEdges
350
2D
  3
Hidden
350
31
  3
JitterOff
350
3F
  3
Linepattern
350
37
  3
OverhangOff
350
40
  3
Realistic
350
33
  3
Shaded
350
3E
  3
Shaded with edges
350
3D
  3
Shades of Gray
350
3A
  3
Sketchy
350
3B
  3
Thicken
350
36
  3
Wireframe
350
30
  3
X-Ray
350
3C
  0
XRECORD
  5
429
102
{ACAD_REACTORS
330
C
102
}
330
C
100
AcDbXrecord
280
     1
 90
        1
330
64
330
68
330
6A
  0
DICTIONARY
  5
41C
102
{ACAD_REACTORS
330
C
102
}
330
C
100
AcDbDictionary
281
     1
  3
CANNOSCALE
350
421
  3
CMLEADERSTYLE
350
41E
  3
CTABLESTYLE
350
41D
  3
CVIEWDETAILSTYLE
350
41F
  3
CVIEWSECTIONSTYLE
350
420
  0
DICTIONARY
  5
417
102
{ACAD_REACTORS
330
416
102
}
330
416
100
AcDbDictionary
281
     1
  0
ACDBDETAILVIEWSTYLE
  5
6A
102
{ACAD_XDICTIONARY
360
427
102
}
102
{ACAD_REACTORS
330
69
102
}
330
69
100
AcDbModelDocViewStyle
 70
     0
  3
Imperial24
290
     0
100
AcDbDetailViewStyle
 70
     0
 71
     0
 90
        3
 71
     1
340
55
 62
   256
 40
0.24
340
0
 62
   256
 40
0.24
300

 40
0.36
280
     3
 71
     2
340
5C
 90
       25
 62
   256
 71
     3
340
55
 62
   256
 40
0.24
 90
        1
 40
0.75
 90
        1
300
%<\AcVar ViewType \f "%tc1">% %<\AcVar ViewDetailId>%\PVARIA %<\AcVar ViewScale \f "%sn">%
 71
     4
340
5C
 90
       25
 62
   256
340
5C
 90
       25
 62
   256
280
     0
  0
LAYOUT
  5
6E
102
{ACAD_REACTORS
330
61
102
}
330
61
100
AcDbPlotSettings
  1

  2
Kyocera FS-1350DN KX
  4

  6

 40
0.0
 41
0.0
 42
0.0
 43
0.0
 44
0.0
 45
0.0
 46
0.0
 47
0.0
 48
0.0
 49
0.0
140
0.0
141
0.0
142
1.0
143
1.0
 70
   688
 72
     0
 73
     0
 74
     5
  7

 75
    16
147
1.0
 76
     0
 77
     2
 78
   300
148
0.0
149
0.0
100
AcDbLayout
  1
Layout1
 70
     0
 71
     1
 10
0.0
 20
0.0
 11
12.0
 21
9.0
 12
0.0
 22
0.0
 32
0.0
 14
1.000000000000000E+20
 24
1.000000000000000E+20
 34
1.000000000000000E+20
 15
-1.000000000000000E+20
 25
-1.000000000000000E+20
 35
-1.000000000000000E+20
146
0.0
 13
0.0
 23
0.0
 33
0.0
 16
1.0
 26
0.0
 36
0.0
 17
0.0
 27
1.0
 37
0.0
 76
     0
330
6B
  0
LAYOUT
  5
72
102
{ACAD_REACTORS
330
61
102
}
330
61
100
AcDbPlotSettings
  1

  2
Kyocera FS-1350DN KX
  4

  6

 40
0.0
 41
0.0
 42
0.0
 43
0.0
 44
0.0
 45
0.0
 46
0.0
 47
0.0
 48
0.0
 49
0.0
140
0.0
141
0.0
142
1.0
143
1.0
 70
  1712
 72
     0
 73
     0
 74
     0
  7

 75
     0
147
1.0
 76
     0
 77
     2
 78
   300
148
0.0
149
0.0
100
AcDbLayout
  1
Model
 70
     1
 71
     0
 10
0.0
 20
0.0
 11
12.0
 21
9.0
 12
0.0
 22
0.0
 32
0.0
 14
0.0
 24
0.0
 34
0.0
 15
0.0
 25
0.0
 35
0.0
146
0.0
 13
0.0
 23
0.0
 33
0.0
 16
1.0
 26
0.0
 36
0.0
 17
0.0
 27
1.0
 37
0.0
 76
     0
330
6F
331
90
  0
MATERIAL
  5
19
102
{ACAD_XDICTIONARY
360
1A
102
}
102
{ACAD_REACTORS
330
10
102
}
330
10
100
AcDbMaterial
  1
ByBlock
 72
     0
 43
0.0208333333333333
 43
0.0
 43
0.0
 43
0.0
 43
0.0
 43
0.0208333333333333
 43
0.0
 43
0.0
 43
0.0
 43
0.0
 43
1.0
 43
0.0
 43
0.0
 43
0.0
 43
0.0
 43
1.0
 77
     0
 47
0.0208333333333333
 47
0.0
 47
0.0
 47
0.0
 47
0.0
 47
0.0208333333333333
 47
0.0
 47
0.0
 47
0.0
 47
0.0
 47
1.0
 47
0.0
 47
0.0
 47
0.0
 47
0.0
 47
1.0
171
     0
 49
0.0208333333333333
 49
0.0
 49
0.0
 49
0.0
 49
0.0
 49
0.0208333333333333
 49
0.0
 49
0.0
 49
0.0
 49
0.0
 49
1.0
 49
0.0
 49
0.0
 49
0.0
 49
0.0
 49
1.0
175
     0
142
0.0208333333333333
142
0.0
142
0.0
142
0.0
142
0.0
142
0.0208333333333333
142
0.0
142
0.0
142
0.0
142
0.0
142
1.0
142
0.0
142
0.0
142
0.0
142
0.0
142
1.0
179
     0
144
0.0208333333333333
144
0.0
144
0.0
144
0.0
144
0.0
144
0.0208333333333333
144
0.0
144
0.0
144
0.0
144
0.0
144
1.0
144
0.0
144
0.0
144
0.0
144
0.0
144
1.0
147
0.0208333333333333
147
0.0
147
0.0
147
0.0
147
0.0
147
0.0208333333333333
147
0.0
147
0.0
147
0.0
147
0.0
147
1.0
147
0.0
147
0.0
147
0.0
147
0.0
147
1.0
  0
MATERIAL
  5
11
102
{ACAD_XDICTIONARY
360
12
102
}
102
{ACAD_REACTORS
330
10
102
}
330
10
100
AcDbMaterial
  1
ByLayer
 72
     0
 43
0.0208333333333333
 43
0.0
 43
0.0
 43
0.0
 43
0.0
 43
0.0208333333333333
 43
0.0
 43
0.0
 43
0.0
 43
0.0
 43
1.0
 43
0.0
 43
0.0
 43
0.0
 43
0.0
 43
1.0
 77
     0
 47
0.0208333333333333
 47
0.0
 47
0.0
 47
0.0
 47
0.0
 47
0.0208333333333333
 47
0.0
 47
0.0
 47
0.0
 47
0.0
 47
1.0
 47
0.0
 47
0.0
 47
0.0
 47
0.0
 47
1.0
171
     0
 49
0.0208333333333333
 49
0.0
 49
0.0
 49
0.0
 49
0.0
 49
0.0208333333333333
 49
0.0
 49
0.0
 49
0.0
 49
0.0
 49
1.0
 49
0.0
 49
0.0
 49
0.0
 49
0.0
 49
1.0
175
     0
142
0.0208333333333333
142
0.0
142
0.0
142
0.0
142
0.0
142
0.0208333333333333
142
0.0
142
0.0
142
0.0
142
0.0
142
1.0
142
0.0
142
0.0
142
0.0
142
0.0
142
1.0
179
     0
144
0.0208333333333333
144
0.0
144
0.0
144
0.0
144
0.0
144
0.0208333333333333
144
0.0
144
0.0
144
0.0
144
0.0
144
1.0
144
0.0
144
0.0
144
0.0
144
0.0
144
1.0
147
0.0208333333333333
147
0.0
147
0.0
147
0.0
147
0.0
147
0.0208333333333333
147
0.0
147
0.0
147
0.0
147
0.0
147
1.0
147
0.0
147
0.0
147
0.0
147
0.0
147
1.0
  0
MATERIAL
  5
21
102
{ACAD_XDICTIONARY
360
22
102
}
102
{ACAD_REACTORS
330
10
102
}
330
10
100
AcDbMaterial
  1
Global
 72
     0
 43
0.0208333333333333
 43
0.0
 43
0.0
 43
0.0
 43
0.0
 43
0.0208333333333333
 43
0.0
 43
0.0
 43
0.0
 43
0.0
 43
1.0
 43
0.0
 43
0.0
 43
0.0
 43
0.0
 43
1.0
 77
     0
 47
0.0208333333333333
 47
0.0
 47
0.0
 47
0.0
 47
0.0
 47
0.0208333333333333
 47
0.0
 47
0.0
 47
0.0
 47
0.0
 47
1.0
 47
0.0
 47
0.0
 47
0.0
 47
0.0
 47
1.0
171
     0
 49
0.0208333333333333
 49
0.0
 49
0.0
 49
0.0
 49
0.0
 49
0.0208333333333333
 49
0.0
 49
0.0
 49
0.0
 49
0.0
 49
1.0
 49
0.0
 49
0.0
 49
0.0
 49
0.0
 49
1.0
175
     0
142
0.0208333333333333
142
0.0
142
0.0
142
0.0
142
0.0
142
0.0208333333333333
142
0.0
142
0.0
142
0.0
142
0.0
142
1.0
142
0.0
142
0.0
142
0.0
142
0.0
142
1.0
179
     0
144
0.0208333333333333
144
0.0
144
0.0
144
0.0
144
0.0
144
0.0208333333333333
144
0.0
144
0.0
144
0.0
144
0.0
144
1.0
144
0.0
144
0.0
144
0.0
144
0.0
144
1.0
147
0.0208333333333333
147
0.0
147
0.0
147
0.0
147
0.0
147
0.0208333333333333
147
0.0
147
0.0
147
0.0
147
0.0
147
1.0
147
0.0
147
0.0
147
0.0
147
0.0
147
1.0
  0
MLEADERSTYLE
  5
66
102
{ACAD_REACTORS
330
65
102
}
330
65
100
AcDbMLeaderStyle
179
     2
170
     2
171
     1
172
     0
 90
        2
 40
0.0
 41
0.0
173
     1
 91
-1056964608
340
5A
 92
       -2
290
     1
 42
0.09
291
     1
 43
0.36
  3
Standard
 44
0.18
300

342
55
174
     1
178
     6
175
     1
176
     0
 93
-1056964608
 45
0.18
292
     0
297
     0
 46
0.18
 94
-1056964608
 47
1.0
 49
1.0
140
1.0
293
     1
141
0.0
294
     1
177
     0
142
1.0
295
     1
296
     0
143
0.125
271
     0
272
     9
273
     9
298
     1
  0
MLINESTYLE
  5
5F
102
{ACAD_REACTORS
330
5E
102
}
330
5E
100
AcDbMlineStyle
  2
STANDARD
 70
     0
  3

 62
   256
 51
90.0
 52
90.0
 71
     2
 49
0.5
 62
   256
  6
BYLAYER
 49
-0.5
 62
   256
  6
BYLAYER
  0
ACDBPLACEHOLDER
  5
F
102
{ACAD_REACTORS
330
E
102
}
330
E
  0
SCALE
  5
43
102
{ACAD_REACTORS
330
42
102
}
330
42
100
AcDbScale
 70
     0
300
1:1
140
1.0
141
1.0
290
     1
  0
SCALE
  5
44
102
{ACAD_REACTORS
330
42
102
}
330
42
100
AcDbScale
 70
     0
300
1/128" = 1'-0"
140
0.0078125
141
12.0
290
     0
  0
SCALE
  5
45
102
{ACAD_REACTORS
330
42
102
}
330
42
100
AcDbScale
 70
     0
300
1/64" = 1'-0"
140
0.015625
141
12.0
290
     0
  0
SCALE
  5
46
102
{ACAD_REACTORS
330
42
102
}
330
42
100
AcDbScale
 70
     0
300
1/32" = 1'-0"
140
0.03125
141
12.0
290
     0
  0
SCALE
  5
47
102
{ACAD_REACTORS
330
42
102
}
330
42
100
AcDbScale
 70
     0
300
1/16" = 1'-0"
140
0.0625
141
12.0
290
     0
  0
SCALE
  5
48
102
{ACAD_REACTORS
330
42
102
}
330
42
100
AcDbScale
 70
     0
300
3/32" = 1'-0"
140
0.09375
141
12.0
290
     0
  0
SCALE
  5
49
102
{ACAD_REACTORS
330
42
102
}
330
42
100
AcDbScale
 70
     0
300
1/8" = 1'-0"
140
0.125
141
12.0
290
     0
  0
SCALE
  5
4A
102
{ACAD_REACTORS
330
42
102
}
330
42
100
AcDbScale
 70
     0
300
3/16" = 1'-0"
140
0.1875
141
12.0
290
     0
  0
SCALE
  5
4B
102
{ACAD_REACTORS
330
42
102
}
330
42
100
AcDbScale
 70
     0
300
1/4" = 1'-0"
140
0.25
141
12.0
290
     0
  0
SCALE
  5
4C
102
{ACAD_REACTORS
330
42
102
}
330
42
100
AcDbScale
 70
     0
300
3/8" = 1'-0"
140
0.375
141
12.0
290
     0
  0
SCALE
  5
4D
102
{ACAD_REACTORS
330
42
102
}
330
42
100
AcDbScale
 70
     0
300
1/2" = 1'-0"
140
0.5
141
12.0
290
     0
  0
SCALE
  5
4E
102
{ACAD_REACTORS
330
42
102
}
330
42
100
AcDbScale
 70
     0
300
3/4" = 1'-0"
140
0.75
141
12.0
290
     0
  0
SCALE
  5
4F
102
{ACAD_REACTORS
330
42
102
}
330
42
100
AcDbScale
 70
     0
300
1" = 1'-0"
140
1.0
141
12.0
290
     0
  0
SCALE
  5
50
102
{ACAD_REACTORS
330
42
102
}
330
42
100
AcDbScale
 70
     0
300
1-1/2" = 1'-0"
140
1.5
141
12.0
290
     0
  0
SCALE
  5
51
102
{ACAD_REACTORS
330
42
102
}
330
42
100
AcDbScale
 70
     0
300
3" = 1'-0"
140
3.0
141
12.0
290
     0
  0
SCALE
  5
52
102
{ACAD_REACTORS
330
42
102
}
330
42
100
AcDbScale
 70
     0
300
6" = 1'-0"
140
6.0
141
12.0
290
     0
  0
SCALE
  5
53
102
{ACAD_REACTORS
330
42
102
}
330
42
100
AcDbScale
 70
     0
300
1'-0" = 1'-0"
140
12.0
141
12.0
290
     0
  0
ACDBSECTIONVIEWSTYLE
  5
68
102
{ACAD_XDICTIONARY
360
425
102
}
102
{ACAD_REACTORS
330
67
102
}
330
67
100
AcDbModelDocViewStyle
 70
     0
  3
Imperial24
290
     0
100
AcDbSectionViewStyle
 70
     0
 71
     0
 90
       78
 71
     1
340
55
 62
   256
 40
0.24
340
0
340
0
 62
   256
 40
0.24
300
I, O, Q, S, X, Z
 40
0.48
 90
        3
 40
0.18
 90
        1
 71
     2
340
5C
 90
       25
 62
   256
340
5C
 90
       50
 62
   256
 40
0.24
 40
0.0
 40
0.24
 71
     3
340
55
 62
   256
 40
0.24
 90
        1
 40
0.75
 90
        1
300
%<\AcVar ViewType \f "%tc1">% %<\AcVar ViewSectionStartId>%-%<\AcVar ViewSectionEndId>%\PVARIA %<\AcVar ViewScale \f "%sn">%
 71
     4
 62
   256
 62
   257
300
ANSI31
 40
1.0
 90
        0
290
     0
290
     0
 90
        6
 40
0.0
 40
1.570796326794896
 40
0.2617993877991494
 40
1.308996938995747
 40
-0.2617993877991494
 40
1.832595714594046
  0
TABLESTYLE
  5
64
102
{ACAD_XDICTIONARY
360
423
102
}
102
{ACAD_REACTORS
330
63
102
}
330
63
100
AcDbTableStyle
280
     0
  3
Standard
 70
     0
 71
     0
 40
0.06
 41
0.06
280
     0
281
     0
  7
STANDARD
140
0.18
170
     2
 62
     0
 63
     7
283
     0
 90
      512
 91
        0
  1

274
    -2
284
     1
 64
     0
275
    -2
285
     1
 65
     0
276
    -2
286
     1
 66
     0
277
    -2
287
     1
 67
     0
278
    -2
288
     1
 68
     0
279
    -2
289
     1
 69
     0
  7
STANDARD
140
0.25
170
     5
 62
     0
 63
     7
283
     0
 90
      512
 91
        0
  1

274
    -2
284
     1
 64
     0
275
    -2
285
     1
 65
     0
276
    -2
286
     1
 66
     0
277
    -2
287
     1
 67
     0
278
    -2
288
     1
 68
     0
279
    -2
289
     1
 69
     0
  7
STANDARD
140
0.18
170
     5
 62
     0
 63
     7
283
     0
 90
      512
 91
        0
  1

274
    -2
284
     1
 64
     0
275
    -2
285
     1
 65
     0
276
    -2
286
     1
 66
     0
277
    -2
287
     1
 67
     0
278
    -2
288
     1
 68
     0
279
    -2
289
     1
 69
     0
  0
VISUALSTYLE
  5
2F
102
{ACAD_REACTORS
330
29
102
}
330
29
100
AcDbVisualStyle
  2
2dWireframe
 70
     4
177
     3
291
     0
 70
    58
 90
        0
176
     1
 90
        2
176
     1
 90
        0
176
     1
 90
        0
176
     1
 40
0.6
176
     1
 40
30.0
176
     1
 62
     7
420
 16777215
176
     1
 90
        1
176
     1
 90
        4
176
     1
 62
     7
176
     1
 62
   257
176
     1
 90
        1
176
     1
 90
        1
176
     1
 40
1.0
176
     1
 90
        0
176
     1
 62
   257
176
     1
 40
1.0
176
     1
 90
        1
176
     1
 90
        6
176
     1
 90
        2
176
     1
 62
     7
176
     1
 90
        5
176
     1
 90
        0
176
     1
 90
        0
176
     1
290
     0
176
     1
 90
        1
176
     1
 40
0.0
176
     1
 90
        0
176
     1
290
     1
176
     1
290
     1
176
     1
290
     0
176
     1
290
     0
176
     1
290
     0
176
     1
290
     0
176
     1
290
     0
176
     1
290
     0
176
     1
290
     0
176
     1
 90
       50
176
     1
 40
0.0
176
     1
 40
1.0
176
     1
 90
        0
176
     1
 62
    18
420
        0
176
     1
 90
       50
176
     1
 90
        3
176
     1
 62
     5
420
      255
176
     1
290
     0
176
     1
 90
       50
176
     1
 90
       50
176
     1
 90
       50
176
     1
290
     0
176
     1
 90
       50
176
     1
 62
   256
176
     0
 40
1.0
176
     0
 90
        2
176
     1
  1
strokes_ogs.tif
176
     1
290
     0
176
     1
 40
1.0
176
     1
 40
1.0
176
     1
  0
VISUALSTYLE
  5
2E
102
{ACAD_REACTORS
330
29
102
}
330
29
100
AcDbVisualStyle
  2
Basic
 70
     7
177
     3
291
     1
 70
    58
 90
        1
176
     1
 90
        0
176
     1
 90
        1
176
     1
 90
        0
176
     1
 40
0.6
176
     1
 40
30.0
176
     1
 62
     7
420
 16777215
176
     1
 90
        0
176
     1
 90
        4
176
     1
 62
     7
176
     1
 62
   257
176
     1
 90
        1
176
     1
 90
        1
176
     1
 40
1.0
176
     1
 90
        8
176
     1
 62
     7
176
     1
 40
1.0
176
     1
 90
        1
176
     1
 90
        6
176
     1
 90
        2
176
     1
 62
     7
176
     1
 90
        5
176
     1
 90
        0
176
     1
 90
        0
176
     1
290
     0
176
     1
 90
        1
176
     1
 40
0.0
176
     1
 90
        0
176
     1
290
     0
176
     1
290
     1
176
     1
290
     1
176
     1
290
     0
176
     1
290
     0
176
     1
290
     0
176
     1
290
     0
176
     1
290
     0
176
     1
290
     0
176
     1
 90
       50
176
     1
 40
0.0
176
     1
 40
1.0
176
     1
 90
        0
176
     1
 62
    18
420
        0
176
     1
 90
       50
176
     1
 90
        3
176
     1
 62
     5
420
      255
176
     1
290
     0
176
     1
 90
       50
176
     1
 90
       50
176
     1
 90
       50
176
     1
290
     0
176
     1
 90
       50
176
     1
 62
   256
176
     0
 40
1.0
176
     0
 90
        2
176
     1
  1
strokes_ogs.tif
176
     1
290
     0
176
     1
 40
1.0
176
     1
 40
1.0
176
     1
  0
VISUALSTYLE
  5
35
102
{ACAD_REACTORS
330
29
102
}
330
29
100
AcDbVisualStyle
  2
Brighten
 70
    12
177
     3
291
     1
 70
    58
 90
        2
176
     1
 90
        2
176
     1
 90
        0
176
     1
 90
        0
176
     1
 40
0.6
176
     1
 40
30.0
176
     1
 62
     7
420
 16777215
176
     1
 90
        1
176
     1
 90
        4
176
     1
 62
     7
176
     1
 62
   257
176
     1
 90
        1
176
     1
 90
        1
176
     1
 40
1.0
176
     1
 90
        8
176
     1
 62
     7
176
     1
 40
1.0
176
     1
 90
        1
176
     1
 90
        6
176
     1
 90
        2
176
     1
 62
     7
176
     1
 90
        5
176
     1
 90
        0
176
     1
 90
        0
176
     1
290
     0
176
     1
 90
        1
176
     1
 40
50.0
176
     1
 90
        0
176
     1
290
     0
176
     1
290
     1
176
     1
290
     1
176
     1
290
     0
176
     1
290
     0
176
     1
290
     0
176
     1
290
     0
176
     1
290
     0
176
     1
290
     0
176
     1
 90
       50
176
     1
 40
0.0
176
     1
 40
1.0
176
     1
 90
        0
176
     1
 62
    18
420
        0
176
     1
 90
       50
176
     1
 90
        3
176
     1
 62
     5
420
      255
176
     1
290
     0
176
     1
 90
       50
176
     1
 90
       50
176
     1
 90
       50
176
     1
290
     0
176
     1
 90
       50
176
     1
 62
   256
176
     0
 40
1.0
176
     0
 90
        2
176
     1
  1
strokes_ogs.tif
176
     1
290
     0
176
     1
 40
1.0
176
     1
 40
1.0
176
     1
  0
VISUALSTYLE
  5
39
102
{ACAD_REACTORS
330
29
102
}
330
29
100
AcDbVisualStyle
  2
ColorChange
 70
    16
177
     3
291
     1
 70
    58
 90
        2
176
     1
 90
        2
176
     1
 90
        3
176
     1
 90
        0
176
     1
 40
0.6
176
     1
 40
30.0
176
     1
 62
     8
420
  8421504
176
     1
 90
        1
176
     1
 90
        4
176
     1
 62
     7
176
     1
 62
   257
176
     1
 90
        1
176
     1
 90
        1
176
     1
 40
1.0
176
     1
 90
        8
176
     1
 62
     8
420
  8421504
176
     1
 40
1.0
176
     1
 90
        1
176
     1
 90
        6
176
     1
 90
        2
176
     1
 62
     7
176
     1
 90
        5
176
     1
 90
        0
176
     1
 90
        0
176
     1
290
     0
176
     1
 90
        1
176
     1
 40
0.0
176
     1
 90
        0
176
     1
290
     0
176
     1
290
     1
176
     1
290
     1
176
     1
290
     0
176
     1
290
     0
176
     1
290
     0
176
     1
290
     0
176
     1
290
     0
176
     1
290
     0
176
     1
 90
       50
176
     1
 40
0.0
176
     1
 40
1.0
176
     1
 90
        0
176
     1
 62
    18
420
        0
176
     1
 90
       50
176
     1
 90
        3
176
     1
 62
     5
420
      255
176
     1
290
     0
176
     1
 90
       50
176
     1
 90
       50
176
     1
 90
       50
176
     1
290
     0
176
     1
 90
       50
176
     1
 62
   256
176
     0
 40
1.0
176
     0
 90
        2
176
     1
  1
strokes_ogs.tif
176
     1
290
     0
176
     1
 40
1.0
176
     1
 40
1.0
176
     1
  0
VISUALSTYLE
  5
32
102
{ACAD_REACTORS
330
29
102
}
330
29
100
AcDbVisualStyle
  2
Conceptual
 70
     9
177
     3
291
     0
 70
    58
 90
        3
176
     1
 90
        2
176
     1
 90
        0
176
     1
 90
        0
176
     1
 40
0.6
176
     1
 40
30.0
176
     1
 62
     7
420
 16777215
176
     1
 90
        2
176
     1
 90
        2
176
     1
 62
     7
176
     1
 62
   257
176
     1
 90
        1
176
     1
 90
        1
176
     1
 40
179.0
176
     1
 90
        8
176
     1
 62
     7
176
     1
 40
1.0
176
     1
 90
        1
176
     1
 90
        6
176
     1
 90
        2
176
     1
 62
     7
176
     1
 90
        3
176
     1
 90
        0
176
     1
 90
        0
176
     1
290
     0
176
     1
 90
        1
176
     1
 40
0.0
176
     1
 90
        0
176
     1
290
     0
176
     1
290
     1
176
     1
290
     1
176
     1
290
     0
176
     1
290
     0
176
     1
290
     0
176
     1
290
     0
176
     1
290
     0
176
     1
290
     0
176
     1
 90
       50
176
     1
 40
0.0
176
     1
 40
1.0
176
     1
 90
        0
176
     1
 62
    18
420
        0
176
     1
 90
       50
176
     1
 90
        3
176
     1
 62
     5
420
      255
176
     1
290
     0
176
     1
 90
       50
176
     1
 90
       50
176
     1
 90
       50
176
     1
290
     0
176
     1
 90
       50
176
     1
 62
   256
176
     0
 40
1.0
176
     0
 90
        2
176
     1
  1
strokes_ogs.tif
176
     1
290
     0
176
     1
 40
1.0
176
     1
 40
1.0
176
     1
  0
VISUALSTYLE
  5
34
102
{ACAD_REACTORS
330
29
102
}
330
29
100
AcDbVisualStyle
  2
Dim
 70
    11
177
     3
291
     1
 70
    58
 90
        2
176
     1
 90
        2
176
     1
 90
        0
176
     1
 90
        0
176
     1
 40
0.6
176
     1
 40
30.0
176
     1
 62
     7
420
 16777215
176
     1
 90
        1
176
     1
 90
        4
176
     1
 62
     7
176
     1
 62
   257
176
     1
 90
        1
176
     1
 90
        1
176
     1
 40
1.0
176
     1
 90
        8
176
     1
 62
     7
176
     1
 40
1.0
176
     1
 90
        1
176
     1
 90
        6
176
     1
 90
        2
176
     1
 62
     7
176
     1
 90
        5
176
     1
 90
        0
176
     1
 90
        0
176
     1
290
     0
176
     1
 90
        1
176
     1
 40
-50.0
176
     1
 90
        0
176
     1
290
     0
176
     1
290
     1
176
     1
290
     1
176
     1
290
     0
176
     1
290
     0
176
     1
290
     0
176
     1
290
     0
176
     1
290
     0
176
     1
290
     0
176
     1
 90
       50
176
     1
 40
0.0
176
     1
 40
1.0
176
     1
 90
        0
176
     1
 62
    18
420
        0
176
     1
 90
       50
176
     1
 90
        3
176
     1
 62
     5
420
      255
176
     1
290
     0
176
     1
 90
       50
176
     1
 90
       50
176
     1
 90
       50
176
     1
290
     0
176
     1
 90
       50
176
     1
 62
   256
176
     0
 40
1.0
176
     0
 90
        2
176
     1
  1
strokes_ogs.tif
176
     1
290
     0
176
     1
 40
1.0
176
     1
 40
1.0
176
     1
  0
VISUALSTYLE
  5
41
102
{ACAD_REACTORS
330
29
102
}
330
29
100
AcDbVisualStyle
  2
EdgeColorOff
 70
    22
177
     3
291
     1
 70
    58
 90
        2
176
     0
 90
        2
176
     0
 90
        0
176
     0
 90
        0
176
     0
 40
0.6
176
     0
 40
30.0
176
     0
 62
     7
420
 16777215
176
     0
 90
        1
176
     0
 90
        4
176
     0
 62
     7
176
     0
 62
   257
176
     0
 90
        1
176
     0
 90
        1
176
     0
 40
1.0
176
     0
 90
        8
176
     2
 62
     7
176
     0
 40
1.0
176
     0
 90
        1
176
     0
 90
        6
176
     0
 90
        2
176
     0
 62
     7
176
     0
 90
        5
176
     0
 90
        0
176
     0
 90
        0
176
     0
290
     0
176
     0
 90
        1
176
     0
 40
0.0
176
     0
 90
        0
176
     0
290
     0
176
     0
290
     1
176
     0
290
     1
176
     0
290
     0
176
     0
290
     0
176
     0
290
     0
176
     0
290
     0
176
     0
290
     0
176
     0
290
     0
176
     0
 90
       50
176
     0
 40
0.0
176
     0
 40
1.0
176
     0
 90
        0
176
     0
 62
    18
420
        0
176
     0
 90
       50
176
     0
 90
        3
176
     0
 62
     5
420
      255
176
     0
290
     0
176
     0
 90
       50
176
     0
 90
       50
176
     0
 90
       50
176
     0
290
     0
176
     0
 90
       50
176
     0
 62
   256
176
     0
 40
1.0
176
     0
 90
        2
176
     0
  1
strokes_ogs.tif
176
     0
290
     0
176
     0
 40
1.0
176
     0
 40
1.0
176
     0
  0
VISUALSTYLE
  5
38
102
{ACAD_REACTORS
330
29
102
}
330
29
100
AcDbVisualStyle
  2
Facepattern
 70
    15
177
     3
291
     1
 70
    58
 90
        2
176
     1
 90
        2
176
     1
 90
        0
176
     1
 90
        0
176
     1
 40
0.6
176
     1
 40
30.0
176
     1
 62
     7
420
 16777215
176
     1
 90
        1
176
     1
 90
        4
176
     1
 62
     7
176
     1
 62
   257
176
     1
 90
        1
176
     1
 90
        1
176
     1
 40
1.0
176
     1
 90
        8
176
     1
 62
     7
176
     1
 40
1.0
176
     1
 90
        1
176
     1
 90
        6
176
     1
 90
        2
176
     1
 62
     7
176
     1
 90
        5
176
     1
 90
        0
176
     1
 90
        0
176
     1
290
     0
176
     1
 90
        1
176
     1
 40
0.0
176
     1
 90
        0
176
     1
290
     0
176
     1
290
     1
176
     1
290
     1
176
     1
290
     0
176
     1
290
     0
176
     1
290
     0
176
     1
290
     0
176
     1
290
     0
176
     1
290
     0
176
     1
 90
       50
176
     1
 40
0.0
176
     1
 40
1.0
176
     1
 90
        0
176
     1
 62
    18
420
        0
176
     1
 90
       50
176
     1
 90
        3
176
     1
 62
     5
420
      255
176
     1
290
     0
176
     1
 90
       50
176
     1
 90
       50
176
     1
 90
       50
176
     1
290
     0
176
     1
 90
       50
176
     1
 62
   256
176
     0
 40
1.0
176
     0
 90
        2
176
     1
  1
strokes_ogs.tif
176
     1
290
     0
176
     1
 40
1.0
176
     1
 40
1.0
176
     1
  0
VISUALSTYLE
  5
2A
102
{ACAD_REACTORS
330
29
102
}
330
29
100
AcDbVisualStyle
  2
Flat
 70
     0
177
     3
291
     1
 70
    58
 90
        2
176
     1
 90
        1
176
     1
 90
        1
176
     1
 90
        2
176
     1
 40
0.6
176
     1
 40
30.0
176
     1
 62
     7
420
 16777215
176
     1
 90
        0
176
     1
 90
        0
176
     1
 62
     7
176
     1
 62
   257
176
     1
 90
        1
176
     1
 90
        1
176
     1
 40
1.0
176
     1
 90
        8
176
     1
 62
     7
176
     1
 40
1.0
176
     1
 90
        1
176
     1
 90
        6
176
     1
 90
        2
176
     1
 62
     7
176
     1
 90
        5
176
     1
 90
        0
176
     1
 90
        0
176
     1
290
     0
176
     1
 90
       13
176
     1
 40
0.0
176
     1
 90
        0
176
     1
290
     0
176
     1
290
     1
176
     1
290
     1
176
     1
290
     0
176
     1
290
     0
176
     1
290
     0
176
     1
290
     0
176
     1
290
     0
176
     1
290
     0
176
     1
 90
       50
176
     1
 40
0.0
176
     1
 40
1.0
176
     1
 90
        0
176
     1
 62
    18
420
        0
176
     1
 90
       50
176
     1
 90
        3
176
     1
 62
     5
420
      255
176
     1
290
     0
176
     1
 90
       50
176
     1
 90
       50
176
     1
 90
       50
176
     1
290
     0
176
     1
 90
       50
176
     1
 62
   256
176
     0
 40
1.0
176
     0
 90
        2
176
     1
  1
strokes_ogs.tif
176
     1
290
     0
176
     1
 40
1.0
176
     1
 40
1.0
176
     1
  0
VISUALSTYLE
  5
2B
102
{ACAD_REACTORS
330
29
102
}
330
29
100
AcDbVisualStyle
  2
FlatWithEdges
 70
     1
177
     3
291
     1
 70
    58
 90
        2
176
     1
 90
        1
176
     1
 90
        1
176
     1
 90
        2
176
     1
 40
0.6
176
     1
 40
30.0
176
     1
 62
     7
420
 16777215
176
     1
 90
        1
176
     1
 90
        0
176
     1
 62
     7
176
     1
 62
   257
176
     1
 90
        1
176
     1
 90
        1
176
     1
 40
1.0
176
     1
 90
        0
176
     1
 62
   257
176
     1
 40
1.0
176
     1
 90
        1
176
     1
 90
        6
176
     1
 90
        2
176
     1
 62
     7
176
     1
 90
        5
176
     1
 90
        0
176
     1
 90
        0
176
     1
290
     0
176
     1
 90
       13
176
     1
 40
0.0
176
     1
 90
        0
176
     1
290
     0
176
     1
290
     1
176
     1
290
     1
176
     1
290
     0
176
     1
290
     0
176
     1
290
     0
176
     1
290
     0
176
     1
290
     0
176
     1
290
     0
176
     1
 90
       50
176
     1
 40
0.0
176
     1
 40
1.0
176
     1
 90
        0
176
     1
 62
    18
420
        0
176
     1
 90
       50
176
     1
 90
        3
176
     1
 62
     5
420
      255
176
     1
290
     0
176
     1
 90
       50
176
     1
 90
       50
176
     1
 90
       50
176
     1
290
     0
176
     1
 90
       50
176
     1
 62
   256
176
     0
 40
1.0
176
     0
 90
        2
176
     1
  1
strokes_ogs.tif
176
     1
290
     0
176
     1
 40
1.0
176
     1
 40
1.0
176
     1
  0
VISUALSTYLE
  5
2C
102
{ACAD_REACTORS
330
29
102
}
330
29
100
AcDbVisualStyle
  2
Gouraud
 70
     2
177
     3
291
     1
 70
    58
 90
        2
176
     1
 90
        2
176
     1
 90
        1
176
     1
 90
        2
176
     1
 40
0.6
176
     1
 40
30.0
176
     1
 62
     7
420
 16777215
176
     1
 90
        0
176
     1
 90
        0
176
     1
 62
     7
176
     1
 62
   257
176
     1
 90
        1
176
     1
 90
        1
176
     1
 40
1.0
176
     1
 90
        0
176
     1
 62
     7
176
     1
 40
1.0
176
     1
 90
        1
176
     1
 90
        6
176
     1
 90
        2
176
     1
 62
     7
176
     1
 90
        5
176
     1
 90
        0
176
     1
 90
        0
176
     1
290
     0
176
     1
 90
       13
176
     1
 40
0.0
176
     1
 90
        0
176
     1
290
     0
176
     1
290
     1
176
     1
290
     1
176
     1
290
     0
176
     1
290
     0
176
     1
290
     0
176
     1
290
     0
176
     1
290
     0
176
     1
290
     0
176
     1
 90
       50
176
     1
 40
0.0
176
     1
 40
1.0
176
     1
 90
        0
176
     1
 62
    18
420
        0
176
     1
 90
       50
176
     1
 90
        3
176
     1
 62
     5
420
      255
176
     1
290
     0
176
     1
 90
       50
176
     1
 90
       50
176
     1
 90
       50
176
     1
290
     0
176
     1
 90
       50
176
     1
 62
   256
176
     0
 40
1.0
176
     0
 90
        2
176
     1
  1
strokes_ogs.tif
176
     1
290
     0
176
     1
 40
1.0
176
     1
 40
1.0
176
     1
  0
VISUALSTYLE
  5
2D
102
{ACAD_REACTORS
330
29
102
}
330
29
100
AcDbVisualStyle
  2
GouraudWithEdges
 70
     3
177
     3
291
     1
 70
    58
 90
        2
176
     1
 90
        2
176
     1
 90
        1
176
     1
 90
        2
176
     1
 40
0.6
176
     1
 40
30.0
176
     1
 62
     7
420
 16777215
176
     1
 90
        1
176
     1
 90
        0
176
     1
 62
     7
176
     1
 62
   257
176
     1
 90
        1
176
     1
 90
        1
176
     1
 40
1.0
176
     1
 90
        0
176
     1
 62
   257
176
     1
 40
1.0
176
     1
 90
        1
176
     1
 90
        6
176
     1
 90
        2
176
     1
 62
     7
176
     1
 90
        5
176
     1
 90
        0
176
     1
 90
        0
176
     1
290
     0
176
     1
 90
       13
176
     1
 40
0.0
176
     1
 90
        0
176
     1
290
     0
176
     1
290
     1
176
     1
290
     1
176
     1
290
     0
176
     1
290
     0
176
     1
290
     0
176
     1
290
     0
176
     1
290
     0
176
     1
290
     0
176
     1
 90
       50
176
     1
 40
0.0
176
     1
 40
1.0
176
     1
 90
        0
176
     1
 62
    18
420
        0
176
     1
 90
       50
176
     1
 90
        3
176
     1
 62
     5
420
      255
176
     1
290
     0
176
     1
 90
       50
176
     1
 90
       50
176
     1
 90
       50
176
     1
290
     0
176
     1
 90
       50
176
     1
 62
   256
176
     0
 40
1.0
176
     0
 90
        2
176
     1
  1
strokes_ogs.tif
176
     1
290
     0
176
     1
 40
1.0
176
     1
 40
1.0
176
     1
  0
VISUALSTYLE
  5
31
102
{ACAD_REACTORS
330
29
102
}
330
29
100
AcDbVisualStyle
  2
Hidden
 70
     6
177
     3
291
     0
 70
    58
 90
        1
176
     1
 90
        2
176
     1
 90
        2
176
     1
 90
        0
176
     1
 40
0.6
176
     1
 40
30.0
176
     1
 62
     7
420
 16777215
176
     1
 90
        2
176
     1
 90
        2
176
     1
 62
     7
176
     1
 62
   257
176
     1
 90
        2
176
     1
 90
        1
176
     1
 40
40.0
176
     1
 90
        0
176
     1
 62
   257
176
     1
 40
1.0
176
     1
 90
        1
176
     1
 90
        6
176
     1
 90
        2
176
     1
 62
     7
176
     1
 90
        3
176
     1
 90
        0
176
     1
 90
        0
176
     1
290
     0
176
     1
 90
        1
176
     1
 40
0.0
176
     1
 90
        0
176
     1
290
     0
176
     1
290
     1
176
     1
290
     1
176
     1
290
     0
176
     1
290
     0
176
     1
290
     0
176
     1
290
     0
176
     1
290
     0
176
     1
290
     0
176
     1
 90
       50
176
     1
 40
0.0
176
     1
 40
1.0
176
     1
 90
        0
176
     1
 62
    18
420
        0
176
     1
 90
       50
176
     1
 90
        3
176
     1
 62
     5
420
      255
176
     1
290
     0
176
     1
 90
       50
176
     1
 90
       50
176
     1
 90
       50
176
     1
290
     0
176
     1
 90
       50
176
     1
 62
   256
176
     0
 40
1.0
176
     0
 90
        2
176
     1
  1
strokes_ogs.tif
176
     1
290
     0
176
     1
 40
1.0
176
     1
 40
1.0
176
     1
  0
VISUALSTYLE
  5
3F
102
{ACAD_REACTORS
330
29
102
}
330
29
100
AcDbVisualStyle
  2
JitterOff
 70
    20
177
     3
291
     1
 70
    58
 90
        2
176
     0
 90
        2
176
     0
 90
        0
176
     0
 90
        0
176
     0
 40
0.6
176
     0
 40
30.0
176
     0
 62
     7
420
 16777215
176
     0
 90
        1
176
     0
 90
        4
176
     0
 62
     7
176
     0
 62
   257
176
     0
 90
        1
176
     0
 90
        1
176
     0
 40
1.0
176
     0
 90
       10
176
     2
 62
     7
176
     0
 40
1.0
176
     0
 90
        1
176
     0
 90
        6
176
     0
 90
        2
176
     0
 62
     7
176
     0
 90
        5
176
     0
 90
        0
176
     0
 90
        0
176
     0
290
     0
176
     0
 90
        1
176
     0
 40
0.0
176
     0
 90
        0
176
     0
290
     0
176
     0
290
     1
176
     0
290
     1
176
     0
290
     0
176
     0
290
     0
176
     0
290
     0
176
     0
290
     0
176
     0
290
     0
176
     0
290
     0
176
     0
 90
       50
176
     0
 40
0.0
176
     0
 40
1.0
176
     0
 90
        0
176
     0
 62
    18
420
        0
176
     0
 90
       50
176
     0
 90
        3
176
     0
 62
     5
420
      255
176
     0
290
     0
176
     0
 90
       50
176
     0
 90
       50
176
     0
 90
       50
176
     0
290
     0
176
     0
 90
       50
176
     0
 62
   256
176
     0
 40
1.0
176
     0
 90
        2
176
     0
  1
strokes_ogs.tif
176
     0
290
     0
176
     0
 40
1.0
176
     0
 40
1.0
176
     0
  0
VISUALSTYLE
  5
37
102
{ACAD_REACTORS
330
29
102
}
330
29
100
AcDbVisualStyle
  2
Linepattern
 70
    14
177
     3
291
     1
 70
    58
 90
        2
176
     1
 90
        2
176
     1
 90
        0
176
     1
 90
        0
176
     1
 40
0.6
176
     1
 40
30.0
176
     1
 62
     7
420
 16777215
176
     1
 90
        1
176
     1
 90
        4
176
     1
 62
     7
176
     1
 62
   257
176
     1
 90
        7
176
     1
 90
        7
176
     1
 40
1.0
176
     1
 90
        8
176
     1
 62
     7
176
     1
 40
1.0
176
     1
 90
        1
176
     1
 90
        6
176
     1
 90
        2
176
     1
 62
     7
176
     1
 90
        5
176
     1
 90
        0
176
     1
 90
        0
176
     1
290
     0
176
     1
 90
        1
176
     1
 40
0.0
176
     1
 90
        0
176
     1
290
     0
176
     1
290
     1
176
     1
290
     1
176
     1
290
     0
176
     1
290
     0
176
     1
290
     0
176
     1
290
     0
176
     1
290
     0
176
     1
290
     0
176
     1
 90
       50
176
     1
 40
0.0
176
     1
 40
1.0
176
     1
 90
        0
176
     1
 62
    18
420
        0
176
     1
 90
       50
176
     1
 90
        3
176
     1
 62
     5
420
      255
176
     1
290
     0
176
     1
 90
       50
176
     1
 90
       50
176
     1
 90
       50
176
     1
290
     0
176
     1
 90
       50
176
     1
 62
   256
176
     0
 40
1.0
176
     0
 90
        2
176
     1
  1
strokes_ogs.tif
176
     1
290
     0
176
     1
 40
1.0
176
     1
 40
1.0
176
     1
  0
VISUALSTYLE
  5
40
102
{ACAD_REACTORS
330
29
102
}
330
29
100
AcDbVisualStyle
  2
OverhangOff
 70
    21
177
     3
291
     1
 70
    58
 90
        2
176
     0
 90
        2
176
     0
 90
        0
176
     0
 90
        0
176
     0
 40
0.6
176
     0
 40
30.0
176
     0
 62
     7
420
 16777215
176
     0
 90
        1
176
     0
 90
        4
176
     0
 62
     7
176
     0
 62
   257
176
     0
 90
        1
176
     0
 90
        1
176
     0
 40
1.0
176
     0
 90
        9
176
     2
 62
     7
176
     0
 40
1.0
176
     0
 90
        1
176
     0
 90
        6
176
     0
 90
        2
176
     0
 62
     7
176
     0
 90
        5
176
     0
 90
        0
176
     0
 90
        0
176
     0
290
     0
176
     0
 90
        1
176
     0
 40
0.0
176
     0
 90
        0
176
     0
290
     0
176
     0
290
     1
176
     0
290
     1
176
     0
290
     0
176
     0
290
     0
176
     0
290
     0
176
     0
290
     0
176
     0
290
     0
176
     0
290
     0
176
     0
 90
       50
176
     0
 40
0.0
176
     0
 40
1.0
176
     0
 90
        0
176
     0
 62
    18
420
        0
176
     0
 90
       50
176
     0
 90
        3
176
     0
 62
     5
420
      255
176
     0
290
     0
176
     0
 90
       50
176
     0
 90
       50
176
     0
 90
       50
176
     0
290
     0
176
     0
 90
       50
176
     0
 62
   256
176
     0
 40
1.0
176
     0
 90
        2
176
     0
  1
strokes_ogs.tif
176
     0
290
     0
176
     0
 40
1.0
176
     0
 40
1.0
176
     0
  0
VISUALSTYLE
  5
33
102
{ACAD_REACTORS
330
29
102
}
330
29
100
AcDbVisualStyle
  2
Realistic
 70
     8
177
     3
291
     0
 70
    58
 90
        2
176
     1
 90
        3
176
     1
 90
        0
176
     1
 90
        2
176
     1
 40
0.6
176
     1
 40
30.0
176
     1
 62
     7
420
 16777215
176
     1
 90
        0
176
     1
 90
        0
176
     1
 62
     7
176
     1
 62
   257
176
     1
 90
        1
176
     1
 90
        1
176
     1
 40
1.0
176
     1
 90
        8
176
     1
 62
   257
176
     1
 40
1.0
176
     1
 90
        1
176
     1
 90
        6
176
     1
 90
        2
176
     1
 62
     7
176
     1
 90
        3
176
     1
 90
        0
176
     1
 90
        0
176
     1
290
     0
176
     1
 90
       13
176
     1
 40
0.0
176
     1
 90
        0
176
     1
290
     0
176
     1
290
     1
176
     1
290
     1
176
     1
290
     0
176
     1
290
     0
176
     1
290
     0
176
     1
290
     0
176
     1
290
     0
176
     1
290
     0
176
     1
 90
       50
176
     1
 40
0.0
176
     1
 40
1.0
176
     1
 90
        0
176
     1
 62
    18
420
        0
176
     1
 90
       50
176
     1
 90
        3
176
     1
 62
     5
420
      255
176
     1
290
     0
176
     1
 90
       50
176
     1
 90
       50
176
     1
 90
       50
176
     1
290
     0
176
     1
 90
       50
176
     1
 62
   256
176
     0
 40
1.0
176
     0
 90
        2
176
     1
  1
strokes_ogs.tif
176
     1
290
     0
176
     1
 40
1.0
176
     1
 40
1.0
176
     1
  0
VISUALSTYLE
  5
3E
102
{ACAD_REACTORS
330
29
102
}
330
29
100
AcDbVisualStyle
  2
Shaded
 70
    27
177
     3
291
     0
 70
    58
 90
        2
176
     1
 90
        2
176
     1
 90
        1
176
     1
 90
        2
176
     1
 40
0.6
176
     1
 40
30.0
176
     1
 62
     7
420
 16777215
176
     1
 90
        0
176
     1
 90
        4
176
     1
 62
     7
176
     1
 62
   257
176
     1
 90
        1
176
     1
 90
        1
176
     1
 40
1.0
176
     1
 90
        8
176
     1
 62
   257
176
     1
 40
1.0
176
     1
 90
        1
176
     1
 90
        6
176
     1
 90
        2
176
     1
 62
     8
420
  7895160
176
     1
 90
        3
176
     1
 90
        0
176
     1
 90
        0
176
     1
290
     0
176
     1
 90
        5
176
     1
 40
0.0
176
     1
 90
        0
176
     1
290
     0
176
     1
290
     1
176
     1
290
     1
176
     1
290
     0
176
     1
290
     0
176
     1
290
     0
176
     1
290
     0
176
     1
290
     0
176
     1
290
     0
176
     1
 90
       50
176
     1
 40
0.0
176
     1
 40
1.0
176
     1
 90
        0
176
     1
 62
    18
420
        0
176
     1
 90
       50
176
     1
 90
        3
176
     1
 62
     5
420
      255
176
     1
290
     0
176
     1
 90
       50
176
     1
 90
       50
176
     1
 90
       50
176
     1
290
     0
176
     1
 90
       50
176
     1
 62
   256
176
     0
 40
1.0
176
     0
 90
        2
176
     1
  1
strokes_ogs.tif
176
     1
290
     0
176
     1
 40
1.0
176
     1
 40
1.0
176
     1
  0
VISUALSTYLE
  5
3D
102
{ACAD_REACTORS
330
29
102
}
330
29
100
AcDbVisualStyle
  2
Shaded with edges
 70
    26
177
     3
291
     0
 70
    58
 90
        2
176
     1
 90
        2
176
     1
 90
        1
176
     1
 90
        2
176
     1
 40
0.6
176
     1
 40
30.0
176
     1
 62
     7
420
 16777215
176
     1
 90
        1
176
     1
 90
       10
176
     1
 62
     7
176
     1
 62
   257
176
     1
 90
        2
176
     1
 90
        1
176
     1
 40
1.0
176
     1
 90
        8
176
     1
 62
   257
176
     1
 40
1.0
176
     1
 90
        1
176
     1
 90
        6
176
     1
 90
        2
176
     1
 62
     7
176
     1
 90
        3
176
     1
 90
        0
176
     1
 90
        0
176
     1
290
     0
176
     1
 90
        5
176
     1
 40
0.0
176
     1
 90
        0
176
     1
290
     0
176
     1
290
     1
176
     1
290
     1
176
     1
290
     0
176
     1
290
     0
176
     1
290
     0
176
     1
290
     0
176
     1
290
     0
176
     1
290
     0
176
     1
 90
       50
176
     1
 40
0.0
176
     1
 40
1.0
176
     1
 90
        0
176
     1
 62
    18
420
        0
176
     1
 90
       50
176
     1
 90
        3
176
     1
 62
     5
420
      255
176
     1
290
     0
176
     1
 90
       50
176
     1
 90
       50
176
     1
 90
       50
176
     1
290
     0
176
     1
 90
       50
176
     1
 62
   256
176
     0
 40
1.0
176
     0
 90
        2
176
     1
  1
strokes_ogs.tif
176
     1
290
     0
176
     1
 40
1.0
176
     1
 40
1.0
176
     1
  0
VISUALSTYLE
  5
3A
102
{ACAD_REACTORS
330
29
102
}
330
29
100
AcDbVisualStyle
  2
Shades of Gray
 70
    23
177
     3
291
     0
 70
    58
 90
        2
176
     1
 90
        2
176
     1
 90
        3
176
     1
 90
        0
176
     1
 40
0.6
176
     1
 40
30.0
176
     1
 62
     7
420
 16777215
176
     1
 90
        2
176
     1
 90
        2
176
     1
 62
     7
176
     1
 62
     7
176
     1
 90
        1
176
     1
 90
        1
176
     1
 40
40.0
176
     1
 90
        8
176
     1
 62
     7
176
     1
 40
1.0
176
     1
 90
        1
176
     1
 90
        6
176
     1
 90
        2
176
     1
 62
     7
176
     1
 90
        3
176
     1
 90
        0
176
     1
 90
        0
176
     1
290
     0
176
     1
 90
        1
176
     1
 40
0.0
176
     1
 90
        0
176
     1
290
     0
176
     1
290
     1
176
     1
290
     1
176
     1
290
     0
176
     1
290
     0
176
     1
290
     0
176
     1
290
     0
176
     1
290
     0
176
     1
290
     0
176
     1
 90
       50
176
     1
 40
0.0
176
     1
 40
1.0
176
     1
 90
        0
176
     1
 62
    18
420
        0
176
     1
 90
       50
176
     1
 90
        3
176
     1
 62
     5
420
      255
176
     1
290
     0
176
     1
 90
       50
176
     1
 90
       50
176
     1
 90
       50
176
     1
290
     0
176
     1
 90
       50
176
     1
 62
   256
176
     0
 40
1.0
176
     0
 90
        2
176
     1
  1
strokes_ogs.tif
176
     1
290
     0
176
     1
 40
1.0
176
     1
 40
1.0
176
     1
  0
VISUALSTYLE
  5
3B
102
{ACAD_REACTORS
330
29
102
}
330
29
100
AcDbVisualStyle
  2
Sketchy
 70
    24
177
     3
291
     0
 70
    58
 90
        1
176
     1
 90
        2
176
     1
 90
        2
176
     1
 90
        0
176
     1
 40
0.6
176
     1
 40
30.0
176
     1
 62
     7
420
 16777215
176
     1
 90
        2
176
     1
 90
        2
176
     1
 62
     7
176
     1
 62
     7
176
     1
 90
        1
176
     1
 90
        1
176
     1
 40
40.0
176
     1
 90
       11
176
     1
 62
     7
176
     1
 40
1.0
176
     1
 90
        1
176
     1
 90
        6
176
     1
 90
        2
176
     1
 62
     7
176
     1
 90
        6
176
     1
 90
        0
176
     1
 90
        0
176
     1
290
     0
176
     1
 90
        1
176
     1
 40
0.0
176
     1
 90
        0
176
     1
290
     0
176
     1
290
     1
176
     1
290
     1
176
     1
290
     0
176
     1
290
     0
176
     1
290
     0
176
     1
290
     0
176
     1
290
     0
176
     1
290
     0
176
     1
 90
       50
176
     1
 40
0.0
176
     1
 40
1.0
176
     1
 90
        0
176
     1
 62
    18
420
        0
176
     1
 90
       50
176
     1
 90
        3
176
     1
 62
     5
420
      255
176
     1
290
     0
176
     1
 90
       50
176
     1
 90
       50
176
     1
 90
       50
176
     1
290
     0
176
     1
 90
       50
176
     1
 62
   256
176
     0
 40
1.0
176
     0
 90
        2
176
     1
  1
strokes_ogs.tif
176
     1
290
     0
176
     1
 40
1.0
176
     1
 40
1.0
176
     1
  0
VISUALSTYLE
  5
36
102
{ACAD_REACTORS
330
29
102
}
330
29
100
AcDbVisualStyle
  2
Thicken
 70
    13
177
     3
291
     1
 70
    58
 90
        2
176
     1
 90
        2
176
     1
 90
        0
176
     1
 90
        0
176
     1
 40
0.6
176
     1
 40
30.0
176
     1
 62
     7
420
 16777215
176
     1
 90
        1
176
     1
 90
        4
176
     1
 62
     7
176
     1
 62
   257
176
     1
 90
        1
176
     1
 90
        1
176
     1
 40
1.0
176
     1
 90
       12
176
     1
 62
     7
176
     1
 40
1.0
176
     1
 90
        1
176
     1
 90
        6
176
     1
 90
        2
176
     1
 62
     7
176
     1
 90
        5
176
     1
 90
        0
176
     1
 90
        0
176
     1
290
     0
176
     1
 90
        1
176
     1
 40
0.0
176
     1
 90
        0
176
     1
290
     0
176
     1
290
     1
176
     1
290
     1
176
     1
290
     0
176
     1
290
     0
176
     1
290
     0
176
     1
290
     0
176
     1
290
     0
176
     1
290
     0
176
     1
 90
       50
176
     1
 40
0.0
176
     1
 40
1.0
176
     1
 90
        0
176
     1
 62
    18
420
        0
176
     1
 90
       50
176
     1
 90
        3
176
     1
 62
     5
420
      255
176
     1
290
     0
176
     1
 90
       50
176
     1
 90
       50
176
     1
 90
       50
176
     1
290
     0
176
     1
 90
       50
176
     1
 62
   256
176
     0
 40
1.0
176
     0
 90
        2
176
     1
  1
strokes_ogs.tif
176
     1
290
     0
176
     1
 40
1.0
176
     1
 40
1.0
176
     1
  0
VISUALSTYLE
  5
30
102
{ACAD_REACTORS
330
29
102
}
330
29
100
AcDbVisualStyle
  2
Wireframe
 70
     5
177
     3
291
     0
 70
    58
 90
        0
176
     1
 90
        2
176
     1
 90
        0
176
     1
 90
        0
176
     1
 40
0.6
176
     1
 40
30.0
176
     1
 62
     7
420
 16777215
176
     1
 90
        1
176
     1
 90
        4
176
     1
 62
     7
176
     1
 62
   257
176
     1
 90
        1
176
     1
 90
        1
176
     1
 40
1.0
176
     1
 90
        0
176
     1
 62
   257
176
     1
 40
1.0
176
     1
 90
        1
176
     1
 90
        6
176
     1
 90
        2
176
     1
 62
     7
176
     1
 90
        3
176
     1
 90
        0
176
     1
 90
        0
176
     1
290
     0
176
     1
 90
        1
176
     1
 40
0.0
176
     1
 90
        0
176
     1
290
     0
176
     1
290
     1
176
     1
290
     1
176
     1
290
     0
176
     1
290
     0
176
     1
290
     0
176
     1
290
     0
176
     1
290
     0
176
     1
290
     0
176
     1
 90
       50
176
     1
 40
0.0
176
     1
 40
1.0
176
     1
 90
        0
176
     1
 62
    18
420
        0
176
     1
 90
       50
176
     1
 90
        3
176
     1
 62
     5
420
      255
176
     1
290
     0
176
     1
 90
       50
176
     1
 90
       50
176
     1
 90
       50
176
     1
290
     0
176
     1
 90
       50
176
     1
 62
   256
176
     0
 40
1.0
176
     0
 90
        2
176
     1
  1
strokes_ogs.tif
176
     1
290
     0
176
     1
 40
1.0
176
     1
 40
1.0
176
     1
  0
VISUALSTYLE
  5
3C
102
{ACAD_REACTORS
330
29
102
}
330
29
100
AcDbVisualStyle
  2
X-Ray
 70
    25
177
     3
291
     0
 70
    58
 90
        2
176
     1
 90
        2
176
     1
 90
        1
176
     1
 90
        1
176
     1
 40
0.5
176
     1
 40
30.0
176
     1
 62
     7
420
 16777215
176
     1
 90
        1
176
     1
 90
        0
176
     1
 62
     7
176
     1
 62
   257
176
     1
 90
        1
176
     1
 90
        1
176
     1
 40
1.0
176
     1
 90
        8
176
     1
 62
     7
176
     1
 40
1.0
176
     1
 90
        1
176
     1
 90
        6
176
     1
 90
        2
176
     1
 62
     7
176
     1
 90
        3
176
     1
 90
        0
176
     1
 90
        0
176
     1
290
     0
176
     1
 90
       13
176
     1
 40
0.0
176
     1
 90
        0
176
     1
290
     0
176
     1
290
     1
176
     1
290
     1
176
     1
290
     0
176
     1
290
     0
176
     1
290
     0
176
     1
290
     0
176
     1
290
     0
176
     1
290
     0
176
     1
 90
       50
176
     1
 40
0.0
176
     1
 40
1.0
176
     1
 90
        0
176
     1
 62
    18
420
        0
176
     1
 90
       50
176
     1
 90
        3
176
     1
 62
     5
420
      255
176
     1
290
     0
176
     1
 90
       50
176
     1
 90
       50
176
     1
 90
       50
176
     1
290
     0
176
     1
 90
       50
176
     1
 62
   256
176
     0
 40
1.0
176
     0
 90
        2
176
     1
  1
strokes_ogs.tif
176
     1
290
     0
176
     1
 40
1.0
176
     1
 40
1.0
176
     1
  0
DICTIONARYVAR
  5
421
102
{ACAD_REACTORS
330
41C
102
}
330
41C
100
DictionaryVariables
280
     0
  1
1:1
  0
DICTIONARYVAR
  5
41E
102
{ACAD_REACTORS
330
41C
102
}
330
41C
100
DictionaryVariables
280
     0
  1
STANDARD
  0
DICTIONARYVAR
  5
41D
102
{ACAD_REACTORS
330
41C
102
}
330
41C
100
DictionaryVariables
280
     0
  1
STANDARD
  0
DICTIONARYVAR
  5
41F
102
{ACAD_REACTORS
330
41C
102
}
330
41C
100
DictionaryVariables
280
     0
  1
Imperial24
  0
DICTIONARYVAR
  5
420
102
{ACAD_REACTORS
330
41C
102
}
330
41C
100
DictionaryVariables
280
     0
  1
Imperial24
  0
DICTIONARY
  5
427
330
6A
100
AcDbDictionary
280
     1
281
     1
  3
ACAD_XREC_ROUNDTRIP
360
428
  0
DICTIONARY
  5
1A
330
19
100
AcDbDictionary
280
     1
281
     1
  3
BUMPTILE
360
1C
  3
DIFFUSETILE
360
1B
  3
OPACITYTILE
360
1F
  3
REFLECTIONTILE
360
1E
  3
REFRACTIONTILE
360
20
  3
SPECULARTILE
360
1D
  0
DICTIONARY
  5
12
330
11
100
AcDbDictionary
280
     1
281
     1
  3
BUMPTILE
360
14
  3
DIFFUSETILE
360
13
  3
OPACITYTILE
360
17
  3
REFLECTIONTILE
360
16
  3
REFRACTIONTILE
360
18
  3
SPECULARTILE
360
15
  0
DICTIONARY
  5
22
330
21
100
AcDbDictionary
280
     1
281
     1
  3
BUMPTILE
360
24
  3
DIFFUSETILE
360
23
  3
OPACITYTILE
360
27
  3
REFLECTIONTILE
360
26
  3
REFRACTIONTILE
360
28
  3
SPECULARTILE
360
25
  0
DICTIONARY
  5
425
330
68
100
AcDbDictionary
280
     1
281
     1
  3
ACAD_XREC_ROUNDTRIP
360
426
  0
DICTIONARY
  5
423
330
64
100
AcDbDictionary
280
     1
281
     1
  3
ACAD_ROUNDTRIP_2008_TABLESTYLE_CELLSTYLEMAP
360
424
  0
XRECORD
  5
428
102
{ACAD_REACTORS
330
427
102
}
330
427
100
AcDbXrecord
280
     1
102
DISPLAYNAME
  1
Imperial24
102
FLAGS
 90
        0
  0
XRECORD
  5
1C
102
{ACAD_REACTORS
330
1A
102
}
330
1A
100
AcDbXrecord
280
     1
270
     1
271
     1
  0
XRECORD
  5
1B
102
{ACAD_REACTORS
330
1A
102
}
330
1A
100
AcDbXrecord
280
     1
270
     1
271
     1
  0
XRECORD
  5
1F
102
{ACAD_REACTORS
330
1A
102
}
330
1A
100
AcDbXrecord
280
     1
270
     1
271
     1
  0
XRECORD
  5
1E
102
{ACAD_REACTORS
330
1A
102
}
330
1A
100
AcDbXrecord
280
     1
270
     1
271
     1
  0
XRECORD
  5
20
102
{ACAD_REACTORS
330
1A
102
}
330
1A
100
AcDbXrecord
280
     1
270
     1
271
     1
  0
XRECORD
  5
1D
102
{ACAD_REACTORS
330
1A
102
}
330
1A
100
AcDbXrecord
280
     1
270
     1
271
     1
  0
XRECORD
  5
14
102
{ACAD_REACTORS
330
12
102
}
330
12
100
AcDbXrecord
280
     1
270
     1
271
     1
  0
XRECORD
  5
13
102
{ACAD_REACTORS
330
12
102
}
330
12
100
AcDbXrecord
280
     1
270
     1
271
     1
  0
XRECORD
  5
17
102
{ACAD_REACTORS
330
12
102
}
330
12
100
AcDbXrecord
280
     1
270
     1
271
     1
  0
XRECORD
  5
16
102
{ACAD_REACTORS
330
12
102
}
330
12
100
AcDbXrecord
280
     1
270
     1
271
     1
  0
XRECORD
  5
18
102
{ACAD_REACTORS
330
12
102
}
330
12
100
AcDbXrecord
280
     1
270
     1
271
     1
  0
XRECORD
  5
15
102
{ACAD_REACTORS
330
12
102
}
330
12
100
AcDbXrecord
280
     1
270
     1
271
     1
  0
XRECORD
  5
24
102
{ACAD_REACTORS
330
22
102
}
330
22
100
AcDbXrecord
280
     1
270
     1
271
     1
  0
XRECORD
  5
23
102
{ACAD_REACTORS
330
22
102
}
330
22
100
AcDbXrecord
280
     1
270
     1
271
     1
  0
XRECORD
  5
27
102
{ACAD_REACTORS
330
22
102
}
330
22
100
AcDbXrecord
280
     1
270
     1
271
     1
  0
XRECORD
  5
26
102
{ACAD_REACTORS
330
22
102
}
330
22
100
AcDbXrecord
280
     1
270
     1
271
     1
  0
XRECORD
  5
28
102
{ACAD_REACTORS
330
22
102
}
330
22
100
AcDbXrecord
280
     1
270
     1
271
     1
  0
XRECORD
  5
25
102
{ACAD_REACTORS
330
22
102
}
330
22
100
AcDbXrecord
280
     1
270
     1
271
     1
  0
XRECORD
  5
426
102
{ACAD_REACTORS
330
425
102
}
330
425
100
AcDbXrecord
280
     1
102
DISPLAYNAME
  1
Imperial24
102
FLAGS
 90
        0
  0
CELLSTYLEMAP
  5
424
102
{ACAD_REACTORS
330
423
102
}
330
423
100
AcDbCellStyleMap
 90
        3
300
CELLSTYLE
  1
TABLEFORMAT_BEGIN
 90
        5
170
     1
 91
        0
 92
    32768
 62
   257
 93
        1
300
CONTENTFORMAT
  1
CONTENTFORMAT_BEGIN
 90
        0
 91
        0
 92
      512
 93
        0
300

 40
0.0
140
1.0
 94
        5
 62
     0
340
55
144
0.25
309
CONTENTFORMAT_END
171
     0
 94
        0
309
TABLEFORMAT_END
  1
CELLSTYLE_BEGIN
 90
        1
 91
        1
300
_TITLE
309
CELLSTYLE_END
300
CELLSTYLE
  1
TABLEFORMAT_BEGIN
 90
        5
170
     1
 91
        0
 92
        0
 62
   257
 93
        1
300
CONTENTFORMAT
  1
CONTENTFORMAT_BEGIN
 90
        0
 91
        0
 92
      512
 93
        0
300

 40
0.0
140
1.0
 94
        5
 62
     0
340
55
144
0.18
309
CONTENTFORMAT_END
171
     0
 94
        0
309
TABLEFORMAT_END
  1
CELLSTYLE_BEGIN
 90
        2
 91
        1
300
_HEADER
309
CELLSTYLE_END
300
CELLSTYLE
  1
TABLEFORMAT_BEGIN
 90
        5
170
     1
 91
        0
 92
        0
 62
   257
 93
        1
300
CONTENTFORMAT
  1
CONTENTFORMAT_BEGIN
 90
        0
 91
        0
 92
      512
 93
        0
300

 40
0.0
140
1.0
 94
        2
 62
     0
340
55
144
0.18
309
CONTENTFORMAT_END
171
     0
 94
        0
309
TABLEFORMAT_END
  1
CELLSTYLE_BEGIN
 90
        3
 91
        2
300
_DATA
309
CELLSTYLE_END
  0
ENDSEC
  0
SECTION
  2
ACDSDATA
 70
     2
 71
     6
  0
ACDSSCHEMA
 90
        0
  1
AcDb_Thumbnail_Schema
  2
AcDbDs::ID
280
    10
 91
        8
  2
Thumbnail_Data
280
    15
 91
        0
101
ACDSRECORD
 95
        0
 90
        1
  2
AcDbDs::TreatedAsObjectData
280
     1
291
     1
101
ACDSRECORD
 95
        0
 90
        2
  2
AcDbDs::Legacy
280
     1
291
     1
101
ACDSRECORD
  1
AcDbDs::ID
 90
        3
  2
AcDs:Indexable
280
     1
291
     1
101
ACDSRECORD
  1
AcDbDs::ID
 90
        4
  2
AcDbDs::HandleAttribute
280
     7
282
     1
  0
ACDSSCHEMA
 90
        1
  1
AcDbDs::TreatedAsObjectDataSchema
  2
AcDbDs::TreatedAsObjectData
280
     1
 91
        0
  0
ACDSSCHEMA
 90
        2
  1
AcDbDs::LegacySchema
  2
AcDbDs::Legacy
280
     1
 91
        0
  0
ACDSSCHEMA
 90
        3
  1
AcDbDs::IndexedPropertySchema
  2
AcDs:Indexable
280
     1
 91
        0
  0
ACDSSCHEMA
 90
        4
  1
AcDbDs::HandleAttributeSchema
  2
AcDbDs::HandleAttribute
280
     7
 91
        1
284
     1
  0
ACDSRECORD
 90
        0
  2
AcDbDs::ID
280
    10
320
72
  2
Thumbnail_Data
280
    15
 94
     2093
310
89504E470D0A1A0A0000000D49484452000001000000009B0803000000BA7AB56000000300504C54455B5B5B000000C8C8C80000000000000000000000000000000000000000000000000000330000660000990000CC0000FF0033000033330033660033990033CC0033FF0066000066330066660066990066CC0066FF0099
310
000099330099660099990099CC0099FF00CC0000CC3300CC6600CC9900CCCC00CCFF00FF0000FF3300FF6600FF9900FFCC00FFFF3300003300333300663300993300CC3300FF3333003333333333663333993333CC3333FF3366003366333366663366993366CC3366FF3399003399333399663399993399CC3399FF33CC00
310
33CC3333CC6633CC9933CCCC33CCFF33FF0033FF3333FF6633FF9933FFCC33FFFF6600006600336600666600996600CC6600FF6633006633336633666633996633CC6633FF6666006666336666666666996666CC6666FF6699006699336699666699996699CC6699FF66CC0066CC3366CC6666CC9966CCCC66CCFF66FF0066
310
FF3366FF6666FF9966FFCC66FFFF9900009900339900669900999900CC9900FF9933009933339933669933999933CC9933FF9966009966339966669966999966CC9966FF9999009999339999669999999999CC9999FF99CC0099CC3399CC6699CC9999CCCC99CCFF99FF0099FF3399FF6699FF9999FFCC99FFFFCC0000CC00
310
33CC0066CC0099CC00CCCC00FFCC3300CC3333CC3366CC3399CC33CCCC33FFCC6600CC6633CC6666CC6699CC66CCCC66FFCC9900CC9933CC9966CC9999CC99CCCC99FFCCCC00CCCC33CCCC66CCCC99CCCCCCCCCCFFCCFF00CCFF33CCFF66CCFF99CCFFCCCCFFFFFF0000FF0033FF0066FF0099FF00CCFF00FFFF3300FF3333
310
FF3366FF3399FF33CCFF33FFFF6600FF6633FF6666FF6699FF66CCFF66FFFF9900FF9933FF9966FF9999FF99CCFF99FFFFCC00FFCC33FFCC66FFCC99FFCCCCFFCCFFFFFF00FFFF33FFFF66FFFF99FFFFCCFFFFFF0000000D0D0D1A1A1A2828283535354343435050505D5D5D6B6B6B787878868686939393A1A1A1AEAEAEBB
310
BBBBC9C9C9D6D6D6E4E4E4F1F1F1FFFFFF00000000000000000000000000000000000000000000000000000000000054549EDE000004E84944415478DAED5D5DD2DC200CE342BAFF9BCFD626FC8321D9E94B919276FAEDECB433952DDBB22110C2BF3DB89FA0FA24E8B206C0F053D3FD0F06E00D108467FC113DC8F1AF0182
310
3942101E2DF02A4418F0FB00F12646580D306A0370E31FE261CEFB083206708B1E3FFE92EEF1EA6F131A207E8160AAF8AF6F4C07BF6B00D865025AFC80C176BD4FA400AFFF2FFF6EA5ED42F3D3F0FFC65F7CEC236526C0C5806C852505A81540C6FF1B05A8F0DBED7F6B144FAFFA90E683DD3F339A1C98C05BAF79F1A00611
310
582C801BBF550AEC860268CD4662805BE5D9CC696C3FAEB4D1A1262824700DE044C399F8B18B034C948E118FFCE336539A09C04E8C804543D3E31DBECA25C162A1CC5EBFB4F38104C83EFC9D3816ACAF15E7F0BFA2C6C66DBB5540449990F01F47FCC8DCBF1E432B76FCF4E05A21C9848CDF0ED38057EEBAB33C520C2FA200
310
F1572BFAB3317AFC0867053FEA7F7FCF61CC4A276145E77FF89DD17F1C0171DA6151EFDC1FCD6C41814601C7704069972BFEB30C80D1FF573C780608FD6E80E4FB1B2C2AFFE72EE108FC31FF670AAC0C70B916180B43B4C49D486A4F889352C0E0FF5BF22EA26060374A58E4A160A2C5414190E33F140ADC1160B6A887E3AA
310
5FA245614666C5413268F23F120516C9308C1488BF510625476D0B412D02F56306BE91458311805A134E2D82D7CFF431CEB3ACD020BCA3C16902A02F82A518E66E2E27010BB60E05A40C887337C4E41ED6F2DCA7182079DF6C6D80B608948A705C07DCF9BF77616281F946006681749E014AFC23341920141A14F4535D8C49
310
AF047ED1446752A0FC0127465C06CC6350E0C82970D541CD40AB67C1340D1D0970F6A6D94E0CBB103C06BCD82878A018DE4019AB2192E23F34F01724D84089E8CDF13AC5E2472C02D386BF7E12DA32808B00B929F0E31A435D6C9ABE890047BF40F2887FCA84235C5031C23140584E091A65CCB3310AE35AC8A629688DC5FC
310
06CD93099842602906F64140FE0EDD6310B0BF409647656641F5497DB1B001C2AB312139030659AC1A05C20608FB51A94A14E455445523A491695B10845E232FB89B5000842CD02E9DA68FD48D90ABF09B79B995BD4160850F7F5EDE2CA4F336C3BB55CF7ED1E0B0AD01BFB21F3B5D14F3016137FCE6A488B645A0D3052F17
310
804A93C8D628FE740E022303C80F82F80DBFA401E42DB05A2E123581EAA969791554F7D8BC0048C35766FFF77C8F7AE553850F75EF0B9F94AB5EF5F0E1FF0CA05C04A05E03171B5D31EF1B5655465F76141748BA11807582D0488CBAA541FC1289FC0604D46FD190BE460501D203F1A08DDF3B35469A0DEA6250BE5B14CF07
310
DFF33DDFA3BE4A2CB523DE75BFB805D4B7CA944355214D005D123404102581FAC6E1EEE81819038C3789CCC767B1BB7CB836045221904F4AEA6F4EA13F28C4CB73C38E698DE158CD779907F5460D047E1AACEF0EC3D31D934CF1DF8B1F74E4A04E062FAF186065417F5C669B0CBAEC50AA8486FBC3FAE8503613F492F78900
310
84AA10AB1018F223B32AC6B60ABE0C19BA32081D026CEE908584FF839705E17EAFA3847C02109F1BA34B00AC09A09000FA1B437A573BFA80B3FEBB77EA292400C0EB819B4B24FAEF099B207706505E242C73215A0184C612A3699A1D83BC1B88CB1018AB32D8C50AE92464762E9CD2489500B0D541E51A25DA09281EF40D98
310
391FFC013FFC51306DD703AC09C0BF08862D0104160177232ED1DD40601F76BC0A8BEFEC2409FC7F00CC8377782AB1021E0000000049454E44AE426082
  0
ENDSEC
  0
EOF
